M48
; DRILL file {KiCad (6.0.5-0)} date Tuesday, June 28, 2022 at 01:33:05 PM
; FORMAT={3:3/ absolute / metric / suppress leading zeros}
; #@! TF.CreationDate,2022-06-28T13:33:05-07:00
; #@! TF.GenerationSoftware,Kicad,Pcbnew,(6.0.5-0)
; #@! TF.FileFunction,MixedPlating,1,2
FMAT,2
METRIC,TZ
; #@! TA.AperFunction,Plated,PTH,ViaDrill
T1C0.250
; #@! TA.AperFunction,Plated,PTH,ViaDrill
T2C0.400
; #@! TA.AperFunction,Plated,PTH,ComponentDrill
T3C0.500
; #@! TA.AperFunction,Plated,PTH,ComponentDrill
T4C0.600
; #@! TA.AperFunction,Plated,PTH,ComponentDrill
T5C0.650
; #@! TA.AperFunction,Plated,PTH,ComponentDrill
T6C1.000
; #@! TA.AperFunction,NonPlated,NPTH,ComponentDrill
T7C0.500
%
G90
G05
T1
X107315Y-75184
X107823Y-73152
X108331Y-70612
X108839Y-68580
X111125Y-76835
X113538Y-75057
X114046Y-73660
X114300Y-67564
X114300Y-70866
X114554Y-74422
X114935Y-80772
X115570Y-99060
X116027Y-75235
X116967Y-77724
X117602Y-64643
X119126Y-72136
X119253Y-66929
X119380Y-82931
X119380Y-83820
X119761Y-86741
X120904Y-75057
X121031Y-86741
X121793Y-75819
X122047Y-76962
X122492Y-98616
X123190Y-64897
X123317Y-76073
X123571Y-74041
X124968Y-67945
X125222Y-76200
X125984Y-76835
X127508Y-89916
X127635Y-76200
X127889Y-63881
X128651Y-77724
X128778Y-79121
X128905Y-70739
X128905Y-83058
X128981Y-81940
X129794Y-80899
X130683Y-78486
X130810Y-75184
X130937Y-76073
X131064Y-88773
X134493Y-112395
X134683Y-124072
X135255Y-97028
X135382Y-111506
X135382Y-124841
X136271Y-120142
X136525Y-96774
X136779Y-124714
X137414Y-87376
X137795Y-118364
X138303Y-73406
X140335Y-80137
X140335Y-89154
X140335Y-95377
X140970Y-80899
X142113Y-83312
X143263Y-114166
X143510Y-85217
X145034Y-97536
X145796Y-78359
X145796Y-97536
X145923Y-87376
X147574Y-71882
X150749Y-81153
X151892Y-106426
X152019Y-74422
X152781Y-105029
X153543Y-100330
X153924Y-64389
X154305Y-104140
X154559Y-103251
X154686Y-116713
X154813Y-95631
X156591Y-79756
X156616Y-104242
X157226Y-103251
X157480Y-80391
X159004Y-72517
X159639Y-72009
X159873Y-86746
X160147Y-59309
X160401Y-80010
X162297Y-64516
X162751Y-115126
X164338Y-60579
X164338Y-77597
X165227Y-105029
X165862Y-77851
X166878Y-99822
X167513Y-78994
X168402Y-67564
X169545Y-95250
X169545Y-105156
X170434Y-90170
X171069Y-96012
X171069Y-107950
X171958Y-61062
X171958Y-71501
X171958Y-93726
T2
X104648Y-127000
T4
X120396Y-105276
X120396Y-106546
X120396Y-107816
X120396Y-109086
X120396Y-110356
X120396Y-111626
X120396Y-112896
X120396Y-114166
X120396Y-115436
X120396Y-116706
X120396Y-117976
X120396Y-119246
X120396Y-120516
X120396Y-121786
X126365Y-99281
X126365Y-127781
X127635Y-99281
X127635Y-127781
X128905Y-99281
X128905Y-127781
X130175Y-99281
X130175Y-127781
X131445Y-99281
X131445Y-127781
X132715Y-99281
X132715Y-127781
X133985Y-99281
X133985Y-127781
X135255Y-99281
X135255Y-127781
X136525Y-99281
X136525Y-127781
X137795Y-99281
X137795Y-127781
X139065Y-99281
X139065Y-127781
X140335Y-99281
X140335Y-127781
X141605Y-99281
X141605Y-127781
X142875Y-99281
X142875Y-127781
X148870Y-105276
X148870Y-106546
X148870Y-107816
X148870Y-109086
X148870Y-110356
X148870Y-111626
X148870Y-112896
X148870Y-114166
X148870Y-115436
X148870Y-116706
X148870Y-117976
X148870Y-119246
X148870Y-120516
X148870Y-121786
T6
X101854Y-61062
X101854Y-63602
X101854Y-66142
X101854Y-68682
X101854Y-71222
X101854Y-73762
X101854Y-76302
X101854Y-78842
X101854Y-81382
X101854Y-83922
X101854Y-86462
X101854Y-89002
X101854Y-91542
X101854Y-94082
X101854Y-96622
X101854Y-99162
X101854Y-101702
X101854Y-104242
X101854Y-106782
X101854Y-109322
X101854Y-111862
X101854Y-114402
X101854Y-116942
X101854Y-119482
X101854Y-122022
X101854Y-124562
X101854Y-127102
X115062Y-60706
X117602Y-60706
X120142Y-60706
X122682Y-60706
X125222Y-60706
X127762Y-60706
X154414Y-118999
X154686Y-74173
X154686Y-76713
X154737Y-86746
X154737Y-89286
X156954Y-118999
X156972Y-66045
X156972Y-68585
X164061Y-109728
X164061Y-112268
X165989Y-63251
X165989Y-65791
X174346Y-61062
X174346Y-63602
X174346Y-66142
X174346Y-68682
X174346Y-71222
X174346Y-73762
X174346Y-76302
X174346Y-78842
X174346Y-81382
X174346Y-83922
X174346Y-86462
X174346Y-89002
X174346Y-91542
X174346Y-94082
X174346Y-96622
X174346Y-99162
X174346Y-101702
X174346Y-104242
X174346Y-106782
X174346Y-109322
X174346Y-111862
X174346Y-114402
X174346Y-116942
X174346Y-119482
X174346Y-122022
X174346Y-124562
X174346Y-127102
T7
X134700Y-60325
X141300Y-60325
T3
G00X134700Y-60675
M15
G01X134700Y-59975
M16
G05
G00X141300Y-60675
M15
G01X141300Y-59975
M16
G05
T5
G00X121421Y-105276
M15
G01X122471Y-105276
M16
G05
G00X121421Y-106546
M15
G01X122471Y-106546
M16
G05
G00X121421Y-107816
M15
G01X122471Y-107816
M16
G05
G00X121421Y-109086
M15
G01X122471Y-109086
M16
G05
G00X121421Y-110356
M15
G01X122471Y-110356
M16
G05
G00X121421Y-111626
M15
G01X122471Y-111626
M16
G05
G00X121421Y-112896
M15
G01X122471Y-112896
M16
G05
G00X121421Y-114166
M15
G01X122471Y-114166
M16
G05
G00X121421Y-115436
M15
G01X122471Y-115436
M16
G05
G00X121421Y-116706
M15
G01X122471Y-116706
M16
G05
G00X121421Y-117976
M15
G01X122471Y-117976
M16
G05
G00X121421Y-119246
M15
G01X122471Y-119246
M16
G05
G00X121421Y-120516
M15
G01X122471Y-120516
M16
G05
G00X121421Y-121786
M15
G01X122471Y-121786
M16
G05
G00X126365Y-100306
M15
G01X126365Y-101356
M16
G05
G00X126365Y-126756
M15
G01X126365Y-125706
M16
G05
G00X127635Y-100306
M15
G01X127635Y-101356
M16
G05
G00X127635Y-126756
M15
G01X127635Y-125706
M16
G05
G00X128905Y-100306
M15
G01X128905Y-101356
M16
G05
G00X128905Y-126756
M15
G01X128905Y-125706
M16
G05
G00X130175Y-100306
M15
G01X130175Y-101356
M16
G05
G00X130175Y-126756
M15
G01X130175Y-125706
M16
G05
G00X131445Y-100306
M15
G01X131445Y-101356
M16
G05
G00X131445Y-126756
M15
G01X131445Y-125706
M16
G05
G00X132715Y-100306
M15
G01X132715Y-101356
M16
G05
G00X132715Y-126756
M15
G01X132715Y-125706
M16
G05
G00X133985Y-100306
M15
G01X133985Y-101356
M16
G05
G00X133985Y-126756
M15
G01X133985Y-125706
M16
G05
G00X135255Y-100306
M15
G01X135255Y-101356
M16
G05
G00X135255Y-126756
M15
G01X135255Y-125706
M16
G05
G00X136525Y-100306
M15
G01X136525Y-101356
M16
G05
G00X136525Y-126756
M15
G01X136525Y-125706
M16
G05
G00X137795Y-100306
M15
G01X137795Y-101356
M16
G05
G00X137795Y-126756
M15
G01X137795Y-125706
M16
G05
G00X139065Y-100306
M15
G01X139065Y-101356
M16
G05
G00X139065Y-126756
M15
G01X139065Y-125706
M16
G05
G00X140335Y-100306
M15
G01X140335Y-101356
M16
G05
G00X140335Y-126756
M15
G01X140335Y-125706
M16
G05
G00X141605Y-100306
M15
G01X141605Y-101356
M16
G05
G00X141605Y-126756
M15
G01X141605Y-125706
M16
G05
G00X142875Y-100306
M15
G01X142875Y-101356
M16
G05
G00X142875Y-126756
M15
G01X142875Y-125706
M16
G05
G00X147845Y-105276
M15
G01X146795Y-105276
M16
G05
G00X147845Y-106546
M15
G01X146795Y-106546
M16
G05
G00X147845Y-107816
M15
G01X146795Y-107816
M16
G05
G00X147845Y-109086
M15
G01X146795Y-109086
M16
G05
G00X147845Y-110356
M15
G01X146795Y-110356
M16
G05
G00X147845Y-111626
M15
G01X146795Y-111626
M16
G05
G00X147845Y-112896
M15
G01X146795Y-112896
M16
G05
G00X147845Y-114166
M15
G01X146795Y-114166
M16
G05
G00X147845Y-115436
M15
G01X146795Y-115436
M16
G05
G00X147845Y-116706
M15
G01X146795Y-116706
M16
G05
G00X147845Y-117976
M15
G01X146795Y-117976
M16
G05
G00X147845Y-119246
M15
G01X146795Y-119246
M16
G05
G00X147845Y-120516
M15
G01X146795Y-120516
M16
G05
G00X147845Y-121786
M15
G01X146795Y-121786
M16
G05
T0
M30
