M48
; DRILL file {KiCad (5.1.10-1-10_14)} date Saturday, September 04, 2021 at 09:03:41 AM
; FORMAT={3:3/ absolute / metric / suppress leading zeros}
; #@! TF.CreationDate,2021-09-04T09:03:41-07:00
; #@! TF.GenerationSoftware,Kicad,Pcbnew,(5.1.10-1-10_14)
FMAT,2
METRIC,TZ
T1C0.400
T2C0.500
T3C1.000
T4C0.500
%
G90
G05
T1
X115265Y-97587
X116332Y-118821
X116782Y-110848
X116943Y-96963
X116992Y-99466
X117145Y-112471
X117184Y-98250
X117514Y-109437
X117805Y-119609
X118015Y-91297
X118262Y-96825
X118468Y-107050
X118974Y-111811
X119329Y-104242
X119583Y-100686
X119694Y-102616
X121056Y-102621
X121069Y-86652
X121297Y-107781
X121786Y-109927
X122034Y-118123
X122145Y-112863
X122145Y-112863
X122225Y-108407
X123444Y-99466
X124511Y-107544
X124784Y-98208
X124893Y-109056
X125168Y-100797
X125421Y-93766
X125529Y-105389
X125709Y-107784
X125762Y-94708
X125781Y-101676
X125832Y-85547
X126436Y-109688
X126466Y-104212
X126797Y-105156
X126869Y-111133
X127102Y-81991
X127152Y-97498
X127210Y-101157
X127545Y-102464
X127936Y-111077
X127967Y-88797
X128321Y-103226
X128626Y-83058
X128907Y-89173
X128930Y-93015
X128943Y-100770
X129232Y-111543
X129323Y-83916
X129692Y-76149
X129891Y-88997
X130036Y-116649
X130048Y-119520
X130393Y-100797
X130607Y-92456
X130734Y-97505
X130912Y-102565
X131907Y-118800
X131928Y-106832
X132266Y-103547
X132436Y-81178
X132791Y-105918
X132944Y-104918
X133367Y-80087
X133807Y-98552
X134632Y-83426
X135433Y-101549
X135618Y-106853
X136449Y-81534
X137319Y-107886
X138211Y-107430
X139661Y-107187
X140651Y-119788
X142128Y-113156
X142539Y-104631
X143866Y-83972
X144475Y-95707
X145064Y-101875
X145847Y-119786
X146101Y-110896
X146406Y-101702
X147879Y-119802
X149758Y-116840
X149860Y-98095
X149873Y-108420
X150456Y-112019
X150927Y-94031
X153199Y-92237
X153213Y-99670
X153314Y-107594
X153564Y-121773
X154273Y-111201
X155539Y-117514
X156210Y-115976
X156995Y-121920
T3
X109728Y-76048
X109728Y-78588
X109728Y-81128
X109728Y-83668
X109728Y-86208
X109728Y-88748
X109728Y-91288
X109728Y-93828
X109728Y-96368
X109728Y-98908
X109728Y-101448
X109728Y-103988
X109728Y-106528
X109728Y-109068
X109728Y-111608
X109728Y-114148
X109728Y-116688
X109728Y-119228
X109728Y-121768
X109728Y-124308
X116332Y-81026
X116332Y-83566
X118364Y-123952
X120904Y-123952
X121539Y-104521
X123444Y-123952
X124079Y-104521
X125984Y-123952
X128524Y-123952
X131064Y-123952
X133604Y-123952
X136144Y-123952
X137795Y-100711
X138684Y-123952
X139700Y-86106
X139700Y-88646
X140335Y-100711
X141224Y-123952
X143510Y-86106
X143510Y-88646
X143764Y-123952
X146304Y-123952
X147447Y-85852
X148844Y-123952
X149987Y-85852
X151384Y-123952
X160477Y-76098
X160477Y-78638
X160477Y-81178
X160477Y-83718
X160477Y-86258
X160477Y-88798
X160477Y-91338
X160477Y-93878
X160477Y-96418
X160477Y-98958
X160477Y-101498
X160477Y-104038
X160477Y-106578
X160477Y-109118
X160477Y-111658
X160477Y-114198
X160477Y-116738
X160477Y-119278
X160477Y-121818
X160477Y-124358
T4
X132082Y-75734
X138682Y-75734
T2
G00X132082Y-76084
M15
G01X132082Y-75384
M16
G05
G00X138682Y-76084
M15
G01X138682Y-75384
M16
G05
T0
M30
