G04 #@! TF.GenerationSoftware,KiCad,Pcbnew,(6.0.8)*
G04 #@! TF.CreationDate,2022-11-18T12:49:19-08:00*
G04 #@! TF.ProjectId,caravel_breakout_QFN,63617261-7665-46c5-9f62-7265616b6f75,rev?*
G04 #@! TF.SameCoordinates,Original*
G04 #@! TF.FileFunction,Legend,Top*
G04 #@! TF.FilePolarity,Positive*
%FSLAX46Y46*%
G04 Gerber Fmt 4.6, Leading zero omitted, Abs format (unit mm)*
G04 Created by KiCad (PCBNEW (6.0.8)) date 2022-11-18 12:49:19*
%MOMM*%
%LPD*%
G01*
G04 APERTURE LIST*
%ADD10C,0.120000*%
%ADD11C,0.127000*%
%ADD12C,0.152400*%
%ADD13C,0.125000*%
%ADD14C,0.010000*%
G04 APERTURE END LIST*
D10*
X123063000Y-80908200D02*
X123063000Y-84531200D01*
X126621000Y-80906200D02*
X126621000Y-80721200D01*
X148178159Y-106077500D02*
X148178159Y-102565200D01*
X148027470Y-102558000D02*
X148178159Y-102558000D01*
X123052000Y-106019600D02*
X126675000Y-106019600D01*
X122803000Y-102490000D02*
X123057000Y-102490000D01*
X148234400Y-84593000D02*
X148234400Y-82199459D01*
X126675000Y-105862470D02*
X126675000Y-106019600D01*
X123063000Y-84531200D02*
X123317000Y-84531200D01*
X148234414Y-82221386D02*
G75*
G03*
X146939000Y-80925986I-1295414J-14D01*
G01*
X144640000Y-106077500D02*
X148178159Y-106077500D01*
X144640000Y-106262500D02*
X144640000Y-106077500D01*
X126601159Y-80908200D02*
X123063000Y-80908200D01*
X144586000Y-81088730D02*
X144586000Y-80929459D01*
X146903317Y-80929459D02*
X144586000Y-80929459D01*
X148335000Y-84593000D02*
X148234400Y-84593000D01*
X123057000Y-102490000D02*
X123057000Y-106028159D01*
D11*
X125246190Y-104623938D02*
X125276428Y-104593700D01*
X125336904Y-104563461D01*
X125488095Y-104563461D01*
X125548571Y-104593700D01*
X125578809Y-104623938D01*
X125609047Y-104684414D01*
X125609047Y-104744890D01*
X125578809Y-104835604D01*
X125215952Y-105198461D01*
X125609047Y-105198461D01*
X125911428Y-105198461D02*
X126032380Y-105198461D01*
X126092857Y-105168223D01*
X126123095Y-105137985D01*
X126183571Y-105047271D01*
X126213809Y-104926319D01*
X126213809Y-104684414D01*
X126183571Y-104623938D01*
X126153333Y-104593700D01*
X126092857Y-104563461D01*
X125971904Y-104563461D01*
X125911428Y-104593700D01*
X125881190Y-104623938D01*
X125850952Y-104684414D01*
X125850952Y-104835604D01*
X125881190Y-104896080D01*
X125911428Y-104926319D01*
X125971904Y-104956557D01*
X126092857Y-104956557D01*
X126153333Y-104926319D01*
X126183571Y-104896080D01*
X126213809Y-104835604D01*
X146501152Y-81592661D02*
X146712819Y-82227661D01*
X146924485Y-81592661D01*
X147105914Y-81653138D02*
X147136152Y-81622900D01*
X147196628Y-81592661D01*
X147347819Y-81592661D01*
X147408295Y-81622900D01*
X147438533Y-81653138D01*
X147468771Y-81713614D01*
X147468771Y-81774090D01*
X147438533Y-81864804D01*
X147075676Y-82227661D01*
X147468771Y-82227661D01*
X146884571Y-103251128D02*
X146884571Y-103674461D01*
X146733380Y-103009223D02*
X146582190Y-103462795D01*
X146975285Y-103462795D01*
X147156714Y-103039461D02*
X147549809Y-103039461D01*
X147338142Y-103281366D01*
X147428857Y-103281366D01*
X147489333Y-103311604D01*
X147519571Y-103341842D01*
X147549809Y-103402319D01*
X147549809Y-103553509D01*
X147519571Y-103613985D01*
X147489333Y-103644223D01*
X147428857Y-103674461D01*
X147247428Y-103674461D01*
X147186952Y-103644223D01*
X147156714Y-103613985D01*
X124085047Y-84116461D02*
X123722190Y-84116461D01*
X123903619Y-84116461D02*
X123903619Y-83481461D01*
X123843142Y-83572176D01*
X123782666Y-83632652D01*
X123722190Y-83662890D01*
X124659571Y-83481461D02*
X124357190Y-83481461D01*
X124326952Y-83783842D01*
X124357190Y-83753604D01*
X124417666Y-83723366D01*
X124568857Y-83723366D01*
X124629333Y-83753604D01*
X124659571Y-83783842D01*
X124689809Y-83844319D01*
X124689809Y-83995509D01*
X124659571Y-84055985D01*
X124629333Y-84086223D01*
X124568857Y-84116461D01*
X124417666Y-84116461D01*
X124357190Y-84086223D01*
X124326952Y-84055985D01*
X145215428Y-82211461D02*
X144852571Y-82211461D01*
X145034000Y-82211461D02*
X145034000Y-81576461D01*
X144973523Y-81667176D01*
X144913047Y-81727652D01*
X144852571Y-81757890D01*
D12*
X134180942Y-102811942D02*
X134144657Y-102848228D01*
X134035800Y-102884514D01*
X133963228Y-102884514D01*
X133854371Y-102848228D01*
X133781800Y-102775657D01*
X133745514Y-102703085D01*
X133709228Y-102557942D01*
X133709228Y-102449085D01*
X133745514Y-102303942D01*
X133781800Y-102231371D01*
X133854371Y-102158800D01*
X133963228Y-102122514D01*
X134035800Y-102122514D01*
X134144657Y-102158800D01*
X134180942Y-102195085D01*
X134834085Y-102884514D02*
X134834085Y-102485371D01*
X134797800Y-102412800D01*
X134725228Y-102376514D01*
X134580085Y-102376514D01*
X134507514Y-102412800D01*
X134834085Y-102848228D02*
X134761514Y-102884514D01*
X134580085Y-102884514D01*
X134507514Y-102848228D01*
X134471228Y-102775657D01*
X134471228Y-102703085D01*
X134507514Y-102630514D01*
X134580085Y-102594228D01*
X134761514Y-102594228D01*
X134834085Y-102557942D01*
X135196942Y-102884514D02*
X135196942Y-102376514D01*
X135196942Y-102521657D02*
X135233228Y-102449085D01*
X135269514Y-102412800D01*
X135342085Y-102376514D01*
X135414657Y-102376514D01*
X135995228Y-102884514D02*
X135995228Y-102485371D01*
X135958942Y-102412800D01*
X135886371Y-102376514D01*
X135741228Y-102376514D01*
X135668657Y-102412800D01*
X135995228Y-102848228D02*
X135922657Y-102884514D01*
X135741228Y-102884514D01*
X135668657Y-102848228D01*
X135632371Y-102775657D01*
X135632371Y-102703085D01*
X135668657Y-102630514D01*
X135741228Y-102594228D01*
X135922657Y-102594228D01*
X135995228Y-102557942D01*
X136285514Y-102376514D02*
X136466942Y-102884514D01*
X136648371Y-102376514D01*
X137228942Y-102848228D02*
X137156371Y-102884514D01*
X137011228Y-102884514D01*
X136938657Y-102848228D01*
X136902371Y-102775657D01*
X136902371Y-102485371D01*
X136938657Y-102412800D01*
X137011228Y-102376514D01*
X137156371Y-102376514D01*
X137228942Y-102412800D01*
X137265228Y-102485371D01*
X137265228Y-102557942D01*
X136902371Y-102630514D01*
X137700657Y-102884514D02*
X137628085Y-102848228D01*
X137591800Y-102775657D01*
X137591800Y-102122514D01*
D11*
X128113366Y-95502185D02*
X128083128Y-95532423D01*
X127992414Y-95562661D01*
X127931938Y-95562661D01*
X127841223Y-95532423D01*
X127780747Y-95471947D01*
X127750509Y-95411471D01*
X127720271Y-95290519D01*
X127720271Y-95199804D01*
X127750509Y-95078852D01*
X127780747Y-95018376D01*
X127841223Y-94957900D01*
X127931938Y-94927661D01*
X127992414Y-94927661D01*
X128083128Y-94957900D01*
X128113366Y-94988138D01*
X128325033Y-94927661D02*
X128748366Y-94927661D01*
X128476223Y-95562661D01*
X128011766Y-88923585D02*
X127981528Y-88953823D01*
X127890814Y-88984061D01*
X127830338Y-88984061D01*
X127739623Y-88953823D01*
X127679147Y-88893347D01*
X127648909Y-88832871D01*
X127618671Y-88711919D01*
X127618671Y-88621204D01*
X127648909Y-88500252D01*
X127679147Y-88439776D01*
X127739623Y-88379300D01*
X127830338Y-88349061D01*
X127890814Y-88349061D01*
X127981528Y-88379300D01*
X128011766Y-88409538D01*
X128616528Y-88984061D02*
X128253671Y-88984061D01*
X128435100Y-88984061D02*
X128435100Y-88349061D01*
X128374623Y-88439776D01*
X128314147Y-88500252D01*
X128253671Y-88530490D01*
X131643966Y-87882185D02*
X131613728Y-87912423D01*
X131523014Y-87942661D01*
X131462538Y-87942661D01*
X131371823Y-87912423D01*
X131311347Y-87851947D01*
X131281109Y-87791471D01*
X131250871Y-87670519D01*
X131250871Y-87579804D01*
X131281109Y-87458852D01*
X131311347Y-87398376D01*
X131371823Y-87337900D01*
X131462538Y-87307661D01*
X131523014Y-87307661D01*
X131613728Y-87337900D01*
X131643966Y-87368138D01*
X131885871Y-87368138D02*
X131916109Y-87337900D01*
X131976585Y-87307661D01*
X132127776Y-87307661D01*
X132188252Y-87337900D01*
X132218490Y-87368138D01*
X132248728Y-87428614D01*
X132248728Y-87489090D01*
X132218490Y-87579804D01*
X131855633Y-87942661D01*
X132248728Y-87942661D01*
X142921566Y-98575585D02*
X142891328Y-98605823D01*
X142800614Y-98636061D01*
X142740138Y-98636061D01*
X142649423Y-98605823D01*
X142588947Y-98545347D01*
X142558709Y-98484871D01*
X142528471Y-98363919D01*
X142528471Y-98273204D01*
X142558709Y-98152252D01*
X142588947Y-98091776D01*
X142649423Y-98031300D01*
X142740138Y-98001061D01*
X142800614Y-98001061D01*
X142891328Y-98031300D01*
X142921566Y-98061538D01*
X143223947Y-98636061D02*
X143344900Y-98636061D01*
X143405376Y-98605823D01*
X143435614Y-98575585D01*
X143496090Y-98484871D01*
X143526328Y-98363919D01*
X143526328Y-98122014D01*
X143496090Y-98061538D01*
X143465852Y-98031300D01*
X143405376Y-98001061D01*
X143284423Y-98001061D01*
X143223947Y-98031300D01*
X143193709Y-98061538D01*
X143163471Y-98122014D01*
X143163471Y-98273204D01*
X143193709Y-98333680D01*
X143223947Y-98363919D01*
X143284423Y-98394157D01*
X143405376Y-98394157D01*
X143465852Y-98363919D01*
X143496090Y-98333680D01*
X143526328Y-98273204D01*
X142921566Y-95476785D02*
X142891328Y-95507023D01*
X142800614Y-95537261D01*
X142740138Y-95537261D01*
X142649423Y-95507023D01*
X142588947Y-95446547D01*
X142558709Y-95386071D01*
X142528471Y-95265119D01*
X142528471Y-95174404D01*
X142558709Y-95053452D01*
X142588947Y-94992976D01*
X142649423Y-94932500D01*
X142740138Y-94902261D01*
X142800614Y-94902261D01*
X142891328Y-94932500D01*
X142921566Y-94962738D01*
X143465852Y-95113928D02*
X143465852Y-95537261D01*
X143314661Y-94872023D02*
X143163471Y-95325595D01*
X143556566Y-95325595D01*
X142921566Y-89888785D02*
X142891328Y-89919023D01*
X142800614Y-89949261D01*
X142740138Y-89949261D01*
X142649423Y-89919023D01*
X142588947Y-89858547D01*
X142558709Y-89798071D01*
X142528471Y-89677119D01*
X142528471Y-89586404D01*
X142558709Y-89465452D01*
X142588947Y-89404976D01*
X142649423Y-89344500D01*
X142740138Y-89314261D01*
X142800614Y-89314261D01*
X142891328Y-89344500D01*
X142921566Y-89374738D01*
X143133233Y-89314261D02*
X143526328Y-89314261D01*
X143314661Y-89556166D01*
X143405376Y-89556166D01*
X143465852Y-89586404D01*
X143496090Y-89616642D01*
X143526328Y-89677119D01*
X143526328Y-89828309D01*
X143496090Y-89888785D01*
X143465852Y-89919023D01*
X143405376Y-89949261D01*
X143223947Y-89949261D01*
X143163471Y-89919023D01*
X143133233Y-89888785D01*
D13*
X125690333Y-81793590D02*
X125690333Y-82150733D01*
X125666523Y-82222161D01*
X125618904Y-82269780D01*
X125547476Y-82293590D01*
X125499857Y-82293590D01*
X126190333Y-82293590D02*
X125904619Y-82293590D01*
X126047476Y-82293590D02*
X126047476Y-81793590D01*
X125999857Y-81865019D01*
X125952238Y-81912638D01*
X125904619Y-81936447D01*
X124039333Y-102824790D02*
X124039333Y-103181933D01*
X124015523Y-103253361D01*
X123967904Y-103300980D01*
X123896476Y-103324790D01*
X123848857Y-103324790D01*
X124253619Y-102872409D02*
X124277428Y-102848600D01*
X124325047Y-102824790D01*
X124444095Y-102824790D01*
X124491714Y-102848600D01*
X124515523Y-102872409D01*
X124539333Y-102920028D01*
X124539333Y-102967647D01*
X124515523Y-103039076D01*
X124229809Y-103324790D01*
X124539333Y-103324790D01*
X145172133Y-104628190D02*
X145172133Y-104985333D01*
X145148323Y-105056761D01*
X145100704Y-105104380D01*
X145029276Y-105128190D01*
X144981657Y-105128190D01*
X145362609Y-104628190D02*
X145672133Y-104628190D01*
X145505466Y-104818666D01*
X145576895Y-104818666D01*
X145624514Y-104842476D01*
X145648323Y-104866285D01*
X145672133Y-104913904D01*
X145672133Y-105032952D01*
X145648323Y-105080571D01*
X145624514Y-105104380D01*
X145576895Y-105128190D01*
X145434038Y-105128190D01*
X145386419Y-105104380D01*
X145362609Y-105080571D01*
D11*
X137231966Y-99845585D02*
X137201728Y-99875823D01*
X137111014Y-99906061D01*
X137050538Y-99906061D01*
X136959823Y-99875823D01*
X136899347Y-99815347D01*
X136869109Y-99754871D01*
X136838871Y-99633919D01*
X136838871Y-99543204D01*
X136869109Y-99422252D01*
X136899347Y-99361776D01*
X136959823Y-99301300D01*
X137050538Y-99271061D01*
X137111014Y-99271061D01*
X137201728Y-99301300D01*
X137231966Y-99331538D01*
X137806490Y-99271061D02*
X137504109Y-99271061D01*
X137473871Y-99573442D01*
X137504109Y-99543204D01*
X137564585Y-99512966D01*
X137715776Y-99512966D01*
X137776252Y-99543204D01*
X137806490Y-99573442D01*
X137836728Y-99633919D01*
X137836728Y-99785109D01*
X137806490Y-99845585D01*
X137776252Y-99875823D01*
X137715776Y-99906061D01*
X137564585Y-99906061D01*
X137504109Y-99875823D01*
X137473871Y-99845585D01*
D13*
X146890333Y-83625790D02*
X146890333Y-83982933D01*
X146866523Y-84054361D01*
X146818904Y-84101980D01*
X146747476Y-84125790D01*
X146699857Y-84125790D01*
X147342714Y-83792457D02*
X147342714Y-84125790D01*
X147223666Y-83601980D02*
X147104619Y-83959123D01*
X147414142Y-83959123D01*
D11*
X128113366Y-98575585D02*
X128083128Y-98605823D01*
X127992414Y-98636061D01*
X127931938Y-98636061D01*
X127841223Y-98605823D01*
X127780747Y-98545347D01*
X127750509Y-98484871D01*
X127720271Y-98363919D01*
X127720271Y-98273204D01*
X127750509Y-98152252D01*
X127780747Y-98091776D01*
X127841223Y-98031300D01*
X127931938Y-98001061D01*
X127992414Y-98001061D01*
X128083128Y-98031300D01*
X128113366Y-98061538D01*
X128657652Y-98001061D02*
X128536700Y-98001061D01*
X128476223Y-98031300D01*
X128445985Y-98061538D01*
X128385509Y-98152252D01*
X128355271Y-98273204D01*
X128355271Y-98515109D01*
X128385509Y-98575585D01*
X128415747Y-98605823D01*
X128476223Y-98636061D01*
X128597176Y-98636061D01*
X128657652Y-98605823D01*
X128687890Y-98575585D01*
X128718128Y-98515109D01*
X128718128Y-98363919D01*
X128687890Y-98303442D01*
X128657652Y-98273204D01*
X128597176Y-98242966D01*
X128476223Y-98242966D01*
X128415747Y-98273204D01*
X128385509Y-98303442D01*
X128355271Y-98363919D01*
X131325861Y-99747009D02*
X131839909Y-99747009D01*
X131900385Y-99716771D01*
X131930623Y-99686533D01*
X131960861Y-99626057D01*
X131960861Y-99505104D01*
X131930623Y-99444628D01*
X131900385Y-99414390D01*
X131839909Y-99384152D01*
X131325861Y-99384152D01*
X131960861Y-98749152D02*
X131960861Y-99112009D01*
X131960861Y-98930580D02*
X131325861Y-98930580D01*
X131416576Y-98991057D01*
X131477052Y-99051533D01*
X131507290Y-99112009D01*
X139492566Y-87755185D02*
X139462328Y-87785423D01*
X139371614Y-87815661D01*
X139311138Y-87815661D01*
X139220423Y-87785423D01*
X139159947Y-87724947D01*
X139129709Y-87664471D01*
X139099471Y-87543519D01*
X139099471Y-87452804D01*
X139129709Y-87331852D01*
X139159947Y-87271376D01*
X139220423Y-87210900D01*
X139311138Y-87180661D01*
X139371614Y-87180661D01*
X139462328Y-87210900D01*
X139492566Y-87241138D01*
X139855423Y-87452804D02*
X139794947Y-87422566D01*
X139764709Y-87392328D01*
X139734471Y-87331852D01*
X139734471Y-87301614D01*
X139764709Y-87241138D01*
X139794947Y-87210900D01*
X139855423Y-87180661D01*
X139976376Y-87180661D01*
X140036852Y-87210900D01*
X140067090Y-87241138D01*
X140097328Y-87301614D01*
X140097328Y-87331852D01*
X140067090Y-87392328D01*
X140036852Y-87422566D01*
X139976376Y-87452804D01*
X139855423Y-87452804D01*
X139794947Y-87483042D01*
X139764709Y-87513280D01*
X139734471Y-87573757D01*
X139734471Y-87694709D01*
X139764709Y-87755185D01*
X139794947Y-87785423D01*
X139855423Y-87815661D01*
X139976376Y-87815661D01*
X140036852Y-87785423D01*
X140067090Y-87755185D01*
X140097328Y-87694709D01*
X140097328Y-87573757D01*
X140067090Y-87513280D01*
X140036852Y-87483042D01*
X139976376Y-87452804D01*
D10*
X128111364Y-95931400D02*
X128327036Y-95931400D01*
X128111364Y-96651400D02*
X128327036Y-96651400D01*
X128009764Y-89302000D02*
X128225436Y-89302000D01*
X128009764Y-90022000D02*
X128225436Y-90022000D01*
X132109800Y-86213836D02*
X132109800Y-85998164D01*
X131389800Y-86213836D02*
X131389800Y-85998164D01*
X143135236Y-96998200D02*
X142919564Y-96998200D01*
X143135236Y-97718200D02*
X142919564Y-97718200D01*
X143135236Y-96651400D02*
X142919564Y-96651400D01*
X143135236Y-95931400D02*
X142919564Y-95931400D01*
X142919564Y-91063400D02*
X143135236Y-91063400D01*
X142919564Y-90343400D02*
X143135236Y-90343400D01*
X128141000Y-81345471D02*
X128141000Y-81488529D01*
X144586000Y-82359530D02*
X144586000Y-83182000D01*
X128141000Y-79652000D02*
X128141000Y-80218529D01*
X126817529Y-81542000D02*
X126686000Y-81542000D01*
X126686000Y-83182000D02*
X144586000Y-83182000D01*
X127381000Y-79652000D02*
X126621000Y-79652000D01*
X144586000Y-81089530D02*
X144586000Y-81744470D01*
X126686000Y-82359530D02*
X126686000Y-83182000D01*
X128141000Y-79652000D02*
X144586000Y-79652000D01*
X126621000Y-79652000D02*
X126621000Y-80782000D01*
X128087529Y-81542000D02*
X127944471Y-81542000D01*
X126686000Y-81542000D02*
X126686000Y-81744470D01*
X144586000Y-79652000D02*
X144586000Y-80474470D01*
X121800000Y-100970000D02*
X122366529Y-100970000D01*
X123237530Y-84525000D02*
X123892470Y-84525000D01*
X121800000Y-84525000D02*
X122622470Y-84525000D01*
X121800000Y-102490000D02*
X122930000Y-102490000D01*
X123493471Y-100970000D02*
X123636529Y-100970000D01*
X121800000Y-100970000D02*
X121800000Y-84525000D01*
X124507530Y-102425000D02*
X125330000Y-102425000D01*
X123690000Y-101023471D02*
X123690000Y-101166529D01*
X121800000Y-101730000D02*
X121800000Y-102490000D01*
X124507530Y-84525000D02*
X125330000Y-84525000D01*
X123690000Y-102425000D02*
X123892470Y-102425000D01*
X125330000Y-102425000D02*
X125330000Y-84525000D01*
X123690000Y-102293471D02*
X123690000Y-102425000D01*
X126675000Y-105862470D02*
X126675000Y-105207530D01*
X144443471Y-105410000D02*
X144575000Y-105410000D01*
X126675000Y-104592470D02*
X126675000Y-103770000D01*
X144575000Y-105410000D02*
X144575000Y-105207530D01*
X143120000Y-107300000D02*
X143120000Y-106733471D01*
X143880000Y-107300000D02*
X144640000Y-107300000D01*
X144575000Y-103770000D02*
X126675000Y-103770000D01*
X144640000Y-107300000D02*
X144640000Y-106170000D01*
X144575000Y-104592470D02*
X144575000Y-103770000D01*
X126675000Y-107300000D02*
X126675000Y-106477530D01*
X143173471Y-105410000D02*
X143316529Y-105410000D01*
X143120000Y-107300000D02*
X126675000Y-107300000D01*
X143120000Y-105606529D02*
X143120000Y-105463471D01*
X135794636Y-99978800D02*
X135578964Y-99978800D01*
X135794636Y-99258800D02*
X135578964Y-99258800D01*
X147566000Y-84483600D02*
X147363530Y-84483600D01*
X149456000Y-85938600D02*
X148889471Y-85938600D01*
X147762529Y-85938600D02*
X147619471Y-85938600D01*
X147566000Y-84615129D02*
X147566000Y-84483600D01*
X146748470Y-102383600D02*
X145926000Y-102383600D01*
X146748470Y-84483600D02*
X145926000Y-84483600D01*
X149456000Y-85178600D02*
X149456000Y-84418600D01*
X147566000Y-85885129D02*
X147566000Y-85742071D01*
X145926000Y-84483600D02*
X145926000Y-102383600D01*
X148018470Y-102383600D02*
X147363530Y-102383600D01*
X149456000Y-85938600D02*
X149456000Y-102383600D01*
X149456000Y-84418600D02*
X148326000Y-84418600D01*
X149456000Y-102383600D02*
X148633530Y-102383600D01*
G36*
X137659834Y-100662031D02*
G01*
X137728149Y-100669039D01*
X137779965Y-100683500D01*
X137823906Y-100707687D01*
X137862240Y-100738239D01*
X137909116Y-100796280D01*
X137946683Y-100874023D01*
X137969075Y-100957476D01*
X137972800Y-101001940D01*
X137970963Y-101021425D01*
X137960857Y-101033095D01*
X137935584Y-101038946D01*
X137888250Y-101040979D01*
X137837333Y-101041200D01*
X137701867Y-101041200D01*
X137701867Y-100981933D01*
X137688318Y-100917585D01*
X137649282Y-100874738D01*
X137587172Y-100855703D01*
X137569024Y-100854934D01*
X137505420Y-100867521D01*
X137464187Y-100900552D01*
X137448125Y-100946931D01*
X137460030Y-100999560D01*
X137494433Y-101044098D01*
X137528594Y-101072261D01*
X137582231Y-101112623D01*
X137646579Y-101158692D01*
X137684933Y-101185182D01*
X137769539Y-101243720D01*
X137830830Y-101289079D01*
X137874155Y-101326117D01*
X137904865Y-101359691D01*
X137928308Y-101394658D01*
X137940581Y-101417292D01*
X137966398Y-101499784D01*
X137969183Y-101592230D01*
X137950728Y-101683977D01*
X137912825Y-101764367D01*
X137874712Y-101809044D01*
X137813762Y-101845362D01*
X137730138Y-101871311D01*
X137633690Y-101885974D01*
X137534265Y-101888435D01*
X137441711Y-101877777D01*
X137371667Y-101855862D01*
X137284375Y-101797973D01*
X137220846Y-101718348D01*
X137184456Y-101622292D01*
X137176933Y-101549744D01*
X137176933Y-101481467D01*
X137447867Y-101481467D01*
X137447867Y-101557667D01*
X137459411Y-101629440D01*
X137492598Y-101677892D01*
X137545257Y-101700339D01*
X137564116Y-101701600D01*
X137618620Y-101689234D01*
X137666146Y-101657761D01*
X137696354Y-101615619D01*
X137701867Y-101589191D01*
X137697791Y-101551128D01*
X137682601Y-101516853D01*
X137651847Y-101481368D01*
X137601081Y-101439677D01*
X137525855Y-101386783D01*
X137515424Y-101379749D01*
X137401073Y-101298287D01*
X137314912Y-101225256D01*
X137253724Y-101156415D01*
X137214291Y-101087526D01*
X137193396Y-101014353D01*
X137187839Y-100948261D01*
X137200238Y-100851449D01*
X137240201Y-100773999D01*
X137307267Y-100716265D01*
X137400972Y-100678599D01*
X137520854Y-100661351D01*
X137566400Y-100660200D01*
X137659834Y-100662031D01*
G37*
D14*
X137659834Y-100662031D02*
X137728149Y-100669039D01*
X137779965Y-100683500D01*
X137823906Y-100707687D01*
X137862240Y-100738239D01*
X137909116Y-100796280D01*
X137946683Y-100874023D01*
X137969075Y-100957476D01*
X137972800Y-101001940D01*
X137970963Y-101021425D01*
X137960857Y-101033095D01*
X137935584Y-101038946D01*
X137888250Y-101040979D01*
X137837333Y-101041200D01*
X137701867Y-101041200D01*
X137701867Y-100981933D01*
X137688318Y-100917585D01*
X137649282Y-100874738D01*
X137587172Y-100855703D01*
X137569024Y-100854934D01*
X137505420Y-100867521D01*
X137464187Y-100900552D01*
X137448125Y-100946931D01*
X137460030Y-100999560D01*
X137494433Y-101044098D01*
X137528594Y-101072261D01*
X137582231Y-101112623D01*
X137646579Y-101158692D01*
X137684933Y-101185182D01*
X137769539Y-101243720D01*
X137830830Y-101289079D01*
X137874155Y-101326117D01*
X137904865Y-101359691D01*
X137928308Y-101394658D01*
X137940581Y-101417292D01*
X137966398Y-101499784D01*
X137969183Y-101592230D01*
X137950728Y-101683977D01*
X137912825Y-101764367D01*
X137874712Y-101809044D01*
X137813762Y-101845362D01*
X137730138Y-101871311D01*
X137633690Y-101885974D01*
X137534265Y-101888435D01*
X137441711Y-101877777D01*
X137371667Y-101855862D01*
X137284375Y-101797973D01*
X137220846Y-101718348D01*
X137184456Y-101622292D01*
X137176933Y-101549744D01*
X137176933Y-101481467D01*
X137447867Y-101481467D01*
X137447867Y-101557667D01*
X137459411Y-101629440D01*
X137492598Y-101677892D01*
X137545257Y-101700339D01*
X137564116Y-101701600D01*
X137618620Y-101689234D01*
X137666146Y-101657761D01*
X137696354Y-101615619D01*
X137701867Y-101589191D01*
X137697791Y-101551128D01*
X137682601Y-101516853D01*
X137651847Y-101481368D01*
X137601081Y-101439677D01*
X137525855Y-101386783D01*
X137515424Y-101379749D01*
X137401073Y-101298287D01*
X137314912Y-101225256D01*
X137253724Y-101156415D01*
X137214291Y-101087526D01*
X137193396Y-101014353D01*
X137187839Y-100948261D01*
X137200238Y-100851449D01*
X137240201Y-100773999D01*
X137307267Y-100716265D01*
X137400972Y-100678599D01*
X137520854Y-100661351D01*
X137566400Y-100660200D01*
X137659834Y-100662031D01*
G36*
X135834967Y-100282721D02*
G01*
X135966200Y-100287667D01*
X135966200Y-101862467D01*
X135834967Y-101867412D01*
X135703733Y-101872358D01*
X135703733Y-100277776D01*
X135834967Y-100282721D01*
G37*
X135834967Y-100282721D02*
X135966200Y-100287667D01*
X135966200Y-101862467D01*
X135834967Y-101867412D01*
X135703733Y-101872358D01*
X135703733Y-100277776D01*
X135834967Y-100282721D01*
G36*
X139340158Y-101128798D02*
G01*
X139399793Y-101141359D01*
X139402564Y-101142381D01*
X139431995Y-101159690D01*
X139444179Y-101189278D01*
X139446000Y-101223661D01*
X139441484Y-101274138D01*
X139423919Y-101305695D01*
X139387275Y-101322482D01*
X139325524Y-101328646D01*
X139292838Y-101329067D01*
X139225330Y-101326686D01*
X139182613Y-101318246D01*
X139155860Y-101301803D01*
X139152291Y-101298100D01*
X139127539Y-101250169D01*
X139129007Y-101198946D01*
X139155874Y-101156878D01*
X139161901Y-101152227D01*
X139207249Y-101134804D01*
X139271322Y-101126804D01*
X139340158Y-101128798D01*
G37*
X139340158Y-101128798D02*
X139399793Y-101141359D01*
X139402564Y-101142381D01*
X139431995Y-101159690D01*
X139444179Y-101189278D01*
X139446000Y-101223661D01*
X139441484Y-101274138D01*
X139423919Y-101305695D01*
X139387275Y-101322482D01*
X139325524Y-101328646D01*
X139292838Y-101329067D01*
X139225330Y-101326686D01*
X139182613Y-101318246D01*
X139155860Y-101301803D01*
X139152291Y-101298100D01*
X139127539Y-101250169D01*
X139129007Y-101198946D01*
X139155874Y-101156878D01*
X139161901Y-101152227D01*
X139207249Y-101134804D01*
X139271322Y-101126804D01*
X139340158Y-101128798D01*
G36*
X139383161Y-100669453D02*
G01*
X139421573Y-100673045D01*
X139440112Y-100681290D01*
X139445769Y-100696035D01*
X139446000Y-100702534D01*
X139443172Y-100719407D01*
X139430145Y-100729520D01*
X139400109Y-100734575D01*
X139346250Y-100736276D01*
X139310533Y-100736400D01*
X139243347Y-100736851D01*
X139203118Y-100739644D01*
X139182935Y-100746938D01*
X139175888Y-100760893D01*
X139175066Y-100778733D01*
X139176510Y-100799729D01*
X139185447Y-100812301D01*
X139208788Y-100818608D01*
X139253442Y-100820810D01*
X139310533Y-100821067D01*
X139377947Y-100821733D01*
X139418341Y-100824910D01*
X139438555Y-100832363D01*
X139445428Y-100845858D01*
X139446000Y-100856039D01*
X139443554Y-100873570D01*
X139431580Y-100883661D01*
X139403127Y-100887962D01*
X139351241Y-100888123D01*
X139314766Y-100887180D01*
X139248878Y-100885735D01*
X139209823Y-100887488D01*
X139190589Y-100894415D01*
X139184164Y-100908492D01*
X139183533Y-100924174D01*
X139185429Y-100944761D01*
X139195782Y-100957312D01*
X139221596Y-100964269D01*
X139269871Y-100968075D01*
X139314766Y-100969946D01*
X139384160Y-100974060D01*
X139425257Y-100980801D01*
X139443600Y-100991421D01*
X139446000Y-100999579D01*
X139439712Y-101011411D01*
X139417165Y-101018899D01*
X139372829Y-101022893D01*
X139301179Y-101024240D01*
X139285133Y-101024267D01*
X139207554Y-101023240D01*
X139158452Y-101019629D01*
X139132485Y-101012637D01*
X139124312Y-101001467D01*
X139124266Y-101000278D01*
X139135735Y-100974522D01*
X139143507Y-100969876D01*
X139152716Y-100955332D01*
X139139434Y-100926131D01*
X139124834Y-100891807D01*
X139134163Y-100860202D01*
X139138517Y-100852937D01*
X139151587Y-100818206D01*
X139142590Y-100798750D01*
X139125471Y-100761554D01*
X139130346Y-100718815D01*
X139155067Y-100687302D01*
X139157020Y-100686196D01*
X139189470Y-100677630D01*
X139244481Y-100671386D01*
X139310761Y-100668693D01*
X139317887Y-100668667D01*
X139383161Y-100669453D01*
G37*
X139383161Y-100669453D02*
X139421573Y-100673045D01*
X139440112Y-100681290D01*
X139445769Y-100696035D01*
X139446000Y-100702534D01*
X139443172Y-100719407D01*
X139430145Y-100729520D01*
X139400109Y-100734575D01*
X139346250Y-100736276D01*
X139310533Y-100736400D01*
X139243347Y-100736851D01*
X139203118Y-100739644D01*
X139182935Y-100746938D01*
X139175888Y-100760893D01*
X139175066Y-100778733D01*
X139176510Y-100799729D01*
X139185447Y-100812301D01*
X139208788Y-100818608D01*
X139253442Y-100820810D01*
X139310533Y-100821067D01*
X139377947Y-100821733D01*
X139418341Y-100824910D01*
X139438555Y-100832363D01*
X139445428Y-100845858D01*
X139446000Y-100856039D01*
X139443554Y-100873570D01*
X139431580Y-100883661D01*
X139403127Y-100887962D01*
X139351241Y-100888123D01*
X139314766Y-100887180D01*
X139248878Y-100885735D01*
X139209823Y-100887488D01*
X139190589Y-100894415D01*
X139184164Y-100908492D01*
X139183533Y-100924174D01*
X139185429Y-100944761D01*
X139195782Y-100957312D01*
X139221596Y-100964269D01*
X139269871Y-100968075D01*
X139314766Y-100969946D01*
X139384160Y-100974060D01*
X139425257Y-100980801D01*
X139443600Y-100991421D01*
X139446000Y-100999579D01*
X139439712Y-101011411D01*
X139417165Y-101018899D01*
X139372829Y-101022893D01*
X139301179Y-101024240D01*
X139285133Y-101024267D01*
X139207554Y-101023240D01*
X139158452Y-101019629D01*
X139132485Y-101012637D01*
X139124312Y-101001467D01*
X139124266Y-101000278D01*
X139135735Y-100974522D01*
X139143507Y-100969876D01*
X139152716Y-100955332D01*
X139139434Y-100926131D01*
X139124834Y-100891807D01*
X139134163Y-100860202D01*
X139138517Y-100852937D01*
X139151587Y-100818206D01*
X139142590Y-100798750D01*
X139125471Y-100761554D01*
X139130346Y-100718815D01*
X139155067Y-100687302D01*
X139157020Y-100686196D01*
X139189470Y-100677630D01*
X139244481Y-100671386D01*
X139310761Y-100668693D01*
X139317887Y-100668667D01*
X139383161Y-100669453D01*
G36*
X134977297Y-100279200D02*
G01*
X134972215Y-100533226D01*
X134971044Y-100621606D01*
X134971190Y-100696611D01*
X134972551Y-100752393D01*
X134975023Y-100783101D01*
X134976649Y-100787226D01*
X134991967Y-100774959D01*
X135017430Y-100744786D01*
X135022602Y-100737916D01*
X135078957Y-100688734D01*
X135156073Y-100660182D01*
X135245913Y-100655068D01*
X135256763Y-100656117D01*
X135339767Y-100676315D01*
X135402386Y-100718970D01*
X135452626Y-100789591D01*
X135453749Y-100791681D01*
X135465816Y-100815702D01*
X135475045Y-100839964D01*
X135481815Y-100869203D01*
X135486505Y-100908159D01*
X135489496Y-100961568D01*
X135491166Y-101034168D01*
X135491896Y-101130698D01*
X135492066Y-101255895D01*
X135492066Y-101269800D01*
X135491923Y-101398150D01*
X135491245Y-101497361D01*
X135489659Y-101572159D01*
X135486792Y-101627272D01*
X135482271Y-101667428D01*
X135475723Y-101697352D01*
X135466774Y-101721773D01*
X135455052Y-101745417D01*
X135454439Y-101746566D01*
X135406713Y-101819462D01*
X135353362Y-101863582D01*
X135286420Y-101883937D01*
X135231550Y-101886793D01*
X135171819Y-101883694D01*
X135121522Y-101876909D01*
X135101219Y-101871461D01*
X135067415Y-101849338D01*
X135029009Y-101812953D01*
X135021879Y-101804801D01*
X134992008Y-101771847D01*
X134971358Y-101753654D01*
X134968226Y-101752400D01*
X134961904Y-101767305D01*
X134958748Y-101803948D01*
X134958666Y-101811667D01*
X134958666Y-101870933D01*
X134704667Y-101870933D01*
X134704667Y-101171495D01*
X134977677Y-101171495D01*
X134978769Y-101304856D01*
X134978806Y-101307083D01*
X134984066Y-101619937D01*
X135031577Y-101660769D01*
X135077454Y-101692932D01*
X135117535Y-101700269D01*
X135152641Y-101691081D01*
X135178289Y-101676378D01*
X135197881Y-101651737D01*
X135212165Y-101613068D01*
X135221885Y-101556280D01*
X135227788Y-101477281D01*
X135230620Y-101371980D01*
X135231172Y-101260420D01*
X135230084Y-101142281D01*
X135227205Y-101043487D01*
X135222743Y-100968062D01*
X135216906Y-100920034D01*
X135212809Y-100905999D01*
X135177235Y-100872478D01*
X135122549Y-100857445D01*
X135067617Y-100862167D01*
X135037270Y-100874679D01*
X135014098Y-100897638D01*
X134997326Y-100934920D01*
X134986182Y-100990405D01*
X134979890Y-101067970D01*
X134977677Y-101171495D01*
X134704667Y-101171495D01*
X134704667Y-100279200D01*
X134977297Y-100279200D01*
G37*
X134977297Y-100279200D02*
X134972215Y-100533226D01*
X134971044Y-100621606D01*
X134971190Y-100696611D01*
X134972551Y-100752393D01*
X134975023Y-100783101D01*
X134976649Y-100787226D01*
X134991967Y-100774959D01*
X135017430Y-100744786D01*
X135022602Y-100737916D01*
X135078957Y-100688734D01*
X135156073Y-100660182D01*
X135245913Y-100655068D01*
X135256763Y-100656117D01*
X135339767Y-100676315D01*
X135402386Y-100718970D01*
X135452626Y-100789591D01*
X135453749Y-100791681D01*
X135465816Y-100815702D01*
X135475045Y-100839964D01*
X135481815Y-100869203D01*
X135486505Y-100908159D01*
X135489496Y-100961568D01*
X135491166Y-101034168D01*
X135491896Y-101130698D01*
X135492066Y-101255895D01*
X135492066Y-101269800D01*
X135491923Y-101398150D01*
X135491245Y-101497361D01*
X135489659Y-101572159D01*
X135486792Y-101627272D01*
X135482271Y-101667428D01*
X135475723Y-101697352D01*
X135466774Y-101721773D01*
X135455052Y-101745417D01*
X135454439Y-101746566D01*
X135406713Y-101819462D01*
X135353362Y-101863582D01*
X135286420Y-101883937D01*
X135231550Y-101886793D01*
X135171819Y-101883694D01*
X135121522Y-101876909D01*
X135101219Y-101871461D01*
X135067415Y-101849338D01*
X135029009Y-101812953D01*
X135021879Y-101804801D01*
X134992008Y-101771847D01*
X134971358Y-101753654D01*
X134968226Y-101752400D01*
X134961904Y-101767305D01*
X134958748Y-101803948D01*
X134958666Y-101811667D01*
X134958666Y-101870933D01*
X134704667Y-101870933D01*
X134704667Y-101171495D01*
X134977677Y-101171495D01*
X134978769Y-101304856D01*
X134978806Y-101307083D01*
X134984066Y-101619937D01*
X135031577Y-101660769D01*
X135077454Y-101692932D01*
X135117535Y-101700269D01*
X135152641Y-101691081D01*
X135178289Y-101676378D01*
X135197881Y-101651737D01*
X135212165Y-101613068D01*
X135221885Y-101556280D01*
X135227788Y-101477281D01*
X135230620Y-101371980D01*
X135231172Y-101260420D01*
X135230084Y-101142281D01*
X135227205Y-101043487D01*
X135222743Y-100968062D01*
X135216906Y-100920034D01*
X135212809Y-100905999D01*
X135177235Y-100872478D01*
X135122549Y-100857445D01*
X135067617Y-100862167D01*
X135037270Y-100874679D01*
X135014098Y-100897638D01*
X134997326Y-100934920D01*
X134986182Y-100990405D01*
X134979890Y-101067970D01*
X134977677Y-101171495D01*
X134704667Y-101171495D01*
X134704667Y-100279200D01*
X134977297Y-100279200D01*
G36*
X133536266Y-100480254D02*
G01*
X133481233Y-100485561D01*
X133450206Y-100490099D01*
X133433262Y-100501777D01*
X133425372Y-100529186D01*
X133421505Y-100580918D01*
X133421121Y-100588234D01*
X133416043Y-100685600D01*
X133536266Y-100685600D01*
X133536266Y-100871867D01*
X133417733Y-100871867D01*
X133417733Y-101870933D01*
X133293555Y-101870933D01*
X133231613Y-101869493D01*
X133183622Y-101865696D01*
X133158996Y-101860326D01*
X133158089Y-101859645D01*
X133155199Y-101840444D01*
X133152583Y-101791730D01*
X133150339Y-101717855D01*
X133148564Y-101623174D01*
X133147358Y-101512038D01*
X133146819Y-101388801D01*
X133146800Y-101360111D01*
X133146800Y-100871867D01*
X133096000Y-100871867D01*
X133066958Y-100870303D01*
X133051842Y-100860054D01*
X133046105Y-100832784D01*
X133045200Y-100780158D01*
X133045200Y-100778733D01*
X133046118Y-100725479D01*
X133051752Y-100697759D01*
X133066425Y-100687243D01*
X133093515Y-100685600D01*
X133117937Y-100684312D01*
X133133039Y-100675769D01*
X133142023Y-100652950D01*
X133148091Y-100608835D01*
X133152822Y-100555566D01*
X133167773Y-100453748D01*
X133195676Y-100380211D01*
X133240895Y-100330477D01*
X133307792Y-100300066D01*
X133400732Y-100284501D01*
X133418270Y-100283092D01*
X133536266Y-100274650D01*
X133536266Y-100480254D01*
G37*
X133536266Y-100480254D02*
X133481233Y-100485561D01*
X133450206Y-100490099D01*
X133433262Y-100501777D01*
X133425372Y-100529186D01*
X133421505Y-100580918D01*
X133421121Y-100588234D01*
X133416043Y-100685600D01*
X133536266Y-100685600D01*
X133536266Y-100871867D01*
X133417733Y-100871867D01*
X133417733Y-101870933D01*
X133293555Y-101870933D01*
X133231613Y-101869493D01*
X133183622Y-101865696D01*
X133158996Y-101860326D01*
X133158089Y-101859645D01*
X133155199Y-101840444D01*
X133152583Y-101791730D01*
X133150339Y-101717855D01*
X133148564Y-101623174D01*
X133147358Y-101512038D01*
X133146819Y-101388801D01*
X133146800Y-101360111D01*
X133146800Y-100871867D01*
X133096000Y-100871867D01*
X133066958Y-100870303D01*
X133051842Y-100860054D01*
X133046105Y-100832784D01*
X133045200Y-100780158D01*
X133045200Y-100778733D01*
X133046118Y-100725479D01*
X133051752Y-100697759D01*
X133066425Y-100687243D01*
X133093515Y-100685600D01*
X133117937Y-100684312D01*
X133133039Y-100675769D01*
X133142023Y-100652950D01*
X133148091Y-100608835D01*
X133152822Y-100555566D01*
X133167773Y-100453748D01*
X133195676Y-100380211D01*
X133240895Y-100330477D01*
X133307792Y-100300066D01*
X133400732Y-100284501D01*
X133418270Y-100283092D01*
X133536266Y-100274650D01*
X133536266Y-100480254D01*
G36*
X132061964Y-100936445D02*
G01*
X132098610Y-100832928D01*
X132160168Y-100751776D01*
X132245302Y-100693954D01*
X132352675Y-100660424D01*
X132456518Y-100651734D01*
X132585893Y-100662263D01*
X132689357Y-100694129D01*
X132767631Y-100747743D01*
X132821437Y-100823519D01*
X132839947Y-100871693D01*
X132849900Y-100919304D01*
X132859468Y-100990127D01*
X132867387Y-101073515D01*
X132871449Y-101137180D01*
X132880899Y-101329067D01*
X132313591Y-101329067D01*
X132319562Y-101471234D01*
X132326811Y-101561476D01*
X132341832Y-101623043D01*
X132367921Y-101660832D01*
X132408374Y-101679738D01*
X132463234Y-101684667D01*
X132520152Y-101676823D01*
X132558901Y-101649875D01*
X132584134Y-101598697D01*
X132597775Y-101536500D01*
X132609262Y-101464534D01*
X132858933Y-101464534D01*
X132858561Y-101553434D01*
X132843868Y-101663159D01*
X132802455Y-101754114D01*
X132736833Y-101824629D01*
X132649512Y-101873035D01*
X132543005Y-101897664D01*
X132419821Y-101896847D01*
X132356460Y-101887115D01*
X132250180Y-101853488D01*
X132168188Y-101797966D01*
X132106697Y-101717587D01*
X132086187Y-101675969D01*
X132074053Y-101630292D01*
X132063828Y-101558071D01*
X132055753Y-101466587D01*
X132050065Y-101363122D01*
X132047003Y-101254957D01*
X132046805Y-101149374D01*
X132047518Y-101125867D01*
X132317066Y-101125867D01*
X132604933Y-101125867D01*
X132604933Y-101035017D01*
X132596070Y-100951229D01*
X132568424Y-100894636D01*
X132520416Y-100863259D01*
X132461000Y-100854933D01*
X132394031Y-100866023D01*
X132348799Y-100900612D01*
X132323721Y-100960677D01*
X132317066Y-101035017D01*
X132317066Y-101125867D01*
X132047518Y-101125867D01*
X132049710Y-101053654D01*
X132051191Y-101035017D01*
X132055957Y-100975078D01*
X132061964Y-100936445D01*
G37*
X132061964Y-100936445D02*
X132098610Y-100832928D01*
X132160168Y-100751776D01*
X132245302Y-100693954D01*
X132352675Y-100660424D01*
X132456518Y-100651734D01*
X132585893Y-100662263D01*
X132689357Y-100694129D01*
X132767631Y-100747743D01*
X132821437Y-100823519D01*
X132839947Y-100871693D01*
X132849900Y-100919304D01*
X132859468Y-100990127D01*
X132867387Y-101073515D01*
X132871449Y-101137180D01*
X132880899Y-101329067D01*
X132313591Y-101329067D01*
X132319562Y-101471234D01*
X132326811Y-101561476D01*
X132341832Y-101623043D01*
X132367921Y-101660832D01*
X132408374Y-101679738D01*
X132463234Y-101684667D01*
X132520152Y-101676823D01*
X132558901Y-101649875D01*
X132584134Y-101598697D01*
X132597775Y-101536500D01*
X132609262Y-101464534D01*
X132858933Y-101464534D01*
X132858561Y-101553434D01*
X132843868Y-101663159D01*
X132802455Y-101754114D01*
X132736833Y-101824629D01*
X132649512Y-101873035D01*
X132543005Y-101897664D01*
X132419821Y-101896847D01*
X132356460Y-101887115D01*
X132250180Y-101853488D01*
X132168188Y-101797966D01*
X132106697Y-101717587D01*
X132086187Y-101675969D01*
X132074053Y-101630292D01*
X132063828Y-101558071D01*
X132055753Y-101466587D01*
X132050065Y-101363122D01*
X132047003Y-101254957D01*
X132046805Y-101149374D01*
X132047518Y-101125867D01*
X132317066Y-101125867D01*
X132604933Y-101125867D01*
X132604933Y-101035017D01*
X132596070Y-100951229D01*
X132568424Y-100894636D01*
X132520416Y-100863259D01*
X132461000Y-100854933D01*
X132394031Y-100866023D01*
X132348799Y-100900612D01*
X132323721Y-100960677D01*
X132317066Y-101035017D01*
X132317066Y-101125867D01*
X132047518Y-101125867D01*
X132049710Y-101053654D01*
X132051191Y-101035017D01*
X132055957Y-100975078D01*
X132061964Y-100936445D01*
G36*
X138594822Y-100661398D02*
G01*
X138651336Y-100666024D01*
X138694388Y-100675990D01*
X138734161Y-100693110D01*
X138751733Y-100702534D01*
X138824819Y-100761559D01*
X138876572Y-100841785D01*
X138902213Y-100934864D01*
X138904133Y-100968588D01*
X138904133Y-101041200D01*
X138654564Y-101041200D01*
X138644606Y-100979833D01*
X138622441Y-100910925D01*
X138581887Y-100869863D01*
X138521269Y-100855036D01*
X138514666Y-100854934D01*
X138452086Y-100867672D01*
X138411203Y-100903442D01*
X138396143Y-100958581D01*
X138396133Y-100960224D01*
X138400430Y-100991570D01*
X138416038Y-101022020D01*
X138447029Y-101055682D01*
X138497479Y-101096664D01*
X138571462Y-101149075D01*
X138607800Y-101173651D01*
X138721079Y-101254032D01*
X138805708Y-101325603D01*
X138864310Y-101392554D01*
X138899507Y-101459072D01*
X138913924Y-101529347D01*
X138910182Y-101607567D01*
X138903431Y-101645716D01*
X138868572Y-101738818D01*
X138808699Y-101811629D01*
X138727402Y-101860114D01*
X138706223Y-101867348D01*
X138644579Y-101879027D01*
X138564896Y-101885022D01*
X138479642Y-101885340D01*
X138401281Y-101879986D01*
X138342281Y-101868965D01*
X138336866Y-101867182D01*
X138246655Y-101818519D01*
X138179362Y-101746771D01*
X138137935Y-101656205D01*
X138125200Y-101560787D01*
X138125200Y-101481467D01*
X138374795Y-101481467D01*
X138383786Y-101561232D01*
X138402657Y-101631054D01*
X138438661Y-101679359D01*
X138487547Y-101700947D01*
X138498507Y-101701600D01*
X138559578Y-101690026D01*
X138609256Y-101659814D01*
X138632843Y-101626337D01*
X138642326Y-101580124D01*
X138631824Y-101536149D01*
X138598480Y-101490272D01*
X138539435Y-101438353D01*
X138467324Y-101386665D01*
X138367979Y-101317343D01*
X138293374Y-101259811D01*
X138238661Y-101209380D01*
X138198993Y-101161362D01*
X138169522Y-101111068D01*
X138159244Y-101088659D01*
X138133524Y-101011755D01*
X138127929Y-100939673D01*
X138129455Y-100918206D01*
X138148533Y-100834966D01*
X138190871Y-100768913D01*
X138261265Y-100713140D01*
X138279100Y-100702630D01*
X138319674Y-100682141D01*
X138359641Y-100669496D01*
X138409090Y-100662881D01*
X138478113Y-100660482D01*
X138514666Y-100660296D01*
X138594822Y-100661398D01*
G37*
X138594822Y-100661398D02*
X138651336Y-100666024D01*
X138694388Y-100675990D01*
X138734161Y-100693110D01*
X138751733Y-100702534D01*
X138824819Y-100761559D01*
X138876572Y-100841785D01*
X138902213Y-100934864D01*
X138904133Y-100968588D01*
X138904133Y-101041200D01*
X138654564Y-101041200D01*
X138644606Y-100979833D01*
X138622441Y-100910925D01*
X138581887Y-100869863D01*
X138521269Y-100855036D01*
X138514666Y-100854934D01*
X138452086Y-100867672D01*
X138411203Y-100903442D01*
X138396143Y-100958581D01*
X138396133Y-100960224D01*
X138400430Y-100991570D01*
X138416038Y-101022020D01*
X138447029Y-101055682D01*
X138497479Y-101096664D01*
X138571462Y-101149075D01*
X138607800Y-101173651D01*
X138721079Y-101254032D01*
X138805708Y-101325603D01*
X138864310Y-101392554D01*
X138899507Y-101459072D01*
X138913924Y-101529347D01*
X138910182Y-101607567D01*
X138903431Y-101645716D01*
X138868572Y-101738818D01*
X138808699Y-101811629D01*
X138727402Y-101860114D01*
X138706223Y-101867348D01*
X138644579Y-101879027D01*
X138564896Y-101885022D01*
X138479642Y-101885340D01*
X138401281Y-101879986D01*
X138342281Y-101868965D01*
X138336866Y-101867182D01*
X138246655Y-101818519D01*
X138179362Y-101746771D01*
X138137935Y-101656205D01*
X138125200Y-101560787D01*
X138125200Y-101481467D01*
X138374795Y-101481467D01*
X138383786Y-101561232D01*
X138402657Y-101631054D01*
X138438661Y-101679359D01*
X138487547Y-101700947D01*
X138498507Y-101701600D01*
X138559578Y-101690026D01*
X138609256Y-101659814D01*
X138632843Y-101626337D01*
X138642326Y-101580124D01*
X138631824Y-101536149D01*
X138598480Y-101490272D01*
X138539435Y-101438353D01*
X138467324Y-101386665D01*
X138367979Y-101317343D01*
X138293374Y-101259811D01*
X138238661Y-101209380D01*
X138198993Y-101161362D01*
X138169522Y-101111068D01*
X138159244Y-101088659D01*
X138133524Y-101011755D01*
X138127929Y-100939673D01*
X138129455Y-100918206D01*
X138148533Y-100834966D01*
X138190871Y-100768913D01*
X138261265Y-100713140D01*
X138279100Y-100702630D01*
X138319674Y-100682141D01*
X138359641Y-100669496D01*
X138409090Y-100662881D01*
X138478113Y-100660482D01*
X138514666Y-100660296D01*
X138594822Y-100661398D01*
G36*
X139364337Y-101758288D02*
G01*
X139406406Y-101799317D01*
X139427875Y-101857037D01*
X139429066Y-101875679D01*
X139414444Y-101933615D01*
X139376463Y-101977409D01*
X139323949Y-102003455D01*
X139265730Y-102008148D01*
X139210633Y-101987880D01*
X139192000Y-101972533D01*
X139163667Y-101922610D01*
X139157968Y-101861490D01*
X139174539Y-101802841D01*
X139197325Y-101772285D01*
X139251516Y-101741078D01*
X139309947Y-101737643D01*
X139364337Y-101758288D01*
G37*
X139364337Y-101758288D02*
X139406406Y-101799317D01*
X139427875Y-101857037D01*
X139429066Y-101875679D01*
X139414444Y-101933615D01*
X139376463Y-101977409D01*
X139323949Y-102003455D01*
X139265730Y-102008148D01*
X139210633Y-101987880D01*
X139192000Y-101972533D01*
X139163667Y-101922610D01*
X139157968Y-101861490D01*
X139174539Y-101802841D01*
X139197325Y-101772285D01*
X139251516Y-101741078D01*
X139309947Y-101737643D01*
X139364337Y-101758288D01*
G36*
X136176887Y-100951190D02*
G01*
X136183484Y-100916067D01*
X136193126Y-100886642D01*
X136206388Y-100857280D01*
X136211733Y-100846491D01*
X136271135Y-100760563D01*
X136351092Y-100700206D01*
X136452566Y-100664984D01*
X136576516Y-100654459D01*
X136628860Y-100656782D01*
X136728063Y-100670072D01*
X136803200Y-100695468D01*
X136863023Y-100736698D01*
X136894865Y-100770184D01*
X136925317Y-100813154D01*
X136947889Y-100863363D01*
X136964157Y-100927252D01*
X136975698Y-101011259D01*
X136984087Y-101121824D01*
X136985033Y-101138567D01*
X136995478Y-101329067D01*
X136428391Y-101329067D01*
X136434363Y-101474467D01*
X136438136Y-101546254D01*
X136443970Y-101592950D01*
X136454382Y-101623326D01*
X136471891Y-101646154D01*
X136487844Y-101660733D01*
X136546705Y-101693992D01*
X136604322Y-101696461D01*
X136655204Y-101670953D01*
X136693861Y-101620276D01*
X136714801Y-101547242D01*
X136715135Y-101544408D01*
X136724138Y-101464534D01*
X136978370Y-101464534D01*
X136969493Y-101575117D01*
X136949399Y-101684617D01*
X136907854Y-101769256D01*
X136843516Y-101830142D01*
X136755041Y-101868384D01*
X136641087Y-101885090D01*
X136592733Y-101886039D01*
X136521890Y-101883803D01*
X136458848Y-101878886D01*
X136415671Y-101872281D01*
X136411400Y-101871130D01*
X136324816Y-101827679D01*
X136253903Y-101754989D01*
X136213871Y-101686200D01*
X136198597Y-101652302D01*
X136187305Y-101621387D01*
X136179394Y-101587691D01*
X136174261Y-101545448D01*
X136171303Y-101488893D01*
X136169919Y-101412261D01*
X136169506Y-101309787D01*
X136169477Y-101261334D01*
X136169631Y-101147083D01*
X136169854Y-101125867D01*
X136431867Y-101125867D01*
X136719733Y-101125867D01*
X136719733Y-101024267D01*
X136713066Y-100944844D01*
X136690811Y-100892920D01*
X136649590Y-100864408D01*
X136586023Y-100855217D01*
X136580033Y-100855193D01*
X136530847Y-100858113D01*
X136495458Y-100865093D01*
X136489435Y-100867893D01*
X136455782Y-100909574D01*
X136436229Y-100977546D01*
X136431867Y-101040087D01*
X136431867Y-101125867D01*
X136169854Y-101125867D01*
X136170534Y-101061064D01*
X136171270Y-101040087D01*
X136172761Y-100997645D01*
X136176887Y-100951190D01*
G37*
X136176887Y-100951190D02*
X136183484Y-100916067D01*
X136193126Y-100886642D01*
X136206388Y-100857280D01*
X136211733Y-100846491D01*
X136271135Y-100760563D01*
X136351092Y-100700206D01*
X136452566Y-100664984D01*
X136576516Y-100654459D01*
X136628860Y-100656782D01*
X136728063Y-100670072D01*
X136803200Y-100695468D01*
X136863023Y-100736698D01*
X136894865Y-100770184D01*
X136925317Y-100813154D01*
X136947889Y-100863363D01*
X136964157Y-100927252D01*
X136975698Y-101011259D01*
X136984087Y-101121824D01*
X136985033Y-101138567D01*
X136995478Y-101329067D01*
X136428391Y-101329067D01*
X136434363Y-101474467D01*
X136438136Y-101546254D01*
X136443970Y-101592950D01*
X136454382Y-101623326D01*
X136471891Y-101646154D01*
X136487844Y-101660733D01*
X136546705Y-101693992D01*
X136604322Y-101696461D01*
X136655204Y-101670953D01*
X136693861Y-101620276D01*
X136714801Y-101547242D01*
X136715135Y-101544408D01*
X136724138Y-101464534D01*
X136978370Y-101464534D01*
X136969493Y-101575117D01*
X136949399Y-101684617D01*
X136907854Y-101769256D01*
X136843516Y-101830142D01*
X136755041Y-101868384D01*
X136641087Y-101885090D01*
X136592733Y-101886039D01*
X136521890Y-101883803D01*
X136458848Y-101878886D01*
X136415671Y-101872281D01*
X136411400Y-101871130D01*
X136324816Y-101827679D01*
X136253903Y-101754989D01*
X136213871Y-101686200D01*
X136198597Y-101652302D01*
X136187305Y-101621387D01*
X136179394Y-101587691D01*
X136174261Y-101545448D01*
X136171303Y-101488893D01*
X136169919Y-101412261D01*
X136169506Y-101309787D01*
X136169477Y-101261334D01*
X136169631Y-101147083D01*
X136169854Y-101125867D01*
X136431867Y-101125867D01*
X136719733Y-101125867D01*
X136719733Y-101024267D01*
X136713066Y-100944844D01*
X136690811Y-100892920D01*
X136649590Y-100864408D01*
X136586023Y-100855217D01*
X136580033Y-100855193D01*
X136530847Y-100858113D01*
X136495458Y-100865093D01*
X136489435Y-100867893D01*
X136455782Y-100909574D01*
X136436229Y-100977546D01*
X136431867Y-101040087D01*
X136431867Y-101125867D01*
X136169854Y-101125867D01*
X136170534Y-101061064D01*
X136171270Y-101040087D01*
X136172761Y-100997645D01*
X136176887Y-100951190D01*
G36*
X131617155Y-101656445D02*
G01*
X131619182Y-101676541D01*
X131617155Y-101679022D01*
X131607089Y-101676698D01*
X131605867Y-101667733D01*
X131612062Y-101653795D01*
X131617155Y-101656445D01*
G37*
X131617155Y-101656445D02*
X131619182Y-101676541D01*
X131617155Y-101679022D01*
X131607089Y-101676698D01*
X131605867Y-101667733D01*
X131612062Y-101653795D01*
X131617155Y-101656445D01*
G36*
X139220043Y-101408430D02*
G01*
X139225866Y-101431198D01*
X139215153Y-101458359D01*
X139200466Y-101464534D01*
X139179798Y-101478727D01*
X139175066Y-101499174D01*
X139177840Y-101517453D01*
X139191099Y-101527280D01*
X139222253Y-101530577D01*
X139278711Y-101529263D01*
X139289366Y-101528807D01*
X139353201Y-101524201D01*
X139389096Y-101516326D01*
X139402935Y-101503617D01*
X139403666Y-101498400D01*
X139389220Y-101476673D01*
X139364577Y-101467459D01*
X139334363Y-101453447D01*
X139331324Y-101433593D01*
X139349332Y-101413796D01*
X139383436Y-101413326D01*
X139421988Y-101432088D01*
X139424833Y-101434349D01*
X139442128Y-101467004D01*
X139444436Y-101512387D01*
X139432085Y-101553022D01*
X139422393Y-101564646D01*
X139390030Y-101578109D01*
X139337162Y-101588201D01*
X139277095Y-101593481D01*
X139223137Y-101592507D01*
X139200466Y-101588672D01*
X139149750Y-101564524D01*
X139126766Y-101524629D01*
X139124266Y-101498400D01*
X139134520Y-101451292D01*
X139169345Y-101419969D01*
X139196233Y-101408427D01*
X139220043Y-101408430D01*
G37*
X139220043Y-101408430D02*
X139225866Y-101431198D01*
X139215153Y-101458359D01*
X139200466Y-101464534D01*
X139179798Y-101478727D01*
X139175066Y-101499174D01*
X139177840Y-101517453D01*
X139191099Y-101527280D01*
X139222253Y-101530577D01*
X139278711Y-101529263D01*
X139289366Y-101528807D01*
X139353201Y-101524201D01*
X139389096Y-101516326D01*
X139402935Y-101503617D01*
X139403666Y-101498400D01*
X139389220Y-101476673D01*
X139364577Y-101467459D01*
X139334363Y-101453447D01*
X139331324Y-101433593D01*
X139349332Y-101413796D01*
X139383436Y-101413326D01*
X139421988Y-101432088D01*
X139424833Y-101434349D01*
X139442128Y-101467004D01*
X139444436Y-101512387D01*
X139432085Y-101553022D01*
X139422393Y-101564646D01*
X139390030Y-101578109D01*
X139337162Y-101588201D01*
X139277095Y-101593481D01*
X139223137Y-101592507D01*
X139200466Y-101588672D01*
X139149750Y-101564524D01*
X139126766Y-101524629D01*
X139124266Y-101498400D01*
X139134520Y-101451292D01*
X139169345Y-101419969D01*
X139196233Y-101408427D01*
X139220043Y-101408430D01*
G36*
X133696758Y-101425304D02*
G01*
X133737080Y-101334784D01*
X133749647Y-101316848D01*
X133788821Y-101279009D01*
X133853304Y-101236484D01*
X133946329Y-101187209D01*
X133973476Y-101174047D01*
X134070415Y-101126267D01*
X134140120Y-101087679D01*
X134186783Y-101054844D01*
X134214595Y-101024326D01*
X134227747Y-100992688D01*
X134230533Y-100963258D01*
X134220675Y-100907182D01*
X134188815Y-100872565D01*
X134131531Y-100856692D01*
X134093857Y-100854933D01*
X134017998Y-100865648D01*
X133967955Y-100897399D01*
X133944473Y-100949602D01*
X133942667Y-100973467D01*
X133942667Y-101024267D01*
X133688667Y-101024267D01*
X133688667Y-100960121D01*
X133704499Y-100870241D01*
X133747968Y-100787001D01*
X133813034Y-100720613D01*
X133841067Y-100702534D01*
X133879806Y-100683039D01*
X133917447Y-100670594D01*
X133963191Y-100663665D01*
X134026240Y-100660720D01*
X134095067Y-100660200D01*
X134178509Y-100661069D01*
X134237309Y-100664698D01*
X134280668Y-100672620D01*
X134317789Y-100686369D01*
X134349067Y-100702534D01*
X134384214Y-100722993D01*
X134412559Y-100743738D01*
X134434876Y-100768499D01*
X134451944Y-100801008D01*
X134464540Y-100844994D01*
X134473439Y-100904189D01*
X134479420Y-100982323D01*
X134483259Y-101083128D01*
X134485733Y-101210334D01*
X134487620Y-101367671D01*
X134487622Y-101367831D01*
X134493000Y-101872263D01*
X134374467Y-101867365D01*
X134255933Y-101862467D01*
X134250627Y-101807433D01*
X134244016Y-101766035D01*
X134231832Y-101755920D01*
X134208941Y-101775982D01*
X134193375Y-101795072D01*
X134133861Y-101848949D01*
X134056429Y-101879166D01*
X133964674Y-101887804D01*
X133876651Y-101879646D01*
X133812353Y-101854745D01*
X133757845Y-101812094D01*
X133720610Y-101757328D01*
X133695345Y-101681491D01*
X133687521Y-101643887D01*
X133682396Y-101570335D01*
X133947488Y-101570335D01*
X133957879Y-101621621D01*
X133992915Y-101671226D01*
X134045718Y-101695561D01*
X134108984Y-101692125D01*
X134135459Y-101682470D01*
X134173460Y-101652111D01*
X134194245Y-101618970D01*
X134203638Y-101581060D01*
X134211861Y-101524609D01*
X134218446Y-101457711D01*
X134222929Y-101388462D01*
X134224843Y-101324958D01*
X134223722Y-101275294D01*
X134219099Y-101247566D01*
X134215819Y-101244400D01*
X134192559Y-101253680D01*
X134151113Y-101277611D01*
X134100245Y-101310334D01*
X134048716Y-101345987D01*
X134005289Y-101378709D01*
X133978728Y-101402640D01*
X133978062Y-101403425D01*
X133958616Y-101445674D01*
X133947970Y-101506223D01*
X133947488Y-101570335D01*
X133682396Y-101570335D01*
X133679675Y-101531303D01*
X133696758Y-101425304D01*
G37*
X133696758Y-101425304D02*
X133737080Y-101334784D01*
X133749647Y-101316848D01*
X133788821Y-101279009D01*
X133853304Y-101236484D01*
X133946329Y-101187209D01*
X133973476Y-101174047D01*
X134070415Y-101126267D01*
X134140120Y-101087679D01*
X134186783Y-101054844D01*
X134214595Y-101024326D01*
X134227747Y-100992688D01*
X134230533Y-100963258D01*
X134220675Y-100907182D01*
X134188815Y-100872565D01*
X134131531Y-100856692D01*
X134093857Y-100854933D01*
X134017998Y-100865648D01*
X133967955Y-100897399D01*
X133944473Y-100949602D01*
X133942667Y-100973467D01*
X133942667Y-101024267D01*
X133688667Y-101024267D01*
X133688667Y-100960121D01*
X133704499Y-100870241D01*
X133747968Y-100787001D01*
X133813034Y-100720613D01*
X133841067Y-100702534D01*
X133879806Y-100683039D01*
X133917447Y-100670594D01*
X133963191Y-100663665D01*
X134026240Y-100660720D01*
X134095067Y-100660200D01*
X134178509Y-100661069D01*
X134237309Y-100664698D01*
X134280668Y-100672620D01*
X134317789Y-100686369D01*
X134349067Y-100702534D01*
X134384214Y-100722993D01*
X134412559Y-100743738D01*
X134434876Y-100768499D01*
X134451944Y-100801008D01*
X134464540Y-100844994D01*
X134473439Y-100904189D01*
X134479420Y-100982323D01*
X134483259Y-101083128D01*
X134485733Y-101210334D01*
X134487620Y-101367671D01*
X134487622Y-101367831D01*
X134493000Y-101872263D01*
X134374467Y-101867365D01*
X134255933Y-101862467D01*
X134250627Y-101807433D01*
X134244016Y-101766035D01*
X134231832Y-101755920D01*
X134208941Y-101775982D01*
X134193375Y-101795072D01*
X134133861Y-101848949D01*
X134056429Y-101879166D01*
X133964674Y-101887804D01*
X133876651Y-101879646D01*
X133812353Y-101854745D01*
X133757845Y-101812094D01*
X133720610Y-101757328D01*
X133695345Y-101681491D01*
X133687521Y-101643887D01*
X133682396Y-101570335D01*
X133947488Y-101570335D01*
X133957879Y-101621621D01*
X133992915Y-101671226D01*
X134045718Y-101695561D01*
X134108984Y-101692125D01*
X134135459Y-101682470D01*
X134173460Y-101652111D01*
X134194245Y-101618970D01*
X134203638Y-101581060D01*
X134211861Y-101524609D01*
X134218446Y-101457711D01*
X134222929Y-101388462D01*
X134224843Y-101324958D01*
X134223722Y-101275294D01*
X134219099Y-101247566D01*
X134215819Y-101244400D01*
X134192559Y-101253680D01*
X134151113Y-101277611D01*
X134100245Y-101310334D01*
X134048716Y-101345987D01*
X134005289Y-101378709D01*
X133978728Y-101402640D01*
X133978062Y-101403425D01*
X133958616Y-101445674D01*
X133947970Y-101506223D01*
X133947488Y-101570335D01*
X133682396Y-101570335D01*
X133679675Y-101531303D01*
X133696758Y-101425304D01*
D10*
X128111364Y-97718200D02*
X128327036Y-97718200D01*
X128111364Y-96998200D02*
X128327036Y-96998200D01*
G36*
X135355839Y-85342298D02*
G01*
X135334480Y-85366734D01*
X135314659Y-85373634D01*
X135306127Y-85361540D01*
X135318925Y-85341372D01*
X135344807Y-85319183D01*
X135355386Y-85318797D01*
X135355839Y-85342298D01*
G37*
D14*
X135355839Y-85342298D02*
X135334480Y-85366734D01*
X135314659Y-85373634D01*
X135306127Y-85361540D01*
X135318925Y-85341372D01*
X135344807Y-85319183D01*
X135355386Y-85318797D01*
X135355839Y-85342298D01*
G36*
X135417278Y-84957356D02*
G01*
X135419811Y-84982476D01*
X135417278Y-84985578D01*
X135404694Y-84982672D01*
X135403167Y-84971467D01*
X135410911Y-84954044D01*
X135417278Y-84957356D01*
G37*
X135417278Y-84957356D02*
X135419811Y-84982476D01*
X135417278Y-84985578D01*
X135404694Y-84982672D01*
X135403167Y-84971467D01*
X135410911Y-84954044D01*
X135417278Y-84957356D01*
G36*
X134071178Y-85047282D02*
G01*
X134190649Y-85076691D01*
X134320010Y-85119649D01*
X134446439Y-85171425D01*
X134557114Y-85227288D01*
X134636990Y-85280656D01*
X134667043Y-85308881D01*
X134674554Y-85335611D01*
X134661743Y-85377848D01*
X134652581Y-85400131D01*
X134630818Y-85449398D01*
X134616486Y-85476647D01*
X134614424Y-85478607D01*
X134597002Y-85465749D01*
X134554199Y-85431853D01*
X134493341Y-85382764D01*
X134450667Y-85348005D01*
X134354344Y-85276794D01*
X134239785Y-85203109D01*
X134128035Y-85140265D01*
X134101417Y-85127047D01*
X134016998Y-85085545D01*
X133967995Y-85058292D01*
X133950934Y-85042803D01*
X133962346Y-85036594D01*
X133974417Y-85036153D01*
X134071178Y-85047282D01*
G37*
X134071178Y-85047282D02*
X134190649Y-85076691D01*
X134320010Y-85119649D01*
X134446439Y-85171425D01*
X134557114Y-85227288D01*
X134636990Y-85280656D01*
X134667043Y-85308881D01*
X134674554Y-85335611D01*
X134661743Y-85377848D01*
X134652581Y-85400131D01*
X134630818Y-85449398D01*
X134616486Y-85476647D01*
X134614424Y-85478607D01*
X134597002Y-85465749D01*
X134554199Y-85431853D01*
X134493341Y-85382764D01*
X134450667Y-85348005D01*
X134354344Y-85276794D01*
X134239785Y-85203109D01*
X134128035Y-85140265D01*
X134101417Y-85127047D01*
X134016998Y-85085545D01*
X133967995Y-85058292D01*
X133950934Y-85042803D01*
X133962346Y-85036594D01*
X133974417Y-85036153D01*
X134071178Y-85047282D01*
G36*
X136000564Y-86111965D02*
G01*
X136011465Y-86140019D01*
X136020985Y-86194207D01*
X136023738Y-86220797D01*
X136032326Y-86289268D01*
X136044276Y-86345652D01*
X136048319Y-86357884D01*
X136066039Y-86399647D01*
X136093980Y-86462673D01*
X136124622Y-86530298D01*
X136150444Y-86585857D01*
X136160559Y-86606592D01*
X136157525Y-86623808D01*
X136128809Y-86624258D01*
X136086024Y-86611210D01*
X136040783Y-86587930D01*
X136011006Y-86564518D01*
X135974704Y-86533111D01*
X135935655Y-86515152D01*
X135880202Y-86506598D01*
X135805343Y-86503604D01*
X135690406Y-86494163D01*
X135614124Y-86471386D01*
X135603883Y-86465423D01*
X135559707Y-86444233D01*
X135529569Y-86442920D01*
X135512554Y-86449437D01*
X135513584Y-86433700D01*
X135534140Y-86390137D01*
X135553063Y-86354592D01*
X135598900Y-86293275D01*
X135663872Y-86232784D01*
X135694704Y-86210706D01*
X135764294Y-86172475D01*
X135841084Y-86139937D01*
X135913763Y-86116743D01*
X135971020Y-86106544D01*
X136000564Y-86111965D01*
G37*
X136000564Y-86111965D02*
X136011465Y-86140019D01*
X136020985Y-86194207D01*
X136023738Y-86220797D01*
X136032326Y-86289268D01*
X136044276Y-86345652D01*
X136048319Y-86357884D01*
X136066039Y-86399647D01*
X136093980Y-86462673D01*
X136124622Y-86530298D01*
X136150444Y-86585857D01*
X136160559Y-86606592D01*
X136157525Y-86623808D01*
X136128809Y-86624258D01*
X136086024Y-86611210D01*
X136040783Y-86587930D01*
X136011006Y-86564518D01*
X135974704Y-86533111D01*
X135935655Y-86515152D01*
X135880202Y-86506598D01*
X135805343Y-86503604D01*
X135690406Y-86494163D01*
X135614124Y-86471386D01*
X135603883Y-86465423D01*
X135559707Y-86444233D01*
X135529569Y-86442920D01*
X135512554Y-86449437D01*
X135513584Y-86433700D01*
X135534140Y-86390137D01*
X135553063Y-86354592D01*
X135598900Y-86293275D01*
X135663872Y-86232784D01*
X135694704Y-86210706D01*
X135764294Y-86172475D01*
X135841084Y-86139937D01*
X135913763Y-86116743D01*
X135971020Y-86106544D01*
X136000564Y-86111965D01*
G36*
X135297094Y-86780306D02*
G01*
X135335120Y-86794386D01*
X135357567Y-86804773D01*
X135364406Y-86818979D01*
X135352509Y-86844360D01*
X135318749Y-86888270D01*
X135271068Y-86945018D01*
X135164001Y-87082724D01*
X135069329Y-87226549D01*
X134995239Y-87363488D01*
X134967892Y-87426800D01*
X134939895Y-87492739D01*
X134917054Y-87534954D01*
X134902726Y-87549017D01*
X134900270Y-87530496D01*
X134903689Y-87511467D01*
X134913781Y-87460760D01*
X134927187Y-87388032D01*
X134935761Y-87339315D01*
X134976701Y-87180815D01*
X135042980Y-87015729D01*
X135126675Y-86863657D01*
X135130326Y-86858041D01*
X135171057Y-86798436D01*
X135203167Y-86768490D01*
X135240549Y-86763886D01*
X135297094Y-86780306D01*
G37*
X135297094Y-86780306D02*
X135335120Y-86794386D01*
X135357567Y-86804773D01*
X135364406Y-86818979D01*
X135352509Y-86844360D01*
X135318749Y-86888270D01*
X135271068Y-86945018D01*
X135164001Y-87082724D01*
X135069329Y-87226549D01*
X134995239Y-87363488D01*
X134967892Y-87426800D01*
X134939895Y-87492739D01*
X134917054Y-87534954D01*
X134902726Y-87549017D01*
X134900270Y-87530496D01*
X134903689Y-87511467D01*
X134913781Y-87460760D01*
X134927187Y-87388032D01*
X134935761Y-87339315D01*
X134976701Y-87180815D01*
X135042980Y-87015729D01*
X135126675Y-86863657D01*
X135130326Y-86858041D01*
X135171057Y-86798436D01*
X135203167Y-86768490D01*
X135240549Y-86763886D01*
X135297094Y-86780306D01*
G36*
X134302500Y-84707988D02*
G01*
X134409651Y-84727648D01*
X134534571Y-84762185D01*
X134661668Y-84806279D01*
X134775349Y-84854612D01*
X134848455Y-84894208D01*
X134939326Y-84951984D01*
X134890788Y-85013471D01*
X134851479Y-85059205D01*
X134825440Y-85073562D01*
X134802165Y-85060188D01*
X134791351Y-85047981D01*
X134750926Y-85011462D01*
X134682640Y-84961953D01*
X134596370Y-84905650D01*
X134501990Y-84848750D01*
X134409376Y-84797450D01*
X134330797Y-84759000D01*
X134186084Y-84694918D01*
X134302500Y-84707988D01*
G37*
X134302500Y-84707988D02*
X134409651Y-84727648D01*
X134534571Y-84762185D01*
X134661668Y-84806279D01*
X134775349Y-84854612D01*
X134848455Y-84894208D01*
X134939326Y-84951984D01*
X134890788Y-85013471D01*
X134851479Y-85059205D01*
X134825440Y-85073562D01*
X134802165Y-85060188D01*
X134791351Y-85047981D01*
X134750926Y-85011462D01*
X134682640Y-84961953D01*
X134596370Y-84905650D01*
X134501990Y-84848750D01*
X134409376Y-84797450D01*
X134330797Y-84759000D01*
X134186084Y-84694918D01*
X134302500Y-84707988D01*
G36*
X136846346Y-86173662D02*
G01*
X137050889Y-86322544D01*
X137263977Y-86439404D01*
X137322936Y-86465128D01*
X137385841Y-86492124D01*
X137412423Y-86507409D01*
X137406108Y-86513838D01*
X137382250Y-86514573D01*
X137330192Y-86508997D01*
X137253380Y-86495335D01*
X137167944Y-86476478D01*
X137163370Y-86475361D01*
X137081366Y-86450790D01*
X136986566Y-86415611D01*
X136889085Y-86374407D01*
X136799036Y-86331762D01*
X136726533Y-86292258D01*
X136681689Y-86260480D01*
X136676239Y-86254604D01*
X136671600Y-86218582D01*
X136688814Y-86159501D01*
X136691794Y-86152496D01*
X136726084Y-86074108D01*
X136846346Y-86173662D01*
G37*
X136846346Y-86173662D02*
X137050889Y-86322544D01*
X137263977Y-86439404D01*
X137322936Y-86465128D01*
X137385841Y-86492124D01*
X137412423Y-86507409D01*
X137406108Y-86513838D01*
X137382250Y-86514573D01*
X137330192Y-86508997D01*
X137253380Y-86495335D01*
X137167944Y-86476478D01*
X137163370Y-86475361D01*
X137081366Y-86450790D01*
X136986566Y-86415611D01*
X136889085Y-86374407D01*
X136799036Y-86331762D01*
X136726533Y-86292258D01*
X136681689Y-86260480D01*
X136676239Y-86254604D01*
X136671600Y-86218582D01*
X136688814Y-86159501D01*
X136691794Y-86152496D01*
X136726084Y-86074108D01*
X136846346Y-86173662D01*
G36*
X136743794Y-84313000D02*
G01*
X136740207Y-84363293D01*
X136728990Y-84435548D01*
X136711812Y-84520303D01*
X136690343Y-84608095D01*
X136670889Y-84675134D01*
X136642220Y-84754153D01*
X136606018Y-84837835D01*
X136567076Y-84916912D01*
X136530187Y-84982115D01*
X136500144Y-85024178D01*
X136484803Y-85034967D01*
X136460915Y-85020969D01*
X136423670Y-84986770D01*
X136418920Y-84981787D01*
X136368960Y-84928608D01*
X136414969Y-84870662D01*
X136472054Y-84792485D01*
X136533942Y-84697637D01*
X136594183Y-84597154D01*
X136646327Y-84502072D01*
X136683923Y-84423425D01*
X136696965Y-84388210D01*
X136715992Y-84332575D01*
X136732553Y-84298817D01*
X136738083Y-84294134D01*
X136743794Y-84313000D01*
G37*
X136743794Y-84313000D02*
X136740207Y-84363293D01*
X136728990Y-84435548D01*
X136711812Y-84520303D01*
X136690343Y-84608095D01*
X136670889Y-84675134D01*
X136642220Y-84754153D01*
X136606018Y-84837835D01*
X136567076Y-84916912D01*
X136530187Y-84982115D01*
X136500144Y-85024178D01*
X136484803Y-85034967D01*
X136460915Y-85020969D01*
X136423670Y-84986770D01*
X136418920Y-84981787D01*
X136368960Y-84928608D01*
X136414969Y-84870662D01*
X136472054Y-84792485D01*
X136533942Y-84697637D01*
X136594183Y-84597154D01*
X136646327Y-84502072D01*
X136683923Y-84423425D01*
X136696965Y-84388210D01*
X136715992Y-84332575D01*
X136732553Y-84298817D01*
X136738083Y-84294134D01*
X136743794Y-84313000D01*
G36*
X133682303Y-85365052D02*
G01*
X133688699Y-85365766D01*
X133894455Y-85407330D01*
X134103029Y-85483680D01*
X134302876Y-85589779D01*
X134461068Y-85702700D01*
X134557306Y-85781560D01*
X134359843Y-85985055D01*
X134181339Y-86189701D01*
X134044917Y-86392324D01*
X133953402Y-86585425D01*
X133925782Y-86653707D01*
X133909346Y-86681237D01*
X133904125Y-86668000D01*
X133910152Y-86613978D01*
X133911333Y-86606592D01*
X133943138Y-86435067D01*
X133979270Y-86294660D01*
X134023966Y-86174158D01*
X134081462Y-86062345D01*
X134155995Y-85948006D01*
X134164824Y-85935617D01*
X134278271Y-85777497D01*
X134207667Y-85715506D01*
X134045706Y-85591586D01*
X133853784Y-85479350D01*
X133766813Y-85436558D01*
X133686179Y-85398332D01*
X133640668Y-85375020D01*
X133627023Y-85363670D01*
X133641986Y-85361331D01*
X133682303Y-85365052D01*
G37*
X133682303Y-85365052D02*
X133688699Y-85365766D01*
X133894455Y-85407330D01*
X134103029Y-85483680D01*
X134302876Y-85589779D01*
X134461068Y-85702700D01*
X134557306Y-85781560D01*
X134359843Y-85985055D01*
X134181339Y-86189701D01*
X134044917Y-86392324D01*
X133953402Y-86585425D01*
X133925782Y-86653707D01*
X133909346Y-86681237D01*
X133904125Y-86668000D01*
X133910152Y-86613978D01*
X133911333Y-86606592D01*
X133943138Y-86435067D01*
X133979270Y-86294660D01*
X134023966Y-86174158D01*
X134081462Y-86062345D01*
X134155995Y-85948006D01*
X134164824Y-85935617D01*
X134278271Y-85777497D01*
X134207667Y-85715506D01*
X134045706Y-85591586D01*
X133853784Y-85479350D01*
X133766813Y-85436558D01*
X133686179Y-85398332D01*
X133640668Y-85375020D01*
X133627023Y-85363670D01*
X133641986Y-85361331D01*
X133682303Y-85365052D01*
G36*
X134872790Y-86509323D02*
G01*
X134913463Y-86540976D01*
X134922255Y-86548579D01*
X134981092Y-86600353D01*
X134886673Y-86716274D01*
X134753496Y-86901387D01*
X134647043Y-87100706D01*
X134626040Y-87148300D01*
X134574897Y-87268050D01*
X134587270Y-87144473D01*
X134601705Y-87052809D01*
X134625476Y-86950201D01*
X134643180Y-86890473D01*
X134670890Y-86817499D01*
X134707195Y-86735471D01*
X134747381Y-86653437D01*
X134786734Y-86580450D01*
X134820540Y-86525557D01*
X134844086Y-86497810D01*
X134848578Y-86496136D01*
X134872790Y-86509323D01*
G37*
X134872790Y-86509323D02*
X134913463Y-86540976D01*
X134922255Y-86548579D01*
X134981092Y-86600353D01*
X134886673Y-86716274D01*
X134753496Y-86901387D01*
X134647043Y-87100706D01*
X134626040Y-87148300D01*
X134574897Y-87268050D01*
X134587270Y-87144473D01*
X134601705Y-87052809D01*
X134625476Y-86950201D01*
X134643180Y-86890473D01*
X134670890Y-86817499D01*
X134707195Y-86735471D01*
X134747381Y-86653437D01*
X134786734Y-86580450D01*
X134820540Y-86525557D01*
X134844086Y-86497810D01*
X134848578Y-86496136D01*
X134872790Y-86509323D01*
G36*
X135102297Y-85201275D02*
G01*
X135127547Y-85223394D01*
X135140347Y-85225467D01*
X135159296Y-85238593D01*
X135168916Y-85282334D01*
X135171084Y-85336592D01*
X135177293Y-85411773D01*
X135192227Y-85477422D01*
X135202084Y-85500634D01*
X135224292Y-85543350D01*
X135233083Y-85567161D01*
X135217613Y-85588404D01*
X135178773Y-85593502D01*
X135132717Y-85581486D01*
X135119290Y-85573998D01*
X135072831Y-85554631D01*
X135022293Y-85560846D01*
X134957091Y-85594868D01*
X134928331Y-85614113D01*
X134887855Y-85641142D01*
X134874434Y-85644005D01*
X134880582Y-85623012D01*
X134883508Y-85615961D01*
X134894189Y-85572451D01*
X134903339Y-85504292D01*
X134907416Y-85452093D01*
X134913189Y-85377680D01*
X134921004Y-85316127D01*
X134926559Y-85290094D01*
X134949778Y-85258514D01*
X134991989Y-85227287D01*
X135040172Y-85202992D01*
X135081309Y-85192211D01*
X135102297Y-85201275D01*
G37*
X135102297Y-85201275D02*
X135127547Y-85223394D01*
X135140347Y-85225467D01*
X135159296Y-85238593D01*
X135168916Y-85282334D01*
X135171084Y-85336592D01*
X135177293Y-85411773D01*
X135192227Y-85477422D01*
X135202084Y-85500634D01*
X135224292Y-85543350D01*
X135233083Y-85567161D01*
X135217613Y-85588404D01*
X135178773Y-85593502D01*
X135132717Y-85581486D01*
X135119290Y-85573998D01*
X135072831Y-85554631D01*
X135022293Y-85560846D01*
X134957091Y-85594868D01*
X134928331Y-85614113D01*
X134887855Y-85641142D01*
X134874434Y-85644005D01*
X134880582Y-85623012D01*
X134883508Y-85615961D01*
X134894189Y-85572451D01*
X134903339Y-85504292D01*
X134907416Y-85452093D01*
X134913189Y-85377680D01*
X134921004Y-85316127D01*
X134926559Y-85290094D01*
X134949778Y-85258514D01*
X134991989Y-85227287D01*
X135040172Y-85202992D01*
X135081309Y-85192211D01*
X135102297Y-85201275D01*
G36*
X136411526Y-84027893D02*
G01*
X136405509Y-84084339D01*
X136392870Y-84160397D01*
X136375508Y-84245359D01*
X136355319Y-84328515D01*
X136344114Y-84368217D01*
X136320218Y-84434069D01*
X136285605Y-84512983D01*
X136245289Y-84595371D01*
X136204285Y-84671646D01*
X136167607Y-84732218D01*
X136140271Y-84767501D01*
X136132662Y-84772503D01*
X136101914Y-84767815D01*
X136050008Y-84749841D01*
X136031660Y-84742099D01*
X135951069Y-84706550D01*
X136018655Y-84643217D01*
X136088636Y-84565049D01*
X136165413Y-84458788D01*
X136241843Y-84336312D01*
X136310785Y-84209503D01*
X136365096Y-84090238D01*
X136386254Y-84031812D01*
X136400640Y-84003620D01*
X136409026Y-84001770D01*
X136411526Y-84027893D01*
G37*
X136411526Y-84027893D02*
X136405509Y-84084339D01*
X136392870Y-84160397D01*
X136375508Y-84245359D01*
X136355319Y-84328515D01*
X136344114Y-84368217D01*
X136320218Y-84434069D01*
X136285605Y-84512983D01*
X136245289Y-84595371D01*
X136204285Y-84671646D01*
X136167607Y-84732218D01*
X136140271Y-84767501D01*
X136132662Y-84772503D01*
X136101914Y-84767815D01*
X136050008Y-84749841D01*
X136031660Y-84742099D01*
X135951069Y-84706550D01*
X136018655Y-84643217D01*
X136088636Y-84565049D01*
X136165413Y-84458788D01*
X136241843Y-84336312D01*
X136310785Y-84209503D01*
X136365096Y-84090238D01*
X136386254Y-84031812D01*
X136400640Y-84003620D01*
X136409026Y-84001770D01*
X136411526Y-84027893D01*
G36*
X137409673Y-84922151D02*
G01*
X137399511Y-84995159D01*
X137382373Y-85090712D01*
X137343174Y-85238791D01*
X137283801Y-85392645D01*
X137211222Y-85536732D01*
X137132407Y-85655513D01*
X137124914Y-85664837D01*
X137082842Y-85717814D01*
X137064770Y-85750054D01*
X137067559Y-85773314D01*
X137088073Y-85799349D01*
X137088803Y-85800156D01*
X137136161Y-85842205D01*
X137210922Y-85897160D01*
X137302873Y-85958508D01*
X137401798Y-86019742D01*
X137497483Y-86074349D01*
X137579712Y-86115820D01*
X137593917Y-86122081D01*
X137658184Y-86150628D01*
X137686311Y-86166979D01*
X137681727Y-86173981D01*
X137657417Y-86174778D01*
X137593301Y-86169462D01*
X137519281Y-86158328D01*
X137509250Y-86156395D01*
X137331158Y-86105058D01*
X137147008Y-86023977D01*
X136971316Y-85920407D01*
X136843577Y-85823648D01*
X136770570Y-85761071D01*
X136914360Y-85626562D01*
X137089190Y-85438308D01*
X137237895Y-85227615D01*
X137353540Y-85004787D01*
X137383487Y-84929744D01*
X137401671Y-84887947D01*
X137410396Y-84885915D01*
X137409673Y-84922151D01*
G37*
X137409673Y-84922151D02*
X137399511Y-84995159D01*
X137382373Y-85090712D01*
X137343174Y-85238791D01*
X137283801Y-85392645D01*
X137211222Y-85536732D01*
X137132407Y-85655513D01*
X137124914Y-85664837D01*
X137082842Y-85717814D01*
X137064770Y-85750054D01*
X137067559Y-85773314D01*
X137088073Y-85799349D01*
X137088803Y-85800156D01*
X137136161Y-85842205D01*
X137210922Y-85897160D01*
X137302873Y-85958508D01*
X137401798Y-86019742D01*
X137497483Y-86074349D01*
X137579712Y-86115820D01*
X137593917Y-86122081D01*
X137658184Y-86150628D01*
X137686311Y-86166979D01*
X137681727Y-86173981D01*
X137657417Y-86174778D01*
X137593301Y-86169462D01*
X137519281Y-86158328D01*
X137509250Y-86156395D01*
X137331158Y-86105058D01*
X137147008Y-86023977D01*
X136971316Y-85920407D01*
X136843577Y-85823648D01*
X136770570Y-85761071D01*
X136914360Y-85626562D01*
X137089190Y-85438308D01*
X137237895Y-85227615D01*
X137353540Y-85004787D01*
X137383487Y-84929744D01*
X137401671Y-84887947D01*
X137410396Y-84885915D01*
X137409673Y-84922151D01*
G36*
X136655435Y-86584351D02*
G01*
X136764919Y-86657408D01*
X136878953Y-86721870D01*
X137011133Y-86784978D01*
X137117667Y-86830542D01*
X137146728Y-86846101D01*
X137136970Y-86852074D01*
X137090787Y-86848559D01*
X137010572Y-86835653D01*
X136948334Y-86823689D01*
X136849479Y-86799324D01*
X136744309Y-86765907D01*
X136640660Y-86726864D01*
X136546368Y-86685626D01*
X136469270Y-86645619D01*
X136417202Y-86610273D01*
X136398000Y-86583015D01*
X136398000Y-86582931D01*
X136411984Y-86558331D01*
X136445868Y-86521394D01*
X136448133Y-86519249D01*
X136498266Y-86472151D01*
X136655435Y-86584351D01*
G37*
X136655435Y-86584351D02*
X136764919Y-86657408D01*
X136878953Y-86721870D01*
X137011133Y-86784978D01*
X137117667Y-86830542D01*
X137146728Y-86846101D01*
X137136970Y-86852074D01*
X137090787Y-86848559D01*
X137010572Y-86835653D01*
X136948334Y-86823689D01*
X136849479Y-86799324D01*
X136744309Y-86765907D01*
X136640660Y-86726864D01*
X136546368Y-86685626D01*
X136469270Y-86645619D01*
X136417202Y-86610273D01*
X136398000Y-86583015D01*
X136398000Y-86582931D01*
X136411984Y-86558331D01*
X136445868Y-86521394D01*
X136448133Y-86519249D01*
X136498266Y-86472151D01*
X136655435Y-86584351D01*
G36*
X136079348Y-83749585D02*
G01*
X136073234Y-83806264D01*
X136055660Y-83899757D01*
X136046840Y-83940705D01*
X136003217Y-84089797D01*
X135939734Y-84243402D01*
X135863180Y-84387758D01*
X135780346Y-84509103D01*
X135747357Y-84547703D01*
X135646584Y-84656562D01*
X135509000Y-84515869D01*
X135357833Y-84376759D01*
X135192898Y-84252050D01*
X135024317Y-84148392D01*
X134862216Y-84072437D01*
X134802179Y-84051524D01*
X134774081Y-84037317D01*
X134772383Y-84028862D01*
X134796431Y-84027873D01*
X134851735Y-84034089D01*
X134928073Y-84046242D01*
X134960620Y-84052182D01*
X135099841Y-84087697D01*
X135247145Y-84140873D01*
X135388291Y-84205527D01*
X135509037Y-84275472D01*
X135559536Y-84312286D01*
X135609788Y-84350651D01*
X135646635Y-84374684D01*
X135656955Y-84378800D01*
X135678274Y-84362586D01*
X135716714Y-84319506D01*
X135765893Y-84257906D01*
X135819430Y-84186129D01*
X135870944Y-84112522D01*
X135914053Y-84045429D01*
X135921478Y-84032884D01*
X135964828Y-83951791D01*
X136009447Y-83858555D01*
X136030240Y-83810634D01*
X136057721Y-83750750D01*
X136074134Y-83730740D01*
X136079348Y-83749585D01*
G37*
X136079348Y-83749585D02*
X136073234Y-83806264D01*
X136055660Y-83899757D01*
X136046840Y-83940705D01*
X136003217Y-84089797D01*
X135939734Y-84243402D01*
X135863180Y-84387758D01*
X135780346Y-84509103D01*
X135747357Y-84547703D01*
X135646584Y-84656562D01*
X135509000Y-84515869D01*
X135357833Y-84376759D01*
X135192898Y-84252050D01*
X135024317Y-84148392D01*
X134862216Y-84072437D01*
X134802179Y-84051524D01*
X134774081Y-84037317D01*
X134772383Y-84028862D01*
X134796431Y-84027873D01*
X134851735Y-84034089D01*
X134928073Y-84046242D01*
X134960620Y-84052182D01*
X135099841Y-84087697D01*
X135247145Y-84140873D01*
X135388291Y-84205527D01*
X135509037Y-84275472D01*
X135559536Y-84312286D01*
X135609788Y-84350651D01*
X135646635Y-84374684D01*
X135656955Y-84378800D01*
X135678274Y-84362586D01*
X135716714Y-84319506D01*
X135765893Y-84257906D01*
X135819430Y-84186129D01*
X135870944Y-84112522D01*
X135914053Y-84045429D01*
X135921478Y-84032884D01*
X135964828Y-83951791D01*
X136009447Y-83858555D01*
X136030240Y-83810634D01*
X136057721Y-83750750D01*
X136074134Y-83730740D01*
X136079348Y-83749585D01*
G36*
X136167711Y-86773103D02*
G01*
X136214407Y-86803577D01*
X136283317Y-86855436D01*
X136306583Y-86873381D01*
X136394052Y-86936345D01*
X136491475Y-86999069D01*
X136590162Y-87056751D01*
X136681420Y-87104588D01*
X136756556Y-87137776D01*
X136806879Y-87151514D01*
X136810163Y-87151634D01*
X136838706Y-87162882D01*
X136842500Y-87172800D01*
X136838480Y-87191547D01*
X136837209Y-87191600D01*
X136815211Y-87186863D01*
X136764744Y-87177343D01*
X136726084Y-87170347D01*
X136502277Y-87117931D01*
X136306784Y-87044044D01*
X136129273Y-86944492D01*
X136072875Y-86905290D01*
X136014532Y-86859556D01*
X135992204Y-86828447D01*
X136005941Y-86804255D01*
X136055792Y-86779274D01*
X136073750Y-86772062D01*
X136106099Y-86761139D01*
X136134514Y-86760221D01*
X136167711Y-86773103D01*
G37*
X136167711Y-86773103D02*
X136214407Y-86803577D01*
X136283317Y-86855436D01*
X136306583Y-86873381D01*
X136394052Y-86936345D01*
X136491475Y-86999069D01*
X136590162Y-87056751D01*
X136681420Y-87104588D01*
X136756556Y-87137776D01*
X136806879Y-87151514D01*
X136810163Y-87151634D01*
X136838706Y-87162882D01*
X136842500Y-87172800D01*
X136838480Y-87191547D01*
X136837209Y-87191600D01*
X136815211Y-87186863D01*
X136764744Y-87177343D01*
X136726084Y-87170347D01*
X136502277Y-87117931D01*
X136306784Y-87044044D01*
X136129273Y-86944492D01*
X136072875Y-86905290D01*
X136014532Y-86859556D01*
X135992204Y-86828447D01*
X136005941Y-86804255D01*
X136055792Y-86779274D01*
X136073750Y-86772062D01*
X136106099Y-86761139D01*
X136134514Y-86760221D01*
X136167711Y-86773103D01*
G36*
X134698462Y-86249203D02*
G01*
X134576990Y-86393875D01*
X134477272Y-86526956D01*
X134383290Y-86678345D01*
X134305379Y-86830482D01*
X134271223Y-86913251D01*
X134252862Y-86959368D01*
X134243875Y-86968057D01*
X134240913Y-86942267D01*
X134240859Y-86939967D01*
X134251329Y-86825566D01*
X134283969Y-86689786D01*
X134334258Y-86544105D01*
X134397675Y-86400002D01*
X134469698Y-86268958D01*
X134545808Y-86162451D01*
X134548143Y-86159714D01*
X134627370Y-86067377D01*
X134698462Y-86249203D01*
G37*
X134698462Y-86249203D02*
X134576990Y-86393875D01*
X134477272Y-86526956D01*
X134383290Y-86678345D01*
X134305379Y-86830482D01*
X134271223Y-86913251D01*
X134252862Y-86959368D01*
X134243875Y-86968057D01*
X134240913Y-86942267D01*
X134240859Y-86939967D01*
X134251329Y-86825566D01*
X134283969Y-86689786D01*
X134334258Y-86544105D01*
X134397675Y-86400002D01*
X134469698Y-86268958D01*
X134545808Y-86162451D01*
X134548143Y-86159714D01*
X134627370Y-86067377D01*
X134698462Y-86249203D01*
G36*
X135698968Y-86936108D02*
G01*
X135752561Y-86978101D01*
X135827305Y-87047636D01*
X136023399Y-87214471D01*
X136222640Y-87350598D01*
X136415314Y-87449976D01*
X136484049Y-87481978D01*
X136512598Y-87501984D01*
X136501406Y-87509885D01*
X136450919Y-87505568D01*
X136361580Y-87488924D01*
X136306929Y-87476954D01*
X136103787Y-87416589D01*
X135920772Y-87329546D01*
X135804479Y-87255152D01*
X135738989Y-87210006D01*
X135698030Y-87186449D01*
X135671563Y-87181638D01*
X135649547Y-87192730D01*
X135633357Y-87206682D01*
X135570022Y-87275719D01*
X135497766Y-87373887D01*
X135422968Y-87490843D01*
X135352008Y-87616246D01*
X135291265Y-87739754D01*
X135262940Y-87807190D01*
X135246672Y-87847872D01*
X135239452Y-87857728D01*
X135239889Y-87833081D01*
X135246589Y-87770258D01*
X135247129Y-87765467D01*
X135295475Y-87522073D01*
X135383594Y-87292661D01*
X135510521Y-87079703D01*
X135520019Y-87066588D01*
X135578268Y-86988039D01*
X135621234Y-86940497D01*
X135658330Y-86923380D01*
X135698968Y-86936108D01*
G37*
X135698968Y-86936108D02*
X135752561Y-86978101D01*
X135827305Y-87047636D01*
X136023399Y-87214471D01*
X136222640Y-87350598D01*
X136415314Y-87449976D01*
X136484049Y-87481978D01*
X136512598Y-87501984D01*
X136501406Y-87509885D01*
X136450919Y-87505568D01*
X136361580Y-87488924D01*
X136306929Y-87476954D01*
X136103787Y-87416589D01*
X135920772Y-87329546D01*
X135804479Y-87255152D01*
X135738989Y-87210006D01*
X135698030Y-87186449D01*
X135671563Y-87181638D01*
X135649547Y-87192730D01*
X135633357Y-87206682D01*
X135570022Y-87275719D01*
X135497766Y-87373887D01*
X135422968Y-87490843D01*
X135352008Y-87616246D01*
X135291265Y-87739754D01*
X135262940Y-87807190D01*
X135246672Y-87847872D01*
X135239452Y-87857728D01*
X135239889Y-87833081D01*
X135246589Y-87770258D01*
X135247129Y-87765467D01*
X135295475Y-87522073D01*
X135383594Y-87292661D01*
X135510521Y-87079703D01*
X135520019Y-87066588D01*
X135578268Y-86988039D01*
X135621234Y-86940497D01*
X135658330Y-86923380D01*
X135698968Y-86936108D01*
G36*
X137064408Y-84703438D02*
G01*
X137032601Y-84869512D01*
X136976292Y-85042453D01*
X136901480Y-85207627D01*
X136814164Y-85350402D01*
X136782086Y-85391980D01*
X136723139Y-85463244D01*
X136685104Y-85363648D01*
X136647068Y-85264053D01*
X136720588Y-85186552D01*
X136848562Y-85026308D01*
X136963654Y-84830119D01*
X137006908Y-84739231D01*
X137078156Y-84579884D01*
X137064408Y-84703438D01*
G37*
X137064408Y-84703438D02*
X137032601Y-84869512D01*
X136976292Y-85042453D01*
X136901480Y-85207627D01*
X136814164Y-85350402D01*
X136782086Y-85391980D01*
X136723139Y-85463244D01*
X136685104Y-85363648D01*
X136647068Y-85264053D01*
X136720588Y-85186552D01*
X136848562Y-85026308D01*
X136963654Y-84830119D01*
X137006908Y-84739231D01*
X137078156Y-84579884D01*
X137064408Y-84703438D01*
G36*
X135487591Y-86257843D02*
G01*
X135487834Y-86262634D01*
X135471562Y-86282987D01*
X135465418Y-86283800D01*
X135452776Y-86270833D01*
X135456084Y-86262634D01*
X135475104Y-86242441D01*
X135478499Y-86241467D01*
X135487591Y-86257843D01*
G37*
X135487591Y-86257843D02*
X135487834Y-86262634D01*
X135471562Y-86282987D01*
X135465418Y-86283800D01*
X135452776Y-86270833D01*
X135456084Y-86262634D01*
X135475104Y-86242441D01*
X135478499Y-86241467D01*
X135487591Y-86257843D01*
G36*
X134544823Y-84367596D02*
G01*
X134567084Y-84369970D01*
X134674154Y-84388194D01*
X134798207Y-84418969D01*
X134921496Y-84457166D01*
X135026274Y-84497658D01*
X135053661Y-84510597D01*
X135114159Y-84544544D01*
X135182020Y-84587723D01*
X135247677Y-84633326D01*
X135301563Y-84674545D01*
X135334111Y-84704573D01*
X135339452Y-84713978D01*
X135321723Y-84730148D01*
X135277661Y-84753516D01*
X135259407Y-84761546D01*
X135179578Y-84795042D01*
X135042664Y-84683220D01*
X134936121Y-84605996D01*
X134802948Y-84524354D01*
X134657006Y-84446236D01*
X134514167Y-84380424D01*
X134490219Y-84368350D01*
X134499140Y-84364330D01*
X134544823Y-84367596D01*
G37*
X134544823Y-84367596D02*
X134567084Y-84369970D01*
X134674154Y-84388194D01*
X134798207Y-84418969D01*
X134921496Y-84457166D01*
X135026274Y-84497658D01*
X135053661Y-84510597D01*
X135114159Y-84544544D01*
X135182020Y-84587723D01*
X135247677Y-84633326D01*
X135301563Y-84674545D01*
X135334111Y-84704573D01*
X135339452Y-84713978D01*
X135321723Y-84730148D01*
X135277661Y-84753516D01*
X135259407Y-84761546D01*
X135179578Y-84795042D01*
X135042664Y-84683220D01*
X134936121Y-84605996D01*
X134802948Y-84524354D01*
X134657006Y-84446236D01*
X134514167Y-84380424D01*
X134490219Y-84368350D01*
X134499140Y-84364330D01*
X134544823Y-84367596D01*
G36*
X135678009Y-85262509D02*
G01*
X135662981Y-85232911D01*
X135623990Y-85225467D01*
X135585527Y-85219597D01*
X135579535Y-85196070D01*
X135582663Y-85184457D01*
X135582308Y-85134982D01*
X135568215Y-85099085D01*
X135557144Y-85074573D01*
X135557490Y-85072364D01*
X135962372Y-85072364D01*
X135965201Y-85079108D01*
X135990898Y-85089595D01*
X135997641Y-85086766D01*
X136008128Y-85061069D01*
X136005300Y-85054326D01*
X135983796Y-85045550D01*
X136122834Y-85045550D01*
X136133417Y-85056134D01*
X136144000Y-85045550D01*
X136133417Y-85034967D01*
X136122834Y-85045550D01*
X135983796Y-85045550D01*
X135979603Y-85043839D01*
X135972859Y-85046667D01*
X135962372Y-85072364D01*
X135557490Y-85072364D01*
X135560963Y-85050209D01*
X135584577Y-85017952D01*
X135632891Y-84969758D01*
X135665856Y-84939011D01*
X135739160Y-84875455D01*
X135794363Y-84839034D01*
X135840421Y-84824325D01*
X135856954Y-84823300D01*
X135912906Y-84833896D01*
X135992757Y-84862132D01*
X136084844Y-84902684D01*
X136177501Y-84950227D01*
X136259067Y-84999433D01*
X136288673Y-85020418D01*
X136331217Y-85054166D01*
X136342420Y-85070961D01*
X136325246Y-85078655D01*
X136311497Y-85080884D01*
X136267911Y-85096485D01*
X136260124Y-85126822D01*
X136288487Y-85174176D01*
X136333161Y-85221714D01*
X136394661Y-85293580D01*
X136418854Y-85352868D01*
X136419167Y-85359324D01*
X136426944Y-85405339D01*
X136441191Y-85427080D01*
X136475739Y-85462978D01*
X136514680Y-85523943D01*
X136549633Y-85594683D01*
X136572215Y-85659906D01*
X136574335Y-85669967D01*
X136580562Y-85739957D01*
X136565385Y-85774560D01*
X136526283Y-85776278D01*
X136484018Y-85759587D01*
X136429154Y-85721202D01*
X136371380Y-85663234D01*
X136346883Y-85631893D01*
X136281584Y-85538989D01*
X136239250Y-85596832D01*
X136186224Y-85666929D01*
X136146676Y-85710268D01*
X136110486Y-85735240D01*
X136067532Y-85750233D01*
X136048750Y-85754739D01*
X135977435Y-85761697D01*
X135932031Y-85740657D01*
X135907644Y-85687135D01*
X135899999Y-85618495D01*
X135888596Y-85533382D01*
X135861100Y-85484801D01*
X135814509Y-85469023D01*
X135782321Y-85472428D01*
X135738536Y-85476660D01*
X135722319Y-85460313D01*
X135720667Y-85439779D01*
X135710127Y-85403267D01*
X135694209Y-85393181D01*
X135651617Y-85388067D01*
X135625941Y-85383771D01*
X135585629Y-85386831D01*
X135570669Y-85397763D01*
X135555880Y-85399268D01*
X135546581Y-85378911D01*
X135545633Y-85350154D01*
X135571670Y-85345577D01*
X135588229Y-85348270D01*
X135641736Y-85342129D01*
X135656633Y-85322565D01*
X135769109Y-85322565D01*
X135785694Y-85376487D01*
X135811648Y-85424982D01*
X135828845Y-85378493D01*
X135852991Y-85345708D01*
X135874834Y-85343054D01*
X135904567Y-85334034D01*
X135933176Y-85295076D01*
X135955848Y-85250077D01*
X135969019Y-85224463D01*
X135969049Y-85224409D01*
X135954916Y-85216744D01*
X135911972Y-85212879D01*
X135901858Y-85212767D01*
X135854863Y-85215939D01*
X135843558Y-85227743D01*
X135851180Y-85240284D01*
X135859865Y-85261490D01*
X135832147Y-85267774D01*
X135828428Y-85267800D01*
X135783590Y-85282682D01*
X135769109Y-85322565D01*
X135656633Y-85322565D01*
X135672328Y-85301954D01*
X135678009Y-85262509D01*
G37*
X135678009Y-85262509D02*
X135662981Y-85232911D01*
X135623990Y-85225467D01*
X135585527Y-85219597D01*
X135579535Y-85196070D01*
X135582663Y-85184457D01*
X135582308Y-85134982D01*
X135568215Y-85099085D01*
X135557144Y-85074573D01*
X135557490Y-85072364D01*
X135962372Y-85072364D01*
X135965201Y-85079108D01*
X135990898Y-85089595D01*
X135997641Y-85086766D01*
X136008128Y-85061069D01*
X136005300Y-85054326D01*
X135983796Y-85045550D01*
X136122834Y-85045550D01*
X136133417Y-85056134D01*
X136144000Y-85045550D01*
X136133417Y-85034967D01*
X136122834Y-85045550D01*
X135983796Y-85045550D01*
X135979603Y-85043839D01*
X135972859Y-85046667D01*
X135962372Y-85072364D01*
X135557490Y-85072364D01*
X135560963Y-85050209D01*
X135584577Y-85017952D01*
X135632891Y-84969758D01*
X135665856Y-84939011D01*
X135739160Y-84875455D01*
X135794363Y-84839034D01*
X135840421Y-84824325D01*
X135856954Y-84823300D01*
X135912906Y-84833896D01*
X135992757Y-84862132D01*
X136084844Y-84902684D01*
X136177501Y-84950227D01*
X136259067Y-84999433D01*
X136288673Y-85020418D01*
X136331217Y-85054166D01*
X136342420Y-85070961D01*
X136325246Y-85078655D01*
X136311497Y-85080884D01*
X136267911Y-85096485D01*
X136260124Y-85126822D01*
X136288487Y-85174176D01*
X136333161Y-85221714D01*
X136394661Y-85293580D01*
X136418854Y-85352868D01*
X136419167Y-85359324D01*
X136426944Y-85405339D01*
X136441191Y-85427080D01*
X136475739Y-85462978D01*
X136514680Y-85523943D01*
X136549633Y-85594683D01*
X136572215Y-85659906D01*
X136574335Y-85669967D01*
X136580562Y-85739957D01*
X136565385Y-85774560D01*
X136526283Y-85776278D01*
X136484018Y-85759587D01*
X136429154Y-85721202D01*
X136371380Y-85663234D01*
X136346883Y-85631893D01*
X136281584Y-85538989D01*
X136239250Y-85596832D01*
X136186224Y-85666929D01*
X136146676Y-85710268D01*
X136110486Y-85735240D01*
X136067532Y-85750233D01*
X136048750Y-85754739D01*
X135977435Y-85761697D01*
X135932031Y-85740657D01*
X135907644Y-85687135D01*
X135899999Y-85618495D01*
X135888596Y-85533382D01*
X135861100Y-85484801D01*
X135814509Y-85469023D01*
X135782321Y-85472428D01*
X135738536Y-85476660D01*
X135722319Y-85460313D01*
X135720667Y-85439779D01*
X135710127Y-85403267D01*
X135694209Y-85393181D01*
X135651617Y-85388067D01*
X135625941Y-85383771D01*
X135585629Y-85386831D01*
X135570669Y-85397763D01*
X135555880Y-85399268D01*
X135546581Y-85378911D01*
X135545633Y-85350154D01*
X135571670Y-85345577D01*
X135588229Y-85348270D01*
X135641736Y-85342129D01*
X135656633Y-85322565D01*
X135769109Y-85322565D01*
X135785694Y-85376487D01*
X135811648Y-85424982D01*
X135828845Y-85378493D01*
X135852991Y-85345708D01*
X135874834Y-85343054D01*
X135904567Y-85334034D01*
X135933176Y-85295076D01*
X135955848Y-85250077D01*
X135969019Y-85224463D01*
X135969049Y-85224409D01*
X135954916Y-85216744D01*
X135911972Y-85212879D01*
X135901858Y-85212767D01*
X135854863Y-85215939D01*
X135843558Y-85227743D01*
X135851180Y-85240284D01*
X135859865Y-85261490D01*
X135832147Y-85267774D01*
X135828428Y-85267800D01*
X135783590Y-85282682D01*
X135769109Y-85322565D01*
X135656633Y-85322565D01*
X135672328Y-85301954D01*
X135678009Y-85262509D01*
G36*
X134801899Y-85703460D02*
G01*
X134796742Y-85733467D01*
X134792668Y-85778971D01*
X134807563Y-85793708D01*
X134845477Y-85778115D01*
X134895167Y-85744050D01*
X134955267Y-85705206D01*
X134994771Y-85690674D01*
X135009236Y-85700920D01*
X134996088Y-85733467D01*
X134961620Y-85766903D01*
X134934673Y-85775800D01*
X134898899Y-85789612D01*
X134889966Y-85802259D01*
X134888478Y-85850433D01*
X134919323Y-85878523D01*
X134940464Y-85881634D01*
X134968321Y-85884860D01*
X134966702Y-85902178D01*
X134949284Y-85928677D01*
X134924793Y-85977348D01*
X134916867Y-86021943D01*
X134927047Y-86048504D01*
X134935785Y-86050967D01*
X134972339Y-86040017D01*
X135019716Y-86013921D01*
X135062391Y-85982805D01*
X135084837Y-85956801D01*
X135085533Y-85953280D01*
X135073488Y-85921729D01*
X135044003Y-85876765D01*
X135040920Y-85872790D01*
X135014341Y-85831372D01*
X135008022Y-85804656D01*
X135009170Y-85802908D01*
X135046368Y-85790874D01*
X135107242Y-85794355D01*
X135176799Y-85811642D01*
X135212667Y-85826103D01*
X135250536Y-85845478D01*
X135258116Y-85852809D01*
X135251460Y-85851531D01*
X135215418Y-85858816D01*
X135203835Y-85874118D01*
X135192398Y-85922772D01*
X135208488Y-85943474D01*
X135222796Y-85945134D01*
X135242577Y-85952171D01*
X135237572Y-85980492D01*
X135230498Y-85996918D01*
X135219070Y-86039157D01*
X135227408Y-86086703D01*
X135249019Y-86138187D01*
X135273661Y-86195381D01*
X135279540Y-86232778D01*
X135267625Y-86268038D01*
X135257192Y-86287080D01*
X135235907Y-86338658D01*
X135243250Y-86378049D01*
X135246686Y-86383936D01*
X135280175Y-86418121D01*
X135314748Y-86428243D01*
X135337112Y-86412358D01*
X135339667Y-86397536D01*
X135345705Y-86373308D01*
X135363413Y-86383746D01*
X135402131Y-86398744D01*
X135421621Y-86396311D01*
X135428153Y-86398816D01*
X135403872Y-86418327D01*
X135386780Y-86429715D01*
X135329861Y-86462786D01*
X135290316Y-86471923D01*
X135251983Y-86459031D01*
X135232900Y-86447842D01*
X135192366Y-86433155D01*
X135174979Y-86443916D01*
X135146293Y-86449491D01*
X135088521Y-86425309D01*
X135075084Y-86417806D01*
X135016817Y-86388192D01*
X134969533Y-86370749D01*
X134957335Y-86368815D01*
X134914017Y-86351775D01*
X134868122Y-86310736D01*
X134831301Y-86259613D01*
X134815206Y-86212323D01*
X134816308Y-86200377D01*
X134816448Y-86159716D01*
X134805634Y-86143209D01*
X134803518Y-86122521D01*
X134832381Y-86092762D01*
X134862469Y-86067244D01*
X134869971Y-86043186D01*
X134856559Y-86004430D01*
X134844244Y-85978095D01*
X134813929Y-85925887D01*
X134784402Y-85892685D01*
X134777956Y-85888983D01*
X134743178Y-85855688D01*
X134736124Y-85799878D01*
X134757036Y-85734525D01*
X134786195Y-85684433D01*
X134801206Y-85674077D01*
X134801899Y-85703460D01*
G37*
X134801899Y-85703460D02*
X134796742Y-85733467D01*
X134792668Y-85778971D01*
X134807563Y-85793708D01*
X134845477Y-85778115D01*
X134895167Y-85744050D01*
X134955267Y-85705206D01*
X134994771Y-85690674D01*
X135009236Y-85700920D01*
X134996088Y-85733467D01*
X134961620Y-85766903D01*
X134934673Y-85775800D01*
X134898899Y-85789612D01*
X134889966Y-85802259D01*
X134888478Y-85850433D01*
X134919323Y-85878523D01*
X134940464Y-85881634D01*
X134968321Y-85884860D01*
X134966702Y-85902178D01*
X134949284Y-85928677D01*
X134924793Y-85977348D01*
X134916867Y-86021943D01*
X134927047Y-86048504D01*
X134935785Y-86050967D01*
X134972339Y-86040017D01*
X135019716Y-86013921D01*
X135062391Y-85982805D01*
X135084837Y-85956801D01*
X135085533Y-85953280D01*
X135073488Y-85921729D01*
X135044003Y-85876765D01*
X135040920Y-85872790D01*
X135014341Y-85831372D01*
X135008022Y-85804656D01*
X135009170Y-85802908D01*
X135046368Y-85790874D01*
X135107242Y-85794355D01*
X135176799Y-85811642D01*
X135212667Y-85826103D01*
X135250536Y-85845478D01*
X135258116Y-85852809D01*
X135251460Y-85851531D01*
X135215418Y-85858816D01*
X135203835Y-85874118D01*
X135192398Y-85922772D01*
X135208488Y-85943474D01*
X135222796Y-85945134D01*
X135242577Y-85952171D01*
X135237572Y-85980492D01*
X135230498Y-85996918D01*
X135219070Y-86039157D01*
X135227408Y-86086703D01*
X135249019Y-86138187D01*
X135273661Y-86195381D01*
X135279540Y-86232778D01*
X135267625Y-86268038D01*
X135257192Y-86287080D01*
X135235907Y-86338658D01*
X135243250Y-86378049D01*
X135246686Y-86383936D01*
X135280175Y-86418121D01*
X135314748Y-86428243D01*
X135337112Y-86412358D01*
X135339667Y-86397536D01*
X135345705Y-86373308D01*
X135363413Y-86383746D01*
X135402131Y-86398744D01*
X135421621Y-86396311D01*
X135428153Y-86398816D01*
X135403872Y-86418327D01*
X135386780Y-86429715D01*
X135329861Y-86462786D01*
X135290316Y-86471923D01*
X135251983Y-86459031D01*
X135232900Y-86447842D01*
X135192366Y-86433155D01*
X135174979Y-86443916D01*
X135146293Y-86449491D01*
X135088521Y-86425309D01*
X135075084Y-86417806D01*
X135016817Y-86388192D01*
X134969533Y-86370749D01*
X134957335Y-86368815D01*
X134914017Y-86351775D01*
X134868122Y-86310736D01*
X134831301Y-86259613D01*
X134815206Y-86212323D01*
X134816308Y-86200377D01*
X134816448Y-86159716D01*
X134805634Y-86143209D01*
X134803518Y-86122521D01*
X134832381Y-86092762D01*
X134862469Y-86067244D01*
X134869971Y-86043186D01*
X134856559Y-86004430D01*
X134844244Y-85978095D01*
X134813929Y-85925887D01*
X134784402Y-85892685D01*
X134777956Y-85888983D01*
X134743178Y-85855688D01*
X134736124Y-85799878D01*
X134757036Y-85734525D01*
X134786195Y-85684433D01*
X134801206Y-85674077D01*
X134801899Y-85703460D01*
D10*
X140271400Y-88836600D02*
X139796400Y-88836600D01*
X131051400Y-97581600D02*
X131051400Y-98056600D01*
X131051400Y-88836600D02*
X131526400Y-88836600D01*
X131051400Y-89311600D02*
X131051400Y-88836600D01*
X140271400Y-89311600D02*
X140271400Y-88836600D01*
X140271400Y-98056600D02*
X139796400Y-98056600D01*
X140271400Y-97581600D02*
X140271400Y-98056600D01*
X139958400Y-86213836D02*
X139958400Y-85998164D01*
X139238400Y-86213836D02*
X139238400Y-85998164D01*
M02*
