G04 #@! TF.GenerationSoftware,KiCad,Pcbnew,(6.0.8)*
G04 #@! TF.CreationDate,2022-11-18T12:49:19-08:00*
G04 #@! TF.ProjectId,caravel_breakout_QFN,63617261-7665-46c5-9f62-7265616b6f75,rev?*
G04 #@! TF.SameCoordinates,Original*
G04 #@! TF.FileFunction,Paste,Bot*
G04 #@! TF.FilePolarity,Positive*
%FSLAX46Y46*%
G04 Gerber Fmt 4.6, Leading zero omitted, Abs format (unit mm)*
G04 Created by KiCad (PCBNEW (6.0.8)) date 2022-11-18 12:49:19*
%MOMM*%
%LPD*%
G01*
G04 APERTURE LIST*
G04 Aperture macros list*
%AMRoundRect*
0 Rectangle with rounded corners*
0 $1 Rounding radius*
0 $2 $3 $4 $5 $6 $7 $8 $9 X,Y pos of 4 corners*
0 Add a 4 corners polygon primitive as box body*
4,1,4,$2,$3,$4,$5,$6,$7,$8,$9,$2,$3,0*
0 Add four circle primitives for the rounded corners*
1,1,$1+$1,$2,$3*
1,1,$1+$1,$4,$5*
1,1,$1+$1,$6,$7*
1,1,$1+$1,$8,$9*
0 Add four rect primitives between the rounded corners*
20,1,$1+$1,$2,$3,$4,$5,0*
20,1,$1+$1,$4,$5,$6,$7,0*
20,1,$1+$1,$6,$7,$8,$9,0*
20,1,$1+$1,$8,$9,$2,$3,0*%
G04 Aperture macros list end*
%ADD10RoundRect,0.250000X-0.250000X0.625000X-0.250000X-0.625000X0.250000X-0.625000X0.250000X0.625000X0*%
%ADD11RoundRect,0.250000X-0.625000X-0.250000X0.625000X-0.250000X0.625000X0.250000X-0.625000X0.250000X0*%
%ADD12RoundRect,0.250000X0.250000X-0.625000X0.250000X0.625000X-0.250000X0.625000X-0.250000X-0.625000X0*%
%ADD13RoundRect,0.250000X0.625000X0.250000X-0.625000X0.250000X-0.625000X-0.250000X0.625000X-0.250000X0*%
G04 APERTURE END LIST*
D10*
X127381000Y-82052000D03*
X128651000Y-82052000D03*
X129921000Y-82052000D03*
X131191000Y-82052000D03*
X132461000Y-82052000D03*
X133731000Y-82052000D03*
X135001000Y-82052000D03*
X136271000Y-82052000D03*
X137541000Y-82052000D03*
X138811000Y-82052000D03*
X140081000Y-82052000D03*
X141351000Y-82052000D03*
X142621000Y-82052000D03*
X143891000Y-82052000D03*
D11*
X124200000Y-101730000D03*
X124200000Y-100460000D03*
X124200000Y-99190000D03*
X124200000Y-97920000D03*
X124200000Y-96650000D03*
X124200000Y-95380000D03*
X124200000Y-94110000D03*
X124200000Y-92840000D03*
X124200000Y-91570000D03*
X124200000Y-90300000D03*
X124200000Y-89030000D03*
X124200000Y-87760000D03*
X124200000Y-86490000D03*
X124200000Y-85220000D03*
D12*
X143880000Y-104900000D03*
X142610000Y-104900000D03*
X141340000Y-104900000D03*
X140070000Y-104900000D03*
X138800000Y-104900000D03*
X137530000Y-104900000D03*
X136260000Y-104900000D03*
X134990000Y-104900000D03*
X133720000Y-104900000D03*
X132450000Y-104900000D03*
X131180000Y-104900000D03*
X129910000Y-104900000D03*
X128640000Y-104900000D03*
X127370000Y-104900000D03*
D13*
X147056000Y-85178600D03*
X147056000Y-86448600D03*
X147056000Y-87718600D03*
X147056000Y-88988600D03*
X147056000Y-90258600D03*
X147056000Y-91528600D03*
X147056000Y-92798600D03*
X147056000Y-94068600D03*
X147056000Y-95338600D03*
X147056000Y-96608600D03*
X147056000Y-97878600D03*
X147056000Y-99148600D03*
X147056000Y-100418600D03*
X147056000Y-101688600D03*
M02*
