G04 #@! TF.GenerationSoftware,KiCad,Pcbnew,(5.1.10-1-10_14)*
G04 #@! TF.CreationDate,2021-09-07T14:18:03-07:00*
G04 #@! TF.ProjectId,Caravel_pcb,43617261-7665-46c5-9f70-63622e6b6963,rev?*
G04 #@! TF.SameCoordinates,Original*
G04 #@! TF.FileFunction,Copper,L2,Bot*
G04 #@! TF.FilePolarity,Positive*
%FSLAX46Y46*%
G04 Gerber Fmt 4.6, Leading zero omitted, Abs format (unit mm)*
G04 Created by KiCad (PCBNEW (5.1.10-1-10_14)) date 2021-09-07 14:18:03*
%MOMM*%
%LPD*%
G01*
G04 APERTURE LIST*
G04 #@! TA.AperFunction,ComponentPad*
%ADD10O,1.700000X1.700000*%
G04 #@! TD*
G04 #@! TA.AperFunction,ComponentPad*
%ADD11R,1.700000X1.700000*%
G04 #@! TD*
G04 #@! TA.AperFunction,ComponentPad*
%ADD12O,0.900000X1.800000*%
G04 #@! TD*
G04 #@! TA.AperFunction,ViaPad*
%ADD13C,0.800000*%
G04 #@! TD*
G04 #@! TA.AperFunction,Conductor*
%ADD14C,0.250000*%
G04 #@! TD*
G04 #@! TA.AperFunction,Conductor*
%ADD15C,0.254000*%
G04 #@! TD*
G04 #@! TA.AperFunction,Conductor*
%ADD16C,0.100000*%
G04 #@! TD*
G04 APERTURE END LIST*
D10*
X118364000Y-123952000D03*
X120904000Y-123952000D03*
X123444000Y-123952000D03*
X125984000Y-123952000D03*
X128524000Y-123952000D03*
X131064000Y-123952000D03*
X133604000Y-123952000D03*
X136144000Y-123952000D03*
X138684000Y-123952000D03*
X141224000Y-123952000D03*
X143764000Y-123952000D03*
X146304000Y-123952000D03*
X148844000Y-123952000D03*
D11*
X151384000Y-123952000D03*
D10*
X160477200Y-124358400D03*
X160477200Y-121818400D03*
X160477200Y-119278400D03*
X160477200Y-116738400D03*
X160477200Y-114198400D03*
X160477200Y-111658400D03*
X160477200Y-109118400D03*
X160477200Y-106578400D03*
X160477200Y-104038400D03*
X160477200Y-101498400D03*
X160477200Y-98958400D03*
X160477200Y-96418400D03*
X160477200Y-93878400D03*
X160477200Y-91338400D03*
X160477200Y-88798400D03*
X160477200Y-86258400D03*
X160477200Y-83718400D03*
X160477200Y-81178400D03*
X160477200Y-78638400D03*
D11*
X160477200Y-76098400D03*
D10*
X109728000Y-124307600D03*
X109728000Y-121767600D03*
X109728000Y-119227600D03*
X109728000Y-116687600D03*
X109728000Y-114147600D03*
X109728000Y-111607600D03*
X109728000Y-109067600D03*
X109728000Y-106527600D03*
X109728000Y-103987600D03*
X109728000Y-101447600D03*
X109728000Y-98907600D03*
X109728000Y-96367600D03*
X109728000Y-93827600D03*
X109728000Y-91287600D03*
X109728000Y-88747600D03*
X109728000Y-86207600D03*
X109728000Y-83667600D03*
X109728000Y-81127600D03*
X109728000Y-78587600D03*
D11*
X109728000Y-76047600D03*
D10*
X121539000Y-104521000D03*
D11*
X124079000Y-104521000D03*
X137795000Y-100711000D03*
D10*
X140335000Y-100711000D03*
X143510000Y-88646000D03*
D11*
X143510000Y-86106000D03*
D10*
X139700000Y-88646000D03*
D11*
X139700000Y-86106000D03*
D10*
X149987000Y-85852000D03*
D11*
X147447000Y-85852000D03*
D10*
X116332000Y-81026000D03*
D11*
X116332000Y-83566000D03*
D12*
X132082000Y-75733935D03*
X138682000Y-75733935D03*
D13*
X145846800Y-119786400D03*
X149758400Y-116840000D03*
X146100800Y-110896400D03*
X130911600Y-102565200D03*
X127544990Y-102463600D03*
X122224800Y-108407200D03*
X122144915Y-112862614D03*
X122144915Y-112862614D03*
X136448800Y-81534000D03*
X134632389Y-83426485D03*
X127966929Y-88796671D03*
X121069100Y-86652100D03*
X125831600Y-85547200D03*
X127101600Y-81991200D03*
X129692400Y-76149200D03*
X153212800Y-99669600D03*
X144475200Y-95707200D03*
X143865600Y-83972400D03*
X128930400Y-93014800D03*
X130606800Y-92456000D03*
X121056400Y-102620987D03*
X127152400Y-97497976D03*
X153314400Y-107594400D03*
X154273438Y-111201117D03*
X116942800Y-96963300D03*
X117805200Y-119608600D03*
X133807200Y-98552000D03*
X138210767Y-107430113D03*
X123444000Y-99466400D03*
X124784424Y-98207905D03*
X118262400Y-96824800D03*
X116992400Y-99466400D03*
X124510800Y-107543600D03*
X135432800Y-101549200D03*
X142539249Y-104630786D03*
X145063820Y-101874979D03*
X147878800Y-119801934D03*
X156210000Y-115976400D03*
X153563721Y-121772541D03*
X140651390Y-119787684D03*
X131906860Y-118800460D03*
X130048000Y-119519700D03*
X130035800Y-116649000D03*
X142128198Y-113156198D03*
X156995100Y-121920000D03*
X155539302Y-117514079D03*
X116332000Y-118821200D03*
X131927600Y-106832400D03*
X122034300Y-118122700D03*
X132435600Y-81178400D03*
X125421382Y-93766393D03*
X133367047Y-80087166D03*
X125761870Y-94707926D03*
X128625600Y-83058000D03*
X128906807Y-89172989D03*
X129322898Y-83916108D03*
X129891266Y-88997302D03*
X124892559Y-109056395D03*
X132265882Y-103547285D03*
X150926800Y-94030800D03*
X126435774Y-109687796D03*
X125167990Y-100796520D03*
X125528721Y-105389375D03*
X125708526Y-107783790D03*
X132943600Y-104917987D03*
X127936346Y-111076780D03*
X126869122Y-111132767D03*
X153198990Y-92236972D03*
X119329200Y-104241600D03*
X125780796Y-101676370D03*
X126466100Y-104212251D03*
X121786187Y-109926919D03*
X116782287Y-110848006D03*
X117183589Y-98249891D03*
X118973600Y-111810800D03*
X149860000Y-98094800D03*
X129231727Y-111542990D03*
X132791200Y-105918000D03*
X127210177Y-101156646D03*
X121296590Y-107781097D03*
X117144800Y-112471200D03*
X146405600Y-101701600D03*
X135618111Y-106853183D03*
X117514210Y-109437010D03*
X128942671Y-100769640D03*
X118468384Y-107050041D03*
X119583200Y-100685600D03*
X130734035Y-97504957D03*
X119693917Y-102615567D03*
X115265200Y-97586800D03*
X128320800Y-103225600D03*
X126796800Y-105156000D03*
X130392682Y-100796705D03*
X118014989Y-91296587D03*
X137319324Y-107886335D03*
X139660778Y-107186947D03*
X149872700Y-108419900D03*
X150455717Y-112018596D03*
D14*
X150019001Y-122776999D02*
X155034999Y-122776999D01*
X148844000Y-123952000D02*
X150019001Y-122776999D01*
X156616400Y-124358400D02*
X160477200Y-124358400D01*
X155034999Y-122776999D02*
X156616400Y-124358400D01*
X145846800Y-120954800D02*
X145846800Y-119786400D01*
X148844000Y-123952000D02*
X145846800Y-120954800D01*
X146412485Y-119786400D02*
X149409685Y-116789200D01*
X145846800Y-119786400D02*
X146412485Y-119786400D01*
X149409685Y-116789200D02*
X149707600Y-116789200D01*
X149707600Y-116789200D02*
X149758400Y-116840000D01*
X149758400Y-116840000D02*
X149758400Y-115671600D01*
X149758400Y-115671600D02*
X149758400Y-114554000D01*
X149758400Y-114554000D02*
X146100800Y-110896400D01*
X130345915Y-102565200D02*
X130244315Y-102463600D01*
X124079000Y-104521000D02*
X124079000Y-100812506D01*
X124079000Y-100812506D02*
X124819988Y-100071518D01*
X124819988Y-100071518D02*
X125623918Y-100071518D01*
X125623918Y-100071518D02*
X126485176Y-100932776D01*
X126485176Y-100932776D02*
X126485176Y-101498461D01*
X127144991Y-102063601D02*
X127544990Y-102463600D01*
X130244315Y-102463600D02*
X127544990Y-102463600D01*
X126485176Y-101498461D02*
X127050316Y-102063601D01*
X127050316Y-102063601D02*
X127144991Y-102063601D01*
X130911600Y-102565200D02*
X130345915Y-102565200D01*
X124079000Y-105621000D02*
X122021591Y-107678409D01*
X124079000Y-104521000D02*
X124079000Y-105621000D01*
X122021591Y-107678409D02*
X122021591Y-108203991D01*
X122021591Y-108203991D02*
X122224800Y-108407200D01*
X122144915Y-110593510D02*
X122580400Y-110158025D01*
X122144915Y-112862614D02*
X122144915Y-110593510D01*
X122224800Y-108972885D02*
X122224800Y-108407200D01*
X122580400Y-109328485D02*
X122224800Y-108972885D01*
X122580400Y-110158025D02*
X122580400Y-109328485D01*
X134632389Y-83350411D02*
X134632389Y-83426485D01*
X136448800Y-81534000D02*
X134632389Y-83350411D01*
X127966929Y-88796671D02*
X125822358Y-86652100D01*
X125822358Y-86652100D02*
X121069100Y-86652100D01*
X124726700Y-86652100D02*
X121069100Y-86652100D01*
X125831600Y-85547200D02*
X124726700Y-86652100D01*
X125831600Y-85547200D02*
X125831600Y-83261200D01*
X125831600Y-83261200D02*
X127101600Y-81991200D01*
X136448800Y-81534000D02*
X136048801Y-81134001D01*
X136048801Y-81134001D02*
X135439201Y-81134001D01*
X135439201Y-81134001D02*
X130454400Y-76149200D01*
X130454400Y-76149200D02*
X129692400Y-76149200D01*
X153314400Y-99771200D02*
X153212800Y-99669600D01*
X153212800Y-99103915D02*
X153924000Y-98392715D01*
X153212800Y-99669600D02*
X153212800Y-99103915D01*
X153924000Y-98392715D02*
X153924000Y-91440000D01*
X153924000Y-91440000D02*
X153771600Y-91287600D01*
X148894800Y-91287600D02*
X144475200Y-95707200D01*
X153771600Y-91287600D02*
X148894800Y-91287600D01*
X144075201Y-95307201D02*
X144075201Y-95205601D01*
X144475200Y-95707200D02*
X144075201Y-95307201D01*
X144075201Y-95205601D02*
X141833600Y-92964000D01*
X143358598Y-83972400D02*
X143865600Y-83972400D01*
X141833600Y-92964000D02*
X141833600Y-85497398D01*
X141833600Y-85497398D02*
X143358598Y-83972400D01*
X109728000Y-124307600D02*
X115011200Y-119024400D01*
X115011200Y-99110800D02*
X116382800Y-97739200D01*
X128930400Y-93014800D02*
X130048000Y-93014800D01*
X130048000Y-93014800D02*
X130606800Y-92456000D01*
X118618000Y-108770014D02*
X118618000Y-108516604D01*
X122144915Y-112862614D02*
X122144915Y-112296929D01*
X122144915Y-112296929D02*
X118618000Y-108770014D01*
X118618000Y-108516604D02*
X118668791Y-108465813D01*
X118668791Y-108465813D02*
X118219413Y-108465813D01*
X118219413Y-108465813D02*
X118211600Y-108458000D01*
X118211600Y-108458000D02*
X117246400Y-108458000D01*
X117246400Y-108458000D02*
X116789200Y-108915200D01*
X116789200Y-108915200D02*
X116789200Y-109829600D01*
X116789200Y-109829600D02*
X117652800Y-110693200D01*
X117652800Y-110693200D02*
X117652800Y-111099600D01*
X117652800Y-111099600D02*
X117094000Y-111658400D01*
X115112800Y-111658400D02*
X115011200Y-111556800D01*
X117094000Y-111658400D02*
X115112800Y-111658400D01*
X115011200Y-119024400D02*
X115011200Y-111556800D01*
X115011200Y-111556800D02*
X115011200Y-99110800D01*
X121456399Y-102220988D02*
X121456399Y-99422001D01*
X121056400Y-102620987D02*
X121456399Y-102220988D01*
X121456399Y-99422001D02*
X123545600Y-97332800D01*
X123545600Y-97332800D02*
X126987224Y-97332800D01*
X126987224Y-97332800D02*
X127152400Y-97497976D01*
X153314400Y-107594400D02*
X153314400Y-99771200D01*
X153873439Y-110801118D02*
X154273438Y-111201117D01*
X153314400Y-107594400D02*
X153314400Y-110242079D01*
X153314400Y-110242079D02*
X153873439Y-110801118D01*
X116382800Y-97523300D02*
X116942800Y-96963300D01*
X116382800Y-97739200D02*
X116382800Y-97523300D01*
X154273438Y-112324962D02*
X149758400Y-116840000D01*
X154273438Y-111201117D02*
X154273438Y-112324962D01*
X113988788Y-124307600D02*
X109728000Y-124307600D01*
X118205199Y-120091189D02*
X113988788Y-124307600D01*
X118205199Y-120008599D02*
X118205199Y-120091189D01*
X117805200Y-119608600D02*
X118205199Y-120008599D01*
X136144000Y-123952000D02*
X136144000Y-122749919D01*
X136144000Y-122147190D02*
X139890191Y-118400999D01*
X140093391Y-118400999D02*
X140123199Y-118371191D01*
X136144000Y-122655190D02*
X136144000Y-122553590D01*
X136144000Y-122248790D02*
X136144000Y-122147190D01*
X136144000Y-122451990D02*
X136144000Y-122350390D01*
X136144000Y-122350390D02*
X136144000Y-122248790D01*
X136144000Y-122749919D02*
X136144000Y-122655190D01*
X139890191Y-118400999D02*
X140093391Y-118400999D01*
X136144000Y-122553590D02*
X136144000Y-122451990D01*
X140496001Y-118371191D02*
X140648403Y-118218789D01*
X140648403Y-118218789D02*
X141461200Y-118218789D01*
X141461200Y-118218789D02*
X141826411Y-118584000D01*
X141826411Y-118584000D02*
X141826411Y-122815409D01*
X151308999Y-125127001D02*
X151384000Y-125052000D01*
X151384000Y-125052000D02*
X151384000Y-123952000D01*
X143010001Y-125127001D02*
X151308999Y-125127001D01*
X142399001Y-124516001D02*
X143010001Y-125127001D01*
X142399001Y-123387999D02*
X142399001Y-124516001D01*
X141826411Y-122815409D02*
X142399001Y-123387999D01*
X144272000Y-114621919D02*
X144272000Y-112623600D01*
X136144000Y-122147190D02*
X139919999Y-118371191D01*
X138210767Y-107995798D02*
X138210767Y-107430113D01*
X141173200Y-109524800D02*
X139739769Y-109524800D01*
X144272000Y-112623600D02*
X141173200Y-109524800D01*
X139739769Y-109524800D02*
X138210767Y-107995798D01*
X140522728Y-118371191D02*
X144272000Y-114621919D01*
X139919999Y-118371191D02*
X140522728Y-118371191D01*
X127767582Y-95422945D02*
X127754802Y-95410165D01*
X116179600Y-85242400D02*
X116332000Y-85090000D01*
X126109872Y-95432928D02*
X125388838Y-95432928D01*
X126132635Y-95410165D02*
X126109872Y-95432928D01*
X131243830Y-95422945D02*
X127767582Y-95422945D01*
X116179600Y-86223690D02*
X116179600Y-85242400D01*
X133807200Y-98552000D02*
X133807200Y-97986315D01*
X133807200Y-97986315D02*
X131243830Y-95422945D01*
X116332000Y-84666000D02*
X116332000Y-83566000D01*
X116332000Y-85090000D02*
X116332000Y-84666000D01*
X125388838Y-95432928D02*
X116179600Y-86223690D01*
X127754802Y-95410165D02*
X126132635Y-95410165D01*
X124702495Y-98207905D02*
X124784424Y-98207905D01*
X123444000Y-99466400D02*
X124702495Y-98207905D01*
X155041600Y-91897200D02*
X153771600Y-90627200D01*
X153771600Y-90627200D02*
X147066000Y-90627200D01*
X144610000Y-86106000D02*
X143510000Y-86106000D01*
X147066000Y-88562000D02*
X144610000Y-86106000D01*
X147066000Y-90627200D02*
X147066000Y-88562000D01*
X118262400Y-96824800D02*
X118262400Y-98196400D01*
X118262400Y-98196400D02*
X116992400Y-99466400D01*
X124910799Y-108051878D02*
X125367712Y-108508791D01*
X124910799Y-107943599D02*
X124910799Y-108051878D01*
X125367712Y-108508791D02*
X126055977Y-108508791D01*
X126055977Y-108508791D02*
X132615569Y-101949199D01*
X135032801Y-101949199D02*
X135432800Y-101549200D01*
X132615569Y-101949199D02*
X135032801Y-101949199D01*
X124510800Y-107543600D02*
X124910799Y-107943599D01*
X145063820Y-102106215D02*
X145063820Y-101874979D01*
X142539249Y-104630786D02*
X145063820Y-102106215D01*
X155276015Y-115608100D02*
X155041600Y-115608100D01*
X155644315Y-115976400D02*
X155276015Y-115608100D01*
X156210000Y-115976400D02*
X155644315Y-115976400D01*
X155041600Y-115608100D02*
X155041600Y-91897200D01*
X151593114Y-119801934D02*
X153163722Y-121372542D01*
X153563721Y-121206856D02*
X153563721Y-121772541D01*
X153563721Y-117085979D02*
X153563721Y-121206856D01*
X155041600Y-115608100D02*
X153563721Y-117085979D01*
X153163722Y-121372542D02*
X153563721Y-121772541D01*
X147878800Y-119801934D02*
X151593114Y-119801934D01*
X140251391Y-120187683D02*
X140651390Y-119787684D01*
X138684000Y-121755074D02*
X140251391Y-120187683D01*
X138684000Y-123952000D02*
X138684000Y-121755074D01*
X131064000Y-119643320D02*
X131449660Y-119257660D01*
X131064000Y-123952000D02*
X131064000Y-119643320D01*
X131449660Y-119257660D02*
X131906860Y-118800460D01*
X130737305Y-119643320D02*
X131064000Y-119643320D01*
X130613685Y-119519700D02*
X130737305Y-119643320D01*
X130048000Y-119519700D02*
X130613685Y-119519700D01*
X129590800Y-117094000D02*
X130035800Y-116649000D01*
X127762000Y-117094000D02*
X129590800Y-117094000D01*
X120904000Y-123952000D02*
X127762000Y-117094000D01*
X128772898Y-118794698D02*
X129617302Y-118794698D01*
X129617302Y-118794698D02*
X135255802Y-113156198D01*
X128524000Y-123952000D02*
X127674001Y-123102001D01*
X127674001Y-123102001D02*
X127674001Y-119893595D01*
X141562513Y-113156198D02*
X142128198Y-113156198D01*
X127674001Y-119893595D02*
X128772898Y-118794698D01*
X135255802Y-113156198D02*
X141562513Y-113156198D01*
X156995100Y-118969877D02*
X155939301Y-117914078D01*
X155939301Y-117914078D02*
X155539302Y-117514079D01*
X156995100Y-121920000D02*
X156995100Y-118969877D01*
X128012899Y-112268000D02*
X129573520Y-112268000D01*
X131927600Y-107398085D02*
X130352800Y-108972885D01*
X131927600Y-106832400D02*
X131927600Y-107398085D01*
X130352800Y-111488720D02*
X129573520Y-112268000D01*
X130352800Y-108972885D02*
X130352800Y-111488720D01*
X128012899Y-112268000D02*
X127558800Y-112268000D01*
X122034300Y-117792500D02*
X122034300Y-118122700D01*
X127558800Y-112268000D02*
X122034300Y-117792500D01*
X116332000Y-118821200D02*
X118090802Y-118821200D01*
X141376400Y-119363930D02*
X141376400Y-122597519D01*
X141376400Y-122597519D02*
X141224000Y-122749919D01*
X140999391Y-119062683D02*
X141300638Y-119363930D01*
X141224000Y-122749919D02*
X141224000Y-123952000D01*
X137476602Y-121889468D02*
X140303387Y-119062683D01*
X137476602Y-124358400D02*
X137476602Y-121889468D01*
X136708001Y-125127001D02*
X137476602Y-124358400D01*
X117799999Y-125127001D02*
X136708001Y-125127001D01*
X117188999Y-124516001D02*
X117799999Y-125127001D01*
X117188999Y-123387999D02*
X117188999Y-124516001D01*
X118922800Y-121654198D02*
X117188999Y-123387999D01*
X118922800Y-119973364D02*
X118922800Y-121654198D01*
X118530201Y-119580765D02*
X118922800Y-119973364D01*
X118530201Y-119260599D02*
X118530201Y-119580765D01*
X118090802Y-118821200D02*
X118530201Y-119260599D01*
X140303387Y-119062683D02*
X140999391Y-119062683D01*
X141300638Y-119363930D02*
X141376400Y-119363930D01*
X132435600Y-81178400D02*
X132435600Y-87497822D01*
X125987067Y-93766393D02*
X125421382Y-93766393D01*
X132435600Y-87497822D02*
X126167029Y-93766393D01*
X126167029Y-93766393D02*
X125987067Y-93766393D01*
X126333667Y-94307927D02*
X126161869Y-94307927D01*
X133367047Y-80087166D02*
X133367047Y-87274547D01*
X133367047Y-87274547D02*
X126333667Y-94307927D01*
X126161869Y-94307927D02*
X125761870Y-94707926D01*
X128225601Y-87971799D02*
X128906807Y-88653005D01*
X128625600Y-83058000D02*
X128225601Y-83457999D01*
X128225601Y-83457999D02*
X128225601Y-87971799D01*
X128906807Y-88653005D02*
X128906807Y-89172989D01*
X129322898Y-88428934D02*
X129491267Y-88597303D01*
X129491267Y-88597303D02*
X129891266Y-88997302D01*
X129322898Y-83916108D02*
X129322898Y-88428934D01*
X129238643Y-106175442D02*
X129546885Y-105867200D01*
X129238642Y-106175442D02*
X129238643Y-106175442D01*
X129546885Y-105867200D02*
X129238642Y-106175442D01*
X129014799Y-106186380D02*
X126242368Y-108958811D01*
X126242368Y-108958811D02*
X125555828Y-108958811D01*
X125555828Y-108958811D02*
X125458244Y-109056395D01*
X129227704Y-106186380D02*
X129014799Y-106186380D01*
X129238642Y-106175442D02*
X129227704Y-106186380D01*
X125458244Y-109056395D02*
X124892559Y-109056395D01*
X131700197Y-103547285D02*
X132265882Y-103547285D01*
X129546885Y-105867200D02*
X129546885Y-105700597D01*
X129546885Y-105700597D02*
X131700197Y-103547285D01*
X136550400Y-102982602D02*
X135340017Y-104192985D01*
X135340017Y-104192985D02*
X132595598Y-104192985D01*
X132595598Y-104192985D02*
X132459184Y-104329399D01*
X132459184Y-104329399D02*
X131786180Y-104329399D01*
X126835773Y-109287797D02*
X126435774Y-109687796D01*
X131786180Y-104329399D02*
X126835773Y-109279806D01*
X136550400Y-99568000D02*
X136550400Y-102982602D01*
X139686198Y-96432202D02*
X136550400Y-99568000D01*
X144823202Y-96432202D02*
X139686198Y-96432202D01*
X126835773Y-109279806D02*
X126835773Y-109287797D01*
X147224604Y-94030800D02*
X144823202Y-96432202D01*
X150926800Y-94030800D02*
X147224604Y-94030800D01*
X124892559Y-109056395D02*
X125437164Y-109601000D01*
X126348978Y-109601000D02*
X126435774Y-109687796D01*
X125437164Y-109601000D02*
X126348978Y-109601000D01*
X125272800Y-102241378D02*
X124767991Y-101736569D01*
X125272800Y-104597200D02*
X125272800Y-102241378D01*
X125272800Y-104597200D02*
X125302231Y-104597200D01*
X124767991Y-101196519D02*
X125167990Y-100796520D01*
X125528721Y-104823690D02*
X125528721Y-105389375D01*
X125302231Y-104597200D02*
X125528721Y-104823690D01*
X124767991Y-101736569D02*
X124767991Y-101196519D01*
X125308527Y-107383791D02*
X125708526Y-107783790D01*
X125272800Y-104597200D02*
X125272800Y-107348064D01*
X125272800Y-107348064D02*
X125308527Y-107383791D01*
X127936346Y-110511095D02*
X127936346Y-111076780D01*
X127936346Y-108815644D02*
X127936346Y-110511095D01*
X132943600Y-104917987D02*
X131834003Y-104917987D01*
X131834003Y-104917987D02*
X127936346Y-108815644D01*
X126869122Y-111132767D02*
X120621244Y-117380645D01*
X120722844Y-119227764D02*
X120722844Y-119611447D01*
X120621244Y-119126164D02*
X120722844Y-119227764D01*
X128486593Y-112819611D02*
X130664789Y-112819611D01*
X120621244Y-117380645D02*
X120621244Y-119126164D01*
X130664789Y-112819611D02*
X134730944Y-108753456D01*
X121556802Y-119749402D02*
X128486593Y-112819611D01*
X136277385Y-104984340D02*
X137788860Y-104984340D01*
X120722844Y-119611447D02*
X120860798Y-119749402D01*
X120860798Y-119749402D02*
X121556802Y-119749402D01*
X137788860Y-104984340D02*
X148017398Y-94755802D01*
X134730944Y-108753456D02*
X134730944Y-106530781D01*
X134730944Y-106530781D02*
X136277385Y-104984340D01*
X148017398Y-94755802D02*
X151245845Y-94755802D01*
X151245845Y-94755802D02*
X153198990Y-92802657D01*
X153198990Y-92802657D02*
X153198990Y-92236972D01*
X125780796Y-101676370D02*
X125780796Y-103526947D01*
X126066101Y-103812252D02*
X126466100Y-104212251D01*
X125780796Y-103526947D02*
X126066101Y-103812252D01*
X119329200Y-107469932D02*
X121386188Y-109526920D01*
X121386188Y-109526920D02*
X121786187Y-109926919D01*
X119329200Y-104241600D02*
X119329200Y-107469932D01*
X117183589Y-98249891D02*
X115831191Y-99602289D01*
X115831191Y-99602289D02*
X115831191Y-109896910D01*
X115831191Y-109896910D02*
X116382288Y-110448007D01*
X116382288Y-110448007D02*
X116782287Y-110848006D01*
X119430223Y-112267423D02*
X119430223Y-119207965D01*
X119822822Y-119600564D02*
X119822822Y-120210171D01*
X136144312Y-110259678D02*
X136144312Y-107351934D01*
X120589598Y-120976947D02*
X122160879Y-120976947D01*
X122160879Y-120976947D02*
X129338637Y-113799189D01*
X149294315Y-98094800D02*
X149860000Y-98094800D01*
X118973600Y-111810800D02*
X119430223Y-112267423D01*
X129338637Y-113799189D02*
X132604801Y-113799189D01*
X139090045Y-105434344D02*
X146429589Y-98094800D01*
X119822822Y-120210171D02*
X120589598Y-120976947D01*
X132604801Y-113799189D02*
X136144312Y-110259678D01*
X136361001Y-106910492D02*
X137837149Y-105434344D01*
X119430223Y-119207965D02*
X119822822Y-119600564D01*
X136144312Y-107351934D02*
X136361001Y-107135244D01*
X137837149Y-105434344D02*
X139090045Y-105434344D01*
X146429589Y-98094800D02*
X149294315Y-98094800D01*
X136361001Y-107135244D02*
X136361001Y-106910492D01*
X128473200Y-110540632D02*
X128661347Y-110728779D01*
X128473200Y-108915200D02*
X128473200Y-110540632D01*
X132791200Y-105918000D02*
X131470400Y-105918000D01*
X128831728Y-111142991D02*
X129231727Y-111542990D01*
X128661347Y-110972610D02*
X128831728Y-111142991D01*
X131470400Y-105918000D02*
X128473200Y-108915200D01*
X128661347Y-110728779D02*
X128661347Y-110972610D01*
X127210177Y-100590961D02*
X126194405Y-99575189D01*
X126194405Y-99575189D02*
X124578400Y-99575189D01*
X124578400Y-99575189D02*
X122714001Y-101439588D01*
X122714001Y-101439588D02*
X122714001Y-105798001D01*
X121296590Y-107215412D02*
X121296590Y-107781097D01*
X122714001Y-105798001D02*
X121296590Y-107215412D01*
X127210177Y-101156646D02*
X127210177Y-100590961D01*
X117144800Y-112471200D02*
X118980212Y-114306612D01*
X118980212Y-114306612D02*
X118980212Y-119394365D01*
X119372811Y-119786964D02*
X119372811Y-120396571D01*
X119372811Y-120396571D02*
X120403198Y-121426958D01*
X122347279Y-121426958D02*
X129525037Y-114249200D01*
X118980212Y-119394365D02*
X119372811Y-119786964D01*
X129525037Y-114249200D02*
X132791201Y-114249200D01*
X136594323Y-110446078D02*
X136594323Y-107538334D01*
X136594323Y-107538334D02*
X136811012Y-107321644D01*
X136811012Y-107321644D02*
X136811012Y-107096892D01*
X136811012Y-107096892D02*
X137830276Y-106077628D01*
X142595257Y-106077628D02*
X146405600Y-102267285D01*
X137830276Y-106077628D02*
X142595257Y-106077628D01*
X120403198Y-121426958D02*
X122347279Y-121426958D01*
X132791201Y-114249200D02*
X136594323Y-110446078D01*
X146405600Y-102267285D02*
X146405600Y-101701600D01*
X120272833Y-120023771D02*
X120272833Y-119414164D01*
X135618111Y-108502700D02*
X130851189Y-113269622D01*
X120171233Y-111528348D02*
X118079895Y-109437010D01*
X118079895Y-109437010D02*
X117514210Y-109437010D01*
X130851189Y-113269622D02*
X129231793Y-113269622D01*
X120171233Y-119312564D02*
X120171233Y-111528348D01*
X120775998Y-120526936D02*
X120272833Y-120023771D01*
X121974479Y-120526936D02*
X120775998Y-120526936D01*
X129231793Y-113269622D02*
X121974479Y-120526936D01*
X135618111Y-106853183D02*
X135618111Y-108502700D01*
X120272833Y-119414164D02*
X120171233Y-119312564D01*
X118102810Y-110025610D02*
X118102810Y-111513190D01*
X118102810Y-111513190D02*
X117144800Y-112471200D01*
X117514210Y-109437010D02*
X118102810Y-110025610D01*
X138497919Y-88646000D02*
X135432800Y-91711119D01*
X139700000Y-88646000D02*
X138497919Y-88646000D01*
X135432800Y-91711119D02*
X135432800Y-99314000D01*
X135432800Y-99314000D02*
X133400800Y-101346000D01*
X133400800Y-101346000D02*
X130865879Y-101346000D01*
X130865879Y-101346000D02*
X130205479Y-102006400D01*
X130179431Y-102006400D02*
X128942671Y-100769640D01*
X130205479Y-102006400D02*
X130179431Y-102006400D01*
X118468384Y-106484356D02*
X118468384Y-107050041D01*
X127686802Y-96322967D02*
X126395879Y-96322967D01*
X122862848Y-96332950D02*
X118468384Y-100727414D01*
X126385896Y-96332950D02*
X122862848Y-96332950D01*
X131082037Y-96779955D02*
X128143790Y-96779955D01*
X126395879Y-96322967D02*
X126385896Y-96332950D01*
X131459037Y-97156955D02*
X131082037Y-96779955D01*
X128942671Y-100769640D02*
X131459037Y-98253274D01*
X131459037Y-98253274D02*
X131459037Y-97156955D01*
X118468384Y-100727414D02*
X118468384Y-106484356D01*
X128143790Y-96779955D02*
X127686802Y-96322967D01*
X120689001Y-103671001D02*
X120183666Y-103671001D01*
X121539000Y-104521000D02*
X120689001Y-103671001D01*
X119693917Y-103181252D02*
X119693917Y-102615567D01*
X119583200Y-100685600D02*
X119583200Y-102504850D01*
X119583200Y-102504850D02*
X119693917Y-102615567D01*
X120183666Y-103671001D02*
X119693917Y-103181252D01*
X119983199Y-100258791D02*
X123459029Y-96782961D01*
X119983199Y-100285601D02*
X119983199Y-100258791D01*
X123459029Y-96782961D02*
X126794411Y-96782961D01*
X119583200Y-100685600D02*
X119983199Y-100285601D01*
X126804398Y-96772974D02*
X127500402Y-96772974D01*
X126794411Y-96782961D02*
X126804398Y-96772974D01*
X128232385Y-97504957D02*
X130168350Y-97504957D01*
X130168350Y-97504957D02*
X130734035Y-97504957D01*
X127500402Y-96772974D02*
X128232385Y-97504957D01*
X110577999Y-92137599D02*
X109728000Y-91287600D01*
X114204801Y-95764401D02*
X110577999Y-92137599D01*
X114204801Y-95960716D02*
X114204801Y-95764401D01*
X115265200Y-97021115D02*
X114204801Y-95960716D01*
X115265200Y-97586800D02*
X115265200Y-97021115D01*
X127920801Y-104031999D02*
X126796800Y-105156000D01*
X128320800Y-103225600D02*
X127920801Y-103625599D01*
X127920801Y-103625599D02*
X127920801Y-104031999D01*
X126209479Y-95872956D02*
X126199496Y-95882939D01*
X131909048Y-99280339D02*
X131909048Y-96970555D01*
X126199496Y-95882939D02*
X122601341Y-95882939D01*
X130392682Y-100796705D02*
X131909048Y-99280339D01*
X130994102Y-96055609D02*
X128055855Y-96055609D01*
X127873202Y-95872956D02*
X126209479Y-95872956D01*
X131909048Y-96970555D02*
X130994102Y-96055609D01*
X128055855Y-96055609D02*
X127873202Y-95872956D01*
X118414988Y-91696586D02*
X118014989Y-91296587D01*
X122601341Y-95882939D02*
X118414988Y-91696586D01*
X138006057Y-106609357D02*
X137319324Y-107296090D01*
X137319324Y-107320650D02*
X137319324Y-107886335D01*
X137319324Y-107296090D02*
X137319324Y-107320650D01*
X138706188Y-106609357D02*
X138006057Y-106609357D01*
X138935777Y-106838946D02*
X138706188Y-106609357D01*
X138935777Y-107534948D02*
X138935777Y-106838946D01*
X140475618Y-109074789D02*
X138935777Y-107534948D01*
X142088585Y-109074789D02*
X140475618Y-109074789D01*
X145534809Y-112521013D02*
X142088585Y-109074789D01*
X145534809Y-118167817D02*
X145534809Y-112521013D01*
X143764000Y-119938626D02*
X145534809Y-118167817D01*
X143764000Y-123952000D02*
X143764000Y-119938626D01*
X143610547Y-107186947D02*
X140226463Y-107186947D01*
X140226463Y-107186947D02*
X139660778Y-107186947D01*
X144443501Y-108019901D02*
X143610547Y-107186947D01*
X149472701Y-108019901D02*
X144443501Y-108019901D01*
X149872700Y-108419900D02*
X149472701Y-108019901D01*
X150055718Y-111618597D02*
X150455717Y-112018596D01*
X149872700Y-108419900D02*
X149872700Y-111435579D01*
X149872700Y-111435579D02*
X150055718Y-111618597D01*
D15*
X159096663Y-74893906D02*
X159037698Y-75004220D01*
X159001388Y-75123918D01*
X158989128Y-75248400D01*
X158989128Y-76948400D01*
X159001388Y-77072882D01*
X159037698Y-77192580D01*
X159096663Y-77302894D01*
X159176015Y-77399585D01*
X159272706Y-77478937D01*
X159383020Y-77537902D01*
X159455580Y-77559913D01*
X159323725Y-77691768D01*
X159161210Y-77934989D01*
X159049268Y-78205242D01*
X158992200Y-78492140D01*
X158992200Y-78784660D01*
X159049268Y-79071558D01*
X159161210Y-79341811D01*
X159323725Y-79585032D01*
X159530568Y-79791875D01*
X159704960Y-79908400D01*
X159530568Y-80024925D01*
X159323725Y-80231768D01*
X159161210Y-80474989D01*
X159049268Y-80745242D01*
X158992200Y-81032140D01*
X158992200Y-81324660D01*
X159049268Y-81611558D01*
X159161210Y-81881811D01*
X159323725Y-82125032D01*
X159530568Y-82331875D01*
X159704960Y-82448400D01*
X159530568Y-82564925D01*
X159323725Y-82771768D01*
X159161210Y-83014989D01*
X159049268Y-83285242D01*
X158992200Y-83572140D01*
X158992200Y-83864660D01*
X159049268Y-84151558D01*
X159161210Y-84421811D01*
X159323725Y-84665032D01*
X159530568Y-84871875D01*
X159704960Y-84988400D01*
X159530568Y-85104925D01*
X159323725Y-85311768D01*
X159161210Y-85554989D01*
X159049268Y-85825242D01*
X158992200Y-86112140D01*
X158992200Y-86404660D01*
X159049268Y-86691558D01*
X159161210Y-86961811D01*
X159323725Y-87205032D01*
X159530568Y-87411875D01*
X159704960Y-87528400D01*
X159530568Y-87644925D01*
X159323725Y-87851768D01*
X159161210Y-88094989D01*
X159049268Y-88365242D01*
X158992200Y-88652140D01*
X158992200Y-88944660D01*
X159049268Y-89231558D01*
X159161210Y-89501811D01*
X159323725Y-89745032D01*
X159530568Y-89951875D01*
X159704960Y-90068400D01*
X159530568Y-90184925D01*
X159323725Y-90391768D01*
X159161210Y-90634989D01*
X159049268Y-90905242D01*
X158992200Y-91192140D01*
X158992200Y-91484660D01*
X159049268Y-91771558D01*
X159161210Y-92041811D01*
X159323725Y-92285032D01*
X159530568Y-92491875D01*
X159704960Y-92608400D01*
X159530568Y-92724925D01*
X159323725Y-92931768D01*
X159161210Y-93174989D01*
X159049268Y-93445242D01*
X158992200Y-93732140D01*
X158992200Y-94024660D01*
X159049268Y-94311558D01*
X159161210Y-94581811D01*
X159323725Y-94825032D01*
X159530568Y-95031875D01*
X159704960Y-95148400D01*
X159530568Y-95264925D01*
X159323725Y-95471768D01*
X159161210Y-95714989D01*
X159049268Y-95985242D01*
X158992200Y-96272140D01*
X158992200Y-96564660D01*
X159049268Y-96851558D01*
X159161210Y-97121811D01*
X159323725Y-97365032D01*
X159530568Y-97571875D01*
X159704960Y-97688400D01*
X159530568Y-97804925D01*
X159323725Y-98011768D01*
X159161210Y-98254989D01*
X159049268Y-98525242D01*
X158992200Y-98812140D01*
X158992200Y-99104660D01*
X159049268Y-99391558D01*
X159161210Y-99661811D01*
X159323725Y-99905032D01*
X159530568Y-100111875D01*
X159704960Y-100228400D01*
X159530568Y-100344925D01*
X159323725Y-100551768D01*
X159161210Y-100794989D01*
X159049268Y-101065242D01*
X158992200Y-101352140D01*
X158992200Y-101644660D01*
X159049268Y-101931558D01*
X159161210Y-102201811D01*
X159323725Y-102445032D01*
X159530568Y-102651875D01*
X159704960Y-102768400D01*
X159530568Y-102884925D01*
X159323725Y-103091768D01*
X159161210Y-103334989D01*
X159049268Y-103605242D01*
X158992200Y-103892140D01*
X158992200Y-104184660D01*
X159049268Y-104471558D01*
X159161210Y-104741811D01*
X159323725Y-104985032D01*
X159530568Y-105191875D01*
X159704960Y-105308400D01*
X159530568Y-105424925D01*
X159323725Y-105631768D01*
X159161210Y-105874989D01*
X159049268Y-106145242D01*
X158992200Y-106432140D01*
X158992200Y-106724660D01*
X159049268Y-107011558D01*
X159161210Y-107281811D01*
X159323725Y-107525032D01*
X159530568Y-107731875D01*
X159704960Y-107848400D01*
X159530568Y-107964925D01*
X159323725Y-108171768D01*
X159161210Y-108414989D01*
X159049268Y-108685242D01*
X158992200Y-108972140D01*
X158992200Y-109264660D01*
X159049268Y-109551558D01*
X159161210Y-109821811D01*
X159323725Y-110065032D01*
X159530568Y-110271875D01*
X159704960Y-110388400D01*
X159530568Y-110504925D01*
X159323725Y-110711768D01*
X159161210Y-110954989D01*
X159049268Y-111225242D01*
X158992200Y-111512140D01*
X158992200Y-111804660D01*
X159049268Y-112091558D01*
X159161210Y-112361811D01*
X159323725Y-112605032D01*
X159530568Y-112811875D01*
X159704960Y-112928400D01*
X159530568Y-113044925D01*
X159323725Y-113251768D01*
X159161210Y-113494989D01*
X159049268Y-113765242D01*
X158992200Y-114052140D01*
X158992200Y-114344660D01*
X159049268Y-114631558D01*
X159161210Y-114901811D01*
X159323725Y-115145032D01*
X159530568Y-115351875D01*
X159704960Y-115468400D01*
X159530568Y-115584925D01*
X159323725Y-115791768D01*
X159161210Y-116034989D01*
X159049268Y-116305242D01*
X158992200Y-116592140D01*
X158992200Y-116884660D01*
X159049268Y-117171558D01*
X159161210Y-117441811D01*
X159323725Y-117685032D01*
X159530568Y-117891875D01*
X159704960Y-118008400D01*
X159530568Y-118124925D01*
X159323725Y-118331768D01*
X159161210Y-118574989D01*
X159049268Y-118845242D01*
X158992200Y-119132140D01*
X158992200Y-119424660D01*
X159049268Y-119711558D01*
X159161210Y-119981811D01*
X159323725Y-120225032D01*
X159530568Y-120431875D01*
X159704960Y-120548400D01*
X159530568Y-120664925D01*
X159323725Y-120871768D01*
X159161210Y-121114989D01*
X159049268Y-121385242D01*
X158992200Y-121672140D01*
X158992200Y-121964660D01*
X159049268Y-122251558D01*
X159161210Y-122521811D01*
X159323725Y-122765032D01*
X159530568Y-122971875D01*
X159712734Y-123093595D01*
X159595845Y-123163222D01*
X159379612Y-123358131D01*
X159205559Y-123591480D01*
X159080375Y-123854301D01*
X159035724Y-124001510D01*
X159157045Y-124231400D01*
X160350200Y-124231400D01*
X160350200Y-124211400D01*
X160604200Y-124211400D01*
X160604200Y-124231400D01*
X160624200Y-124231400D01*
X160624200Y-124485400D01*
X160604200Y-124485400D01*
X160604200Y-124505400D01*
X160350200Y-124505400D01*
X160350200Y-124485400D01*
X159157045Y-124485400D01*
X159035724Y-124715290D01*
X159080375Y-124862499D01*
X159205559Y-125125320D01*
X159379612Y-125358669D01*
X159533105Y-125497026D01*
X152013459Y-125482996D01*
X152018974Y-125476276D01*
X152038326Y-125440072D01*
X152234000Y-125440072D01*
X152358482Y-125427812D01*
X152478180Y-125391502D01*
X152588494Y-125332537D01*
X152685185Y-125253185D01*
X152764537Y-125156494D01*
X152823502Y-125046180D01*
X152859812Y-124926482D01*
X152872072Y-124802000D01*
X152872072Y-123102000D01*
X152859812Y-122977518D01*
X152823502Y-122857820D01*
X152764537Y-122747506D01*
X152685185Y-122650815D01*
X152588494Y-122571463D01*
X152478180Y-122512498D01*
X152358482Y-122476188D01*
X152234000Y-122463928D01*
X150534000Y-122463928D01*
X150409518Y-122476188D01*
X150289820Y-122512498D01*
X150179506Y-122571463D01*
X150082815Y-122650815D01*
X150003463Y-122747506D01*
X149944498Y-122857820D01*
X149920034Y-122938466D01*
X149844269Y-122854412D01*
X149610920Y-122680359D01*
X149348099Y-122555175D01*
X149200890Y-122510524D01*
X148971000Y-122631845D01*
X148971000Y-123825000D01*
X148991000Y-123825000D01*
X148991000Y-124079000D01*
X148971000Y-124079000D01*
X148971000Y-124099000D01*
X148717000Y-124099000D01*
X148717000Y-124079000D01*
X146431000Y-124079000D01*
X146431000Y-124099000D01*
X146177000Y-124099000D01*
X146177000Y-124079000D01*
X146157000Y-124079000D01*
X146157000Y-123825000D01*
X146177000Y-123825000D01*
X146177000Y-122631845D01*
X146431000Y-122631845D01*
X146431000Y-123825000D01*
X148717000Y-123825000D01*
X148717000Y-122631845D01*
X148487110Y-122510524D01*
X148339901Y-122555175D01*
X148077080Y-122680359D01*
X147843731Y-122854412D01*
X147648822Y-123070645D01*
X147574000Y-123196255D01*
X147499178Y-123070645D01*
X147304269Y-122854412D01*
X147070920Y-122680359D01*
X146808099Y-122555175D01*
X146660890Y-122510524D01*
X146431000Y-122631845D01*
X146177000Y-122631845D01*
X145947110Y-122510524D01*
X145799901Y-122555175D01*
X145537080Y-122680359D01*
X145303731Y-122854412D01*
X145108822Y-123070645D01*
X145039195Y-123187534D01*
X144917475Y-123005368D01*
X144710632Y-122798525D01*
X144524000Y-122673822D01*
X144524000Y-120253427D01*
X146045813Y-118731615D01*
X146074810Y-118707818D01*
X146111837Y-118662701D01*
X146169783Y-118592094D01*
X146240355Y-118460064D01*
X146249512Y-118429876D01*
X146283812Y-118316803D01*
X146294809Y-118205150D01*
X146294809Y-118205141D01*
X146298485Y-118167818D01*
X146294809Y-118130495D01*
X146294809Y-112558338D01*
X146298485Y-112521013D01*
X146294809Y-112483688D01*
X146294809Y-112483680D01*
X146283812Y-112372027D01*
X146240355Y-112228766D01*
X146169783Y-112096737D01*
X146074810Y-111981012D01*
X146045812Y-111957214D01*
X142652389Y-108563792D01*
X142628586Y-108534788D01*
X142512861Y-108439815D01*
X142380832Y-108369243D01*
X142237571Y-108325786D01*
X142125918Y-108314789D01*
X142125907Y-108314789D01*
X142088585Y-108311113D01*
X142051263Y-108314789D01*
X140790420Y-108314789D01*
X140422578Y-107946947D01*
X143295746Y-107946947D01*
X143879702Y-108530903D01*
X143903500Y-108559902D01*
X144019225Y-108654875D01*
X144151254Y-108725447D01*
X144294515Y-108768904D01*
X144406168Y-108779901D01*
X144406178Y-108779901D01*
X144443501Y-108783577D01*
X144480824Y-108779901D01*
X148901541Y-108779901D01*
X148955495Y-108910156D01*
X149068763Y-109079674D01*
X149112700Y-109123611D01*
X149112701Y-111398247D01*
X149109024Y-111435579D01*
X149112701Y-111472912D01*
X149123698Y-111584565D01*
X149134021Y-111618597D01*
X149167154Y-111727825D01*
X149237726Y-111859855D01*
X149308901Y-111946581D01*
X149332700Y-111975580D01*
X149361698Y-111999378D01*
X149420717Y-112058397D01*
X149420717Y-112120535D01*
X149460491Y-112320494D01*
X149538512Y-112508852D01*
X149651780Y-112678370D01*
X149795943Y-112822533D01*
X149965461Y-112935801D01*
X150153819Y-113013822D01*
X150353778Y-113053596D01*
X150557656Y-113053596D01*
X150757615Y-113013822D01*
X150945973Y-112935801D01*
X151115491Y-112822533D01*
X151259654Y-112678370D01*
X151372922Y-112508852D01*
X151450943Y-112320494D01*
X151490717Y-112120535D01*
X151490717Y-111916657D01*
X151450943Y-111716698D01*
X151372922Y-111528340D01*
X151259654Y-111358822D01*
X151115491Y-111214659D01*
X150945973Y-111101391D01*
X150757615Y-111023370D01*
X150632700Y-110998523D01*
X150632700Y-109123611D01*
X150676637Y-109079674D01*
X150789905Y-108910156D01*
X150867926Y-108721798D01*
X150907700Y-108521839D01*
X150907700Y-108317961D01*
X150867926Y-108118002D01*
X150789905Y-107929644D01*
X150676637Y-107760126D01*
X150532474Y-107615963D01*
X150362956Y-107502695D01*
X150174598Y-107424674D01*
X149974639Y-107384900D01*
X149896926Y-107384900D01*
X149764948Y-107314355D01*
X149621687Y-107270898D01*
X149510034Y-107259901D01*
X149510023Y-107259901D01*
X149472701Y-107256225D01*
X149435379Y-107259901D01*
X144758303Y-107259901D01*
X144174350Y-106675949D01*
X144150548Y-106646946D01*
X144034823Y-106551973D01*
X143902794Y-106481401D01*
X143759533Y-106437944D01*
X143647880Y-106426947D01*
X143647869Y-106426947D01*
X143610547Y-106423271D01*
X143573225Y-106426947D01*
X143320739Y-106426947D01*
X146916604Y-102831083D01*
X146945601Y-102807286D01*
X147040574Y-102691561D01*
X147111146Y-102559532D01*
X147154587Y-102416324D01*
X147209537Y-102361374D01*
X147322805Y-102191856D01*
X147400826Y-102003498D01*
X147440600Y-101803539D01*
X147440600Y-101599661D01*
X147400826Y-101399702D01*
X147322805Y-101211344D01*
X147209537Y-101041826D01*
X147065374Y-100897663D01*
X146895856Y-100784395D01*
X146707498Y-100706374D01*
X146507539Y-100666600D01*
X146303661Y-100666600D01*
X146103702Y-100706374D01*
X145915344Y-100784395D01*
X145745826Y-100897663D01*
X145632988Y-101010501D01*
X145554076Y-100957774D01*
X145365718Y-100879753D01*
X145165759Y-100839979D01*
X144961881Y-100839979D01*
X144761922Y-100879753D01*
X144689396Y-100909794D01*
X146744391Y-98854800D01*
X149156289Y-98854800D01*
X149200226Y-98898737D01*
X149369744Y-99012005D01*
X149558102Y-99090026D01*
X149758061Y-99129800D01*
X149961939Y-99129800D01*
X150161898Y-99090026D01*
X150350256Y-99012005D01*
X150519774Y-98898737D01*
X150663937Y-98754574D01*
X150777205Y-98585056D01*
X150855226Y-98396698D01*
X150895000Y-98196739D01*
X150895000Y-97992861D01*
X150855226Y-97792902D01*
X150777205Y-97604544D01*
X150663937Y-97435026D01*
X150519774Y-97290863D01*
X150350256Y-97177595D01*
X150161898Y-97099574D01*
X149961939Y-97059800D01*
X149758061Y-97059800D01*
X149558102Y-97099574D01*
X149369744Y-97177595D01*
X149200226Y-97290863D01*
X149156289Y-97334800D01*
X146513202Y-97334800D01*
X148332200Y-95515802D01*
X151208523Y-95515802D01*
X151245845Y-95519478D01*
X151283167Y-95515802D01*
X151283178Y-95515802D01*
X151394831Y-95504805D01*
X151538092Y-95461348D01*
X151670121Y-95390776D01*
X151785846Y-95295803D01*
X151809649Y-95266799D01*
X153709994Y-93366455D01*
X153738991Y-93342658D01*
X153765322Y-93310574D01*
X153833964Y-93226934D01*
X153904536Y-93094904D01*
X153934598Y-92995800D01*
X153947977Y-92951696D01*
X154002927Y-92896746D01*
X154116195Y-92727228D01*
X154194216Y-92538870D01*
X154233990Y-92338911D01*
X154233990Y-92164392D01*
X154281601Y-92212003D01*
X154281600Y-115293298D01*
X153052724Y-116522175D01*
X153023720Y-116545978D01*
X152981951Y-116596874D01*
X152928747Y-116661703D01*
X152883865Y-116745671D01*
X152858175Y-116793733D01*
X152814718Y-116936994D01*
X152803721Y-117048647D01*
X152803721Y-117048657D01*
X152800045Y-117085979D01*
X152803721Y-117123302D01*
X152803722Y-119937740D01*
X152156918Y-119290937D01*
X152133115Y-119261933D01*
X152017390Y-119166960D01*
X151885361Y-119096388D01*
X151742100Y-119052931D01*
X151630447Y-119041934D01*
X151630436Y-119041934D01*
X151593114Y-119038258D01*
X151555792Y-119041934D01*
X148582511Y-119041934D01*
X148538574Y-118997997D01*
X148369056Y-118884729D01*
X148180698Y-118806708D01*
X147980739Y-118766934D01*
X147776861Y-118766934D01*
X147576902Y-118806708D01*
X147388544Y-118884729D01*
X147219026Y-118997997D01*
X147074863Y-119142160D01*
X146961595Y-119311678D01*
X146883574Y-119500036D01*
X146843800Y-119699995D01*
X146843800Y-119903873D01*
X146883574Y-120103832D01*
X146961595Y-120292190D01*
X147074863Y-120461708D01*
X147219026Y-120605871D01*
X147388544Y-120719139D01*
X147576902Y-120797160D01*
X147776861Y-120836934D01*
X147980739Y-120836934D01*
X148180698Y-120797160D01*
X148369056Y-120719139D01*
X148538574Y-120605871D01*
X148582511Y-120561934D01*
X151278313Y-120561934D01*
X152528721Y-121812343D01*
X152528721Y-121874480D01*
X152568495Y-122074439D01*
X152646516Y-122262797D01*
X152759784Y-122432315D01*
X152903947Y-122576478D01*
X153073465Y-122689746D01*
X153261823Y-122767767D01*
X153461782Y-122807541D01*
X153665660Y-122807541D01*
X153865619Y-122767767D01*
X154053977Y-122689746D01*
X154223495Y-122576478D01*
X154367658Y-122432315D01*
X154480926Y-122262797D01*
X154558947Y-122074439D01*
X154598721Y-121874480D01*
X154598721Y-121670602D01*
X154558947Y-121470643D01*
X154480926Y-121282285D01*
X154367658Y-121112767D01*
X154323721Y-121068830D01*
X154323721Y-117400780D01*
X154566531Y-117157970D01*
X154544076Y-117212181D01*
X154504302Y-117412140D01*
X154504302Y-117616018D01*
X154544076Y-117815977D01*
X154622097Y-118004335D01*
X154735365Y-118173853D01*
X154879528Y-118318016D01*
X155049046Y-118431284D01*
X155237404Y-118509305D01*
X155437363Y-118549079D01*
X155499501Y-118549079D01*
X156235101Y-119284680D01*
X156235100Y-121216289D01*
X156191163Y-121260226D01*
X156077895Y-121429744D01*
X155999874Y-121618102D01*
X155960100Y-121818061D01*
X155960100Y-122021939D01*
X155999874Y-122221898D01*
X156077895Y-122410256D01*
X156191163Y-122579774D01*
X156335326Y-122723937D01*
X156504844Y-122837205D01*
X156693202Y-122915226D01*
X156893161Y-122955000D01*
X157097039Y-122955000D01*
X157296998Y-122915226D01*
X157485356Y-122837205D01*
X157654874Y-122723937D01*
X157799037Y-122579774D01*
X157912305Y-122410256D01*
X157990326Y-122221898D01*
X158030100Y-122021939D01*
X158030100Y-121818061D01*
X157990326Y-121618102D01*
X157912305Y-121429744D01*
X157799037Y-121260226D01*
X157755100Y-121216289D01*
X157755100Y-119007199D01*
X157758776Y-118969876D01*
X157755100Y-118932553D01*
X157755100Y-118932544D01*
X157744103Y-118820891D01*
X157700646Y-118677630D01*
X157630074Y-118545601D01*
X157535101Y-118429876D01*
X157506103Y-118406078D01*
X156574302Y-117474278D01*
X156574302Y-117412140D01*
X156534528Y-117212181D01*
X156456507Y-117023823D01*
X156432220Y-116987475D01*
X156511898Y-116971626D01*
X156700256Y-116893605D01*
X156869774Y-116780337D01*
X157013937Y-116636174D01*
X157127205Y-116466656D01*
X157205226Y-116278298D01*
X157245000Y-116078339D01*
X157245000Y-115874461D01*
X157205226Y-115674502D01*
X157127205Y-115486144D01*
X157013937Y-115316626D01*
X156869774Y-115172463D01*
X156700256Y-115059195D01*
X156511898Y-114981174D01*
X156311939Y-114941400D01*
X156108061Y-114941400D01*
X155908102Y-114981174D01*
X155801600Y-115025289D01*
X155801600Y-91934522D01*
X155805276Y-91897199D01*
X155801600Y-91859876D01*
X155801600Y-91859867D01*
X155790603Y-91748214D01*
X155747146Y-91604953D01*
X155676574Y-91472924D01*
X155581601Y-91357199D01*
X155552603Y-91333401D01*
X154335404Y-90116203D01*
X154311601Y-90087199D01*
X154195876Y-89992226D01*
X154063847Y-89921654D01*
X153920586Y-89878197D01*
X153808933Y-89867200D01*
X153808922Y-89867200D01*
X153771600Y-89863524D01*
X153734278Y-89867200D01*
X147826000Y-89867200D01*
X147826000Y-88599333D01*
X147829677Y-88562000D01*
X147821877Y-88482801D01*
X147815003Y-88413014D01*
X147771546Y-88269753D01*
X147700974Y-88137724D01*
X147606001Y-88021999D01*
X147577003Y-87998201D01*
X146918874Y-87340072D01*
X148297000Y-87340072D01*
X148421482Y-87327812D01*
X148541180Y-87291502D01*
X148651494Y-87232537D01*
X148748185Y-87153185D01*
X148827537Y-87056494D01*
X148886502Y-86946180D01*
X148908513Y-86873620D01*
X149040368Y-87005475D01*
X149283589Y-87167990D01*
X149553842Y-87279932D01*
X149840740Y-87337000D01*
X150133260Y-87337000D01*
X150420158Y-87279932D01*
X150690411Y-87167990D01*
X150933632Y-87005475D01*
X151140475Y-86798632D01*
X151302990Y-86555411D01*
X151414932Y-86285158D01*
X151472000Y-85998260D01*
X151472000Y-85705740D01*
X151414932Y-85418842D01*
X151302990Y-85148589D01*
X151140475Y-84905368D01*
X150933632Y-84698525D01*
X150690411Y-84536010D01*
X150420158Y-84424068D01*
X150133260Y-84367000D01*
X149840740Y-84367000D01*
X149553842Y-84424068D01*
X149283589Y-84536010D01*
X149040368Y-84698525D01*
X148908513Y-84830380D01*
X148886502Y-84757820D01*
X148827537Y-84647506D01*
X148748185Y-84550815D01*
X148651494Y-84471463D01*
X148541180Y-84412498D01*
X148421482Y-84376188D01*
X148297000Y-84363928D01*
X146597000Y-84363928D01*
X146472518Y-84376188D01*
X146352820Y-84412498D01*
X146242506Y-84471463D01*
X146145815Y-84550815D01*
X146066463Y-84647506D01*
X146007498Y-84757820D01*
X145971188Y-84877518D01*
X145958928Y-85002000D01*
X145958928Y-86380127D01*
X145173804Y-85595003D01*
X145150001Y-85565999D01*
X145034276Y-85471026D01*
X144998072Y-85451674D01*
X144998072Y-85256000D01*
X144985812Y-85131518D01*
X144949502Y-85011820D01*
X144890537Y-84901506D01*
X144811185Y-84804815D01*
X144714494Y-84725463D01*
X144604180Y-84666498D01*
X144484482Y-84630188D01*
X144360000Y-84617928D01*
X142660000Y-84617928D01*
X142535518Y-84630188D01*
X142415820Y-84666498D01*
X142305506Y-84725463D01*
X142208815Y-84804815D01*
X142129463Y-84901506D01*
X142070498Y-85011820D01*
X142034188Y-85131518D01*
X142021928Y-85256000D01*
X142021928Y-86956000D01*
X142034188Y-87080482D01*
X142070498Y-87200180D01*
X142129463Y-87310494D01*
X142208815Y-87407185D01*
X142305506Y-87486537D01*
X142415820Y-87545502D01*
X142488380Y-87567513D01*
X142356525Y-87699368D01*
X142194010Y-87942589D01*
X142082068Y-88212842D01*
X142025000Y-88499740D01*
X142025000Y-88792260D01*
X142082068Y-89079158D01*
X142194010Y-89349411D01*
X142356525Y-89592632D01*
X142563368Y-89799475D01*
X142806589Y-89961990D01*
X143076842Y-90073932D01*
X143363740Y-90131000D01*
X143656260Y-90131000D01*
X143943158Y-90073932D01*
X144213411Y-89961990D01*
X144456632Y-89799475D01*
X144663475Y-89592632D01*
X144825990Y-89349411D01*
X144937932Y-89079158D01*
X144995000Y-88792260D01*
X144995000Y-88499740D01*
X144937932Y-88212842D01*
X144825990Y-87942589D01*
X144663475Y-87699368D01*
X144531620Y-87567513D01*
X144604180Y-87545502D01*
X144714494Y-87486537D01*
X144811185Y-87407185D01*
X144822543Y-87393345D01*
X146306001Y-88876803D01*
X146306000Y-90589867D01*
X146302323Y-90627200D01*
X146316997Y-90776186D01*
X146360454Y-90919447D01*
X146431026Y-91051476D01*
X146525999Y-91167201D01*
X146641724Y-91262174D01*
X146773753Y-91332746D01*
X146917014Y-91376203D01*
X147018484Y-91386197D01*
X147066000Y-91390877D01*
X147103333Y-91387200D01*
X152607813Y-91387200D01*
X152539216Y-91433035D01*
X152395053Y-91577198D01*
X152281785Y-91746716D01*
X152203764Y-91935074D01*
X152163990Y-92135033D01*
X152163990Y-92338911D01*
X152203764Y-92538870D01*
X152257718Y-92669127D01*
X151643278Y-93283567D01*
X151586574Y-93226863D01*
X151417056Y-93113595D01*
X151228698Y-93035574D01*
X151028739Y-92995800D01*
X150824861Y-92995800D01*
X150624902Y-93035574D01*
X150436544Y-93113595D01*
X150267026Y-93226863D01*
X150223089Y-93270800D01*
X147261926Y-93270800D01*
X147224603Y-93267124D01*
X147187280Y-93270800D01*
X147187271Y-93270800D01*
X147075618Y-93281797D01*
X146932357Y-93325254D01*
X146800328Y-93395826D01*
X146684603Y-93490799D01*
X146660805Y-93519797D01*
X144508401Y-95672202D01*
X139723520Y-95672202D01*
X139686197Y-95668526D01*
X139648874Y-95672202D01*
X139648865Y-95672202D01*
X139537212Y-95683199D01*
X139398837Y-95725174D01*
X139393951Y-95726656D01*
X139261921Y-95797228D01*
X139201005Y-95847221D01*
X139146197Y-95892201D01*
X139122399Y-95921199D01*
X136192800Y-98850799D01*
X136192800Y-92025920D01*
X138586307Y-89632414D01*
X138753368Y-89799475D01*
X138996589Y-89961990D01*
X139266842Y-90073932D01*
X139553740Y-90131000D01*
X139846260Y-90131000D01*
X140133158Y-90073932D01*
X140403411Y-89961990D01*
X140646632Y-89799475D01*
X140853475Y-89592632D01*
X141015990Y-89349411D01*
X141127932Y-89079158D01*
X141185000Y-88792260D01*
X141185000Y-88499740D01*
X141127932Y-88212842D01*
X141015990Y-87942589D01*
X140853475Y-87699368D01*
X140721620Y-87567513D01*
X140794180Y-87545502D01*
X140904494Y-87486537D01*
X141001185Y-87407185D01*
X141080537Y-87310494D01*
X141139502Y-87200180D01*
X141175812Y-87080482D01*
X141188072Y-86956000D01*
X141188072Y-85256000D01*
X141175812Y-85131518D01*
X141139502Y-85011820D01*
X141080537Y-84901506D01*
X141001185Y-84804815D01*
X140904494Y-84725463D01*
X140794180Y-84666498D01*
X140674482Y-84630188D01*
X140550000Y-84617928D01*
X138850000Y-84617928D01*
X138725518Y-84630188D01*
X138605820Y-84666498D01*
X138495506Y-84725463D01*
X138398815Y-84804815D01*
X138319463Y-84901506D01*
X138260498Y-85011820D01*
X138224188Y-85131518D01*
X138211928Y-85256000D01*
X138211928Y-86956000D01*
X138224188Y-87080482D01*
X138260498Y-87200180D01*
X138319463Y-87310494D01*
X138398815Y-87407185D01*
X138495506Y-87486537D01*
X138605820Y-87545502D01*
X138678380Y-87567513D01*
X138546525Y-87699368D01*
X138419091Y-87890087D01*
X138348933Y-87896997D01*
X138205672Y-87940454D01*
X138073643Y-88011026D01*
X137957918Y-88105999D01*
X137934120Y-88134997D01*
X134921803Y-91147315D01*
X134892799Y-91171118D01*
X134837671Y-91238293D01*
X134797826Y-91286843D01*
X134750062Y-91376203D01*
X134727254Y-91418873D01*
X134683797Y-91562134D01*
X134672800Y-91673787D01*
X134672800Y-91673797D01*
X134669124Y-91711119D01*
X134672800Y-91748441D01*
X134672801Y-97984513D01*
X134611137Y-97892226D01*
X134556187Y-97837276D01*
X134512746Y-97694068D01*
X134442174Y-97562039D01*
X134347201Y-97446314D01*
X134318203Y-97422516D01*
X131807634Y-94911948D01*
X131783831Y-94882944D01*
X131668106Y-94787971D01*
X131536077Y-94717399D01*
X131392816Y-94673942D01*
X131281163Y-94662945D01*
X131281152Y-94662945D01*
X131243830Y-94659269D01*
X131206508Y-94662945D01*
X127909666Y-94662945D01*
X127903788Y-94661162D01*
X127792135Y-94650165D01*
X127792124Y-94650165D01*
X127754802Y-94646489D01*
X127717480Y-94650165D01*
X127066230Y-94650165D01*
X133878055Y-87838342D01*
X133907048Y-87814548D01*
X133930842Y-87785555D01*
X133930846Y-87785551D01*
X134002020Y-87698824D01*
X134005347Y-87692600D01*
X134072593Y-87566794D01*
X134116050Y-87423533D01*
X134127047Y-87311880D01*
X134127047Y-87311871D01*
X134130723Y-87274548D01*
X134127047Y-87237225D01*
X134127047Y-80790877D01*
X134170984Y-80746940D01*
X134284252Y-80577422D01*
X134362273Y-80389064D01*
X134402047Y-80189105D01*
X134402047Y-79985227D01*
X134362273Y-79785268D01*
X134284252Y-79596910D01*
X134170984Y-79427392D01*
X134026821Y-79283229D01*
X133857303Y-79169961D01*
X133668945Y-79091940D01*
X133468986Y-79052166D01*
X133265108Y-79052166D01*
X133065149Y-79091940D01*
X132876791Y-79169961D01*
X132707273Y-79283229D01*
X132563110Y-79427392D01*
X132449842Y-79596910D01*
X132371821Y-79785268D01*
X132332047Y-79985227D01*
X132332047Y-80143721D01*
X132133702Y-80183174D01*
X131945344Y-80261195D01*
X131775826Y-80374463D01*
X131631663Y-80518626D01*
X131518395Y-80688144D01*
X131440374Y-80876502D01*
X131400600Y-81076461D01*
X131400600Y-81280339D01*
X131440374Y-81480298D01*
X131518395Y-81668656D01*
X131631663Y-81838174D01*
X131675600Y-81882111D01*
X131675601Y-87183019D01*
X130608148Y-88250473D01*
X130551040Y-88193365D01*
X130381522Y-88080097D01*
X130193164Y-88002076D01*
X130082898Y-87980143D01*
X130082898Y-84619819D01*
X130126835Y-84575882D01*
X130240103Y-84406364D01*
X130318124Y-84218006D01*
X130357898Y-84018047D01*
X130357898Y-83814169D01*
X130318124Y-83614210D01*
X130240103Y-83425852D01*
X130126835Y-83256334D01*
X129982672Y-83112171D01*
X129813154Y-82998903D01*
X129656189Y-82933886D01*
X129620826Y-82756102D01*
X129542805Y-82567744D01*
X129429537Y-82398226D01*
X129285374Y-82254063D01*
X129115856Y-82140795D01*
X128927498Y-82062774D01*
X128727539Y-82023000D01*
X128523661Y-82023000D01*
X128323702Y-82062774D01*
X128135344Y-82140795D01*
X127965826Y-82254063D01*
X127821663Y-82398226D01*
X127708395Y-82567744D01*
X127630374Y-82756102D01*
X127590600Y-82956061D01*
X127590600Y-83033774D01*
X127532899Y-83141724D01*
X127520055Y-83165753D01*
X127476598Y-83309014D01*
X127465601Y-83420667D01*
X127465601Y-83420677D01*
X127461925Y-83457999D01*
X127465601Y-83495322D01*
X127465602Y-87934467D01*
X127461925Y-87971799D01*
X127465602Y-88009132D01*
X127476599Y-88120785D01*
X127481423Y-88136688D01*
X127520055Y-88264045D01*
X127590627Y-88396075D01*
X127648233Y-88466267D01*
X127685601Y-88511800D01*
X127714599Y-88535598D01*
X127952150Y-88773149D01*
X127911581Y-88871091D01*
X127871807Y-89071050D01*
X127871807Y-89274928D01*
X127911581Y-89474887D01*
X127989602Y-89663245D01*
X128102870Y-89832763D01*
X128247033Y-89976926D01*
X128416551Y-90090194D01*
X128604909Y-90168215D01*
X128676221Y-90182400D01*
X125970262Y-92888359D01*
X125911638Y-92849188D01*
X125723280Y-92771167D01*
X125523321Y-92731393D01*
X125319443Y-92731393D01*
X125119484Y-92771167D01*
X124931126Y-92849188D01*
X124761608Y-92962456D01*
X124617445Y-93106619D01*
X124504177Y-93276137D01*
X124446381Y-93415669D01*
X116939600Y-85908889D01*
X116939600Y-85547631D01*
X116966974Y-85514276D01*
X117037546Y-85382247D01*
X117081003Y-85238986D01*
X117092000Y-85127333D01*
X117092000Y-85127324D01*
X117095676Y-85090001D01*
X117092137Y-85054072D01*
X117182000Y-85054072D01*
X117306482Y-85041812D01*
X117426180Y-85005502D01*
X117536494Y-84946537D01*
X117633185Y-84867185D01*
X117712537Y-84770494D01*
X117771502Y-84660180D01*
X117807812Y-84540482D01*
X117820072Y-84416000D01*
X117820072Y-82716000D01*
X117807812Y-82591518D01*
X117771502Y-82471820D01*
X117712537Y-82361506D01*
X117633185Y-82264815D01*
X117536494Y-82185463D01*
X117426180Y-82126498D01*
X117353620Y-82104487D01*
X117485475Y-81972632D01*
X117647990Y-81729411D01*
X117759932Y-81459158D01*
X117817000Y-81172260D01*
X117817000Y-80879740D01*
X117759932Y-80592842D01*
X117647990Y-80322589D01*
X117485475Y-80079368D01*
X117278632Y-79872525D01*
X117035411Y-79710010D01*
X116765158Y-79598068D01*
X116478260Y-79541000D01*
X116185740Y-79541000D01*
X115898842Y-79598068D01*
X115628589Y-79710010D01*
X115385368Y-79872525D01*
X115178525Y-80079368D01*
X115016010Y-80322589D01*
X114904068Y-80592842D01*
X114847000Y-80879740D01*
X114847000Y-81172260D01*
X114904068Y-81459158D01*
X115016010Y-81729411D01*
X115178525Y-81972632D01*
X115310380Y-82104487D01*
X115237820Y-82126498D01*
X115127506Y-82185463D01*
X115030815Y-82264815D01*
X114951463Y-82361506D01*
X114892498Y-82471820D01*
X114856188Y-82591518D01*
X114843928Y-82716000D01*
X114843928Y-84416000D01*
X114856188Y-84540482D01*
X114892498Y-84660180D01*
X114951463Y-84770494D01*
X115030815Y-84867185D01*
X115127506Y-84946537D01*
X115237820Y-85005502D01*
X115357518Y-85041812D01*
X115443677Y-85050298D01*
X115431634Y-85090001D01*
X115430598Y-85093415D01*
X115415924Y-85242400D01*
X115419601Y-85279732D01*
X115419600Y-86186367D01*
X115415924Y-86223690D01*
X115419600Y-86261012D01*
X115419600Y-86261022D01*
X115430597Y-86372675D01*
X115472518Y-86510871D01*
X115474054Y-86515936D01*
X115544626Y-86647966D01*
X115584471Y-86696516D01*
X115639599Y-86763691D01*
X115668603Y-86787494D01*
X124004047Y-95122939D01*
X122916143Y-95122939D01*
X119049989Y-91256786D01*
X119049989Y-91194648D01*
X119010215Y-90994689D01*
X118932194Y-90806331D01*
X118818926Y-90636813D01*
X118674763Y-90492650D01*
X118505245Y-90379382D01*
X118316887Y-90301361D01*
X118116928Y-90261587D01*
X117913050Y-90261587D01*
X117713091Y-90301361D01*
X117524733Y-90379382D01*
X117355215Y-90492650D01*
X117211052Y-90636813D01*
X117097784Y-90806331D01*
X117019763Y-90994689D01*
X116979989Y-91194648D01*
X116979989Y-91398526D01*
X117019763Y-91598485D01*
X117097784Y-91786843D01*
X117211052Y-91956361D01*
X117355215Y-92100524D01*
X117524733Y-92213792D01*
X117713091Y-92291813D01*
X117913050Y-92331587D01*
X117975188Y-92331587D01*
X121882298Y-96238698D01*
X117957387Y-100163610D01*
X117928383Y-100187413D01*
X117893371Y-100230076D01*
X117833410Y-100303138D01*
X117764081Y-100432842D01*
X117762838Y-100435168D01*
X117719381Y-100578429D01*
X117708384Y-100690082D01*
X117708384Y-100690092D01*
X117704708Y-100727414D01*
X117708384Y-100764737D01*
X117708385Y-106346329D01*
X117664447Y-106390267D01*
X117551179Y-106559785D01*
X117473158Y-106748143D01*
X117433384Y-106948102D01*
X117433384Y-107151980D01*
X117473158Y-107351939D01*
X117551179Y-107540297D01*
X117664447Y-107709815D01*
X117808610Y-107853978D01*
X117978128Y-107967246D01*
X118166486Y-108045267D01*
X118366445Y-108085041D01*
X118570323Y-108085041D01*
X118770282Y-108045267D01*
X118811467Y-108028207D01*
X118818198Y-108033731D01*
X120751187Y-109966721D01*
X120751187Y-110028858D01*
X120790961Y-110228817D01*
X120868982Y-110417175D01*
X120982250Y-110586693D01*
X121126413Y-110730856D01*
X121295931Y-110844124D01*
X121484289Y-110922145D01*
X121684248Y-110961919D01*
X121888126Y-110961919D01*
X122088085Y-110922145D01*
X122276443Y-110844124D01*
X122445961Y-110730856D01*
X122590124Y-110586693D01*
X122703392Y-110417175D01*
X122781413Y-110228817D01*
X122821187Y-110028858D01*
X122821187Y-109824980D01*
X122781413Y-109625021D01*
X122703392Y-109436663D01*
X122590124Y-109267145D01*
X122445961Y-109122982D01*
X122276443Y-109009714D01*
X122088085Y-108931693D01*
X121888126Y-108891919D01*
X121825989Y-108891919D01*
X121677617Y-108743547D01*
X121786846Y-108698302D01*
X121956364Y-108585034D01*
X122100527Y-108440871D01*
X122213795Y-108271353D01*
X122291816Y-108082995D01*
X122331590Y-107883036D01*
X122331590Y-107679158D01*
X122291816Y-107479199D01*
X122237861Y-107348942D01*
X123225004Y-106361800D01*
X123254002Y-106338002D01*
X123348975Y-106222277D01*
X123419547Y-106090248D01*
X123444527Y-106007899D01*
X123793250Y-106006000D01*
X123952000Y-105847250D01*
X123952000Y-104648000D01*
X123932000Y-104648000D01*
X123932000Y-104394000D01*
X123952000Y-104394000D01*
X123952000Y-103194750D01*
X123793250Y-103036000D01*
X123474001Y-103034262D01*
X123474001Y-101754389D01*
X124006786Y-101221605D01*
X124007991Y-101233841D01*
X124007991Y-101699247D01*
X124004315Y-101736569D01*
X124007991Y-101773891D01*
X124007991Y-101773901D01*
X124018988Y-101885554D01*
X124062445Y-102028815D01*
X124133017Y-102160845D01*
X124166637Y-102201811D01*
X124227990Y-102276570D01*
X124256994Y-102300373D01*
X124512801Y-102556180D01*
X124512801Y-103035194D01*
X124364750Y-103036000D01*
X124206000Y-103194750D01*
X124206000Y-104394000D01*
X124226000Y-104394000D01*
X124226000Y-104648000D01*
X124206000Y-104648000D01*
X124206000Y-105847250D01*
X124364750Y-106006000D01*
X124512801Y-106006806D01*
X124512801Y-106508600D01*
X124408861Y-106508600D01*
X124208902Y-106548374D01*
X124020544Y-106626395D01*
X123851026Y-106739663D01*
X123706863Y-106883826D01*
X123593595Y-107053344D01*
X123515574Y-107241702D01*
X123475800Y-107441661D01*
X123475800Y-107645539D01*
X123515574Y-107845498D01*
X123593595Y-108033856D01*
X123706863Y-108203374D01*
X123851026Y-108347537D01*
X124020544Y-108460805D01*
X124040275Y-108468978D01*
X123975354Y-108566139D01*
X123897333Y-108754497D01*
X123857559Y-108954456D01*
X123857559Y-109158334D01*
X123897333Y-109358293D01*
X123975354Y-109546651D01*
X124088622Y-109716169D01*
X124232785Y-109860332D01*
X124402303Y-109973600D01*
X124590661Y-110051621D01*
X124790620Y-110091395D01*
X124852757Y-110091395D01*
X124873364Y-110112002D01*
X124897163Y-110141001D01*
X125012888Y-110235974D01*
X125144917Y-110306546D01*
X125288178Y-110350003D01*
X125399831Y-110361000D01*
X125399839Y-110361000D01*
X125437164Y-110364676D01*
X125474489Y-110361000D01*
X125645267Y-110361000D01*
X125776000Y-110491733D01*
X125945518Y-110605001D01*
X125970160Y-110615208D01*
X125951917Y-110642511D01*
X125873896Y-110830869D01*
X125834122Y-111030828D01*
X125834122Y-111092965D01*
X120931233Y-115995855D01*
X120931233Y-111565681D01*
X120934910Y-111528348D01*
X120920236Y-111379362D01*
X120876779Y-111236101D01*
X120806207Y-111104072D01*
X120735032Y-111017345D01*
X120711234Y-110988347D01*
X120682236Y-110964549D01*
X118643699Y-108926013D01*
X118619896Y-108897009D01*
X118504171Y-108802036D01*
X118372142Y-108731464D01*
X118228934Y-108688023D01*
X118173984Y-108633073D01*
X118004466Y-108519805D01*
X117816108Y-108441784D01*
X117616149Y-108402010D01*
X117412271Y-108402010D01*
X117212312Y-108441784D01*
X117023954Y-108519805D01*
X116854436Y-108633073D01*
X116710273Y-108777236D01*
X116597005Y-108946754D01*
X116591191Y-108960790D01*
X116591191Y-100420490D01*
X116690502Y-100461626D01*
X116890461Y-100501400D01*
X117094339Y-100501400D01*
X117294298Y-100461626D01*
X117482656Y-100383605D01*
X117652174Y-100270337D01*
X117796337Y-100126174D01*
X117909605Y-99956656D01*
X117987626Y-99768298D01*
X118027400Y-99568339D01*
X118027400Y-99506201D01*
X118773403Y-98760199D01*
X118802401Y-98736401D01*
X118897374Y-98620676D01*
X118967946Y-98488647D01*
X119011403Y-98345386D01*
X119022400Y-98233733D01*
X119022400Y-98233724D01*
X119026076Y-98196401D01*
X119022400Y-98159078D01*
X119022400Y-97528511D01*
X119066337Y-97484574D01*
X119179605Y-97315056D01*
X119257626Y-97126698D01*
X119297400Y-96926739D01*
X119297400Y-96722861D01*
X119257626Y-96522902D01*
X119179605Y-96334544D01*
X119066337Y-96165026D01*
X118922174Y-96020863D01*
X118752656Y-95907595D01*
X118564298Y-95829574D01*
X118364339Y-95789800D01*
X118160461Y-95789800D01*
X117960502Y-95829574D01*
X117772144Y-95907595D01*
X117602626Y-96020863D01*
X117458463Y-96165026D01*
X117345195Y-96334544D01*
X117267174Y-96522902D01*
X117227400Y-96722861D01*
X117227400Y-96926739D01*
X117267174Y-97126698D01*
X117305337Y-97218831D01*
X117285528Y-97214891D01*
X117081650Y-97214891D01*
X116881691Y-97254665D01*
X116693333Y-97332686D01*
X116523815Y-97445954D01*
X116379652Y-97590117D01*
X116294454Y-97717625D01*
X116300200Y-97688739D01*
X116300200Y-97484861D01*
X116260426Y-97284902D01*
X116182405Y-97096544D01*
X116069137Y-96927026D01*
X116014187Y-96872076D01*
X115970746Y-96728868D01*
X115900174Y-96596839D01*
X115805201Y-96481114D01*
X115776203Y-96457316D01*
X114955935Y-95637049D01*
X114953804Y-95615415D01*
X114910347Y-95472154D01*
X114839775Y-95340125D01*
X114814360Y-95309157D01*
X114744802Y-95224400D01*
X114715804Y-95200602D01*
X111169209Y-91654008D01*
X111213000Y-91433860D01*
X111213000Y-91141340D01*
X111155932Y-90854442D01*
X111043990Y-90584189D01*
X110881475Y-90340968D01*
X110674632Y-90134125D01*
X110500240Y-90017600D01*
X110674632Y-89901075D01*
X110881475Y-89694232D01*
X111043990Y-89451011D01*
X111155932Y-89180758D01*
X111213000Y-88893860D01*
X111213000Y-88601340D01*
X111155932Y-88314442D01*
X111043990Y-88044189D01*
X110881475Y-87800968D01*
X110674632Y-87594125D01*
X110500240Y-87477600D01*
X110674632Y-87361075D01*
X110881475Y-87154232D01*
X111043990Y-86911011D01*
X111155932Y-86640758D01*
X111213000Y-86353860D01*
X111213000Y-86061340D01*
X111155932Y-85774442D01*
X111043990Y-85504189D01*
X110881475Y-85260968D01*
X110674632Y-85054125D01*
X110500240Y-84937600D01*
X110674632Y-84821075D01*
X110881475Y-84614232D01*
X111043990Y-84371011D01*
X111155932Y-84100758D01*
X111213000Y-83813860D01*
X111213000Y-83521340D01*
X111155932Y-83234442D01*
X111043990Y-82964189D01*
X110881475Y-82720968D01*
X110674632Y-82514125D01*
X110500240Y-82397600D01*
X110674632Y-82281075D01*
X110881475Y-82074232D01*
X111043990Y-81831011D01*
X111155932Y-81560758D01*
X111213000Y-81273860D01*
X111213000Y-80981340D01*
X111155932Y-80694442D01*
X111043990Y-80424189D01*
X110881475Y-80180968D01*
X110674632Y-79974125D01*
X110500240Y-79857600D01*
X110674632Y-79741075D01*
X110881475Y-79534232D01*
X111043990Y-79291011D01*
X111155932Y-79020758D01*
X111213000Y-78733860D01*
X111213000Y-78441340D01*
X111155932Y-78154442D01*
X111043990Y-77884189D01*
X110881475Y-77640968D01*
X110749620Y-77509113D01*
X110822180Y-77487102D01*
X110932494Y-77428137D01*
X111029185Y-77348785D01*
X111108537Y-77252094D01*
X111167502Y-77141780D01*
X111203812Y-77022082D01*
X111216072Y-76897600D01*
X111216072Y-75197600D01*
X111203812Y-75073118D01*
X111167502Y-74953420D01*
X111112198Y-74849956D01*
X131093663Y-74831316D01*
X131074742Y-74866715D01*
X131012700Y-75071238D01*
X130997000Y-75230641D01*
X130997000Y-76237228D01*
X131012700Y-76396631D01*
X131074741Y-76601154D01*
X131175491Y-76789645D01*
X131311078Y-76954857D01*
X131476290Y-77090444D01*
X131664780Y-77191194D01*
X131869303Y-77253235D01*
X132082000Y-77274184D01*
X132294696Y-77253235D01*
X132499219Y-77191194D01*
X132687710Y-77090444D01*
X132852922Y-76954857D01*
X132988509Y-76789645D01*
X133089259Y-76601155D01*
X133151300Y-76396632D01*
X133167000Y-76237229D01*
X133167000Y-75230642D01*
X133151300Y-75071238D01*
X133089259Y-74866715D01*
X133069353Y-74829473D01*
X137696956Y-74825156D01*
X137674742Y-74866715D01*
X137612700Y-75071238D01*
X137597000Y-75230641D01*
X137597000Y-76237228D01*
X137612700Y-76396631D01*
X137674741Y-76601154D01*
X137775491Y-76789645D01*
X137911078Y-76954857D01*
X138076290Y-77090444D01*
X138264780Y-77191194D01*
X138469303Y-77253235D01*
X138682000Y-77274184D01*
X138894696Y-77253235D01*
X139099219Y-77191194D01*
X139287710Y-77090444D01*
X139452922Y-76954857D01*
X139588509Y-76789645D01*
X139689259Y-76601155D01*
X139751300Y-76396632D01*
X139767000Y-76237229D01*
X139767000Y-75230642D01*
X139751300Y-75071238D01*
X139689259Y-74866715D01*
X139666064Y-74823319D01*
X159169523Y-74805126D01*
X159096663Y-74893906D01*
G04 #@! TA.AperFunction,Conductor*
D16*
G36*
X159096663Y-74893906D02*
G01*
X159037698Y-75004220D01*
X159001388Y-75123918D01*
X158989128Y-75248400D01*
X158989128Y-76948400D01*
X159001388Y-77072882D01*
X159037698Y-77192580D01*
X159096663Y-77302894D01*
X159176015Y-77399585D01*
X159272706Y-77478937D01*
X159383020Y-77537902D01*
X159455580Y-77559913D01*
X159323725Y-77691768D01*
X159161210Y-77934989D01*
X159049268Y-78205242D01*
X158992200Y-78492140D01*
X158992200Y-78784660D01*
X159049268Y-79071558D01*
X159161210Y-79341811D01*
X159323725Y-79585032D01*
X159530568Y-79791875D01*
X159704960Y-79908400D01*
X159530568Y-80024925D01*
X159323725Y-80231768D01*
X159161210Y-80474989D01*
X159049268Y-80745242D01*
X158992200Y-81032140D01*
X158992200Y-81324660D01*
X159049268Y-81611558D01*
X159161210Y-81881811D01*
X159323725Y-82125032D01*
X159530568Y-82331875D01*
X159704960Y-82448400D01*
X159530568Y-82564925D01*
X159323725Y-82771768D01*
X159161210Y-83014989D01*
X159049268Y-83285242D01*
X158992200Y-83572140D01*
X158992200Y-83864660D01*
X159049268Y-84151558D01*
X159161210Y-84421811D01*
X159323725Y-84665032D01*
X159530568Y-84871875D01*
X159704960Y-84988400D01*
X159530568Y-85104925D01*
X159323725Y-85311768D01*
X159161210Y-85554989D01*
X159049268Y-85825242D01*
X158992200Y-86112140D01*
X158992200Y-86404660D01*
X159049268Y-86691558D01*
X159161210Y-86961811D01*
X159323725Y-87205032D01*
X159530568Y-87411875D01*
X159704960Y-87528400D01*
X159530568Y-87644925D01*
X159323725Y-87851768D01*
X159161210Y-88094989D01*
X159049268Y-88365242D01*
X158992200Y-88652140D01*
X158992200Y-88944660D01*
X159049268Y-89231558D01*
X159161210Y-89501811D01*
X159323725Y-89745032D01*
X159530568Y-89951875D01*
X159704960Y-90068400D01*
X159530568Y-90184925D01*
X159323725Y-90391768D01*
X159161210Y-90634989D01*
X159049268Y-90905242D01*
X158992200Y-91192140D01*
X158992200Y-91484660D01*
X159049268Y-91771558D01*
X159161210Y-92041811D01*
X159323725Y-92285032D01*
X159530568Y-92491875D01*
X159704960Y-92608400D01*
X159530568Y-92724925D01*
X159323725Y-92931768D01*
X159161210Y-93174989D01*
X159049268Y-93445242D01*
X158992200Y-93732140D01*
X158992200Y-94024660D01*
X159049268Y-94311558D01*
X159161210Y-94581811D01*
X159323725Y-94825032D01*
X159530568Y-95031875D01*
X159704960Y-95148400D01*
X159530568Y-95264925D01*
X159323725Y-95471768D01*
X159161210Y-95714989D01*
X159049268Y-95985242D01*
X158992200Y-96272140D01*
X158992200Y-96564660D01*
X159049268Y-96851558D01*
X159161210Y-97121811D01*
X159323725Y-97365032D01*
X159530568Y-97571875D01*
X159704960Y-97688400D01*
X159530568Y-97804925D01*
X159323725Y-98011768D01*
X159161210Y-98254989D01*
X159049268Y-98525242D01*
X158992200Y-98812140D01*
X158992200Y-99104660D01*
X159049268Y-99391558D01*
X159161210Y-99661811D01*
X159323725Y-99905032D01*
X159530568Y-100111875D01*
X159704960Y-100228400D01*
X159530568Y-100344925D01*
X159323725Y-100551768D01*
X159161210Y-100794989D01*
X159049268Y-101065242D01*
X158992200Y-101352140D01*
X158992200Y-101644660D01*
X159049268Y-101931558D01*
X159161210Y-102201811D01*
X159323725Y-102445032D01*
X159530568Y-102651875D01*
X159704960Y-102768400D01*
X159530568Y-102884925D01*
X159323725Y-103091768D01*
X159161210Y-103334989D01*
X159049268Y-103605242D01*
X158992200Y-103892140D01*
X158992200Y-104184660D01*
X159049268Y-104471558D01*
X159161210Y-104741811D01*
X159323725Y-104985032D01*
X159530568Y-105191875D01*
X159704960Y-105308400D01*
X159530568Y-105424925D01*
X159323725Y-105631768D01*
X159161210Y-105874989D01*
X159049268Y-106145242D01*
X158992200Y-106432140D01*
X158992200Y-106724660D01*
X159049268Y-107011558D01*
X159161210Y-107281811D01*
X159323725Y-107525032D01*
X159530568Y-107731875D01*
X159704960Y-107848400D01*
X159530568Y-107964925D01*
X159323725Y-108171768D01*
X159161210Y-108414989D01*
X159049268Y-108685242D01*
X158992200Y-108972140D01*
X158992200Y-109264660D01*
X159049268Y-109551558D01*
X159161210Y-109821811D01*
X159323725Y-110065032D01*
X159530568Y-110271875D01*
X159704960Y-110388400D01*
X159530568Y-110504925D01*
X159323725Y-110711768D01*
X159161210Y-110954989D01*
X159049268Y-111225242D01*
X158992200Y-111512140D01*
X158992200Y-111804660D01*
X159049268Y-112091558D01*
X159161210Y-112361811D01*
X159323725Y-112605032D01*
X159530568Y-112811875D01*
X159704960Y-112928400D01*
X159530568Y-113044925D01*
X159323725Y-113251768D01*
X159161210Y-113494989D01*
X159049268Y-113765242D01*
X158992200Y-114052140D01*
X158992200Y-114344660D01*
X159049268Y-114631558D01*
X159161210Y-114901811D01*
X159323725Y-115145032D01*
X159530568Y-115351875D01*
X159704960Y-115468400D01*
X159530568Y-115584925D01*
X159323725Y-115791768D01*
X159161210Y-116034989D01*
X159049268Y-116305242D01*
X158992200Y-116592140D01*
X158992200Y-116884660D01*
X159049268Y-117171558D01*
X159161210Y-117441811D01*
X159323725Y-117685032D01*
X159530568Y-117891875D01*
X159704960Y-118008400D01*
X159530568Y-118124925D01*
X159323725Y-118331768D01*
X159161210Y-118574989D01*
X159049268Y-118845242D01*
X158992200Y-119132140D01*
X158992200Y-119424660D01*
X159049268Y-119711558D01*
X159161210Y-119981811D01*
X159323725Y-120225032D01*
X159530568Y-120431875D01*
X159704960Y-120548400D01*
X159530568Y-120664925D01*
X159323725Y-120871768D01*
X159161210Y-121114989D01*
X159049268Y-121385242D01*
X158992200Y-121672140D01*
X158992200Y-121964660D01*
X159049268Y-122251558D01*
X159161210Y-122521811D01*
X159323725Y-122765032D01*
X159530568Y-122971875D01*
X159712734Y-123093595D01*
X159595845Y-123163222D01*
X159379612Y-123358131D01*
X159205559Y-123591480D01*
X159080375Y-123854301D01*
X159035724Y-124001510D01*
X159157045Y-124231400D01*
X160350200Y-124231400D01*
X160350200Y-124211400D01*
X160604200Y-124211400D01*
X160604200Y-124231400D01*
X160624200Y-124231400D01*
X160624200Y-124485400D01*
X160604200Y-124485400D01*
X160604200Y-124505400D01*
X160350200Y-124505400D01*
X160350200Y-124485400D01*
X159157045Y-124485400D01*
X159035724Y-124715290D01*
X159080375Y-124862499D01*
X159205559Y-125125320D01*
X159379612Y-125358669D01*
X159533105Y-125497026D01*
X152013459Y-125482996D01*
X152018974Y-125476276D01*
X152038326Y-125440072D01*
X152234000Y-125440072D01*
X152358482Y-125427812D01*
X152478180Y-125391502D01*
X152588494Y-125332537D01*
X152685185Y-125253185D01*
X152764537Y-125156494D01*
X152823502Y-125046180D01*
X152859812Y-124926482D01*
X152872072Y-124802000D01*
X152872072Y-123102000D01*
X152859812Y-122977518D01*
X152823502Y-122857820D01*
X152764537Y-122747506D01*
X152685185Y-122650815D01*
X152588494Y-122571463D01*
X152478180Y-122512498D01*
X152358482Y-122476188D01*
X152234000Y-122463928D01*
X150534000Y-122463928D01*
X150409518Y-122476188D01*
X150289820Y-122512498D01*
X150179506Y-122571463D01*
X150082815Y-122650815D01*
X150003463Y-122747506D01*
X149944498Y-122857820D01*
X149920034Y-122938466D01*
X149844269Y-122854412D01*
X149610920Y-122680359D01*
X149348099Y-122555175D01*
X149200890Y-122510524D01*
X148971000Y-122631845D01*
X148971000Y-123825000D01*
X148991000Y-123825000D01*
X148991000Y-124079000D01*
X148971000Y-124079000D01*
X148971000Y-124099000D01*
X148717000Y-124099000D01*
X148717000Y-124079000D01*
X146431000Y-124079000D01*
X146431000Y-124099000D01*
X146177000Y-124099000D01*
X146177000Y-124079000D01*
X146157000Y-124079000D01*
X146157000Y-123825000D01*
X146177000Y-123825000D01*
X146177000Y-122631845D01*
X146431000Y-122631845D01*
X146431000Y-123825000D01*
X148717000Y-123825000D01*
X148717000Y-122631845D01*
X148487110Y-122510524D01*
X148339901Y-122555175D01*
X148077080Y-122680359D01*
X147843731Y-122854412D01*
X147648822Y-123070645D01*
X147574000Y-123196255D01*
X147499178Y-123070645D01*
X147304269Y-122854412D01*
X147070920Y-122680359D01*
X146808099Y-122555175D01*
X146660890Y-122510524D01*
X146431000Y-122631845D01*
X146177000Y-122631845D01*
X145947110Y-122510524D01*
X145799901Y-122555175D01*
X145537080Y-122680359D01*
X145303731Y-122854412D01*
X145108822Y-123070645D01*
X145039195Y-123187534D01*
X144917475Y-123005368D01*
X144710632Y-122798525D01*
X144524000Y-122673822D01*
X144524000Y-120253427D01*
X146045813Y-118731615D01*
X146074810Y-118707818D01*
X146111837Y-118662701D01*
X146169783Y-118592094D01*
X146240355Y-118460064D01*
X146249512Y-118429876D01*
X146283812Y-118316803D01*
X146294809Y-118205150D01*
X146294809Y-118205141D01*
X146298485Y-118167818D01*
X146294809Y-118130495D01*
X146294809Y-112558338D01*
X146298485Y-112521013D01*
X146294809Y-112483688D01*
X146294809Y-112483680D01*
X146283812Y-112372027D01*
X146240355Y-112228766D01*
X146169783Y-112096737D01*
X146074810Y-111981012D01*
X146045812Y-111957214D01*
X142652389Y-108563792D01*
X142628586Y-108534788D01*
X142512861Y-108439815D01*
X142380832Y-108369243D01*
X142237571Y-108325786D01*
X142125918Y-108314789D01*
X142125907Y-108314789D01*
X142088585Y-108311113D01*
X142051263Y-108314789D01*
X140790420Y-108314789D01*
X140422578Y-107946947D01*
X143295746Y-107946947D01*
X143879702Y-108530903D01*
X143903500Y-108559902D01*
X144019225Y-108654875D01*
X144151254Y-108725447D01*
X144294515Y-108768904D01*
X144406168Y-108779901D01*
X144406178Y-108779901D01*
X144443501Y-108783577D01*
X144480824Y-108779901D01*
X148901541Y-108779901D01*
X148955495Y-108910156D01*
X149068763Y-109079674D01*
X149112700Y-109123611D01*
X149112701Y-111398247D01*
X149109024Y-111435579D01*
X149112701Y-111472912D01*
X149123698Y-111584565D01*
X149134021Y-111618597D01*
X149167154Y-111727825D01*
X149237726Y-111859855D01*
X149308901Y-111946581D01*
X149332700Y-111975580D01*
X149361698Y-111999378D01*
X149420717Y-112058397D01*
X149420717Y-112120535D01*
X149460491Y-112320494D01*
X149538512Y-112508852D01*
X149651780Y-112678370D01*
X149795943Y-112822533D01*
X149965461Y-112935801D01*
X150153819Y-113013822D01*
X150353778Y-113053596D01*
X150557656Y-113053596D01*
X150757615Y-113013822D01*
X150945973Y-112935801D01*
X151115491Y-112822533D01*
X151259654Y-112678370D01*
X151372922Y-112508852D01*
X151450943Y-112320494D01*
X151490717Y-112120535D01*
X151490717Y-111916657D01*
X151450943Y-111716698D01*
X151372922Y-111528340D01*
X151259654Y-111358822D01*
X151115491Y-111214659D01*
X150945973Y-111101391D01*
X150757615Y-111023370D01*
X150632700Y-110998523D01*
X150632700Y-109123611D01*
X150676637Y-109079674D01*
X150789905Y-108910156D01*
X150867926Y-108721798D01*
X150907700Y-108521839D01*
X150907700Y-108317961D01*
X150867926Y-108118002D01*
X150789905Y-107929644D01*
X150676637Y-107760126D01*
X150532474Y-107615963D01*
X150362956Y-107502695D01*
X150174598Y-107424674D01*
X149974639Y-107384900D01*
X149896926Y-107384900D01*
X149764948Y-107314355D01*
X149621687Y-107270898D01*
X149510034Y-107259901D01*
X149510023Y-107259901D01*
X149472701Y-107256225D01*
X149435379Y-107259901D01*
X144758303Y-107259901D01*
X144174350Y-106675949D01*
X144150548Y-106646946D01*
X144034823Y-106551973D01*
X143902794Y-106481401D01*
X143759533Y-106437944D01*
X143647880Y-106426947D01*
X143647869Y-106426947D01*
X143610547Y-106423271D01*
X143573225Y-106426947D01*
X143320739Y-106426947D01*
X146916604Y-102831083D01*
X146945601Y-102807286D01*
X147040574Y-102691561D01*
X147111146Y-102559532D01*
X147154587Y-102416324D01*
X147209537Y-102361374D01*
X147322805Y-102191856D01*
X147400826Y-102003498D01*
X147440600Y-101803539D01*
X147440600Y-101599661D01*
X147400826Y-101399702D01*
X147322805Y-101211344D01*
X147209537Y-101041826D01*
X147065374Y-100897663D01*
X146895856Y-100784395D01*
X146707498Y-100706374D01*
X146507539Y-100666600D01*
X146303661Y-100666600D01*
X146103702Y-100706374D01*
X145915344Y-100784395D01*
X145745826Y-100897663D01*
X145632988Y-101010501D01*
X145554076Y-100957774D01*
X145365718Y-100879753D01*
X145165759Y-100839979D01*
X144961881Y-100839979D01*
X144761922Y-100879753D01*
X144689396Y-100909794D01*
X146744391Y-98854800D01*
X149156289Y-98854800D01*
X149200226Y-98898737D01*
X149369744Y-99012005D01*
X149558102Y-99090026D01*
X149758061Y-99129800D01*
X149961939Y-99129800D01*
X150161898Y-99090026D01*
X150350256Y-99012005D01*
X150519774Y-98898737D01*
X150663937Y-98754574D01*
X150777205Y-98585056D01*
X150855226Y-98396698D01*
X150895000Y-98196739D01*
X150895000Y-97992861D01*
X150855226Y-97792902D01*
X150777205Y-97604544D01*
X150663937Y-97435026D01*
X150519774Y-97290863D01*
X150350256Y-97177595D01*
X150161898Y-97099574D01*
X149961939Y-97059800D01*
X149758061Y-97059800D01*
X149558102Y-97099574D01*
X149369744Y-97177595D01*
X149200226Y-97290863D01*
X149156289Y-97334800D01*
X146513202Y-97334800D01*
X148332200Y-95515802D01*
X151208523Y-95515802D01*
X151245845Y-95519478D01*
X151283167Y-95515802D01*
X151283178Y-95515802D01*
X151394831Y-95504805D01*
X151538092Y-95461348D01*
X151670121Y-95390776D01*
X151785846Y-95295803D01*
X151809649Y-95266799D01*
X153709994Y-93366455D01*
X153738991Y-93342658D01*
X153765322Y-93310574D01*
X153833964Y-93226934D01*
X153904536Y-93094904D01*
X153934598Y-92995800D01*
X153947977Y-92951696D01*
X154002927Y-92896746D01*
X154116195Y-92727228D01*
X154194216Y-92538870D01*
X154233990Y-92338911D01*
X154233990Y-92164392D01*
X154281601Y-92212003D01*
X154281600Y-115293298D01*
X153052724Y-116522175D01*
X153023720Y-116545978D01*
X152981951Y-116596874D01*
X152928747Y-116661703D01*
X152883865Y-116745671D01*
X152858175Y-116793733D01*
X152814718Y-116936994D01*
X152803721Y-117048647D01*
X152803721Y-117048657D01*
X152800045Y-117085979D01*
X152803721Y-117123302D01*
X152803722Y-119937740D01*
X152156918Y-119290937D01*
X152133115Y-119261933D01*
X152017390Y-119166960D01*
X151885361Y-119096388D01*
X151742100Y-119052931D01*
X151630447Y-119041934D01*
X151630436Y-119041934D01*
X151593114Y-119038258D01*
X151555792Y-119041934D01*
X148582511Y-119041934D01*
X148538574Y-118997997D01*
X148369056Y-118884729D01*
X148180698Y-118806708D01*
X147980739Y-118766934D01*
X147776861Y-118766934D01*
X147576902Y-118806708D01*
X147388544Y-118884729D01*
X147219026Y-118997997D01*
X147074863Y-119142160D01*
X146961595Y-119311678D01*
X146883574Y-119500036D01*
X146843800Y-119699995D01*
X146843800Y-119903873D01*
X146883574Y-120103832D01*
X146961595Y-120292190D01*
X147074863Y-120461708D01*
X147219026Y-120605871D01*
X147388544Y-120719139D01*
X147576902Y-120797160D01*
X147776861Y-120836934D01*
X147980739Y-120836934D01*
X148180698Y-120797160D01*
X148369056Y-120719139D01*
X148538574Y-120605871D01*
X148582511Y-120561934D01*
X151278313Y-120561934D01*
X152528721Y-121812343D01*
X152528721Y-121874480D01*
X152568495Y-122074439D01*
X152646516Y-122262797D01*
X152759784Y-122432315D01*
X152903947Y-122576478D01*
X153073465Y-122689746D01*
X153261823Y-122767767D01*
X153461782Y-122807541D01*
X153665660Y-122807541D01*
X153865619Y-122767767D01*
X154053977Y-122689746D01*
X154223495Y-122576478D01*
X154367658Y-122432315D01*
X154480926Y-122262797D01*
X154558947Y-122074439D01*
X154598721Y-121874480D01*
X154598721Y-121670602D01*
X154558947Y-121470643D01*
X154480926Y-121282285D01*
X154367658Y-121112767D01*
X154323721Y-121068830D01*
X154323721Y-117400780D01*
X154566531Y-117157970D01*
X154544076Y-117212181D01*
X154504302Y-117412140D01*
X154504302Y-117616018D01*
X154544076Y-117815977D01*
X154622097Y-118004335D01*
X154735365Y-118173853D01*
X154879528Y-118318016D01*
X155049046Y-118431284D01*
X155237404Y-118509305D01*
X155437363Y-118549079D01*
X155499501Y-118549079D01*
X156235101Y-119284680D01*
X156235100Y-121216289D01*
X156191163Y-121260226D01*
X156077895Y-121429744D01*
X155999874Y-121618102D01*
X155960100Y-121818061D01*
X155960100Y-122021939D01*
X155999874Y-122221898D01*
X156077895Y-122410256D01*
X156191163Y-122579774D01*
X156335326Y-122723937D01*
X156504844Y-122837205D01*
X156693202Y-122915226D01*
X156893161Y-122955000D01*
X157097039Y-122955000D01*
X157296998Y-122915226D01*
X157485356Y-122837205D01*
X157654874Y-122723937D01*
X157799037Y-122579774D01*
X157912305Y-122410256D01*
X157990326Y-122221898D01*
X158030100Y-122021939D01*
X158030100Y-121818061D01*
X157990326Y-121618102D01*
X157912305Y-121429744D01*
X157799037Y-121260226D01*
X157755100Y-121216289D01*
X157755100Y-119007199D01*
X157758776Y-118969876D01*
X157755100Y-118932553D01*
X157755100Y-118932544D01*
X157744103Y-118820891D01*
X157700646Y-118677630D01*
X157630074Y-118545601D01*
X157535101Y-118429876D01*
X157506103Y-118406078D01*
X156574302Y-117474278D01*
X156574302Y-117412140D01*
X156534528Y-117212181D01*
X156456507Y-117023823D01*
X156432220Y-116987475D01*
X156511898Y-116971626D01*
X156700256Y-116893605D01*
X156869774Y-116780337D01*
X157013937Y-116636174D01*
X157127205Y-116466656D01*
X157205226Y-116278298D01*
X157245000Y-116078339D01*
X157245000Y-115874461D01*
X157205226Y-115674502D01*
X157127205Y-115486144D01*
X157013937Y-115316626D01*
X156869774Y-115172463D01*
X156700256Y-115059195D01*
X156511898Y-114981174D01*
X156311939Y-114941400D01*
X156108061Y-114941400D01*
X155908102Y-114981174D01*
X155801600Y-115025289D01*
X155801600Y-91934522D01*
X155805276Y-91897199D01*
X155801600Y-91859876D01*
X155801600Y-91859867D01*
X155790603Y-91748214D01*
X155747146Y-91604953D01*
X155676574Y-91472924D01*
X155581601Y-91357199D01*
X155552603Y-91333401D01*
X154335404Y-90116203D01*
X154311601Y-90087199D01*
X154195876Y-89992226D01*
X154063847Y-89921654D01*
X153920586Y-89878197D01*
X153808933Y-89867200D01*
X153808922Y-89867200D01*
X153771600Y-89863524D01*
X153734278Y-89867200D01*
X147826000Y-89867200D01*
X147826000Y-88599333D01*
X147829677Y-88562000D01*
X147821877Y-88482801D01*
X147815003Y-88413014D01*
X147771546Y-88269753D01*
X147700974Y-88137724D01*
X147606001Y-88021999D01*
X147577003Y-87998201D01*
X146918874Y-87340072D01*
X148297000Y-87340072D01*
X148421482Y-87327812D01*
X148541180Y-87291502D01*
X148651494Y-87232537D01*
X148748185Y-87153185D01*
X148827537Y-87056494D01*
X148886502Y-86946180D01*
X148908513Y-86873620D01*
X149040368Y-87005475D01*
X149283589Y-87167990D01*
X149553842Y-87279932D01*
X149840740Y-87337000D01*
X150133260Y-87337000D01*
X150420158Y-87279932D01*
X150690411Y-87167990D01*
X150933632Y-87005475D01*
X151140475Y-86798632D01*
X151302990Y-86555411D01*
X151414932Y-86285158D01*
X151472000Y-85998260D01*
X151472000Y-85705740D01*
X151414932Y-85418842D01*
X151302990Y-85148589D01*
X151140475Y-84905368D01*
X150933632Y-84698525D01*
X150690411Y-84536010D01*
X150420158Y-84424068D01*
X150133260Y-84367000D01*
X149840740Y-84367000D01*
X149553842Y-84424068D01*
X149283589Y-84536010D01*
X149040368Y-84698525D01*
X148908513Y-84830380D01*
X148886502Y-84757820D01*
X148827537Y-84647506D01*
X148748185Y-84550815D01*
X148651494Y-84471463D01*
X148541180Y-84412498D01*
X148421482Y-84376188D01*
X148297000Y-84363928D01*
X146597000Y-84363928D01*
X146472518Y-84376188D01*
X146352820Y-84412498D01*
X146242506Y-84471463D01*
X146145815Y-84550815D01*
X146066463Y-84647506D01*
X146007498Y-84757820D01*
X145971188Y-84877518D01*
X145958928Y-85002000D01*
X145958928Y-86380127D01*
X145173804Y-85595003D01*
X145150001Y-85565999D01*
X145034276Y-85471026D01*
X144998072Y-85451674D01*
X144998072Y-85256000D01*
X144985812Y-85131518D01*
X144949502Y-85011820D01*
X144890537Y-84901506D01*
X144811185Y-84804815D01*
X144714494Y-84725463D01*
X144604180Y-84666498D01*
X144484482Y-84630188D01*
X144360000Y-84617928D01*
X142660000Y-84617928D01*
X142535518Y-84630188D01*
X142415820Y-84666498D01*
X142305506Y-84725463D01*
X142208815Y-84804815D01*
X142129463Y-84901506D01*
X142070498Y-85011820D01*
X142034188Y-85131518D01*
X142021928Y-85256000D01*
X142021928Y-86956000D01*
X142034188Y-87080482D01*
X142070498Y-87200180D01*
X142129463Y-87310494D01*
X142208815Y-87407185D01*
X142305506Y-87486537D01*
X142415820Y-87545502D01*
X142488380Y-87567513D01*
X142356525Y-87699368D01*
X142194010Y-87942589D01*
X142082068Y-88212842D01*
X142025000Y-88499740D01*
X142025000Y-88792260D01*
X142082068Y-89079158D01*
X142194010Y-89349411D01*
X142356525Y-89592632D01*
X142563368Y-89799475D01*
X142806589Y-89961990D01*
X143076842Y-90073932D01*
X143363740Y-90131000D01*
X143656260Y-90131000D01*
X143943158Y-90073932D01*
X144213411Y-89961990D01*
X144456632Y-89799475D01*
X144663475Y-89592632D01*
X144825990Y-89349411D01*
X144937932Y-89079158D01*
X144995000Y-88792260D01*
X144995000Y-88499740D01*
X144937932Y-88212842D01*
X144825990Y-87942589D01*
X144663475Y-87699368D01*
X144531620Y-87567513D01*
X144604180Y-87545502D01*
X144714494Y-87486537D01*
X144811185Y-87407185D01*
X144822543Y-87393345D01*
X146306001Y-88876803D01*
X146306000Y-90589867D01*
X146302323Y-90627200D01*
X146316997Y-90776186D01*
X146360454Y-90919447D01*
X146431026Y-91051476D01*
X146525999Y-91167201D01*
X146641724Y-91262174D01*
X146773753Y-91332746D01*
X146917014Y-91376203D01*
X147018484Y-91386197D01*
X147066000Y-91390877D01*
X147103333Y-91387200D01*
X152607813Y-91387200D01*
X152539216Y-91433035D01*
X152395053Y-91577198D01*
X152281785Y-91746716D01*
X152203764Y-91935074D01*
X152163990Y-92135033D01*
X152163990Y-92338911D01*
X152203764Y-92538870D01*
X152257718Y-92669127D01*
X151643278Y-93283567D01*
X151586574Y-93226863D01*
X151417056Y-93113595D01*
X151228698Y-93035574D01*
X151028739Y-92995800D01*
X150824861Y-92995800D01*
X150624902Y-93035574D01*
X150436544Y-93113595D01*
X150267026Y-93226863D01*
X150223089Y-93270800D01*
X147261926Y-93270800D01*
X147224603Y-93267124D01*
X147187280Y-93270800D01*
X147187271Y-93270800D01*
X147075618Y-93281797D01*
X146932357Y-93325254D01*
X146800328Y-93395826D01*
X146684603Y-93490799D01*
X146660805Y-93519797D01*
X144508401Y-95672202D01*
X139723520Y-95672202D01*
X139686197Y-95668526D01*
X139648874Y-95672202D01*
X139648865Y-95672202D01*
X139537212Y-95683199D01*
X139398837Y-95725174D01*
X139393951Y-95726656D01*
X139261921Y-95797228D01*
X139201005Y-95847221D01*
X139146197Y-95892201D01*
X139122399Y-95921199D01*
X136192800Y-98850799D01*
X136192800Y-92025920D01*
X138586307Y-89632414D01*
X138753368Y-89799475D01*
X138996589Y-89961990D01*
X139266842Y-90073932D01*
X139553740Y-90131000D01*
X139846260Y-90131000D01*
X140133158Y-90073932D01*
X140403411Y-89961990D01*
X140646632Y-89799475D01*
X140853475Y-89592632D01*
X141015990Y-89349411D01*
X141127932Y-89079158D01*
X141185000Y-88792260D01*
X141185000Y-88499740D01*
X141127932Y-88212842D01*
X141015990Y-87942589D01*
X140853475Y-87699368D01*
X140721620Y-87567513D01*
X140794180Y-87545502D01*
X140904494Y-87486537D01*
X141001185Y-87407185D01*
X141080537Y-87310494D01*
X141139502Y-87200180D01*
X141175812Y-87080482D01*
X141188072Y-86956000D01*
X141188072Y-85256000D01*
X141175812Y-85131518D01*
X141139502Y-85011820D01*
X141080537Y-84901506D01*
X141001185Y-84804815D01*
X140904494Y-84725463D01*
X140794180Y-84666498D01*
X140674482Y-84630188D01*
X140550000Y-84617928D01*
X138850000Y-84617928D01*
X138725518Y-84630188D01*
X138605820Y-84666498D01*
X138495506Y-84725463D01*
X138398815Y-84804815D01*
X138319463Y-84901506D01*
X138260498Y-85011820D01*
X138224188Y-85131518D01*
X138211928Y-85256000D01*
X138211928Y-86956000D01*
X138224188Y-87080482D01*
X138260498Y-87200180D01*
X138319463Y-87310494D01*
X138398815Y-87407185D01*
X138495506Y-87486537D01*
X138605820Y-87545502D01*
X138678380Y-87567513D01*
X138546525Y-87699368D01*
X138419091Y-87890087D01*
X138348933Y-87896997D01*
X138205672Y-87940454D01*
X138073643Y-88011026D01*
X137957918Y-88105999D01*
X137934120Y-88134997D01*
X134921803Y-91147315D01*
X134892799Y-91171118D01*
X134837671Y-91238293D01*
X134797826Y-91286843D01*
X134750062Y-91376203D01*
X134727254Y-91418873D01*
X134683797Y-91562134D01*
X134672800Y-91673787D01*
X134672800Y-91673797D01*
X134669124Y-91711119D01*
X134672800Y-91748441D01*
X134672801Y-97984513D01*
X134611137Y-97892226D01*
X134556187Y-97837276D01*
X134512746Y-97694068D01*
X134442174Y-97562039D01*
X134347201Y-97446314D01*
X134318203Y-97422516D01*
X131807634Y-94911948D01*
X131783831Y-94882944D01*
X131668106Y-94787971D01*
X131536077Y-94717399D01*
X131392816Y-94673942D01*
X131281163Y-94662945D01*
X131281152Y-94662945D01*
X131243830Y-94659269D01*
X131206508Y-94662945D01*
X127909666Y-94662945D01*
X127903788Y-94661162D01*
X127792135Y-94650165D01*
X127792124Y-94650165D01*
X127754802Y-94646489D01*
X127717480Y-94650165D01*
X127066230Y-94650165D01*
X133878055Y-87838342D01*
X133907048Y-87814548D01*
X133930842Y-87785555D01*
X133930846Y-87785551D01*
X134002020Y-87698824D01*
X134005347Y-87692600D01*
X134072593Y-87566794D01*
X134116050Y-87423533D01*
X134127047Y-87311880D01*
X134127047Y-87311871D01*
X134130723Y-87274548D01*
X134127047Y-87237225D01*
X134127047Y-80790877D01*
X134170984Y-80746940D01*
X134284252Y-80577422D01*
X134362273Y-80389064D01*
X134402047Y-80189105D01*
X134402047Y-79985227D01*
X134362273Y-79785268D01*
X134284252Y-79596910D01*
X134170984Y-79427392D01*
X134026821Y-79283229D01*
X133857303Y-79169961D01*
X133668945Y-79091940D01*
X133468986Y-79052166D01*
X133265108Y-79052166D01*
X133065149Y-79091940D01*
X132876791Y-79169961D01*
X132707273Y-79283229D01*
X132563110Y-79427392D01*
X132449842Y-79596910D01*
X132371821Y-79785268D01*
X132332047Y-79985227D01*
X132332047Y-80143721D01*
X132133702Y-80183174D01*
X131945344Y-80261195D01*
X131775826Y-80374463D01*
X131631663Y-80518626D01*
X131518395Y-80688144D01*
X131440374Y-80876502D01*
X131400600Y-81076461D01*
X131400600Y-81280339D01*
X131440374Y-81480298D01*
X131518395Y-81668656D01*
X131631663Y-81838174D01*
X131675600Y-81882111D01*
X131675601Y-87183019D01*
X130608148Y-88250473D01*
X130551040Y-88193365D01*
X130381522Y-88080097D01*
X130193164Y-88002076D01*
X130082898Y-87980143D01*
X130082898Y-84619819D01*
X130126835Y-84575882D01*
X130240103Y-84406364D01*
X130318124Y-84218006D01*
X130357898Y-84018047D01*
X130357898Y-83814169D01*
X130318124Y-83614210D01*
X130240103Y-83425852D01*
X130126835Y-83256334D01*
X129982672Y-83112171D01*
X129813154Y-82998903D01*
X129656189Y-82933886D01*
X129620826Y-82756102D01*
X129542805Y-82567744D01*
X129429537Y-82398226D01*
X129285374Y-82254063D01*
X129115856Y-82140795D01*
X128927498Y-82062774D01*
X128727539Y-82023000D01*
X128523661Y-82023000D01*
X128323702Y-82062774D01*
X128135344Y-82140795D01*
X127965826Y-82254063D01*
X127821663Y-82398226D01*
X127708395Y-82567744D01*
X127630374Y-82756102D01*
X127590600Y-82956061D01*
X127590600Y-83033774D01*
X127532899Y-83141724D01*
X127520055Y-83165753D01*
X127476598Y-83309014D01*
X127465601Y-83420667D01*
X127465601Y-83420677D01*
X127461925Y-83457999D01*
X127465601Y-83495322D01*
X127465602Y-87934467D01*
X127461925Y-87971799D01*
X127465602Y-88009132D01*
X127476599Y-88120785D01*
X127481423Y-88136688D01*
X127520055Y-88264045D01*
X127590627Y-88396075D01*
X127648233Y-88466267D01*
X127685601Y-88511800D01*
X127714599Y-88535598D01*
X127952150Y-88773149D01*
X127911581Y-88871091D01*
X127871807Y-89071050D01*
X127871807Y-89274928D01*
X127911581Y-89474887D01*
X127989602Y-89663245D01*
X128102870Y-89832763D01*
X128247033Y-89976926D01*
X128416551Y-90090194D01*
X128604909Y-90168215D01*
X128676221Y-90182400D01*
X125970262Y-92888359D01*
X125911638Y-92849188D01*
X125723280Y-92771167D01*
X125523321Y-92731393D01*
X125319443Y-92731393D01*
X125119484Y-92771167D01*
X124931126Y-92849188D01*
X124761608Y-92962456D01*
X124617445Y-93106619D01*
X124504177Y-93276137D01*
X124446381Y-93415669D01*
X116939600Y-85908889D01*
X116939600Y-85547631D01*
X116966974Y-85514276D01*
X117037546Y-85382247D01*
X117081003Y-85238986D01*
X117092000Y-85127333D01*
X117092000Y-85127324D01*
X117095676Y-85090001D01*
X117092137Y-85054072D01*
X117182000Y-85054072D01*
X117306482Y-85041812D01*
X117426180Y-85005502D01*
X117536494Y-84946537D01*
X117633185Y-84867185D01*
X117712537Y-84770494D01*
X117771502Y-84660180D01*
X117807812Y-84540482D01*
X117820072Y-84416000D01*
X117820072Y-82716000D01*
X117807812Y-82591518D01*
X117771502Y-82471820D01*
X117712537Y-82361506D01*
X117633185Y-82264815D01*
X117536494Y-82185463D01*
X117426180Y-82126498D01*
X117353620Y-82104487D01*
X117485475Y-81972632D01*
X117647990Y-81729411D01*
X117759932Y-81459158D01*
X117817000Y-81172260D01*
X117817000Y-80879740D01*
X117759932Y-80592842D01*
X117647990Y-80322589D01*
X117485475Y-80079368D01*
X117278632Y-79872525D01*
X117035411Y-79710010D01*
X116765158Y-79598068D01*
X116478260Y-79541000D01*
X116185740Y-79541000D01*
X115898842Y-79598068D01*
X115628589Y-79710010D01*
X115385368Y-79872525D01*
X115178525Y-80079368D01*
X115016010Y-80322589D01*
X114904068Y-80592842D01*
X114847000Y-80879740D01*
X114847000Y-81172260D01*
X114904068Y-81459158D01*
X115016010Y-81729411D01*
X115178525Y-81972632D01*
X115310380Y-82104487D01*
X115237820Y-82126498D01*
X115127506Y-82185463D01*
X115030815Y-82264815D01*
X114951463Y-82361506D01*
X114892498Y-82471820D01*
X114856188Y-82591518D01*
X114843928Y-82716000D01*
X114843928Y-84416000D01*
X114856188Y-84540482D01*
X114892498Y-84660180D01*
X114951463Y-84770494D01*
X115030815Y-84867185D01*
X115127506Y-84946537D01*
X115237820Y-85005502D01*
X115357518Y-85041812D01*
X115443677Y-85050298D01*
X115431634Y-85090001D01*
X115430598Y-85093415D01*
X115415924Y-85242400D01*
X115419601Y-85279732D01*
X115419600Y-86186367D01*
X115415924Y-86223690D01*
X115419600Y-86261012D01*
X115419600Y-86261022D01*
X115430597Y-86372675D01*
X115472518Y-86510871D01*
X115474054Y-86515936D01*
X115544626Y-86647966D01*
X115584471Y-86696516D01*
X115639599Y-86763691D01*
X115668603Y-86787494D01*
X124004047Y-95122939D01*
X122916143Y-95122939D01*
X119049989Y-91256786D01*
X119049989Y-91194648D01*
X119010215Y-90994689D01*
X118932194Y-90806331D01*
X118818926Y-90636813D01*
X118674763Y-90492650D01*
X118505245Y-90379382D01*
X118316887Y-90301361D01*
X118116928Y-90261587D01*
X117913050Y-90261587D01*
X117713091Y-90301361D01*
X117524733Y-90379382D01*
X117355215Y-90492650D01*
X117211052Y-90636813D01*
X117097784Y-90806331D01*
X117019763Y-90994689D01*
X116979989Y-91194648D01*
X116979989Y-91398526D01*
X117019763Y-91598485D01*
X117097784Y-91786843D01*
X117211052Y-91956361D01*
X117355215Y-92100524D01*
X117524733Y-92213792D01*
X117713091Y-92291813D01*
X117913050Y-92331587D01*
X117975188Y-92331587D01*
X121882298Y-96238698D01*
X117957387Y-100163610D01*
X117928383Y-100187413D01*
X117893371Y-100230076D01*
X117833410Y-100303138D01*
X117764081Y-100432842D01*
X117762838Y-100435168D01*
X117719381Y-100578429D01*
X117708384Y-100690082D01*
X117708384Y-100690092D01*
X117704708Y-100727414D01*
X117708384Y-100764737D01*
X117708385Y-106346329D01*
X117664447Y-106390267D01*
X117551179Y-106559785D01*
X117473158Y-106748143D01*
X117433384Y-106948102D01*
X117433384Y-107151980D01*
X117473158Y-107351939D01*
X117551179Y-107540297D01*
X117664447Y-107709815D01*
X117808610Y-107853978D01*
X117978128Y-107967246D01*
X118166486Y-108045267D01*
X118366445Y-108085041D01*
X118570323Y-108085041D01*
X118770282Y-108045267D01*
X118811467Y-108028207D01*
X118818198Y-108033731D01*
X120751187Y-109966721D01*
X120751187Y-110028858D01*
X120790961Y-110228817D01*
X120868982Y-110417175D01*
X120982250Y-110586693D01*
X121126413Y-110730856D01*
X121295931Y-110844124D01*
X121484289Y-110922145D01*
X121684248Y-110961919D01*
X121888126Y-110961919D01*
X122088085Y-110922145D01*
X122276443Y-110844124D01*
X122445961Y-110730856D01*
X122590124Y-110586693D01*
X122703392Y-110417175D01*
X122781413Y-110228817D01*
X122821187Y-110028858D01*
X122821187Y-109824980D01*
X122781413Y-109625021D01*
X122703392Y-109436663D01*
X122590124Y-109267145D01*
X122445961Y-109122982D01*
X122276443Y-109009714D01*
X122088085Y-108931693D01*
X121888126Y-108891919D01*
X121825989Y-108891919D01*
X121677617Y-108743547D01*
X121786846Y-108698302D01*
X121956364Y-108585034D01*
X122100527Y-108440871D01*
X122213795Y-108271353D01*
X122291816Y-108082995D01*
X122331590Y-107883036D01*
X122331590Y-107679158D01*
X122291816Y-107479199D01*
X122237861Y-107348942D01*
X123225004Y-106361800D01*
X123254002Y-106338002D01*
X123348975Y-106222277D01*
X123419547Y-106090248D01*
X123444527Y-106007899D01*
X123793250Y-106006000D01*
X123952000Y-105847250D01*
X123952000Y-104648000D01*
X123932000Y-104648000D01*
X123932000Y-104394000D01*
X123952000Y-104394000D01*
X123952000Y-103194750D01*
X123793250Y-103036000D01*
X123474001Y-103034262D01*
X123474001Y-101754389D01*
X124006786Y-101221605D01*
X124007991Y-101233841D01*
X124007991Y-101699247D01*
X124004315Y-101736569D01*
X124007991Y-101773891D01*
X124007991Y-101773901D01*
X124018988Y-101885554D01*
X124062445Y-102028815D01*
X124133017Y-102160845D01*
X124166637Y-102201811D01*
X124227990Y-102276570D01*
X124256994Y-102300373D01*
X124512801Y-102556180D01*
X124512801Y-103035194D01*
X124364750Y-103036000D01*
X124206000Y-103194750D01*
X124206000Y-104394000D01*
X124226000Y-104394000D01*
X124226000Y-104648000D01*
X124206000Y-104648000D01*
X124206000Y-105847250D01*
X124364750Y-106006000D01*
X124512801Y-106006806D01*
X124512801Y-106508600D01*
X124408861Y-106508600D01*
X124208902Y-106548374D01*
X124020544Y-106626395D01*
X123851026Y-106739663D01*
X123706863Y-106883826D01*
X123593595Y-107053344D01*
X123515574Y-107241702D01*
X123475800Y-107441661D01*
X123475800Y-107645539D01*
X123515574Y-107845498D01*
X123593595Y-108033856D01*
X123706863Y-108203374D01*
X123851026Y-108347537D01*
X124020544Y-108460805D01*
X124040275Y-108468978D01*
X123975354Y-108566139D01*
X123897333Y-108754497D01*
X123857559Y-108954456D01*
X123857559Y-109158334D01*
X123897333Y-109358293D01*
X123975354Y-109546651D01*
X124088622Y-109716169D01*
X124232785Y-109860332D01*
X124402303Y-109973600D01*
X124590661Y-110051621D01*
X124790620Y-110091395D01*
X124852757Y-110091395D01*
X124873364Y-110112002D01*
X124897163Y-110141001D01*
X125012888Y-110235974D01*
X125144917Y-110306546D01*
X125288178Y-110350003D01*
X125399831Y-110361000D01*
X125399839Y-110361000D01*
X125437164Y-110364676D01*
X125474489Y-110361000D01*
X125645267Y-110361000D01*
X125776000Y-110491733D01*
X125945518Y-110605001D01*
X125970160Y-110615208D01*
X125951917Y-110642511D01*
X125873896Y-110830869D01*
X125834122Y-111030828D01*
X125834122Y-111092965D01*
X120931233Y-115995855D01*
X120931233Y-111565681D01*
X120934910Y-111528348D01*
X120920236Y-111379362D01*
X120876779Y-111236101D01*
X120806207Y-111104072D01*
X120735032Y-111017345D01*
X120711234Y-110988347D01*
X120682236Y-110964549D01*
X118643699Y-108926013D01*
X118619896Y-108897009D01*
X118504171Y-108802036D01*
X118372142Y-108731464D01*
X118228934Y-108688023D01*
X118173984Y-108633073D01*
X118004466Y-108519805D01*
X117816108Y-108441784D01*
X117616149Y-108402010D01*
X117412271Y-108402010D01*
X117212312Y-108441784D01*
X117023954Y-108519805D01*
X116854436Y-108633073D01*
X116710273Y-108777236D01*
X116597005Y-108946754D01*
X116591191Y-108960790D01*
X116591191Y-100420490D01*
X116690502Y-100461626D01*
X116890461Y-100501400D01*
X117094339Y-100501400D01*
X117294298Y-100461626D01*
X117482656Y-100383605D01*
X117652174Y-100270337D01*
X117796337Y-100126174D01*
X117909605Y-99956656D01*
X117987626Y-99768298D01*
X118027400Y-99568339D01*
X118027400Y-99506201D01*
X118773403Y-98760199D01*
X118802401Y-98736401D01*
X118897374Y-98620676D01*
X118967946Y-98488647D01*
X119011403Y-98345386D01*
X119022400Y-98233733D01*
X119022400Y-98233724D01*
X119026076Y-98196401D01*
X119022400Y-98159078D01*
X119022400Y-97528511D01*
X119066337Y-97484574D01*
X119179605Y-97315056D01*
X119257626Y-97126698D01*
X119297400Y-96926739D01*
X119297400Y-96722861D01*
X119257626Y-96522902D01*
X119179605Y-96334544D01*
X119066337Y-96165026D01*
X118922174Y-96020863D01*
X118752656Y-95907595D01*
X118564298Y-95829574D01*
X118364339Y-95789800D01*
X118160461Y-95789800D01*
X117960502Y-95829574D01*
X117772144Y-95907595D01*
X117602626Y-96020863D01*
X117458463Y-96165026D01*
X117345195Y-96334544D01*
X117267174Y-96522902D01*
X117227400Y-96722861D01*
X117227400Y-96926739D01*
X117267174Y-97126698D01*
X117305337Y-97218831D01*
X117285528Y-97214891D01*
X117081650Y-97214891D01*
X116881691Y-97254665D01*
X116693333Y-97332686D01*
X116523815Y-97445954D01*
X116379652Y-97590117D01*
X116294454Y-97717625D01*
X116300200Y-97688739D01*
X116300200Y-97484861D01*
X116260426Y-97284902D01*
X116182405Y-97096544D01*
X116069137Y-96927026D01*
X116014187Y-96872076D01*
X115970746Y-96728868D01*
X115900174Y-96596839D01*
X115805201Y-96481114D01*
X115776203Y-96457316D01*
X114955935Y-95637049D01*
X114953804Y-95615415D01*
X114910347Y-95472154D01*
X114839775Y-95340125D01*
X114814360Y-95309157D01*
X114744802Y-95224400D01*
X114715804Y-95200602D01*
X111169209Y-91654008D01*
X111213000Y-91433860D01*
X111213000Y-91141340D01*
X111155932Y-90854442D01*
X111043990Y-90584189D01*
X110881475Y-90340968D01*
X110674632Y-90134125D01*
X110500240Y-90017600D01*
X110674632Y-89901075D01*
X110881475Y-89694232D01*
X111043990Y-89451011D01*
X111155932Y-89180758D01*
X111213000Y-88893860D01*
X111213000Y-88601340D01*
X111155932Y-88314442D01*
X111043990Y-88044189D01*
X110881475Y-87800968D01*
X110674632Y-87594125D01*
X110500240Y-87477600D01*
X110674632Y-87361075D01*
X110881475Y-87154232D01*
X111043990Y-86911011D01*
X111155932Y-86640758D01*
X111213000Y-86353860D01*
X111213000Y-86061340D01*
X111155932Y-85774442D01*
X111043990Y-85504189D01*
X110881475Y-85260968D01*
X110674632Y-85054125D01*
X110500240Y-84937600D01*
X110674632Y-84821075D01*
X110881475Y-84614232D01*
X111043990Y-84371011D01*
X111155932Y-84100758D01*
X111213000Y-83813860D01*
X111213000Y-83521340D01*
X111155932Y-83234442D01*
X111043990Y-82964189D01*
X110881475Y-82720968D01*
X110674632Y-82514125D01*
X110500240Y-82397600D01*
X110674632Y-82281075D01*
X110881475Y-82074232D01*
X111043990Y-81831011D01*
X111155932Y-81560758D01*
X111213000Y-81273860D01*
X111213000Y-80981340D01*
X111155932Y-80694442D01*
X111043990Y-80424189D01*
X110881475Y-80180968D01*
X110674632Y-79974125D01*
X110500240Y-79857600D01*
X110674632Y-79741075D01*
X110881475Y-79534232D01*
X111043990Y-79291011D01*
X111155932Y-79020758D01*
X111213000Y-78733860D01*
X111213000Y-78441340D01*
X111155932Y-78154442D01*
X111043990Y-77884189D01*
X110881475Y-77640968D01*
X110749620Y-77509113D01*
X110822180Y-77487102D01*
X110932494Y-77428137D01*
X111029185Y-77348785D01*
X111108537Y-77252094D01*
X111167502Y-77141780D01*
X111203812Y-77022082D01*
X111216072Y-76897600D01*
X111216072Y-75197600D01*
X111203812Y-75073118D01*
X111167502Y-74953420D01*
X111112198Y-74849956D01*
X131093663Y-74831316D01*
X131074742Y-74866715D01*
X131012700Y-75071238D01*
X130997000Y-75230641D01*
X130997000Y-76237228D01*
X131012700Y-76396631D01*
X131074741Y-76601154D01*
X131175491Y-76789645D01*
X131311078Y-76954857D01*
X131476290Y-77090444D01*
X131664780Y-77191194D01*
X131869303Y-77253235D01*
X132082000Y-77274184D01*
X132294696Y-77253235D01*
X132499219Y-77191194D01*
X132687710Y-77090444D01*
X132852922Y-76954857D01*
X132988509Y-76789645D01*
X133089259Y-76601155D01*
X133151300Y-76396632D01*
X133167000Y-76237229D01*
X133167000Y-75230642D01*
X133151300Y-75071238D01*
X133089259Y-74866715D01*
X133069353Y-74829473D01*
X137696956Y-74825156D01*
X137674742Y-74866715D01*
X137612700Y-75071238D01*
X137597000Y-75230641D01*
X137597000Y-76237228D01*
X137612700Y-76396631D01*
X137674741Y-76601154D01*
X137775491Y-76789645D01*
X137911078Y-76954857D01*
X138076290Y-77090444D01*
X138264780Y-77191194D01*
X138469303Y-77253235D01*
X138682000Y-77274184D01*
X138894696Y-77253235D01*
X139099219Y-77191194D01*
X139287710Y-77090444D01*
X139452922Y-76954857D01*
X139588509Y-76789645D01*
X139689259Y-76601155D01*
X139751300Y-76396632D01*
X139767000Y-76237229D01*
X139767000Y-75230642D01*
X139751300Y-75071238D01*
X139689259Y-74866715D01*
X139666064Y-74823319D01*
X159169523Y-74805126D01*
X159096663Y-74893906D01*
G37*
G04 #@! TD.AperFunction*
D15*
X113453667Y-96088069D02*
X113455798Y-96109701D01*
X113485276Y-96206878D01*
X113499255Y-96252962D01*
X113569827Y-96384992D01*
X113607219Y-96430554D01*
X113664800Y-96500717D01*
X113693803Y-96524520D01*
X114323929Y-97154645D01*
X114269974Y-97284902D01*
X114230200Y-97484861D01*
X114230200Y-97688739D01*
X114269974Y-97888698D01*
X114347995Y-98077056D01*
X114461263Y-98246574D01*
X114605426Y-98390737D01*
X114774944Y-98504005D01*
X114963302Y-98582026D01*
X115163261Y-98621800D01*
X115367139Y-98621800D01*
X115567098Y-98582026D01*
X115755456Y-98504005D01*
X115924974Y-98390737D01*
X116069137Y-98246574D01*
X116154335Y-98119066D01*
X116148589Y-98147952D01*
X116148589Y-98210089D01*
X115320194Y-99038485D01*
X115291190Y-99062288D01*
X115256417Y-99104660D01*
X115196217Y-99178013D01*
X115147303Y-99269524D01*
X115125645Y-99310043D01*
X115082188Y-99453304D01*
X115071191Y-99564957D01*
X115071191Y-99564967D01*
X115067515Y-99602289D01*
X115071191Y-99639611D01*
X115071192Y-109859578D01*
X115067515Y-109896910D01*
X115071192Y-109934243D01*
X115082189Y-110045896D01*
X115090103Y-110071984D01*
X115125645Y-110189156D01*
X115196217Y-110321186D01*
X115247575Y-110383765D01*
X115291191Y-110436911D01*
X115320189Y-110460709D01*
X115747287Y-110887808D01*
X115747287Y-110949945D01*
X115787061Y-111149904D01*
X115865082Y-111338262D01*
X115978350Y-111507780D01*
X116122513Y-111651943D01*
X116292031Y-111765211D01*
X116359239Y-111793050D01*
X116340863Y-111811426D01*
X116227595Y-111980944D01*
X116149574Y-112169302D01*
X116109800Y-112369261D01*
X116109800Y-112573139D01*
X116149574Y-112773098D01*
X116227595Y-112961456D01*
X116340863Y-113130974D01*
X116485026Y-113275137D01*
X116654544Y-113388405D01*
X116842902Y-113466426D01*
X117042861Y-113506200D01*
X117104999Y-113506200D01*
X118220212Y-114621414D01*
X118220213Y-118070269D01*
X118128135Y-118061200D01*
X118128124Y-118061200D01*
X118090802Y-118057524D01*
X118053480Y-118061200D01*
X117035711Y-118061200D01*
X116991774Y-118017263D01*
X116822256Y-117903995D01*
X116633898Y-117825974D01*
X116433939Y-117786200D01*
X116230061Y-117786200D01*
X116030102Y-117825974D01*
X115841744Y-117903995D01*
X115672226Y-118017263D01*
X115528063Y-118161426D01*
X115414795Y-118330944D01*
X115336774Y-118519302D01*
X115297000Y-118719261D01*
X115297000Y-118923139D01*
X115336774Y-119123098D01*
X115414795Y-119311456D01*
X115528063Y-119480974D01*
X115672226Y-119625137D01*
X115841744Y-119738405D01*
X116030102Y-119816426D01*
X116230061Y-119856200D01*
X116433939Y-119856200D01*
X116633898Y-119816426D01*
X116822256Y-119738405D01*
X116991774Y-119625137D01*
X117035711Y-119581200D01*
X117766568Y-119581200D01*
X117770201Y-119618087D01*
X117770201Y-119618098D01*
X117781198Y-119729751D01*
X117824655Y-119873012D01*
X117895227Y-120005041D01*
X117990200Y-120120766D01*
X118019203Y-120144568D01*
X118162800Y-120288165D01*
X118162801Y-121339395D01*
X116678002Y-122824195D01*
X116648998Y-122847998D01*
X116609447Y-122896192D01*
X116554025Y-122963723D01*
X116522985Y-123021795D01*
X116483453Y-123095753D01*
X116439996Y-123239014D01*
X116428999Y-123350667D01*
X116428999Y-123350677D01*
X116425323Y-123387999D01*
X116428999Y-123425322D01*
X116429000Y-124478669D01*
X116425323Y-124516001D01*
X116429000Y-124553334D01*
X116439997Y-124664987D01*
X116453179Y-124708443D01*
X116483453Y-124808247D01*
X116554025Y-124940277D01*
X116625200Y-125027003D01*
X116648999Y-125056002D01*
X116677996Y-125079799D01*
X117015899Y-125417703D01*
X110716776Y-125405951D01*
X110825588Y-125307869D01*
X110999641Y-125074520D01*
X111124825Y-124811699D01*
X111169476Y-124664490D01*
X111048155Y-124434600D01*
X109855000Y-124434600D01*
X109855000Y-124454600D01*
X109601000Y-124454600D01*
X109601000Y-124434600D01*
X109581000Y-124434600D01*
X109581000Y-124180600D01*
X109601000Y-124180600D01*
X109601000Y-124160600D01*
X109855000Y-124160600D01*
X109855000Y-124180600D01*
X111048155Y-124180600D01*
X111169476Y-123950710D01*
X111124825Y-123803501D01*
X110999641Y-123540680D01*
X110825588Y-123307331D01*
X110609355Y-123112422D01*
X110492466Y-123042795D01*
X110674632Y-122921075D01*
X110881475Y-122714232D01*
X111043990Y-122471011D01*
X111155932Y-122200758D01*
X111213000Y-121913860D01*
X111213000Y-121621340D01*
X111155932Y-121334442D01*
X111043990Y-121064189D01*
X110881475Y-120820968D01*
X110674632Y-120614125D01*
X110500240Y-120497600D01*
X110674632Y-120381075D01*
X110881475Y-120174232D01*
X111043990Y-119931011D01*
X111155932Y-119660758D01*
X111213000Y-119373860D01*
X111213000Y-119081340D01*
X111155932Y-118794442D01*
X111043990Y-118524189D01*
X110881475Y-118280968D01*
X110674632Y-118074125D01*
X110500240Y-117957600D01*
X110674632Y-117841075D01*
X110881475Y-117634232D01*
X111043990Y-117391011D01*
X111155932Y-117120758D01*
X111213000Y-116833860D01*
X111213000Y-116541340D01*
X111155932Y-116254442D01*
X111043990Y-115984189D01*
X110881475Y-115740968D01*
X110674632Y-115534125D01*
X110500240Y-115417600D01*
X110674632Y-115301075D01*
X110881475Y-115094232D01*
X111043990Y-114851011D01*
X111155932Y-114580758D01*
X111213000Y-114293860D01*
X111213000Y-114001340D01*
X111155932Y-113714442D01*
X111043990Y-113444189D01*
X110881475Y-113200968D01*
X110674632Y-112994125D01*
X110500240Y-112877600D01*
X110674632Y-112761075D01*
X110881475Y-112554232D01*
X111043990Y-112311011D01*
X111155932Y-112040758D01*
X111213000Y-111753860D01*
X111213000Y-111461340D01*
X111155932Y-111174442D01*
X111043990Y-110904189D01*
X110881475Y-110660968D01*
X110674632Y-110454125D01*
X110500240Y-110337600D01*
X110674632Y-110221075D01*
X110881475Y-110014232D01*
X111043990Y-109771011D01*
X111155932Y-109500758D01*
X111213000Y-109213860D01*
X111213000Y-108921340D01*
X111155932Y-108634442D01*
X111043990Y-108364189D01*
X110881475Y-108120968D01*
X110674632Y-107914125D01*
X110500240Y-107797600D01*
X110674632Y-107681075D01*
X110881475Y-107474232D01*
X111043990Y-107231011D01*
X111155932Y-106960758D01*
X111213000Y-106673860D01*
X111213000Y-106381340D01*
X111155932Y-106094442D01*
X111043990Y-105824189D01*
X110881475Y-105580968D01*
X110674632Y-105374125D01*
X110500240Y-105257600D01*
X110674632Y-105141075D01*
X110881475Y-104934232D01*
X111043990Y-104691011D01*
X111155932Y-104420758D01*
X111213000Y-104133860D01*
X111213000Y-103841340D01*
X111155932Y-103554442D01*
X111043990Y-103284189D01*
X110881475Y-103040968D01*
X110674632Y-102834125D01*
X110500240Y-102717600D01*
X110674632Y-102601075D01*
X110881475Y-102394232D01*
X111043990Y-102151011D01*
X111155932Y-101880758D01*
X111213000Y-101593860D01*
X111213000Y-101301340D01*
X111155932Y-101014442D01*
X111043990Y-100744189D01*
X110881475Y-100500968D01*
X110674632Y-100294125D01*
X110500240Y-100177600D01*
X110674632Y-100061075D01*
X110881475Y-99854232D01*
X111043990Y-99611011D01*
X111155932Y-99340758D01*
X111213000Y-99053860D01*
X111213000Y-98761340D01*
X111155932Y-98474442D01*
X111043990Y-98204189D01*
X110881475Y-97960968D01*
X110674632Y-97754125D01*
X110500240Y-97637600D01*
X110674632Y-97521075D01*
X110881475Y-97314232D01*
X111043990Y-97071011D01*
X111155932Y-96800758D01*
X111213000Y-96513860D01*
X111213000Y-96221340D01*
X111155932Y-95934442D01*
X111043990Y-95664189D01*
X110881475Y-95420968D01*
X110674632Y-95214125D01*
X110500240Y-95097600D01*
X110674632Y-94981075D01*
X110881475Y-94774232D01*
X111043990Y-94531011D01*
X111155932Y-94260758D01*
X111213000Y-93973860D01*
X111213000Y-93847401D01*
X113453667Y-96088069D01*
G04 #@! TA.AperFunction,Conductor*
D16*
G36*
X113453667Y-96088069D02*
G01*
X113455798Y-96109701D01*
X113485276Y-96206878D01*
X113499255Y-96252962D01*
X113569827Y-96384992D01*
X113607219Y-96430554D01*
X113664800Y-96500717D01*
X113693803Y-96524520D01*
X114323929Y-97154645D01*
X114269974Y-97284902D01*
X114230200Y-97484861D01*
X114230200Y-97688739D01*
X114269974Y-97888698D01*
X114347995Y-98077056D01*
X114461263Y-98246574D01*
X114605426Y-98390737D01*
X114774944Y-98504005D01*
X114963302Y-98582026D01*
X115163261Y-98621800D01*
X115367139Y-98621800D01*
X115567098Y-98582026D01*
X115755456Y-98504005D01*
X115924974Y-98390737D01*
X116069137Y-98246574D01*
X116154335Y-98119066D01*
X116148589Y-98147952D01*
X116148589Y-98210089D01*
X115320194Y-99038485D01*
X115291190Y-99062288D01*
X115256417Y-99104660D01*
X115196217Y-99178013D01*
X115147303Y-99269524D01*
X115125645Y-99310043D01*
X115082188Y-99453304D01*
X115071191Y-99564957D01*
X115071191Y-99564967D01*
X115067515Y-99602289D01*
X115071191Y-99639611D01*
X115071192Y-109859578D01*
X115067515Y-109896910D01*
X115071192Y-109934243D01*
X115082189Y-110045896D01*
X115090103Y-110071984D01*
X115125645Y-110189156D01*
X115196217Y-110321186D01*
X115247575Y-110383765D01*
X115291191Y-110436911D01*
X115320189Y-110460709D01*
X115747287Y-110887808D01*
X115747287Y-110949945D01*
X115787061Y-111149904D01*
X115865082Y-111338262D01*
X115978350Y-111507780D01*
X116122513Y-111651943D01*
X116292031Y-111765211D01*
X116359239Y-111793050D01*
X116340863Y-111811426D01*
X116227595Y-111980944D01*
X116149574Y-112169302D01*
X116109800Y-112369261D01*
X116109800Y-112573139D01*
X116149574Y-112773098D01*
X116227595Y-112961456D01*
X116340863Y-113130974D01*
X116485026Y-113275137D01*
X116654544Y-113388405D01*
X116842902Y-113466426D01*
X117042861Y-113506200D01*
X117104999Y-113506200D01*
X118220212Y-114621414D01*
X118220213Y-118070269D01*
X118128135Y-118061200D01*
X118128124Y-118061200D01*
X118090802Y-118057524D01*
X118053480Y-118061200D01*
X117035711Y-118061200D01*
X116991774Y-118017263D01*
X116822256Y-117903995D01*
X116633898Y-117825974D01*
X116433939Y-117786200D01*
X116230061Y-117786200D01*
X116030102Y-117825974D01*
X115841744Y-117903995D01*
X115672226Y-118017263D01*
X115528063Y-118161426D01*
X115414795Y-118330944D01*
X115336774Y-118519302D01*
X115297000Y-118719261D01*
X115297000Y-118923139D01*
X115336774Y-119123098D01*
X115414795Y-119311456D01*
X115528063Y-119480974D01*
X115672226Y-119625137D01*
X115841744Y-119738405D01*
X116030102Y-119816426D01*
X116230061Y-119856200D01*
X116433939Y-119856200D01*
X116633898Y-119816426D01*
X116822256Y-119738405D01*
X116991774Y-119625137D01*
X117035711Y-119581200D01*
X117766568Y-119581200D01*
X117770201Y-119618087D01*
X117770201Y-119618098D01*
X117781198Y-119729751D01*
X117824655Y-119873012D01*
X117895227Y-120005041D01*
X117990200Y-120120766D01*
X118019203Y-120144568D01*
X118162800Y-120288165D01*
X118162801Y-121339395D01*
X116678002Y-122824195D01*
X116648998Y-122847998D01*
X116609447Y-122896192D01*
X116554025Y-122963723D01*
X116522985Y-123021795D01*
X116483453Y-123095753D01*
X116439996Y-123239014D01*
X116428999Y-123350667D01*
X116428999Y-123350677D01*
X116425323Y-123387999D01*
X116428999Y-123425322D01*
X116429000Y-124478669D01*
X116425323Y-124516001D01*
X116429000Y-124553334D01*
X116439997Y-124664987D01*
X116453179Y-124708443D01*
X116483453Y-124808247D01*
X116554025Y-124940277D01*
X116625200Y-125027003D01*
X116648999Y-125056002D01*
X116677996Y-125079799D01*
X117015899Y-125417703D01*
X110716776Y-125405951D01*
X110825588Y-125307869D01*
X110999641Y-125074520D01*
X111124825Y-124811699D01*
X111169476Y-124664490D01*
X111048155Y-124434600D01*
X109855000Y-124434600D01*
X109855000Y-124454600D01*
X109601000Y-124454600D01*
X109601000Y-124434600D01*
X109581000Y-124434600D01*
X109581000Y-124180600D01*
X109601000Y-124180600D01*
X109601000Y-124160600D01*
X109855000Y-124160600D01*
X109855000Y-124180600D01*
X111048155Y-124180600D01*
X111169476Y-123950710D01*
X111124825Y-123803501D01*
X110999641Y-123540680D01*
X110825588Y-123307331D01*
X110609355Y-123112422D01*
X110492466Y-123042795D01*
X110674632Y-122921075D01*
X110881475Y-122714232D01*
X111043990Y-122471011D01*
X111155932Y-122200758D01*
X111213000Y-121913860D01*
X111213000Y-121621340D01*
X111155932Y-121334442D01*
X111043990Y-121064189D01*
X110881475Y-120820968D01*
X110674632Y-120614125D01*
X110500240Y-120497600D01*
X110674632Y-120381075D01*
X110881475Y-120174232D01*
X111043990Y-119931011D01*
X111155932Y-119660758D01*
X111213000Y-119373860D01*
X111213000Y-119081340D01*
X111155932Y-118794442D01*
X111043990Y-118524189D01*
X110881475Y-118280968D01*
X110674632Y-118074125D01*
X110500240Y-117957600D01*
X110674632Y-117841075D01*
X110881475Y-117634232D01*
X111043990Y-117391011D01*
X111155932Y-117120758D01*
X111213000Y-116833860D01*
X111213000Y-116541340D01*
X111155932Y-116254442D01*
X111043990Y-115984189D01*
X110881475Y-115740968D01*
X110674632Y-115534125D01*
X110500240Y-115417600D01*
X110674632Y-115301075D01*
X110881475Y-115094232D01*
X111043990Y-114851011D01*
X111155932Y-114580758D01*
X111213000Y-114293860D01*
X111213000Y-114001340D01*
X111155932Y-113714442D01*
X111043990Y-113444189D01*
X110881475Y-113200968D01*
X110674632Y-112994125D01*
X110500240Y-112877600D01*
X110674632Y-112761075D01*
X110881475Y-112554232D01*
X111043990Y-112311011D01*
X111155932Y-112040758D01*
X111213000Y-111753860D01*
X111213000Y-111461340D01*
X111155932Y-111174442D01*
X111043990Y-110904189D01*
X110881475Y-110660968D01*
X110674632Y-110454125D01*
X110500240Y-110337600D01*
X110674632Y-110221075D01*
X110881475Y-110014232D01*
X111043990Y-109771011D01*
X111155932Y-109500758D01*
X111213000Y-109213860D01*
X111213000Y-108921340D01*
X111155932Y-108634442D01*
X111043990Y-108364189D01*
X110881475Y-108120968D01*
X110674632Y-107914125D01*
X110500240Y-107797600D01*
X110674632Y-107681075D01*
X110881475Y-107474232D01*
X111043990Y-107231011D01*
X111155932Y-106960758D01*
X111213000Y-106673860D01*
X111213000Y-106381340D01*
X111155932Y-106094442D01*
X111043990Y-105824189D01*
X110881475Y-105580968D01*
X110674632Y-105374125D01*
X110500240Y-105257600D01*
X110674632Y-105141075D01*
X110881475Y-104934232D01*
X111043990Y-104691011D01*
X111155932Y-104420758D01*
X111213000Y-104133860D01*
X111213000Y-103841340D01*
X111155932Y-103554442D01*
X111043990Y-103284189D01*
X110881475Y-103040968D01*
X110674632Y-102834125D01*
X110500240Y-102717600D01*
X110674632Y-102601075D01*
X110881475Y-102394232D01*
X111043990Y-102151011D01*
X111155932Y-101880758D01*
X111213000Y-101593860D01*
X111213000Y-101301340D01*
X111155932Y-101014442D01*
X111043990Y-100744189D01*
X110881475Y-100500968D01*
X110674632Y-100294125D01*
X110500240Y-100177600D01*
X110674632Y-100061075D01*
X110881475Y-99854232D01*
X111043990Y-99611011D01*
X111155932Y-99340758D01*
X111213000Y-99053860D01*
X111213000Y-98761340D01*
X111155932Y-98474442D01*
X111043990Y-98204189D01*
X110881475Y-97960968D01*
X110674632Y-97754125D01*
X110500240Y-97637600D01*
X110674632Y-97521075D01*
X110881475Y-97314232D01*
X111043990Y-97071011D01*
X111155932Y-96800758D01*
X111213000Y-96513860D01*
X111213000Y-96221340D01*
X111155932Y-95934442D01*
X111043990Y-95664189D01*
X110881475Y-95420968D01*
X110674632Y-95214125D01*
X110500240Y-95097600D01*
X110674632Y-94981075D01*
X110881475Y-94774232D01*
X111043990Y-94531011D01*
X111155932Y-94260758D01*
X111213000Y-93973860D01*
X111213000Y-93847401D01*
X113453667Y-96088069D01*
G37*
G04 #@! TD.AperFunction*
D15*
X128282897Y-101573577D02*
X128452415Y-101686845D01*
X128640773Y-101764866D01*
X128840732Y-101804640D01*
X128902870Y-101804640D01*
X129615632Y-102517403D01*
X129639430Y-102546401D01*
X129755155Y-102641374D01*
X129887184Y-102711946D01*
X130030445Y-102755403D01*
X130142098Y-102766400D01*
X130142106Y-102766400D01*
X130179431Y-102770076D01*
X130192455Y-102768793D01*
X130205479Y-102770076D01*
X130242801Y-102766400D01*
X130242812Y-102766400D01*
X130354465Y-102755403D01*
X130497726Y-102711946D01*
X130629755Y-102641374D01*
X130745480Y-102546401D01*
X130769282Y-102517398D01*
X131180681Y-102106000D01*
X131383966Y-102106000D01*
X126439207Y-107050760D01*
X126368300Y-106979853D01*
X126198782Y-106866585D01*
X126032800Y-106797833D01*
X126032800Y-106297344D01*
X126188495Y-106193312D01*
X126307999Y-106073808D01*
X126494902Y-106151226D01*
X126694861Y-106191000D01*
X126898739Y-106191000D01*
X127098698Y-106151226D01*
X127287056Y-106073205D01*
X127456574Y-105959937D01*
X127600737Y-105815774D01*
X127714005Y-105646256D01*
X127792026Y-105457898D01*
X127831800Y-105257939D01*
X127831800Y-105195802D01*
X128431809Y-104595794D01*
X128460802Y-104572000D01*
X128484596Y-104543007D01*
X128484600Y-104543003D01*
X128555774Y-104456276D01*
X128560083Y-104448215D01*
X128626347Y-104324246D01*
X128662751Y-104204235D01*
X128811056Y-104142805D01*
X128980574Y-104029537D01*
X129124737Y-103885374D01*
X129238005Y-103715856D01*
X129316026Y-103527498D01*
X129355800Y-103327539D01*
X129355800Y-103123661D01*
X129316026Y-102923702D01*
X129238005Y-102735344D01*
X129124737Y-102565826D01*
X128980574Y-102421663D01*
X128811056Y-102308395D01*
X128622698Y-102230374D01*
X128422739Y-102190600D01*
X128218861Y-102190600D01*
X128018902Y-102230374D01*
X127830544Y-102308395D01*
X127661026Y-102421663D01*
X127516863Y-102565826D01*
X127403595Y-102735344D01*
X127325574Y-102923702D01*
X127285800Y-103123661D01*
X127285800Y-103201374D01*
X127242171Y-103282997D01*
X127215255Y-103333353D01*
X127177006Y-103459446D01*
X127125874Y-103408314D01*
X126956356Y-103295046D01*
X126767998Y-103217025D01*
X126568039Y-103177251D01*
X126540796Y-103177251D01*
X126540796Y-102380081D01*
X126584733Y-102336144D01*
X126698001Y-102166626D01*
X126734012Y-102079688D01*
X126908279Y-102151872D01*
X127108238Y-102191646D01*
X127312116Y-102191646D01*
X127512075Y-102151872D01*
X127700433Y-102073851D01*
X127869951Y-101960583D01*
X128014114Y-101816420D01*
X128127382Y-101646902D01*
X128194408Y-101485088D01*
X128282897Y-101573577D01*
G04 #@! TA.AperFunction,Conductor*
D16*
G36*
X128282897Y-101573577D02*
G01*
X128452415Y-101686845D01*
X128640773Y-101764866D01*
X128840732Y-101804640D01*
X128902870Y-101804640D01*
X129615632Y-102517403D01*
X129639430Y-102546401D01*
X129755155Y-102641374D01*
X129887184Y-102711946D01*
X130030445Y-102755403D01*
X130142098Y-102766400D01*
X130142106Y-102766400D01*
X130179431Y-102770076D01*
X130192455Y-102768793D01*
X130205479Y-102770076D01*
X130242801Y-102766400D01*
X130242812Y-102766400D01*
X130354465Y-102755403D01*
X130497726Y-102711946D01*
X130629755Y-102641374D01*
X130745480Y-102546401D01*
X130769282Y-102517398D01*
X131180681Y-102106000D01*
X131383966Y-102106000D01*
X126439207Y-107050760D01*
X126368300Y-106979853D01*
X126198782Y-106866585D01*
X126032800Y-106797833D01*
X126032800Y-106297344D01*
X126188495Y-106193312D01*
X126307999Y-106073808D01*
X126494902Y-106151226D01*
X126694861Y-106191000D01*
X126898739Y-106191000D01*
X127098698Y-106151226D01*
X127287056Y-106073205D01*
X127456574Y-105959937D01*
X127600737Y-105815774D01*
X127714005Y-105646256D01*
X127792026Y-105457898D01*
X127831800Y-105257939D01*
X127831800Y-105195802D01*
X128431809Y-104595794D01*
X128460802Y-104572000D01*
X128484596Y-104543007D01*
X128484600Y-104543003D01*
X128555774Y-104456276D01*
X128560083Y-104448215D01*
X128626347Y-104324246D01*
X128662751Y-104204235D01*
X128811056Y-104142805D01*
X128980574Y-104029537D01*
X129124737Y-103885374D01*
X129238005Y-103715856D01*
X129316026Y-103527498D01*
X129355800Y-103327539D01*
X129355800Y-103123661D01*
X129316026Y-102923702D01*
X129238005Y-102735344D01*
X129124737Y-102565826D01*
X128980574Y-102421663D01*
X128811056Y-102308395D01*
X128622698Y-102230374D01*
X128422739Y-102190600D01*
X128218861Y-102190600D01*
X128018902Y-102230374D01*
X127830544Y-102308395D01*
X127661026Y-102421663D01*
X127516863Y-102565826D01*
X127403595Y-102735344D01*
X127325574Y-102923702D01*
X127285800Y-103123661D01*
X127285800Y-103201374D01*
X127242171Y-103282997D01*
X127215255Y-103333353D01*
X127177006Y-103459446D01*
X127125874Y-103408314D01*
X126956356Y-103295046D01*
X126767998Y-103217025D01*
X126568039Y-103177251D01*
X126540796Y-103177251D01*
X126540796Y-102380081D01*
X126584733Y-102336144D01*
X126698001Y-102166626D01*
X126734012Y-102079688D01*
X126908279Y-102151872D01*
X127108238Y-102191646D01*
X127312116Y-102191646D01*
X127512075Y-102151872D01*
X127700433Y-102073851D01*
X127869951Y-101960583D01*
X128014114Y-101816420D01*
X128127382Y-101646902D01*
X128194408Y-101485088D01*
X128282897Y-101573577D01*
G37*
G04 #@! TD.AperFunction*
D15*
X123980487Y-97548131D02*
X123867219Y-97717649D01*
X123789198Y-97906007D01*
X123754338Y-98081260D01*
X123404199Y-98431400D01*
X123342061Y-98431400D01*
X123142102Y-98471174D01*
X122953744Y-98549195D01*
X122784226Y-98662463D01*
X122640063Y-98806626D01*
X122526795Y-98976144D01*
X122448774Y-99164502D01*
X122409000Y-99364461D01*
X122409000Y-99568339D01*
X122448774Y-99768298D01*
X122526795Y-99956656D01*
X122640063Y-100126174D01*
X122784226Y-100270337D01*
X122798748Y-100280040D01*
X122203004Y-100875784D01*
X122174000Y-100899587D01*
X122142539Y-100937923D01*
X122079027Y-101015312D01*
X122017210Y-101130962D01*
X122008455Y-101147342D01*
X121964998Y-101290603D01*
X121954001Y-101402256D01*
X121954001Y-101402266D01*
X121950325Y-101439588D01*
X121954001Y-101476911D01*
X121954001Y-103089456D01*
X121685260Y-103036000D01*
X121392740Y-103036000D01*
X121167771Y-103080749D01*
X121113277Y-103036027D01*
X120981248Y-102965455D01*
X120837987Y-102921998D01*
X120726334Y-102911001D01*
X120726323Y-102911001D01*
X120691118Y-102907534D01*
X120728917Y-102717506D01*
X120728917Y-102513628D01*
X120689143Y-102313669D01*
X120611122Y-102125311D01*
X120497854Y-101955793D01*
X120353691Y-101811630D01*
X120343200Y-101804620D01*
X120343200Y-101389311D01*
X120387137Y-101345374D01*
X120500405Y-101175856D01*
X120578426Y-100987498D01*
X120618200Y-100787539D01*
X120618200Y-100709826D01*
X120631102Y-100685689D01*
X123773831Y-97542961D01*
X123985657Y-97542961D01*
X123980487Y-97548131D01*
G04 #@! TA.AperFunction,Conductor*
D16*
G36*
X123980487Y-97548131D02*
G01*
X123867219Y-97717649D01*
X123789198Y-97906007D01*
X123754338Y-98081260D01*
X123404199Y-98431400D01*
X123342061Y-98431400D01*
X123142102Y-98471174D01*
X122953744Y-98549195D01*
X122784226Y-98662463D01*
X122640063Y-98806626D01*
X122526795Y-98976144D01*
X122448774Y-99164502D01*
X122409000Y-99364461D01*
X122409000Y-99568339D01*
X122448774Y-99768298D01*
X122526795Y-99956656D01*
X122640063Y-100126174D01*
X122784226Y-100270337D01*
X122798748Y-100280040D01*
X122203004Y-100875784D01*
X122174000Y-100899587D01*
X122142539Y-100937923D01*
X122079027Y-101015312D01*
X122017210Y-101130962D01*
X122008455Y-101147342D01*
X121964998Y-101290603D01*
X121954001Y-101402256D01*
X121954001Y-101402266D01*
X121950325Y-101439588D01*
X121954001Y-101476911D01*
X121954001Y-103089456D01*
X121685260Y-103036000D01*
X121392740Y-103036000D01*
X121167771Y-103080749D01*
X121113277Y-103036027D01*
X120981248Y-102965455D01*
X120837987Y-102921998D01*
X120726334Y-102911001D01*
X120726323Y-102911001D01*
X120691118Y-102907534D01*
X120728917Y-102717506D01*
X120728917Y-102513628D01*
X120689143Y-102313669D01*
X120611122Y-102125311D01*
X120497854Y-101955793D01*
X120353691Y-101811630D01*
X120343200Y-101804620D01*
X120343200Y-101389311D01*
X120387137Y-101345374D01*
X120500405Y-101175856D01*
X120578426Y-100987498D01*
X120618200Y-100787539D01*
X120618200Y-100709826D01*
X120631102Y-100685689D01*
X123773831Y-97542961D01*
X123985657Y-97542961D01*
X123980487Y-97548131D01*
G37*
G04 #@! TD.AperFunction*
D15*
X141656570Y-100041829D02*
X141530178Y-99829645D01*
X141335269Y-99613412D01*
X141101920Y-99439359D01*
X140839099Y-99314175D01*
X140691890Y-99269524D01*
X140462000Y-99390845D01*
X140462000Y-100584000D01*
X140482000Y-100584000D01*
X140482000Y-100838000D01*
X140462000Y-100838000D01*
X140462000Y-100858000D01*
X140208000Y-100858000D01*
X140208000Y-100838000D01*
X140188000Y-100838000D01*
X140188000Y-100584000D01*
X140208000Y-100584000D01*
X140208000Y-99390845D01*
X139978110Y-99269524D01*
X139830901Y-99314175D01*
X139568080Y-99439359D01*
X139334731Y-99613412D01*
X139258966Y-99697466D01*
X139234502Y-99616820D01*
X139175537Y-99506506D01*
X139096185Y-99409815D01*
X138999494Y-99330463D01*
X138889180Y-99271498D01*
X138769482Y-99235188D01*
X138645000Y-99222928D01*
X137970273Y-99222928D01*
X140001000Y-97192202D01*
X144506196Y-97192202D01*
X141656570Y-100041829D01*
G04 #@! TA.AperFunction,Conductor*
D16*
G36*
X141656570Y-100041829D02*
G01*
X141530178Y-99829645D01*
X141335269Y-99613412D01*
X141101920Y-99439359D01*
X140839099Y-99314175D01*
X140691890Y-99269524D01*
X140462000Y-99390845D01*
X140462000Y-100584000D01*
X140482000Y-100584000D01*
X140482000Y-100838000D01*
X140462000Y-100838000D01*
X140462000Y-100858000D01*
X140208000Y-100858000D01*
X140208000Y-100838000D01*
X140188000Y-100838000D01*
X140188000Y-100584000D01*
X140208000Y-100584000D01*
X140208000Y-99390845D01*
X139978110Y-99269524D01*
X139830901Y-99314175D01*
X139568080Y-99439359D01*
X139334731Y-99613412D01*
X139258966Y-99697466D01*
X139234502Y-99616820D01*
X139175537Y-99506506D01*
X139096185Y-99409815D01*
X138999494Y-99330463D01*
X138889180Y-99271498D01*
X138769482Y-99235188D01*
X138645000Y-99222928D01*
X137970273Y-99222928D01*
X140001000Y-97192202D01*
X144506196Y-97192202D01*
X141656570Y-100041829D01*
G37*
G04 #@! TD.AperFunction*
D15*
X127668586Y-98015959D02*
X127692384Y-98044958D01*
X127808109Y-98139931D01*
X127940138Y-98210503D01*
X128083399Y-98253960D01*
X128195052Y-98264957D01*
X128195061Y-98264957D01*
X128232384Y-98268633D01*
X128269707Y-98264957D01*
X130030324Y-98264957D01*
X130074261Y-98308894D01*
X130226735Y-98410774D01*
X128902870Y-99734640D01*
X128840732Y-99734640D01*
X128640773Y-99774414D01*
X128452415Y-99852435D01*
X128282897Y-99965703D01*
X128138734Y-100109866D01*
X128025466Y-100279384D01*
X127958731Y-100440495D01*
X127915723Y-100298714D01*
X127845151Y-100166685D01*
X127816366Y-100131610D01*
X127750178Y-100050960D01*
X127721180Y-100027162D01*
X126758209Y-99064191D01*
X126734406Y-99035188D01*
X126618681Y-98940215D01*
X126486652Y-98869643D01*
X126343391Y-98826186D01*
X126231738Y-98815189D01*
X126231727Y-98815189D01*
X126194405Y-98811513D01*
X126157083Y-98815189D01*
X125623434Y-98815189D01*
X125701629Y-98698161D01*
X125779650Y-98509803D01*
X125819424Y-98309844D01*
X125819424Y-98105966D01*
X125779650Y-97906007D01*
X125701629Y-97717649D01*
X125588361Y-97548131D01*
X125583191Y-97542961D01*
X126757089Y-97542961D01*
X126794411Y-97546637D01*
X126831733Y-97542961D01*
X126831744Y-97542961D01*
X126933142Y-97532974D01*
X127185601Y-97532974D01*
X127668586Y-98015959D01*
G04 #@! TA.AperFunction,Conductor*
D16*
G36*
X127668586Y-98015959D02*
G01*
X127692384Y-98044958D01*
X127808109Y-98139931D01*
X127940138Y-98210503D01*
X128083399Y-98253960D01*
X128195052Y-98264957D01*
X128195061Y-98264957D01*
X128232384Y-98268633D01*
X128269707Y-98264957D01*
X130030324Y-98264957D01*
X130074261Y-98308894D01*
X130226735Y-98410774D01*
X128902870Y-99734640D01*
X128840732Y-99734640D01*
X128640773Y-99774414D01*
X128452415Y-99852435D01*
X128282897Y-99965703D01*
X128138734Y-100109866D01*
X128025466Y-100279384D01*
X127958731Y-100440495D01*
X127915723Y-100298714D01*
X127845151Y-100166685D01*
X127816366Y-100131610D01*
X127750178Y-100050960D01*
X127721180Y-100027162D01*
X126758209Y-99064191D01*
X126734406Y-99035188D01*
X126618681Y-98940215D01*
X126486652Y-98869643D01*
X126343391Y-98826186D01*
X126231738Y-98815189D01*
X126231727Y-98815189D01*
X126194405Y-98811513D01*
X126157083Y-98815189D01*
X125623434Y-98815189D01*
X125701629Y-98698161D01*
X125779650Y-98509803D01*
X125819424Y-98309844D01*
X125819424Y-98105966D01*
X125779650Y-97906007D01*
X125701629Y-97717649D01*
X125588361Y-97548131D01*
X125583191Y-97542961D01*
X126757089Y-97542961D01*
X126794411Y-97546637D01*
X126831733Y-97542961D01*
X126831744Y-97542961D01*
X126933142Y-97532974D01*
X127185601Y-97532974D01*
X127668586Y-98015959D01*
G37*
G04 #@! TD.AperFunction*
M02*
