G04 #@! TF.GenerationSoftware,KiCad,Pcbnew,(5.1.10-1-10_14)*
G04 #@! TF.CreationDate,2021-10-28T11:22:58-07:00*
G04 #@! TF.ProjectId,Caravel_breakout,43617261-7665-46c5-9f62-7265616b6f75,rev?*
G04 #@! TF.SameCoordinates,Original*
G04 #@! TF.FileFunction,Copper,L2,Bot*
G04 #@! TF.FilePolarity,Positive*
%FSLAX46Y46*%
G04 Gerber Fmt 4.6, Leading zero omitted, Abs format (unit mm)*
G04 Created by KiCad (PCBNEW (5.1.10-1-10_14)) date 2021-10-28 11:22:58*
%MOMM*%
%LPD*%
G01*
G04 APERTURE LIST*
G04 #@! TA.AperFunction,ComponentPad*
%ADD10O,1.000000X1.000000*%
G04 #@! TD*
G04 #@! TA.AperFunction,ComponentPad*
%ADD11R,1.000000X1.000000*%
G04 #@! TD*
G04 #@! TA.AperFunction,ComponentPad*
%ADD12C,3.500000*%
G04 #@! TD*
G04 #@! TA.AperFunction,ViaPad*
%ADD13C,0.500000*%
G04 #@! TD*
G04 #@! TA.AperFunction,Conductor*
%ADD14C,0.254000*%
G04 #@! TD*
G04 #@! TA.AperFunction,Conductor*
%ADD15C,0.101600*%
G04 #@! TD*
G04 #@! TA.AperFunction,Conductor*
%ADD16C,0.152400*%
G04 #@! TD*
G04 #@! TA.AperFunction,Conductor*
%ADD17C,0.100000*%
G04 #@! TD*
G04 APERTURE END LIST*
D10*
X124206000Y-101854000D03*
X122936000Y-101854000D03*
X124206000Y-100584000D03*
X122936000Y-100584000D03*
X124206000Y-99314000D03*
X122936000Y-99314000D03*
X124206000Y-98044000D03*
X122936000Y-98044000D03*
X124206000Y-96774000D03*
X122936000Y-96774000D03*
X124206000Y-95504000D03*
X122936000Y-95504000D03*
X124206000Y-94234000D03*
X122936000Y-94234000D03*
X124206000Y-92964000D03*
X122936000Y-92964000D03*
X124206000Y-91694000D03*
X122936000Y-91694000D03*
X124206000Y-90424000D03*
X122936000Y-90424000D03*
X124206000Y-89154000D03*
X122936000Y-89154000D03*
X124206000Y-87884000D03*
X122936000Y-87884000D03*
X124206000Y-86614000D03*
X122936000Y-86614000D03*
X124206000Y-85344000D03*
D11*
X122936000Y-85344000D03*
D12*
X128397000Y-86233000D03*
X143002000Y-86233000D03*
X143002000Y-100838000D03*
X128397000Y-100838000D03*
D10*
X147066000Y-85344000D03*
X148336000Y-85344000D03*
X147066000Y-86614000D03*
X148336000Y-86614000D03*
X147066000Y-87884000D03*
X148336000Y-87884000D03*
X147066000Y-89154000D03*
X148336000Y-89154000D03*
X147066000Y-90424000D03*
X148336000Y-90424000D03*
X147066000Y-91694000D03*
X148336000Y-91694000D03*
X147066000Y-92964000D03*
X148336000Y-92964000D03*
X147066000Y-94234000D03*
X148336000Y-94234000D03*
X147066000Y-95504000D03*
X148336000Y-95504000D03*
X147066000Y-96774000D03*
X148336000Y-96774000D03*
X147066000Y-98044000D03*
X148336000Y-98044000D03*
X147066000Y-99314000D03*
X148336000Y-99314000D03*
X147066000Y-100584000D03*
X148336000Y-100584000D03*
X147066000Y-101854000D03*
D11*
X148336000Y-101854000D03*
D10*
X143891000Y-104902000D03*
X143891000Y-106172000D03*
X142621000Y-104902000D03*
X142621000Y-106172000D03*
X141351000Y-104902000D03*
X141351000Y-106172000D03*
X140081000Y-104902000D03*
X140081000Y-106172000D03*
X138811000Y-104902000D03*
X138811000Y-106172000D03*
X137541000Y-104902000D03*
X137541000Y-106172000D03*
X136271000Y-104902000D03*
X136271000Y-106172000D03*
X135001000Y-104902000D03*
X135001000Y-106172000D03*
X133731000Y-104902000D03*
X133731000Y-106172000D03*
X132461000Y-104902000D03*
X132461000Y-106172000D03*
X131191000Y-104902000D03*
X131191000Y-106172000D03*
X129921000Y-104902000D03*
X129921000Y-106172000D03*
X128651000Y-104902000D03*
X128651000Y-106172000D03*
X127381000Y-104902000D03*
D11*
X127381000Y-106172000D03*
D10*
X127381000Y-82042000D03*
X127381000Y-80772000D03*
X128651000Y-82042000D03*
X128651000Y-80772000D03*
X129921000Y-82042000D03*
X129921000Y-80772000D03*
X131191000Y-82042000D03*
X131191000Y-80772000D03*
X132461000Y-82042000D03*
X132461000Y-80772000D03*
X133731000Y-82042000D03*
X133731000Y-80772000D03*
X135001000Y-82042000D03*
X135001000Y-80772000D03*
X136271000Y-82042000D03*
X136271000Y-80772000D03*
X137541000Y-82042000D03*
X137541000Y-80772000D03*
X138811000Y-82042000D03*
X138811000Y-80772000D03*
X140081000Y-82042000D03*
X140081000Y-80772000D03*
X141351000Y-82042000D03*
X141351000Y-80772000D03*
X142621000Y-82042000D03*
X142621000Y-80772000D03*
X143891000Y-82042000D03*
D11*
X143891000Y-80772000D03*
D13*
X135890000Y-93345000D03*
X129230000Y-89610000D03*
X136109261Y-96589833D03*
X131220000Y-97640000D03*
X131080000Y-89350680D03*
X140600000Y-97870000D03*
X141560000Y-92600000D03*
X140250000Y-89440000D03*
X123550000Y-81440000D03*
X131490000Y-87800000D03*
X133400000Y-85680000D03*
X147710000Y-81430000D03*
X123540000Y-105550000D03*
X147700000Y-105530000D03*
X129344420Y-93502480D03*
X135980000Y-88960000D03*
X132810000Y-90000000D03*
X130930000Y-90320000D03*
X132969000Y-95885000D03*
X132080000Y-93345000D03*
X140620000Y-92550000D03*
X131724400Y-95605600D03*
X130600000Y-96680000D03*
X138639134Y-99069322D03*
X140528465Y-99080000D03*
X133740000Y-83730000D03*
X138580000Y-91110000D03*
X137541005Y-89898995D03*
D14*
X147050000Y-86630000D02*
X147066000Y-86614000D01*
X145890000Y-86630000D02*
X147050000Y-86630000D01*
X135980000Y-88960000D02*
X136190000Y-88750000D01*
X143770000Y-88750000D02*
X145890000Y-86630000D01*
X136190000Y-88750000D02*
X143770000Y-88750000D01*
X135980000Y-88960000D02*
X134940000Y-90000000D01*
X134940000Y-90000000D02*
X132810000Y-90000000D01*
X144178000Y-83818000D02*
X137432000Y-83818000D01*
X137432000Y-83818000D02*
X130930000Y-90320000D01*
X147066000Y-85344000D02*
X145704000Y-85344000D01*
X145704000Y-85344000D02*
X144178000Y-83818000D01*
X145510000Y-100298000D02*
X147066000Y-101854000D01*
X145510000Y-97520000D02*
X145510000Y-100298000D01*
X132969000Y-95885000D02*
X143875000Y-95885000D01*
X143875000Y-95885000D02*
X145510000Y-97520000D01*
X132095000Y-93360000D02*
X132080000Y-93345000D01*
X146030000Y-99548000D02*
X146030000Y-96070000D01*
X147066000Y-100584000D02*
X146030000Y-99548000D01*
X146030000Y-96070000D02*
X144680000Y-94720000D01*
X144680000Y-94720000D02*
X134680000Y-94720000D01*
X134680000Y-94720000D02*
X133320000Y-93360000D01*
X133320000Y-93360000D02*
X132095000Y-93360000D01*
X146106000Y-87884000D02*
X147066000Y-87884000D01*
X141900000Y-90240000D02*
X143750000Y-90240000D01*
X143750000Y-90240000D02*
X146106000Y-87884000D01*
X140620000Y-92550000D02*
X140620000Y-91520000D01*
X140620000Y-91520000D02*
X141900000Y-90240000D01*
D15*
X131724400Y-95605600D02*
X130650000Y-96680000D01*
X130650000Y-96680000D02*
X130600000Y-96680000D01*
X138639134Y-99069322D02*
X140517787Y-99069322D01*
X140517787Y-99069322D02*
X140528465Y-99080000D01*
X133830000Y-82141000D02*
X133731000Y-82042000D01*
X133830000Y-83859998D02*
X133740000Y-83769998D01*
X133731000Y-83721000D02*
X133740000Y-83730000D01*
X133740000Y-83769998D02*
X133740000Y-83730000D01*
X133731000Y-82042000D02*
X133731000Y-83721000D01*
D14*
X137541005Y-90071005D02*
X138580000Y-91110000D01*
X137541005Y-89898995D02*
X137541005Y-90071005D01*
X138580000Y-92715554D02*
X139526847Y-93662401D01*
X138580000Y-91110000D02*
X138580000Y-92715554D01*
X146367599Y-93662401D02*
X147066000Y-92964000D01*
X139526847Y-93662401D02*
X146367599Y-93662401D01*
D16*
X126645286Y-81165247D02*
X126736142Y-81301222D01*
X126841920Y-81407000D01*
X126736142Y-81512778D01*
X126645286Y-81648753D01*
X126582704Y-81799840D01*
X126550800Y-81960232D01*
X126550800Y-82123768D01*
X126582704Y-82284160D01*
X126645286Y-82435247D01*
X126736142Y-82571222D01*
X126851778Y-82686858D01*
X126987753Y-82777714D01*
X127138840Y-82840296D01*
X127299232Y-82872200D01*
X127462768Y-82872200D01*
X127623160Y-82840296D01*
X127774247Y-82777714D01*
X127910222Y-82686858D01*
X128016000Y-82581080D01*
X128121778Y-82686858D01*
X128257753Y-82777714D01*
X128408840Y-82840296D01*
X128569232Y-82872200D01*
X128732768Y-82872200D01*
X128893160Y-82840296D01*
X129044247Y-82777714D01*
X129180222Y-82686858D01*
X129286000Y-82581080D01*
X129391778Y-82686858D01*
X129527753Y-82777714D01*
X129678840Y-82840296D01*
X129839232Y-82872200D01*
X130002768Y-82872200D01*
X130163160Y-82840296D01*
X130314247Y-82777714D01*
X130450222Y-82686858D01*
X130556000Y-82581080D01*
X130661778Y-82686858D01*
X130797753Y-82777714D01*
X130948840Y-82840296D01*
X131109232Y-82872200D01*
X131272768Y-82872200D01*
X131433160Y-82840296D01*
X131584247Y-82777714D01*
X131720222Y-82686858D01*
X131826000Y-82581080D01*
X131931778Y-82686858D01*
X132067753Y-82777714D01*
X132218840Y-82840296D01*
X132379232Y-82872200D01*
X132542768Y-82872200D01*
X132703160Y-82840296D01*
X132854247Y-82777714D01*
X132990222Y-82686858D01*
X133096000Y-82581080D01*
X133201778Y-82686858D01*
X133337753Y-82777714D01*
X133350000Y-82782787D01*
X133350001Y-83299472D01*
X133289329Y-83360144D01*
X133225834Y-83455172D01*
X133182097Y-83560762D01*
X133159800Y-83672855D01*
X133159800Y-83787145D01*
X133182097Y-83899238D01*
X133225834Y-84004828D01*
X133289329Y-84099856D01*
X133370144Y-84180671D01*
X133465172Y-84244166D01*
X133570762Y-84287903D01*
X133682855Y-84310200D01*
X133797145Y-84310200D01*
X133909238Y-84287903D01*
X134014828Y-84244166D01*
X134109856Y-84180671D01*
X134190671Y-84099856D01*
X134254166Y-84004828D01*
X134297903Y-83899238D01*
X134320200Y-83787145D01*
X134320200Y-83672855D01*
X134297903Y-83560762D01*
X134254166Y-83455172D01*
X134190671Y-83360144D01*
X134112000Y-83281473D01*
X134112000Y-82782787D01*
X134124247Y-82777714D01*
X134260222Y-82686858D01*
X134370786Y-82576294D01*
X134426989Y-82641791D01*
X134555032Y-82742250D01*
X134700213Y-82815799D01*
X134821197Y-82852495D01*
X134950200Y-82787922D01*
X134950200Y-82092800D01*
X134930200Y-82092800D01*
X134930200Y-81991200D01*
X134950200Y-81991200D01*
X134950200Y-81127200D01*
X135051800Y-81127200D01*
X135051800Y-81991200D01*
X135071800Y-81991200D01*
X135071800Y-82092800D01*
X135051800Y-82092800D01*
X135051800Y-82787922D01*
X135180803Y-82852495D01*
X135301787Y-82815799D01*
X135446968Y-82742250D01*
X135575011Y-82641791D01*
X135631214Y-82576294D01*
X135741778Y-82686858D01*
X135877753Y-82777714D01*
X136028840Y-82840296D01*
X136189232Y-82872200D01*
X136352768Y-82872200D01*
X136513160Y-82840296D01*
X136664247Y-82777714D01*
X136800222Y-82686858D01*
X136906000Y-82581080D01*
X137011778Y-82686858D01*
X137147753Y-82777714D01*
X137298840Y-82840296D01*
X137459232Y-82872200D01*
X137622768Y-82872200D01*
X137783160Y-82840296D01*
X137934247Y-82777714D01*
X138070222Y-82686858D01*
X138180786Y-82576294D01*
X138236989Y-82641791D01*
X138365032Y-82742250D01*
X138510213Y-82815799D01*
X138631197Y-82852495D01*
X138760200Y-82787922D01*
X138760200Y-82092800D01*
X138740200Y-82092800D01*
X138740200Y-81991200D01*
X138760200Y-81991200D01*
X138760200Y-81127200D01*
X138861800Y-81127200D01*
X138861800Y-81991200D01*
X138881800Y-81991200D01*
X138881800Y-82092800D01*
X138861800Y-82092800D01*
X138861800Y-82787922D01*
X138990803Y-82852495D01*
X139111787Y-82815799D01*
X139256968Y-82742250D01*
X139385011Y-82641791D01*
X139441214Y-82576294D01*
X139551778Y-82686858D01*
X139687753Y-82777714D01*
X139838840Y-82840296D01*
X139999232Y-82872200D01*
X140162768Y-82872200D01*
X140323160Y-82840296D01*
X140474247Y-82777714D01*
X140610222Y-82686858D01*
X140716000Y-82581080D01*
X140821778Y-82686858D01*
X140957753Y-82777714D01*
X141108840Y-82840296D01*
X141269232Y-82872200D01*
X141432768Y-82872200D01*
X141593160Y-82840296D01*
X141744247Y-82777714D01*
X141880222Y-82686858D01*
X141986000Y-82581080D01*
X142091778Y-82686858D01*
X142227753Y-82777714D01*
X142378840Y-82840296D01*
X142539232Y-82872200D01*
X142702768Y-82872200D01*
X142863160Y-82840296D01*
X143014247Y-82777714D01*
X143150222Y-82686858D01*
X143256000Y-82581080D01*
X143361778Y-82686858D01*
X143497753Y-82777714D01*
X143648840Y-82840296D01*
X143809232Y-82872200D01*
X143972768Y-82872200D01*
X144133160Y-82840296D01*
X144284247Y-82777714D01*
X144420222Y-82686858D01*
X144535858Y-82571222D01*
X144626714Y-82435247D01*
X144689296Y-82284160D01*
X144721200Y-82123768D01*
X144721200Y-81960232D01*
X144689296Y-81799840D01*
X144626714Y-81648753D01*
X144563529Y-81554190D01*
X144575337Y-81547879D01*
X144625616Y-81506616D01*
X144666879Y-81456337D01*
X144697540Y-81398973D01*
X144716422Y-81336730D01*
X144722797Y-81272000D01*
X144722797Y-81127200D01*
X147980800Y-81127200D01*
X147980800Y-84592526D01*
X147942753Y-84608286D01*
X147806778Y-84699142D01*
X147701000Y-84804920D01*
X147595222Y-84699142D01*
X147459247Y-84608286D01*
X147308160Y-84545704D01*
X147147768Y-84513800D01*
X146984232Y-84513800D01*
X146823840Y-84545704D01*
X146672753Y-84608286D01*
X146536778Y-84699142D01*
X146421142Y-84814778D01*
X146373018Y-84886800D01*
X145893378Y-84886800D01*
X144517174Y-83510597D01*
X144502853Y-83493147D01*
X144433236Y-83436013D01*
X144353809Y-83393559D01*
X144267627Y-83367415D01*
X144200460Y-83360800D01*
X144200450Y-83360800D01*
X144178000Y-83358589D01*
X144155550Y-83360800D01*
X137454450Y-83360800D01*
X137432000Y-83358589D01*
X137409550Y-83360800D01*
X137409540Y-83360800D01*
X137342373Y-83367415D01*
X137277301Y-83387155D01*
X137256190Y-83393559D01*
X137176764Y-83436013D01*
X137124592Y-83478829D01*
X137124586Y-83478835D01*
X137107147Y-83493147D01*
X137092835Y-83510586D01*
X130861331Y-89742092D01*
X130760762Y-89762097D01*
X130655172Y-89805834D01*
X130560144Y-89869329D01*
X130479329Y-89950144D01*
X130415834Y-90045172D01*
X130372097Y-90150762D01*
X130349800Y-90262855D01*
X130349800Y-90377145D01*
X130372097Y-90489238D01*
X130415834Y-90594828D01*
X130479329Y-90689856D01*
X130560144Y-90770671D01*
X130655172Y-90834166D01*
X130760762Y-90877903D01*
X130872855Y-90900200D01*
X130987145Y-90900200D01*
X131099238Y-90877903D01*
X131204828Y-90834166D01*
X131299856Y-90770671D01*
X131380671Y-90689856D01*
X131444166Y-90594828D01*
X131487903Y-90489238D01*
X131507908Y-90388669D01*
X137621379Y-84275200D01*
X142292723Y-84275200D01*
X142016656Y-84389551D01*
X141675950Y-84617203D01*
X141386203Y-84906950D01*
X141158551Y-85247656D01*
X141001741Y-85626228D01*
X140921800Y-86028118D01*
X140921800Y-86437882D01*
X141001741Y-86839772D01*
X141158551Y-87218344D01*
X141386203Y-87559050D01*
X141675950Y-87848797D01*
X142016656Y-88076449D01*
X142395228Y-88233259D01*
X142694560Y-88292800D01*
X136212450Y-88292800D01*
X136190000Y-88290589D01*
X136167550Y-88292800D01*
X136167540Y-88292800D01*
X136100373Y-88299415D01*
X136014191Y-88325559D01*
X135934764Y-88368013D01*
X135919617Y-88380444D01*
X135810762Y-88402097D01*
X135705172Y-88445834D01*
X135610144Y-88509329D01*
X135529329Y-88590144D01*
X135465834Y-88685172D01*
X135422097Y-88790762D01*
X135402093Y-88891330D01*
X134750623Y-89542800D01*
X133170085Y-89542800D01*
X133084828Y-89485834D01*
X132979238Y-89442097D01*
X132867145Y-89419800D01*
X132752855Y-89419800D01*
X132640762Y-89442097D01*
X132535172Y-89485834D01*
X132440144Y-89549329D01*
X132359329Y-89630144D01*
X132295834Y-89725172D01*
X132252097Y-89830762D01*
X132229800Y-89942855D01*
X132229800Y-90057145D01*
X132252097Y-90169238D01*
X132295834Y-90274828D01*
X132359329Y-90369856D01*
X132440144Y-90450671D01*
X132535172Y-90514166D01*
X132640762Y-90557903D01*
X132752855Y-90580200D01*
X132867145Y-90580200D01*
X132979238Y-90557903D01*
X133084828Y-90514166D01*
X133170085Y-90457200D01*
X134917550Y-90457200D01*
X134940000Y-90459411D01*
X134962450Y-90457200D01*
X134962460Y-90457200D01*
X135029627Y-90450585D01*
X135115809Y-90424441D01*
X135195236Y-90381987D01*
X135264853Y-90324853D01*
X135279174Y-90307403D01*
X136048670Y-89537907D01*
X136149238Y-89517903D01*
X136254828Y-89474166D01*
X136349856Y-89410671D01*
X136430671Y-89329856D01*
X136494166Y-89234828D01*
X136505610Y-89207200D01*
X143747550Y-89207200D01*
X143770000Y-89209411D01*
X143792450Y-89207200D01*
X143792460Y-89207200D01*
X143859627Y-89200585D01*
X143945809Y-89174441D01*
X144025236Y-89131987D01*
X144094853Y-89074853D01*
X144109174Y-89057403D01*
X146079379Y-87087200D01*
X146383709Y-87087200D01*
X146421142Y-87143222D01*
X146526920Y-87249000D01*
X146421142Y-87354778D01*
X146373018Y-87426800D01*
X146128449Y-87426800D01*
X146105999Y-87424589D01*
X146083549Y-87426800D01*
X146083540Y-87426800D01*
X146016373Y-87433415D01*
X145930191Y-87459559D01*
X145850764Y-87502013D01*
X145781147Y-87559147D01*
X145766830Y-87576592D01*
X143560623Y-89782800D01*
X141922449Y-89782800D01*
X141899999Y-89780589D01*
X141877549Y-89782800D01*
X141877540Y-89782800D01*
X141810373Y-89789415D01*
X141724191Y-89815559D01*
X141695748Y-89830762D01*
X141644763Y-89858013D01*
X141599966Y-89894778D01*
X141575147Y-89915147D01*
X141560830Y-89932592D01*
X140312593Y-91180830D01*
X140295148Y-91195147D01*
X140280831Y-91212592D01*
X140280830Y-91212593D01*
X140238013Y-91264765D01*
X140226765Y-91285809D01*
X140195560Y-91344191D01*
X140183233Y-91384828D01*
X140169416Y-91430374D01*
X140160589Y-91520000D01*
X140162801Y-91542459D01*
X140162800Y-92189915D01*
X140105834Y-92275172D01*
X140062097Y-92380762D01*
X140039800Y-92492855D01*
X140039800Y-92607145D01*
X140062097Y-92719238D01*
X140105834Y-92824828D01*
X140169329Y-92919856D01*
X140250144Y-93000671D01*
X140345172Y-93064166D01*
X140450762Y-93107903D01*
X140562855Y-93130200D01*
X140677145Y-93130200D01*
X140789238Y-93107903D01*
X140894828Y-93064166D01*
X140989856Y-93000671D01*
X141070671Y-92919856D01*
X141134166Y-92824828D01*
X141177903Y-92719238D01*
X141200200Y-92607145D01*
X141200200Y-92492855D01*
X141177903Y-92380762D01*
X141134166Y-92275172D01*
X141077200Y-92189915D01*
X141077200Y-91709377D01*
X142089378Y-90697200D01*
X143727550Y-90697200D01*
X143750000Y-90699411D01*
X143772450Y-90697200D01*
X143772460Y-90697200D01*
X143839627Y-90690585D01*
X143925809Y-90664441D01*
X144005236Y-90621987D01*
X144074853Y-90564853D01*
X144089174Y-90547403D01*
X146295378Y-88341200D01*
X146373018Y-88341200D01*
X146421142Y-88413222D01*
X146526920Y-88519000D01*
X146421142Y-88624778D01*
X146330286Y-88760753D01*
X146267704Y-88911840D01*
X146235800Y-89072232D01*
X146235800Y-89235768D01*
X146267704Y-89396160D01*
X146330286Y-89547247D01*
X146421142Y-89683222D01*
X146526920Y-89789000D01*
X146421142Y-89894778D01*
X146330286Y-90030753D01*
X146267704Y-90181840D01*
X146235800Y-90342232D01*
X146235800Y-90505768D01*
X146267704Y-90666160D01*
X146330286Y-90817247D01*
X146421142Y-90953222D01*
X146526920Y-91059000D01*
X146421142Y-91164778D01*
X146330286Y-91300753D01*
X146267704Y-91451840D01*
X146235800Y-91612232D01*
X146235800Y-91775768D01*
X146267704Y-91936160D01*
X146330286Y-92087247D01*
X146421142Y-92223222D01*
X146526920Y-92329000D01*
X146421142Y-92434778D01*
X146330286Y-92570753D01*
X146267704Y-92721840D01*
X146235800Y-92882232D01*
X146235800Y-93045768D01*
X146252699Y-93130724D01*
X146178222Y-93205201D01*
X139716225Y-93205201D01*
X139037200Y-92526177D01*
X139037200Y-91470085D01*
X139094166Y-91384828D01*
X139137903Y-91279238D01*
X139160200Y-91167145D01*
X139160200Y-91052855D01*
X139137903Y-90940762D01*
X139094166Y-90835172D01*
X139030671Y-90740144D01*
X138949856Y-90659329D01*
X138854828Y-90595834D01*
X138749238Y-90552097D01*
X138648670Y-90532093D01*
X138113160Y-89996583D01*
X138121205Y-89956140D01*
X138121205Y-89841850D01*
X138098908Y-89729757D01*
X138055171Y-89624167D01*
X137991676Y-89529139D01*
X137910861Y-89448324D01*
X137815833Y-89384829D01*
X137710243Y-89341092D01*
X137598150Y-89318795D01*
X137483860Y-89318795D01*
X137371767Y-89341092D01*
X137266177Y-89384829D01*
X137171149Y-89448324D01*
X137090334Y-89529139D01*
X137026839Y-89624167D01*
X136983102Y-89729757D01*
X136960805Y-89841850D01*
X136960805Y-89956140D01*
X136983102Y-90068233D01*
X137026839Y-90173823D01*
X137090334Y-90268851D01*
X137171149Y-90349666D01*
X137186857Y-90360161D01*
X137216153Y-90395858D01*
X137233598Y-90410175D01*
X138002093Y-91178670D01*
X138022097Y-91279238D01*
X138065834Y-91384828D01*
X138122800Y-91470085D01*
X138122801Y-92693094D01*
X138120589Y-92715554D01*
X138122801Y-92738014D01*
X138129416Y-92805181D01*
X138129433Y-92805236D01*
X138155560Y-92891363D01*
X138198013Y-92970789D01*
X138229711Y-93009412D01*
X138255148Y-93040407D01*
X138272593Y-93054724D01*
X139187677Y-93969809D01*
X139201994Y-93987254D01*
X139271611Y-94044388D01*
X139351038Y-94086842D01*
X139437220Y-94112986D01*
X139504387Y-94119601D01*
X139504397Y-94119601D01*
X139526847Y-94121812D01*
X139549297Y-94119601D01*
X146242291Y-94119601D01*
X146235800Y-94152232D01*
X146235800Y-94315768D01*
X146267704Y-94476160D01*
X146330286Y-94627247D01*
X146421142Y-94763222D01*
X146526920Y-94869000D01*
X146421142Y-94974778D01*
X146330286Y-95110753D01*
X146267704Y-95261840D01*
X146235800Y-95422232D01*
X146235800Y-95585768D01*
X146246590Y-95640012D01*
X145019174Y-94412597D01*
X145004853Y-94395147D01*
X144935236Y-94338013D01*
X144855809Y-94295559D01*
X144769627Y-94269415D01*
X144702460Y-94262800D01*
X144702450Y-94262800D01*
X144680000Y-94260589D01*
X144657550Y-94262800D01*
X134869378Y-94262800D01*
X133659174Y-93052597D01*
X133644853Y-93035147D01*
X133575236Y-92978013D01*
X133495809Y-92935559D01*
X133409627Y-92909415D01*
X133342460Y-92902800D01*
X133342450Y-92902800D01*
X133320000Y-92900589D01*
X133297550Y-92902800D01*
X132458327Y-92902800D01*
X132449856Y-92894329D01*
X132354828Y-92830834D01*
X132249238Y-92787097D01*
X132137145Y-92764800D01*
X132022855Y-92764800D01*
X131910762Y-92787097D01*
X131805172Y-92830834D01*
X131710144Y-92894329D01*
X131629329Y-92975144D01*
X131565834Y-93070172D01*
X131522097Y-93175762D01*
X131499800Y-93287855D01*
X131499800Y-93402145D01*
X131522097Y-93514238D01*
X131565834Y-93619828D01*
X131629329Y-93714856D01*
X131710144Y-93795671D01*
X131805172Y-93859166D01*
X131910762Y-93902903D01*
X132022855Y-93925200D01*
X132137145Y-93925200D01*
X132249238Y-93902903D01*
X132354828Y-93859166D01*
X132417635Y-93817200D01*
X133130623Y-93817200D01*
X134340829Y-95027407D01*
X134355147Y-95044853D01*
X134372592Y-95059170D01*
X134424763Y-95101987D01*
X134441164Y-95110753D01*
X134504191Y-95144441D01*
X134590373Y-95170585D01*
X134657540Y-95177200D01*
X134657549Y-95177200D01*
X134679999Y-95179411D01*
X134702449Y-95177200D01*
X144490623Y-95177200D01*
X145572801Y-96259379D01*
X145572801Y-96936223D01*
X144214174Y-95577597D01*
X144199853Y-95560147D01*
X144130236Y-95503013D01*
X144050809Y-95460559D01*
X143964627Y-95434415D01*
X143897460Y-95427800D01*
X143897450Y-95427800D01*
X143875000Y-95425589D01*
X143852550Y-95427800D01*
X133329085Y-95427800D01*
X133243828Y-95370834D01*
X133138238Y-95327097D01*
X133026145Y-95304800D01*
X132911855Y-95304800D01*
X132799762Y-95327097D01*
X132694172Y-95370834D01*
X132599144Y-95434329D01*
X132518329Y-95515144D01*
X132454834Y-95610172D01*
X132411097Y-95715762D01*
X132388800Y-95827855D01*
X132388800Y-95942145D01*
X132411097Y-96054238D01*
X132454834Y-96159828D01*
X132518329Y-96254856D01*
X132599144Y-96335671D01*
X132694172Y-96399166D01*
X132799762Y-96442903D01*
X132911855Y-96465200D01*
X133026145Y-96465200D01*
X133138238Y-96442903D01*
X133243828Y-96399166D01*
X133329085Y-96342200D01*
X143685623Y-96342200D01*
X145052800Y-97709378D01*
X145052801Y-100275540D01*
X145050589Y-100298000D01*
X145059416Y-100387626D01*
X145085560Y-100473809D01*
X145096552Y-100494373D01*
X145128014Y-100553236D01*
X145185148Y-100622853D01*
X145202593Y-100637170D01*
X146252699Y-101687276D01*
X146235800Y-101772232D01*
X146235800Y-101935768D01*
X146267704Y-102096160D01*
X146330286Y-102247247D01*
X146421142Y-102383222D01*
X146536778Y-102498858D01*
X146672753Y-102589714D01*
X146823840Y-102652296D01*
X146984232Y-102684200D01*
X147147768Y-102684200D01*
X147308160Y-102652296D01*
X147459247Y-102589714D01*
X147553810Y-102526529D01*
X147560121Y-102538337D01*
X147601384Y-102588616D01*
X147651663Y-102629879D01*
X147709027Y-102660540D01*
X147771270Y-102679422D01*
X147836000Y-102685797D01*
X147980801Y-102685797D01*
X147980801Y-105816800D01*
X144642474Y-105816800D01*
X144626714Y-105778753D01*
X144535858Y-105642778D01*
X144430080Y-105537000D01*
X144535858Y-105431222D01*
X144626714Y-105295247D01*
X144689296Y-105144160D01*
X144721200Y-104983768D01*
X144721200Y-104820232D01*
X144689296Y-104659840D01*
X144626714Y-104508753D01*
X144535858Y-104372778D01*
X144420222Y-104257142D01*
X144284247Y-104166286D01*
X144133160Y-104103704D01*
X143972768Y-104071800D01*
X143809232Y-104071800D01*
X143648840Y-104103704D01*
X143497753Y-104166286D01*
X143361778Y-104257142D01*
X143256000Y-104362920D01*
X143150222Y-104257142D01*
X143014247Y-104166286D01*
X142863160Y-104103704D01*
X142702768Y-104071800D01*
X142539232Y-104071800D01*
X142378840Y-104103704D01*
X142227753Y-104166286D01*
X142091778Y-104257142D01*
X141986000Y-104362920D01*
X141880222Y-104257142D01*
X141744247Y-104166286D01*
X141593160Y-104103704D01*
X141432768Y-104071800D01*
X141269232Y-104071800D01*
X141108840Y-104103704D01*
X140957753Y-104166286D01*
X140821778Y-104257142D01*
X140716000Y-104362920D01*
X140610222Y-104257142D01*
X140474247Y-104166286D01*
X140323160Y-104103704D01*
X140162768Y-104071800D01*
X139999232Y-104071800D01*
X139838840Y-104103704D01*
X139687753Y-104166286D01*
X139551778Y-104257142D01*
X139446000Y-104362920D01*
X139340222Y-104257142D01*
X139204247Y-104166286D01*
X139053160Y-104103704D01*
X138892768Y-104071800D01*
X138729232Y-104071800D01*
X138568840Y-104103704D01*
X138417753Y-104166286D01*
X138281778Y-104257142D01*
X138176000Y-104362920D01*
X138070222Y-104257142D01*
X137934247Y-104166286D01*
X137783160Y-104103704D01*
X137622768Y-104071800D01*
X137459232Y-104071800D01*
X137298840Y-104103704D01*
X137147753Y-104166286D01*
X137011778Y-104257142D01*
X136906000Y-104362920D01*
X136800222Y-104257142D01*
X136664247Y-104166286D01*
X136513160Y-104103704D01*
X136352768Y-104071800D01*
X136189232Y-104071800D01*
X136028840Y-104103704D01*
X135877753Y-104166286D01*
X135741778Y-104257142D01*
X135636000Y-104362920D01*
X135530222Y-104257142D01*
X135394247Y-104166286D01*
X135243160Y-104103704D01*
X135082768Y-104071800D01*
X134919232Y-104071800D01*
X134758840Y-104103704D01*
X134607753Y-104166286D01*
X134471778Y-104257142D01*
X134366000Y-104362920D01*
X134260222Y-104257142D01*
X134124247Y-104166286D01*
X133973160Y-104103704D01*
X133812768Y-104071800D01*
X133649232Y-104071800D01*
X133488840Y-104103704D01*
X133337753Y-104166286D01*
X133201778Y-104257142D01*
X133096000Y-104362920D01*
X132990222Y-104257142D01*
X132854247Y-104166286D01*
X132703160Y-104103704D01*
X132542768Y-104071800D01*
X132379232Y-104071800D01*
X132218840Y-104103704D01*
X132067753Y-104166286D01*
X131931778Y-104257142D01*
X131826000Y-104362920D01*
X131720222Y-104257142D01*
X131584247Y-104166286D01*
X131433160Y-104103704D01*
X131272768Y-104071800D01*
X131109232Y-104071800D01*
X130948840Y-104103704D01*
X130797753Y-104166286D01*
X130661778Y-104257142D01*
X130556000Y-104362920D01*
X130450222Y-104257142D01*
X130314247Y-104166286D01*
X130163160Y-104103704D01*
X130002768Y-104071800D01*
X129839232Y-104071800D01*
X129678840Y-104103704D01*
X129527753Y-104166286D01*
X129391778Y-104257142D01*
X129286000Y-104362920D01*
X129180222Y-104257142D01*
X129044247Y-104166286D01*
X128893160Y-104103704D01*
X128732768Y-104071800D01*
X128569232Y-104071800D01*
X128408840Y-104103704D01*
X128257753Y-104166286D01*
X128121778Y-104257142D01*
X128016000Y-104362920D01*
X127910222Y-104257142D01*
X127774247Y-104166286D01*
X127623160Y-104103704D01*
X127462768Y-104071800D01*
X127299232Y-104071800D01*
X127138840Y-104103704D01*
X126987753Y-104166286D01*
X126851778Y-104257142D01*
X126736142Y-104372778D01*
X126645286Y-104508753D01*
X126582704Y-104659840D01*
X126550800Y-104820232D01*
X126550800Y-104983768D01*
X126582704Y-105144160D01*
X126645286Y-105295247D01*
X126708471Y-105389810D01*
X126696663Y-105396121D01*
X126646384Y-105437384D01*
X126605121Y-105487663D01*
X126574460Y-105545027D01*
X126555578Y-105607270D01*
X126549203Y-105672000D01*
X126549203Y-105816800D01*
X123291200Y-105816800D01*
X123291200Y-102605474D01*
X123329247Y-102589714D01*
X123465222Y-102498858D01*
X123571000Y-102393080D01*
X123676778Y-102498858D01*
X123812753Y-102589714D01*
X123963840Y-102652296D01*
X124124232Y-102684200D01*
X124287768Y-102684200D01*
X124448160Y-102652296D01*
X124599247Y-102589714D01*
X124735222Y-102498858D01*
X124850858Y-102383222D01*
X124941714Y-102247247D01*
X125004296Y-102096160D01*
X125036200Y-101935768D01*
X125036200Y-101772232D01*
X125004296Y-101611840D01*
X124941714Y-101460753D01*
X124850858Y-101324778D01*
X124745080Y-101219000D01*
X124850858Y-101113222D01*
X124941714Y-100977247D01*
X125004296Y-100826160D01*
X125036200Y-100665768D01*
X125036200Y-100633118D01*
X126316800Y-100633118D01*
X126316800Y-101042882D01*
X126396741Y-101444772D01*
X126553551Y-101823344D01*
X126781203Y-102164050D01*
X127070950Y-102453797D01*
X127411656Y-102681449D01*
X127790228Y-102838259D01*
X128192118Y-102918200D01*
X128601882Y-102918200D01*
X129003772Y-102838259D01*
X129382344Y-102681449D01*
X129723050Y-102453797D01*
X130012797Y-102164050D01*
X130240449Y-101823344D01*
X130397259Y-101444772D01*
X130477200Y-101042882D01*
X130477200Y-100633118D01*
X140921800Y-100633118D01*
X140921800Y-101042882D01*
X141001741Y-101444772D01*
X141158551Y-101823344D01*
X141386203Y-102164050D01*
X141675950Y-102453797D01*
X142016656Y-102681449D01*
X142395228Y-102838259D01*
X142797118Y-102918200D01*
X143206882Y-102918200D01*
X143608772Y-102838259D01*
X143987344Y-102681449D01*
X144328050Y-102453797D01*
X144617797Y-102164050D01*
X144845449Y-101823344D01*
X145002259Y-101444772D01*
X145082200Y-101042882D01*
X145082200Y-100633118D01*
X145002259Y-100231228D01*
X144845449Y-99852656D01*
X144617797Y-99511950D01*
X144328050Y-99222203D01*
X143987344Y-98994551D01*
X143608772Y-98837741D01*
X143206882Y-98757800D01*
X142797118Y-98757800D01*
X142395228Y-98837741D01*
X142016656Y-98994551D01*
X141675950Y-99222203D01*
X141386203Y-99511950D01*
X141158551Y-99852656D01*
X141001741Y-100231228D01*
X140921800Y-100633118D01*
X130477200Y-100633118D01*
X130397259Y-100231228D01*
X130240449Y-99852656D01*
X130012797Y-99511950D01*
X129723050Y-99222203D01*
X129408724Y-99012177D01*
X138058934Y-99012177D01*
X138058934Y-99126467D01*
X138081231Y-99238560D01*
X138124968Y-99344150D01*
X138188463Y-99439178D01*
X138269278Y-99519993D01*
X138364306Y-99583488D01*
X138469896Y-99627225D01*
X138581989Y-99649522D01*
X138696279Y-99649522D01*
X138808372Y-99627225D01*
X138913962Y-99583488D01*
X139008990Y-99519993D01*
X139078661Y-99450322D01*
X140078260Y-99450322D01*
X140158609Y-99530671D01*
X140253637Y-99594166D01*
X140359227Y-99637903D01*
X140471320Y-99660200D01*
X140585610Y-99660200D01*
X140697703Y-99637903D01*
X140803293Y-99594166D01*
X140898321Y-99530671D01*
X140979136Y-99449856D01*
X141042631Y-99354828D01*
X141086368Y-99249238D01*
X141108665Y-99137145D01*
X141108665Y-99022855D01*
X141086368Y-98910762D01*
X141042631Y-98805172D01*
X140979136Y-98710144D01*
X140898321Y-98629329D01*
X140803293Y-98565834D01*
X140697703Y-98522097D01*
X140585610Y-98499800D01*
X140471320Y-98499800D01*
X140359227Y-98522097D01*
X140253637Y-98565834D01*
X140158609Y-98629329D01*
X140099616Y-98688322D01*
X139078661Y-98688322D01*
X139008990Y-98618651D01*
X138913962Y-98555156D01*
X138808372Y-98511419D01*
X138696279Y-98489122D01*
X138581989Y-98489122D01*
X138469896Y-98511419D01*
X138364306Y-98555156D01*
X138269278Y-98618651D01*
X138188463Y-98699466D01*
X138124968Y-98794494D01*
X138081231Y-98900084D01*
X138058934Y-99012177D01*
X129408724Y-99012177D01*
X129382344Y-98994551D01*
X129003772Y-98837741D01*
X128601882Y-98757800D01*
X128192118Y-98757800D01*
X127790228Y-98837741D01*
X127411656Y-98994551D01*
X127070950Y-99222203D01*
X126781203Y-99511950D01*
X126553551Y-99852656D01*
X126396741Y-100231228D01*
X126316800Y-100633118D01*
X125036200Y-100633118D01*
X125036200Y-100502232D01*
X125004296Y-100341840D01*
X124941714Y-100190753D01*
X124850858Y-100054778D01*
X124745080Y-99949000D01*
X124850858Y-99843222D01*
X124941714Y-99707247D01*
X125004296Y-99556160D01*
X125036200Y-99395768D01*
X125036200Y-99232232D01*
X125004296Y-99071840D01*
X124941714Y-98920753D01*
X124850858Y-98784778D01*
X124745080Y-98679000D01*
X124850858Y-98573222D01*
X124941714Y-98437247D01*
X125004296Y-98286160D01*
X125036200Y-98125768D01*
X125036200Y-97962232D01*
X125004296Y-97801840D01*
X124941714Y-97650753D01*
X124850858Y-97514778D01*
X124745080Y-97409000D01*
X124850858Y-97303222D01*
X124941714Y-97167247D01*
X125004296Y-97016160D01*
X125036200Y-96855768D01*
X125036200Y-96692232D01*
X125022401Y-96622855D01*
X130019800Y-96622855D01*
X130019800Y-96737145D01*
X130042097Y-96849238D01*
X130085834Y-96954828D01*
X130149329Y-97049856D01*
X130230144Y-97130671D01*
X130325172Y-97194166D01*
X130430762Y-97237903D01*
X130542855Y-97260200D01*
X130657145Y-97260200D01*
X130769238Y-97237903D01*
X130874828Y-97194166D01*
X130969856Y-97130671D01*
X131050671Y-97049856D01*
X131114166Y-96954828D01*
X131157903Y-96849238D01*
X131180200Y-96737145D01*
X131180200Y-96688614D01*
X131683015Y-96185800D01*
X131781545Y-96185800D01*
X131893638Y-96163503D01*
X131999228Y-96119766D01*
X132094256Y-96056271D01*
X132175071Y-95975456D01*
X132238566Y-95880428D01*
X132282303Y-95774838D01*
X132304600Y-95662745D01*
X132304600Y-95548455D01*
X132282303Y-95436362D01*
X132238566Y-95330772D01*
X132175071Y-95235744D01*
X132094256Y-95154929D01*
X131999228Y-95091434D01*
X131893638Y-95047697D01*
X131781545Y-95025400D01*
X131667255Y-95025400D01*
X131555162Y-95047697D01*
X131449572Y-95091434D01*
X131354544Y-95154929D01*
X131273729Y-95235744D01*
X131210234Y-95330772D01*
X131166497Y-95436362D01*
X131144200Y-95548455D01*
X131144200Y-95646985D01*
X130685705Y-96105481D01*
X130657145Y-96099800D01*
X130542855Y-96099800D01*
X130430762Y-96122097D01*
X130325172Y-96165834D01*
X130230144Y-96229329D01*
X130149329Y-96310144D01*
X130085834Y-96405172D01*
X130042097Y-96510762D01*
X130019800Y-96622855D01*
X125022401Y-96622855D01*
X125004296Y-96531840D01*
X124941714Y-96380753D01*
X124850858Y-96244778D01*
X124745080Y-96139000D01*
X124850858Y-96033222D01*
X124941714Y-95897247D01*
X125004296Y-95746160D01*
X125036200Y-95585768D01*
X125036200Y-95422232D01*
X125004296Y-95261840D01*
X124941714Y-95110753D01*
X124850858Y-94974778D01*
X124745080Y-94869000D01*
X124850858Y-94763222D01*
X124941714Y-94627247D01*
X125004296Y-94476160D01*
X125036200Y-94315768D01*
X125036200Y-94152232D01*
X125004296Y-93991840D01*
X124941714Y-93840753D01*
X124850858Y-93704778D01*
X124745080Y-93599000D01*
X124850858Y-93493222D01*
X124941714Y-93357247D01*
X125004296Y-93206160D01*
X125036200Y-93045768D01*
X125036200Y-92882232D01*
X125004296Y-92721840D01*
X124941714Y-92570753D01*
X124850858Y-92434778D01*
X124745080Y-92329000D01*
X124850858Y-92223222D01*
X124941714Y-92087247D01*
X125004296Y-91936160D01*
X125036200Y-91775768D01*
X125036200Y-91612232D01*
X125004296Y-91451840D01*
X124941714Y-91300753D01*
X124850858Y-91164778D01*
X124745080Y-91059000D01*
X124850858Y-90953222D01*
X124941714Y-90817247D01*
X125004296Y-90666160D01*
X125036200Y-90505768D01*
X125036200Y-90342232D01*
X125004296Y-90181840D01*
X124941714Y-90030753D01*
X124850858Y-89894778D01*
X124745080Y-89789000D01*
X124850858Y-89683222D01*
X124941714Y-89547247D01*
X125004296Y-89396160D01*
X125036200Y-89235768D01*
X125036200Y-89072232D01*
X125004296Y-88911840D01*
X124941714Y-88760753D01*
X124850858Y-88624778D01*
X124745080Y-88519000D01*
X124850858Y-88413222D01*
X124941714Y-88277247D01*
X125004296Y-88126160D01*
X125036200Y-87965768D01*
X125036200Y-87802232D01*
X125004296Y-87641840D01*
X124941714Y-87490753D01*
X124850858Y-87354778D01*
X124745080Y-87249000D01*
X124850858Y-87143222D01*
X124941714Y-87007247D01*
X125004296Y-86856160D01*
X125036200Y-86695768D01*
X125036200Y-86532232D01*
X125004296Y-86371840D01*
X124941714Y-86220753D01*
X124850858Y-86084778D01*
X124794198Y-86028118D01*
X126316800Y-86028118D01*
X126316800Y-86437882D01*
X126396741Y-86839772D01*
X126553551Y-87218344D01*
X126781203Y-87559050D01*
X127070950Y-87848797D01*
X127411656Y-88076449D01*
X127790228Y-88233259D01*
X128192118Y-88313200D01*
X128601882Y-88313200D01*
X129003772Y-88233259D01*
X129382344Y-88076449D01*
X129723050Y-87848797D01*
X130012797Y-87559050D01*
X130240449Y-87218344D01*
X130397259Y-86839772D01*
X130477200Y-86437882D01*
X130477200Y-86028118D01*
X130397259Y-85626228D01*
X130240449Y-85247656D01*
X130012797Y-84906950D01*
X129723050Y-84617203D01*
X129382344Y-84389551D01*
X129003772Y-84232741D01*
X128601882Y-84152800D01*
X128192118Y-84152800D01*
X127790228Y-84232741D01*
X127411656Y-84389551D01*
X127070950Y-84617203D01*
X126781203Y-84906950D01*
X126553551Y-85247656D01*
X126396741Y-85626228D01*
X126316800Y-86028118D01*
X124794198Y-86028118D01*
X124745080Y-85979000D01*
X124850858Y-85873222D01*
X124941714Y-85737247D01*
X125004296Y-85586160D01*
X125036200Y-85425768D01*
X125036200Y-85262232D01*
X125004296Y-85101840D01*
X124941714Y-84950753D01*
X124850858Y-84814778D01*
X124735222Y-84699142D01*
X124599247Y-84608286D01*
X124448160Y-84545704D01*
X124287768Y-84513800D01*
X124124232Y-84513800D01*
X123963840Y-84545704D01*
X123812753Y-84608286D01*
X123718190Y-84671471D01*
X123711879Y-84659663D01*
X123670616Y-84609384D01*
X123620337Y-84568121D01*
X123562973Y-84537460D01*
X123500730Y-84518578D01*
X123436000Y-84512203D01*
X123291200Y-84512203D01*
X123291200Y-81127200D01*
X126629526Y-81127200D01*
X126645286Y-81165247D01*
G04 #@! TA.AperFunction,Conductor*
D17*
G36*
X126645286Y-81165247D02*
G01*
X126736142Y-81301222D01*
X126841920Y-81407000D01*
X126736142Y-81512778D01*
X126645286Y-81648753D01*
X126582704Y-81799840D01*
X126550800Y-81960232D01*
X126550800Y-82123768D01*
X126582704Y-82284160D01*
X126645286Y-82435247D01*
X126736142Y-82571222D01*
X126851778Y-82686858D01*
X126987753Y-82777714D01*
X127138840Y-82840296D01*
X127299232Y-82872200D01*
X127462768Y-82872200D01*
X127623160Y-82840296D01*
X127774247Y-82777714D01*
X127910222Y-82686858D01*
X128016000Y-82581080D01*
X128121778Y-82686858D01*
X128257753Y-82777714D01*
X128408840Y-82840296D01*
X128569232Y-82872200D01*
X128732768Y-82872200D01*
X128893160Y-82840296D01*
X129044247Y-82777714D01*
X129180222Y-82686858D01*
X129286000Y-82581080D01*
X129391778Y-82686858D01*
X129527753Y-82777714D01*
X129678840Y-82840296D01*
X129839232Y-82872200D01*
X130002768Y-82872200D01*
X130163160Y-82840296D01*
X130314247Y-82777714D01*
X130450222Y-82686858D01*
X130556000Y-82581080D01*
X130661778Y-82686858D01*
X130797753Y-82777714D01*
X130948840Y-82840296D01*
X131109232Y-82872200D01*
X131272768Y-82872200D01*
X131433160Y-82840296D01*
X131584247Y-82777714D01*
X131720222Y-82686858D01*
X131826000Y-82581080D01*
X131931778Y-82686858D01*
X132067753Y-82777714D01*
X132218840Y-82840296D01*
X132379232Y-82872200D01*
X132542768Y-82872200D01*
X132703160Y-82840296D01*
X132854247Y-82777714D01*
X132990222Y-82686858D01*
X133096000Y-82581080D01*
X133201778Y-82686858D01*
X133337753Y-82777714D01*
X133350000Y-82782787D01*
X133350001Y-83299472D01*
X133289329Y-83360144D01*
X133225834Y-83455172D01*
X133182097Y-83560762D01*
X133159800Y-83672855D01*
X133159800Y-83787145D01*
X133182097Y-83899238D01*
X133225834Y-84004828D01*
X133289329Y-84099856D01*
X133370144Y-84180671D01*
X133465172Y-84244166D01*
X133570762Y-84287903D01*
X133682855Y-84310200D01*
X133797145Y-84310200D01*
X133909238Y-84287903D01*
X134014828Y-84244166D01*
X134109856Y-84180671D01*
X134190671Y-84099856D01*
X134254166Y-84004828D01*
X134297903Y-83899238D01*
X134320200Y-83787145D01*
X134320200Y-83672855D01*
X134297903Y-83560762D01*
X134254166Y-83455172D01*
X134190671Y-83360144D01*
X134112000Y-83281473D01*
X134112000Y-82782787D01*
X134124247Y-82777714D01*
X134260222Y-82686858D01*
X134370786Y-82576294D01*
X134426989Y-82641791D01*
X134555032Y-82742250D01*
X134700213Y-82815799D01*
X134821197Y-82852495D01*
X134950200Y-82787922D01*
X134950200Y-82092800D01*
X134930200Y-82092800D01*
X134930200Y-81991200D01*
X134950200Y-81991200D01*
X134950200Y-81127200D01*
X135051800Y-81127200D01*
X135051800Y-81991200D01*
X135071800Y-81991200D01*
X135071800Y-82092800D01*
X135051800Y-82092800D01*
X135051800Y-82787922D01*
X135180803Y-82852495D01*
X135301787Y-82815799D01*
X135446968Y-82742250D01*
X135575011Y-82641791D01*
X135631214Y-82576294D01*
X135741778Y-82686858D01*
X135877753Y-82777714D01*
X136028840Y-82840296D01*
X136189232Y-82872200D01*
X136352768Y-82872200D01*
X136513160Y-82840296D01*
X136664247Y-82777714D01*
X136800222Y-82686858D01*
X136906000Y-82581080D01*
X137011778Y-82686858D01*
X137147753Y-82777714D01*
X137298840Y-82840296D01*
X137459232Y-82872200D01*
X137622768Y-82872200D01*
X137783160Y-82840296D01*
X137934247Y-82777714D01*
X138070222Y-82686858D01*
X138180786Y-82576294D01*
X138236989Y-82641791D01*
X138365032Y-82742250D01*
X138510213Y-82815799D01*
X138631197Y-82852495D01*
X138760200Y-82787922D01*
X138760200Y-82092800D01*
X138740200Y-82092800D01*
X138740200Y-81991200D01*
X138760200Y-81991200D01*
X138760200Y-81127200D01*
X138861800Y-81127200D01*
X138861800Y-81991200D01*
X138881800Y-81991200D01*
X138881800Y-82092800D01*
X138861800Y-82092800D01*
X138861800Y-82787922D01*
X138990803Y-82852495D01*
X139111787Y-82815799D01*
X139256968Y-82742250D01*
X139385011Y-82641791D01*
X139441214Y-82576294D01*
X139551778Y-82686858D01*
X139687753Y-82777714D01*
X139838840Y-82840296D01*
X139999232Y-82872200D01*
X140162768Y-82872200D01*
X140323160Y-82840296D01*
X140474247Y-82777714D01*
X140610222Y-82686858D01*
X140716000Y-82581080D01*
X140821778Y-82686858D01*
X140957753Y-82777714D01*
X141108840Y-82840296D01*
X141269232Y-82872200D01*
X141432768Y-82872200D01*
X141593160Y-82840296D01*
X141744247Y-82777714D01*
X141880222Y-82686858D01*
X141986000Y-82581080D01*
X142091778Y-82686858D01*
X142227753Y-82777714D01*
X142378840Y-82840296D01*
X142539232Y-82872200D01*
X142702768Y-82872200D01*
X142863160Y-82840296D01*
X143014247Y-82777714D01*
X143150222Y-82686858D01*
X143256000Y-82581080D01*
X143361778Y-82686858D01*
X143497753Y-82777714D01*
X143648840Y-82840296D01*
X143809232Y-82872200D01*
X143972768Y-82872200D01*
X144133160Y-82840296D01*
X144284247Y-82777714D01*
X144420222Y-82686858D01*
X144535858Y-82571222D01*
X144626714Y-82435247D01*
X144689296Y-82284160D01*
X144721200Y-82123768D01*
X144721200Y-81960232D01*
X144689296Y-81799840D01*
X144626714Y-81648753D01*
X144563529Y-81554190D01*
X144575337Y-81547879D01*
X144625616Y-81506616D01*
X144666879Y-81456337D01*
X144697540Y-81398973D01*
X144716422Y-81336730D01*
X144722797Y-81272000D01*
X144722797Y-81127200D01*
X147980800Y-81127200D01*
X147980800Y-84592526D01*
X147942753Y-84608286D01*
X147806778Y-84699142D01*
X147701000Y-84804920D01*
X147595222Y-84699142D01*
X147459247Y-84608286D01*
X147308160Y-84545704D01*
X147147768Y-84513800D01*
X146984232Y-84513800D01*
X146823840Y-84545704D01*
X146672753Y-84608286D01*
X146536778Y-84699142D01*
X146421142Y-84814778D01*
X146373018Y-84886800D01*
X145893378Y-84886800D01*
X144517174Y-83510597D01*
X144502853Y-83493147D01*
X144433236Y-83436013D01*
X144353809Y-83393559D01*
X144267627Y-83367415D01*
X144200460Y-83360800D01*
X144200450Y-83360800D01*
X144178000Y-83358589D01*
X144155550Y-83360800D01*
X137454450Y-83360800D01*
X137432000Y-83358589D01*
X137409550Y-83360800D01*
X137409540Y-83360800D01*
X137342373Y-83367415D01*
X137277301Y-83387155D01*
X137256190Y-83393559D01*
X137176764Y-83436013D01*
X137124592Y-83478829D01*
X137124586Y-83478835D01*
X137107147Y-83493147D01*
X137092835Y-83510586D01*
X130861331Y-89742092D01*
X130760762Y-89762097D01*
X130655172Y-89805834D01*
X130560144Y-89869329D01*
X130479329Y-89950144D01*
X130415834Y-90045172D01*
X130372097Y-90150762D01*
X130349800Y-90262855D01*
X130349800Y-90377145D01*
X130372097Y-90489238D01*
X130415834Y-90594828D01*
X130479329Y-90689856D01*
X130560144Y-90770671D01*
X130655172Y-90834166D01*
X130760762Y-90877903D01*
X130872855Y-90900200D01*
X130987145Y-90900200D01*
X131099238Y-90877903D01*
X131204828Y-90834166D01*
X131299856Y-90770671D01*
X131380671Y-90689856D01*
X131444166Y-90594828D01*
X131487903Y-90489238D01*
X131507908Y-90388669D01*
X137621379Y-84275200D01*
X142292723Y-84275200D01*
X142016656Y-84389551D01*
X141675950Y-84617203D01*
X141386203Y-84906950D01*
X141158551Y-85247656D01*
X141001741Y-85626228D01*
X140921800Y-86028118D01*
X140921800Y-86437882D01*
X141001741Y-86839772D01*
X141158551Y-87218344D01*
X141386203Y-87559050D01*
X141675950Y-87848797D01*
X142016656Y-88076449D01*
X142395228Y-88233259D01*
X142694560Y-88292800D01*
X136212450Y-88292800D01*
X136190000Y-88290589D01*
X136167550Y-88292800D01*
X136167540Y-88292800D01*
X136100373Y-88299415D01*
X136014191Y-88325559D01*
X135934764Y-88368013D01*
X135919617Y-88380444D01*
X135810762Y-88402097D01*
X135705172Y-88445834D01*
X135610144Y-88509329D01*
X135529329Y-88590144D01*
X135465834Y-88685172D01*
X135422097Y-88790762D01*
X135402093Y-88891330D01*
X134750623Y-89542800D01*
X133170085Y-89542800D01*
X133084828Y-89485834D01*
X132979238Y-89442097D01*
X132867145Y-89419800D01*
X132752855Y-89419800D01*
X132640762Y-89442097D01*
X132535172Y-89485834D01*
X132440144Y-89549329D01*
X132359329Y-89630144D01*
X132295834Y-89725172D01*
X132252097Y-89830762D01*
X132229800Y-89942855D01*
X132229800Y-90057145D01*
X132252097Y-90169238D01*
X132295834Y-90274828D01*
X132359329Y-90369856D01*
X132440144Y-90450671D01*
X132535172Y-90514166D01*
X132640762Y-90557903D01*
X132752855Y-90580200D01*
X132867145Y-90580200D01*
X132979238Y-90557903D01*
X133084828Y-90514166D01*
X133170085Y-90457200D01*
X134917550Y-90457200D01*
X134940000Y-90459411D01*
X134962450Y-90457200D01*
X134962460Y-90457200D01*
X135029627Y-90450585D01*
X135115809Y-90424441D01*
X135195236Y-90381987D01*
X135264853Y-90324853D01*
X135279174Y-90307403D01*
X136048670Y-89537907D01*
X136149238Y-89517903D01*
X136254828Y-89474166D01*
X136349856Y-89410671D01*
X136430671Y-89329856D01*
X136494166Y-89234828D01*
X136505610Y-89207200D01*
X143747550Y-89207200D01*
X143770000Y-89209411D01*
X143792450Y-89207200D01*
X143792460Y-89207200D01*
X143859627Y-89200585D01*
X143945809Y-89174441D01*
X144025236Y-89131987D01*
X144094853Y-89074853D01*
X144109174Y-89057403D01*
X146079379Y-87087200D01*
X146383709Y-87087200D01*
X146421142Y-87143222D01*
X146526920Y-87249000D01*
X146421142Y-87354778D01*
X146373018Y-87426800D01*
X146128449Y-87426800D01*
X146105999Y-87424589D01*
X146083549Y-87426800D01*
X146083540Y-87426800D01*
X146016373Y-87433415D01*
X145930191Y-87459559D01*
X145850764Y-87502013D01*
X145781147Y-87559147D01*
X145766830Y-87576592D01*
X143560623Y-89782800D01*
X141922449Y-89782800D01*
X141899999Y-89780589D01*
X141877549Y-89782800D01*
X141877540Y-89782800D01*
X141810373Y-89789415D01*
X141724191Y-89815559D01*
X141695748Y-89830762D01*
X141644763Y-89858013D01*
X141599966Y-89894778D01*
X141575147Y-89915147D01*
X141560830Y-89932592D01*
X140312593Y-91180830D01*
X140295148Y-91195147D01*
X140280831Y-91212592D01*
X140280830Y-91212593D01*
X140238013Y-91264765D01*
X140226765Y-91285809D01*
X140195560Y-91344191D01*
X140183233Y-91384828D01*
X140169416Y-91430374D01*
X140160589Y-91520000D01*
X140162801Y-91542459D01*
X140162800Y-92189915D01*
X140105834Y-92275172D01*
X140062097Y-92380762D01*
X140039800Y-92492855D01*
X140039800Y-92607145D01*
X140062097Y-92719238D01*
X140105834Y-92824828D01*
X140169329Y-92919856D01*
X140250144Y-93000671D01*
X140345172Y-93064166D01*
X140450762Y-93107903D01*
X140562855Y-93130200D01*
X140677145Y-93130200D01*
X140789238Y-93107903D01*
X140894828Y-93064166D01*
X140989856Y-93000671D01*
X141070671Y-92919856D01*
X141134166Y-92824828D01*
X141177903Y-92719238D01*
X141200200Y-92607145D01*
X141200200Y-92492855D01*
X141177903Y-92380762D01*
X141134166Y-92275172D01*
X141077200Y-92189915D01*
X141077200Y-91709377D01*
X142089378Y-90697200D01*
X143727550Y-90697200D01*
X143750000Y-90699411D01*
X143772450Y-90697200D01*
X143772460Y-90697200D01*
X143839627Y-90690585D01*
X143925809Y-90664441D01*
X144005236Y-90621987D01*
X144074853Y-90564853D01*
X144089174Y-90547403D01*
X146295378Y-88341200D01*
X146373018Y-88341200D01*
X146421142Y-88413222D01*
X146526920Y-88519000D01*
X146421142Y-88624778D01*
X146330286Y-88760753D01*
X146267704Y-88911840D01*
X146235800Y-89072232D01*
X146235800Y-89235768D01*
X146267704Y-89396160D01*
X146330286Y-89547247D01*
X146421142Y-89683222D01*
X146526920Y-89789000D01*
X146421142Y-89894778D01*
X146330286Y-90030753D01*
X146267704Y-90181840D01*
X146235800Y-90342232D01*
X146235800Y-90505768D01*
X146267704Y-90666160D01*
X146330286Y-90817247D01*
X146421142Y-90953222D01*
X146526920Y-91059000D01*
X146421142Y-91164778D01*
X146330286Y-91300753D01*
X146267704Y-91451840D01*
X146235800Y-91612232D01*
X146235800Y-91775768D01*
X146267704Y-91936160D01*
X146330286Y-92087247D01*
X146421142Y-92223222D01*
X146526920Y-92329000D01*
X146421142Y-92434778D01*
X146330286Y-92570753D01*
X146267704Y-92721840D01*
X146235800Y-92882232D01*
X146235800Y-93045768D01*
X146252699Y-93130724D01*
X146178222Y-93205201D01*
X139716225Y-93205201D01*
X139037200Y-92526177D01*
X139037200Y-91470085D01*
X139094166Y-91384828D01*
X139137903Y-91279238D01*
X139160200Y-91167145D01*
X139160200Y-91052855D01*
X139137903Y-90940762D01*
X139094166Y-90835172D01*
X139030671Y-90740144D01*
X138949856Y-90659329D01*
X138854828Y-90595834D01*
X138749238Y-90552097D01*
X138648670Y-90532093D01*
X138113160Y-89996583D01*
X138121205Y-89956140D01*
X138121205Y-89841850D01*
X138098908Y-89729757D01*
X138055171Y-89624167D01*
X137991676Y-89529139D01*
X137910861Y-89448324D01*
X137815833Y-89384829D01*
X137710243Y-89341092D01*
X137598150Y-89318795D01*
X137483860Y-89318795D01*
X137371767Y-89341092D01*
X137266177Y-89384829D01*
X137171149Y-89448324D01*
X137090334Y-89529139D01*
X137026839Y-89624167D01*
X136983102Y-89729757D01*
X136960805Y-89841850D01*
X136960805Y-89956140D01*
X136983102Y-90068233D01*
X137026839Y-90173823D01*
X137090334Y-90268851D01*
X137171149Y-90349666D01*
X137186857Y-90360161D01*
X137216153Y-90395858D01*
X137233598Y-90410175D01*
X138002093Y-91178670D01*
X138022097Y-91279238D01*
X138065834Y-91384828D01*
X138122800Y-91470085D01*
X138122801Y-92693094D01*
X138120589Y-92715554D01*
X138122801Y-92738014D01*
X138129416Y-92805181D01*
X138129433Y-92805236D01*
X138155560Y-92891363D01*
X138198013Y-92970789D01*
X138229711Y-93009412D01*
X138255148Y-93040407D01*
X138272593Y-93054724D01*
X139187677Y-93969809D01*
X139201994Y-93987254D01*
X139271611Y-94044388D01*
X139351038Y-94086842D01*
X139437220Y-94112986D01*
X139504387Y-94119601D01*
X139504397Y-94119601D01*
X139526847Y-94121812D01*
X139549297Y-94119601D01*
X146242291Y-94119601D01*
X146235800Y-94152232D01*
X146235800Y-94315768D01*
X146267704Y-94476160D01*
X146330286Y-94627247D01*
X146421142Y-94763222D01*
X146526920Y-94869000D01*
X146421142Y-94974778D01*
X146330286Y-95110753D01*
X146267704Y-95261840D01*
X146235800Y-95422232D01*
X146235800Y-95585768D01*
X146246590Y-95640012D01*
X145019174Y-94412597D01*
X145004853Y-94395147D01*
X144935236Y-94338013D01*
X144855809Y-94295559D01*
X144769627Y-94269415D01*
X144702460Y-94262800D01*
X144702450Y-94262800D01*
X144680000Y-94260589D01*
X144657550Y-94262800D01*
X134869378Y-94262800D01*
X133659174Y-93052597D01*
X133644853Y-93035147D01*
X133575236Y-92978013D01*
X133495809Y-92935559D01*
X133409627Y-92909415D01*
X133342460Y-92902800D01*
X133342450Y-92902800D01*
X133320000Y-92900589D01*
X133297550Y-92902800D01*
X132458327Y-92902800D01*
X132449856Y-92894329D01*
X132354828Y-92830834D01*
X132249238Y-92787097D01*
X132137145Y-92764800D01*
X132022855Y-92764800D01*
X131910762Y-92787097D01*
X131805172Y-92830834D01*
X131710144Y-92894329D01*
X131629329Y-92975144D01*
X131565834Y-93070172D01*
X131522097Y-93175762D01*
X131499800Y-93287855D01*
X131499800Y-93402145D01*
X131522097Y-93514238D01*
X131565834Y-93619828D01*
X131629329Y-93714856D01*
X131710144Y-93795671D01*
X131805172Y-93859166D01*
X131910762Y-93902903D01*
X132022855Y-93925200D01*
X132137145Y-93925200D01*
X132249238Y-93902903D01*
X132354828Y-93859166D01*
X132417635Y-93817200D01*
X133130623Y-93817200D01*
X134340829Y-95027407D01*
X134355147Y-95044853D01*
X134372592Y-95059170D01*
X134424763Y-95101987D01*
X134441164Y-95110753D01*
X134504191Y-95144441D01*
X134590373Y-95170585D01*
X134657540Y-95177200D01*
X134657549Y-95177200D01*
X134679999Y-95179411D01*
X134702449Y-95177200D01*
X144490623Y-95177200D01*
X145572801Y-96259379D01*
X145572801Y-96936223D01*
X144214174Y-95577597D01*
X144199853Y-95560147D01*
X144130236Y-95503013D01*
X144050809Y-95460559D01*
X143964627Y-95434415D01*
X143897460Y-95427800D01*
X143897450Y-95427800D01*
X143875000Y-95425589D01*
X143852550Y-95427800D01*
X133329085Y-95427800D01*
X133243828Y-95370834D01*
X133138238Y-95327097D01*
X133026145Y-95304800D01*
X132911855Y-95304800D01*
X132799762Y-95327097D01*
X132694172Y-95370834D01*
X132599144Y-95434329D01*
X132518329Y-95515144D01*
X132454834Y-95610172D01*
X132411097Y-95715762D01*
X132388800Y-95827855D01*
X132388800Y-95942145D01*
X132411097Y-96054238D01*
X132454834Y-96159828D01*
X132518329Y-96254856D01*
X132599144Y-96335671D01*
X132694172Y-96399166D01*
X132799762Y-96442903D01*
X132911855Y-96465200D01*
X133026145Y-96465200D01*
X133138238Y-96442903D01*
X133243828Y-96399166D01*
X133329085Y-96342200D01*
X143685623Y-96342200D01*
X145052800Y-97709378D01*
X145052801Y-100275540D01*
X145050589Y-100298000D01*
X145059416Y-100387626D01*
X145085560Y-100473809D01*
X145096552Y-100494373D01*
X145128014Y-100553236D01*
X145185148Y-100622853D01*
X145202593Y-100637170D01*
X146252699Y-101687276D01*
X146235800Y-101772232D01*
X146235800Y-101935768D01*
X146267704Y-102096160D01*
X146330286Y-102247247D01*
X146421142Y-102383222D01*
X146536778Y-102498858D01*
X146672753Y-102589714D01*
X146823840Y-102652296D01*
X146984232Y-102684200D01*
X147147768Y-102684200D01*
X147308160Y-102652296D01*
X147459247Y-102589714D01*
X147553810Y-102526529D01*
X147560121Y-102538337D01*
X147601384Y-102588616D01*
X147651663Y-102629879D01*
X147709027Y-102660540D01*
X147771270Y-102679422D01*
X147836000Y-102685797D01*
X147980801Y-102685797D01*
X147980801Y-105816800D01*
X144642474Y-105816800D01*
X144626714Y-105778753D01*
X144535858Y-105642778D01*
X144430080Y-105537000D01*
X144535858Y-105431222D01*
X144626714Y-105295247D01*
X144689296Y-105144160D01*
X144721200Y-104983768D01*
X144721200Y-104820232D01*
X144689296Y-104659840D01*
X144626714Y-104508753D01*
X144535858Y-104372778D01*
X144420222Y-104257142D01*
X144284247Y-104166286D01*
X144133160Y-104103704D01*
X143972768Y-104071800D01*
X143809232Y-104071800D01*
X143648840Y-104103704D01*
X143497753Y-104166286D01*
X143361778Y-104257142D01*
X143256000Y-104362920D01*
X143150222Y-104257142D01*
X143014247Y-104166286D01*
X142863160Y-104103704D01*
X142702768Y-104071800D01*
X142539232Y-104071800D01*
X142378840Y-104103704D01*
X142227753Y-104166286D01*
X142091778Y-104257142D01*
X141986000Y-104362920D01*
X141880222Y-104257142D01*
X141744247Y-104166286D01*
X141593160Y-104103704D01*
X141432768Y-104071800D01*
X141269232Y-104071800D01*
X141108840Y-104103704D01*
X140957753Y-104166286D01*
X140821778Y-104257142D01*
X140716000Y-104362920D01*
X140610222Y-104257142D01*
X140474247Y-104166286D01*
X140323160Y-104103704D01*
X140162768Y-104071800D01*
X139999232Y-104071800D01*
X139838840Y-104103704D01*
X139687753Y-104166286D01*
X139551778Y-104257142D01*
X139446000Y-104362920D01*
X139340222Y-104257142D01*
X139204247Y-104166286D01*
X139053160Y-104103704D01*
X138892768Y-104071800D01*
X138729232Y-104071800D01*
X138568840Y-104103704D01*
X138417753Y-104166286D01*
X138281778Y-104257142D01*
X138176000Y-104362920D01*
X138070222Y-104257142D01*
X137934247Y-104166286D01*
X137783160Y-104103704D01*
X137622768Y-104071800D01*
X137459232Y-104071800D01*
X137298840Y-104103704D01*
X137147753Y-104166286D01*
X137011778Y-104257142D01*
X136906000Y-104362920D01*
X136800222Y-104257142D01*
X136664247Y-104166286D01*
X136513160Y-104103704D01*
X136352768Y-104071800D01*
X136189232Y-104071800D01*
X136028840Y-104103704D01*
X135877753Y-104166286D01*
X135741778Y-104257142D01*
X135636000Y-104362920D01*
X135530222Y-104257142D01*
X135394247Y-104166286D01*
X135243160Y-104103704D01*
X135082768Y-104071800D01*
X134919232Y-104071800D01*
X134758840Y-104103704D01*
X134607753Y-104166286D01*
X134471778Y-104257142D01*
X134366000Y-104362920D01*
X134260222Y-104257142D01*
X134124247Y-104166286D01*
X133973160Y-104103704D01*
X133812768Y-104071800D01*
X133649232Y-104071800D01*
X133488840Y-104103704D01*
X133337753Y-104166286D01*
X133201778Y-104257142D01*
X133096000Y-104362920D01*
X132990222Y-104257142D01*
X132854247Y-104166286D01*
X132703160Y-104103704D01*
X132542768Y-104071800D01*
X132379232Y-104071800D01*
X132218840Y-104103704D01*
X132067753Y-104166286D01*
X131931778Y-104257142D01*
X131826000Y-104362920D01*
X131720222Y-104257142D01*
X131584247Y-104166286D01*
X131433160Y-104103704D01*
X131272768Y-104071800D01*
X131109232Y-104071800D01*
X130948840Y-104103704D01*
X130797753Y-104166286D01*
X130661778Y-104257142D01*
X130556000Y-104362920D01*
X130450222Y-104257142D01*
X130314247Y-104166286D01*
X130163160Y-104103704D01*
X130002768Y-104071800D01*
X129839232Y-104071800D01*
X129678840Y-104103704D01*
X129527753Y-104166286D01*
X129391778Y-104257142D01*
X129286000Y-104362920D01*
X129180222Y-104257142D01*
X129044247Y-104166286D01*
X128893160Y-104103704D01*
X128732768Y-104071800D01*
X128569232Y-104071800D01*
X128408840Y-104103704D01*
X128257753Y-104166286D01*
X128121778Y-104257142D01*
X128016000Y-104362920D01*
X127910222Y-104257142D01*
X127774247Y-104166286D01*
X127623160Y-104103704D01*
X127462768Y-104071800D01*
X127299232Y-104071800D01*
X127138840Y-104103704D01*
X126987753Y-104166286D01*
X126851778Y-104257142D01*
X126736142Y-104372778D01*
X126645286Y-104508753D01*
X126582704Y-104659840D01*
X126550800Y-104820232D01*
X126550800Y-104983768D01*
X126582704Y-105144160D01*
X126645286Y-105295247D01*
X126708471Y-105389810D01*
X126696663Y-105396121D01*
X126646384Y-105437384D01*
X126605121Y-105487663D01*
X126574460Y-105545027D01*
X126555578Y-105607270D01*
X126549203Y-105672000D01*
X126549203Y-105816800D01*
X123291200Y-105816800D01*
X123291200Y-102605474D01*
X123329247Y-102589714D01*
X123465222Y-102498858D01*
X123571000Y-102393080D01*
X123676778Y-102498858D01*
X123812753Y-102589714D01*
X123963840Y-102652296D01*
X124124232Y-102684200D01*
X124287768Y-102684200D01*
X124448160Y-102652296D01*
X124599247Y-102589714D01*
X124735222Y-102498858D01*
X124850858Y-102383222D01*
X124941714Y-102247247D01*
X125004296Y-102096160D01*
X125036200Y-101935768D01*
X125036200Y-101772232D01*
X125004296Y-101611840D01*
X124941714Y-101460753D01*
X124850858Y-101324778D01*
X124745080Y-101219000D01*
X124850858Y-101113222D01*
X124941714Y-100977247D01*
X125004296Y-100826160D01*
X125036200Y-100665768D01*
X125036200Y-100633118D01*
X126316800Y-100633118D01*
X126316800Y-101042882D01*
X126396741Y-101444772D01*
X126553551Y-101823344D01*
X126781203Y-102164050D01*
X127070950Y-102453797D01*
X127411656Y-102681449D01*
X127790228Y-102838259D01*
X128192118Y-102918200D01*
X128601882Y-102918200D01*
X129003772Y-102838259D01*
X129382344Y-102681449D01*
X129723050Y-102453797D01*
X130012797Y-102164050D01*
X130240449Y-101823344D01*
X130397259Y-101444772D01*
X130477200Y-101042882D01*
X130477200Y-100633118D01*
X140921800Y-100633118D01*
X140921800Y-101042882D01*
X141001741Y-101444772D01*
X141158551Y-101823344D01*
X141386203Y-102164050D01*
X141675950Y-102453797D01*
X142016656Y-102681449D01*
X142395228Y-102838259D01*
X142797118Y-102918200D01*
X143206882Y-102918200D01*
X143608772Y-102838259D01*
X143987344Y-102681449D01*
X144328050Y-102453797D01*
X144617797Y-102164050D01*
X144845449Y-101823344D01*
X145002259Y-101444772D01*
X145082200Y-101042882D01*
X145082200Y-100633118D01*
X145002259Y-100231228D01*
X144845449Y-99852656D01*
X144617797Y-99511950D01*
X144328050Y-99222203D01*
X143987344Y-98994551D01*
X143608772Y-98837741D01*
X143206882Y-98757800D01*
X142797118Y-98757800D01*
X142395228Y-98837741D01*
X142016656Y-98994551D01*
X141675950Y-99222203D01*
X141386203Y-99511950D01*
X141158551Y-99852656D01*
X141001741Y-100231228D01*
X140921800Y-100633118D01*
X130477200Y-100633118D01*
X130397259Y-100231228D01*
X130240449Y-99852656D01*
X130012797Y-99511950D01*
X129723050Y-99222203D01*
X129408724Y-99012177D01*
X138058934Y-99012177D01*
X138058934Y-99126467D01*
X138081231Y-99238560D01*
X138124968Y-99344150D01*
X138188463Y-99439178D01*
X138269278Y-99519993D01*
X138364306Y-99583488D01*
X138469896Y-99627225D01*
X138581989Y-99649522D01*
X138696279Y-99649522D01*
X138808372Y-99627225D01*
X138913962Y-99583488D01*
X139008990Y-99519993D01*
X139078661Y-99450322D01*
X140078260Y-99450322D01*
X140158609Y-99530671D01*
X140253637Y-99594166D01*
X140359227Y-99637903D01*
X140471320Y-99660200D01*
X140585610Y-99660200D01*
X140697703Y-99637903D01*
X140803293Y-99594166D01*
X140898321Y-99530671D01*
X140979136Y-99449856D01*
X141042631Y-99354828D01*
X141086368Y-99249238D01*
X141108665Y-99137145D01*
X141108665Y-99022855D01*
X141086368Y-98910762D01*
X141042631Y-98805172D01*
X140979136Y-98710144D01*
X140898321Y-98629329D01*
X140803293Y-98565834D01*
X140697703Y-98522097D01*
X140585610Y-98499800D01*
X140471320Y-98499800D01*
X140359227Y-98522097D01*
X140253637Y-98565834D01*
X140158609Y-98629329D01*
X140099616Y-98688322D01*
X139078661Y-98688322D01*
X139008990Y-98618651D01*
X138913962Y-98555156D01*
X138808372Y-98511419D01*
X138696279Y-98489122D01*
X138581989Y-98489122D01*
X138469896Y-98511419D01*
X138364306Y-98555156D01*
X138269278Y-98618651D01*
X138188463Y-98699466D01*
X138124968Y-98794494D01*
X138081231Y-98900084D01*
X138058934Y-99012177D01*
X129408724Y-99012177D01*
X129382344Y-98994551D01*
X129003772Y-98837741D01*
X128601882Y-98757800D01*
X128192118Y-98757800D01*
X127790228Y-98837741D01*
X127411656Y-98994551D01*
X127070950Y-99222203D01*
X126781203Y-99511950D01*
X126553551Y-99852656D01*
X126396741Y-100231228D01*
X126316800Y-100633118D01*
X125036200Y-100633118D01*
X125036200Y-100502232D01*
X125004296Y-100341840D01*
X124941714Y-100190753D01*
X124850858Y-100054778D01*
X124745080Y-99949000D01*
X124850858Y-99843222D01*
X124941714Y-99707247D01*
X125004296Y-99556160D01*
X125036200Y-99395768D01*
X125036200Y-99232232D01*
X125004296Y-99071840D01*
X124941714Y-98920753D01*
X124850858Y-98784778D01*
X124745080Y-98679000D01*
X124850858Y-98573222D01*
X124941714Y-98437247D01*
X125004296Y-98286160D01*
X125036200Y-98125768D01*
X125036200Y-97962232D01*
X125004296Y-97801840D01*
X124941714Y-97650753D01*
X124850858Y-97514778D01*
X124745080Y-97409000D01*
X124850858Y-97303222D01*
X124941714Y-97167247D01*
X125004296Y-97016160D01*
X125036200Y-96855768D01*
X125036200Y-96692232D01*
X125022401Y-96622855D01*
X130019800Y-96622855D01*
X130019800Y-96737145D01*
X130042097Y-96849238D01*
X130085834Y-96954828D01*
X130149329Y-97049856D01*
X130230144Y-97130671D01*
X130325172Y-97194166D01*
X130430762Y-97237903D01*
X130542855Y-97260200D01*
X130657145Y-97260200D01*
X130769238Y-97237903D01*
X130874828Y-97194166D01*
X130969856Y-97130671D01*
X131050671Y-97049856D01*
X131114166Y-96954828D01*
X131157903Y-96849238D01*
X131180200Y-96737145D01*
X131180200Y-96688614D01*
X131683015Y-96185800D01*
X131781545Y-96185800D01*
X131893638Y-96163503D01*
X131999228Y-96119766D01*
X132094256Y-96056271D01*
X132175071Y-95975456D01*
X132238566Y-95880428D01*
X132282303Y-95774838D01*
X132304600Y-95662745D01*
X132304600Y-95548455D01*
X132282303Y-95436362D01*
X132238566Y-95330772D01*
X132175071Y-95235744D01*
X132094256Y-95154929D01*
X131999228Y-95091434D01*
X131893638Y-95047697D01*
X131781545Y-95025400D01*
X131667255Y-95025400D01*
X131555162Y-95047697D01*
X131449572Y-95091434D01*
X131354544Y-95154929D01*
X131273729Y-95235744D01*
X131210234Y-95330772D01*
X131166497Y-95436362D01*
X131144200Y-95548455D01*
X131144200Y-95646985D01*
X130685705Y-96105481D01*
X130657145Y-96099800D01*
X130542855Y-96099800D01*
X130430762Y-96122097D01*
X130325172Y-96165834D01*
X130230144Y-96229329D01*
X130149329Y-96310144D01*
X130085834Y-96405172D01*
X130042097Y-96510762D01*
X130019800Y-96622855D01*
X125022401Y-96622855D01*
X125004296Y-96531840D01*
X124941714Y-96380753D01*
X124850858Y-96244778D01*
X124745080Y-96139000D01*
X124850858Y-96033222D01*
X124941714Y-95897247D01*
X125004296Y-95746160D01*
X125036200Y-95585768D01*
X125036200Y-95422232D01*
X125004296Y-95261840D01*
X124941714Y-95110753D01*
X124850858Y-94974778D01*
X124745080Y-94869000D01*
X124850858Y-94763222D01*
X124941714Y-94627247D01*
X125004296Y-94476160D01*
X125036200Y-94315768D01*
X125036200Y-94152232D01*
X125004296Y-93991840D01*
X124941714Y-93840753D01*
X124850858Y-93704778D01*
X124745080Y-93599000D01*
X124850858Y-93493222D01*
X124941714Y-93357247D01*
X125004296Y-93206160D01*
X125036200Y-93045768D01*
X125036200Y-92882232D01*
X125004296Y-92721840D01*
X124941714Y-92570753D01*
X124850858Y-92434778D01*
X124745080Y-92329000D01*
X124850858Y-92223222D01*
X124941714Y-92087247D01*
X125004296Y-91936160D01*
X125036200Y-91775768D01*
X125036200Y-91612232D01*
X125004296Y-91451840D01*
X124941714Y-91300753D01*
X124850858Y-91164778D01*
X124745080Y-91059000D01*
X124850858Y-90953222D01*
X124941714Y-90817247D01*
X125004296Y-90666160D01*
X125036200Y-90505768D01*
X125036200Y-90342232D01*
X125004296Y-90181840D01*
X124941714Y-90030753D01*
X124850858Y-89894778D01*
X124745080Y-89789000D01*
X124850858Y-89683222D01*
X124941714Y-89547247D01*
X125004296Y-89396160D01*
X125036200Y-89235768D01*
X125036200Y-89072232D01*
X125004296Y-88911840D01*
X124941714Y-88760753D01*
X124850858Y-88624778D01*
X124745080Y-88519000D01*
X124850858Y-88413222D01*
X124941714Y-88277247D01*
X125004296Y-88126160D01*
X125036200Y-87965768D01*
X125036200Y-87802232D01*
X125004296Y-87641840D01*
X124941714Y-87490753D01*
X124850858Y-87354778D01*
X124745080Y-87249000D01*
X124850858Y-87143222D01*
X124941714Y-87007247D01*
X125004296Y-86856160D01*
X125036200Y-86695768D01*
X125036200Y-86532232D01*
X125004296Y-86371840D01*
X124941714Y-86220753D01*
X124850858Y-86084778D01*
X124794198Y-86028118D01*
X126316800Y-86028118D01*
X126316800Y-86437882D01*
X126396741Y-86839772D01*
X126553551Y-87218344D01*
X126781203Y-87559050D01*
X127070950Y-87848797D01*
X127411656Y-88076449D01*
X127790228Y-88233259D01*
X128192118Y-88313200D01*
X128601882Y-88313200D01*
X129003772Y-88233259D01*
X129382344Y-88076449D01*
X129723050Y-87848797D01*
X130012797Y-87559050D01*
X130240449Y-87218344D01*
X130397259Y-86839772D01*
X130477200Y-86437882D01*
X130477200Y-86028118D01*
X130397259Y-85626228D01*
X130240449Y-85247656D01*
X130012797Y-84906950D01*
X129723050Y-84617203D01*
X129382344Y-84389551D01*
X129003772Y-84232741D01*
X128601882Y-84152800D01*
X128192118Y-84152800D01*
X127790228Y-84232741D01*
X127411656Y-84389551D01*
X127070950Y-84617203D01*
X126781203Y-84906950D01*
X126553551Y-85247656D01*
X126396741Y-85626228D01*
X126316800Y-86028118D01*
X124794198Y-86028118D01*
X124745080Y-85979000D01*
X124850858Y-85873222D01*
X124941714Y-85737247D01*
X125004296Y-85586160D01*
X125036200Y-85425768D01*
X125036200Y-85262232D01*
X125004296Y-85101840D01*
X124941714Y-84950753D01*
X124850858Y-84814778D01*
X124735222Y-84699142D01*
X124599247Y-84608286D01*
X124448160Y-84545704D01*
X124287768Y-84513800D01*
X124124232Y-84513800D01*
X123963840Y-84545704D01*
X123812753Y-84608286D01*
X123718190Y-84671471D01*
X123711879Y-84659663D01*
X123670616Y-84609384D01*
X123620337Y-84568121D01*
X123562973Y-84537460D01*
X123500730Y-84518578D01*
X123436000Y-84512203D01*
X123291200Y-84512203D01*
X123291200Y-81127200D01*
X126629526Y-81127200D01*
X126645286Y-81165247D01*
G37*
G04 #@! TD.AperFunction*
M02*
