*
%FSLAX24Y24*%
%MOIN*%
%ADD10C,0.005010*%
%ADD11C,0.005906*%
%ADD12R,0.027280X0.027280*%
%ADD13C,0.230035*%
%ADD14C,0.022000*%
%IPPOS*%
%LNm386940-gbo.GBR*%
%LPD*%
G54D10*
X006615Y001456D02*
X006660D01*
X006683Y001441D01*
X006694Y001426D01*
X006716Y001381D01*
X006728Y001321D01*
Y001201D01*
X006716Y001171D01*
X006705Y001156D01*
X006683Y001141D01*
X006638D01*
X006615Y001156D01*
X006604Y001171D01*
X006593Y001201D01*
Y001276D01*
X006604Y001306D01*
X006615Y001321D01*
X006638Y001336D01*
X006683D01*
X006705Y001321D01*
X006716Y001306D01*
X006728Y001276D01*
X006390Y001456D02*
X006435D01*
X006458Y001441D01*
X006469Y001426D01*
X006491Y001381D01*
X006503Y001321D01*
Y001201D01*
X006491Y001171D01*
X006480Y001156D01*
X006458Y001141D01*
X006413D01*
X006390Y001156D01*
X006379Y001171D01*
X006368Y001201D01*
Y001276D01*
X006379Y001306D01*
X006390Y001321D01*
X006413Y001336D01*
X006458D01*
X006480Y001321D01*
X006491Y001306D01*
X006503Y001276D01*
X010723Y001426D02*
X010711Y001441D01*
X010689Y001456D01*
X010633D01*
X010610Y001441D01*
X010599Y001426D01*
X010588Y001396D01*
Y001366D01*
X010599Y001321D01*
X010734Y001141D01*
X010588D01*
X010385Y001351D02*
Y001141D01*
X010442Y001471D02*
X010498Y001246D01*
X010352D01*
X013857Y001418D02*
X013845Y001433D01*
X013823Y001448D01*
X013767D01*
X013744Y001433D01*
X013733Y001418D01*
X013722Y001388D01*
Y001358D01*
X013733Y001313D01*
X013868Y001133D01*
X013722D01*
X011971Y001430D02*
X011960Y001445D01*
X011937Y001460D01*
X011881D01*
X011858Y001445D01*
X011847Y001430D01*
X011836Y001400D01*
Y001370D01*
X011847Y001325D01*
X011982Y001145D01*
X011836D01*
X011746Y001430D02*
X011735Y001445D01*
X011712Y001460D01*
X011656D01*
X011633Y001445D01*
X011622Y001430D01*
X011611Y001400D01*
Y001370D01*
X011622Y001325D01*
X011757Y001145D01*
X011611D01*
G54D11*
X014370Y001791D02*
X005906D01*
X006274Y008548D02*
X006212Y008543D01*
X006152Y008529D01*
X006094Y008505D01*
X006041Y008472D01*
X005994Y008431D01*
X005954Y008384D01*
X005922Y008330D01*
X005899Y008273D01*
X005885Y008212D01*
X005881Y008155D01*
X006398Y008429D02*
X006336Y008424D01*
X006275Y008410D01*
X006218Y008386D01*
X006165Y008353D01*
X006118Y008312D01*
X006077Y008264D01*
X006045Y008211D01*
X006022Y008153D01*
X006008Y008093D01*
X006004Y008035D01*
X011457Y001225D02*
X011452Y001279D01*
X011438Y001331D01*
X011414Y001379D01*
X011382Y001422D01*
X011342Y001459D01*
X011297Y001488D01*
X011247Y001508D01*
X011194Y001519D01*
X011140Y001520D01*
X011087Y001511D01*
X011036Y001493D01*
X010989Y001466D01*
X010948Y001430D01*
X010915Y001388D01*
X010889Y001341D01*
X010873Y001289D01*
X010866Y001236D01*
X010865Y001225D01*
X010512Y008570D02*
X010519Y008462D01*
X010535Y008356D01*
X010562Y008251D01*
X010597Y008149D01*
X010642Y008051D01*
X010696Y007957D01*
X010758Y007869D01*
X010828Y007786D01*
X010905Y007711D01*
X010988Y007643D01*
X011078Y007582D01*
X011172Y007530D01*
X011271Y007487D01*
X011374Y007453D01*
X011479Y007429D01*
X011586Y007414D01*
X011694Y007409D01*
X011801Y007414D01*
X011908Y007429D01*
X012013Y007454D01*
X012116Y007488D01*
X012215Y007531D01*
X012309Y007583D01*
X012399Y007643D01*
X012482Y007712D01*
X012559Y007787D01*
X012629Y007870D01*
X012691Y007958D01*
X012744Y008052D01*
X012789Y008150D01*
X012825Y008252D01*
X012851Y008357D01*
X012867Y008464D01*
X012874Y008570D01*
X014240Y008047D02*
X014235Y008109D01*
X014221Y008170D01*
X014197Y008227D01*
X014164Y008280D01*
X014123Y008327D01*
X014075Y008367D01*
X014022Y008400D01*
X013964Y008423D01*
X013904Y008437D01*
X013846Y008441D01*
X014359Y008170D02*
X014354Y008233D01*
X014340Y008293D01*
X014316Y008350D01*
X014283Y008403D01*
X014242Y008451D01*
X014195Y008491D01*
X014141Y008523D01*
X014084Y008546D01*
X014023Y008560D01*
X013966Y008564D01*
G54D10*
X013621Y017442D02*
X013576D01*
X013554Y017457D01*
X013542Y017472D01*
X013520Y017517D01*
X013509Y017577D01*
Y017697D01*
X013520Y017727D01*
X013531Y017742D01*
X013554Y017757D01*
X013599D01*
X013621Y017742D01*
X013632Y017727D01*
X013644Y017697D01*
Y017622D01*
X013632Y017592D01*
X013621Y017577D01*
X013599Y017562D01*
X013554D01*
X013531Y017577D01*
X013520Y017592D01*
X013509Y017622D01*
X013846Y017442D02*
X013801D01*
X013779Y017457D01*
X013767Y017472D01*
X013745Y017517D01*
X013734Y017577D01*
Y017697D01*
X013745Y017727D01*
X013756Y017742D01*
X013779Y017757D01*
X013824D01*
X013846Y017742D01*
X013857Y017727D01*
X013869Y017697D01*
Y017622D01*
X013857Y017592D01*
X013846Y017577D01*
X013824Y017562D01*
X013779D01*
X013756Y017577D01*
X013745Y017592D01*
X013734Y017622D01*
X009513Y017472D02*
X009525Y017457D01*
X009547Y017442D01*
X009603D01*
X009626Y017457D01*
X009637Y017472D01*
X009648Y017502D01*
Y017532D01*
X009637Y017577D01*
X009502Y017757D01*
X009648D01*
X009851Y017547D02*
Y017757D01*
X009795Y017427D02*
X009738Y017652D01*
X009885D01*
X006380Y017480D02*
X006391Y017465D01*
X006413Y017450D01*
X006470D01*
X006492Y017465D01*
X006503Y017480D01*
X006515Y017510D01*
Y017540D01*
X006503Y017585D01*
X006368Y017765D01*
X006515D01*
X008265Y017468D02*
X008277Y017453D01*
X008299Y017438D01*
X008355D01*
X008378Y017453D01*
X008389Y017468D01*
X008400Y017498D01*
Y017528D01*
X008389Y017573D01*
X008254Y017753D01*
X008400D01*
X008490Y017468D02*
X008502Y017453D01*
X008524Y017438D01*
X008580D01*
X008603Y017453D01*
X008614Y017468D01*
X008625Y017498D01*
Y017528D01*
X008614Y017573D01*
X008479Y017753D01*
X008625D01*
G54D11*
X005866Y017106D02*
X014331D01*
X013962Y010349D02*
X014024Y010354D01*
X014084Y010369D01*
X014142Y010393D01*
X014195Y010426D01*
X014242Y010466D01*
X014282Y010514D01*
X014314Y010567D01*
X014337Y010625D01*
X014351Y010686D01*
X014355Y010743D01*
X013839Y010469D02*
X013901Y010473D01*
X013961Y010488D01*
X014019Y010512D01*
X014072Y010545D01*
X014119Y010586D01*
X014159Y010633D01*
X014191Y010687D01*
X014214Y010744D01*
X014228Y010805D01*
X014232Y010862D01*
X008779Y017673D02*
X008784Y017619D01*
X008798Y017567D01*
X008822Y017519D01*
X008854Y017475D01*
X008894Y017438D01*
X008939Y017410D01*
X008989Y017389D01*
X009042Y017379D01*
X009096Y017378D01*
X009150Y017386D01*
X009200Y017405D01*
X009247Y017432D01*
X009288Y017467D01*
X009322Y017509D01*
X009347Y017557D01*
X009364Y017608D01*
X009371Y017662D01*
X009371Y017673D01*
X009724Y010328D02*
X009718Y010435D01*
X009701Y010542D01*
X009675Y010647D01*
X009639Y010749D01*
X009594Y010847D01*
X009540Y010940D01*
X009478Y011029D01*
X009409Y011111D01*
X009332Y011187D01*
X009248Y011255D01*
X009159Y011315D01*
X009064Y011367D01*
X008965Y011411D01*
X008863Y011444D01*
X008757Y011469D01*
X008650Y011483D01*
X008543Y011488D01*
X008435Y011483D01*
X008328Y011469D01*
X008223Y011444D01*
X008120Y011410D01*
X008021Y011367D01*
X007927Y011315D01*
X007837Y011254D01*
X007754Y011186D01*
X007677Y011110D01*
X007607Y011028D01*
X007545Y010939D01*
X007492Y010846D01*
X007447Y010747D01*
X007412Y010645D01*
X007385Y010541D01*
X007369Y010434D01*
X007362Y010328D01*
X005996Y010850D02*
X006001Y010788D01*
X006016Y010728D01*
X006040Y010670D01*
X006072Y010617D01*
X006113Y010570D01*
X006161Y010530D01*
X006214Y010498D01*
X006272Y010475D01*
X006333Y010461D01*
X006390Y010457D01*
X005877Y010727D02*
X005882Y010665D01*
X005896Y010605D01*
X005920Y010547D01*
X005953Y010494D01*
X005994Y010447D01*
X006041Y010407D01*
X006095Y010375D01*
X006153Y010352D01*
X006213Y010338D01*
X006271Y010334D01*
G54D10*
X016064Y001456D02*
X016109D01*
X016131Y001441D01*
X016143Y001426D01*
X016165Y001381D01*
X016176Y001321D01*
Y001201D01*
X016165Y001171D01*
X016154Y001156D01*
X016131Y001141D01*
X016086D01*
X016064Y001156D01*
X016053Y001171D01*
X016041Y001201D01*
Y001276D01*
X016053Y001306D01*
X016064Y001321D01*
X016086Y001336D01*
X016131D01*
X016154Y001321D01*
X016165Y001306D01*
X016176Y001276D01*
X015839Y001456D02*
X015884D01*
X015906Y001441D01*
X015918Y001426D01*
X015940Y001381D01*
X015951Y001321D01*
Y001201D01*
X015940Y001171D01*
X015929Y001156D01*
X015906Y001141D01*
X015861D01*
X015839Y001156D01*
X015828Y001171D01*
X015816Y001201D01*
Y001276D01*
X015828Y001306D01*
X015839Y001321D01*
X015861Y001336D01*
X015906D01*
X015929Y001321D01*
X015940Y001306D01*
X015951Y001276D01*
X020172Y001426D02*
X020160Y001441D01*
X020138Y001456D01*
X020082D01*
X020059Y001441D01*
X020048Y001426D01*
X020037Y001396D01*
Y001366D01*
X020048Y001321D01*
X020183Y001141D01*
X020037D01*
X019834Y001351D02*
Y001141D01*
X019890Y001471D02*
X019947Y001246D01*
X019800D01*
X023305Y001418D02*
X023294Y001433D01*
X023272Y001448D01*
X023215D01*
X023193Y001433D01*
X023182Y001418D01*
X023170Y001388D01*
Y001358D01*
X023182Y001313D01*
X023317Y001133D01*
X023170D01*
X021420Y001430D02*
X021408Y001445D01*
X021386Y001460D01*
X021330D01*
X021307Y001445D01*
X021296Y001430D01*
X021285Y001400D01*
Y001370D01*
X021296Y001325D01*
X021431Y001145D01*
X021285D01*
X021195Y001430D02*
X021183Y001445D01*
X021161Y001460D01*
X021105D01*
X021082Y001445D01*
X021071Y001430D01*
X021060Y001400D01*
Y001370D01*
X021071Y001325D01*
X021206Y001145D01*
X021060D01*
G54D11*
X023819Y001791D02*
X015354D01*
X015723Y008548D02*
X015661Y008543D01*
X015601Y008529D01*
X015543Y008505D01*
X015490Y008472D01*
X015443Y008431D01*
X015403Y008384D01*
X015371Y008330D01*
X015348Y008273D01*
X015334Y008212D01*
X015330Y008155D01*
X015846Y008429D02*
X015784Y008424D01*
X015724Y008410D01*
X015666Y008386D01*
X015613Y008353D01*
X015566Y008312D01*
X015526Y008264D01*
X015494Y008211D01*
X015471Y008153D01*
X015457Y008093D01*
X015453Y008035D01*
X020906Y001225D02*
X020901Y001279D01*
X020887Y001331D01*
X020863Y001379D01*
X020831Y001422D01*
X020791Y001459D01*
X020746Y001488D01*
X020696Y001508D01*
X020643Y001519D01*
X020589Y001520D01*
X020535Y001511D01*
X020485Y001493D01*
X020438Y001466D01*
X020397Y001430D01*
X020363Y001388D01*
X020338Y001341D01*
X020321Y001289D01*
X020315Y001236D01*
X020314Y001225D01*
X019961Y008570D02*
X019967Y008462D01*
X019984Y008356D01*
X020010Y008251D01*
X020046Y008149D01*
X020091Y008051D01*
X020145Y007957D01*
X020207Y007869D01*
X020276Y007786D01*
X020353Y007711D01*
X020437Y007643D01*
X020526Y007582D01*
X020621Y007530D01*
X020720Y007487D01*
X020822Y007453D01*
X020928Y007429D01*
X021035Y007414D01*
X021142Y007409D01*
X021250Y007414D01*
X021357Y007429D01*
X021462Y007454D01*
X021565Y007488D01*
X021664Y007531D01*
X021758Y007583D01*
X021848Y007643D01*
X021931Y007712D01*
X022008Y007787D01*
X022078Y007870D01*
X022140Y007958D01*
X022193Y008052D01*
X022238Y008150D01*
X022274Y008252D01*
X022300Y008357D01*
X022316Y008464D01*
X022323Y008570D01*
X023689Y008047D02*
X023684Y008109D01*
X023669Y008170D01*
X023645Y008227D01*
X023613Y008280D01*
X023572Y008327D01*
X023524Y008367D01*
X023471Y008400D01*
X023413Y008423D01*
X023352Y008437D01*
X023295Y008441D01*
X023808Y008170D02*
X023803Y008233D01*
X023789Y008293D01*
X023765Y008350D01*
X023732Y008403D01*
X023691Y008451D01*
X023644Y008491D01*
X023590Y008523D01*
X023532Y008546D01*
X023472Y008560D01*
X023415Y008564D01*
G54D10*
X023070Y017442D02*
X023025D01*
X023002Y017457D01*
X022991Y017472D01*
X022969Y017517D01*
X022957Y017577D01*
Y017697D01*
X022969Y017727D01*
X022980Y017742D01*
X023002Y017757D01*
X023047D01*
X023070Y017742D01*
X023081Y017727D01*
X023092Y017697D01*
Y017622D01*
X023081Y017592D01*
X023070Y017577D01*
X023047Y017562D01*
X023002D01*
X022980Y017577D01*
X022969Y017592D01*
X022957Y017622D01*
X023295Y017442D02*
X023250D01*
X023227Y017457D01*
X023216Y017472D01*
X023194Y017517D01*
X023182Y017577D01*
Y017697D01*
X023194Y017727D01*
X023205Y017742D01*
X023227Y017757D01*
X023272D01*
X023295Y017742D01*
X023306Y017727D01*
X023317Y017697D01*
Y017622D01*
X023306Y017592D01*
X023295Y017577D01*
X023272Y017562D01*
X023227D01*
X023205Y017577D01*
X023194Y017592D01*
X023182Y017622D01*
X018962Y017472D02*
X018974Y017457D01*
X018996Y017442D01*
X019052D01*
X019075Y017457D01*
X019086Y017472D01*
X019097Y017502D01*
Y017532D01*
X019086Y017577D01*
X018951Y017757D01*
X019097D01*
X019300Y017547D02*
Y017757D01*
X019244Y017427D02*
X019187Y017652D01*
X019334D01*
X015828Y017480D02*
X015840Y017465D01*
X015862Y017450D01*
X015918D01*
X015941Y017465D01*
X015952Y017480D01*
X015963Y017510D01*
Y017540D01*
X015952Y017585D01*
X015817Y017765D01*
X015963D01*
X017714Y017468D02*
X017726Y017453D01*
X017748Y017438D01*
X017804D01*
X017827Y017453D01*
X017838Y017468D01*
X017849Y017498D01*
Y017528D01*
X017838Y017573D01*
X017703Y017753D01*
X017849D01*
X017939Y017468D02*
X017951Y017453D01*
X017973Y017438D01*
X018029D01*
X018052Y017453D01*
X018063Y017468D01*
X018074Y017498D01*
Y017528D01*
X018063Y017573D01*
X017928Y017753D01*
X018074D01*
G54D11*
X015315Y017106D02*
X023780D01*
X023411Y010349D02*
X023473Y010354D01*
X023533Y010369D01*
X023591Y010393D01*
X023644Y010426D01*
X023691Y010466D01*
X023731Y010514D01*
X023763Y010567D01*
X023786Y010625D01*
X023800Y010686D01*
X023804Y010743D01*
X023287Y010469D02*
X023349Y010473D01*
X023410Y010488D01*
X023467Y010512D01*
X023520Y010545D01*
X023568Y010586D01*
X023608Y010633D01*
X023640Y010687D01*
X023663Y010744D01*
X023677Y010805D01*
X023681Y010862D01*
X018228Y017673D02*
X018233Y017619D01*
X018247Y017567D01*
X018271Y017519D01*
X018303Y017475D01*
X018343Y017438D01*
X018388Y017410D01*
X018438Y017389D01*
X018491Y017379D01*
X018545Y017378D01*
X018598Y017386D01*
X018649Y017405D01*
X018696Y017432D01*
X018737Y017467D01*
X018770Y017509D01*
X018796Y017557D01*
X018812Y017608D01*
X018819Y017662D01*
X018820Y017673D01*
X019173Y010328D02*
X019166Y010435D01*
X019150Y010542D01*
X019124Y010647D01*
X019088Y010749D01*
X019043Y010847D01*
X018989Y010940D01*
X018927Y011029D01*
X018857Y011111D01*
X018780Y011187D01*
X018697Y011255D01*
X018607Y011315D01*
X018513Y011367D01*
X018414Y011411D01*
X018311Y011444D01*
X018206Y011469D01*
X018099Y011483D01*
X017991Y011488D01*
X017884Y011483D01*
X017777Y011469D01*
X017672Y011444D01*
X017569Y011410D01*
X017470Y011367D01*
X017376Y011315D01*
X017286Y011254D01*
X017203Y011186D01*
X017126Y011110D01*
X017056Y011028D01*
X016994Y010939D01*
X016941Y010846D01*
X016896Y010747D01*
X016860Y010645D01*
X016834Y010541D01*
X016818Y010434D01*
X016811Y010328D01*
X015445Y010850D02*
X015450Y010788D01*
X015464Y010728D01*
X015488Y010670D01*
X015521Y010617D01*
X015562Y010570D01*
X015610Y010530D01*
X015663Y010498D01*
X015721Y010475D01*
X015781Y010461D01*
X015839Y010457D01*
X015326Y010727D02*
X015331Y010665D01*
X015345Y010605D01*
X015369Y010547D01*
X015402Y010494D01*
X015443Y010447D01*
X015490Y010407D01*
X015544Y010375D01*
X015601Y010352D01*
X015662Y010338D01*
X015719Y010334D01*
G54D10*
X025513Y001456D02*
X025558D01*
X025580Y001441D01*
X025591Y001426D01*
X025614Y001381D01*
X025625Y001321D01*
Y001201D01*
X025614Y001171D01*
X025603Y001156D01*
X025580Y001141D01*
X025535D01*
X025513Y001156D01*
X025501Y001171D01*
X025490Y001201D01*
Y001276D01*
X025501Y001306D01*
X025513Y001321D01*
X025535Y001336D01*
X025580D01*
X025603Y001321D01*
X025614Y001306D01*
X025625Y001276D01*
X025288Y001456D02*
X025333D01*
X025355Y001441D01*
X025366Y001426D01*
X025389Y001381D01*
X025400Y001321D01*
Y001201D01*
X025389Y001171D01*
X025378Y001156D01*
X025355Y001141D01*
X025310D01*
X025288Y001156D01*
X025276Y001171D01*
X025265Y001201D01*
Y001276D01*
X025276Y001306D01*
X025288Y001321D01*
X025310Y001336D01*
X025355D01*
X025378Y001321D01*
X025389Y001306D01*
X025400Y001276D01*
X029620Y001426D02*
X029609Y001441D01*
X029587Y001456D01*
X029530D01*
X029508Y001441D01*
X029497Y001426D01*
X029485Y001396D01*
Y001366D01*
X029497Y001321D01*
X029632Y001141D01*
X029485D01*
X029283Y001351D02*
Y001141D01*
X029339Y001471D02*
X029395Y001246D01*
X029249D01*
X032754Y001418D02*
X032743Y001433D01*
X032720Y001448D01*
X032664D01*
X032642Y001433D01*
X032630Y001418D01*
X032619Y001388D01*
Y001358D01*
X032630Y001313D01*
X032765Y001133D01*
X032619D01*
X030868Y001430D02*
X030857Y001445D01*
X030835Y001460D01*
X030778D01*
X030756Y001445D01*
X030745Y001430D01*
X030733Y001400D01*
Y001370D01*
X030745Y001325D01*
X030880Y001145D01*
X030733D01*
X030643Y001430D02*
X030632Y001445D01*
X030610Y001460D01*
X030553D01*
X030531Y001445D01*
X030520Y001430D01*
X030508Y001400D01*
Y001370D01*
X030520Y001325D01*
X030655Y001145D01*
X030508D01*
G54D11*
X033268Y001791D02*
X024803D01*
X025172Y008548D02*
X025110Y008543D01*
X025049Y008529D01*
X024992Y008505D01*
X024939Y008472D01*
X024892Y008431D01*
X024852Y008384D01*
X024820Y008330D01*
X024796Y008273D01*
X024783Y008212D01*
X024778Y008155D01*
X025295Y008429D02*
X025233Y008424D01*
X025173Y008410D01*
X025115Y008386D01*
X025062Y008353D01*
X025015Y008312D01*
X024975Y008264D01*
X024943Y008211D01*
X024920Y008153D01*
X024906Y008093D01*
X024902Y008035D01*
X030355Y001225D02*
X030350Y001279D01*
X030335Y001331D01*
X030312Y001379D01*
X030279Y001422D01*
X030240Y001459D01*
X030194Y001488D01*
X030144Y001508D01*
X030091Y001519D01*
X030038Y001520D01*
X029984Y001511D01*
X029934Y001493D01*
X029887Y001466D01*
X029846Y001430D01*
X029812Y001388D01*
X029787Y001341D01*
X029770Y001289D01*
X029763Y001236D01*
X029763Y001225D01*
X029409Y008570D02*
X029416Y008462D01*
X029433Y008356D01*
X029459Y008251D01*
X029495Y008149D01*
X029540Y008051D01*
X029593Y007957D01*
X029655Y007869D01*
X029725Y007786D01*
X029802Y007711D01*
X029886Y007643D01*
X029975Y007582D01*
X030070Y007530D01*
X030169Y007487D01*
X030271Y007453D01*
X030376Y007429D01*
X030483Y007414D01*
X030591Y007409D01*
X030699Y007414D01*
X030806Y007429D01*
X030911Y007454D01*
X031014Y007488D01*
X031112Y007531D01*
X031207Y007583D01*
X031296Y007643D01*
X031380Y007712D01*
X031457Y007787D01*
X031527Y007870D01*
X031588Y007958D01*
X031642Y008052D01*
X031687Y008150D01*
X031722Y008252D01*
X031748Y008357D01*
X031765Y008464D01*
X031772Y008570D01*
X033138Y008047D02*
X033133Y008109D01*
X033118Y008170D01*
X033094Y008227D01*
X033061Y008280D01*
X033021Y008327D01*
X032973Y008367D01*
X032920Y008400D01*
X032862Y008423D01*
X032801Y008437D01*
X032744Y008441D01*
X033257Y008170D02*
X033252Y008233D01*
X033237Y008293D01*
X033213Y008350D01*
X033181Y008403D01*
X033140Y008451D01*
X033092Y008491D01*
X033039Y008523D01*
X032981Y008546D01*
X032921Y008560D01*
X032863Y008564D01*
G54D10*
X032519Y017442D02*
X032474D01*
X032451Y017457D01*
X032440Y017472D01*
X032418Y017517D01*
X032406Y017577D01*
Y017697D01*
X032418Y017727D01*
X032429Y017742D01*
X032451Y017757D01*
X032496D01*
X032519Y017742D01*
X032530Y017727D01*
X032541Y017697D01*
Y017622D01*
X032530Y017592D01*
X032519Y017577D01*
X032496Y017562D01*
X032451D01*
X032429Y017577D01*
X032418Y017592D01*
X032406Y017622D01*
X032744Y017442D02*
X032699D01*
X032676Y017457D01*
X032665Y017472D01*
X032643Y017517D01*
X032631Y017577D01*
Y017697D01*
X032643Y017727D01*
X032654Y017742D01*
X032676Y017757D01*
X032721D01*
X032744Y017742D01*
X032755Y017727D01*
X032766Y017697D01*
Y017622D01*
X032755Y017592D01*
X032744Y017577D01*
X032721Y017562D01*
X032676D01*
X032654Y017577D01*
X032643Y017592D01*
X032631Y017622D01*
X028411Y017472D02*
X028422Y017457D01*
X028445Y017442D01*
X028501D01*
X028524Y017457D01*
X028535Y017472D01*
X028546Y017502D01*
Y017532D01*
X028535Y017577D01*
X028400Y017757D01*
X028546D01*
X028749Y017547D02*
Y017757D01*
X028692Y017427D02*
X028636Y017652D01*
X028782D01*
X025277Y017480D02*
X025289Y017465D01*
X025311Y017450D01*
X025367D01*
X025390Y017465D01*
X025401Y017480D01*
X025412Y017510D01*
Y017540D01*
X025401Y017585D01*
X025266Y017765D01*
X025412D01*
X027163Y017468D02*
X027174Y017453D01*
X027197Y017438D01*
X027253D01*
X027276Y017453D01*
X027287Y017468D01*
X027298Y017498D01*
Y017528D01*
X027287Y017573D01*
X027152Y017753D01*
X027298D01*
X027388Y017468D02*
X027399Y017453D01*
X027422Y017438D01*
X027478D01*
X027501Y017453D01*
X027512Y017468D01*
X027523Y017498D01*
Y017528D01*
X027512Y017573D01*
X027377Y017753D01*
X027523D01*
G54D11*
X024764Y017106D02*
X033228D01*
X032859Y010349D02*
X032921Y010354D01*
X032982Y010369D01*
X033039Y010393D01*
X033092Y010426D01*
X033140Y010466D01*
X033180Y010514D01*
X033212Y010567D01*
X033235Y010625D01*
X033249Y010686D01*
X033253Y010743D01*
X032736Y010469D02*
X032798Y010473D01*
X032859Y010488D01*
X032916Y010512D01*
X032969Y010545D01*
X033016Y010586D01*
X033056Y010633D01*
X033089Y010687D01*
X033112Y010744D01*
X033126Y010805D01*
X033130Y010862D01*
X027677Y017673D02*
X027681Y017619D01*
X027696Y017567D01*
X027720Y017519D01*
X027752Y017475D01*
X027792Y017438D01*
X027837Y017410D01*
X027887Y017389D01*
X027940Y017379D01*
X027994Y017378D01*
X028047Y017386D01*
X028098Y017405D01*
X028145Y017432D01*
X028185Y017467D01*
X028219Y017509D01*
X028245Y017557D01*
X028261Y017608D01*
X028268Y017662D01*
X028268Y017673D01*
X028622Y010328D02*
X028615Y010435D01*
X028599Y010542D01*
X028572Y010647D01*
X028537Y010749D01*
X028492Y010847D01*
X028438Y010940D01*
X028376Y011029D01*
X028306Y011111D01*
X028229Y011187D01*
X028146Y011255D01*
X028056Y011315D01*
X027962Y011367D01*
X027863Y011411D01*
X027760Y011444D01*
X027655Y011469D01*
X027548Y011483D01*
X027440Y011488D01*
X027332Y011483D01*
X027226Y011469D01*
X027120Y011444D01*
X027018Y011410D01*
X026919Y011367D01*
X026825Y011315D01*
X026735Y011254D01*
X026652Y011186D01*
X026575Y011110D01*
X026505Y011028D01*
X026443Y010939D01*
X026390Y010846D01*
X026345Y010747D01*
X026309Y010645D01*
X026283Y010541D01*
X026267Y010434D01*
X026260Y010328D01*
X024894Y010850D02*
X024899Y010788D01*
X024913Y010728D01*
X024937Y010670D01*
X024970Y010617D01*
X025011Y010570D01*
X025058Y010530D01*
X025112Y010498D01*
X025169Y010475D01*
X025230Y010461D01*
X025287Y010457D01*
X024774Y010727D02*
X024779Y010665D01*
X024794Y010605D01*
X024818Y010547D01*
X024851Y010494D01*
X024892Y010447D01*
X024939Y010407D01*
X024992Y010375D01*
X025050Y010352D01*
X025111Y010338D01*
X025168Y010334D01*
G54D10*
X034962Y001456D02*
X035007D01*
X035029Y001441D01*
X035040Y001426D01*
X035063Y001381D01*
X035074Y001321D01*
Y001201D01*
X035063Y001171D01*
X035052Y001156D01*
X035029Y001141D01*
X034984D01*
X034962Y001156D01*
X034950Y001171D01*
X034939Y001201D01*
Y001276D01*
X034950Y001306D01*
X034962Y001321D01*
X034984Y001336D01*
X035029D01*
X035052Y001321D01*
X035063Y001306D01*
X035074Y001276D01*
X034737Y001456D02*
X034782D01*
X034804Y001441D01*
X034815Y001426D01*
X034838Y001381D01*
X034849Y001321D01*
Y001201D01*
X034838Y001171D01*
X034827Y001156D01*
X034804Y001141D01*
X034759D01*
X034737Y001156D01*
X034725Y001171D01*
X034714Y001201D01*
Y001276D01*
X034725Y001306D01*
X034737Y001321D01*
X034759Y001336D01*
X034804D01*
X034827Y001321D01*
X034838Y001306D01*
X034849Y001276D01*
X039069Y001426D02*
X039058Y001441D01*
X039035Y001456D01*
X038979D01*
X038957Y001441D01*
X038945Y001426D01*
X038934Y001396D01*
Y001366D01*
X038945Y001321D01*
X039080Y001141D01*
X038934D01*
X038732Y001351D02*
Y001141D01*
X038788Y001471D02*
X038844Y001246D01*
X038698D01*
X042203Y001418D02*
X042192Y001433D01*
X042169Y001448D01*
X042113D01*
X042091Y001433D01*
X042079Y001418D01*
X042068Y001388D01*
Y001358D01*
X042079Y001313D01*
X042214Y001133D01*
X042068D01*
X040317Y001430D02*
X040306Y001445D01*
X040283Y001460D01*
X040227D01*
X040205Y001445D01*
X040193Y001430D01*
X040182Y001400D01*
Y001370D01*
X040193Y001325D01*
X040328Y001145D01*
X040182D01*
X040092Y001430D02*
X040081Y001445D01*
X040058Y001460D01*
X040002D01*
X039980Y001445D01*
X039969Y001430D01*
X039957Y001400D01*
Y001370D01*
X039969Y001325D01*
X040103Y001145D01*
X039957D01*
G54D11*
X042717Y001791D02*
X034252D01*
X034621Y008548D02*
X034559Y008543D01*
X034498Y008529D01*
X034441Y008505D01*
X034388Y008472D01*
X034341Y008431D01*
X034301Y008384D01*
X034269Y008330D01*
X034245Y008273D01*
X034231Y008212D01*
X034227Y008155D01*
X034744Y008429D02*
X034682Y008424D01*
X034621Y008410D01*
X034564Y008386D01*
X034511Y008353D01*
X034464Y008312D01*
X034424Y008264D01*
X034392Y008211D01*
X034368Y008153D01*
X034355Y008093D01*
X034350Y008035D01*
X039804Y001225D02*
X039799Y001279D01*
X039784Y001331D01*
X039760Y001379D01*
X039728Y001422D01*
X039689Y001459D01*
X039643Y001488D01*
X039593Y001508D01*
X039540Y001519D01*
X039486Y001520D01*
X039433Y001511D01*
X039382Y001493D01*
X039336Y001466D01*
X039295Y001430D01*
X039261Y001388D01*
X039236Y001341D01*
X039219Y001289D01*
X039212Y001236D01*
X039212Y001225D01*
X038858Y008570D02*
X038865Y008462D01*
X038882Y008356D01*
X038908Y008251D01*
X038944Y008149D01*
X038989Y008051D01*
X039042Y007957D01*
X039104Y007869D01*
X039174Y007786D01*
X039251Y007711D01*
X039335Y007643D01*
X039424Y007582D01*
X039519Y007530D01*
X039618Y007487D01*
X039720Y007453D01*
X039825Y007429D01*
X039932Y007414D01*
X040040Y007409D01*
X040148Y007414D01*
X040255Y007429D01*
X040360Y007454D01*
X040462Y007488D01*
X040561Y007531D01*
X040656Y007583D01*
X040745Y007643D01*
X040829Y007712D01*
X040906Y007787D01*
X040975Y007870D01*
X041037Y007958D01*
X041091Y008052D01*
X041136Y008150D01*
X041171Y008252D01*
X041197Y008357D01*
X041214Y008464D01*
X041220Y008570D01*
X042587Y008047D02*
X042582Y008109D01*
X042567Y008170D01*
X042543Y008227D01*
X042510Y008280D01*
X042470Y008327D01*
X042422Y008367D01*
X042369Y008400D01*
X042311Y008423D01*
X042250Y008437D01*
X042193Y008441D01*
X042706Y008170D02*
X042701Y008233D01*
X042686Y008293D01*
X042662Y008350D01*
X042630Y008403D01*
X042589Y008451D01*
X042541Y008491D01*
X042488Y008523D01*
X042430Y008546D01*
X042369Y008560D01*
X042312Y008564D01*
G54D10*
X041968Y017442D02*
X041923D01*
X041900Y017457D01*
X041889Y017472D01*
X041866Y017517D01*
X041855Y017577D01*
Y017697D01*
X041866Y017727D01*
X041878Y017742D01*
X041900Y017757D01*
X041945D01*
X041968Y017742D01*
X041979Y017727D01*
X041990Y017697D01*
Y017622D01*
X041979Y017592D01*
X041968Y017577D01*
X041945Y017562D01*
X041900D01*
X041878Y017577D01*
X041866Y017592D01*
X041855Y017622D01*
X042193Y017442D02*
X042148D01*
X042125Y017457D01*
X042114Y017472D01*
X042091Y017517D01*
X042080Y017577D01*
Y017697D01*
X042091Y017727D01*
X042103Y017742D01*
X042125Y017757D01*
X042170D01*
X042193Y017742D01*
X042204Y017727D01*
X042215Y017697D01*
Y017622D01*
X042204Y017592D01*
X042193Y017577D01*
X042170Y017562D01*
X042125D01*
X042103Y017577D01*
X042091Y017592D01*
X042080Y017622D01*
X037860Y017472D02*
X037871Y017457D01*
X037894Y017442D01*
X037950D01*
X037972Y017457D01*
X037984Y017472D01*
X037995Y017502D01*
Y017532D01*
X037984Y017577D01*
X037849Y017757D01*
X037995D01*
X038197Y017547D02*
Y017757D01*
X038141Y017427D02*
X038085Y017652D01*
X038231D01*
X034726Y017480D02*
X034737Y017465D01*
X034760Y017450D01*
X034816D01*
X034839Y017465D01*
X034850Y017480D01*
X034861Y017510D01*
Y017540D01*
X034850Y017585D01*
X034715Y017765D01*
X034861D01*
X036612Y017468D02*
X036623Y017453D01*
X036646Y017438D01*
X036702D01*
X036724Y017453D01*
X036736Y017468D01*
X036747Y017498D01*
Y017528D01*
X036736Y017573D01*
X036601Y017753D01*
X036747D01*
X036837Y017468D02*
X036848Y017453D01*
X036871Y017438D01*
X036927D01*
X036949Y017453D01*
X036961Y017468D01*
X036972Y017498D01*
Y017528D01*
X036961Y017573D01*
X036826Y017753D01*
X036972D01*
G54D11*
X034213Y017106D02*
X042677D01*
X042308Y010349D02*
X042370Y010354D01*
X042431Y010369D01*
X042488Y010393D01*
X042541Y010426D01*
X042588Y010466D01*
X042628Y010514D01*
X042661Y010567D01*
X042684Y010625D01*
X042698Y010686D01*
X042702Y010743D01*
X042185Y010469D02*
X042247Y010473D01*
X042308Y010488D01*
X042365Y010512D01*
X042418Y010545D01*
X042465Y010586D01*
X042505Y010633D01*
X042537Y010687D01*
X042561Y010744D01*
X042575Y010805D01*
X042579Y010862D01*
X037125Y017673D02*
X037130Y017619D01*
X037145Y017567D01*
X037169Y017519D01*
X037201Y017475D01*
X037240Y017438D01*
X037286Y017410D01*
X037336Y017389D01*
X037389Y017379D01*
X037443Y017378D01*
X037496Y017386D01*
X037547Y017405D01*
X037593Y017432D01*
X037634Y017467D01*
X037668Y017509D01*
X037694Y017557D01*
X037710Y017608D01*
X037717Y017662D01*
X037717Y017673D01*
X038071Y010328D02*
X038064Y010435D01*
X038047Y010542D01*
X038021Y010647D01*
X037985Y010749D01*
X037941Y010847D01*
X037887Y010940D01*
X037825Y011029D01*
X037755Y011111D01*
X037678Y011187D01*
X037595Y011255D01*
X037505Y011315D01*
X037410Y011367D01*
X037311Y011411D01*
X037209Y011444D01*
X037104Y011469D01*
X036997Y011483D01*
X036889Y011488D01*
X036781Y011483D01*
X036674Y011469D01*
X036569Y011444D01*
X036467Y011410D01*
X036368Y011367D01*
X036273Y011315D01*
X036184Y011254D01*
X036100Y011186D01*
X036023Y011110D01*
X035954Y011028D01*
X035892Y010939D01*
X035838Y010846D01*
X035794Y010747D01*
X035758Y010645D01*
X035732Y010541D01*
X035715Y010434D01*
X035709Y010328D01*
X034343Y010850D02*
X034347Y010788D01*
X034362Y010728D01*
X034386Y010670D01*
X034419Y010617D01*
X034460Y010570D01*
X034507Y010530D01*
X034561Y010498D01*
X034618Y010475D01*
X034679Y010461D01*
X034736Y010457D01*
X034223Y010727D02*
X034228Y010665D01*
X034243Y010605D01*
X034267Y010547D01*
X034300Y010494D01*
X034340Y010447D01*
X034388Y010407D01*
X034441Y010375D01*
X034499Y010352D01*
X034560Y010338D01*
X034617Y010334D01*
G54D10*
X044410Y001456D02*
X044455D01*
X044478Y001441D01*
X044489Y001426D01*
X044512Y001381D01*
X044523Y001321D01*
Y001201D01*
X044512Y001171D01*
X044500Y001156D01*
X044478Y001141D01*
X044433D01*
X044410Y001156D01*
X044399Y001171D01*
X044388Y001201D01*
Y001276D01*
X044399Y001306D01*
X044410Y001321D01*
X044433Y001336D01*
X044478D01*
X044500Y001321D01*
X044512Y001306D01*
X044523Y001276D01*
X044185Y001456D02*
X044230D01*
X044253Y001441D01*
X044264Y001426D01*
X044287Y001381D01*
X044298Y001321D01*
Y001201D01*
X044287Y001171D01*
X044275Y001156D01*
X044253Y001141D01*
X044208D01*
X044185Y001156D01*
X044174Y001171D01*
X044163Y001201D01*
Y001276D01*
X044174Y001306D01*
X044185Y001321D01*
X044208Y001336D01*
X044253D01*
X044275Y001321D01*
X044287Y001306D01*
X044298Y001276D01*
X048518Y001426D02*
X048507Y001441D01*
X048484Y001456D01*
X048428D01*
X048406Y001441D01*
X048394Y001426D01*
X048383Y001396D01*
Y001366D01*
X048394Y001321D01*
X048529Y001141D01*
X048383D01*
X048181Y001351D02*
Y001141D01*
X048237Y001471D02*
X048293Y001246D01*
X048147D01*
X051652Y001418D02*
X051641Y001433D01*
X051618Y001448D01*
X051562D01*
X051539Y001433D01*
X051528Y001418D01*
X051517Y001388D01*
Y001358D01*
X051528Y001313D01*
X051663Y001133D01*
X051517D01*
X049766Y001430D02*
X049755Y001445D01*
X049732Y001460D01*
X049676D01*
X049654Y001445D01*
X049642Y001430D01*
X049631Y001400D01*
Y001370D01*
X049642Y001325D01*
X049777Y001145D01*
X049631D01*
X049541Y001430D02*
X049530Y001445D01*
X049507Y001460D01*
X049451D01*
X049429Y001445D01*
X049417Y001430D01*
X049406Y001400D01*
Y001370D01*
X049417Y001325D01*
X049552Y001145D01*
X049406D01*
G54D11*
X052165Y001791D02*
X043701D01*
X044070Y008548D02*
X044008Y008543D01*
X043947Y008529D01*
X043890Y008505D01*
X043837Y008472D01*
X043790Y008431D01*
X043749Y008384D01*
X043717Y008330D01*
X043694Y008273D01*
X043680Y008212D01*
X043676Y008155D01*
X044193Y008429D02*
X044131Y008424D01*
X044070Y008410D01*
X044013Y008386D01*
X043960Y008353D01*
X043913Y008312D01*
X043873Y008264D01*
X043841Y008211D01*
X043817Y008153D01*
X043803Y008093D01*
X043799Y008035D01*
X049253Y001225D02*
X049248Y001279D01*
X049233Y001331D01*
X049209Y001379D01*
X049177Y001422D01*
X049138Y001459D01*
X049092Y001488D01*
X049042Y001508D01*
X048989Y001519D01*
X048935Y001520D01*
X048882Y001511D01*
X048831Y001493D01*
X048785Y001466D01*
X048744Y001430D01*
X048710Y001388D01*
X048684Y001341D01*
X048668Y001289D01*
X048661Y001236D01*
X048661Y001225D01*
X048307Y008570D02*
X048314Y008462D01*
X048331Y008356D01*
X048357Y008251D01*
X048393Y008149D01*
X048437Y008051D01*
X048491Y007957D01*
X048553Y007869D01*
X048623Y007786D01*
X048700Y007711D01*
X048783Y007643D01*
X048873Y007582D01*
X048968Y007530D01*
X049066Y007487D01*
X049169Y007453D01*
X049274Y007429D01*
X049381Y007414D01*
X049489Y007409D01*
X049597Y007414D01*
X049704Y007429D01*
X049809Y007454D01*
X049911Y007488D01*
X050010Y007531D01*
X050105Y007583D01*
X050194Y007643D01*
X050278Y007712D01*
X050354Y007787D01*
X050424Y007870D01*
X050486Y007958D01*
X050540Y008052D01*
X050584Y008150D01*
X050620Y008252D01*
X050646Y008357D01*
X050663Y008464D01*
X050669Y008570D01*
X052035Y008047D02*
X052031Y008109D01*
X052016Y008170D01*
X051992Y008227D01*
X051959Y008280D01*
X051918Y008327D01*
X051871Y008367D01*
X051817Y008400D01*
X051760Y008423D01*
X051699Y008437D01*
X051642Y008441D01*
X052155Y008170D02*
X052150Y008233D01*
X052135Y008293D01*
X052111Y008350D01*
X052078Y008403D01*
X052038Y008451D01*
X051990Y008491D01*
X051937Y008523D01*
X051879Y008546D01*
X051818Y008560D01*
X051761Y008564D01*
G54D10*
X051416Y017442D02*
X051371D01*
X051349Y017457D01*
X051338Y017472D01*
X051315Y017517D01*
X051304Y017577D01*
Y017697D01*
X051315Y017727D01*
X051326Y017742D01*
X051349Y017757D01*
X051394D01*
X051416Y017742D01*
X051428Y017727D01*
X051439Y017697D01*
Y017622D01*
X051428Y017592D01*
X051416Y017577D01*
X051394Y017562D01*
X051349D01*
X051326Y017577D01*
X051315Y017592D01*
X051304Y017622D01*
X051641Y017442D02*
X051596D01*
X051574Y017457D01*
X051563Y017472D01*
X051540Y017517D01*
X051529Y017577D01*
Y017697D01*
X051540Y017727D01*
X051551Y017742D01*
X051574Y017757D01*
X051619D01*
X051641Y017742D01*
X051653Y017727D01*
X051664Y017697D01*
Y017622D01*
X051653Y017592D01*
X051641Y017577D01*
X051619Y017562D01*
X051574D01*
X051551Y017577D01*
X051540Y017592D01*
X051529Y017622D01*
X047309Y017472D02*
X047320Y017457D01*
X047343Y017442D01*
X047399D01*
X047421Y017457D01*
X047433Y017472D01*
X047444Y017502D01*
Y017532D01*
X047433Y017577D01*
X047298Y017757D01*
X047444D01*
X047646Y017547D02*
Y017757D01*
X047590Y017427D02*
X047534Y017652D01*
X047680D01*
X044175Y017480D02*
X044186Y017465D01*
X044209Y017450D01*
X044265D01*
X044287Y017465D01*
X044299Y017480D01*
X044310Y017510D01*
Y017540D01*
X044299Y017585D01*
X044164Y017765D01*
X044310D01*
X046061Y017468D02*
X046072Y017453D01*
X046094Y017438D01*
X046151D01*
X046173Y017453D01*
X046184Y017468D01*
X046196Y017498D01*
Y017528D01*
X046184Y017573D01*
X046049Y017753D01*
X046196D01*
X046286Y017468D02*
X046297Y017453D01*
X046319Y017438D01*
X046376D01*
X046398Y017453D01*
X046409Y017468D01*
X046421Y017498D01*
Y017528D01*
X046409Y017573D01*
X046274Y017753D01*
X046421D01*
G54D11*
X043661Y017106D02*
X052126D01*
X051757Y010349D02*
X051819Y010354D01*
X051880Y010369D01*
X051937Y010393D01*
X051990Y010426D01*
X052037Y010466D01*
X052077Y010514D01*
X052109Y010567D01*
X052133Y010625D01*
X052147Y010686D01*
X052151Y010743D01*
X051634Y010469D02*
X051696Y010473D01*
X051756Y010488D01*
X051814Y010512D01*
X051867Y010545D01*
X051914Y010586D01*
X051954Y010633D01*
X051986Y010687D01*
X052009Y010744D01*
X052023Y010805D01*
X052028Y010862D01*
X046574Y017673D02*
X046579Y017619D01*
X046594Y017567D01*
X046617Y017519D01*
X046650Y017475D01*
X046689Y017438D01*
X046735Y017410D01*
X046785Y017389D01*
X046838Y017379D01*
X046892Y017378D01*
X046945Y017386D01*
X046996Y017405D01*
X047042Y017432D01*
X047083Y017467D01*
X047117Y017509D01*
X047142Y017557D01*
X047159Y017608D01*
X047166Y017662D01*
X047166Y017673D01*
X047520Y010328D02*
X047513Y010435D01*
X047496Y010542D01*
X047470Y010647D01*
X047434Y010749D01*
X047389Y010847D01*
X047336Y010940D01*
X047274Y011029D01*
X047204Y011111D01*
X047127Y011187D01*
X047043Y011255D01*
X046954Y011315D01*
X046859Y011367D01*
X046760Y011411D01*
X046658Y011444D01*
X046553Y011469D01*
X046446Y011483D01*
X046338Y011488D01*
X046230Y011483D01*
X046123Y011469D01*
X046018Y011444D01*
X045916Y011410D01*
X045817Y011367D01*
X045722Y011315D01*
X045633Y011254D01*
X045549Y011186D01*
X045472Y011110D01*
X045403Y011028D01*
X045341Y010939D01*
X045287Y010846D01*
X045242Y010747D01*
X045207Y010645D01*
X045181Y010541D01*
X045164Y010434D01*
X045157Y010328D01*
X043791Y010850D02*
X043796Y010788D01*
X043811Y010728D01*
X043835Y010670D01*
X043868Y010617D01*
X043908Y010570D01*
X043956Y010530D01*
X044009Y010498D01*
X044067Y010475D01*
X044128Y010461D01*
X044185Y010457D01*
X043672Y010727D02*
X043677Y010665D01*
X043692Y010605D01*
X043716Y010547D01*
X043748Y010494D01*
X043789Y010447D01*
X043837Y010407D01*
X043890Y010375D01*
X043948Y010352D01*
X044009Y010338D01*
X044066Y010334D01*
G54D10*
X053859Y001456D02*
X053904D01*
X053927Y001441D01*
X053938Y001426D01*
X053960Y001381D01*
X053972Y001321D01*
Y001201D01*
X053960Y001171D01*
X053949Y001156D01*
X053927Y001141D01*
X053882D01*
X053859Y001156D01*
X053848Y001171D01*
X053837Y001201D01*
Y001276D01*
X053848Y001306D01*
X053859Y001321D01*
X053882Y001336D01*
X053927D01*
X053949Y001321D01*
X053960Y001306D01*
X053972Y001276D01*
X053634Y001456D02*
X053679D01*
X053702Y001441D01*
X053713Y001426D01*
X053735Y001381D01*
X053747Y001321D01*
Y001201D01*
X053735Y001171D01*
X053724Y001156D01*
X053702Y001141D01*
X053657D01*
X053634Y001156D01*
X053623Y001171D01*
X053612Y001201D01*
Y001276D01*
X053623Y001306D01*
X053634Y001321D01*
X053657Y001336D01*
X053702D01*
X053724Y001321D01*
X053735Y001306D01*
X053747Y001276D01*
X057967Y001426D02*
X057956Y001441D01*
X057933Y001456D01*
X057877D01*
X057854Y001441D01*
X057843Y001426D01*
X057832Y001396D01*
Y001366D01*
X057843Y001321D01*
X057978Y001141D01*
X057832D01*
X057629Y001351D02*
Y001141D01*
X057686Y001471D02*
X057742Y001246D01*
X057596D01*
X061101Y001418D02*
X061089Y001433D01*
X061067Y001448D01*
X061011D01*
X060988Y001433D01*
X060977Y001418D01*
X060966Y001388D01*
Y001358D01*
X060977Y001313D01*
X061112Y001133D01*
X060966D01*
X059215Y001430D02*
X059204Y001445D01*
X059181Y001460D01*
X059125D01*
X059102Y001445D01*
X059091Y001430D01*
X059080Y001400D01*
Y001370D01*
X059091Y001325D01*
X059226Y001145D01*
X059080D01*
X058990Y001430D02*
X058979Y001445D01*
X058956Y001460D01*
X058900D01*
X058877Y001445D01*
X058866Y001430D01*
X058855Y001400D01*
Y001370D01*
X058866Y001325D01*
X059001Y001145D01*
X058855D01*
G54D11*
X061614Y001791D02*
X053150D01*
X053519Y008548D02*
X053456Y008543D01*
X053396Y008529D01*
X053338Y008505D01*
X053286Y008472D01*
X053238Y008431D01*
X053198Y008384D01*
X053166Y008330D01*
X053143Y008273D01*
X053129Y008212D01*
X053125Y008155D01*
X053642Y008429D02*
X053580Y008424D01*
X053519Y008410D01*
X053462Y008386D01*
X053409Y008353D01*
X053362Y008312D01*
X053321Y008264D01*
X053289Y008211D01*
X053266Y008153D01*
X053252Y008093D01*
X053248Y008035D01*
X058701Y001225D02*
X058697Y001279D01*
X058682Y001331D01*
X058658Y001379D01*
X058626Y001422D01*
X058586Y001459D01*
X058541Y001488D01*
X058491Y001508D01*
X058438Y001519D01*
X058384Y001520D01*
X058331Y001511D01*
X058280Y001493D01*
X058233Y001466D01*
X058193Y001430D01*
X058159Y001388D01*
X058133Y001341D01*
X058117Y001289D01*
X058110Y001236D01*
X058110Y001225D01*
X057756Y008570D02*
X057763Y008462D01*
X057779Y008356D01*
X057806Y008251D01*
X057841Y008149D01*
X057886Y008051D01*
X057940Y007957D01*
X058002Y007869D01*
X058072Y007786D01*
X058149Y007711D01*
X058232Y007643D01*
X058322Y007582D01*
X058416Y007530D01*
X058515Y007487D01*
X058618Y007453D01*
X058723Y007429D01*
X058830Y007414D01*
X058938Y007409D01*
X059046Y007414D01*
X059152Y007429D01*
X059258Y007454D01*
X059360Y007488D01*
X059459Y007531D01*
X059553Y007583D01*
X059643Y007643D01*
X059726Y007712D01*
X059803Y007787D01*
X059873Y007870D01*
X059935Y007958D01*
X059988Y008052D01*
X060033Y008150D01*
X060069Y008252D01*
X060095Y008357D01*
X060111Y008464D01*
X060118Y008570D01*
X061484Y008047D02*
X061479Y008109D01*
X061465Y008170D01*
X061441Y008227D01*
X061408Y008280D01*
X061367Y008327D01*
X061320Y008367D01*
X061266Y008400D01*
X061208Y008423D01*
X061148Y008437D01*
X061091Y008441D01*
X061604Y008170D02*
X061599Y008233D01*
X061584Y008293D01*
X061560Y008350D01*
X061527Y008403D01*
X061486Y008451D01*
X061439Y008491D01*
X061385Y008523D01*
X061328Y008546D01*
X061267Y008560D01*
X061210Y008564D01*
G54D10*
X060865Y017442D02*
X060820D01*
X060798Y017457D01*
X060787Y017472D01*
X060764Y017517D01*
X060753Y017577D01*
Y017697D01*
X060764Y017727D01*
X060775Y017742D01*
X060798Y017757D01*
X060843D01*
X060865Y017742D01*
X060876Y017727D01*
X060888Y017697D01*
Y017622D01*
X060876Y017592D01*
X060865Y017577D01*
X060843Y017562D01*
X060798D01*
X060775Y017577D01*
X060764Y017592D01*
X060753Y017622D01*
X061090Y017442D02*
X061045D01*
X061023Y017457D01*
X061011Y017472D01*
X060989Y017517D01*
X060978Y017577D01*
Y017697D01*
X060989Y017727D01*
X061000Y017742D01*
X061023Y017757D01*
X061068D01*
X061090Y017742D01*
X061101Y017727D01*
X061113Y017697D01*
Y017622D01*
X061101Y017592D01*
X061090Y017577D01*
X061068Y017562D01*
X061023D01*
X061000Y017577D01*
X060989Y017592D01*
X060978Y017622D01*
X056758Y017472D02*
X056769Y017457D01*
X056791Y017442D01*
X056848D01*
X056870Y017457D01*
X056881Y017472D01*
X056893Y017502D01*
Y017532D01*
X056881Y017577D01*
X056746Y017757D01*
X056893D01*
X057095Y017547D02*
Y017757D01*
X057039Y017427D02*
X056983Y017652D01*
X057129D01*
X053624Y017480D02*
X053635Y017465D01*
X053657Y017450D01*
X053714D01*
X053736Y017465D01*
X053747Y017480D01*
X053759Y017510D01*
Y017540D01*
X053747Y017585D01*
X053612Y017765D01*
X053759D01*
X055510Y017468D02*
X055521Y017453D01*
X055543Y017438D01*
X055600D01*
X055622Y017453D01*
X055633Y017468D01*
X055645Y017498D01*
Y017528D01*
X055633Y017573D01*
X055498Y017753D01*
X055645D01*
X055735Y017468D02*
X055746Y017453D01*
X055768Y017438D01*
X055825D01*
X055847Y017453D01*
X055858Y017468D01*
X055870Y017498D01*
Y017528D01*
X055858Y017573D01*
X055723Y017753D01*
X055870D01*
G54D11*
X053110Y017106D02*
X061575D01*
X061206Y010349D02*
X061268Y010354D01*
X061328Y010369D01*
X061386Y010393D01*
X061439Y010426D01*
X061486Y010466D01*
X061526Y010514D01*
X061558Y010567D01*
X061581Y010625D01*
X061595Y010686D01*
X061600Y010743D01*
X061083Y010469D02*
X061145Y010473D01*
X061205Y010488D01*
X061263Y010512D01*
X061316Y010545D01*
X061363Y010586D01*
X061403Y010633D01*
X061435Y010687D01*
X061458Y010744D01*
X061472Y010805D01*
X061476Y010862D01*
X056023Y017673D02*
X056028Y017619D01*
X056042Y017567D01*
X056066Y017519D01*
X056098Y017475D01*
X056138Y017438D01*
X056184Y017410D01*
X056234Y017389D01*
X056286Y017379D01*
X056340Y017378D01*
X056394Y017386D01*
X056444Y017405D01*
X056491Y017432D01*
X056532Y017467D01*
X056566Y017509D01*
X056591Y017557D01*
X056608Y017608D01*
X056615Y017662D01*
X056615Y017673D01*
X056969Y010328D02*
X056962Y010435D01*
X056945Y010542D01*
X056919Y010647D01*
X056883Y010749D01*
X056838Y010847D01*
X056785Y010940D01*
X056723Y011029D01*
X056653Y011111D01*
X056576Y011187D01*
X056492Y011255D01*
X056403Y011315D01*
X056308Y011367D01*
X056209Y011411D01*
X056107Y011444D01*
X056001Y011469D01*
X055895Y011483D01*
X055787Y011488D01*
X055679Y011483D01*
X055572Y011469D01*
X055467Y011444D01*
X055364Y011410D01*
X055266Y011367D01*
X055171Y011315D01*
X055082Y011254D01*
X054998Y011186D01*
X054921Y011110D01*
X054851Y011028D01*
X054790Y010939D01*
X054736Y010846D01*
X054691Y010747D01*
X054656Y010645D01*
X054629Y010541D01*
X054613Y010434D01*
X054606Y010328D01*
X053240Y010850D02*
X053245Y010788D01*
X053260Y010728D01*
X053284Y010670D01*
X053317Y010617D01*
X053357Y010570D01*
X053405Y010530D01*
X053458Y010498D01*
X053516Y010475D01*
X053577Y010461D01*
X053634Y010457D01*
X053121Y010727D02*
X053126Y010665D01*
X053140Y010605D01*
X053164Y010547D01*
X053197Y010494D01*
X053238Y010447D01*
X053286Y010407D01*
X053339Y010375D01*
X053397Y010352D01*
X053457Y010338D01*
X053515Y010334D01*
G54D10*
X063308Y001456D02*
X063353D01*
X063375Y001441D01*
X063387Y001426D01*
X063409Y001381D01*
X063420Y001321D01*
Y001201D01*
X063409Y001171D01*
X063398Y001156D01*
X063375Y001141D01*
X063330D01*
X063308Y001156D01*
X063297Y001171D01*
X063285Y001201D01*
Y001276D01*
X063297Y001306D01*
X063308Y001321D01*
X063330Y001336D01*
X063375D01*
X063398Y001321D01*
X063409Y001306D01*
X063420Y001276D01*
X063083Y001456D02*
X063128D01*
X063151Y001441D01*
X063162Y001426D01*
X063184Y001381D01*
X063195Y001321D01*
Y001201D01*
X063184Y001171D01*
X063173Y001156D01*
X063151Y001141D01*
X063106D01*
X063083Y001156D01*
X063072Y001171D01*
X063061Y001201D01*
Y001276D01*
X063072Y001306D01*
X063083Y001321D01*
X063106Y001336D01*
X063151D01*
X063173Y001321D01*
X063184Y001306D01*
X063195Y001276D01*
X067416Y001426D02*
X067404Y001441D01*
X067382Y001456D01*
X067326D01*
X067303Y001441D01*
X067292Y001426D01*
X067281Y001396D01*
Y001366D01*
X067292Y001321D01*
X067427Y001141D01*
X067281D01*
X067078Y001351D02*
Y001141D01*
X067134Y001471D02*
X067191Y001246D01*
X067044D01*
X070549Y001418D02*
X070538Y001433D01*
X070516Y001448D01*
X070460D01*
X070437Y001433D01*
X070426Y001418D01*
X070415Y001388D01*
Y001358D01*
X070426Y001313D01*
X070561Y001133D01*
X070415D01*
X068664Y001430D02*
X068652Y001445D01*
X068630Y001460D01*
X068574D01*
X068551Y001445D01*
X068540Y001430D01*
X068529Y001400D01*
Y001370D01*
X068540Y001325D01*
X068675Y001145D01*
X068529D01*
X068439Y001430D02*
X068427Y001445D01*
X068405Y001460D01*
X068349D01*
X068326Y001445D01*
X068315Y001430D01*
X068304Y001400D01*
Y001370D01*
X068315Y001325D01*
X068450Y001145D01*
X068304D01*
G54D11*
X071063Y001791D02*
X062598D01*
X062967Y008548D02*
X062905Y008543D01*
X062845Y008529D01*
X062787Y008505D01*
X062734Y008472D01*
X062687Y008431D01*
X062647Y008384D01*
X062615Y008330D01*
X062592Y008273D01*
X062578Y008212D01*
X062574Y008155D01*
X063091Y008429D02*
X063028Y008424D01*
X062968Y008410D01*
X062910Y008386D01*
X062858Y008353D01*
X062810Y008312D01*
X062770Y008264D01*
X062738Y008211D01*
X062715Y008153D01*
X062701Y008093D01*
X062697Y008035D01*
X068150Y001225D02*
X068145Y001279D01*
X068131Y001331D01*
X068107Y001379D01*
X068075Y001422D01*
X068035Y001459D01*
X067990Y001488D01*
X067940Y001508D01*
X067887Y001519D01*
X067833Y001520D01*
X067780Y001511D01*
X067729Y001493D01*
X067682Y001466D01*
X067641Y001430D01*
X067608Y001388D01*
X067582Y001341D01*
X067566Y001289D01*
X067559Y001236D01*
X067558Y001225D01*
X067205Y008570D02*
X067212Y008462D01*
X067228Y008356D01*
X067254Y008251D01*
X067290Y008149D01*
X067335Y008051D01*
X067389Y007957D01*
X067451Y007869D01*
X067520Y007786D01*
X067597Y007711D01*
X067681Y007643D01*
X067771Y007582D01*
X067865Y007530D01*
X067964Y007487D01*
X068067Y007453D01*
X068172Y007429D01*
X068279Y007414D01*
X068386Y007409D01*
X068494Y007414D01*
X068601Y007429D01*
X068706Y007454D01*
X068809Y007488D01*
X068908Y007531D01*
X069002Y007583D01*
X069092Y007643D01*
X069175Y007712D01*
X069252Y007787D01*
X069322Y007870D01*
X069384Y007958D01*
X069437Y008052D01*
X069482Y008150D01*
X069518Y008252D01*
X069544Y008357D01*
X069560Y008464D01*
X069567Y008570D01*
X070933Y008047D02*
X070928Y008109D01*
X070913Y008170D01*
X070889Y008227D01*
X070857Y008280D01*
X070816Y008327D01*
X070768Y008367D01*
X070715Y008400D01*
X070657Y008423D01*
X070597Y008437D01*
X070539Y008441D01*
X071052Y008170D02*
X071047Y008233D01*
X071033Y008293D01*
X071009Y008350D01*
X070976Y008403D01*
X070935Y008451D01*
X070888Y008491D01*
X070834Y008523D01*
X070777Y008546D01*
X070716Y008560D01*
X070659Y008564D01*
G54D10*
X070314Y017442D02*
X070269D01*
X070247Y017457D01*
X070235Y017472D01*
X070213Y017517D01*
X070202Y017577D01*
Y017697D01*
X070213Y017727D01*
X070224Y017742D01*
X070247Y017757D01*
X070292D01*
X070314Y017742D01*
X070325Y017727D01*
X070337Y017697D01*
Y017622D01*
X070325Y017592D01*
X070314Y017577D01*
X070292Y017562D01*
X070247D01*
X070224Y017577D01*
X070213Y017592D01*
X070202Y017622D01*
X070539Y017442D02*
X070494D01*
X070472Y017457D01*
X070460Y017472D01*
X070438Y017517D01*
X070427Y017577D01*
Y017697D01*
X070438Y017727D01*
X070449Y017742D01*
X070472Y017757D01*
X070517D01*
X070539Y017742D01*
X070550Y017727D01*
X070562Y017697D01*
Y017622D01*
X070550Y017592D01*
X070539Y017577D01*
X070517Y017562D01*
X070472D01*
X070449Y017577D01*
X070438Y017592D01*
X070427Y017622D01*
X066206Y017472D02*
X066218Y017457D01*
X066240Y017442D01*
X066296D01*
X066319Y017457D01*
X066330Y017472D01*
X066341Y017502D01*
Y017532D01*
X066330Y017577D01*
X066195Y017757D01*
X066341D01*
X066544Y017547D02*
Y017757D01*
X066488Y017427D02*
X066431Y017652D01*
X066578D01*
X063073Y017480D02*
X063084Y017465D01*
X063106Y017450D01*
X063163D01*
X063185Y017465D01*
X063196Y017480D01*
X063208Y017510D01*
Y017540D01*
X063196Y017585D01*
X063061Y017765D01*
X063208D01*
X064958Y017468D02*
X064970Y017453D01*
X064992Y017438D01*
X065048D01*
X065071Y017453D01*
X065082Y017468D01*
X065093Y017498D01*
Y017528D01*
X065082Y017573D01*
X064947Y017753D01*
X065093D01*
X065183Y017468D02*
X065195Y017453D01*
X065217Y017438D01*
X065273D01*
X065296Y017453D01*
X065307Y017468D01*
X065318Y017498D01*
Y017528D01*
X065307Y017573D01*
X065172Y017753D01*
X065318D01*
G54D11*
X062559Y017106D02*
X071024D01*
X070655Y010349D02*
X070717Y010354D01*
X070777Y010369D01*
X070835Y010393D01*
X070888Y010426D01*
X070935Y010466D01*
X070975Y010514D01*
X071007Y010567D01*
X071030Y010625D01*
X071044Y010686D01*
X071048Y010743D01*
X070531Y010469D02*
X070594Y010473D01*
X070654Y010488D01*
X070712Y010512D01*
X070764Y010545D01*
X070812Y010586D01*
X070852Y010633D01*
X070884Y010687D01*
X070907Y010744D01*
X070921Y010805D01*
X070925Y010862D01*
X065472Y017673D02*
X065477Y017619D01*
X065491Y017567D01*
X065515Y017519D01*
X065547Y017475D01*
X065587Y017438D01*
X065632Y017410D01*
X065682Y017389D01*
X065735Y017379D01*
X065789Y017378D01*
X065842Y017386D01*
X065893Y017405D01*
X065940Y017432D01*
X065981Y017467D01*
X066014Y017509D01*
X066040Y017557D01*
X066057Y017608D01*
X066063Y017662D01*
X066064Y017673D01*
X066417Y010328D02*
X066411Y010435D01*
X066394Y010542D01*
X066368Y010647D01*
X066332Y010749D01*
X066287Y010847D01*
X066233Y010940D01*
X066171Y011029D01*
X066102Y011111D01*
X066025Y011187D01*
X065941Y011255D01*
X065852Y011315D01*
X065757Y011367D01*
X065658Y011411D01*
X065555Y011444D01*
X065450Y011469D01*
X065343Y011483D01*
X065236Y011488D01*
X065128Y011483D01*
X065021Y011469D01*
X064916Y011444D01*
X064813Y011410D01*
X064714Y011367D01*
X064620Y011315D01*
X064530Y011254D01*
X064447Y011186D01*
X064370Y011110D01*
X064300Y011028D01*
X064238Y010939D01*
X064185Y010846D01*
X064140Y010747D01*
X064104Y010645D01*
X064078Y010541D01*
X064062Y010434D01*
X064055Y010328D01*
X062689Y010850D02*
X062694Y010788D01*
X062709Y010728D01*
X062733Y010670D01*
X062765Y010617D01*
X062806Y010570D01*
X062854Y010530D01*
X062907Y010498D01*
X062965Y010475D01*
X063025Y010461D01*
X063083Y010457D01*
X062570Y010727D02*
X062575Y010665D01*
X062589Y010605D01*
X062613Y010547D01*
X062646Y010494D01*
X062687Y010447D01*
X062734Y010407D01*
X062788Y010375D01*
X062846Y010352D01*
X062906Y010338D01*
X062963Y010334D01*
G54D10*
X072757Y001456D02*
X072802D01*
X072824Y001441D01*
X072836Y001426D01*
X072858Y001381D01*
X072869Y001321D01*
Y001201D01*
X072858Y001171D01*
X072847Y001156D01*
X072824Y001141D01*
X072779D01*
X072757Y001156D01*
X072746Y001171D01*
X072734Y001201D01*
Y001276D01*
X072746Y001306D01*
X072757Y001321D01*
X072779Y001336D01*
X072824D01*
X072847Y001321D01*
X072858Y001306D01*
X072869Y001276D01*
X072532Y001456D02*
X072577D01*
X072599Y001441D01*
X072611Y001426D01*
X072633Y001381D01*
X072644Y001321D01*
Y001201D01*
X072633Y001171D01*
X072622Y001156D01*
X072599Y001141D01*
X072554D01*
X072532Y001156D01*
X072521Y001171D01*
X072509Y001201D01*
Y001276D01*
X072521Y001306D01*
X072532Y001321D01*
X072554Y001336D01*
X072599D01*
X072622Y001321D01*
X072633Y001306D01*
X072644Y001276D01*
X076864Y001426D02*
X076853Y001441D01*
X076831Y001456D01*
X076774D01*
X076752Y001441D01*
X076741Y001426D01*
X076729Y001396D01*
Y001366D01*
X076741Y001321D01*
X076876Y001141D01*
X076729D01*
X076527Y001351D02*
Y001141D01*
X076583Y001471D02*
X076639Y001246D01*
X076493D01*
X079998Y001418D02*
X079987Y001433D01*
X079965Y001448D01*
X079908D01*
X079886Y001433D01*
X079875Y001418D01*
X079863Y001388D01*
Y001358D01*
X079875Y001313D01*
X080010Y001133D01*
X079863D01*
X078112Y001430D02*
X078101Y001445D01*
X078079Y001460D01*
X078022D01*
X078000Y001445D01*
X077989Y001430D01*
X077978Y001400D01*
Y001370D01*
X077989Y001325D01*
X078124Y001145D01*
X077978D01*
X077888Y001430D02*
X077876Y001445D01*
X077854Y001460D01*
X077798D01*
X077775Y001445D01*
X077764Y001430D01*
X077753Y001400D01*
Y001370D01*
X077764Y001325D01*
X077899Y001145D01*
X077753D01*
G54D11*
X080512Y001791D02*
X072047D01*
X072416Y008548D02*
X072354Y008543D01*
X072294Y008529D01*
X072236Y008505D01*
X072183Y008472D01*
X072136Y008431D01*
X072096Y008384D01*
X072064Y008330D01*
X072041Y008273D01*
X072027Y008212D01*
X072022Y008155D01*
X072539Y008429D02*
X072477Y008424D01*
X072417Y008410D01*
X072359Y008386D01*
X072306Y008353D01*
X072259Y008312D01*
X072219Y008264D01*
X072187Y008211D01*
X072164Y008153D01*
X072150Y008093D01*
X072146Y008035D01*
X077599Y001225D02*
X077594Y001279D01*
X077580Y001331D01*
X077556Y001379D01*
X077524Y001422D01*
X077484Y001459D01*
X077439Y001488D01*
X077388Y001508D01*
X077336Y001519D01*
X077282Y001520D01*
X077228Y001511D01*
X077178Y001493D01*
X077131Y001466D01*
X077090Y001430D01*
X077056Y001388D01*
X077031Y001341D01*
X077014Y001289D01*
X077007Y001236D01*
X077007Y001225D01*
X076654Y008570D02*
X076660Y008462D01*
X076677Y008356D01*
X076703Y008251D01*
X076739Y008149D01*
X076784Y008051D01*
X076838Y007957D01*
X076899Y007869D01*
X076969Y007786D01*
X077046Y007711D01*
X077130Y007643D01*
X077219Y007582D01*
X077314Y007530D01*
X077413Y007487D01*
X077515Y007453D01*
X077621Y007429D01*
X077727Y007414D01*
X077835Y007409D01*
X077943Y007414D01*
X078050Y007429D01*
X078155Y007454D01*
X078258Y007488D01*
X078357Y007531D01*
X078451Y007583D01*
X078540Y007643D01*
X078624Y007712D01*
X078701Y007787D01*
X078771Y007870D01*
X078832Y007958D01*
X078886Y008052D01*
X078931Y008150D01*
X078966Y008252D01*
X078993Y008357D01*
X079009Y008464D01*
X079016Y008570D01*
X080382Y008047D02*
X080377Y008109D01*
X080362Y008170D01*
X080338Y008227D01*
X080306Y008280D01*
X080265Y008327D01*
X080217Y008367D01*
X080164Y008400D01*
X080106Y008423D01*
X080045Y008437D01*
X079988Y008441D01*
X080501Y008170D02*
X080496Y008233D01*
X080482Y008293D01*
X080458Y008350D01*
X080425Y008403D01*
X080384Y008451D01*
X080336Y008491D01*
X080283Y008523D01*
X080225Y008546D01*
X080165Y008560D01*
X080107Y008564D01*
G54D10*
X079763Y017442D02*
X079718D01*
X079695Y017457D01*
X079684Y017472D01*
X079662Y017517D01*
X079650Y017577D01*
Y017697D01*
X079662Y017727D01*
X079673Y017742D01*
X079695Y017757D01*
X079740D01*
X079763Y017742D01*
X079774Y017727D01*
X079785Y017697D01*
Y017622D01*
X079774Y017592D01*
X079763Y017577D01*
X079740Y017562D01*
X079695D01*
X079673Y017577D01*
X079662Y017592D01*
X079650Y017622D01*
X079988Y017442D02*
X079943D01*
X079920Y017457D01*
X079909Y017472D01*
X079887Y017517D01*
X079875Y017577D01*
Y017697D01*
X079887Y017727D01*
X079898Y017742D01*
X079920Y017757D01*
X079965D01*
X079988Y017742D01*
X079999Y017727D01*
X080010Y017697D01*
Y017622D01*
X079999Y017592D01*
X079988Y017577D01*
X079965Y017562D01*
X079920D01*
X079898Y017577D01*
X079887Y017592D01*
X079875Y017622D01*
X075655Y017472D02*
X075666Y017457D01*
X075689Y017442D01*
X075745D01*
X075768Y017457D01*
X075779Y017472D01*
X075790Y017502D01*
Y017532D01*
X075779Y017577D01*
X075644Y017757D01*
X075790D01*
X075993Y017547D02*
Y017757D01*
X075936Y017427D02*
X075880Y017652D01*
X076026D01*
X072521Y017480D02*
X072533Y017465D01*
X072555Y017450D01*
X072611D01*
X072634Y017465D01*
X072645Y017480D01*
X072656Y017510D01*
Y017540D01*
X072645Y017585D01*
X072510Y017765D01*
X072656D01*
X074407Y017468D02*
X074418Y017453D01*
X074441Y017438D01*
X074497D01*
X074520Y017453D01*
X074531Y017468D01*
X074542Y017498D01*
Y017528D01*
X074531Y017573D01*
X074396Y017753D01*
X074542D01*
X074632Y017468D02*
X074643Y017453D01*
X074666Y017438D01*
X074722D01*
X074745Y017453D01*
X074756Y017468D01*
X074767Y017498D01*
Y017528D01*
X074756Y017573D01*
X074621Y017753D01*
X074767D01*
G54D11*
X072008Y017106D02*
X080472D01*
X080104Y010349D02*
X080166Y010354D01*
X080226Y010369D01*
X080284Y010393D01*
X080337Y010426D01*
X080384Y010466D01*
X080424Y010514D01*
X080456Y010567D01*
X080479Y010625D01*
X080493Y010686D01*
X080497Y010743D01*
X079980Y010469D02*
X080042Y010473D01*
X080103Y010488D01*
X080160Y010512D01*
X080213Y010545D01*
X080260Y010586D01*
X080301Y010633D01*
X080333Y010687D01*
X080356Y010744D01*
X080370Y010805D01*
X080374Y010862D01*
X074921Y017673D02*
X074926Y017619D01*
X074940Y017567D01*
X074964Y017519D01*
X074996Y017475D01*
X075036Y017438D01*
X075081Y017410D01*
X075131Y017389D01*
X075184Y017379D01*
X075238Y017378D01*
X075291Y017386D01*
X075342Y017405D01*
X075389Y017432D01*
X075430Y017467D01*
X075463Y017509D01*
X075489Y017557D01*
X075505Y017608D01*
X075512Y017662D01*
X075512Y017673D01*
X075866Y010328D02*
X075859Y010435D01*
X075843Y010542D01*
X075816Y010647D01*
X075781Y010749D01*
X075736Y010847D01*
X075682Y010940D01*
X075620Y011029D01*
X075550Y011111D01*
X075473Y011187D01*
X075390Y011255D01*
X075300Y011315D01*
X075206Y011367D01*
X075107Y011411D01*
X075004Y011444D01*
X074899Y011469D01*
X074792Y011483D01*
X074684Y011488D01*
X074577Y011483D01*
X074470Y011469D01*
X074365Y011444D01*
X074262Y011410D01*
X074163Y011367D01*
X074069Y011315D01*
X073979Y011254D01*
X073896Y011186D01*
X073819Y011110D01*
X073749Y011028D01*
X073687Y010939D01*
X073634Y010846D01*
X073589Y010747D01*
X073553Y010645D01*
X073527Y010541D01*
X073511Y010434D01*
X073504Y010328D01*
X072138Y010850D02*
X072143Y010788D01*
X072157Y010728D01*
X072181Y010670D01*
X072214Y010617D01*
X072255Y010570D01*
X072302Y010530D01*
X072356Y010498D01*
X072414Y010475D01*
X072474Y010461D01*
X072531Y010457D01*
X072019Y010727D02*
X072023Y010665D01*
X072038Y010605D01*
X072062Y010547D01*
X072095Y010494D01*
X072136Y010447D01*
X072183Y010407D01*
X072237Y010375D01*
X072294Y010352D01*
X072355Y010338D01*
X072412Y010334D01*
G54D10*
X082206Y001456D02*
X082251D01*
X082273Y001441D01*
X082284Y001426D01*
X082307Y001381D01*
X082318Y001321D01*
Y001201D01*
X082307Y001171D01*
X082296Y001156D01*
X082273Y001141D01*
X082228D01*
X082206Y001156D01*
X082194Y001171D01*
X082183Y001201D01*
Y001276D01*
X082194Y001306D01*
X082206Y001321D01*
X082228Y001336D01*
X082273D01*
X082296Y001321D01*
X082307Y001306D01*
X082318Y001276D01*
X081981Y001456D02*
X082026D01*
X082048Y001441D01*
X082059Y001426D01*
X082082Y001381D01*
X082093Y001321D01*
Y001201D01*
X082082Y001171D01*
X082071Y001156D01*
X082048Y001141D01*
X082003D01*
X081981Y001156D01*
X081969Y001171D01*
X081958Y001201D01*
Y001276D01*
X081969Y001306D01*
X081981Y001321D01*
X082003Y001336D01*
X082048D01*
X082071Y001321D01*
X082082Y001306D01*
X082093Y001276D01*
X086313Y001426D02*
X086302Y001441D01*
X086280Y001456D01*
X086223D01*
X086201Y001441D01*
X086190Y001426D01*
X086178Y001396D01*
Y001366D01*
X086190Y001321D01*
X086325Y001141D01*
X086178D01*
X085976Y001351D02*
Y001141D01*
X086032Y001471D02*
X086088Y001246D01*
X085942D01*
X089447Y001418D02*
X089436Y001433D01*
X089413Y001448D01*
X089357D01*
X089335Y001433D01*
X089323Y001418D01*
X089312Y001388D01*
Y001358D01*
X089323Y001313D01*
X089458Y001133D01*
X089312D01*
X087561Y001430D02*
X087550Y001445D01*
X087528Y001460D01*
X087471D01*
X087449Y001445D01*
X087438Y001430D01*
X087426Y001400D01*
Y001370D01*
X087438Y001325D01*
X087573Y001145D01*
X087426D01*
X087336Y001430D02*
X087325Y001445D01*
X087303Y001460D01*
X087246D01*
X087224Y001445D01*
X087213Y001430D01*
X087201Y001400D01*
Y001370D01*
X087213Y001325D01*
X087348Y001145D01*
X087201D01*
G54D11*
X089961Y001791D02*
X081496D01*
X081865Y008548D02*
X081803Y008543D01*
X081742Y008529D01*
X081685Y008505D01*
X081632Y008472D01*
X081585Y008431D01*
X081545Y008384D01*
X081513Y008330D01*
X081489Y008273D01*
X081475Y008212D01*
X081471Y008155D01*
X081988Y008429D02*
X081926Y008424D01*
X081866Y008410D01*
X081808Y008386D01*
X081755Y008353D01*
X081708Y008312D01*
X081668Y008264D01*
X081636Y008211D01*
X081613Y008153D01*
X081599Y008093D01*
X081594Y008035D01*
X087048Y001225D02*
X087043Y001279D01*
X087028Y001331D01*
X087005Y001379D01*
X086972Y001422D01*
X086933Y001459D01*
X086887Y001488D01*
X086837Y001508D01*
X086784Y001519D01*
X086730Y001520D01*
X086677Y001511D01*
X086626Y001493D01*
X086580Y001466D01*
X086539Y001430D01*
X086505Y001388D01*
X086480Y001341D01*
X086463Y001289D01*
X086456Y001236D01*
X086456Y001225D01*
X086102Y008570D02*
X086109Y008462D01*
X086126Y008356D01*
X086152Y008251D01*
X086188Y008149D01*
X086233Y008051D01*
X086286Y007957D01*
X086348Y007869D01*
X086418Y007786D01*
X086495Y007711D01*
X086579Y007643D01*
X086668Y007582D01*
X086763Y007530D01*
X086862Y007487D01*
X086964Y007453D01*
X087069Y007429D01*
X087176Y007414D01*
X087284Y007409D01*
X087392Y007414D01*
X087499Y007429D01*
X087604Y007454D01*
X087706Y007488D01*
X087805Y007531D01*
X087900Y007583D01*
X087989Y007643D01*
X088073Y007712D01*
X088150Y007787D01*
X088219Y007870D01*
X088281Y007958D01*
X088335Y008052D01*
X088380Y008150D01*
X088415Y008252D01*
X088441Y008357D01*
X088458Y008464D01*
X088465Y008570D01*
X089831Y008047D02*
X089826Y008109D01*
X089811Y008170D01*
X089787Y008227D01*
X089754Y008280D01*
X089714Y008327D01*
X089666Y008367D01*
X089613Y008400D01*
X089555Y008423D01*
X089494Y008437D01*
X089437Y008441D01*
X089950Y008170D02*
X089945Y008233D01*
X089930Y008293D01*
X089906Y008350D01*
X089874Y008403D01*
X089833Y008451D01*
X089785Y008491D01*
X089732Y008523D01*
X089674Y008546D01*
X089613Y008560D01*
X089556Y008564D01*
G54D10*
X089212Y017442D02*
X089167D01*
X089144Y017457D01*
X089133Y017472D01*
X089110Y017517D01*
X089099Y017577D01*
Y017697D01*
X089110Y017727D01*
X089122Y017742D01*
X089144Y017757D01*
X089189D01*
X089212Y017742D01*
X089223Y017727D01*
X089234Y017697D01*
Y017622D01*
X089223Y017592D01*
X089212Y017577D01*
X089189Y017562D01*
X089144D01*
X089122Y017577D01*
X089110Y017592D01*
X089099Y017622D01*
X089437Y017442D02*
X089392D01*
X089369Y017457D01*
X089358Y017472D01*
X089335Y017517D01*
X089324Y017577D01*
Y017697D01*
X089335Y017727D01*
X089347Y017742D01*
X089369Y017757D01*
X089414D01*
X089437Y017742D01*
X089448Y017727D01*
X089459Y017697D01*
Y017622D01*
X089448Y017592D01*
X089437Y017577D01*
X089414Y017562D01*
X089369D01*
X089347Y017577D01*
X089335Y017592D01*
X089324Y017622D01*
X085104Y017472D02*
X085115Y017457D01*
X085138Y017442D01*
X085194D01*
X085217Y017457D01*
X085228Y017472D01*
X085239Y017502D01*
Y017532D01*
X085228Y017577D01*
X085093Y017757D01*
X085239D01*
X085442Y017547D02*
Y017757D01*
X085385Y017427D02*
X085329Y017652D01*
X085475D01*
X081970Y017480D02*
X081981Y017465D01*
X082004Y017450D01*
X082060D01*
X082083Y017465D01*
X082094Y017480D01*
X082105Y017510D01*
Y017540D01*
X082094Y017585D01*
X081959Y017765D01*
X082105D01*
X083856Y017468D02*
X083867Y017453D01*
X083890Y017438D01*
X083946D01*
X083969Y017453D01*
X083980Y017468D01*
X083991Y017498D01*
Y017528D01*
X083980Y017573D01*
X083845Y017753D01*
X083991D01*
X084081Y017468D02*
X084092Y017453D01*
X084115Y017438D01*
X084171D01*
X084193Y017453D01*
X084205Y017468D01*
X084216Y017498D01*
Y017528D01*
X084205Y017573D01*
X084070Y017753D01*
X084216D01*
G54D11*
X081457Y017106D02*
X089921D01*
X089552Y010349D02*
X089614Y010354D01*
X089675Y010369D01*
X089732Y010393D01*
X089785Y010426D01*
X089832Y010466D01*
X089873Y010514D01*
X089905Y010567D01*
X089928Y010625D01*
X089942Y010686D01*
X089946Y010743D01*
X089429Y010469D02*
X089491Y010473D01*
X089552Y010488D01*
X089609Y010512D01*
X089662Y010545D01*
X089709Y010586D01*
X089749Y010633D01*
X089781Y010687D01*
X089805Y010744D01*
X089819Y010805D01*
X089823Y010862D01*
X084369Y017673D02*
X084374Y017619D01*
X084389Y017567D01*
X084413Y017519D01*
X084445Y017475D01*
X084484Y017438D01*
X084530Y017410D01*
X084580Y017389D01*
X084633Y017379D01*
X084687Y017378D01*
X084740Y017386D01*
X084791Y017405D01*
X084837Y017432D01*
X084878Y017467D01*
X084912Y017509D01*
X084938Y017557D01*
X084954Y017608D01*
X084961Y017662D01*
X084961Y017673D01*
X085315Y010328D02*
X085308Y010435D01*
X085292Y010542D01*
X085265Y010647D01*
X085230Y010749D01*
X085185Y010847D01*
X085131Y010940D01*
X085069Y011029D01*
X084999Y011111D01*
X084922Y011187D01*
X084839Y011255D01*
X084749Y011315D01*
X084655Y011367D01*
X084556Y011411D01*
X084453Y011444D01*
X084348Y011469D01*
X084241Y011483D01*
X084133Y011488D01*
X084025Y011483D01*
X083918Y011469D01*
X083813Y011444D01*
X083711Y011410D01*
X083612Y011367D01*
X083517Y011315D01*
X083428Y011254D01*
X083345Y011186D01*
X083268Y011110D01*
X083198Y011028D01*
X083136Y010939D01*
X083082Y010846D01*
X083038Y010747D01*
X083002Y010645D01*
X082976Y010541D01*
X082959Y010434D01*
X082953Y010328D01*
X081587Y010850D02*
X081592Y010788D01*
X081606Y010728D01*
X081630Y010670D01*
X081663Y010617D01*
X081704Y010570D01*
X081751Y010530D01*
X081805Y010498D01*
X081862Y010475D01*
X081923Y010461D01*
X081980Y010457D01*
X081467Y010727D02*
X081472Y010665D01*
X081487Y010605D01*
X081511Y010547D01*
X081544Y010494D01*
X081584Y010447D01*
X081632Y010407D01*
X081685Y010375D01*
X081743Y010352D01*
X081804Y010338D01*
X081861Y010334D01*
G54D10*
X091654Y001456D02*
X091699D01*
X091722Y001441D01*
X091733Y001426D01*
X091756Y001381D01*
X091767Y001321D01*
Y001201D01*
X091756Y001171D01*
X091744Y001156D01*
X091722Y001141D01*
X091677D01*
X091654Y001156D01*
X091643Y001171D01*
X091632Y001201D01*
Y001276D01*
X091643Y001306D01*
X091654Y001321D01*
X091677Y001336D01*
X091722D01*
X091744Y001321D01*
X091756Y001306D01*
X091767Y001276D01*
X091429Y001456D02*
X091474D01*
X091497Y001441D01*
X091508Y001426D01*
X091531Y001381D01*
X091542Y001321D01*
Y001201D01*
X091531Y001171D01*
X091519Y001156D01*
X091497Y001141D01*
X091452D01*
X091429Y001156D01*
X091418Y001171D01*
X091407Y001201D01*
Y001276D01*
X091418Y001306D01*
X091429Y001321D01*
X091452Y001336D01*
X091497D01*
X091519Y001321D01*
X091531Y001306D01*
X091542Y001276D01*
X095762Y001426D02*
X095751Y001441D01*
X095728Y001456D01*
X095672D01*
X095650Y001441D01*
X095638Y001426D01*
X095627Y001396D01*
Y001366D01*
X095638Y001321D01*
X095773Y001141D01*
X095627D01*
X095425Y001351D02*
Y001141D01*
X095481Y001471D02*
X095537Y001246D01*
X095391D01*
X098896Y001418D02*
X098885Y001433D01*
X098862Y001448D01*
X098806D01*
X098783Y001433D01*
X098772Y001418D01*
X098761Y001388D01*
Y001358D01*
X098772Y001313D01*
X098907Y001133D01*
X098761D01*
X097010Y001430D02*
X096999Y001445D01*
X096976Y001460D01*
X096920D01*
X096898Y001445D01*
X096886Y001430D01*
X096875Y001400D01*
Y001370D01*
X096886Y001325D01*
X097021Y001145D01*
X096875D01*
X096785Y001430D02*
X096774Y001445D01*
X096751Y001460D01*
X096695D01*
X096673Y001445D01*
X096661Y001430D01*
X096650Y001400D01*
Y001370D01*
X096661Y001325D01*
X096796Y001145D01*
X096650D01*
G54D11*
X099409Y001791D02*
X090945D01*
X091314Y008548D02*
X091252Y008543D01*
X091191Y008529D01*
X091134Y008505D01*
X091081Y008472D01*
X091034Y008431D01*
X090994Y008384D01*
X090961Y008330D01*
X090938Y008273D01*
X090924Y008212D01*
X090920Y008155D01*
X091437Y008429D02*
X091375Y008424D01*
X091314Y008410D01*
X091257Y008386D01*
X091204Y008353D01*
X091157Y008312D01*
X091117Y008264D01*
X091085Y008211D01*
X091061Y008153D01*
X091047Y008093D01*
X091043Y008035D01*
X096497Y001225D02*
X096492Y001279D01*
X096477Y001331D01*
X096453Y001379D01*
X096421Y001422D01*
X096382Y001459D01*
X096336Y001488D01*
X096286Y001508D01*
X096233Y001519D01*
X096179Y001520D01*
X096126Y001511D01*
X096075Y001493D01*
X096029Y001466D01*
X095988Y001430D01*
X095954Y001388D01*
X095928Y001341D01*
X095912Y001289D01*
X095905Y001236D01*
X095905Y001225D01*
X095551Y008570D02*
X095558Y008462D01*
X095575Y008356D01*
X095601Y008251D01*
X095637Y008149D01*
X095682Y008051D01*
X095735Y007957D01*
X095797Y007869D01*
X095867Y007786D01*
X095944Y007711D01*
X096028Y007643D01*
X096117Y007582D01*
X096212Y007530D01*
X096311Y007487D01*
X096413Y007453D01*
X096518Y007429D01*
X096625Y007414D01*
X096733Y007409D01*
X096841Y007414D01*
X096948Y007429D01*
X097053Y007454D01*
X097155Y007488D01*
X097254Y007531D01*
X097349Y007583D01*
X097438Y007643D01*
X097522Y007712D01*
X097599Y007787D01*
X097668Y007870D01*
X097730Y007958D01*
X097784Y008052D01*
X097828Y008150D01*
X097864Y008252D01*
X097890Y008357D01*
X097907Y008464D01*
X097913Y008570D01*
X099280Y008047D02*
X099275Y008109D01*
X099260Y008170D01*
X099236Y008227D01*
X099203Y008280D01*
X099162Y008327D01*
X099115Y008367D01*
X099061Y008400D01*
X099004Y008423D01*
X098943Y008437D01*
X098886Y008441D01*
X099399Y008170D02*
X099394Y008233D01*
X099379Y008293D01*
X099355Y008350D01*
X099322Y008403D01*
X099282Y008451D01*
X099234Y008491D01*
X099181Y008523D01*
X099123Y008546D01*
X099062Y008560D01*
X099005Y008564D01*
G54D10*
X098661Y017442D02*
X098616D01*
X098593Y017457D01*
X098582Y017472D01*
X098559Y017517D01*
X098548Y017577D01*
Y017697D01*
X098559Y017727D01*
X098571Y017742D01*
X098593Y017757D01*
X098638D01*
X098661Y017742D01*
X098672Y017727D01*
X098683Y017697D01*
Y017622D01*
X098672Y017592D01*
X098661Y017577D01*
X098638Y017562D01*
X098593D01*
X098571Y017577D01*
X098559Y017592D01*
X098548Y017622D01*
X098885Y017442D02*
X098840D01*
X098818Y017457D01*
X098807Y017472D01*
X098784Y017517D01*
X098773Y017577D01*
Y017697D01*
X098784Y017727D01*
X098796Y017742D01*
X098818Y017757D01*
X098863D01*
X098885Y017742D01*
X098897Y017727D01*
X098908Y017697D01*
Y017622D01*
X098897Y017592D01*
X098885Y017577D01*
X098863Y017562D01*
X098818D01*
X098796Y017577D01*
X098784Y017592D01*
X098773Y017622D01*
X094553Y017472D02*
X094564Y017457D01*
X094587Y017442D01*
X094643D01*
X094665Y017457D01*
X094677Y017472D01*
X094688Y017502D01*
Y017532D01*
X094677Y017577D01*
X094542Y017757D01*
X094688D01*
X094890Y017547D02*
Y017757D01*
X094834Y017427D02*
X094778Y017652D01*
X094924D01*
X091419Y017480D02*
X091430Y017465D01*
X091453Y017450D01*
X091509D01*
X091531Y017465D01*
X091543Y017480D01*
X091554Y017510D01*
Y017540D01*
X091543Y017585D01*
X091408Y017765D01*
X091554D01*
X093305Y017468D02*
X093316Y017453D01*
X093339Y017438D01*
X093395D01*
X093417Y017453D01*
X093429Y017468D01*
X093440Y017498D01*
Y017528D01*
X093429Y017573D01*
X093294Y017753D01*
X093440D01*
X093530Y017468D02*
X093541Y017453D01*
X093564Y017438D01*
X093620D01*
X093642Y017453D01*
X093654Y017468D01*
X093665Y017498D01*
Y017528D01*
X093654Y017573D01*
X093519Y017753D01*
X093665D01*
G54D11*
X090906Y017106D02*
X099370D01*
X099001Y010349D02*
X099063Y010354D01*
X099124Y010369D01*
X099181Y010393D01*
X099234Y010426D01*
X099281Y010466D01*
X099321Y010514D01*
X099353Y010567D01*
X099377Y010625D01*
X099391Y010686D01*
X099395Y010743D01*
X098878Y010469D02*
X098940Y010473D01*
X099001Y010488D01*
X099058Y010512D01*
X099111Y010545D01*
X099158Y010586D01*
X099198Y010633D01*
X099230Y010687D01*
X099254Y010744D01*
X099267Y010805D01*
X099272Y010862D01*
X093818Y017673D02*
X093823Y017619D01*
X093838Y017567D01*
X093862Y017519D01*
X093894Y017475D01*
X093933Y017438D01*
X093979Y017410D01*
X094029Y017389D01*
X094082Y017379D01*
X094136Y017378D01*
X094189Y017386D01*
X094240Y017405D01*
X094286Y017432D01*
X094327Y017467D01*
X094361Y017509D01*
X094386Y017557D01*
X094403Y017608D01*
X094410Y017662D01*
X094410Y017673D01*
X094764Y010328D02*
X094757Y010435D01*
X094740Y010542D01*
X094714Y010647D01*
X094678Y010749D01*
X094633Y010847D01*
X094580Y010940D01*
X094518Y011029D01*
X094448Y011111D01*
X094371Y011187D01*
X094287Y011255D01*
X094198Y011315D01*
X094103Y011367D01*
X094004Y011411D01*
X093902Y011444D01*
X093797Y011469D01*
X093690Y011483D01*
X093582Y011488D01*
X093474Y011483D01*
X093367Y011469D01*
X093262Y011444D01*
X093160Y011410D01*
X093061Y011367D01*
X092966Y011315D01*
X092877Y011254D01*
X092793Y011186D01*
X092716Y011110D01*
X092647Y011028D01*
X092585Y010939D01*
X092531Y010846D01*
X092487Y010747D01*
X092451Y010645D01*
X092425Y010541D01*
X092408Y010434D01*
X092402Y010328D01*
X091035Y010850D02*
X091040Y010788D01*
X091055Y010728D01*
X091079Y010670D01*
X091112Y010617D01*
X091152Y010570D01*
X091200Y010530D01*
X091253Y010498D01*
X091311Y010475D01*
X091372Y010461D01*
X091429Y010457D01*
X090916Y010727D02*
X090921Y010665D01*
X090936Y010605D01*
X090960Y010547D01*
X090993Y010494D01*
X091033Y010447D01*
X091081Y010407D01*
X091134Y010375D01*
X091192Y010352D01*
X091253Y010338D01*
X091310Y010334D01*
%LPC*%
X091310Y010334D02*
G54D12*
X013681Y000285D02*
Y000915D01*
X013484Y000285D02*
Y000915D01*
X013287Y000285D02*
Y000915D01*
X013090Y000285D02*
Y000915D01*
X012893Y000285D02*
Y000915D01*
X012697Y000285D02*
Y000915D01*
X012500Y000285D02*
Y000915D01*
X012303Y000285D02*
Y000915D01*
X012106Y000285D02*
Y000915D01*
X011909Y000285D02*
Y000915D01*
X011712Y000285D02*
Y000915D01*
X010728Y000285D02*
Y000915D01*
X010531Y000285D02*
Y000915D01*
X010334Y000285D02*
Y000915D01*
X010138Y000285D02*
Y000915D01*
X009942Y000285D02*
Y000915D01*
X009745Y000285D02*
Y000915D01*
X009548Y000285D02*
Y000915D01*
X009351Y000285D02*
Y000915D01*
X009154Y000285D02*
Y000915D01*
X008957Y000285D02*
Y000915D01*
X008761Y000285D02*
Y000915D01*
X008564Y000285D02*
Y000915D01*
X008367Y000285D02*
Y000915D01*
X008170Y000285D02*
Y000915D01*
X007973Y000285D02*
Y000915D01*
X007776Y000285D02*
Y000915D01*
X007579Y000285D02*
Y000915D01*
X007383Y000285D02*
Y000915D01*
X007186Y000285D02*
Y000915D01*
X006989Y000285D02*
Y000915D01*
X006792Y000285D02*
Y000915D01*
X006595Y000285D02*
Y000915D01*
G54D13*
X011693Y008661D03*
D03*
G54D14*
X005787Y008268D02*
Y001791D01*
X006201Y000000D02*
Y001378D01*
X010925Y001142D02*
Y000000D01*
X006201D01*
X012481Y008661D02*
X006181D01*
X011398Y001142D02*
Y000000D01*
X014035Y001378D02*
Y000000D01*
X011398D01*
X014055Y008661D02*
X012382D01*
X014449Y008268D02*
Y001791D01*
X006181Y008661D02*
X006119Y008656D01*
X006059Y008642D01*
X006001Y008618D01*
X005948Y008585D01*
X005901Y008544D01*
X005861Y008497D01*
X005829Y008443D01*
X005805Y008386D01*
X005792Y008325D01*
X005787Y008268D01*
Y001791D02*
X005792Y001747D01*
X005807Y001704D01*
X005830Y001665D01*
X005861Y001633D01*
X005899Y001608D01*
X005941Y001592D01*
X005986Y001585D01*
X005994Y001585D01*
X006201Y001378D02*
X006196Y001423D01*
X006181Y001465D01*
X006158Y001504D01*
X006127Y001536D01*
X006089Y001561D01*
X006047Y001578D01*
X006003Y001584D01*
X005994Y001585D01*
X011398Y001142D02*
X011393Y001190D01*
X011378Y001236D01*
X011355Y001278D01*
X011323Y001314D01*
X011285Y001343D01*
X011241Y001364D01*
X011194Y001376D01*
X011146Y001377D01*
X011099Y001369D01*
X011054Y001352D01*
X011013Y001326D01*
X010979Y001292D01*
X010952Y001252D01*
X010934Y001207D01*
X010926Y001160D01*
X010925Y001142D01*
X014242Y001585D02*
X014197Y001580D01*
X014155Y001565D01*
X014116Y001542D01*
X014084Y001511D01*
X014059Y001473D01*
X014042Y001431D01*
X014036Y001386D01*
X014035Y001378D01*
X014449Y008268D02*
X014444Y008330D01*
X014429Y008390D01*
X014405Y008448D01*
X014372Y008501D01*
X014332Y008548D01*
X014284Y008588D01*
X014231Y008620D01*
X014173Y008643D01*
X014112Y008657D01*
X014055Y008661D01*
X014242Y001585D02*
X014287Y001590D01*
X014330Y001604D01*
X014368Y001627D01*
X014401Y001659D01*
X014426Y001696D01*
X014442Y001738D01*
X014449Y001783D01*
X014449Y001791D01*
G54D12*
X006555Y018613D02*
Y017983D01*
X006752Y018613D02*
Y017983D01*
X006949Y018613D02*
Y017983D01*
X007146Y018613D02*
Y017983D01*
X007343Y018613D02*
Y017983D01*
X007539Y018613D02*
Y017983D01*
X007736Y018613D02*
Y017983D01*
X007933Y018613D02*
Y017983D01*
X008130Y018613D02*
Y017983D01*
X008327Y018613D02*
Y017983D01*
X008524Y018613D02*
Y017983D01*
X009508Y018613D02*
Y017983D01*
X009705Y018613D02*
Y017983D01*
X009902Y018613D02*
Y017983D01*
X010098Y018613D02*
Y017983D01*
X010294Y018613D02*
Y017983D01*
X010491Y018613D02*
Y017983D01*
X010688Y018613D02*
Y017983D01*
X010885Y018613D02*
Y017983D01*
X011082Y018613D02*
Y017983D01*
X011279Y018613D02*
Y017983D01*
X011475Y018613D02*
Y017983D01*
X011672Y018613D02*
Y017983D01*
X011869Y018613D02*
Y017983D01*
X012066Y018613D02*
Y017983D01*
X012263Y018613D02*
Y017983D01*
X012460Y018613D02*
Y017983D01*
X012657Y018613D02*
Y017983D01*
X012853Y018613D02*
Y017983D01*
X013050Y018613D02*
Y017983D01*
X013247Y018613D02*
Y017983D01*
X013444Y018613D02*
Y017983D01*
X013641Y018613D02*
Y017983D01*
G54D13*
X008543Y010236D03*
G54D13*
D03*
G54D14*
X014449Y010630D02*
Y017106D01*
X014035Y018898D02*
Y017520D01*
X009311Y017756D02*
Y018898D01*
X014035D01*
X007755Y010236D02*
X014055D01*
X008839Y017756D02*
Y018898D01*
X006201Y017520D02*
Y018898D01*
X008839D01*
X006181Y010236D02*
X007854D01*
X005787Y010630D02*
Y017106D01*
X014055Y010236D02*
X014117Y010241D01*
X014178Y010256D01*
X014235Y010280D01*
X014288Y010313D01*
X014335Y010353D01*
X014375Y010401D01*
X014407Y010454D01*
X014431Y010512D01*
X014445Y010573D01*
X014449Y010630D01*
Y017106D02*
X014444Y017151D01*
X014429Y017194D01*
X014406Y017232D01*
X014375Y017265D01*
X014337Y017290D01*
X014295Y017306D01*
X014251Y017313D01*
X014242Y017313D01*
X014035Y017520D02*
X014040Y017475D01*
X014055Y017432D01*
X014078Y017394D01*
X014109Y017361D01*
X014147Y017336D01*
X014189Y017320D01*
X014234Y017313D01*
X014242Y017313D01*
X008839Y017756D02*
X008844Y017708D01*
X008858Y017662D01*
X008882Y017620D01*
X008913Y017584D01*
X008952Y017554D01*
X008995Y017534D01*
X009042Y017522D01*
X009090Y017520D01*
X009138Y017528D01*
X009182Y017546D01*
X009223Y017572D01*
X009257Y017606D01*
X009284Y017646D01*
X009302Y017691D01*
X009310Y017738D01*
X009311Y017756D01*
X005994Y017313D02*
X006039Y017318D01*
X006082Y017332D01*
X006120Y017356D01*
X006153Y017387D01*
X006178Y017425D01*
X006194Y017467D01*
X006201Y017511D01*
X006201Y017520D01*
X005787Y010630D02*
X005792Y010568D01*
X005807Y010507D01*
X005831Y010450D01*
X005864Y010397D01*
X005904Y010350D01*
X005952Y010310D01*
X006005Y010278D01*
X006063Y010254D01*
X006124Y010240D01*
X006181Y010236D01*
X005994Y017313D02*
X005949Y017308D01*
X005907Y017294D01*
X005868Y017270D01*
X005836Y017239D01*
X005811Y017201D01*
X005794Y017159D01*
X005788Y017115D01*
X005787Y017106D01*
G54D12*
X023130Y000285D02*
Y000915D01*
X022933Y000285D02*
Y000915D01*
X022736Y000285D02*
Y000915D01*
X022539Y000285D02*
Y000915D01*
X022342Y000285D02*
Y000915D01*
X022146Y000285D02*
Y000915D01*
X021949Y000285D02*
Y000915D01*
X021752Y000285D02*
Y000915D01*
X021555Y000285D02*
Y000915D01*
X021358Y000285D02*
Y000915D01*
X021161Y000285D02*
Y000915D01*
X020177Y000285D02*
Y000915D01*
X019980Y000285D02*
Y000915D01*
X019783Y000285D02*
Y000915D01*
X019587Y000285D02*
Y000915D01*
X019391Y000285D02*
Y000915D01*
X019194Y000285D02*
Y000915D01*
X018997Y000285D02*
Y000915D01*
X018800Y000285D02*
Y000915D01*
X018603Y000285D02*
Y000915D01*
X018406Y000285D02*
Y000915D01*
X018210Y000285D02*
Y000915D01*
X018013Y000285D02*
Y000915D01*
X017816Y000285D02*
Y000915D01*
X017619Y000285D02*
Y000915D01*
X017422Y000285D02*
Y000915D01*
X017225Y000285D02*
Y000915D01*
X017028Y000285D02*
Y000915D01*
X016832Y000285D02*
Y000915D01*
X016635Y000285D02*
Y000915D01*
X016438Y000285D02*
Y000915D01*
X016241Y000285D02*
Y000915D01*
X016044Y000285D02*
Y000915D01*
G54D13*
X021142Y008661D03*
D03*
G54D14*
X015236Y008268D02*
Y001791D01*
X015650Y000000D02*
Y001378D01*
X020374Y001142D02*
Y000000D01*
X015650D01*
X021930Y008661D02*
X015630D01*
X020846Y001142D02*
Y000000D01*
X023484Y001378D02*
Y000000D01*
X020846D01*
X023504Y008661D02*
X021831D01*
X023898Y008268D02*
Y001791D01*
X015630Y008661D02*
X015568Y008656D01*
X015507Y008642D01*
X015450Y008618D01*
X015397Y008585D01*
X015350Y008544D01*
X015310Y008497D01*
X015278Y008443D01*
X015254Y008386D01*
X015240Y008325D01*
X015236Y008268D01*
Y001791D02*
X015241Y001747D01*
X015256Y001704D01*
X015279Y001665D01*
X015310Y001633D01*
X015348Y001608D01*
X015390Y001592D01*
X015434Y001585D01*
X015443Y001585D01*
X015650Y001378D02*
X015645Y001423D01*
X015630Y001465D01*
X015607Y001504D01*
X015576Y001536D01*
X015538Y001561D01*
X015496Y001578D01*
X015451Y001584D01*
X015443Y001585D01*
X020846Y001142D02*
X020842Y001190D01*
X020827Y001236D01*
X020803Y001278D01*
X020772Y001314D01*
X020733Y001343D01*
X020690Y001364D01*
X020643Y001376D01*
X020595Y001377D01*
X020547Y001369D01*
X020503Y001352D01*
X020462Y001326D01*
X020428Y001292D01*
X020401Y001252D01*
X020383Y001207D01*
X020375Y001160D01*
X020374Y001142D01*
X023691Y001585D02*
X023646Y001580D01*
X023603Y001565D01*
X023565Y001542D01*
X023532Y001511D01*
X023507Y001473D01*
X023491Y001431D01*
X023484Y001386D01*
X023484Y001378D01*
X023898Y008268D02*
X023893Y008330D01*
X023878Y008390D01*
X023854Y008448D01*
X023821Y008501D01*
X023781Y008548D01*
X023733Y008588D01*
X023680Y008620D01*
X023622Y008643D01*
X023561Y008657D01*
X023504Y008661D01*
X023691Y001585D02*
X023736Y001590D01*
X023778Y001604D01*
X023817Y001627D01*
X023849Y001659D01*
X023874Y001696D01*
X023891Y001738D01*
X023897Y001783D01*
X023898Y001791D01*
G54D12*
X016004Y018613D02*
Y017983D01*
X016201Y018613D02*
Y017983D01*
X016398Y018613D02*
Y017983D01*
X016595Y018613D02*
Y017983D01*
X016792Y018613D02*
Y017983D01*
X016988Y018613D02*
Y017983D01*
X017185Y018613D02*
Y017983D01*
X017382Y018613D02*
Y017983D01*
X017579Y018613D02*
Y017983D01*
X017776Y018613D02*
Y017983D01*
X017973Y018613D02*
Y017983D01*
X018957Y018613D02*
Y017983D01*
X019154Y018613D02*
Y017983D01*
X019351Y018613D02*
Y017983D01*
X019547Y018613D02*
Y017983D01*
X019743Y018613D02*
Y017983D01*
X019940Y018613D02*
Y017983D01*
X020137Y018613D02*
Y017983D01*
X020334Y018613D02*
Y017983D01*
X020531Y018613D02*
Y017983D01*
X020728Y018613D02*
Y017983D01*
X020924Y018613D02*
Y017983D01*
X021121Y018613D02*
Y017983D01*
X021318Y018613D02*
Y017983D01*
X021515Y018613D02*
Y017983D01*
X021712Y018613D02*
Y017983D01*
X021909Y018613D02*
Y017983D01*
X022106Y018613D02*
Y017983D01*
X022302Y018613D02*
Y017983D01*
X022499Y018613D02*
Y017983D01*
X022696Y018613D02*
Y017983D01*
X022893Y018613D02*
Y017983D01*
X023090Y018613D02*
Y017983D01*
G54D13*
X017992Y010236D03*
G54D13*
D03*
G54D14*
X023898Y010630D02*
Y017106D01*
X023484Y018898D02*
Y017520D01*
X018760Y017756D02*
Y018898D01*
X023484D01*
X017204Y010236D02*
X023504D01*
X018287Y017756D02*
Y018898D01*
X015650Y017520D02*
Y018898D01*
X018287D01*
X015630Y010236D02*
X017303D01*
X015236Y010630D02*
Y017106D01*
X023504Y010236D02*
X023566Y010241D01*
X023627Y010256D01*
X023684Y010280D01*
X023737Y010313D01*
X023784Y010353D01*
X023824Y010401D01*
X023856Y010454D01*
X023880Y010512D01*
X023893Y010573D01*
X023898Y010630D01*
Y017106D02*
X023893Y017151D01*
X023878Y017194D01*
X023855Y017232D01*
X023824Y017265D01*
X023786Y017290D01*
X023744Y017306D01*
X023699Y017313D01*
X023691Y017313D01*
X023484Y017520D02*
X023489Y017475D01*
X023504Y017432D01*
X023527Y017394D01*
X023558Y017361D01*
X023596Y017336D01*
X023638Y017320D01*
X023682Y017313D01*
X023691Y017313D01*
X018287Y017756D02*
X018292Y017708D01*
X018307Y017662D01*
X018330Y017620D01*
X018362Y017584D01*
X018400Y017554D01*
X018444Y017534D01*
X018491Y017522D01*
X018539Y017520D01*
X018586Y017528D01*
X018631Y017546D01*
X018672Y017572D01*
X018706Y017606D01*
X018733Y017646D01*
X018751Y017691D01*
X018759Y017738D01*
X018760Y017756D01*
X015443Y017313D02*
X015488Y017318D01*
X015530Y017332D01*
X015569Y017356D01*
X015601Y017387D01*
X015626Y017425D01*
X015643Y017467D01*
X015649Y017511D01*
X015650Y017520D01*
X015236Y010630D02*
X015241Y010568D01*
X015256Y010507D01*
X015280Y010450D01*
X015313Y010397D01*
X015353Y010350D01*
X015401Y010310D01*
X015454Y010278D01*
X015512Y010254D01*
X015573Y010240D01*
X015630Y010236D01*
X015443Y017313D02*
X015398Y017308D01*
X015355Y017294D01*
X015317Y017270D01*
X015284Y017239D01*
X015259Y017201D01*
X015243Y017159D01*
X015236Y017115D01*
X015236Y017106D01*
G54D12*
X032578Y000285D02*
Y000915D01*
X032381Y000285D02*
Y000915D01*
X032184Y000285D02*
Y000915D01*
X031987Y000285D02*
Y000915D01*
X031790Y000285D02*
Y000915D01*
X031594Y000285D02*
Y000915D01*
X031397Y000285D02*
Y000915D01*
X031200Y000285D02*
Y000915D01*
X031003Y000285D02*
Y000915D01*
X030806Y000285D02*
Y000915D01*
X030609Y000285D02*
Y000915D01*
X029625Y000285D02*
Y000915D01*
X029428Y000285D02*
Y000915D01*
X029231Y000285D02*
Y000915D01*
X029035Y000285D02*
Y000915D01*
X028839Y000285D02*
Y000915D01*
X028642Y000285D02*
Y000915D01*
X028445Y000285D02*
Y000915D01*
X028248Y000285D02*
Y000915D01*
X028051Y000285D02*
Y000915D01*
X027854Y000285D02*
Y000915D01*
X027658Y000285D02*
Y000915D01*
X027461Y000285D02*
Y000915D01*
X027264Y000285D02*
Y000915D01*
X027067Y000285D02*
Y000915D01*
X026870Y000285D02*
Y000915D01*
X026673Y000285D02*
Y000915D01*
X026476Y000285D02*
Y000915D01*
X026280Y000285D02*
Y000915D01*
X026083Y000285D02*
Y000915D01*
X025886Y000285D02*
Y000915D01*
X025689Y000285D02*
Y000915D01*
X025492Y000285D02*
Y000915D01*
G54D13*
X030591Y008661D03*
D03*
G54D14*
X024685Y008268D02*
Y001791D01*
X025098Y000000D02*
Y001378D01*
X029823Y001142D02*
Y000000D01*
X025098D01*
X031378Y008661D02*
X025079D01*
X030295Y001142D02*
Y000000D01*
X032933Y001378D02*
Y000000D01*
X030295D01*
X032953Y008661D02*
X031280D01*
X033346Y008268D02*
Y001791D01*
X025079Y008661D02*
X025017Y008656D01*
X024956Y008642D01*
X024899Y008618D01*
X024846Y008585D01*
X024799Y008544D01*
X024759Y008497D01*
X024726Y008443D01*
X024703Y008386D01*
X024689Y008325D01*
X024685Y008268D01*
Y001791D02*
X024690Y001747D01*
X024704Y001704D01*
X024728Y001665D01*
X024759Y001633D01*
X024797Y001608D01*
X024839Y001592D01*
X024883Y001585D01*
X024892Y001585D01*
X025098Y001378D02*
X025094Y001423D01*
X025079Y001465D01*
X025056Y001504D01*
X025024Y001536D01*
X024987Y001561D01*
X024945Y001578D01*
X024900Y001584D01*
X024892Y001585D01*
X030295Y001142D02*
X030290Y001190D01*
X030276Y001236D01*
X030252Y001278D01*
X030221Y001314D01*
X030182Y001343D01*
X030139Y001364D01*
X030092Y001376D01*
X030044Y001377D01*
X029996Y001369D01*
X029951Y001352D01*
X029911Y001326D01*
X029877Y001292D01*
X029850Y001252D01*
X029832Y001207D01*
X029824Y001160D01*
X029823Y001142D01*
X033140Y001585D02*
X033095Y001580D01*
X033052Y001565D01*
X033014Y001542D01*
X032981Y001511D01*
X032956Y001473D01*
X032940Y001431D01*
X032933Y001386D01*
X032933Y001378D01*
X033346Y008268D02*
X033342Y008330D01*
X033327Y008390D01*
X033303Y008448D01*
X033270Y008501D01*
X033229Y008548D01*
X033182Y008588D01*
X033128Y008620D01*
X033071Y008643D01*
X033010Y008657D01*
X032953Y008661D01*
X033140Y001585D02*
X033185Y001590D01*
X033227Y001604D01*
X033266Y001627D01*
X033298Y001659D01*
X033323Y001696D01*
X033340Y001738D01*
X033346Y001783D01*
X033346Y001791D01*
G54D12*
X025453Y018613D02*
Y017983D01*
X025650Y018613D02*
Y017983D01*
X025847Y018613D02*
Y017983D01*
X026044Y018613D02*
Y017983D01*
X026241Y018613D02*
Y017983D01*
X026437Y018613D02*
Y017983D01*
X026634Y018613D02*
Y017983D01*
X026831Y018613D02*
Y017983D01*
X027028Y018613D02*
Y017983D01*
X027225Y018613D02*
Y017983D01*
X027422Y018613D02*
Y017983D01*
X028406Y018613D02*
Y017983D01*
X028603Y018613D02*
Y017983D01*
X028800Y018613D02*
Y017983D01*
X028996Y018613D02*
Y017983D01*
X029192Y018613D02*
Y017983D01*
X029389Y018613D02*
Y017983D01*
X029586Y018613D02*
Y017983D01*
X029783Y018613D02*
Y017983D01*
X029980Y018613D02*
Y017983D01*
X030177Y018613D02*
Y017983D01*
X030373Y018613D02*
Y017983D01*
X030570Y018613D02*
Y017983D01*
X030767Y018613D02*
Y017983D01*
X030964Y018613D02*
Y017983D01*
X031161Y018613D02*
Y017983D01*
X031358Y018613D02*
Y017983D01*
X031555Y018613D02*
Y017983D01*
X031751Y018613D02*
Y017983D01*
X031948Y018613D02*
Y017983D01*
X032145Y018613D02*
Y017983D01*
X032342Y018613D02*
Y017983D01*
X032539Y018613D02*
Y017983D01*
G54D13*
X027441Y010236D03*
G54D13*
D03*
G54D14*
X033346Y010630D02*
Y017106D01*
X032933Y018898D02*
Y017520D01*
X028209Y017756D02*
Y018898D01*
X032933D01*
X026653Y010236D02*
X032953D01*
X027736Y017756D02*
Y018898D01*
X025098Y017520D02*
Y018898D01*
X027736D01*
X025079Y010236D02*
X026752D01*
X024685Y010630D02*
Y017106D01*
X032953Y010236D02*
X033015Y010241D01*
X033075Y010256D01*
X033133Y010280D01*
X033186Y010313D01*
X033233Y010353D01*
X033273Y010401D01*
X033305Y010454D01*
X033328Y010512D01*
X033342Y010573D01*
X033346Y010630D01*
Y017106D02*
X033342Y017151D01*
X033327Y017194D01*
X033304Y017232D01*
X033272Y017265D01*
X033235Y017290D01*
X033193Y017306D01*
X033148Y017313D01*
X033140Y017313D01*
X032933Y017520D02*
X032938Y017475D01*
X032952Y017432D01*
X032976Y017394D01*
X033007Y017361D01*
X033045Y017336D01*
X033087Y017320D01*
X033131Y017313D01*
X033140Y017313D01*
X027736Y017756D02*
X027741Y017708D01*
X027756Y017662D01*
X027779Y017620D01*
X027811Y017584D01*
X027849Y017554D01*
X027893Y017534D01*
X027939Y017522D01*
X027988Y017520D01*
X028035Y017528D01*
X028080Y017546D01*
X028121Y017572D01*
X028155Y017606D01*
X028181Y017646D01*
X028199Y017691D01*
X028208Y017738D01*
X028209Y017756D01*
X024892Y017313D02*
X024937Y017318D01*
X024979Y017332D01*
X025018Y017356D01*
X025050Y017387D01*
X025075Y017425D01*
X025091Y017467D01*
X025098Y017511D01*
X025098Y017520D01*
X024685Y010630D02*
X024690Y010568D01*
X024705Y010507D01*
X024729Y010450D01*
X024761Y010397D01*
X024802Y010350D01*
X024850Y010310D01*
X024903Y010278D01*
X024961Y010254D01*
X025022Y010240D01*
X025079Y010236D01*
X024892Y017313D02*
X024847Y017308D01*
X024804Y017294D01*
X024766Y017270D01*
X024733Y017239D01*
X024708Y017201D01*
X024692Y017159D01*
X024685Y017115D01*
X024685Y017106D01*
G54D12*
X042027Y000285D02*
Y000915D01*
X041830Y000285D02*
Y000915D01*
X041633Y000285D02*
Y000915D01*
X041436Y000285D02*
Y000915D01*
X041239Y000285D02*
Y000915D01*
X041043Y000285D02*
Y000915D01*
X040846Y000285D02*
Y000915D01*
X040649Y000285D02*
Y000915D01*
X040452Y000285D02*
Y000915D01*
X040255Y000285D02*
Y000915D01*
X040058Y000285D02*
Y000915D01*
X039074Y000285D02*
Y000915D01*
X038877Y000285D02*
Y000915D01*
X038680Y000285D02*
Y000915D01*
X038484Y000285D02*
Y000915D01*
X038288Y000285D02*
Y000915D01*
X038091Y000285D02*
Y000915D01*
X037894Y000285D02*
Y000915D01*
X037697Y000285D02*
Y000915D01*
X037500Y000285D02*
Y000915D01*
X037303Y000285D02*
Y000915D01*
X037107Y000285D02*
Y000915D01*
X036910Y000285D02*
Y000915D01*
X036713Y000285D02*
Y000915D01*
X036516Y000285D02*
Y000915D01*
X036319Y000285D02*
Y000915D01*
X036122Y000285D02*
Y000915D01*
X035925Y000285D02*
Y000915D01*
X035729Y000285D02*
Y000915D01*
X035532Y000285D02*
Y000915D01*
X035335Y000285D02*
Y000915D01*
X035138Y000285D02*
Y000915D01*
X034941Y000285D02*
Y000915D01*
G54D13*
X040039Y008661D03*
D03*
G54D14*
X034134Y008268D02*
Y001791D01*
X034547Y000000D02*
Y001378D01*
X039272Y001142D02*
Y000000D01*
X034547D01*
X040827Y008661D02*
X034528D01*
X039744Y001142D02*
Y000000D01*
X042382Y001378D02*
Y000000D01*
X039744D01*
X042402Y008661D02*
X040728D01*
X042795Y008268D02*
Y001791D01*
X034528Y008661D02*
X034465Y008656D01*
X034405Y008642D01*
X034348Y008618D01*
X034295Y008585D01*
X034247Y008544D01*
X034207Y008497D01*
X034175Y008443D01*
X034152Y008386D01*
X034138Y008325D01*
X034134Y008268D01*
Y001791D02*
X034139Y001747D01*
X034153Y001704D01*
X034177Y001665D01*
X034208Y001633D01*
X034245Y001608D01*
X034287Y001592D01*
X034332Y001585D01*
X034341Y001585D01*
X034547Y001378D02*
X034542Y001423D01*
X034528Y001465D01*
X034504Y001504D01*
X034473Y001536D01*
X034436Y001561D01*
X034394Y001578D01*
X034349Y001584D01*
X034341Y001585D01*
X039744Y001142D02*
X039739Y001190D01*
X039725Y001236D01*
X039701Y001278D01*
X039669Y001314D01*
X039631Y001343D01*
X039588Y001364D01*
X039541Y001376D01*
X039493Y001377D01*
X039445Y001369D01*
X039400Y001352D01*
X039360Y001326D01*
X039326Y001292D01*
X039299Y001252D01*
X039281Y001207D01*
X039272Y001160D01*
X039272Y001142D01*
X042589Y001585D02*
X042544Y001580D01*
X042501Y001565D01*
X042463Y001542D01*
X042430Y001511D01*
X042405Y001473D01*
X042389Y001431D01*
X042382Y001386D01*
X042382Y001378D01*
X042795Y008268D02*
X042790Y008330D01*
X042776Y008390D01*
X042752Y008448D01*
X042719Y008501D01*
X042678Y008548D01*
X042631Y008588D01*
X042577Y008620D01*
X042519Y008643D01*
X042459Y008657D01*
X042402Y008661D01*
X042589Y001585D02*
X042633Y001590D01*
X042676Y001604D01*
X042715Y001627D01*
X042747Y001659D01*
X042772Y001696D01*
X042788Y001738D01*
X042795Y001783D01*
X042795Y001791D01*
G54D12*
X034902Y018613D02*
Y017983D01*
X035099Y018613D02*
Y017983D01*
X035296Y018613D02*
Y017983D01*
X035493Y018613D02*
Y017983D01*
X035690Y018613D02*
Y017983D01*
X035886Y018613D02*
Y017983D01*
X036083Y018613D02*
Y017983D01*
X036280Y018613D02*
Y017983D01*
X036477Y018613D02*
Y017983D01*
X036674Y018613D02*
Y017983D01*
X036871Y018613D02*
Y017983D01*
X037855Y018613D02*
Y017983D01*
X038052Y018613D02*
Y017983D01*
X038249Y018613D02*
Y017983D01*
X038445Y018613D02*
Y017983D01*
X038641Y018613D02*
Y017983D01*
X038838Y018613D02*
Y017983D01*
X039035Y018613D02*
Y017983D01*
X039232Y018613D02*
Y017983D01*
X039429Y018613D02*
Y017983D01*
X039626Y018613D02*
Y017983D01*
X039822Y018613D02*
Y017983D01*
X040019Y018613D02*
Y017983D01*
X040216Y018613D02*
Y017983D01*
X040413Y018613D02*
Y017983D01*
X040610Y018613D02*
Y017983D01*
X040807Y018613D02*
Y017983D01*
X041004Y018613D02*
Y017983D01*
X041200Y018613D02*
Y017983D01*
X041397Y018613D02*
Y017983D01*
X041594Y018613D02*
Y017983D01*
X041791Y018613D02*
Y017983D01*
X041988Y018613D02*
Y017983D01*
G54D13*
X036890Y010236D03*
G54D13*
D03*
G54D14*
X042795Y010630D02*
Y017106D01*
X042382Y018898D02*
Y017520D01*
X037657Y017756D02*
Y018898D01*
X042382D01*
X036102Y010236D02*
X042402D01*
X037185Y017756D02*
Y018898D01*
X034547Y017520D02*
Y018898D01*
X037185D01*
X034528Y010236D02*
X036201D01*
X034134Y010630D02*
Y017106D01*
X042402Y010236D02*
X042464Y010241D01*
X042524Y010256D01*
X042582Y010280D01*
X042635Y010313D01*
X042682Y010353D01*
X042722Y010401D01*
X042754Y010454D01*
X042777Y010512D01*
X042791Y010573D01*
X042795Y010630D01*
Y017106D02*
X042790Y017151D01*
X042776Y017194D01*
X042752Y017232D01*
X042721Y017265D01*
X042684Y017290D01*
X042642Y017306D01*
X042597Y017313D01*
X042589Y017313D01*
X042382Y017520D02*
X042387Y017475D01*
X042401Y017432D01*
X042425Y017394D01*
X042456Y017361D01*
X042493Y017336D01*
X042536Y017320D01*
X042580Y017313D01*
X042589Y017313D01*
X037185Y017756D02*
X037190Y017708D01*
X037205Y017662D01*
X037228Y017620D01*
X037260Y017584D01*
X037298Y017554D01*
X037342Y017534D01*
X037388Y017522D01*
X037436Y017520D01*
X037484Y017528D01*
X037529Y017546D01*
X037569Y017572D01*
X037604Y017606D01*
X037630Y017646D01*
X037648Y017691D01*
X037657Y017738D01*
X037657Y017756D01*
X034341Y017313D02*
X034385Y017318D01*
X034428Y017332D01*
X034467Y017356D01*
X034499Y017387D01*
X034524Y017425D01*
X034540Y017467D01*
X034547Y017511D01*
X034547Y017520D01*
X034134Y010630D02*
X034139Y010568D01*
X034153Y010507D01*
X034177Y010450D01*
X034210Y010397D01*
X034251Y010350D01*
X034299Y010310D01*
X034352Y010278D01*
X034410Y010254D01*
X034470Y010240D01*
X034528Y010236D01*
X034341Y017313D02*
X034296Y017308D01*
X034253Y017294D01*
X034215Y017270D01*
X034182Y017239D01*
X034157Y017201D01*
X034141Y017159D01*
X034134Y017115D01*
X034134Y017106D01*
G54D12*
X051476Y000285D02*
Y000915D01*
X051279Y000285D02*
Y000915D01*
X051082Y000285D02*
Y000915D01*
X050885Y000285D02*
Y000915D01*
X050688Y000285D02*
Y000915D01*
X050492Y000285D02*
Y000915D01*
X050295Y000285D02*
Y000915D01*
X050098Y000285D02*
Y000915D01*
X049901Y000285D02*
Y000915D01*
X049704Y000285D02*
Y000915D01*
X049507Y000285D02*
Y000915D01*
X048523Y000285D02*
Y000915D01*
X048326Y000285D02*
Y000915D01*
X048129Y000285D02*
Y000915D01*
X047933Y000285D02*
Y000915D01*
X047737Y000285D02*
Y000915D01*
X047540Y000285D02*
Y000915D01*
X047343Y000285D02*
Y000915D01*
X047146Y000285D02*
Y000915D01*
X046949Y000285D02*
Y000915D01*
X046752Y000285D02*
Y000915D01*
X046556Y000285D02*
Y000915D01*
X046359Y000285D02*
Y000915D01*
X046162Y000285D02*
Y000915D01*
X045965Y000285D02*
Y000915D01*
X045768Y000285D02*
Y000915D01*
X045571Y000285D02*
Y000915D01*
X045374Y000285D02*
Y000915D01*
X045178Y000285D02*
Y000915D01*
X044981Y000285D02*
Y000915D01*
X044784Y000285D02*
Y000915D01*
X044587Y000285D02*
Y000915D01*
X044390Y000285D02*
Y000915D01*
G54D13*
X049488Y008661D03*
D03*
G54D14*
X043583Y008268D02*
Y001791D01*
X043996Y000000D02*
Y001378D01*
X048720Y001142D02*
Y000000D01*
X043996D01*
X050276Y008661D02*
X043976D01*
X049193Y001142D02*
Y000000D01*
X051831Y001378D02*
Y000000D01*
X049193D01*
X051850Y008661D02*
X050177D01*
X052244Y008268D02*
Y001791D01*
X043976Y008661D02*
X043914Y008656D01*
X043854Y008642D01*
X043796Y008618D01*
X043743Y008585D01*
X043696Y008544D01*
X043656Y008497D01*
X043624Y008443D01*
X043601Y008386D01*
X043587Y008325D01*
X043583Y008268D01*
Y001791D02*
X043588Y001747D01*
X043602Y001704D01*
X043626Y001665D01*
X043657Y001633D01*
X043694Y001608D01*
X043736Y001592D01*
X043781Y001585D01*
X043789Y001585D01*
X043996Y001378D02*
X043991Y001423D01*
X043977Y001465D01*
X043953Y001504D01*
X043922Y001536D01*
X043884Y001561D01*
X043842Y001578D01*
X043798Y001584D01*
X043789Y001585D01*
X049193Y001142D02*
X049188Y001190D01*
X049173Y001236D01*
X049150Y001278D01*
X049118Y001314D01*
X049080Y001343D01*
X049036Y001364D01*
X048990Y001376D01*
X048941Y001377D01*
X048894Y001369D01*
X048849Y001352D01*
X048809Y001326D01*
X048774Y001292D01*
X048748Y001252D01*
X048730Y001207D01*
X048721Y001160D01*
X048720Y001142D01*
X052037Y001585D02*
X051993Y001580D01*
X051950Y001565D01*
X051911Y001542D01*
X051879Y001511D01*
X051854Y001473D01*
X051838Y001431D01*
X051831Y001386D01*
X051831Y001378D01*
X052244Y008268D02*
X052239Y008330D01*
X052225Y008390D01*
X052201Y008448D01*
X052168Y008501D01*
X052127Y008548D01*
X052079Y008588D01*
X052026Y008620D01*
X051968Y008643D01*
X051908Y008657D01*
X051850Y008661D01*
X052037Y001585D02*
X052082Y001590D01*
X052125Y001604D01*
X052163Y001627D01*
X052196Y001659D01*
X052221Y001696D01*
X052237Y001738D01*
X052244Y001783D01*
X052244Y001791D01*
G54D12*
X044351Y018613D02*
Y017983D01*
X044548Y018613D02*
Y017983D01*
X044745Y018613D02*
Y017983D01*
X044942Y018613D02*
Y017983D01*
X045139Y018613D02*
Y017983D01*
X045335Y018613D02*
Y017983D01*
X045532Y018613D02*
Y017983D01*
X045729Y018613D02*
Y017983D01*
X045926Y018613D02*
Y017983D01*
X046123Y018613D02*
Y017983D01*
X046320Y018613D02*
Y017983D01*
X047304Y018613D02*
Y017983D01*
X047501Y018613D02*
Y017983D01*
X047698Y018613D02*
Y017983D01*
X047894Y018613D02*
Y017983D01*
X048090Y018613D02*
Y017983D01*
X048287Y018613D02*
Y017983D01*
X048484Y018613D02*
Y017983D01*
X048681Y018613D02*
Y017983D01*
X048878Y018613D02*
Y017983D01*
X049075Y018613D02*
Y017983D01*
X049271Y018613D02*
Y017983D01*
X049468Y018613D02*
Y017983D01*
X049665Y018613D02*
Y017983D01*
X049862Y018613D02*
Y017983D01*
X050059Y018613D02*
Y017983D01*
X050256Y018613D02*
Y017983D01*
X050453Y018613D02*
Y017983D01*
X050649Y018613D02*
Y017983D01*
X050846Y018613D02*
Y017983D01*
X051043Y018613D02*
Y017983D01*
X051240Y018613D02*
Y017983D01*
X051437Y018613D02*
Y017983D01*
G54D13*
X046339Y010236D03*
G54D13*
D03*
G54D14*
X052244Y010630D02*
Y017106D01*
X051831Y018898D02*
Y017520D01*
X047106Y017756D02*
Y018898D01*
X051831D01*
X045551Y010236D02*
X051850D01*
X046634Y017756D02*
Y018898D01*
X043996Y017520D02*
Y018898D01*
X046634D01*
X043976Y010236D02*
X045650D01*
X043583Y010630D02*
Y017106D01*
X051850Y010236D02*
X051912Y010241D01*
X051973Y010256D01*
X052030Y010280D01*
X052083Y010313D01*
X052131Y010353D01*
X052171Y010401D01*
X052203Y010454D01*
X052226Y010512D01*
X052240Y010573D01*
X052244Y010630D01*
Y017106D02*
X052239Y017151D01*
X052225Y017194D01*
X052201Y017232D01*
X052170Y017265D01*
X052133Y017290D01*
X052090Y017306D01*
X052046Y017313D01*
X052037Y017313D01*
X051831Y017520D02*
X051836Y017475D01*
X051850Y017432D01*
X051874Y017394D01*
X051905Y017361D01*
X051942Y017336D01*
X051984Y017320D01*
X052029Y017313D01*
X052037Y017313D01*
X046634Y017756D02*
X046639Y017708D01*
X046653Y017662D01*
X046677Y017620D01*
X046709Y017584D01*
X046747Y017554D01*
X046790Y017534D01*
X046837Y017522D01*
X046885Y017520D01*
X046933Y017528D01*
X046978Y017546D01*
X047018Y017572D01*
X047052Y017606D01*
X047079Y017646D01*
X047097Y017691D01*
X047106Y017738D01*
X047106Y017756D01*
X043789Y017313D02*
X043834Y017318D01*
X043877Y017332D01*
X043915Y017356D01*
X043948Y017387D01*
X043973Y017425D01*
X043989Y017467D01*
X043996Y017511D01*
X043996Y017520D01*
X043583Y010630D02*
X043588Y010568D01*
X043602Y010507D01*
X043626Y010450D01*
X043659Y010397D01*
X043700Y010350D01*
X043747Y010310D01*
X043801Y010278D01*
X043858Y010254D01*
X043919Y010240D01*
X043976Y010236D01*
X043789Y017313D02*
X043745Y017308D01*
X043702Y017294D01*
X043663Y017270D01*
X043631Y017239D01*
X043606Y017201D01*
X043590Y017159D01*
X043583Y017115D01*
X043583Y017106D01*
G54D12*
X060925Y000285D02*
Y000915D01*
X060728Y000285D02*
Y000915D01*
X060531Y000285D02*
Y000915D01*
X060334Y000285D02*
Y000915D01*
X060137Y000285D02*
Y000915D01*
X059941Y000285D02*
Y000915D01*
X059744Y000285D02*
Y000915D01*
X059547Y000285D02*
Y000915D01*
X059350Y000285D02*
Y000915D01*
X059153Y000285D02*
Y000915D01*
X058956Y000285D02*
Y000915D01*
X057972Y000285D02*
Y000915D01*
X057775Y000285D02*
Y000915D01*
X057578Y000285D02*
Y000915D01*
X057382Y000285D02*
Y000915D01*
X057186Y000285D02*
Y000915D01*
X056989Y000285D02*
Y000915D01*
X056792Y000285D02*
Y000915D01*
X056595Y000285D02*
Y000915D01*
X056398Y000285D02*
Y000915D01*
X056201Y000285D02*
Y000915D01*
X056005Y000285D02*
Y000915D01*
X055808Y000285D02*
Y000915D01*
X055611Y000285D02*
Y000915D01*
X055414Y000285D02*
Y000915D01*
X055217Y000285D02*
Y000915D01*
X055020Y000285D02*
Y000915D01*
X054823Y000285D02*
Y000915D01*
X054627Y000285D02*
Y000915D01*
X054430Y000285D02*
Y000915D01*
X054233Y000285D02*
Y000915D01*
X054036Y000285D02*
Y000915D01*
X053839Y000285D02*
Y000915D01*
G54D13*
X058937Y008661D03*
D03*
G54D14*
X053031Y008268D02*
Y001791D01*
X053445Y000000D02*
Y001378D01*
X058169Y001142D02*
Y000000D01*
X053445D01*
X059725Y008661D02*
X053425D01*
X058642Y001142D02*
Y000000D01*
X061280Y001378D02*
Y000000D01*
X058642D01*
X061299Y008661D02*
X059626D01*
X061693Y008268D02*
Y001791D01*
X053425Y008661D02*
X053363Y008656D01*
X053303Y008642D01*
X053245Y008618D01*
X053192Y008585D01*
X053145Y008544D01*
X053105Y008497D01*
X053073Y008443D01*
X053050Y008386D01*
X053036Y008325D01*
X053031Y008268D01*
Y001791D02*
X053036Y001747D01*
X053051Y001704D01*
X053074Y001665D01*
X053106Y001633D01*
X053143Y001608D01*
X053185Y001592D01*
X053230Y001585D01*
X053238Y001585D01*
X053445Y001378D02*
X053440Y001423D01*
X053425Y001465D01*
X053402Y001504D01*
X053371Y001536D01*
X053333Y001561D01*
X053291Y001578D01*
X053247Y001584D01*
X053238Y001585D01*
X058642Y001142D02*
X058637Y001190D01*
X058622Y001236D01*
X058599Y001278D01*
X058567Y001314D01*
X058529Y001343D01*
X058485Y001364D01*
X058438Y001376D01*
X058390Y001377D01*
X058343Y001369D01*
X058298Y001352D01*
X058257Y001326D01*
X058223Y001292D01*
X058196Y001252D01*
X058178Y001207D01*
X058170Y001160D01*
X058169Y001142D01*
X061486Y001585D02*
X061441Y001580D01*
X061399Y001565D01*
X061360Y001542D01*
X061328Y001511D01*
X061303Y001473D01*
X061286Y001431D01*
X061280Y001386D01*
X061280Y001378D01*
X061693Y008268D02*
X061688Y008330D01*
X061673Y008390D01*
X061649Y008448D01*
X061617Y008501D01*
X061576Y008548D01*
X061528Y008588D01*
X061475Y008620D01*
X061417Y008643D01*
X061356Y008657D01*
X061299Y008661D01*
X061486Y001585D02*
X061531Y001590D01*
X061574Y001604D01*
X061612Y001627D01*
X061645Y001659D01*
X061670Y001696D01*
X061686Y001738D01*
X061693Y001783D01*
X061693Y001791D01*
G54D12*
X053800Y018613D02*
Y017983D01*
X053997Y018613D02*
Y017983D01*
X054194Y018613D02*
Y017983D01*
X054391Y018613D02*
Y017983D01*
X054588Y018613D02*
Y017983D01*
X054784Y018613D02*
Y017983D01*
X054981Y018613D02*
Y017983D01*
X055178Y018613D02*
Y017983D01*
X055375Y018613D02*
Y017983D01*
X055572Y018613D02*
Y017983D01*
X055769Y018613D02*
Y017983D01*
X056753Y018613D02*
Y017983D01*
X056950Y018613D02*
Y017983D01*
X057147Y018613D02*
Y017983D01*
X057343Y018613D02*
Y017983D01*
X057539Y018613D02*
Y017983D01*
X057736Y018613D02*
Y017983D01*
X057933Y018613D02*
Y017983D01*
X058130Y018613D02*
Y017983D01*
X058327Y018613D02*
Y017983D01*
X058524Y018613D02*
Y017983D01*
X058720Y018613D02*
Y017983D01*
X058917Y018613D02*
Y017983D01*
X059114Y018613D02*
Y017983D01*
X059311Y018613D02*
Y017983D01*
X059508Y018613D02*
Y017983D01*
X059705Y018613D02*
Y017983D01*
X059902Y018613D02*
Y017983D01*
X060098Y018613D02*
Y017983D01*
X060295Y018613D02*
Y017983D01*
X060492Y018613D02*
Y017983D01*
X060689Y018613D02*
Y017983D01*
X060886Y018613D02*
Y017983D01*
G54D13*
X055787Y010236D03*
G54D13*
D03*
G54D14*
X061693Y010630D02*
Y017106D01*
X061280Y018898D02*
Y017520D01*
X056555Y017756D02*
Y018898D01*
X061280D01*
X055000Y010236D02*
X061299D01*
X056083Y017756D02*
Y018898D01*
X053445Y017520D02*
Y018898D01*
X056083D01*
X053425Y010236D02*
X055098D01*
X053031Y010630D02*
Y017106D01*
X061299Y010236D02*
X061361Y010241D01*
X061422Y010256D01*
X061479Y010280D01*
X061532Y010313D01*
X061579Y010353D01*
X061619Y010401D01*
X061652Y010454D01*
X061675Y010512D01*
X061689Y010573D01*
X061693Y010630D01*
Y017106D02*
X061688Y017151D01*
X061673Y017194D01*
X061650Y017232D01*
X061619Y017265D01*
X061581Y017290D01*
X061539Y017306D01*
X061495Y017313D01*
X061486Y017313D01*
X061280Y017520D02*
X061284Y017475D01*
X061299Y017432D01*
X061322Y017394D01*
X061354Y017361D01*
X061391Y017336D01*
X061433Y017320D01*
X061478Y017313D01*
X061486Y017313D01*
X056083Y017756D02*
X056088Y017708D01*
X056102Y017662D01*
X056126Y017620D01*
X056157Y017584D01*
X056196Y017554D01*
X056239Y017534D01*
X056286Y017522D01*
X056334Y017520D01*
X056382Y017528D01*
X056427Y017546D01*
X056467Y017572D01*
X056501Y017606D01*
X056528Y017646D01*
X056546Y017691D01*
X056554Y017738D01*
X056555Y017756D01*
X053238Y017313D02*
X053283Y017318D01*
X053326Y017332D01*
X053364Y017356D01*
X053397Y017387D01*
X053422Y017425D01*
X053438Y017467D01*
X053445Y017511D01*
X053445Y017520D01*
X053031Y010630D02*
X053036Y010568D01*
X053051Y010507D01*
X053075Y010450D01*
X053108Y010397D01*
X053149Y010350D01*
X053196Y010310D01*
X053250Y010278D01*
X053307Y010254D01*
X053368Y010240D01*
X053425Y010236D01*
X053238Y017313D02*
X053193Y017308D01*
X053151Y017294D01*
X053112Y017270D01*
X053080Y017239D01*
X053055Y017201D01*
X053038Y017159D01*
X053032Y017115D01*
X053031Y017106D01*
G54D12*
X070374Y000285D02*
Y000915D01*
X070177Y000285D02*
Y000915D01*
X069980Y000285D02*
Y000915D01*
X069783Y000285D02*
Y000915D01*
X069586Y000285D02*
Y000915D01*
X069390Y000285D02*
Y000915D01*
X069193Y000285D02*
Y000915D01*
X068996Y000285D02*
Y000915D01*
X068799Y000285D02*
Y000915D01*
X068602Y000285D02*
Y000915D01*
X068405Y000285D02*
Y000915D01*
X067421Y000285D02*
Y000915D01*
X067224Y000285D02*
Y000915D01*
X067027Y000285D02*
Y000915D01*
X066831Y000285D02*
Y000915D01*
X066635Y000285D02*
Y000915D01*
X066438Y000285D02*
Y000915D01*
X066241Y000285D02*
Y000915D01*
X066044Y000285D02*
Y000915D01*
X065847Y000285D02*
Y000915D01*
X065650Y000285D02*
Y000915D01*
X065454Y000285D02*
Y000915D01*
X065257Y000285D02*
Y000915D01*
X065060Y000285D02*
Y000915D01*
X064863Y000285D02*
Y000915D01*
X064666Y000285D02*
Y000915D01*
X064469Y000285D02*
Y000915D01*
X064272Y000285D02*
Y000915D01*
X064076Y000285D02*
Y000915D01*
X063879Y000285D02*
Y000915D01*
X063682Y000285D02*
Y000915D01*
X063485Y000285D02*
Y000915D01*
X063288Y000285D02*
Y000915D01*
G54D13*
X068386Y008661D03*
D03*
G54D14*
X062480Y008268D02*
Y001791D01*
X062894Y000000D02*
Y001378D01*
X067618Y001142D02*
Y000000D01*
X062894D01*
X069174Y008661D02*
X062874D01*
X068091Y001142D02*
Y000000D01*
X070728Y001378D02*
Y000000D01*
X068091D01*
X070748Y008661D02*
X069075D01*
X071142Y008268D02*
Y001791D01*
X062874Y008661D02*
X062812Y008656D01*
X062751Y008642D01*
X062694Y008618D01*
X062641Y008585D01*
X062594Y008544D01*
X062554Y008497D01*
X062522Y008443D01*
X062498Y008386D01*
X062484Y008325D01*
X062480Y008268D01*
Y001791D02*
X062485Y001747D01*
X062500Y001704D01*
X062523Y001665D01*
X062554Y001633D01*
X062592Y001608D01*
X062634Y001592D01*
X062679Y001585D01*
X062687Y001585D01*
X062894Y001378D02*
X062889Y001423D01*
X062874Y001465D01*
X062851Y001504D01*
X062820Y001536D01*
X062782Y001561D01*
X062740Y001578D01*
X062696Y001584D01*
X062687Y001585D01*
X068091Y001142D02*
X068086Y001190D01*
X068071Y001236D01*
X068048Y001278D01*
X068016Y001314D01*
X067978Y001343D01*
X067934Y001364D01*
X067887Y001376D01*
X067839Y001377D01*
X067792Y001369D01*
X067747Y001352D01*
X067706Y001326D01*
X067672Y001292D01*
X067645Y001252D01*
X067627Y001207D01*
X067619Y001160D01*
X067618Y001142D01*
X070935Y001585D02*
X070890Y001580D01*
X070848Y001565D01*
X070809Y001542D01*
X070777Y001511D01*
X070752Y001473D01*
X070735Y001431D01*
X070729Y001386D01*
X070728Y001378D01*
X071142Y008268D02*
X071137Y008330D01*
X071122Y008390D01*
X071098Y008448D01*
X071065Y008501D01*
X071025Y008548D01*
X070977Y008588D01*
X070924Y008620D01*
X070866Y008643D01*
X070805Y008657D01*
X070748Y008661D01*
X070935Y001585D02*
X070980Y001590D01*
X071023Y001604D01*
X071061Y001627D01*
X071094Y001659D01*
X071119Y001696D01*
X071135Y001738D01*
X071142Y001783D01*
X071142Y001791D01*
G54D12*
X063248Y018613D02*
Y017983D01*
X063445Y018613D02*
Y017983D01*
X063642Y018613D02*
Y017983D01*
X063839Y018613D02*
Y017983D01*
X064036Y018613D02*
Y017983D01*
X064232Y018613D02*
Y017983D01*
X064429Y018613D02*
Y017983D01*
X064626Y018613D02*
Y017983D01*
X064823Y018613D02*
Y017983D01*
X065020Y018613D02*
Y017983D01*
X065217Y018613D02*
Y017983D01*
X066201Y018613D02*
Y017983D01*
X066398Y018613D02*
Y017983D01*
X066595Y018613D02*
Y017983D01*
X066791Y018613D02*
Y017983D01*
X066987Y018613D02*
Y017983D01*
X067184Y018613D02*
Y017983D01*
X067381Y018613D02*
Y017983D01*
X067578Y018613D02*
Y017983D01*
X067775Y018613D02*
Y017983D01*
X067972Y018613D02*
Y017983D01*
X068168Y018613D02*
Y017983D01*
X068365Y018613D02*
Y017983D01*
X068562Y018613D02*
Y017983D01*
X068759Y018613D02*
Y017983D01*
X068956Y018613D02*
Y017983D01*
X069153Y018613D02*
Y017983D01*
X069350Y018613D02*
Y017983D01*
X069546Y018613D02*
Y017983D01*
X069743Y018613D02*
Y017983D01*
X069940Y018613D02*
Y017983D01*
X070137Y018613D02*
Y017983D01*
X070334Y018613D02*
Y017983D01*
G54D13*
X065236Y010236D03*
G54D13*
D03*
G54D14*
X071142Y010630D02*
Y017106D01*
X070728Y018898D02*
Y017520D01*
X066004Y017756D02*
Y018898D01*
X070728D01*
X064448Y010236D02*
X070748D01*
X065531Y017756D02*
Y018898D01*
X062894Y017520D02*
Y018898D01*
X065531D01*
X062874Y010236D02*
X064547D01*
X062480Y010630D02*
Y017106D01*
X070748Y010236D02*
X070810Y010241D01*
X070871Y010256D01*
X070928Y010280D01*
X070981Y010313D01*
X071028Y010353D01*
X071068Y010401D01*
X071100Y010454D01*
X071124Y010512D01*
X071138Y010573D01*
X071142Y010630D01*
Y017106D02*
X071137Y017151D01*
X071122Y017194D01*
X071099Y017232D01*
X071068Y017265D01*
X071030Y017290D01*
X070988Y017306D01*
X070944Y017313D01*
X070935Y017313D01*
X070728Y017520D02*
X070733Y017475D01*
X070748Y017432D01*
X070771Y017394D01*
X070802Y017361D01*
X070840Y017336D01*
X070882Y017320D01*
X070927Y017313D01*
X070935Y017313D01*
X065531Y017756D02*
X065536Y017708D01*
X065551Y017662D01*
X065575Y017620D01*
X065606Y017584D01*
X065644Y017554D01*
X065688Y017534D01*
X065735Y017522D01*
X065783Y017520D01*
X065830Y017528D01*
X065875Y017546D01*
X065916Y017572D01*
X065950Y017606D01*
X065977Y017646D01*
X065995Y017691D01*
X066003Y017738D01*
X066004Y017756D01*
X062687Y017313D02*
X062732Y017318D01*
X062774Y017332D01*
X062813Y017356D01*
X062846Y017387D01*
X062871Y017425D01*
X062887Y017467D01*
X062894Y017511D01*
X062894Y017520D01*
X062480Y010630D02*
X062485Y010568D01*
X062500Y010507D01*
X062524Y010450D01*
X062557Y010397D01*
X062597Y010350D01*
X062645Y010310D01*
X062698Y010278D01*
X062756Y010254D01*
X062817Y010240D01*
X062874Y010236D01*
X062687Y017313D02*
X062642Y017308D01*
X062600Y017294D01*
X062561Y017270D01*
X062528Y017239D01*
X062504Y017201D01*
X062487Y017159D01*
X062480Y017115D01*
X062480Y017106D01*
G54D12*
X079823Y000285D02*
Y000915D01*
X079626Y000285D02*
Y000915D01*
X079429Y000285D02*
Y000915D01*
X079232Y000285D02*
Y000915D01*
X079035Y000285D02*
Y000915D01*
X078839Y000285D02*
Y000915D01*
X078642Y000285D02*
Y000915D01*
X078445Y000285D02*
Y000915D01*
X078248Y000285D02*
Y000915D01*
X078051Y000285D02*
Y000915D01*
X077854Y000285D02*
Y000915D01*
X076870Y000285D02*
Y000915D01*
X076673Y000285D02*
Y000915D01*
X076476Y000285D02*
Y000915D01*
X076280Y000285D02*
Y000915D01*
X076084Y000285D02*
Y000915D01*
X075887Y000285D02*
Y000915D01*
X075690Y000285D02*
Y000915D01*
X075493Y000285D02*
Y000915D01*
X075296Y000285D02*
Y000915D01*
X075099Y000285D02*
Y000915D01*
X074903Y000285D02*
Y000915D01*
X074706Y000285D02*
Y000915D01*
X074509Y000285D02*
Y000915D01*
X074312Y000285D02*
Y000915D01*
X074115Y000285D02*
Y000915D01*
X073918Y000285D02*
Y000915D01*
X073721Y000285D02*
Y000915D01*
X073525Y000285D02*
Y000915D01*
X073328Y000285D02*
Y000915D01*
X073131Y000285D02*
Y000915D01*
X072934Y000285D02*
Y000915D01*
X072737Y000285D02*
Y000915D01*
G54D13*
X077835Y008661D03*
D03*
G54D14*
X071929Y008268D02*
Y001791D01*
X072343Y000000D02*
Y001378D01*
X077067Y001142D02*
Y000000D01*
X072343D01*
X078623Y008661D02*
X072323D01*
X077539Y001142D02*
Y000000D01*
X080177Y001378D02*
Y000000D01*
X077539D01*
X080197Y008661D02*
X078524D01*
X080591Y008268D02*
Y001791D01*
X072323Y008661D02*
X072261Y008656D01*
X072200Y008642D01*
X072143Y008618D01*
X072090Y008585D01*
X072043Y008544D01*
X072003Y008497D01*
X071970Y008443D01*
X071947Y008386D01*
X071933Y008325D01*
X071929Y008268D01*
Y001791D02*
X071934Y001747D01*
X071949Y001704D01*
X071972Y001665D01*
X072003Y001633D01*
X072041Y001608D01*
X072083Y001592D01*
X072127Y001585D01*
X072136Y001585D01*
X072343Y001378D02*
X072338Y001423D01*
X072323Y001465D01*
X072300Y001504D01*
X072268Y001536D01*
X072231Y001561D01*
X072189Y001578D01*
X072144Y001584D01*
X072136Y001585D01*
X077539Y001142D02*
X077534Y001190D01*
X077520Y001236D01*
X077496Y001278D01*
X077465Y001314D01*
X077426Y001343D01*
X077383Y001364D01*
X077336Y001376D01*
X077288Y001377D01*
X077240Y001369D01*
X077195Y001352D01*
X077155Y001326D01*
X077121Y001292D01*
X077094Y001252D01*
X077076Y001207D01*
X077068Y001160D01*
X077067Y001142D01*
X080384Y001585D02*
X080339Y001580D01*
X080296Y001565D01*
X080258Y001542D01*
X080225Y001511D01*
X080200Y001473D01*
X080184Y001431D01*
X080177Y001386D01*
X080177Y001378D01*
X080591Y008268D02*
X080586Y008330D01*
X080571Y008390D01*
X080547Y008448D01*
X080514Y008501D01*
X080473Y008548D01*
X080426Y008588D01*
X080373Y008620D01*
X080315Y008643D01*
X080254Y008657D01*
X080197Y008661D01*
X080384Y001585D02*
X080429Y001590D01*
X080471Y001604D01*
X080510Y001627D01*
X080542Y001659D01*
X080567Y001696D01*
X080584Y001738D01*
X080590Y001783D01*
X080591Y001791D01*
G54D12*
X072697Y018613D02*
Y017983D01*
X072894Y018613D02*
Y017983D01*
X073091Y018613D02*
Y017983D01*
X073288Y018613D02*
Y017983D01*
X073485Y018613D02*
Y017983D01*
X073681Y018613D02*
Y017983D01*
X073878Y018613D02*
Y017983D01*
X074075Y018613D02*
Y017983D01*
X074272Y018613D02*
Y017983D01*
X074469Y018613D02*
Y017983D01*
X074666Y018613D02*
Y017983D01*
X075650Y018613D02*
Y017983D01*
X075847Y018613D02*
Y017983D01*
X076044Y018613D02*
Y017983D01*
X076240Y018613D02*
Y017983D01*
X076436Y018613D02*
Y017983D01*
X076633Y018613D02*
Y017983D01*
X076830Y018613D02*
Y017983D01*
X077027Y018613D02*
Y017983D01*
X077224Y018613D02*
Y017983D01*
X077421Y018613D02*
Y017983D01*
X077617Y018613D02*
Y017983D01*
X077814Y018613D02*
Y017983D01*
X078011Y018613D02*
Y017983D01*
X078208Y018613D02*
Y017983D01*
X078405Y018613D02*
Y017983D01*
X078602Y018613D02*
Y017983D01*
X078799Y018613D02*
Y017983D01*
X078995Y018613D02*
Y017983D01*
X079192Y018613D02*
Y017983D01*
X079389Y018613D02*
Y017983D01*
X079586Y018613D02*
Y017983D01*
X079783Y018613D02*
Y017983D01*
G54D13*
X074685Y010236D03*
G54D13*
D03*
G54D14*
X080591Y010630D02*
Y017106D01*
X080177Y018898D02*
Y017520D01*
X075453Y017756D02*
Y018898D01*
X080177D01*
X073897Y010236D02*
X080197D01*
X074980Y017756D02*
Y018898D01*
X072343Y017520D02*
Y018898D01*
X074980D01*
X072323Y010236D02*
X073996D01*
X071929Y010630D02*
Y017106D01*
X080197Y010236D02*
X080259Y010241D01*
X080319Y010256D01*
X080377Y010280D01*
X080430Y010313D01*
X080477Y010353D01*
X080517Y010401D01*
X080549Y010454D01*
X080572Y010512D01*
X080586Y010573D01*
X080591Y010630D01*
Y017106D02*
X080586Y017151D01*
X080571Y017194D01*
X080548Y017232D01*
X080516Y017265D01*
X080479Y017290D01*
X080437Y017306D01*
X080392Y017313D01*
X080384Y017313D01*
X080177Y017520D02*
X080182Y017475D01*
X080197Y017432D01*
X080220Y017394D01*
X080251Y017361D01*
X080289Y017336D01*
X080331Y017320D01*
X080375Y017313D01*
X080384Y017313D01*
X074980Y017756D02*
X074985Y017708D01*
X075000Y017662D01*
X075023Y017620D01*
X075055Y017584D01*
X075093Y017554D01*
X075137Y017534D01*
X075184Y017522D01*
X075232Y017520D01*
X075279Y017528D01*
X075324Y017546D01*
X075365Y017572D01*
X075399Y017606D01*
X075426Y017646D01*
X075444Y017691D01*
X075452Y017738D01*
X075453Y017756D01*
X072136Y017313D02*
X072181Y017318D01*
X072223Y017332D01*
X072262Y017356D01*
X072294Y017387D01*
X072319Y017425D01*
X072336Y017467D01*
X072342Y017511D01*
X072343Y017520D01*
X071929Y010630D02*
X071934Y010568D01*
X071949Y010507D01*
X071973Y010450D01*
X072005Y010397D01*
X072046Y010350D01*
X072094Y010310D01*
X072147Y010278D01*
X072205Y010254D01*
X072266Y010240D01*
X072323Y010236D01*
X072136Y017313D02*
X072091Y017308D01*
X072048Y017294D01*
X072010Y017270D01*
X071977Y017239D01*
X071952Y017201D01*
X071936Y017159D01*
X071929Y017115D01*
X071929Y017106D01*
G54D12*
X089271Y000285D02*
Y000915D01*
X089074Y000285D02*
Y000915D01*
X088877Y000285D02*
Y000915D01*
X088680Y000285D02*
Y000915D01*
X088483Y000285D02*
Y000915D01*
X088287Y000285D02*
Y000915D01*
X088090Y000285D02*
Y000915D01*
X087893Y000285D02*
Y000915D01*
X087696Y000285D02*
Y000915D01*
X087499Y000285D02*
Y000915D01*
X087302Y000285D02*
Y000915D01*
X086318Y000285D02*
Y000915D01*
X086121Y000285D02*
Y000915D01*
X085924Y000285D02*
Y000915D01*
X085728Y000285D02*
Y000915D01*
X085532Y000285D02*
Y000915D01*
X085335Y000285D02*
Y000915D01*
X085138Y000285D02*
Y000915D01*
X084941Y000285D02*
Y000915D01*
X084744Y000285D02*
Y000915D01*
X084547Y000285D02*
Y000915D01*
X084351Y000285D02*
Y000915D01*
X084154Y000285D02*
Y000915D01*
X083957Y000285D02*
Y000915D01*
X083760Y000285D02*
Y000915D01*
X083563Y000285D02*
Y000915D01*
X083366Y000285D02*
Y000915D01*
X083169Y000285D02*
Y000915D01*
X082973Y000285D02*
Y000915D01*
X082776Y000285D02*
Y000915D01*
X082579Y000285D02*
Y000915D01*
X082382Y000285D02*
Y000915D01*
X082185Y000285D02*
Y000915D01*
G54D13*
X087283Y008661D03*
D03*
G54D14*
X081378Y008268D02*
Y001791D01*
X081791Y000000D02*
Y001378D01*
X086516Y001142D02*
Y000000D01*
X081791D01*
X088071Y008661D02*
X081772D01*
X086988Y001142D02*
Y000000D01*
X089626Y001378D02*
Y000000D01*
X086988D01*
X089646Y008661D02*
X087972D01*
X090039Y008268D02*
Y001791D01*
X081772Y008661D02*
X081710Y008656D01*
X081649Y008642D01*
X081592Y008618D01*
X081539Y008585D01*
X081492Y008544D01*
X081451Y008497D01*
X081419Y008443D01*
X081396Y008386D01*
X081382Y008325D01*
X081378Y008268D01*
Y001791D02*
X081383Y001747D01*
X081397Y001704D01*
X081421Y001665D01*
X081452Y001633D01*
X081490Y001608D01*
X081532Y001592D01*
X081576Y001585D01*
X081585Y001585D01*
X081791Y001378D02*
X081786Y001423D01*
X081772Y001465D01*
X081748Y001504D01*
X081717Y001536D01*
X081680Y001561D01*
X081638Y001578D01*
X081593Y001584D01*
X081585Y001585D01*
X086988Y001142D02*
X086983Y001190D01*
X086969Y001236D01*
X086945Y001278D01*
X086914Y001314D01*
X086875Y001343D01*
X086832Y001364D01*
X086785Y001376D01*
X086737Y001377D01*
X086689Y001369D01*
X086644Y001352D01*
X086604Y001326D01*
X086570Y001292D01*
X086543Y001252D01*
X086525Y001207D01*
X086516Y001160D01*
X086516Y001142D01*
X089833Y001585D02*
X089788Y001580D01*
X089745Y001565D01*
X089707Y001542D01*
X089674Y001511D01*
X089649Y001473D01*
X089633Y001431D01*
X089626Y001386D01*
X089626Y001378D01*
X090039Y008268D02*
X090034Y008330D01*
X090020Y008390D01*
X089996Y008448D01*
X089963Y008501D01*
X089922Y008548D01*
X089875Y008588D01*
X089821Y008620D01*
X089764Y008643D01*
X089703Y008657D01*
X089646Y008661D01*
X089833Y001585D02*
X089877Y001590D01*
X089920Y001604D01*
X089959Y001627D01*
X089991Y001659D01*
X090016Y001696D01*
X090032Y001738D01*
X090039Y001783D01*
X090039Y001791D01*
G54D12*
X082146Y018613D02*
Y017983D01*
X082343Y018613D02*
Y017983D01*
X082540Y018613D02*
Y017983D01*
X082737Y018613D02*
Y017983D01*
X082934Y018613D02*
Y017983D01*
X083130Y018613D02*
Y017983D01*
X083327Y018613D02*
Y017983D01*
X083524Y018613D02*
Y017983D01*
X083721Y018613D02*
Y017983D01*
X083918Y018613D02*
Y017983D01*
X084115Y018613D02*
Y017983D01*
X085099Y018613D02*
Y017983D01*
X085296Y018613D02*
Y017983D01*
X085493Y018613D02*
Y017983D01*
X085689Y018613D02*
Y017983D01*
X085885Y018613D02*
Y017983D01*
X086082Y018613D02*
Y017983D01*
X086279Y018613D02*
Y017983D01*
X086476Y018613D02*
Y017983D01*
X086673Y018613D02*
Y017983D01*
X086870Y018613D02*
Y017983D01*
X087066Y018613D02*
Y017983D01*
X087263Y018613D02*
Y017983D01*
X087460Y018613D02*
Y017983D01*
X087657Y018613D02*
Y017983D01*
X087854Y018613D02*
Y017983D01*
X088051Y018613D02*
Y017983D01*
X088248Y018613D02*
Y017983D01*
X088444Y018613D02*
Y017983D01*
X088641Y018613D02*
Y017983D01*
X088838Y018613D02*
Y017983D01*
X089035Y018613D02*
Y017983D01*
X089232Y018613D02*
Y017983D01*
G54D13*
X084134Y010236D03*
G54D13*
D03*
G54D14*
X090039Y010630D02*
Y017106D01*
X089626Y018898D02*
Y017520D01*
X084902Y017756D02*
Y018898D01*
X089626D01*
X083346Y010236D02*
X089646D01*
X084429Y017756D02*
Y018898D01*
X081791Y017520D02*
Y018898D01*
X084429D01*
X081772Y010236D02*
X083445D01*
X081378Y010630D02*
Y017106D01*
X089646Y010236D02*
X089708Y010241D01*
X089768Y010256D01*
X089826Y010280D01*
X089879Y010313D01*
X089926Y010353D01*
X089966Y010401D01*
X089998Y010454D01*
X090021Y010512D01*
X090035Y010573D01*
X090039Y010630D01*
Y017106D02*
X090034Y017151D01*
X090020Y017194D01*
X089997Y017232D01*
X089965Y017265D01*
X089928Y017290D01*
X089886Y017306D01*
X089841Y017313D01*
X089833Y017313D01*
X089626Y017520D02*
X089631Y017475D01*
X089645Y017432D01*
X089669Y017394D01*
X089700Y017361D01*
X089738Y017336D01*
X089780Y017320D01*
X089824Y017313D01*
X089833Y017313D01*
X084429Y017756D02*
X084434Y017708D01*
X084449Y017662D01*
X084472Y017620D01*
X084504Y017584D01*
X084542Y017554D01*
X084586Y017534D01*
X084632Y017522D01*
X084681Y017520D01*
X084728Y017528D01*
X084773Y017546D01*
X084813Y017572D01*
X084848Y017606D01*
X084874Y017646D01*
X084892Y017691D01*
X084901Y017738D01*
X084902Y017756D01*
X081585Y017313D02*
X081629Y017318D01*
X081672Y017332D01*
X081711Y017356D01*
X081743Y017387D01*
X081768Y017425D01*
X081784Y017467D01*
X081791Y017511D01*
X081791Y017520D01*
X081378Y010630D02*
X081383Y010568D01*
X081398Y010507D01*
X081422Y010450D01*
X081454Y010397D01*
X081495Y010350D01*
X081543Y010310D01*
X081596Y010278D01*
X081654Y010254D01*
X081714Y010240D01*
X081772Y010236D01*
X081585Y017313D02*
X081540Y017308D01*
X081497Y017294D01*
X081459Y017270D01*
X081426Y017239D01*
X081401Y017201D01*
X081385Y017159D01*
X081378Y017115D01*
X081378Y017106D01*
G54D12*
X098720Y000285D02*
Y000915D01*
X098523Y000285D02*
Y000915D01*
X098326Y000285D02*
Y000915D01*
X098129Y000285D02*
Y000915D01*
X097932Y000285D02*
Y000915D01*
X097736Y000285D02*
Y000915D01*
X097539Y000285D02*
Y000915D01*
X097342Y000285D02*
Y000915D01*
X097145Y000285D02*
Y000915D01*
X096948Y000285D02*
Y000915D01*
X096751Y000285D02*
Y000915D01*
X095767Y000285D02*
Y000915D01*
X095570Y000285D02*
Y000915D01*
X095373Y000285D02*
Y000915D01*
X095177Y000285D02*
Y000915D01*
X094981Y000285D02*
Y000915D01*
X094784Y000285D02*
Y000915D01*
X094587Y000285D02*
Y000915D01*
X094390Y000285D02*
Y000915D01*
X094193Y000285D02*
Y000915D01*
X093996Y000285D02*
Y000915D01*
X093800Y000285D02*
Y000915D01*
X093603Y000285D02*
Y000915D01*
X093406Y000285D02*
Y000915D01*
X093209Y000285D02*
Y000915D01*
X093012Y000285D02*
Y000915D01*
X092815Y000285D02*
Y000915D01*
X092618Y000285D02*
Y000915D01*
X092422Y000285D02*
Y000915D01*
X092225Y000285D02*
Y000915D01*
X092028Y000285D02*
Y000915D01*
X091831Y000285D02*
Y000915D01*
X091634Y000285D02*
Y000915D01*
G54D13*
X096732Y008661D03*
D03*
G54D14*
X090827Y008268D02*
Y001791D01*
X091240Y000000D02*
Y001378D01*
X095965Y001142D02*
Y000000D01*
X091240D01*
X097520Y008661D02*
X091220D01*
X096437Y001142D02*
Y000000D01*
X099075Y001378D02*
Y000000D01*
X096437D01*
X099094Y008661D02*
X097421D01*
X099488Y008268D02*
Y001791D01*
X091220Y008661D02*
X091158Y008656D01*
X091098Y008642D01*
X091040Y008618D01*
X090987Y008585D01*
X090940Y008544D01*
X090900Y008497D01*
X090868Y008443D01*
X090845Y008386D01*
X090831Y008325D01*
X090827Y008268D01*
Y001791D02*
X090832Y001747D01*
X090846Y001704D01*
X090870Y001665D01*
X090901Y001633D01*
X090938Y001608D01*
X090980Y001592D01*
X091025Y001585D01*
X091033Y001585D01*
X091240Y001378D02*
X091235Y001423D01*
X091221Y001465D01*
X091197Y001504D01*
X091166Y001536D01*
X091129Y001561D01*
X091087Y001578D01*
X091042Y001584D01*
X091033Y001585D01*
X096437Y001142D02*
X096432Y001190D01*
X096418Y001236D01*
X096394Y001278D01*
X096362Y001314D01*
X096324Y001343D01*
X096281Y001364D01*
X096234Y001376D01*
X096186Y001377D01*
X096138Y001369D01*
X096093Y001352D01*
X096053Y001326D01*
X096018Y001292D01*
X095992Y001252D01*
X095974Y001207D01*
X095965Y001160D01*
X095965Y001142D01*
X099281Y001585D02*
X099237Y001580D01*
X099194Y001565D01*
X099155Y001542D01*
X099123Y001511D01*
X099098Y001473D01*
X099082Y001431D01*
X099075Y001386D01*
X099075Y001378D01*
X099488Y008268D02*
X099483Y008330D01*
X099469Y008390D01*
X099445Y008448D01*
X099412Y008501D01*
X099371Y008548D01*
X099324Y008588D01*
X099270Y008620D01*
X099212Y008643D01*
X099152Y008657D01*
X099094Y008661D01*
X099281Y001585D02*
X099326Y001590D01*
X099369Y001604D01*
X099407Y001627D01*
X099440Y001659D01*
X099465Y001696D01*
X099481Y001738D01*
X099488Y001783D01*
X099488Y001791D01*
G54D12*
X091595Y018613D02*
Y017983D01*
X091792Y018613D02*
Y017983D01*
X091989Y018613D02*
Y017983D01*
X092186Y018613D02*
Y017983D01*
X092383Y018613D02*
Y017983D01*
X092579Y018613D02*
Y017983D01*
X092776Y018613D02*
Y017983D01*
X092973Y018613D02*
Y017983D01*
X093170Y018613D02*
Y017983D01*
X093367Y018613D02*
Y017983D01*
X093564Y018613D02*
Y017983D01*
X094548Y018613D02*
Y017983D01*
X094745Y018613D02*
Y017983D01*
X094942Y018613D02*
Y017983D01*
X095138Y018613D02*
Y017983D01*
X095334Y018613D02*
Y017983D01*
X095531Y018613D02*
Y017983D01*
X095728Y018613D02*
Y017983D01*
X095925Y018613D02*
Y017983D01*
X096122Y018613D02*
Y017983D01*
X096319Y018613D02*
Y017983D01*
X096515Y018613D02*
Y017983D01*
X096712Y018613D02*
Y017983D01*
X096909Y018613D02*
Y017983D01*
X097106Y018613D02*
Y017983D01*
X097303Y018613D02*
Y017983D01*
X097500Y018613D02*
Y017983D01*
X097697Y018613D02*
Y017983D01*
X097893Y018613D02*
Y017983D01*
X098090Y018613D02*
Y017983D01*
X098287Y018613D02*
Y017983D01*
X098484Y018613D02*
Y017983D01*
X098681Y018613D02*
Y017983D01*
G54D13*
X093583Y010236D03*
G54D13*
D03*
G54D14*
X099488Y010630D02*
Y017106D01*
X099075Y018898D02*
Y017520D01*
X094350Y017756D02*
Y018898D01*
X099075D01*
X092795Y010236D02*
X099094D01*
X093878Y017756D02*
Y018898D01*
X091240Y017520D02*
Y018898D01*
X093878D01*
X091220Y010236D02*
X092894D01*
X090827Y010630D02*
Y017106D01*
X099094Y010236D02*
X099157Y010241D01*
X099217Y010256D01*
X099275Y010280D01*
X099327Y010313D01*
X099375Y010353D01*
X099415Y010401D01*
X099447Y010454D01*
X099470Y010512D01*
X099484Y010573D01*
X099488Y010630D01*
Y017106D02*
X099483Y017151D01*
X099469Y017194D01*
X099445Y017232D01*
X099414Y017265D01*
X099377Y017290D01*
X099335Y017306D01*
X099290Y017313D01*
X099281Y017313D01*
X099075Y017520D02*
X099080Y017475D01*
X099094Y017432D01*
X099118Y017394D01*
X099149Y017361D01*
X099186Y017336D01*
X099228Y017320D01*
X099273Y017313D01*
X099281Y017313D01*
X093878Y017756D02*
X093883Y017708D01*
X093897Y017662D01*
X093921Y017620D01*
X093953Y017584D01*
X093991Y017554D01*
X094034Y017534D01*
X094081Y017522D01*
X094129Y017520D01*
X094177Y017528D01*
X094222Y017546D01*
X094262Y017572D01*
X094297Y017606D01*
X094323Y017646D01*
X094341Y017691D01*
X094350Y017738D01*
X094350Y017756D01*
X091033Y017313D02*
X091078Y017318D01*
X091121Y017332D01*
X091159Y017356D01*
X091192Y017387D01*
X091217Y017425D01*
X091233Y017467D01*
X091240Y017511D01*
X091240Y017520D01*
X090827Y010630D02*
X090832Y010568D01*
X090846Y010507D01*
X090870Y010450D01*
X090903Y010397D01*
X090944Y010350D01*
X090991Y010310D01*
X091045Y010278D01*
X091103Y010254D01*
X091163Y010240D01*
X091220Y010236D01*
X091033Y017313D02*
X090989Y017308D01*
X090946Y017294D01*
X090907Y017270D01*
X090875Y017239D01*
X090850Y017201D01*
X090834Y017159D01*
X090827Y017115D01*
X090827Y017106D01*
M02*
