*
%FSLAX24Y24*%
%MOIN*%
%ADD10R,0.013780X0.013780*%
%ADD11C,0.079921*%
%ADD12C,0.040551*%
%IPPOS*%
%LNm386940-gbp.GBR*%
%LPD*%
G54D10*
X013681Y000285D02*
Y000915D01*
X013484Y000285D02*
Y000915D01*
X013287Y000285D02*
Y000915D01*
X013090Y000285D02*
Y000915D01*
X012893Y000285D02*
Y000915D01*
X012697Y000285D02*
Y000915D01*
X012500Y000285D02*
Y000915D01*
X012303Y000285D02*
Y000915D01*
X012106Y000285D02*
Y000915D01*
X011909Y000285D02*
Y000915D01*
X011712Y000285D02*
Y000915D01*
X010728Y000285D02*
Y000915D01*
X010531Y000285D02*
Y000915D01*
X010334Y000285D02*
Y000915D01*
X010138Y000285D02*
Y000915D01*
X009942Y000285D02*
Y000915D01*
X009745Y000285D02*
Y000915D01*
X009548Y000285D02*
Y000915D01*
X009351Y000285D02*
Y000915D01*
X009154Y000285D02*
Y000915D01*
X008957Y000285D02*
Y000915D01*
X008761Y000285D02*
Y000915D01*
X008564Y000285D02*
Y000915D01*
X008367Y000285D02*
Y000915D01*
X008170Y000285D02*
Y000915D01*
X007973Y000285D02*
Y000915D01*
X007776Y000285D02*
Y000915D01*
X007579Y000285D02*
Y000915D01*
X007383Y000285D02*
Y000915D01*
X007186Y000285D02*
Y000915D01*
X006989Y000285D02*
Y000915D01*
X006792Y000285D02*
Y000915D01*
X006595Y000285D02*
Y000915D01*
X006555Y018613D02*
Y017983D01*
X006752Y018613D02*
Y017983D01*
X006949Y018613D02*
Y017983D01*
X007146Y018613D02*
Y017983D01*
X007343Y018613D02*
Y017983D01*
X007539Y018613D02*
Y017983D01*
X007736Y018613D02*
Y017983D01*
X007933Y018613D02*
Y017983D01*
X008130Y018613D02*
Y017983D01*
X008327Y018613D02*
Y017983D01*
X008524Y018613D02*
Y017983D01*
X009508Y018613D02*
Y017983D01*
X009705Y018613D02*
Y017983D01*
X009902Y018613D02*
Y017983D01*
X010098Y018613D02*
Y017983D01*
X010294Y018613D02*
Y017983D01*
X010491Y018613D02*
Y017983D01*
X010688Y018613D02*
Y017983D01*
X010885Y018613D02*
Y017983D01*
X011082Y018613D02*
Y017983D01*
X011279Y018613D02*
Y017983D01*
X011475Y018613D02*
Y017983D01*
X011672Y018613D02*
Y017983D01*
X011869Y018613D02*
Y017983D01*
X012066Y018613D02*
Y017983D01*
X012263Y018613D02*
Y017983D01*
X012460Y018613D02*
Y017983D01*
X012657Y018613D02*
Y017983D01*
X012853Y018613D02*
Y017983D01*
X013050Y018613D02*
Y017983D01*
X013247Y018613D02*
Y017983D01*
X013444Y018613D02*
Y017983D01*
X013641Y018613D02*
Y017983D01*
X023130Y000285D02*
Y000915D01*
X022933Y000285D02*
Y000915D01*
X022736Y000285D02*
Y000915D01*
X022539Y000285D02*
Y000915D01*
X022342Y000285D02*
Y000915D01*
X022146Y000285D02*
Y000915D01*
X021949Y000285D02*
Y000915D01*
X021752Y000285D02*
Y000915D01*
X021555Y000285D02*
Y000915D01*
X021358Y000285D02*
Y000915D01*
X021161Y000285D02*
Y000915D01*
X020177Y000285D02*
Y000915D01*
X019980Y000285D02*
Y000915D01*
X019783Y000285D02*
Y000915D01*
X019587Y000285D02*
Y000915D01*
X019391Y000285D02*
Y000915D01*
X019194Y000285D02*
Y000915D01*
X018997Y000285D02*
Y000915D01*
X018800Y000285D02*
Y000915D01*
X018603Y000285D02*
Y000915D01*
X018406Y000285D02*
Y000915D01*
X018210Y000285D02*
Y000915D01*
X018013Y000285D02*
Y000915D01*
X017816Y000285D02*
Y000915D01*
X017619Y000285D02*
Y000915D01*
X017422Y000285D02*
Y000915D01*
X017225Y000285D02*
Y000915D01*
X017028Y000285D02*
Y000915D01*
X016832Y000285D02*
Y000915D01*
X016635Y000285D02*
Y000915D01*
X016438Y000285D02*
Y000915D01*
X016241Y000285D02*
Y000915D01*
X016044Y000285D02*
Y000915D01*
X016004Y018613D02*
Y017983D01*
X016201Y018613D02*
Y017983D01*
X016398Y018613D02*
Y017983D01*
X016595Y018613D02*
Y017983D01*
X016792Y018613D02*
Y017983D01*
X016988Y018613D02*
Y017983D01*
X017185Y018613D02*
Y017983D01*
X017382Y018613D02*
Y017983D01*
X017579Y018613D02*
Y017983D01*
X017776Y018613D02*
Y017983D01*
X017973Y018613D02*
Y017983D01*
X018957Y018613D02*
Y017983D01*
X019154Y018613D02*
Y017983D01*
X019351Y018613D02*
Y017983D01*
X019547Y018613D02*
Y017983D01*
X019743Y018613D02*
Y017983D01*
X019940Y018613D02*
Y017983D01*
X020137Y018613D02*
Y017983D01*
X020334Y018613D02*
Y017983D01*
X020531Y018613D02*
Y017983D01*
X020728Y018613D02*
Y017983D01*
X020924Y018613D02*
Y017983D01*
X021121Y018613D02*
Y017983D01*
X021318Y018613D02*
Y017983D01*
X021515Y018613D02*
Y017983D01*
X021712Y018613D02*
Y017983D01*
X021909Y018613D02*
Y017983D01*
X022106Y018613D02*
Y017983D01*
X022302Y018613D02*
Y017983D01*
X022499Y018613D02*
Y017983D01*
X022696Y018613D02*
Y017983D01*
X022893Y018613D02*
Y017983D01*
X023090Y018613D02*
Y017983D01*
X032578Y000285D02*
Y000915D01*
X032381Y000285D02*
Y000915D01*
X032184Y000285D02*
Y000915D01*
X031987Y000285D02*
Y000915D01*
X031790Y000285D02*
Y000915D01*
X031594Y000285D02*
Y000915D01*
X031397Y000285D02*
Y000915D01*
X031200Y000285D02*
Y000915D01*
X031003Y000285D02*
Y000915D01*
X030806Y000285D02*
Y000915D01*
X030609Y000285D02*
Y000915D01*
X029625Y000285D02*
Y000915D01*
X029428Y000285D02*
Y000915D01*
X029231Y000285D02*
Y000915D01*
X029035Y000285D02*
Y000915D01*
X028839Y000285D02*
Y000915D01*
X028642Y000285D02*
Y000915D01*
X028445Y000285D02*
Y000915D01*
X028248Y000285D02*
Y000915D01*
X028051Y000285D02*
Y000915D01*
X027854Y000285D02*
Y000915D01*
X027658Y000285D02*
Y000915D01*
X027461Y000285D02*
Y000915D01*
X027264Y000285D02*
Y000915D01*
X027067Y000285D02*
Y000915D01*
X026870Y000285D02*
Y000915D01*
X026673Y000285D02*
Y000915D01*
X026476Y000285D02*
Y000915D01*
X026280Y000285D02*
Y000915D01*
X026083Y000285D02*
Y000915D01*
X025886Y000285D02*
Y000915D01*
X025689Y000285D02*
Y000915D01*
X025492Y000285D02*
Y000915D01*
X025453Y018613D02*
Y017983D01*
X025650Y018613D02*
Y017983D01*
X025847Y018613D02*
Y017983D01*
X026044Y018613D02*
Y017983D01*
X026241Y018613D02*
Y017983D01*
X026437Y018613D02*
Y017983D01*
X026634Y018613D02*
Y017983D01*
X026831Y018613D02*
Y017983D01*
X027028Y018613D02*
Y017983D01*
X027225Y018613D02*
Y017983D01*
X027422Y018613D02*
Y017983D01*
X028406Y018613D02*
Y017983D01*
X028603Y018613D02*
Y017983D01*
X028800Y018613D02*
Y017983D01*
X028996Y018613D02*
Y017983D01*
X029192Y018613D02*
Y017983D01*
X029389Y018613D02*
Y017983D01*
X029586Y018613D02*
Y017983D01*
X029783Y018613D02*
Y017983D01*
X029980Y018613D02*
Y017983D01*
X030177Y018613D02*
Y017983D01*
X030373Y018613D02*
Y017983D01*
X030570Y018613D02*
Y017983D01*
X030767Y018613D02*
Y017983D01*
X030964Y018613D02*
Y017983D01*
X031161Y018613D02*
Y017983D01*
X031358Y018613D02*
Y017983D01*
X031555Y018613D02*
Y017983D01*
X031751Y018613D02*
Y017983D01*
X031948Y018613D02*
Y017983D01*
X032145Y018613D02*
Y017983D01*
X032342Y018613D02*
Y017983D01*
X032539Y018613D02*
Y017983D01*
X042027Y000285D02*
Y000915D01*
X041830Y000285D02*
Y000915D01*
X041633Y000285D02*
Y000915D01*
X041436Y000285D02*
Y000915D01*
X041239Y000285D02*
Y000915D01*
X041043Y000285D02*
Y000915D01*
X040846Y000285D02*
Y000915D01*
X040649Y000285D02*
Y000915D01*
X040452Y000285D02*
Y000915D01*
X040255Y000285D02*
Y000915D01*
X040058Y000285D02*
Y000915D01*
X039074Y000285D02*
Y000915D01*
X038877Y000285D02*
Y000915D01*
X038680Y000285D02*
Y000915D01*
X038484Y000285D02*
Y000915D01*
X038288Y000285D02*
Y000915D01*
X038091Y000285D02*
Y000915D01*
X037894Y000285D02*
Y000915D01*
X037697Y000285D02*
Y000915D01*
X037500Y000285D02*
Y000915D01*
X037303Y000285D02*
Y000915D01*
X037107Y000285D02*
Y000915D01*
X036910Y000285D02*
Y000915D01*
X036713Y000285D02*
Y000915D01*
X036516Y000285D02*
Y000915D01*
X036319Y000285D02*
Y000915D01*
X036122Y000285D02*
Y000915D01*
X035925Y000285D02*
Y000915D01*
X035729Y000285D02*
Y000915D01*
X035532Y000285D02*
Y000915D01*
X035335Y000285D02*
Y000915D01*
X035138Y000285D02*
Y000915D01*
X034941Y000285D02*
Y000915D01*
X034902Y018613D02*
Y017983D01*
X035099Y018613D02*
Y017983D01*
X035296Y018613D02*
Y017983D01*
X035493Y018613D02*
Y017983D01*
X035690Y018613D02*
Y017983D01*
X035886Y018613D02*
Y017983D01*
X036083Y018613D02*
Y017983D01*
X036280Y018613D02*
Y017983D01*
X036477Y018613D02*
Y017983D01*
X036674Y018613D02*
Y017983D01*
X036871Y018613D02*
Y017983D01*
X037855Y018613D02*
Y017983D01*
X038052Y018613D02*
Y017983D01*
X038249Y018613D02*
Y017983D01*
X038445Y018613D02*
Y017983D01*
X038641Y018613D02*
Y017983D01*
X038838Y018613D02*
Y017983D01*
X039035Y018613D02*
Y017983D01*
X039232Y018613D02*
Y017983D01*
X039429Y018613D02*
Y017983D01*
X039626Y018613D02*
Y017983D01*
X039822Y018613D02*
Y017983D01*
X040019Y018613D02*
Y017983D01*
X040216Y018613D02*
Y017983D01*
X040413Y018613D02*
Y017983D01*
X040610Y018613D02*
Y017983D01*
X040807Y018613D02*
Y017983D01*
X041004Y018613D02*
Y017983D01*
X041200Y018613D02*
Y017983D01*
X041397Y018613D02*
Y017983D01*
X041594Y018613D02*
Y017983D01*
X041791Y018613D02*
Y017983D01*
X041988Y018613D02*
Y017983D01*
X051476Y000285D02*
Y000915D01*
X051279Y000285D02*
Y000915D01*
X051082Y000285D02*
Y000915D01*
X050885Y000285D02*
Y000915D01*
X050688Y000285D02*
Y000915D01*
X050492Y000285D02*
Y000915D01*
X050295Y000285D02*
Y000915D01*
X050098Y000285D02*
Y000915D01*
X049901Y000285D02*
Y000915D01*
X049704Y000285D02*
Y000915D01*
X049507Y000285D02*
Y000915D01*
X048523Y000285D02*
Y000915D01*
X048326Y000285D02*
Y000915D01*
X048129Y000285D02*
Y000915D01*
X047933Y000285D02*
Y000915D01*
X047737Y000285D02*
Y000915D01*
X047540Y000285D02*
Y000915D01*
X047343Y000285D02*
Y000915D01*
X047146Y000285D02*
Y000915D01*
X046949Y000285D02*
Y000915D01*
X046752Y000285D02*
Y000915D01*
X046556Y000285D02*
Y000915D01*
X046359Y000285D02*
Y000915D01*
X046162Y000285D02*
Y000915D01*
X045965Y000285D02*
Y000915D01*
X045768Y000285D02*
Y000915D01*
X045571Y000285D02*
Y000915D01*
X045374Y000285D02*
Y000915D01*
X045178Y000285D02*
Y000915D01*
X044981Y000285D02*
Y000915D01*
X044784Y000285D02*
Y000915D01*
X044587Y000285D02*
Y000915D01*
X044390Y000285D02*
Y000915D01*
X044351Y018613D02*
Y017983D01*
X044548Y018613D02*
Y017983D01*
X044745Y018613D02*
Y017983D01*
X044942Y018613D02*
Y017983D01*
X045139Y018613D02*
Y017983D01*
X045335Y018613D02*
Y017983D01*
X045532Y018613D02*
Y017983D01*
X045729Y018613D02*
Y017983D01*
X045926Y018613D02*
Y017983D01*
X046123Y018613D02*
Y017983D01*
X046320Y018613D02*
Y017983D01*
X047304Y018613D02*
Y017983D01*
X047501Y018613D02*
Y017983D01*
X047698Y018613D02*
Y017983D01*
X047894Y018613D02*
Y017983D01*
X048090Y018613D02*
Y017983D01*
X048287Y018613D02*
Y017983D01*
X048484Y018613D02*
Y017983D01*
X048681Y018613D02*
Y017983D01*
X048878Y018613D02*
Y017983D01*
X049075Y018613D02*
Y017983D01*
X049271Y018613D02*
Y017983D01*
X049468Y018613D02*
Y017983D01*
X049665Y018613D02*
Y017983D01*
X049862Y018613D02*
Y017983D01*
X050059Y018613D02*
Y017983D01*
X050256Y018613D02*
Y017983D01*
X050453Y018613D02*
Y017983D01*
X050649Y018613D02*
Y017983D01*
X050846Y018613D02*
Y017983D01*
X051043Y018613D02*
Y017983D01*
X051240Y018613D02*
Y017983D01*
X051437Y018613D02*
Y017983D01*
X060925Y000285D02*
Y000915D01*
X060728Y000285D02*
Y000915D01*
X060531Y000285D02*
Y000915D01*
X060334Y000285D02*
Y000915D01*
X060137Y000285D02*
Y000915D01*
X059941Y000285D02*
Y000915D01*
X059744Y000285D02*
Y000915D01*
X059547Y000285D02*
Y000915D01*
X059350Y000285D02*
Y000915D01*
X059153Y000285D02*
Y000915D01*
X058956Y000285D02*
Y000915D01*
X057972Y000285D02*
Y000915D01*
X057775Y000285D02*
Y000915D01*
X057578Y000285D02*
Y000915D01*
X057382Y000285D02*
Y000915D01*
X057186Y000285D02*
Y000915D01*
X056989Y000285D02*
Y000915D01*
X056792Y000285D02*
Y000915D01*
X056595Y000285D02*
Y000915D01*
X056398Y000285D02*
Y000915D01*
X056201Y000285D02*
Y000915D01*
X056005Y000285D02*
Y000915D01*
X055808Y000285D02*
Y000915D01*
X055611Y000285D02*
Y000915D01*
X055414Y000285D02*
Y000915D01*
X055217Y000285D02*
Y000915D01*
X055020Y000285D02*
Y000915D01*
X054823Y000285D02*
Y000915D01*
X054627Y000285D02*
Y000915D01*
X054430Y000285D02*
Y000915D01*
X054233Y000285D02*
Y000915D01*
X054036Y000285D02*
Y000915D01*
X053839Y000285D02*
Y000915D01*
X053800Y018613D02*
Y017983D01*
X053997Y018613D02*
Y017983D01*
X054194Y018613D02*
Y017983D01*
X054391Y018613D02*
Y017983D01*
X054588Y018613D02*
Y017983D01*
X054784Y018613D02*
Y017983D01*
X054981Y018613D02*
Y017983D01*
X055178Y018613D02*
Y017983D01*
X055375Y018613D02*
Y017983D01*
X055572Y018613D02*
Y017983D01*
X055769Y018613D02*
Y017983D01*
X056753Y018613D02*
Y017983D01*
X056950Y018613D02*
Y017983D01*
X057147Y018613D02*
Y017983D01*
X057343Y018613D02*
Y017983D01*
X057539Y018613D02*
Y017983D01*
X057736Y018613D02*
Y017983D01*
X057933Y018613D02*
Y017983D01*
X058130Y018613D02*
Y017983D01*
X058327Y018613D02*
Y017983D01*
X058524Y018613D02*
Y017983D01*
X058720Y018613D02*
Y017983D01*
X058917Y018613D02*
Y017983D01*
X059114Y018613D02*
Y017983D01*
X059311Y018613D02*
Y017983D01*
X059508Y018613D02*
Y017983D01*
X059705Y018613D02*
Y017983D01*
X059902Y018613D02*
Y017983D01*
X060098Y018613D02*
Y017983D01*
X060295Y018613D02*
Y017983D01*
X060492Y018613D02*
Y017983D01*
X060689Y018613D02*
Y017983D01*
X060886Y018613D02*
Y017983D01*
X070374Y000285D02*
Y000915D01*
X070177Y000285D02*
Y000915D01*
X069980Y000285D02*
Y000915D01*
X069783Y000285D02*
Y000915D01*
X069586Y000285D02*
Y000915D01*
X069390Y000285D02*
Y000915D01*
X069193Y000285D02*
Y000915D01*
X068996Y000285D02*
Y000915D01*
X068799Y000285D02*
Y000915D01*
X068602Y000285D02*
Y000915D01*
X068405Y000285D02*
Y000915D01*
X067421Y000285D02*
Y000915D01*
X067224Y000285D02*
Y000915D01*
X067027Y000285D02*
Y000915D01*
X066831Y000285D02*
Y000915D01*
X066635Y000285D02*
Y000915D01*
X066438Y000285D02*
Y000915D01*
X066241Y000285D02*
Y000915D01*
X066044Y000285D02*
Y000915D01*
X065847Y000285D02*
Y000915D01*
X065650Y000285D02*
Y000915D01*
X065454Y000285D02*
Y000915D01*
X065257Y000285D02*
Y000915D01*
X065060Y000285D02*
Y000915D01*
X064863Y000285D02*
Y000915D01*
X064666Y000285D02*
Y000915D01*
X064469Y000285D02*
Y000915D01*
X064272Y000285D02*
Y000915D01*
X064076Y000285D02*
Y000915D01*
X063879Y000285D02*
Y000915D01*
X063682Y000285D02*
Y000915D01*
X063485Y000285D02*
Y000915D01*
X063288Y000285D02*
Y000915D01*
X063248Y018613D02*
Y017983D01*
X063445Y018613D02*
Y017983D01*
X063642Y018613D02*
Y017983D01*
X063839Y018613D02*
Y017983D01*
X064036Y018613D02*
Y017983D01*
X064232Y018613D02*
Y017983D01*
X064429Y018613D02*
Y017983D01*
X064626Y018613D02*
Y017983D01*
X064823Y018613D02*
Y017983D01*
X065020Y018613D02*
Y017983D01*
X065217Y018613D02*
Y017983D01*
X066201Y018613D02*
Y017983D01*
X066398Y018613D02*
Y017983D01*
X066595Y018613D02*
Y017983D01*
X066791Y018613D02*
Y017983D01*
X066987Y018613D02*
Y017983D01*
X067184Y018613D02*
Y017983D01*
X067381Y018613D02*
Y017983D01*
X067578Y018613D02*
Y017983D01*
X067775Y018613D02*
Y017983D01*
X067972Y018613D02*
Y017983D01*
X068168Y018613D02*
Y017983D01*
X068365Y018613D02*
Y017983D01*
X068562Y018613D02*
Y017983D01*
X068759Y018613D02*
Y017983D01*
X068956Y018613D02*
Y017983D01*
X069153Y018613D02*
Y017983D01*
X069350Y018613D02*
Y017983D01*
X069546Y018613D02*
Y017983D01*
X069743Y018613D02*
Y017983D01*
X069940Y018613D02*
Y017983D01*
X070137Y018613D02*
Y017983D01*
X070334Y018613D02*
Y017983D01*
X079823Y000285D02*
Y000915D01*
X079626Y000285D02*
Y000915D01*
X079429Y000285D02*
Y000915D01*
X079232Y000285D02*
Y000915D01*
X079035Y000285D02*
Y000915D01*
X078839Y000285D02*
Y000915D01*
X078642Y000285D02*
Y000915D01*
X078445Y000285D02*
Y000915D01*
X078248Y000285D02*
Y000915D01*
X078051Y000285D02*
Y000915D01*
X077854Y000285D02*
Y000915D01*
X076870Y000285D02*
Y000915D01*
X076673Y000285D02*
Y000915D01*
X076476Y000285D02*
Y000915D01*
X076280Y000285D02*
Y000915D01*
X076084Y000285D02*
Y000915D01*
X075887Y000285D02*
Y000915D01*
X075690Y000285D02*
Y000915D01*
X075493Y000285D02*
Y000915D01*
X075296Y000285D02*
Y000915D01*
X075099Y000285D02*
Y000915D01*
X074903Y000285D02*
Y000915D01*
X074706Y000285D02*
Y000915D01*
X074509Y000285D02*
Y000915D01*
X074312Y000285D02*
Y000915D01*
X074115Y000285D02*
Y000915D01*
X073918Y000285D02*
Y000915D01*
X073721Y000285D02*
Y000915D01*
X073525Y000285D02*
Y000915D01*
X073328Y000285D02*
Y000915D01*
X073131Y000285D02*
Y000915D01*
X072934Y000285D02*
Y000915D01*
X072737Y000285D02*
Y000915D01*
X072697Y018613D02*
Y017983D01*
X072894Y018613D02*
Y017983D01*
X073091Y018613D02*
Y017983D01*
X073288Y018613D02*
Y017983D01*
X073485Y018613D02*
Y017983D01*
X073681Y018613D02*
Y017983D01*
X073878Y018613D02*
Y017983D01*
X074075Y018613D02*
Y017983D01*
X074272Y018613D02*
Y017983D01*
X074469Y018613D02*
Y017983D01*
X074666Y018613D02*
Y017983D01*
X075650Y018613D02*
Y017983D01*
X075847Y018613D02*
Y017983D01*
X076044Y018613D02*
Y017983D01*
X076240Y018613D02*
Y017983D01*
X076436Y018613D02*
Y017983D01*
X076633Y018613D02*
Y017983D01*
X076830Y018613D02*
Y017983D01*
X077027Y018613D02*
Y017983D01*
X077224Y018613D02*
Y017983D01*
X077421Y018613D02*
Y017983D01*
X077617Y018613D02*
Y017983D01*
X077814Y018613D02*
Y017983D01*
X078011Y018613D02*
Y017983D01*
X078208Y018613D02*
Y017983D01*
X078405Y018613D02*
Y017983D01*
X078602Y018613D02*
Y017983D01*
X078799Y018613D02*
Y017983D01*
X078995Y018613D02*
Y017983D01*
X079192Y018613D02*
Y017983D01*
X079389Y018613D02*
Y017983D01*
X079586Y018613D02*
Y017983D01*
X079783Y018613D02*
Y017983D01*
X089271Y000285D02*
Y000915D01*
X089074Y000285D02*
Y000915D01*
X088877Y000285D02*
Y000915D01*
X088680Y000285D02*
Y000915D01*
X088483Y000285D02*
Y000915D01*
X088287Y000285D02*
Y000915D01*
X088090Y000285D02*
Y000915D01*
X087893Y000285D02*
Y000915D01*
X087696Y000285D02*
Y000915D01*
X087499Y000285D02*
Y000915D01*
X087302Y000285D02*
Y000915D01*
X086318Y000285D02*
Y000915D01*
X086121Y000285D02*
Y000915D01*
X085924Y000285D02*
Y000915D01*
X085728Y000285D02*
Y000915D01*
X085532Y000285D02*
Y000915D01*
X085335Y000285D02*
Y000915D01*
X085138Y000285D02*
Y000915D01*
X084941Y000285D02*
Y000915D01*
X084744Y000285D02*
Y000915D01*
X084547Y000285D02*
Y000915D01*
X084351Y000285D02*
Y000915D01*
X084154Y000285D02*
Y000915D01*
X083957Y000285D02*
Y000915D01*
X083760Y000285D02*
Y000915D01*
X083563Y000285D02*
Y000915D01*
X083366Y000285D02*
Y000915D01*
X083169Y000285D02*
Y000915D01*
X082973Y000285D02*
Y000915D01*
X082776Y000285D02*
Y000915D01*
X082579Y000285D02*
Y000915D01*
X082382Y000285D02*
Y000915D01*
X082185Y000285D02*
Y000915D01*
X082146Y018613D02*
Y017983D01*
X082343Y018613D02*
Y017983D01*
X082540Y018613D02*
Y017983D01*
X082737Y018613D02*
Y017983D01*
X082934Y018613D02*
Y017983D01*
X083130Y018613D02*
Y017983D01*
X083327Y018613D02*
Y017983D01*
X083524Y018613D02*
Y017983D01*
X083721Y018613D02*
Y017983D01*
X083918Y018613D02*
Y017983D01*
X084115Y018613D02*
Y017983D01*
X085099Y018613D02*
Y017983D01*
X085296Y018613D02*
Y017983D01*
X085493Y018613D02*
Y017983D01*
X085689Y018613D02*
Y017983D01*
X085885Y018613D02*
Y017983D01*
X086082Y018613D02*
Y017983D01*
X086279Y018613D02*
Y017983D01*
X086476Y018613D02*
Y017983D01*
X086673Y018613D02*
Y017983D01*
X086870Y018613D02*
Y017983D01*
X087066Y018613D02*
Y017983D01*
X087263Y018613D02*
Y017983D01*
X087460Y018613D02*
Y017983D01*
X087657Y018613D02*
Y017983D01*
X087854Y018613D02*
Y017983D01*
X088051Y018613D02*
Y017983D01*
X088248Y018613D02*
Y017983D01*
X088444Y018613D02*
Y017983D01*
X088641Y018613D02*
Y017983D01*
X088838Y018613D02*
Y017983D01*
X089035Y018613D02*
Y017983D01*
X089232Y018613D02*
Y017983D01*
X098720Y000285D02*
Y000915D01*
X098523Y000285D02*
Y000915D01*
X098326Y000285D02*
Y000915D01*
X098129Y000285D02*
Y000915D01*
X097932Y000285D02*
Y000915D01*
X097736Y000285D02*
Y000915D01*
X097539Y000285D02*
Y000915D01*
X097342Y000285D02*
Y000915D01*
X097145Y000285D02*
Y000915D01*
X096948Y000285D02*
Y000915D01*
X096751Y000285D02*
Y000915D01*
X095767Y000285D02*
Y000915D01*
X095570Y000285D02*
Y000915D01*
X095373Y000285D02*
Y000915D01*
X095177Y000285D02*
Y000915D01*
X094981Y000285D02*
Y000915D01*
X094784Y000285D02*
Y000915D01*
X094587Y000285D02*
Y000915D01*
X094390Y000285D02*
Y000915D01*
X094193Y000285D02*
Y000915D01*
X093996Y000285D02*
Y000915D01*
X093800Y000285D02*
Y000915D01*
X093603Y000285D02*
Y000915D01*
X093406Y000285D02*
Y000915D01*
X093209Y000285D02*
Y000915D01*
X093012Y000285D02*
Y000915D01*
X092815Y000285D02*
Y000915D01*
X092618Y000285D02*
Y000915D01*
X092422Y000285D02*
Y000915D01*
X092225Y000285D02*
Y000915D01*
X092028Y000285D02*
Y000915D01*
X091831Y000285D02*
Y000915D01*
X091634Y000285D02*
Y000915D01*
X091595Y018613D02*
Y017983D01*
X091792Y018613D02*
Y017983D01*
X091989Y018613D02*
Y017983D01*
X092186Y018613D02*
Y017983D01*
X092383Y018613D02*
Y017983D01*
X092579Y018613D02*
Y017983D01*
X092776Y018613D02*
Y017983D01*
X092973Y018613D02*
Y017983D01*
X093170Y018613D02*
Y017983D01*
X093367Y018613D02*
Y017983D01*
X093564Y018613D02*
Y017983D01*
X094548Y018613D02*
Y017983D01*
X094745Y018613D02*
Y017983D01*
X094942Y018613D02*
Y017983D01*
X095138Y018613D02*
Y017983D01*
X095334Y018613D02*
Y017983D01*
X095531Y018613D02*
Y017983D01*
X095728Y018613D02*
Y017983D01*
X095925Y018613D02*
Y017983D01*
X096122Y018613D02*
Y017983D01*
X096319Y018613D02*
Y017983D01*
X096515Y018613D02*
Y017983D01*
X096712Y018613D02*
Y017983D01*
X096909Y018613D02*
Y017983D01*
X097106Y018613D02*
Y017983D01*
X097303Y018613D02*
Y017983D01*
X097500Y018613D02*
Y017983D01*
X097697Y018613D02*
Y017983D01*
X097893Y018613D02*
Y017983D01*
X098090Y018613D02*
Y017983D01*
X098287Y018613D02*
Y017983D01*
X098484Y018613D02*
Y017983D01*
X098681Y018613D02*
Y017983D01*
%LPC*%
X098681Y017983D02*
G54D11*
X002894Y014961D03*
X102382Y013780D03*
X002894Y003937D03*
X102382D03*
%LPD*%
X102382Y003937D02*
G54D12*
X002894Y014961D03*
X102382Y013780D03*
X002894Y003937D03*
X102382D03*
M02*
