*
%FSLAX24Y24*%
%MOIN*%
%ADD10C,0.009843*%
%ADD11C,0.011811*%
%ADD12C,0.021654*%
%ADD13C,0.141732*%
%ADD14C,0.080787*%
%ADD15C,0.019764*%
%IPPOS*%
%LNm386940-drl.GBR*%
%LPD*%
G54D10*
X006021Y006601D03*
X006066Y006900D03*
X006207Y007069D03*
X006354Y007263D03*
X006606Y007259D03*
X006820Y007349D03*
X007035Y007468D03*
X007221Y007617D03*
X007394Y007759D03*
X007601Y007901D03*
X007762Y008071D03*
X007811Y005137D03*
X007829Y005961D03*
X007831Y003976D03*
X007838Y005723D03*
X007926Y004363D03*
X007936Y004733D03*
X007966Y005531D03*
X007968Y002806D03*
X008027Y003786D03*
X008035Y004152D03*
X008043Y005326D03*
X008051Y004546D03*
X008157Y002585D03*
X008306Y006606D03*
X008358Y002428D03*
X008566Y002318D03*
X008818Y002180D03*
X009118Y002018D03*
X009145Y006955D03*
X009341Y007055D03*
X009393Y002121D03*
X009539Y006959D03*
X009736Y007093D03*
X009759Y002207D03*
X009771Y001920D03*
X009933Y006959D03*
X010031Y001427D03*
X010047Y001912D03*
X010114Y007083D03*
X010740Y002692D03*
X010828Y007028D03*
X010976Y002694D03*
X011131Y006971D03*
X011191Y002625D03*
X011349Y006991D03*
X011433Y002605D03*
X011569Y006982D03*
X011653Y002633D03*
X011889Y002735D03*
X012586Y002715D03*
X012590Y002979D03*
X012681Y005046D03*
X012854Y005629D03*
X013082Y005471D03*
X013362Y005267D03*
X013440Y002538D03*
X013480Y003459D03*
X013523Y003711D03*
X013570Y004963D03*
X013641Y003948D03*
X013740Y004633D03*
X013881Y003975D03*
G54D11*
X007523Y006117D03*
X008055Y004940D03*
X008094Y003554D03*
X008102Y005727D03*
X008118Y003231D03*
X008173Y006408D03*
X008311Y002983D03*
X008799Y006967D03*
X010169Y007393D03*
X010326Y002689D03*
X010580Y006988D03*
X011326Y001727D03*
X012094Y001952D03*
X012114Y001503D03*
X012397Y003200D03*
X012437Y005719D03*
X012444Y006714D03*
X012444Y003841D03*
X012464Y003562D03*
X012476Y004542D03*
X012576Y005953D03*
X012658Y006571D03*
X012708Y006251D03*
X013141Y002227D03*
X013503Y001503D03*
X013641Y005928D03*
G54D12*
X008385Y008387D03*
X010132D03*
X011283Y002042D03*
X012698Y002095D03*
X013891Y001688D03*
X014033Y004883D03*
G54D13*
X011693Y008661D03*
G54D10*
X014216Y012296D03*
G54D10*
X014170Y011997D03*
G54D10*
X014029Y011828D03*
G54D10*
X013882Y011635D03*
G54D10*
X013630Y011639D03*
G54D10*
X013416Y011549D03*
G54D10*
X013201Y011430D03*
G54D10*
X013015Y011280D03*
G54D10*
X012843Y011138D03*
G54D10*
X012635Y010997D03*
G54D10*
X012474Y010827D03*
G54D10*
X012426Y013761D03*
G54D10*
X012407Y012937D03*
G54D10*
X012405Y014921D03*
G54D10*
X012398Y013174D03*
G54D10*
X012310Y014535D03*
G54D10*
X012301Y014164D03*
G54D10*
X012270Y013366D03*
G54D10*
X012268Y016092D03*
G54D10*
X012209Y015112D03*
G54D10*
X012201Y014745D03*
G54D10*
X012193Y013572D03*
G54D10*
X012186Y014352D03*
G54D10*
X012079Y016312D03*
G54D10*
X011930Y012292D03*
G54D10*
X011878Y016470D03*
G54D10*
X011670Y016580D03*
G54D10*
X011418Y016718D03*
G54D10*
X011119Y016879D03*
G54D10*
X011091Y011942D03*
G54D10*
X010895Y011843D03*
G54D10*
X010843Y016777D03*
G54D10*
X010697Y011938D03*
G54D10*
X010501Y011804D03*
G54D10*
X010477Y016690D03*
G54D10*
X010465Y016978D03*
G54D10*
X010304Y011938D03*
G54D10*
X010205Y017470D03*
G54D10*
X010189Y016985D03*
G54D10*
X010122Y011814D03*
G54D10*
X009497Y016206D03*
G54D10*
X009408Y011869D03*
G54D10*
X009261Y016203D03*
G54D10*
X009106Y011926D03*
G54D10*
X009045Y016273D03*
G54D10*
X008887Y011907D03*
G54D10*
X008803Y016293D03*
G54D10*
X008667Y011915D03*
G54D10*
X008583Y016265D03*
G54D10*
X008347Y016163D03*
G54D10*
X007650Y016182D03*
G54D10*
X007646Y015919D03*
G54D10*
X007556Y013852D03*
G54D10*
X007382Y013269D03*
G54D10*
X007154Y013426D03*
G54D10*
X006875Y013631D03*
G54D10*
X006796Y016359D03*
G54D10*
X006756Y015438D03*
G54D10*
X006713Y015186D03*
G54D10*
X006666Y013934D03*
G54D10*
X006595Y014950D03*
G54D10*
X006497Y014265D03*
G54D10*
X006355Y014922D03*
G54D11*
X012713Y012781D03*
G54D11*
X012182Y013958D03*
G54D11*
X012142Y015344D03*
G54D11*
X012134Y013170D03*
G54D11*
X012119Y015667D03*
G54D11*
X012063Y012489D03*
G54D11*
X011926Y015915D03*
G54D11*
X011437Y011931D03*
G54D11*
X010067Y011505D03*
G54D11*
X009910Y016209D03*
G54D11*
X009657Y011909D03*
G54D11*
X008910Y017170D03*
G54D11*
X008142Y016946D03*
G54D11*
X008123Y017395D03*
G54D11*
X007839Y015698D03*
G54D11*
X007800Y013179D03*
G54D11*
X007792Y012184D03*
G54D11*
X007792Y015056D03*
G54D11*
X007772Y015336D03*
G54D11*
X007760Y014356D03*
G54D11*
X007661Y012945D03*
G54D11*
X007578Y012326D03*
G54D11*
X007528Y012647D03*
G54D11*
X007095Y016670D03*
G54D11*
X006733Y017395D03*
G54D11*
X006595Y012970D03*
G54D12*
X011851Y010510D03*
G54D12*
X010104D03*
G54D12*
X008953Y016856D03*
G54D12*
X007538Y016802D03*
G54D12*
X006346Y017210D03*
G54D12*
X006203Y014015D03*
G54D13*
X008543Y010236D03*
G54D10*
X015470Y006601D03*
X015515Y006900D03*
X015656Y007069D03*
X015803Y007263D03*
X016055Y007259D03*
X016269Y007349D03*
X016484Y007468D03*
X016670Y007617D03*
X016842Y007759D03*
X017050Y007901D03*
X017211Y008071D03*
X017259Y005137D03*
X017278Y005961D03*
X017280Y003976D03*
X017287Y005723D03*
X017375Y004363D03*
X017384Y004733D03*
X017415Y005531D03*
X017417Y002806D03*
X017476Y003786D03*
X017484Y004152D03*
X017492Y005326D03*
X017500Y004546D03*
X017606Y002585D03*
X017755Y006606D03*
X017807Y002428D03*
X018015Y002318D03*
X018267Y002180D03*
X018566Y002018D03*
X018594Y006955D03*
X018790Y007055D03*
X018842Y002121D03*
X018988Y006959D03*
X019185Y007093D03*
X019208Y002207D03*
X019220Y001920D03*
X019381Y006959D03*
X019480Y001427D03*
X019496Y001912D03*
X019563Y007083D03*
X020188Y002692D03*
X020277Y007028D03*
X020424Y002694D03*
X020579Y006971D03*
X020640Y002625D03*
X020798Y006991D03*
X020882Y002605D03*
X021018Y006982D03*
X021102Y002633D03*
X021338Y002735D03*
X022035Y002715D03*
X022039Y002979D03*
X022129Y005046D03*
X022303Y005629D03*
X022531Y005471D03*
X022811Y005267D03*
X022889Y002538D03*
X022929Y003459D03*
X022972Y003711D03*
X023019Y004963D03*
X023090Y003948D03*
X023188Y004633D03*
X023330Y003975D03*
G54D11*
X016972Y006117D03*
X017503Y004940D03*
X017543Y003554D03*
X017551Y005727D03*
X017566Y003231D03*
X017622Y006408D03*
X017759Y002983D03*
X018248Y006967D03*
X019618Y007393D03*
X019775Y002689D03*
X020028Y006988D03*
X020775Y001727D03*
X021543Y001952D03*
X021562Y001503D03*
X021846Y003200D03*
X021885Y005719D03*
X021893Y006714D03*
X021893Y003841D03*
X021913Y003562D03*
X021925Y004542D03*
X022024Y005953D03*
X022107Y006571D03*
X022157Y006251D03*
X022590Y002227D03*
X022952Y001503D03*
X023090Y005928D03*
G54D12*
X017834Y008387D03*
X019581D03*
X020732Y002042D03*
X022147Y002095D03*
X023339Y001688D03*
X023482Y004883D03*
G54D13*
X021142Y008661D03*
G54D10*
X023664Y012296D03*
G54D10*
X023619Y011997D03*
G54D10*
X023478Y011828D03*
G54D10*
X023331Y011635D03*
G54D10*
X023079Y011639D03*
G54D10*
X022865Y011549D03*
G54D10*
X022650Y011430D03*
G54D10*
X022464Y011280D03*
G54D10*
X022291Y011138D03*
G54D10*
X022084Y010997D03*
G54D10*
X021923Y010827D03*
G54D10*
X021875Y013761D03*
G54D10*
X021856Y012937D03*
G54D10*
X021854Y014921D03*
G54D10*
X021847Y013174D03*
G54D10*
X021759Y014535D03*
G54D10*
X021749Y014164D03*
G54D10*
X021719Y013366D03*
G54D10*
X021717Y016092D03*
G54D10*
X021658Y015112D03*
G54D10*
X021650Y014745D03*
G54D10*
X021642Y013572D03*
G54D10*
X021634Y014352D03*
G54D10*
X021528Y016312D03*
G54D10*
X021379Y012292D03*
G54D10*
X021327Y016470D03*
G54D10*
X021119Y016580D03*
G54D10*
X020867Y016718D03*
G54D10*
X020567Y016879D03*
G54D10*
X020540Y011942D03*
G54D10*
X020344Y011843D03*
G54D10*
X020292Y016777D03*
G54D10*
X020146Y011938D03*
G54D10*
X019949Y011804D03*
G54D10*
X019926Y016690D03*
G54D10*
X019914Y016978D03*
G54D10*
X019752Y011938D03*
G54D10*
X019654Y017470D03*
G54D10*
X019638Y016985D03*
G54D10*
X019571Y011814D03*
G54D10*
X018945Y016206D03*
G54D10*
X018857Y011869D03*
G54D10*
X018710Y016203D03*
G54D10*
X018554Y011926D03*
G54D10*
X018494Y016273D03*
G54D10*
X018336Y011907D03*
G54D10*
X018252Y016293D03*
G54D10*
X018116Y011915D03*
G54D10*
X018032Y016265D03*
G54D10*
X017796Y016163D03*
G54D10*
X017099Y016182D03*
G54D10*
X017095Y015919D03*
G54D10*
X017004Y013852D03*
G54D10*
X016831Y013269D03*
G54D10*
X016603Y013426D03*
G54D10*
X016323Y013631D03*
G54D10*
X016245Y016359D03*
G54D10*
X016205Y015438D03*
G54D10*
X016162Y015186D03*
G54D10*
X016115Y013934D03*
G54D10*
X016044Y014950D03*
G54D10*
X015945Y014265D03*
G54D10*
X015804Y014922D03*
G54D11*
X022162Y012781D03*
G54D11*
X021630Y013958D03*
G54D11*
X021591Y015344D03*
G54D11*
X021583Y013170D03*
G54D11*
X021567Y015667D03*
G54D11*
X021512Y012489D03*
G54D11*
X021375Y015915D03*
G54D11*
X020886Y011931D03*
G54D11*
X019516Y011505D03*
G54D11*
X019359Y016209D03*
G54D11*
X019105Y011909D03*
G54D11*
X018359Y017170D03*
G54D11*
X017591Y016946D03*
G54D11*
X017571Y017395D03*
G54D11*
X017288Y015698D03*
G54D11*
X017249Y013179D03*
G54D11*
X017241Y012184D03*
G54D11*
X017241Y015056D03*
G54D11*
X017221Y015336D03*
G54D11*
X017209Y014356D03*
G54D11*
X017109Y012945D03*
G54D11*
X017027Y012326D03*
G54D11*
X016977Y012647D03*
G54D11*
X016544Y016670D03*
G54D11*
X016182Y017395D03*
G54D11*
X016044Y012970D03*
G54D12*
X021300Y010510D03*
G54D12*
X019553D03*
G54D12*
X018402Y016856D03*
G54D12*
X016987Y016802D03*
G54D12*
X015794Y017210D03*
G54D12*
X015652Y014015D03*
G54D13*
X017992Y010236D03*
G54D10*
X024918Y006601D03*
X024964Y006900D03*
X025105Y007069D03*
X025251Y007263D03*
X025503Y007259D03*
X025718Y007349D03*
X025933Y007468D03*
X026119Y007617D03*
X026291Y007759D03*
X026498Y007901D03*
X026660Y008071D03*
X026708Y005137D03*
X026727Y005961D03*
X026729Y003976D03*
X026736Y005723D03*
X026824Y004363D03*
X026833Y004733D03*
X026864Y005531D03*
X026866Y002806D03*
X026925Y003786D03*
X026933Y004152D03*
X026940Y005326D03*
X026948Y004546D03*
X027055Y002585D03*
X027204Y006606D03*
X027255Y002428D03*
X027464Y002318D03*
X027716Y002180D03*
X028015Y002018D03*
X028043Y006955D03*
X028239Y007055D03*
X028291Y002121D03*
X028437Y006959D03*
X028633Y007093D03*
X028657Y002207D03*
X028669Y001920D03*
X028830Y006959D03*
X028929Y001427D03*
X028944Y001912D03*
X029012Y007083D03*
X029637Y002692D03*
X029726Y007028D03*
X029873Y002694D03*
X030028Y006971D03*
X030089Y002625D03*
X030247Y006991D03*
X030331Y002605D03*
X030467Y006982D03*
X030551Y002633D03*
X030787Y002735D03*
X031484Y002715D03*
X031488Y002979D03*
X031578Y005046D03*
X031751Y005629D03*
X031980Y005471D03*
X032259Y005267D03*
X032338Y002538D03*
X032377Y003459D03*
X032421Y003711D03*
X032468Y004963D03*
X032539Y003948D03*
X032637Y004633D03*
X032779Y003975D03*
G54D11*
X026421Y006117D03*
X026952Y004940D03*
X026992Y003554D03*
X027000Y005727D03*
X027015Y003231D03*
X027070Y006408D03*
X027208Y002983D03*
X027697Y006967D03*
X029066Y007393D03*
X029224Y002689D03*
X029477Y006988D03*
X030224Y001727D03*
X030992Y001952D03*
X031011Y001503D03*
X031295Y003200D03*
X031334Y005719D03*
X031342Y006714D03*
X031342Y003841D03*
X031362Y003562D03*
X031374Y004542D03*
X031473Y005953D03*
X031555Y006571D03*
X031606Y006251D03*
X032039Y002227D03*
X032401Y001503D03*
X032539Y005928D03*
G54D12*
X027283Y008387D03*
X029030D03*
X030181Y002042D03*
X031596Y002095D03*
X032788Y001688D03*
X032931Y004883D03*
G54D13*
X030591Y008661D03*
G54D10*
X033113Y012296D03*
G54D10*
X033067Y011997D03*
G54D10*
X032927Y011828D03*
G54D10*
X032780Y011635D03*
G54D10*
X032528Y011639D03*
G54D10*
X032313Y011549D03*
G54D10*
X032099Y011430D03*
G54D10*
X031913Y011280D03*
G54D10*
X031740Y011138D03*
G54D10*
X031533Y010997D03*
G54D10*
X031372Y010827D03*
G54D10*
X031323Y013761D03*
G54D10*
X031305Y012937D03*
G54D10*
X031303Y014921D03*
G54D10*
X031296Y013174D03*
G54D10*
X031208Y014535D03*
G54D10*
X031198Y014164D03*
G54D10*
X031168Y013366D03*
G54D10*
X031166Y016092D03*
G54D10*
X031107Y015112D03*
G54D10*
X031099Y014745D03*
G54D10*
X031091Y013572D03*
G54D10*
X031083Y014352D03*
G54D10*
X030977Y016312D03*
G54D10*
X030828Y012292D03*
G54D10*
X030776Y016470D03*
G54D10*
X030567Y016580D03*
G54D10*
X030315Y016718D03*
G54D10*
X030016Y016879D03*
G54D10*
X029989Y011942D03*
G54D10*
X029793Y011843D03*
G54D10*
X029741Y016777D03*
G54D10*
X029595Y011938D03*
G54D10*
X029398Y011804D03*
G54D10*
X029375Y016690D03*
G54D10*
X029363Y016978D03*
G54D10*
X029201Y011938D03*
G54D10*
X029103Y017470D03*
G54D10*
X029087Y016985D03*
G54D10*
X029020Y011814D03*
G54D10*
X028394Y016206D03*
G54D10*
X028305Y011869D03*
G54D10*
X028158Y016203D03*
G54D10*
X028003Y011926D03*
G54D10*
X027943Y016273D03*
G54D10*
X027784Y011907D03*
G54D10*
X027700Y016293D03*
G54D10*
X027565Y011915D03*
G54D10*
X027481Y016265D03*
G54D10*
X027245Y016163D03*
G54D10*
X026548Y016182D03*
G54D10*
X026544Y015919D03*
G54D10*
X026453Y013852D03*
G54D10*
X026280Y013269D03*
G54D10*
X026052Y013426D03*
G54D10*
X025772Y013631D03*
G54D10*
X025693Y016359D03*
G54D10*
X025654Y015438D03*
G54D10*
X025611Y015186D03*
G54D10*
X025563Y013934D03*
G54D10*
X025493Y014950D03*
G54D10*
X025394Y014265D03*
G54D10*
X025252Y014922D03*
G54D11*
X031611Y012781D03*
G54D11*
X031079Y013958D03*
G54D11*
X031040Y015344D03*
G54D11*
X031032Y013170D03*
G54D11*
X031016Y015667D03*
G54D11*
X030961Y012489D03*
G54D11*
X030823Y015915D03*
G54D11*
X030334Y011931D03*
G54D11*
X028965Y011505D03*
G54D11*
X028808Y016209D03*
G54D11*
X028554Y011909D03*
G54D11*
X027808Y017170D03*
G54D11*
X027040Y016946D03*
G54D11*
X027020Y017395D03*
G54D11*
X026737Y015698D03*
G54D11*
X026697Y013179D03*
G54D11*
X026690Y012184D03*
G54D11*
X026689Y015056D03*
G54D11*
X026670Y015336D03*
G54D11*
X026658Y014356D03*
G54D11*
X026558Y012945D03*
G54D11*
X026476Y012326D03*
G54D11*
X026426Y012647D03*
G54D11*
X025993Y016670D03*
G54D11*
X025630Y017395D03*
G54D11*
X025493Y012970D03*
G54D12*
X030749Y010510D03*
G54D12*
X029001D03*
G54D12*
X027851Y016856D03*
G54D12*
X026436Y016802D03*
G54D12*
X025243Y017210D03*
G54D12*
X025101Y014015D03*
G54D13*
X027441Y010236D03*
G54D10*
X034367Y006601D03*
X034413Y006900D03*
X034554Y007069D03*
X034700Y007263D03*
X034952Y007259D03*
X035167Y007349D03*
X035381Y007468D03*
X035567Y007617D03*
X035740Y007759D03*
X035947Y007901D03*
X036109Y008071D03*
X036157Y005137D03*
X036175Y005961D03*
X036178Y003976D03*
X036185Y005723D03*
X036273Y004363D03*
X036282Y004733D03*
X036312Y005531D03*
X036314Y002806D03*
X036374Y003786D03*
X036381Y004152D03*
X036389Y005326D03*
X036397Y004546D03*
X036503Y002585D03*
X036652Y006606D03*
X036704Y002428D03*
X036913Y002318D03*
X037165Y002180D03*
X037464Y002018D03*
X037492Y006955D03*
X037688Y007055D03*
X037740Y002121D03*
X037885Y006959D03*
X038082Y007093D03*
X038106Y002207D03*
X038118Y001920D03*
X038279Y006959D03*
X038377Y001427D03*
X038393Y001912D03*
X038461Y007083D03*
X039086Y002692D03*
X039175Y007028D03*
X039322Y002694D03*
X039477Y006971D03*
X039538Y002625D03*
X039696Y006991D03*
X039780Y002605D03*
X039916Y006982D03*
X040000Y002633D03*
X040236Y002735D03*
X040933Y002715D03*
X040937Y002979D03*
X041027Y005046D03*
X041200Y005629D03*
X041429Y005471D03*
X041708Y005267D03*
X041787Y002538D03*
X041826Y003459D03*
X041870Y003711D03*
X041917Y004963D03*
X041988Y003948D03*
X042086Y004633D03*
X042228Y003975D03*
G54D11*
X035870Y006117D03*
X036401Y004940D03*
X036440Y003554D03*
X036448Y005727D03*
X036464Y003231D03*
X036519Y006408D03*
X036657Y002983D03*
X037146Y006967D03*
X038515Y007393D03*
X038673Y002689D03*
X038926Y006988D03*
X039673Y001727D03*
X040440Y001952D03*
X040460Y001503D03*
X040744Y003200D03*
X040783Y005719D03*
X040791Y006714D03*
X040791Y003841D03*
X040811Y003562D03*
X040822Y004542D03*
X040922Y005953D03*
X041004Y006571D03*
X041055Y006251D03*
X041488Y002227D03*
X041850Y001503D03*
X041988Y005928D03*
G54D12*
X036732Y008387D03*
X038479D03*
X039629Y002042D03*
X041045Y002095D03*
X042237Y001688D03*
X042379Y004883D03*
G54D13*
X040039Y008661D03*
G54D10*
X042562Y012296D03*
G54D10*
X042516Y011997D03*
G54D10*
X042376Y011828D03*
G54D10*
X042229Y011635D03*
G54D10*
X041977Y011639D03*
G54D10*
X041762Y011549D03*
G54D10*
X041548Y011430D03*
G54D10*
X041362Y011280D03*
G54D10*
X041189Y011138D03*
G54D10*
X040982Y010997D03*
G54D10*
X040821Y010827D03*
G54D10*
X040772Y013761D03*
G54D10*
X040754Y012937D03*
G54D10*
X040751Y014921D03*
G54D10*
X040745Y013174D03*
G54D10*
X040656Y014535D03*
G54D10*
X040647Y014164D03*
G54D10*
X040617Y013366D03*
G54D10*
X040615Y016092D03*
G54D10*
X040556Y015112D03*
G54D10*
X040548Y014745D03*
G54D10*
X040540Y013572D03*
G54D10*
X040532Y014352D03*
G54D10*
X040426Y016312D03*
G54D10*
X040277Y012292D03*
G54D10*
X040225Y016470D03*
G54D10*
X040016Y016580D03*
G54D10*
X039764Y016718D03*
G54D10*
X039465Y016879D03*
G54D10*
X039438Y011942D03*
G54D10*
X039242Y011843D03*
G54D10*
X039189Y016777D03*
G54D10*
X039044Y011938D03*
G54D10*
X038847Y011804D03*
G54D10*
X038823Y016690D03*
G54D10*
X038812Y016978D03*
G54D10*
X038650Y011938D03*
G54D10*
X038552Y017470D03*
G54D10*
X038536Y016985D03*
G54D10*
X038469Y011814D03*
G54D10*
X037843Y016206D03*
G54D10*
X037754Y011869D03*
G54D10*
X037607Y016203D03*
G54D10*
X037452Y011926D03*
G54D10*
X037392Y016273D03*
G54D10*
X037233Y011907D03*
G54D10*
X037149Y016293D03*
G54D10*
X037014Y011915D03*
G54D10*
X036930Y016265D03*
G54D10*
X036693Y016163D03*
G54D10*
X035997Y016182D03*
G54D10*
X035993Y015919D03*
G54D10*
X035902Y013852D03*
G54D10*
X035729Y013269D03*
G54D10*
X035501Y013426D03*
G54D10*
X035221Y013631D03*
G54D10*
X035142Y016359D03*
G54D10*
X035103Y015438D03*
G54D10*
X035060Y015186D03*
G54D10*
X035012Y013934D03*
G54D10*
X034941Y014950D03*
G54D10*
X034843Y014265D03*
G54D10*
X034701Y014922D03*
G54D11*
X041060Y012781D03*
G54D11*
X040528Y013958D03*
G54D11*
X040489Y015344D03*
G54D11*
X040481Y013170D03*
G54D11*
X040465Y015667D03*
G54D11*
X040410Y012489D03*
G54D11*
X040272Y015915D03*
G54D11*
X039783Y011931D03*
G54D11*
X038414Y011505D03*
G54D11*
X038256Y016209D03*
G54D11*
X038003Y011909D03*
G54D11*
X037256Y017170D03*
G54D11*
X036489Y016946D03*
G54D11*
X036469Y017395D03*
G54D11*
X036186Y015698D03*
G54D11*
X036146Y013179D03*
G54D11*
X036138Y012184D03*
G54D11*
X036138Y015056D03*
G54D11*
X036119Y015336D03*
G54D11*
X036107Y014356D03*
G54D11*
X036007Y012945D03*
G54D11*
X035925Y012326D03*
G54D11*
X035875Y012647D03*
G54D11*
X035441Y016670D03*
G54D11*
X035079Y017395D03*
G54D11*
X034941Y012970D03*
G54D12*
X040197Y010510D03*
G54D12*
X038450D03*
G54D12*
X037300Y016856D03*
G54D12*
X035884Y016802D03*
G54D12*
X034692Y017210D03*
G54D12*
X034550Y014015D03*
G54D13*
X036890Y010236D03*
G54D10*
X043816Y006601D03*
X043862Y006900D03*
X044002Y007069D03*
X044149Y007263D03*
X044401Y007259D03*
X044616Y007349D03*
X044830Y007468D03*
X045016Y007617D03*
X045189Y007759D03*
X045396Y007901D03*
X045557Y008071D03*
X045606Y005137D03*
X045624Y005961D03*
X045627Y003976D03*
X045633Y005723D03*
X045722Y004363D03*
X045731Y004733D03*
X045761Y005531D03*
X045763Y002806D03*
X045822Y003786D03*
X045830Y004152D03*
X045838Y005326D03*
X045846Y004546D03*
X045952Y002585D03*
X046101Y006606D03*
X046153Y002428D03*
X046362Y002318D03*
X046614Y002180D03*
X046913Y002018D03*
X046940Y006955D03*
X047136Y007055D03*
X047188Y002121D03*
X047334Y006959D03*
X047531Y007093D03*
X047555Y002207D03*
X047566Y001920D03*
X047728Y006959D03*
X047826Y001427D03*
X047842Y001912D03*
X047909Y007083D03*
X048535Y002692D03*
X048624Y007028D03*
X048771Y002694D03*
X048926Y006971D03*
X048986Y002625D03*
X049145Y006991D03*
X049229Y002605D03*
X049364Y006982D03*
X049448Y002633D03*
X049685Y002735D03*
X050381Y002715D03*
X050385Y002979D03*
X050476Y005046D03*
X050649Y005629D03*
X050877Y005471D03*
X051157Y005267D03*
X051236Y002538D03*
X051275Y003459D03*
X051318Y003711D03*
X051366Y004963D03*
X051437Y003948D03*
X051535Y004633D03*
X051677Y003975D03*
G54D11*
X045318Y006117D03*
X045850Y004940D03*
X045889Y003554D03*
X045897Y005727D03*
X045913Y003231D03*
X045968Y006408D03*
X046106Y002983D03*
X046595Y006967D03*
X047964Y007393D03*
X048122Y002689D03*
X048375Y006988D03*
X049122Y001727D03*
X049889Y001952D03*
X049909Y001503D03*
X050192Y003200D03*
X050232Y005719D03*
X050240Y006714D03*
X050240Y003841D03*
X050259Y003562D03*
X050271Y004542D03*
X050371Y005953D03*
X050453Y006571D03*
X050503Y006251D03*
X050937Y002227D03*
X051299Y001503D03*
X051437Y005928D03*
G54D12*
X046181Y008387D03*
X047928D03*
X049078Y002042D03*
X050494Y002095D03*
X051686Y001688D03*
X051828Y004883D03*
G54D13*
X049488Y008661D03*
G54D10*
X052011Y012296D03*
G54D10*
X051965Y011997D03*
G54D10*
X051824Y011828D03*
G54D10*
X051678Y011635D03*
G54D10*
X051426Y011639D03*
G54D10*
X051211Y011549D03*
G54D10*
X050997Y011430D03*
G54D10*
X050810Y011280D03*
G54D10*
X050638Y011138D03*
G54D10*
X050431Y010997D03*
G54D10*
X050269Y010827D03*
G54D10*
X050221Y013761D03*
G54D10*
X050203Y012937D03*
G54D10*
X050200Y014921D03*
G54D10*
X050193Y013174D03*
G54D10*
X050105Y014535D03*
G54D10*
X050096Y014164D03*
G54D10*
X050066Y013366D03*
G54D10*
X050063Y016092D03*
G54D10*
X050004Y015112D03*
G54D10*
X049997Y014745D03*
G54D10*
X049989Y013572D03*
G54D10*
X049981Y014352D03*
G54D10*
X049875Y016312D03*
G54D10*
X049726Y012292D03*
G54D10*
X049674Y016470D03*
G54D10*
X049465Y016580D03*
G54D10*
X049213Y016718D03*
G54D10*
X048914Y016879D03*
G54D10*
X048886Y011942D03*
G54D10*
X048690Y011843D03*
G54D10*
X048638Y016777D03*
G54D10*
X048493Y011938D03*
G54D10*
X048296Y011804D03*
G54D10*
X048272Y016690D03*
G54D10*
X048260Y016978D03*
G54D10*
X048099Y011938D03*
G54D10*
X048001Y017470D03*
G54D10*
X047985Y016985D03*
G54D10*
X047917Y011814D03*
G54D10*
X047292Y016206D03*
G54D10*
X047203Y011869D03*
G54D10*
X047056Y016203D03*
G54D10*
X046901Y011926D03*
G54D10*
X046840Y016273D03*
G54D10*
X046682Y011907D03*
G54D10*
X046598Y016293D03*
G54D10*
X046462Y011915D03*
G54D10*
X046378Y016265D03*
G54D10*
X046142Y016163D03*
G54D10*
X045445Y016182D03*
G54D10*
X045441Y015919D03*
G54D10*
X045351Y013852D03*
G54D10*
X045178Y013269D03*
G54D10*
X044949Y013426D03*
G54D10*
X044670Y013631D03*
G54D10*
X044591Y016359D03*
G54D10*
X044552Y015438D03*
G54D10*
X044508Y015186D03*
G54D10*
X044461Y013934D03*
G54D10*
X044390Y014950D03*
G54D10*
X044292Y014265D03*
G54D10*
X044150Y014922D03*
G54D11*
X050508Y012781D03*
G54D11*
X049977Y013958D03*
G54D11*
X049938Y015344D03*
G54D11*
X049930Y013170D03*
G54D11*
X049914Y015667D03*
G54D11*
X049859Y012489D03*
G54D11*
X049721Y015915D03*
G54D11*
X049232Y011931D03*
G54D11*
X047863Y011505D03*
G54D11*
X047705Y016209D03*
G54D11*
X047452Y011909D03*
G54D11*
X046705Y017170D03*
G54D11*
X045938Y016946D03*
G54D11*
X045918Y017395D03*
G54D11*
X045634Y015698D03*
G54D11*
X045595Y013179D03*
G54D11*
X045587Y012184D03*
G54D11*
X045587Y015056D03*
G54D11*
X045567Y015336D03*
G54D11*
X045556Y014356D03*
G54D11*
X045456Y012945D03*
G54D11*
X045374Y012326D03*
G54D11*
X045323Y012647D03*
G54D11*
X044890Y016670D03*
G54D11*
X044528Y017395D03*
G54D11*
X044390Y012970D03*
G54D12*
X049646Y010510D03*
G54D12*
X047899D03*
G54D12*
X046749Y016856D03*
G54D12*
X045333Y016802D03*
G54D12*
X044141Y017210D03*
G54D12*
X043999Y014015D03*
G54D13*
X046339Y010236D03*
G54D10*
X053265Y006601D03*
X053311Y006900D03*
X053451Y007069D03*
X053598Y007263D03*
X053850Y007259D03*
X054065Y007349D03*
X054279Y007468D03*
X054465Y007617D03*
X054638Y007759D03*
X054845Y007901D03*
X055006Y008071D03*
X055055Y005137D03*
X055073Y005961D03*
X055075Y003976D03*
X055082Y005723D03*
X055170Y004363D03*
X055180Y004733D03*
X055210Y005531D03*
X055212Y002806D03*
X055271Y003786D03*
X055279Y004152D03*
X055287Y005326D03*
X055295Y004546D03*
X055401Y002585D03*
X055550Y006606D03*
X055602Y002428D03*
X055811Y002318D03*
X056062Y002180D03*
X056362Y002018D03*
X056389Y006955D03*
X056585Y007055D03*
X056637Y002121D03*
X056783Y006959D03*
X056980Y007093D03*
X057003Y002207D03*
X057015Y001920D03*
X057177Y006959D03*
X057275Y001427D03*
X057291Y001912D03*
X057358Y007083D03*
X057984Y002692D03*
X058072Y007028D03*
X058220Y002694D03*
X058375Y006971D03*
X058435Y002625D03*
X058594Y006991D03*
X058678Y002605D03*
X058813Y006982D03*
X058897Y002633D03*
X059133Y002735D03*
X059830Y002715D03*
X059834Y002979D03*
X059925Y005046D03*
X060098Y005629D03*
X060326Y005471D03*
X060606Y005267D03*
X060685Y002538D03*
X060724Y003459D03*
X060767Y003711D03*
X060814Y004963D03*
X060885Y003948D03*
X060984Y004633D03*
X061125Y003975D03*
G54D11*
X054767Y006117D03*
X055299Y004940D03*
X055338Y003554D03*
X055346Y005727D03*
X055362Y003231D03*
X055417Y006408D03*
X055555Y002983D03*
X056044Y006967D03*
X057413Y007393D03*
X057570Y002689D03*
X057824Y006988D03*
X058570Y001727D03*
X059338Y001952D03*
X059358Y001503D03*
X059641Y003200D03*
X059681Y005719D03*
X059688Y006714D03*
X059688Y003841D03*
X059708Y003562D03*
X059720Y004542D03*
X059820Y005953D03*
X059902Y006571D03*
X059952Y006251D03*
X060385Y002227D03*
X060748Y001503D03*
X060885Y005928D03*
G54D12*
X055629Y008387D03*
X057377D03*
X058527Y002042D03*
X059942Y002095D03*
X061135Y001688D03*
X061277Y004883D03*
G54D13*
X058937Y008661D03*
G54D10*
X061460Y012296D03*
G54D10*
X061414Y011997D03*
G54D10*
X061273Y011828D03*
G54D10*
X061126Y011635D03*
G54D10*
X060875Y011639D03*
G54D10*
X060660Y011549D03*
G54D10*
X060445Y011430D03*
G54D10*
X060259Y011280D03*
G54D10*
X060087Y011138D03*
G54D10*
X059880Y010997D03*
G54D10*
X059718Y010827D03*
G54D10*
X059670Y013761D03*
G54D10*
X059651Y012937D03*
G54D10*
X059649Y014921D03*
G54D10*
X059642Y013174D03*
G54D10*
X059554Y014535D03*
G54D10*
X059545Y014164D03*
G54D10*
X059514Y013366D03*
G54D10*
X059512Y016092D03*
G54D10*
X059453Y015112D03*
G54D10*
X059445Y014745D03*
G54D10*
X059438Y013572D03*
G54D10*
X059430Y014352D03*
G54D10*
X059323Y016312D03*
G54D10*
X059174Y012292D03*
G54D10*
X059123Y016470D03*
G54D10*
X058914Y016580D03*
G54D10*
X058662Y016718D03*
G54D10*
X058363Y016879D03*
G54D10*
X058335Y011942D03*
G54D10*
X058139Y011843D03*
G54D10*
X058087Y016777D03*
G54D10*
X057941Y011938D03*
G54D10*
X057745Y011804D03*
G54D10*
X057721Y016690D03*
G54D10*
X057709Y016978D03*
G54D10*
X057548Y011938D03*
G54D10*
X057449Y017470D03*
G54D10*
X057434Y016985D03*
G54D10*
X057366Y011814D03*
G54D10*
X056741Y016206D03*
G54D10*
X056652Y011869D03*
G54D10*
X056505Y016203D03*
G54D10*
X056350Y011926D03*
G54D10*
X056289Y016273D03*
G54D10*
X056131Y011907D03*
G54D10*
X056047Y016293D03*
G54D10*
X055911Y011915D03*
G54D10*
X055827Y016265D03*
G54D10*
X055591Y016163D03*
G54D10*
X054894Y016182D03*
G54D10*
X054890Y015919D03*
G54D10*
X054800Y013852D03*
G54D10*
X054626Y013269D03*
G54D10*
X054398Y013426D03*
G54D10*
X054119Y013631D03*
G54D10*
X054040Y016359D03*
G54D10*
X054001Y015438D03*
G54D10*
X053957Y015186D03*
G54D10*
X053910Y013934D03*
G54D10*
X053839Y014950D03*
G54D10*
X053741Y014265D03*
G54D10*
X053599Y014922D03*
G54D11*
X059957Y012781D03*
G54D11*
X059426Y013958D03*
G54D11*
X059386Y015344D03*
G54D11*
X059378Y013170D03*
G54D11*
X059363Y015667D03*
G54D11*
X059308Y012489D03*
G54D11*
X059170Y015915D03*
G54D11*
X058681Y011931D03*
G54D11*
X057312Y011505D03*
G54D11*
X057154Y016209D03*
G54D11*
X056901Y011909D03*
G54D11*
X056154Y017170D03*
G54D11*
X055386Y016946D03*
G54D11*
X055367Y017395D03*
G54D11*
X055083Y015698D03*
G54D11*
X055044Y013179D03*
G54D11*
X055036Y012184D03*
G54D11*
X055036Y015056D03*
G54D11*
X055016Y015336D03*
G54D11*
X055004Y014356D03*
G54D11*
X054905Y012945D03*
G54D11*
X054822Y012326D03*
G54D11*
X054772Y012647D03*
G54D11*
X054339Y016670D03*
G54D11*
X053977Y017395D03*
G54D11*
X053839Y012970D03*
G54D12*
X059095Y010510D03*
G54D12*
X057348D03*
G54D12*
X056197Y016856D03*
G54D12*
X054782Y016802D03*
G54D12*
X053590Y017210D03*
G54D12*
X053447Y014015D03*
G54D13*
X055787Y010236D03*
G54D10*
X062714Y006601D03*
X062759Y006900D03*
X062900Y007069D03*
X063047Y007263D03*
X063299Y007259D03*
X063513Y007349D03*
X063728Y007468D03*
X063914Y007617D03*
X064087Y007759D03*
X064294Y007901D03*
X064455Y008071D03*
X064503Y005137D03*
X064522Y005961D03*
X064524Y003976D03*
X064531Y005723D03*
X064619Y004363D03*
X064629Y004733D03*
X064659Y005531D03*
X064661Y002806D03*
X064720Y003786D03*
X064728Y004152D03*
X064736Y005326D03*
X064744Y004546D03*
X064850Y002585D03*
X064999Y006606D03*
X065051Y002428D03*
X065259Y002318D03*
X065511Y002180D03*
X065811Y002018D03*
X065838Y006955D03*
X066034Y007055D03*
X066086Y002121D03*
X066232Y006959D03*
X066429Y007093D03*
X066452Y002207D03*
X066464Y001920D03*
X066625Y006959D03*
X066724Y001427D03*
X066740Y001912D03*
X066807Y007083D03*
X067433Y002692D03*
X067521Y007028D03*
X067668Y002694D03*
X067823Y006971D03*
X067884Y002625D03*
X068042Y006991D03*
X068126Y002605D03*
X068262Y006982D03*
X068346Y002633D03*
X068582Y002735D03*
X069279Y002715D03*
X069283Y002979D03*
X069374Y005046D03*
X069547Y005629D03*
X069775Y005471D03*
X070055Y005267D03*
X070133Y002538D03*
X070173Y003459D03*
X070216Y003711D03*
X070263Y004963D03*
X070334Y003948D03*
X070433Y004633D03*
X070574Y003975D03*
G54D11*
X064216Y006117D03*
X064748Y004940D03*
X064787Y003554D03*
X064795Y005727D03*
X064811Y003231D03*
X064866Y006408D03*
X065003Y002983D03*
X065492Y006967D03*
X066862Y007393D03*
X067019Y002689D03*
X067273Y006988D03*
X068019Y001727D03*
X068787Y001952D03*
X068807Y001503D03*
X069090Y003200D03*
X069129Y005719D03*
X069137Y006714D03*
X069137Y003841D03*
X069157Y003562D03*
X069169Y004542D03*
X069269Y005953D03*
X069351Y006571D03*
X069401Y006251D03*
X069834Y002227D03*
X070196Y001503D03*
X070334Y005928D03*
G54D12*
X065078Y008387D03*
X066825D03*
X067976Y002042D03*
X069391Y002095D03*
X070583Y001688D03*
X070726Y004883D03*
G54D13*
X068386Y008661D03*
G54D10*
X070908Y012296D03*
G54D10*
X070863Y011997D03*
G54D10*
X070722Y011828D03*
G54D10*
X070575Y011635D03*
G54D10*
X070323Y011639D03*
G54D10*
X070109Y011549D03*
G54D10*
X069894Y011430D03*
G54D10*
X069708Y011280D03*
G54D10*
X069536Y011138D03*
G54D10*
X069328Y010997D03*
G54D10*
X069167Y010827D03*
G54D10*
X069119Y013761D03*
G54D10*
X069100Y012937D03*
G54D10*
X069098Y014921D03*
G54D10*
X069091Y013174D03*
G54D10*
X069003Y014535D03*
G54D10*
X068993Y014164D03*
G54D10*
X068963Y013366D03*
G54D10*
X068961Y016092D03*
G54D10*
X068902Y015112D03*
G54D10*
X068894Y014745D03*
G54D10*
X068886Y013572D03*
G54D10*
X068878Y014352D03*
G54D10*
X068772Y016312D03*
G54D10*
X068623Y012292D03*
G54D10*
X068571Y016470D03*
G54D10*
X068363Y016580D03*
G54D10*
X068111Y016718D03*
G54D10*
X067812Y016879D03*
G54D10*
X067784Y011942D03*
G54D10*
X067588Y011843D03*
G54D10*
X067536Y016777D03*
G54D10*
X067390Y011938D03*
G54D10*
X067193Y011804D03*
G54D10*
X067170Y016690D03*
G54D10*
X067158Y016978D03*
G54D10*
X066997Y011938D03*
G54D10*
X066898Y017470D03*
G54D10*
X066882Y016985D03*
G54D10*
X066815Y011814D03*
G54D10*
X066189Y016206D03*
G54D10*
X066101Y011869D03*
G54D10*
X065954Y016203D03*
G54D10*
X065799Y011926D03*
G54D10*
X065738Y016273D03*
G54D10*
X065580Y011907D03*
G54D10*
X065496Y016293D03*
G54D10*
X065360Y011915D03*
G54D10*
X065276Y016265D03*
G54D10*
X065040Y016163D03*
G54D10*
X064343Y016182D03*
G54D10*
X064339Y015919D03*
G54D10*
X064249Y013852D03*
G54D10*
X064075Y013269D03*
G54D10*
X063847Y013426D03*
G54D10*
X063567Y013631D03*
G54D10*
X063489Y016359D03*
G54D10*
X063449Y015438D03*
G54D10*
X063406Y015186D03*
G54D10*
X063359Y013934D03*
G54D10*
X063288Y014950D03*
G54D10*
X063189Y014265D03*
G54D10*
X063048Y014922D03*
G54D11*
X069406Y012781D03*
G54D11*
X068875Y013958D03*
G54D11*
X068835Y015344D03*
G54D11*
X068827Y013170D03*
G54D11*
X068812Y015667D03*
G54D11*
X068756Y012489D03*
G54D11*
X068619Y015915D03*
G54D11*
X068130Y011931D03*
G54D11*
X066760Y011505D03*
G54D11*
X066603Y016209D03*
G54D11*
X066350Y011909D03*
G54D11*
X065603Y017170D03*
G54D11*
X064835Y016946D03*
G54D11*
X064815Y017395D03*
G54D11*
X064532Y015698D03*
G54D11*
X064493Y013179D03*
G54D11*
X064485Y012184D03*
G54D11*
X064485Y015056D03*
G54D11*
X064465Y015336D03*
G54D11*
X064453Y014356D03*
G54D11*
X064354Y012945D03*
G54D11*
X064271Y012326D03*
G54D11*
X064221Y012647D03*
G54D11*
X063788Y016670D03*
G54D11*
X063426Y017395D03*
G54D11*
X063288Y012970D03*
G54D12*
X068544Y010510D03*
G54D12*
X066797D03*
G54D12*
X065646Y016856D03*
G54D12*
X064231Y016802D03*
G54D12*
X063039Y017210D03*
G54D12*
X062896Y014015D03*
G54D13*
X065236Y010236D03*
G54D10*
X072162Y006601D03*
X072208Y006900D03*
X072349Y007069D03*
X072496Y007263D03*
X072748Y007259D03*
X072962Y007349D03*
X073177Y007468D03*
X073363Y007617D03*
X073535Y007759D03*
X073742Y007901D03*
X073904Y008071D03*
X073952Y005137D03*
X073971Y005961D03*
X073973Y003976D03*
X073980Y005723D03*
X074068Y004363D03*
X074077Y004733D03*
X074108Y005531D03*
X074110Y002806D03*
X074169Y003786D03*
X074177Y004152D03*
X074185Y005326D03*
X074192Y004546D03*
X074299Y002585D03*
X074448Y006606D03*
X074500Y002428D03*
X074708Y002318D03*
X074960Y002180D03*
X075259Y002018D03*
X075287Y006955D03*
X075483Y007055D03*
X075535Y002121D03*
X075681Y006959D03*
X075877Y007093D03*
X075901Y002207D03*
X075913Y001920D03*
X076074Y006959D03*
X076173Y001427D03*
X076188Y001912D03*
X076256Y007083D03*
X076881Y002692D03*
X076970Y007028D03*
X077117Y002694D03*
X077272Y006971D03*
X077333Y002625D03*
X077491Y006991D03*
X077575Y002605D03*
X077711Y006982D03*
X077795Y002633D03*
X078031Y002735D03*
X078728Y002715D03*
X078732Y002979D03*
X078822Y005046D03*
X078996Y005629D03*
X079224Y005471D03*
X079503Y005267D03*
X079582Y002538D03*
X079622Y003459D03*
X079665Y003711D03*
X079712Y004963D03*
X079783Y003948D03*
X079881Y004633D03*
X080023Y003975D03*
G54D11*
X073665Y006117D03*
X074196Y004940D03*
X074236Y003554D03*
X074244Y005727D03*
X074259Y003231D03*
X074314Y006408D03*
X074452Y002983D03*
X074941Y006967D03*
X076311Y007393D03*
X076468Y002689D03*
X076721Y006988D03*
X077468Y001727D03*
X078236Y001952D03*
X078255Y001503D03*
X078539Y003200D03*
X078578Y005719D03*
X078586Y006714D03*
X078586Y003841D03*
X078606Y003562D03*
X078618Y004542D03*
X078717Y005953D03*
X078800Y006571D03*
X078850Y006251D03*
X079283Y002227D03*
X079645Y001503D03*
X079783Y005928D03*
G54D12*
X074527Y008387D03*
X076274D03*
X077425Y002042D03*
X078840Y002095D03*
X080032Y001688D03*
X080175Y004883D03*
G54D13*
X077835Y008661D03*
G54D10*
X080357Y012296D03*
G54D10*
X080312Y011997D03*
G54D10*
X080171Y011828D03*
G54D10*
X080024Y011635D03*
G54D10*
X079772Y011639D03*
G54D10*
X079557Y011549D03*
G54D10*
X079343Y011430D03*
G54D10*
X079157Y011280D03*
G54D10*
X078984Y011138D03*
G54D10*
X078777Y010997D03*
G54D10*
X078616Y010827D03*
G54D10*
X078567Y013761D03*
G54D10*
X078549Y012937D03*
G54D10*
X078547Y014921D03*
G54D10*
X078540Y013174D03*
G54D10*
X078452Y014535D03*
G54D10*
X078442Y014164D03*
G54D10*
X078412Y013366D03*
G54D10*
X078410Y016092D03*
G54D10*
X078351Y015112D03*
G54D10*
X078343Y014745D03*
G54D10*
X078335Y013572D03*
G54D10*
X078327Y014352D03*
G54D10*
X078221Y016312D03*
G54D10*
X078072Y012292D03*
G54D10*
X078020Y016470D03*
G54D10*
X077812Y016580D03*
G54D10*
X077560Y016718D03*
G54D10*
X077260Y016879D03*
G54D10*
X077233Y011942D03*
G54D10*
X077037Y011843D03*
G54D10*
X076985Y016777D03*
G54D10*
X076839Y011938D03*
G54D10*
X076642Y011804D03*
G54D10*
X076619Y016690D03*
G54D10*
X076607Y016978D03*
G54D10*
X076445Y011938D03*
G54D10*
X076347Y017470D03*
G54D10*
X076331Y016985D03*
G54D10*
X076264Y011814D03*
G54D10*
X075638Y016206D03*
G54D10*
X075550Y011869D03*
G54D10*
X075402Y016203D03*
G54D10*
X075247Y011926D03*
G54D10*
X075187Y016273D03*
G54D10*
X075028Y011907D03*
G54D10*
X074945Y016293D03*
G54D10*
X074809Y011915D03*
G54D10*
X074725Y016265D03*
G54D10*
X074489Y016163D03*
G54D10*
X073792Y016182D03*
G54D10*
X073788Y015919D03*
G54D10*
X073697Y013852D03*
G54D10*
X073524Y013269D03*
G54D10*
X073296Y013426D03*
G54D10*
X073016Y013631D03*
G54D10*
X072938Y016359D03*
G54D10*
X072898Y015438D03*
G54D10*
X072855Y015186D03*
G54D10*
X072808Y013934D03*
G54D10*
X072737Y014950D03*
G54D10*
X072638Y014265D03*
G54D10*
X072497Y014922D03*
G54D11*
X078855Y012781D03*
G54D11*
X078323Y013958D03*
G54D11*
X078284Y015344D03*
G54D11*
X078276Y013170D03*
G54D11*
X078260Y015667D03*
G54D11*
X078205Y012489D03*
G54D11*
X078067Y015915D03*
G54D11*
X077578Y011931D03*
G54D11*
X076209Y011505D03*
G54D11*
X076052Y016209D03*
G54D11*
X075798Y011909D03*
G54D11*
X075052Y017170D03*
G54D11*
X074284Y016946D03*
G54D11*
X074264Y017395D03*
G54D11*
X073981Y015698D03*
G54D11*
X073941Y013179D03*
G54D11*
X073934Y012184D03*
G54D11*
X073934Y015056D03*
G54D11*
X073914Y015336D03*
G54D11*
X073902Y014356D03*
G54D11*
X073802Y012945D03*
G54D11*
X073720Y012326D03*
G54D11*
X073670Y012647D03*
G54D11*
X073237Y016670D03*
G54D11*
X072875Y017395D03*
G54D11*
X072737Y012970D03*
G54D12*
X077993Y010510D03*
G54D12*
X076245D03*
G54D12*
X075095Y016856D03*
G54D12*
X073680Y016802D03*
G54D12*
X072487Y017210D03*
G54D12*
X072345Y014015D03*
G54D13*
X074685Y010236D03*
G54D10*
X081611Y006601D03*
X081657Y006900D03*
X081798Y007069D03*
X081944Y007263D03*
X082196Y007259D03*
X082411Y007349D03*
X082625Y007468D03*
X082812Y007617D03*
X082984Y007759D03*
X083191Y007901D03*
X083353Y008071D03*
X083401Y005137D03*
X083419Y005961D03*
X083422Y003976D03*
X083429Y005723D03*
X083517Y004363D03*
X083526Y004733D03*
X083556Y005531D03*
X083559Y002806D03*
X083618Y003786D03*
X083625Y004152D03*
X083633Y005326D03*
X083641Y004546D03*
X083748Y002585D03*
X083896Y006606D03*
X083948Y002428D03*
X084157Y002318D03*
X084409Y002180D03*
X084708Y002018D03*
X084736Y006955D03*
X084932Y007055D03*
X084984Y002121D03*
X085129Y006959D03*
X085326Y007093D03*
X085350Y002207D03*
X085362Y001920D03*
X085523Y006959D03*
X085622Y001427D03*
X085637Y001912D03*
X085705Y007083D03*
X086330Y002692D03*
X086419Y007028D03*
X086566Y002694D03*
X086721Y006971D03*
X086782Y002625D03*
X086940Y006991D03*
X087024Y002605D03*
X087160Y006982D03*
X087244Y002633D03*
X087480Y002735D03*
X088177Y002715D03*
X088181Y002979D03*
X088271Y005046D03*
X088444Y005629D03*
X088673Y005471D03*
X088952Y005267D03*
X089031Y002538D03*
X089070Y003459D03*
X089114Y003711D03*
X089161Y004963D03*
X089232Y003948D03*
X089330Y004633D03*
X089472Y003975D03*
G54D11*
X083114Y006117D03*
X083645Y004940D03*
X083685Y003554D03*
X083692Y005727D03*
X083708Y003231D03*
X083763Y006408D03*
X083901Y002983D03*
X084390Y006967D03*
X085759Y007393D03*
X085917Y002689D03*
X086170Y006988D03*
X086917Y001727D03*
X087685Y001952D03*
X087704Y001503D03*
X087988Y003200D03*
X088027Y005719D03*
X088035Y006714D03*
X088035Y003841D03*
X088055Y003562D03*
X088066Y004542D03*
X088166Y005953D03*
X088248Y006571D03*
X088299Y006251D03*
X088732Y002227D03*
X089094Y001503D03*
X089232Y005928D03*
G54D12*
X083976Y008387D03*
X085723D03*
X086874Y002042D03*
X088289Y002095D03*
X089481Y001688D03*
X089624Y004883D03*
G54D13*
X087283Y008661D03*
G54D10*
X089806Y012296D03*
G54D10*
X089760Y011997D03*
G54D10*
X089620Y011828D03*
G54D10*
X089473Y011635D03*
G54D10*
X089221Y011639D03*
G54D10*
X089006Y011549D03*
G54D10*
X088792Y011430D03*
G54D10*
X088606Y011280D03*
G54D10*
X088433Y011138D03*
G54D10*
X088226Y010997D03*
G54D10*
X088065Y010827D03*
G54D10*
X088016Y013761D03*
G54D10*
X087998Y012937D03*
G54D10*
X087995Y014921D03*
G54D10*
X087989Y013174D03*
G54D10*
X087900Y014535D03*
G54D10*
X087891Y014164D03*
G54D10*
X087861Y013366D03*
G54D10*
X087859Y016092D03*
G54D10*
X087800Y015112D03*
G54D10*
X087792Y014745D03*
G54D10*
X087784Y013572D03*
G54D10*
X087776Y014352D03*
G54D10*
X087670Y016312D03*
G54D10*
X087521Y012292D03*
G54D10*
X087469Y016470D03*
G54D10*
X087260Y016580D03*
G54D10*
X087008Y016718D03*
G54D10*
X086709Y016879D03*
G54D10*
X086682Y011942D03*
G54D10*
X086486Y011843D03*
G54D10*
X086434Y016777D03*
G54D10*
X086288Y011938D03*
G54D10*
X086091Y011804D03*
G54D10*
X086067Y016690D03*
G54D10*
X086056Y016978D03*
G54D10*
X085894Y011938D03*
G54D10*
X085796Y017470D03*
G54D10*
X085780Y016985D03*
G54D10*
X085713Y011814D03*
G54D10*
X085087Y016206D03*
G54D10*
X084998Y011869D03*
G54D10*
X084851Y016203D03*
G54D10*
X084696Y011926D03*
G54D10*
X084636Y016273D03*
G54D10*
X084477Y011907D03*
G54D10*
X084393Y016293D03*
G54D10*
X084258Y011915D03*
G54D10*
X084174Y016265D03*
G54D10*
X083938Y016163D03*
G54D10*
X083241Y016182D03*
G54D10*
X083237Y015919D03*
G54D10*
X083146Y013852D03*
G54D10*
X082973Y013269D03*
G54D10*
X082745Y013426D03*
G54D10*
X082465Y013631D03*
G54D10*
X082386Y016359D03*
G54D10*
X082347Y015438D03*
G54D10*
X082304Y015186D03*
G54D10*
X082256Y013934D03*
G54D10*
X082186Y014950D03*
G54D10*
X082087Y014265D03*
G54D10*
X081945Y014922D03*
G54D11*
X088304Y012781D03*
G54D11*
X087772Y013958D03*
G54D11*
X087733Y015344D03*
G54D11*
X087725Y013170D03*
G54D11*
X087709Y015667D03*
G54D11*
X087654Y012489D03*
G54D11*
X087516Y015915D03*
G54D11*
X087027Y011931D03*
G54D11*
X085658Y011505D03*
G54D11*
X085501Y016209D03*
G54D11*
X085247Y011909D03*
G54D11*
X084501Y017170D03*
G54D11*
X083733Y016946D03*
G54D11*
X083713Y017395D03*
G54D11*
X083430Y015698D03*
G54D11*
X083390Y013179D03*
G54D11*
X083382Y012184D03*
G54D11*
X083382Y015056D03*
G54D11*
X083363Y015336D03*
G54D11*
X083351Y014356D03*
G54D11*
X083251Y012945D03*
G54D11*
X083169Y012326D03*
G54D11*
X083119Y012647D03*
G54D11*
X082686Y016670D03*
G54D11*
X082323Y017395D03*
G54D11*
X082186Y012970D03*
G54D12*
X087441Y010510D03*
G54D12*
X085694D03*
G54D12*
X084544Y016856D03*
G54D12*
X083128Y016802D03*
G54D12*
X081936Y017210D03*
G54D12*
X081794Y014015D03*
G54D13*
X084134Y010236D03*
G54D10*
X091060Y006601D03*
X091106Y006900D03*
X091246Y007069D03*
X091393Y007263D03*
X091645Y007259D03*
X091860Y007349D03*
X092074Y007468D03*
X092260Y007617D03*
X092433Y007759D03*
X092640Y007901D03*
X092801Y008071D03*
X092850Y005137D03*
X092868Y005961D03*
X092871Y003976D03*
X092877Y005723D03*
X092966Y004363D03*
X092975Y004733D03*
X093005Y005531D03*
X093007Y002806D03*
X093066Y003786D03*
X093074Y004152D03*
X093082Y005326D03*
X093090Y004546D03*
X093196Y002585D03*
X093345Y006606D03*
X093397Y002428D03*
X093606Y002318D03*
X093858Y002180D03*
X094157Y002018D03*
X094185Y006955D03*
X094380Y007055D03*
X094433Y002121D03*
X094578Y006959D03*
X094775Y007093D03*
X094799Y002207D03*
X094811Y001920D03*
X094972Y006959D03*
X095070Y001427D03*
X095086Y001912D03*
X095153Y007083D03*
X095779Y002692D03*
X095868Y007028D03*
X096015Y002694D03*
X096170Y006971D03*
X096231Y002625D03*
X096389Y006991D03*
X096473Y002605D03*
X096609Y006982D03*
X096692Y002633D03*
X096929Y002735D03*
X097625Y002715D03*
X097629Y002979D03*
X097720Y005046D03*
X097893Y005629D03*
X098122Y005471D03*
X098401Y005267D03*
X098480Y002538D03*
X098519Y003459D03*
X098562Y003711D03*
X098610Y004963D03*
X098681Y003948D03*
X098779Y004633D03*
X098921Y003975D03*
G54D11*
X092562Y006117D03*
X093094Y004940D03*
X093133Y003554D03*
X093141Y005727D03*
X093157Y003231D03*
X093212Y006408D03*
X093350Y002983D03*
X093839Y006967D03*
X095208Y007393D03*
X095366Y002689D03*
X095619Y006988D03*
X096366Y001727D03*
X097133Y001952D03*
X097153Y001503D03*
X097437Y003200D03*
X097476Y005719D03*
X097484Y006714D03*
X097484Y003841D03*
X097503Y003562D03*
X097515Y004542D03*
X097615Y005953D03*
X097697Y006571D03*
X097748Y006251D03*
X098181Y002227D03*
X098543Y001503D03*
X098681Y005928D03*
G54D12*
X093425Y008387D03*
X095172D03*
X096322Y002042D03*
X097738Y002095D03*
X098930Y001688D03*
X099072Y004883D03*
G54D13*
X096732Y008661D03*
G54D10*
X099255Y012296D03*
G54D10*
X099209Y011997D03*
G54D10*
X099068Y011828D03*
G54D10*
X098922Y011635D03*
G54D10*
X098670Y011639D03*
G54D10*
X098455Y011549D03*
G54D10*
X098241Y011430D03*
G54D10*
X098055Y011280D03*
G54D10*
X097882Y011138D03*
G54D10*
X097675Y010997D03*
G54D10*
X097513Y010827D03*
G54D10*
X097465Y013761D03*
G54D10*
X097447Y012937D03*
G54D10*
X097444Y014921D03*
G54D10*
X097438Y013174D03*
G54D10*
X097349Y014535D03*
G54D10*
X097340Y014164D03*
G54D10*
X097310Y013366D03*
G54D10*
X097308Y016092D03*
G54D10*
X097249Y015112D03*
G54D10*
X097241Y014745D03*
G54D10*
X097233Y013572D03*
G54D10*
X097225Y014352D03*
G54D10*
X097119Y016312D03*
G54D10*
X096970Y012292D03*
G54D10*
X096918Y016470D03*
G54D10*
X096709Y016580D03*
G54D10*
X096457Y016718D03*
G54D10*
X096158Y016879D03*
G54D10*
X096130Y011942D03*
G54D10*
X095934Y011843D03*
G54D10*
X095882Y016777D03*
G54D10*
X095737Y011938D03*
G54D10*
X095540Y011804D03*
G54D10*
X095516Y016690D03*
G54D10*
X095504Y016978D03*
G54D10*
X095343Y011938D03*
G54D10*
X095245Y017470D03*
G54D10*
X095229Y016985D03*
G54D10*
X095162Y011814D03*
G54D10*
X094536Y016206D03*
G54D10*
X094447Y011869D03*
G54D10*
X094300Y016203D03*
G54D10*
X094145Y011926D03*
G54D10*
X094084Y016273D03*
G54D10*
X093926Y011907D03*
G54D10*
X093842Y016293D03*
G54D10*
X093706Y011915D03*
G54D10*
X093623Y016265D03*
G54D10*
X093386Y016163D03*
G54D10*
X092689Y016182D03*
G54D10*
X092686Y015919D03*
G54D10*
X092595Y013852D03*
G54D10*
X092422Y013269D03*
G54D10*
X092193Y013426D03*
G54D10*
X091914Y013631D03*
G54D10*
X091835Y016359D03*
G54D10*
X091796Y015438D03*
G54D10*
X091752Y015186D03*
G54D10*
X091705Y013934D03*
G54D10*
X091634Y014950D03*
G54D10*
X091536Y014265D03*
G54D10*
X091394Y014922D03*
G54D11*
X097752Y012781D03*
G54D11*
X097221Y013958D03*
G54D11*
X097182Y015344D03*
G54D11*
X097174Y013170D03*
G54D11*
X097158Y015667D03*
G54D11*
X097103Y012489D03*
G54D11*
X096965Y015915D03*
G54D11*
X096476Y011931D03*
G54D11*
X095107Y011505D03*
G54D11*
X094949Y016209D03*
G54D11*
X094696Y011909D03*
G54D11*
X093949Y017170D03*
G54D11*
X093182Y016946D03*
G54D11*
X093162Y017395D03*
G54D11*
X092878Y015698D03*
G54D11*
X092839Y013179D03*
G54D11*
X092831Y012184D03*
G54D11*
X092831Y015056D03*
G54D11*
X092812Y015336D03*
G54D11*
X092800Y014356D03*
G54D11*
X092700Y012945D03*
G54D11*
X092618Y012326D03*
G54D11*
X092567Y012647D03*
G54D11*
X092134Y016670D03*
G54D11*
X091772Y017395D03*
G54D11*
X091634Y012970D03*
G54D12*
X096890Y010510D03*
G54D12*
X095143D03*
G54D12*
X093993Y016856D03*
G54D12*
X092577Y016802D03*
G54D12*
X091385Y017210D03*
G54D12*
X091243Y014015D03*
G54D13*
X093583Y010236D03*
G54D14*
X002500Y016929D03*
X102776Y015748D03*
X002500Y001969D03*
X102776D03*
G54D15*
X005687Y003922D03*
Y004237D03*
Y004552D03*
Y004866D03*
Y005181D03*
Y005496D03*
Y005811D03*
Y006126D03*
G54D15*
X014550Y003922D03*
G54D15*
Y004237D03*
G54D15*
Y004552D03*
G54D15*
Y004866D03*
G54D15*
Y005181D03*
G54D15*
Y005496D03*
G54D15*
Y005811D03*
G54D15*
Y006126D03*
G54D15*
Y014976D03*
G54D15*
Y014661D03*
G54D15*
Y014346D03*
G54D15*
Y014031D03*
G54D15*
Y013716D03*
G54D15*
Y013401D03*
G54D15*
Y013086D03*
G54D15*
Y012771D03*
G54D15*
X005687Y014976D03*
G54D15*
Y014661D03*
G54D15*
Y014346D03*
G54D15*
Y014031D03*
G54D15*
Y013716D03*
G54D15*
Y013401D03*
G54D15*
Y013086D03*
G54D15*
Y012771D03*
X015135Y003922D03*
Y004237D03*
Y004552D03*
Y004866D03*
Y005181D03*
Y005496D03*
Y005811D03*
Y006126D03*
G54D15*
X023998Y003922D03*
G54D15*
Y004237D03*
G54D15*
Y004552D03*
G54D15*
Y004866D03*
G54D15*
Y005181D03*
G54D15*
Y005496D03*
G54D15*
Y005811D03*
G54D15*
Y006126D03*
G54D15*
Y014976D03*
G54D15*
Y014661D03*
G54D15*
Y014346D03*
G54D15*
Y014031D03*
G54D15*
Y013716D03*
G54D15*
Y013401D03*
G54D15*
Y013086D03*
G54D15*
Y012771D03*
G54D15*
X015135Y014976D03*
G54D15*
Y014661D03*
G54D15*
Y014346D03*
G54D15*
Y014031D03*
G54D15*
Y013716D03*
G54D15*
Y013401D03*
G54D15*
Y013086D03*
G54D15*
Y012771D03*
X024584Y003922D03*
Y004237D03*
Y004552D03*
Y004866D03*
Y005181D03*
Y005496D03*
Y005811D03*
Y006126D03*
G54D15*
X033447Y003922D03*
G54D15*
Y004237D03*
G54D15*
Y004552D03*
G54D15*
Y004866D03*
G54D15*
Y005181D03*
G54D15*
Y005496D03*
G54D15*
Y005811D03*
G54D15*
Y006126D03*
G54D15*
Y014976D03*
G54D15*
Y014661D03*
G54D15*
Y014346D03*
G54D15*
Y014031D03*
G54D15*
Y013716D03*
G54D15*
Y013401D03*
G54D15*
Y013086D03*
G54D15*
Y012771D03*
G54D15*
X024584Y014976D03*
G54D15*
Y014661D03*
G54D15*
Y014346D03*
G54D15*
Y014031D03*
G54D15*
Y013716D03*
G54D15*
Y013401D03*
G54D15*
Y013086D03*
G54D15*
Y012771D03*
X034033Y003922D03*
Y004237D03*
Y004552D03*
Y004866D03*
Y005181D03*
Y005496D03*
Y005811D03*
Y006126D03*
G54D15*
X042896Y003922D03*
G54D15*
Y004237D03*
G54D15*
Y004552D03*
G54D15*
Y004866D03*
G54D15*
Y005181D03*
G54D15*
Y005496D03*
G54D15*
Y005811D03*
G54D15*
Y006126D03*
G54D15*
Y014976D03*
G54D15*
Y014661D03*
G54D15*
Y014346D03*
G54D15*
Y014031D03*
G54D15*
Y013716D03*
G54D15*
Y013401D03*
G54D15*
Y013086D03*
G54D15*
Y012771D03*
G54D15*
X034033Y014976D03*
G54D15*
Y014661D03*
G54D15*
Y014346D03*
G54D15*
Y014031D03*
G54D15*
Y013716D03*
G54D15*
Y013401D03*
G54D15*
Y013086D03*
G54D15*
Y012771D03*
X043482Y003922D03*
Y004237D03*
Y004552D03*
Y004866D03*
Y005181D03*
Y005496D03*
Y005811D03*
Y006126D03*
G54D15*
X052345Y003922D03*
G54D15*
Y004237D03*
G54D15*
Y004552D03*
G54D15*
Y004866D03*
G54D15*
Y005181D03*
G54D15*
Y005496D03*
G54D15*
Y005811D03*
G54D15*
Y006126D03*
G54D15*
Y014976D03*
G54D15*
Y014661D03*
G54D15*
Y014346D03*
G54D15*
Y014031D03*
G54D15*
Y013716D03*
G54D15*
Y013401D03*
G54D15*
Y013086D03*
G54D15*
Y012771D03*
G54D15*
X043482Y014976D03*
G54D15*
Y014661D03*
G54D15*
Y014346D03*
G54D15*
Y014031D03*
G54D15*
Y013716D03*
G54D15*
Y013401D03*
G54D15*
Y013086D03*
G54D15*
Y012771D03*
X052931Y003922D03*
Y004237D03*
Y004552D03*
Y004866D03*
Y005181D03*
Y005496D03*
Y005811D03*
Y006126D03*
G54D15*
X061794Y003922D03*
G54D15*
Y004237D03*
G54D15*
Y004552D03*
G54D15*
Y004866D03*
G54D15*
Y005181D03*
G54D15*
Y005496D03*
G54D15*
Y005811D03*
G54D15*
Y006126D03*
G54D15*
Y014976D03*
G54D15*
Y014661D03*
G54D15*
Y014346D03*
G54D15*
Y014031D03*
G54D15*
Y013716D03*
G54D15*
Y013401D03*
G54D15*
Y013086D03*
G54D15*
Y012771D03*
G54D15*
X052931Y014976D03*
G54D15*
Y014661D03*
G54D15*
Y014346D03*
G54D15*
Y014031D03*
G54D15*
Y013716D03*
G54D15*
Y013401D03*
G54D15*
Y013086D03*
G54D15*
Y012771D03*
X062380Y003922D03*
Y004237D03*
Y004552D03*
Y004866D03*
Y005181D03*
Y005496D03*
Y005811D03*
Y006126D03*
G54D15*
X071242Y003922D03*
G54D15*
Y004237D03*
G54D15*
Y004552D03*
G54D15*
Y004866D03*
G54D15*
Y005181D03*
G54D15*
Y005496D03*
G54D15*
Y005811D03*
G54D15*
Y006126D03*
G54D15*
Y014976D03*
G54D15*
Y014661D03*
G54D15*
Y014346D03*
G54D15*
Y014031D03*
G54D15*
Y013716D03*
G54D15*
Y013401D03*
G54D15*
Y013086D03*
G54D15*
Y012771D03*
G54D15*
X062380Y014976D03*
G54D15*
Y014661D03*
G54D15*
Y014346D03*
G54D15*
Y014031D03*
G54D15*
Y013716D03*
G54D15*
Y013401D03*
G54D15*
Y013086D03*
G54D15*
Y012771D03*
X071828Y003922D03*
Y004237D03*
Y004552D03*
Y004866D03*
Y005181D03*
Y005496D03*
Y005811D03*
Y006126D03*
G54D15*
X080691Y003922D03*
G54D15*
Y004237D03*
G54D15*
Y004552D03*
G54D15*
Y004866D03*
G54D15*
Y005181D03*
G54D15*
Y005496D03*
G54D15*
Y005811D03*
G54D15*
Y006126D03*
G54D15*
Y014976D03*
G54D15*
Y014661D03*
G54D15*
Y014346D03*
G54D15*
Y014031D03*
G54D15*
Y013716D03*
G54D15*
Y013401D03*
G54D15*
Y013086D03*
G54D15*
Y012771D03*
G54D15*
X071828Y014976D03*
G54D15*
Y014661D03*
G54D15*
Y014346D03*
G54D15*
Y014031D03*
G54D15*
Y013716D03*
G54D15*
Y013401D03*
G54D15*
Y013086D03*
G54D15*
Y012771D03*
X081277Y003922D03*
Y004237D03*
Y004552D03*
Y004866D03*
Y005181D03*
Y005496D03*
Y005811D03*
Y006126D03*
G54D15*
X090140Y003922D03*
G54D15*
Y004237D03*
G54D15*
Y004552D03*
G54D15*
Y004866D03*
G54D15*
Y005181D03*
G54D15*
Y005496D03*
G54D15*
Y005811D03*
G54D15*
Y006126D03*
G54D15*
Y014976D03*
G54D15*
Y014661D03*
G54D15*
Y014346D03*
G54D15*
Y014031D03*
G54D15*
Y013716D03*
G54D15*
Y013401D03*
G54D15*
Y013086D03*
G54D15*
Y012771D03*
G54D15*
X081277Y014976D03*
G54D15*
Y014661D03*
G54D15*
Y014346D03*
G54D15*
Y014031D03*
G54D15*
Y013716D03*
G54D15*
Y013401D03*
G54D15*
Y013086D03*
G54D15*
Y012771D03*
X090726Y003922D03*
Y004237D03*
Y004552D03*
Y004866D03*
Y005181D03*
Y005496D03*
Y005811D03*
Y006126D03*
G54D15*
X099589Y003922D03*
G54D15*
Y004237D03*
G54D15*
Y004552D03*
G54D15*
Y004866D03*
G54D15*
Y005181D03*
G54D15*
Y005496D03*
G54D15*
Y005811D03*
G54D15*
Y006126D03*
G54D15*
Y014976D03*
G54D15*
Y014661D03*
G54D15*
Y014346D03*
G54D15*
Y014031D03*
G54D15*
Y013716D03*
G54D15*
Y013401D03*
G54D15*
Y013086D03*
G54D15*
Y012771D03*
G54D15*
X090726Y014976D03*
G54D15*
Y014661D03*
G54D15*
Y014346D03*
G54D15*
Y014031D03*
G54D15*
Y013716D03*
G54D15*
Y013401D03*
G54D15*
Y013086D03*
G54D15*
Y012771D03*
M02*
