%TF.GenerationSoftware,KiCad,Pcbnew,(6.0.5-0)*%
%TF.CreationDate,2022-06-28T13:32:59-07:00*%
%TF.ProjectId,caravel_pcb_v3_FTDI_flexy,63617261-7665-46c5-9f70-63625f76335f,rev?*%
%TF.SameCoordinates,Original*%
%TF.FileFunction,Soldermask,Top*%
%TF.FilePolarity,Negative*%
%FSLAX46Y46*%
G04 Gerber Fmt 4.6, Leading zero omitted, Abs format (unit mm)*
G04 Created by KiCad (PCBNEW (6.0.5-0)) date 2022-06-28 13:32:59*
%MOMM*%
%LPD*%
G01*
G04 APERTURE LIST*
G04 Aperture macros list*
%AMRoundRect*
0 Rectangle with rounded corners*
0 $1 Rounding radius*
0 $2 $3 $4 $5 $6 $7 $8 $9 X,Y pos of 4 corners*
0 Add a 4 corners polygon primitive as box body*
4,1,4,$2,$3,$4,$5,$6,$7,$8,$9,$2,$3,0*
0 Add four circle primitives for the rounded corners*
1,1,$1+$1,$2,$3*
1,1,$1+$1,$4,$5*
1,1,$1+$1,$6,$7*
1,1,$1+$1,$8,$9*
0 Add four rect primitives between the rounded corners*
20,1,$1+$1,$2,$3,$4,$5,0*
20,1,$1+$1,$4,$5,$6,$7,0*
20,1,$1+$1,$6,$7,$8,$9,0*
20,1,$1+$1,$8,$9,$2,$3,0*%
G04 Aperture macros list end*
%ADD10C,0.500000*%
%ADD11R,0.400000X1.350000*%
%ADD12R,1.600000X1.400000*%
%ADD13R,1.900000X1.900000*%
%ADD14O,0.900000X1.800000*%
%ADD15R,2.000000X1.500000*%
%ADD16R,2.000000X3.800000*%
%ADD17RoundRect,0.250000X-0.375000X-0.625000X0.375000X-0.625000X0.375000X0.625000X-0.375000X0.625000X0*%
%ADD18RoundRect,0.250000X-0.250000X-0.475000X0.250000X-0.475000X0.250000X0.475000X-0.250000X0.475000X0*%
%ADD19R,1.650000X0.650000*%
%ADD20RoundRect,0.250000X-0.650000X0.325000X-0.650000X-0.325000X0.650000X-0.325000X0.650000X0.325000X0*%
%ADD21R,1.168400X0.355600*%
%ADD22R,1.700000X1.700000*%
%ADD23O,1.700000X1.700000*%
%ADD24RoundRect,0.250000X0.375000X0.625000X-0.375000X0.625000X-0.375000X-0.625000X0.375000X-0.625000X0*%
%ADD25RoundRect,0.250000X-0.625000X0.375000X-0.625000X-0.375000X0.625000X-0.375000X0.625000X0.375000X0*%
%ADD26RoundRect,0.250000X0.262500X0.450000X-0.262500X0.450000X-0.262500X-0.450000X0.262500X-0.450000X0*%
%ADD27RoundRect,0.250000X0.475000X-0.250000X0.475000X0.250000X-0.475000X0.250000X-0.475000X-0.250000X0*%
%ADD28RoundRect,0.250000X-0.475000X0.250000X-0.475000X-0.250000X0.475000X-0.250000X0.475000X0.250000X0*%
%ADD29RoundRect,0.250000X-0.262500X-0.450000X0.262500X-0.450000X0.262500X0.450000X-0.262500X0.450000X0*%
%ADD30R,1.000000X0.700000*%
%ADD31RoundRect,0.250000X0.450000X-0.262500X0.450000X0.262500X-0.450000X0.262500X-0.450000X-0.262500X0*%
%ADD32R,1.016000X0.660400*%
%ADD33RoundRect,0.250000X-0.450000X0.262500X-0.450000X-0.262500X0.450000X-0.262500X0.450000X0.262500X0*%
%ADD34RoundRect,0.250000X0.250000X0.475000X-0.250000X0.475000X-0.250000X-0.475000X0.250000X-0.475000X0*%
%ADD35RoundRect,0.008100X-0.126900X0.471900X-0.126900X-0.471900X0.126900X-0.471900X0.126900X0.471900X0*%
%ADD36RoundRect,0.008100X-0.471900X-0.126900X0.471900X-0.126900X0.471900X0.126900X-0.471900X0.126900X0*%
%ADD37R,6.200000X6.200000*%
%ADD38R,0.400000X1.900000*%
%ADD39O,2.000000X0.950000*%
%ADD40R,1.300000X0.900000*%
%ADD41O,0.950000X2.000000*%
%ADD42R,0.900000X1.300000*%
G04 APERTURE END LIST*
D10*
%TO.C,J1*%
X134700000Y-60325000D03*
X141300000Y-60325000D03*
D11*
X139300000Y-63000000D03*
X138650000Y-63000000D03*
X138000000Y-63000000D03*
X137350000Y-63000000D03*
X136700000Y-63000000D03*
D12*
X141200000Y-62775000D03*
X134800000Y-62775000D03*
D13*
X136800000Y-60325000D03*
X139200000Y-60325000D03*
D14*
X141300000Y-60325000D03*
X134700000Y-60325000D03*
%TD*%
D15*
%TO.C,U5*%
X150063600Y-92444600D03*
X150063600Y-90144600D03*
X150063600Y-87844600D03*
D16*
X143763600Y-90144600D03*
%TD*%
D17*
%TO.C,D3*%
X153770500Y-112649000D03*
X156570500Y-112649000D03*
%TD*%
D18*
%TO.C,C4*%
X110810000Y-78740000D03*
X112710000Y-78740000D03*
%TD*%
D19*
%TO.C,U7*%
X123234000Y-70104000D03*
X123234000Y-68834000D03*
X123234000Y-67564000D03*
X123234000Y-66294000D03*
X116034000Y-66294000D03*
X116034000Y-67564000D03*
X116034000Y-68834000D03*
X116034000Y-70104000D03*
%TD*%
D20*
%TO.C,C12*%
X147370800Y-82167200D03*
X147370800Y-85117200D03*
%TD*%
D21*
%TO.C,U2*%
X157251400Y-61199200D03*
X157251400Y-60538800D03*
X157251400Y-59878400D03*
X155168600Y-59878400D03*
X155168600Y-61199200D03*
%TD*%
D18*
%TO.C,C6*%
X110810000Y-82804000D03*
X112710000Y-82804000D03*
%TD*%
%TO.C,C17*%
X159644000Y-92481400D03*
X161544000Y-92481400D03*
%TD*%
D22*
%TO.C,J5*%
X156953500Y-118999000D03*
D23*
X154413500Y-118999000D03*
%TD*%
D24*
%TO.C,D2*%
X118113000Y-86741000D03*
X115313000Y-86741000D03*
%TD*%
D25*
%TO.C,D1*%
X122555000Y-87246000D03*
X122555000Y-90046000D03*
%TD*%
D26*
%TO.C,R10*%
X112672500Y-64770000D03*
X110847500Y-64770000D03*
%TD*%
D27*
%TO.C,C15*%
X160123500Y-116393000D03*
X160123500Y-114493000D03*
%TD*%
D22*
%TO.C,J7*%
X127762000Y-60706000D03*
D23*
X125222000Y-60706000D03*
X122682000Y-60706000D03*
X120142000Y-60706000D03*
X117602000Y-60706000D03*
X115062000Y-60706000D03*
%TD*%
D28*
%TO.C,C14*%
X144881600Y-83301800D03*
X144881600Y-85201800D03*
%TD*%
D29*
%TO.C,R5*%
X160758500Y-62977200D03*
X162583500Y-62977200D03*
%TD*%
D26*
%TO.C,R7*%
X123213500Y-72644000D03*
X121388500Y-72644000D03*
%TD*%
%TO.C,R11*%
X160274000Y-112522000D03*
X158449000Y-112522000D03*
%TD*%
D29*
%TO.C,R6*%
X155246700Y-62977200D03*
X157071700Y-62977200D03*
%TD*%
D18*
%TO.C,C8*%
X110810000Y-86868000D03*
X112710000Y-86868000D03*
%TD*%
%TO.C,C5*%
X110810000Y-80772000D03*
X112710000Y-80772000D03*
%TD*%
D30*
%TO.C,SW1*%
X157580700Y-101951400D03*
X163580700Y-101951400D03*
X157580700Y-98251400D03*
X163580700Y-98251400D03*
%TD*%
D31*
%TO.C,R8*%
X126390400Y-70762500D03*
X126390400Y-68937500D03*
%TD*%
D26*
%TO.C,R13*%
X112672500Y-68834000D03*
X110847500Y-68834000D03*
%TD*%
D32*
%TO.C,X1*%
X160364800Y-107988100D03*
X160364800Y-106337100D03*
X158764600Y-106337100D03*
X158764600Y-107988100D03*
%TD*%
D22*
%TO.C,J10*%
X101854000Y-61061600D03*
D23*
X101854000Y-63601600D03*
X101854000Y-66141600D03*
X101854000Y-68681600D03*
X101854000Y-71221600D03*
X101854000Y-73761600D03*
X101854000Y-76301600D03*
X101854000Y-78841600D03*
X101854000Y-81381600D03*
X101854000Y-83921600D03*
X101854000Y-86461600D03*
X101854000Y-89001600D03*
X101854000Y-91541600D03*
X101854000Y-94081600D03*
X101854000Y-96621600D03*
X101854000Y-99161600D03*
X101854000Y-101701600D03*
X101854000Y-104241600D03*
X101854000Y-106781600D03*
X101854000Y-109321600D03*
X101854000Y-111861600D03*
X101854000Y-114401600D03*
X101854000Y-116941600D03*
X101854000Y-119481600D03*
X101854000Y-122021600D03*
X101854000Y-124561600D03*
X101854000Y-127101600D03*
%TD*%
D33*
%TO.C,R1*%
X125603000Y-88114500D03*
X125603000Y-89939500D03*
%TD*%
D28*
%TO.C,C13*%
X144932400Y-68569800D03*
X144932400Y-70469800D03*
%TD*%
%TO.C,C22*%
X116027200Y-72329000D03*
X116027200Y-74229000D03*
%TD*%
D18*
%TO.C,C19*%
X159644000Y-90449400D03*
X161544000Y-90449400D03*
%TD*%
D15*
%TO.C,U4*%
X149708000Y-78119000D03*
X149708000Y-75819000D03*
X149708000Y-73519000D03*
D16*
X143408000Y-75819000D03*
%TD*%
D34*
%TO.C,C2*%
X135392200Y-80314800D03*
X133492200Y-80314800D03*
%TD*%
%TO.C,C20*%
X162428000Y-77647800D03*
X160528000Y-77647800D03*
%TD*%
D27*
%TO.C,C3*%
X133731000Y-84008000D03*
X133731000Y-82108000D03*
%TD*%
D34*
%TO.C,C16*%
X162428000Y-73533000D03*
X160528000Y-73533000D03*
%TD*%
D31*
%TO.C,R3*%
X120396000Y-90193500D03*
X120396000Y-88368500D03*
%TD*%
%TO.C,R4*%
X115316000Y-84478500D03*
X115316000Y-82653500D03*
%TD*%
D22*
%TO.C,J6*%
X164060500Y-109728000D03*
D23*
X164060500Y-112268000D03*
%TD*%
D22*
%TO.C,J3*%
X156972000Y-68585000D03*
D23*
X156972000Y-66045000D03*
%TD*%
D20*
%TO.C,C9*%
X147269200Y-67486000D03*
X147269200Y-70436000D03*
%TD*%
D35*
%TO.C,U1*%
X126829000Y-77786000D03*
X126329000Y-77786000D03*
X125829000Y-77786000D03*
X125329000Y-77786000D03*
X124829000Y-77786000D03*
X124329000Y-77786000D03*
X123829000Y-77786000D03*
X123329000Y-77786000D03*
X122829000Y-77786000D03*
X122329000Y-77786000D03*
X121829000Y-77786000D03*
X121329000Y-77786000D03*
D36*
X120204000Y-78911000D03*
X120204000Y-79411000D03*
X120204000Y-79911000D03*
X120204000Y-80411000D03*
X120204000Y-80911000D03*
X120204000Y-81411000D03*
X120204000Y-81911000D03*
X120204000Y-82411000D03*
X120204000Y-82911000D03*
X120204000Y-83411000D03*
X120204000Y-83911000D03*
X120204000Y-84411000D03*
D35*
X121329000Y-85536000D03*
X121829000Y-85536000D03*
X122329000Y-85536000D03*
X122829000Y-85536000D03*
X123329000Y-85536000D03*
X123829000Y-85536000D03*
X124329000Y-85536000D03*
X124829000Y-85536000D03*
X125329000Y-85536000D03*
X125829000Y-85536000D03*
X126329000Y-85536000D03*
X126829000Y-85536000D03*
D36*
X127954000Y-84411000D03*
X127954000Y-83911000D03*
X127954000Y-83411000D03*
X127954000Y-82911000D03*
X127954000Y-82411000D03*
X127954000Y-81911000D03*
X127954000Y-81411000D03*
X127954000Y-80911000D03*
X127954000Y-80411000D03*
X127954000Y-79911000D03*
X127954000Y-79411000D03*
X127954000Y-78911000D03*
D37*
X124079000Y-81661000D03*
%TD*%
D20*
%TO.C,C10*%
X150114000Y-82167200D03*
X150114000Y-85117200D03*
%TD*%
D22*
%TO.C,J11*%
X174345600Y-127101600D03*
D23*
X174345600Y-124561600D03*
X174345600Y-122021600D03*
X174345600Y-119481600D03*
X174345600Y-116941600D03*
X174345600Y-114401600D03*
X174345600Y-111861600D03*
X174345600Y-109321600D03*
X174345600Y-106781600D03*
X174345600Y-104241600D03*
X174345600Y-101701600D03*
X174345600Y-99161600D03*
X174345600Y-96621600D03*
X174345600Y-94081600D03*
X174345600Y-91541600D03*
X174345600Y-89001600D03*
X174345600Y-86461600D03*
X174345600Y-83921600D03*
X174345600Y-81381600D03*
X174345600Y-78841600D03*
X174345600Y-76301600D03*
X174345600Y-73761600D03*
X174345600Y-71221600D03*
X174345600Y-68681600D03*
X174345600Y-66141600D03*
X174345600Y-63601600D03*
X174345600Y-61061600D03*
%TD*%
D21*
%TO.C,U3*%
X162966400Y-61199200D03*
X162966400Y-60538800D03*
X162966400Y-59878400D03*
X160883600Y-59878400D03*
X160883600Y-61199200D03*
%TD*%
D34*
%TO.C,C1*%
X129474000Y-88392000D03*
X127574000Y-88392000D03*
%TD*%
D22*
%TO.C,J2*%
X165989000Y-65791000D03*
D23*
X165989000Y-63251000D03*
%TD*%
D20*
%TO.C,C11*%
X149809200Y-67486000D03*
X149809200Y-70436000D03*
%TD*%
D34*
%TO.C,C18*%
X162428000Y-75565000D03*
X160528000Y-75565000D03*
%TD*%
D22*
%TO.C,J8*%
X154686000Y-76713000D03*
D23*
X154686000Y-74173000D03*
%TD*%
D38*
%TO.C,Y1*%
X128835000Y-73787000D03*
X127635000Y-73787000D03*
X126435000Y-73787000D03*
%TD*%
D33*
%TO.C,R9*%
X126390400Y-65279900D03*
X126390400Y-67104900D03*
%TD*%
D22*
%TO.C,J9*%
X154736800Y-89286000D03*
D23*
X154736800Y-86746000D03*
%TD*%
D18*
%TO.C,C7*%
X110810000Y-84836000D03*
X112710000Y-84836000D03*
%TD*%
D26*
%TO.C,R12*%
X112672500Y-66802000D03*
X110847500Y-66802000D03*
%TD*%
D39*
%TO.C,U6*%
X147320000Y-121786000D03*
D40*
X149170000Y-121786000D03*
X149170000Y-120516000D03*
D39*
X147320000Y-120516000D03*
X147320000Y-119246000D03*
D40*
X149170000Y-119246000D03*
D39*
X147320000Y-117976000D03*
D40*
X149170000Y-117976000D03*
X149170000Y-116706000D03*
D39*
X147320000Y-116706000D03*
D40*
X149170000Y-115436000D03*
D39*
X147320000Y-115436000D03*
D40*
X149170000Y-114166000D03*
D39*
X147320000Y-114166000D03*
X147320000Y-112896000D03*
D40*
X149170000Y-112896000D03*
X149170000Y-111626000D03*
D39*
X147320000Y-111626000D03*
D40*
X149170000Y-110356000D03*
D39*
X147320000Y-110356000D03*
X147320000Y-109086000D03*
D40*
X149170000Y-109086000D03*
X149170000Y-107816000D03*
D39*
X147320000Y-107816000D03*
X147320000Y-106546000D03*
D40*
X149170000Y-106546000D03*
D39*
X147320000Y-105276000D03*
D40*
X149170000Y-105276000D03*
D41*
X142875000Y-100831000D03*
D42*
X142875000Y-98981000D03*
X141605000Y-98981000D03*
D41*
X141605000Y-100831000D03*
X140335000Y-100831000D03*
D42*
X140335000Y-98981000D03*
D41*
X139065000Y-100831000D03*
D42*
X139065000Y-98981000D03*
D41*
X137795000Y-100831000D03*
D42*
X137795000Y-98981000D03*
X136525000Y-98981000D03*
D41*
X136525000Y-100831000D03*
X135255000Y-100831000D03*
D42*
X135255000Y-98981000D03*
X133985000Y-98981000D03*
D41*
X133985000Y-100831000D03*
X132715000Y-100831000D03*
D42*
X132715000Y-98981000D03*
X131445000Y-98981000D03*
D41*
X131445000Y-100831000D03*
X130175000Y-100831000D03*
D42*
X130175000Y-98981000D03*
D41*
X128905000Y-100831000D03*
D42*
X128905000Y-98981000D03*
D41*
X127635000Y-100831000D03*
D42*
X127635000Y-98981000D03*
X126365000Y-98981000D03*
D41*
X126365000Y-100831000D03*
D39*
X121946000Y-105276000D03*
D40*
X120096000Y-105276000D03*
X120096000Y-106546000D03*
D39*
X121946000Y-106546000D03*
D40*
X120096000Y-107816000D03*
D39*
X121946000Y-107816000D03*
X121946000Y-109086000D03*
D40*
X120096000Y-109086000D03*
D39*
X121946000Y-110356000D03*
D40*
X120096000Y-110356000D03*
D39*
X121946000Y-111626000D03*
D40*
X120096000Y-111626000D03*
X120096000Y-112896000D03*
D39*
X121946000Y-112896000D03*
D40*
X120096000Y-114166000D03*
D39*
X121946000Y-114166000D03*
X121946000Y-115436000D03*
D40*
X120096000Y-115436000D03*
D39*
X121946000Y-116706000D03*
D40*
X120096000Y-116706000D03*
D39*
X121946000Y-117976000D03*
D40*
X120096000Y-117976000D03*
X120096000Y-119246000D03*
D39*
X121946000Y-119246000D03*
D40*
X120096000Y-120516000D03*
D39*
X121946000Y-120516000D03*
D40*
X120096000Y-121786000D03*
D39*
X121946000Y-121786000D03*
D41*
X126365000Y-126231000D03*
D42*
X126365000Y-128081000D03*
D41*
X127635000Y-126231000D03*
D42*
X127635000Y-128081000D03*
D41*
X128905000Y-126231000D03*
D42*
X128905000Y-128081000D03*
D41*
X130175000Y-126231000D03*
D42*
X130175000Y-128081000D03*
X131445000Y-128081000D03*
D41*
X131445000Y-126231000D03*
X132715000Y-126231000D03*
D42*
X132715000Y-128081000D03*
X133985000Y-128081000D03*
D41*
X133985000Y-126231000D03*
D42*
X135255000Y-128081000D03*
D41*
X135255000Y-126231000D03*
D42*
X136525000Y-128081000D03*
D41*
X136525000Y-126231000D03*
D42*
X137795000Y-128081000D03*
D41*
X137795000Y-126231000D03*
D42*
X139065000Y-128081000D03*
D41*
X139065000Y-126231000D03*
D42*
X140335000Y-128081000D03*
D41*
X140335000Y-126231000D03*
X141605000Y-126231000D03*
D42*
X141605000Y-128081000D03*
X142875000Y-128081000D03*
D41*
X142875000Y-126231000D03*
%TD*%
D29*
%TO.C,R2*%
X116054500Y-76581000D03*
X117879500Y-76581000D03*
%TD*%
D18*
%TO.C,C21*%
X159644000Y-88417400D03*
X161544000Y-88417400D03*
%TD*%
M02*
