G04 #@! TF.GenerationSoftware,KiCad,Pcbnew,(5.1.10-1-10_14)*
G04 #@! TF.CreationDate,2021-10-28T11:22:58-07:00*
G04 #@! TF.ProjectId,Caravel_breakout,43617261-7665-46c5-9f62-7265616b6f75,rev?*
G04 #@! TF.SameCoordinates,Original*
G04 #@! TF.FileFunction,Soldermask,Top*
G04 #@! TF.FilePolarity,Negative*
%FSLAX46Y46*%
G04 Gerber Fmt 4.6, Leading zero omitted, Abs format (unit mm)*
G04 Created by KiCad (PCBNEW (5.1.10-1-10_14)) date 2021-10-28 11:22:58*
%MOMM*%
%LPD*%
G01*
G04 APERTURE LIST*
%ADD10O,1.000000X1.000000*%
%ADD11R,1.000000X1.000000*%
%ADD12C,0.190000*%
%ADD13C,3.500000*%
G04 APERTURE END LIST*
G36*
G01*
X139168960Y-90280624D02*
X139409376Y-90521040D01*
G75*
G02*
X139409376Y-90719030I-98995J-98995D01*
G01*
X139211386Y-90917020D01*
G75*
G02*
X139013396Y-90917020I-98995J98995D01*
G01*
X138772980Y-90676604D01*
G75*
G02*
X138772980Y-90478614I98995J98995D01*
G01*
X138970970Y-90280624D01*
G75*
G02*
X139168960Y-90280624I98995J-98995D01*
G01*
G37*
G36*
G01*
X139847782Y-89601802D02*
X140088198Y-89842218D01*
G75*
G02*
X140088198Y-90040208I-98995J-98995D01*
G01*
X139890208Y-90238198D01*
G75*
G02*
X139692218Y-90238198I-98995J98995D01*
G01*
X139451802Y-89997782D01*
G75*
G02*
X139451802Y-89799792I98995J98995D01*
G01*
X139649792Y-89601802D01*
G75*
G02*
X139847782Y-89601802I98995J-98995D01*
G01*
G37*
G36*
G01*
X130091213Y-90721629D02*
X130331629Y-90481213D01*
G75*
G02*
X130529619Y-90481213I98995J-98995D01*
G01*
X130727609Y-90679203D01*
G75*
G02*
X130727609Y-90877193I-98995J-98995D01*
G01*
X130487193Y-91117609D01*
G75*
G02*
X130289203Y-91117609I-98995J98995D01*
G01*
X130091213Y-90919619D01*
G75*
G02*
X130091213Y-90721629I98995J98995D01*
G01*
G37*
G36*
G01*
X129412391Y-90042807D02*
X129652807Y-89802391D01*
G75*
G02*
X129850797Y-89802391I98995J-98995D01*
G01*
X130048787Y-90000381D01*
G75*
G02*
X130048787Y-90198371I-98995J-98995D01*
G01*
X129808371Y-90438787D01*
G75*
G02*
X129610381Y-90438787I-98995J98995D01*
G01*
X129412391Y-90240797D01*
G75*
G02*
X129412391Y-90042807I98995J98995D01*
G01*
G37*
G36*
G01*
X131941213Y-90441629D02*
X132181629Y-90201213D01*
G75*
G02*
X132379619Y-90201213I98995J-98995D01*
G01*
X132577609Y-90399203D01*
G75*
G02*
X132577609Y-90597193I-98995J-98995D01*
G01*
X132337193Y-90837609D01*
G75*
G02*
X132139203Y-90837609I-98995J98995D01*
G01*
X131941213Y-90639619D01*
G75*
G02*
X131941213Y-90441629I98995J98995D01*
G01*
G37*
G36*
G01*
X131262391Y-89762807D02*
X131502807Y-89522391D01*
G75*
G02*
X131700797Y-89522391I98995J-98995D01*
G01*
X131898787Y-89720381D01*
G75*
G02*
X131898787Y-89918371I-98995J-98995D01*
G01*
X131658371Y-90158787D01*
G75*
G02*
X131460381Y-90158787I-98995J98995D01*
G01*
X131262391Y-89960797D01*
G75*
G02*
X131262391Y-89762807I98995J98995D01*
G01*
G37*
G36*
G01*
X140870000Y-93200000D02*
X140870000Y-93540000D01*
G75*
G02*
X140730000Y-93680000I-140000J0D01*
G01*
X140450000Y-93680000D01*
G75*
G02*
X140310000Y-93540000I0J140000D01*
G01*
X140310000Y-93200000D01*
G75*
G02*
X140450000Y-93060000I140000J0D01*
G01*
X140730000Y-93060000D01*
G75*
G02*
X140870000Y-93200000I0J-140000D01*
G01*
G37*
G36*
G01*
X141830000Y-93200000D02*
X141830000Y-93540000D01*
G75*
G02*
X141690000Y-93680000I-140000J0D01*
G01*
X141410000Y-93680000D01*
G75*
G02*
X141270000Y-93540000I0J140000D01*
G01*
X141270000Y-93200000D01*
G75*
G02*
X141410000Y-93060000I140000J0D01*
G01*
X141690000Y-93060000D01*
G75*
G02*
X141830000Y-93200000I0J-140000D01*
G01*
G37*
G36*
G01*
X139801213Y-97301629D02*
X140041629Y-97061213D01*
G75*
G02*
X140239619Y-97061213I98995J-98995D01*
G01*
X140437609Y-97259203D01*
G75*
G02*
X140437609Y-97457193I-98995J-98995D01*
G01*
X140197193Y-97697609D01*
G75*
G02*
X139999203Y-97697609I-98995J98995D01*
G01*
X139801213Y-97499619D01*
G75*
G02*
X139801213Y-97301629I98995J98995D01*
G01*
G37*
G36*
G01*
X139122391Y-96622807D02*
X139362807Y-96382391D01*
G75*
G02*
X139560797Y-96382391I98995J-98995D01*
G01*
X139758787Y-96580381D01*
G75*
G02*
X139758787Y-96778371I-98995J-98995D01*
G01*
X139518371Y-97018787D01*
G75*
G02*
X139320381Y-97018787I-98995J98995D01*
G01*
X139122391Y-96820797D01*
G75*
G02*
X139122391Y-96622807I98995J98995D01*
G01*
G37*
G36*
G01*
X130483000Y-93332480D02*
X130483000Y-93672480D01*
G75*
G02*
X130343000Y-93812480I-140000J0D01*
G01*
X130063000Y-93812480D01*
G75*
G02*
X129923000Y-93672480I0J140000D01*
G01*
X129923000Y-93332480D01*
G75*
G02*
X130063000Y-93192480I140000J0D01*
G01*
X130343000Y-93192480D01*
G75*
G02*
X130483000Y-93332480I0J-140000D01*
G01*
G37*
G36*
G01*
X131443000Y-93332480D02*
X131443000Y-93672480D01*
G75*
G02*
X131303000Y-93812480I-140000J0D01*
G01*
X131023000Y-93812480D01*
G75*
G02*
X130883000Y-93672480I0J140000D01*
G01*
X130883000Y-93332480D01*
G75*
G02*
X131023000Y-93192480I140000J0D01*
G01*
X131303000Y-93192480D01*
G75*
G02*
X131443000Y-93332480I0J-140000D01*
G01*
G37*
G36*
G01*
X132351629Y-96728787D02*
X132111213Y-96488371D01*
G75*
G02*
X132111213Y-96290381I98995J98995D01*
G01*
X132309203Y-96092391D01*
G75*
G02*
X132507193Y-96092391I98995J-98995D01*
G01*
X132747609Y-96332807D01*
G75*
G02*
X132747609Y-96530797I-98995J-98995D01*
G01*
X132549619Y-96728787D01*
G75*
G02*
X132351629Y-96728787I-98995J98995D01*
G01*
G37*
G36*
G01*
X131672807Y-97407609D02*
X131432391Y-97167193D01*
G75*
G02*
X131432391Y-96969203I98995J98995D01*
G01*
X131630381Y-96771213D01*
G75*
G02*
X131828371Y-96771213I98995J-98995D01*
G01*
X132068787Y-97011629D01*
G75*
G02*
X132068787Y-97209619I-98995J-98995D01*
G01*
X131870797Y-97407609D01*
G75*
G02*
X131672807Y-97407609I-98995J98995D01*
G01*
G37*
D10*
X124206000Y-101854000D03*
X122936000Y-101854000D03*
X124206000Y-100584000D03*
X122936000Y-100584000D03*
X124206000Y-99314000D03*
X122936000Y-99314000D03*
X124206000Y-98044000D03*
X122936000Y-98044000D03*
X124206000Y-96774000D03*
X122936000Y-96774000D03*
X124206000Y-95504000D03*
X122936000Y-95504000D03*
X124206000Y-94234000D03*
X122936000Y-94234000D03*
X124206000Y-92964000D03*
X122936000Y-92964000D03*
X124206000Y-91694000D03*
X122936000Y-91694000D03*
X124206000Y-90424000D03*
X122936000Y-90424000D03*
X124206000Y-89154000D03*
X122936000Y-89154000D03*
X124206000Y-87884000D03*
X122936000Y-87884000D03*
X124206000Y-86614000D03*
X122936000Y-86614000D03*
X124206000Y-85344000D03*
D11*
X122936000Y-85344000D03*
D12*
X138140000Y-94595000D03*
X138140000Y-94095000D03*
X138140000Y-93595000D03*
X138140000Y-93095000D03*
X138140000Y-92595000D03*
X138140000Y-92095000D03*
X137640000Y-94595000D03*
X137640000Y-94095000D03*
X137640000Y-93595000D03*
X137640000Y-93095000D03*
X137640000Y-92595000D03*
X137640000Y-92095000D03*
X137140000Y-94595000D03*
X137140000Y-94095000D03*
X137140000Y-93595000D03*
X137140000Y-93095000D03*
X137140000Y-92595000D03*
X137140000Y-92095000D03*
X136640000Y-94595000D03*
X136640000Y-94095000D03*
X136640000Y-93595000D03*
X136640000Y-93095000D03*
X136640000Y-92595000D03*
X136640000Y-92095000D03*
X136140000Y-94595000D03*
X136140000Y-94095000D03*
X136140000Y-93595000D03*
X136140000Y-93095000D03*
X136140000Y-92595000D03*
X136140000Y-92095000D03*
X135640000Y-94595000D03*
X135640000Y-94095000D03*
X135640000Y-93595000D03*
X135640000Y-93095000D03*
X135640000Y-92595000D03*
X135640000Y-92095000D03*
X135140000Y-94595000D03*
X135140000Y-94095000D03*
X135140000Y-93595000D03*
X135140000Y-93095000D03*
X135140000Y-92595000D03*
X135140000Y-92095000D03*
X134640000Y-94595000D03*
X134640000Y-94095000D03*
X134640000Y-93595000D03*
X134640000Y-93095000D03*
X134640000Y-92595000D03*
X134640000Y-92095000D03*
X134140000Y-94595000D03*
X134140000Y-94095000D03*
X134140000Y-93595000D03*
X134140000Y-93095000D03*
X134140000Y-92595000D03*
X134140000Y-92095000D03*
X133640000Y-94595000D03*
X133640000Y-94095000D03*
X133640000Y-93595000D03*
X133640000Y-93095000D03*
X133640000Y-92595000D03*
X133640000Y-92095000D03*
D13*
X128397000Y-86233000D03*
X143002000Y-86233000D03*
X143002000Y-100838000D03*
X128397000Y-100838000D03*
D10*
X147066000Y-85344000D03*
X148336000Y-85344000D03*
X147066000Y-86614000D03*
X148336000Y-86614000D03*
X147066000Y-87884000D03*
X148336000Y-87884000D03*
X147066000Y-89154000D03*
X148336000Y-89154000D03*
X147066000Y-90424000D03*
X148336000Y-90424000D03*
X147066000Y-91694000D03*
X148336000Y-91694000D03*
X147066000Y-92964000D03*
X148336000Y-92964000D03*
X147066000Y-94234000D03*
X148336000Y-94234000D03*
X147066000Y-95504000D03*
X148336000Y-95504000D03*
X147066000Y-96774000D03*
X148336000Y-96774000D03*
X147066000Y-98044000D03*
X148336000Y-98044000D03*
X147066000Y-99314000D03*
X148336000Y-99314000D03*
X147066000Y-100584000D03*
X148336000Y-100584000D03*
X147066000Y-101854000D03*
D11*
X148336000Y-101854000D03*
D10*
X143891000Y-104902000D03*
X143891000Y-106172000D03*
X142621000Y-104902000D03*
X142621000Y-106172000D03*
X141351000Y-104902000D03*
X141351000Y-106172000D03*
X140081000Y-104902000D03*
X140081000Y-106172000D03*
X138811000Y-104902000D03*
X138811000Y-106172000D03*
X137541000Y-104902000D03*
X137541000Y-106172000D03*
X136271000Y-104902000D03*
X136271000Y-106172000D03*
X135001000Y-104902000D03*
X135001000Y-106172000D03*
X133731000Y-104902000D03*
X133731000Y-106172000D03*
X132461000Y-104902000D03*
X132461000Y-106172000D03*
X131191000Y-104902000D03*
X131191000Y-106172000D03*
X129921000Y-104902000D03*
X129921000Y-106172000D03*
X128651000Y-104902000D03*
X128651000Y-106172000D03*
X127381000Y-104902000D03*
D11*
X127381000Y-106172000D03*
D10*
X127381000Y-82042000D03*
X127381000Y-80772000D03*
X128651000Y-82042000D03*
X128651000Y-80772000D03*
X129921000Y-82042000D03*
X129921000Y-80772000D03*
X131191000Y-82042000D03*
X131191000Y-80772000D03*
X132461000Y-82042000D03*
X132461000Y-80772000D03*
X133731000Y-82042000D03*
X133731000Y-80772000D03*
X135001000Y-82042000D03*
X135001000Y-80772000D03*
X136271000Y-82042000D03*
X136271000Y-80772000D03*
X137541000Y-82042000D03*
X137541000Y-80772000D03*
X138811000Y-82042000D03*
X138811000Y-80772000D03*
X140081000Y-82042000D03*
X140081000Y-80772000D03*
X141351000Y-82042000D03*
X141351000Y-80772000D03*
X142621000Y-82042000D03*
X142621000Y-80772000D03*
X143891000Y-82042000D03*
D11*
X143891000Y-80772000D03*
M02*
