M48
; DRILL file {KiCad (5.1.10-1-10_14)} date Thursday, October 28, 2021 at 11:23:02 AM
; FORMAT={3:3/ absolute / metric / suppress leading zeros}
; #@! TF.CreationDate,2021-10-28T11:23:02-07:00
; #@! TF.GenerationSoftware,Kicad,Pcbnew,(5.1.10-1-10_14)
FMAT,2
METRIC,TZ
T1C0.250
T2C0.650
T3C2.200
%
G90
G05
T1
X123540Y-105550
X123550Y-81440
X129230Y-89610
X129344Y-93502
X130600Y-96680
X130930Y-90320
X131080Y-89351
X131220Y-97640
X131490Y-87800
X131724Y-95606
X132080Y-93345
X132810Y-90000
X132969Y-95885
X133400Y-85680
X133740Y-83730
X135890Y-93345
X135980Y-88960
X136109Y-96590
X137541Y-89899
X138580Y-91110
X138639Y-99069
X140250Y-89440
X140528Y-99080
X140600Y-97870
X140620Y-92550
X141560Y-92600
X147700Y-105530
X147710Y-81430
T2
X122936Y-85344
X122936Y-86614
X122936Y-87884
X122936Y-89154
X122936Y-90424
X122936Y-91694
X122936Y-92964
X122936Y-94234
X122936Y-95504
X122936Y-96774
X122936Y-98044
X122936Y-99314
X122936Y-100584
X122936Y-101854
X124206Y-85344
X124206Y-86614
X124206Y-87884
X124206Y-89154
X124206Y-90424
X124206Y-91694
X124206Y-92964
X124206Y-94234
X124206Y-95504
X124206Y-96774
X124206Y-98044
X124206Y-99314
X124206Y-100584
X124206Y-101854
X127381Y-80772
X127381Y-82042
X127381Y-104902
X127381Y-106172
X128651Y-80772
X128651Y-82042
X128651Y-104902
X128651Y-106172
X129921Y-80772
X129921Y-82042
X129921Y-104902
X129921Y-106172
X131191Y-80772
X131191Y-82042
X131191Y-104902
X131191Y-106172
X132461Y-80772
X132461Y-82042
X132461Y-104902
X132461Y-106172
X133731Y-80772
X133731Y-82042
X133731Y-104902
X133731Y-106172
X135001Y-80772
X135001Y-82042
X135001Y-104902
X135001Y-106172
X136271Y-80772
X136271Y-82042
X136271Y-104902
X136271Y-106172
X137541Y-80772
X137541Y-82042
X137541Y-104902
X137541Y-106172
X138811Y-80772
X138811Y-82042
X138811Y-104902
X138811Y-106172
X140081Y-80772
X140081Y-82042
X140081Y-104902
X140081Y-106172
X141351Y-80772
X141351Y-82042
X141351Y-104902
X141351Y-106172
X142621Y-80772
X142621Y-82042
X142621Y-104902
X142621Y-106172
X143891Y-80772
X143891Y-82042
X143891Y-104902
X143891Y-106172
X147066Y-85344
X147066Y-86614
X147066Y-87884
X147066Y-89154
X147066Y-90424
X147066Y-91694
X147066Y-92964
X147066Y-94234
X147066Y-95504
X147066Y-96774
X147066Y-98044
X147066Y-99314
X147066Y-100584
X147066Y-101854
X148336Y-85344
X148336Y-86614
X148336Y-87884
X148336Y-89154
X148336Y-90424
X148336Y-91694
X148336Y-92964
X148336Y-94234
X148336Y-95504
X148336Y-96774
X148336Y-98044
X148336Y-99314
X148336Y-100584
X148336Y-101854
T3
X128397Y-86233
X128397Y-100838
X143002Y-86233
X143002Y-100838
T0
M30
