  0
SECTION
  2
HEADER
  9
$ANGBASE
  50
0.0
  9
$ANGDIR
  70
1
  9
$MEASUREMENT
  70
0
  0
ENDSEC
  0
SECTION
  2
TABLES
  0
TABLE
  2
LTYPE
  70
4
  0
LTYPE
  5
40F
  2
CONTINUOUS
  70
0
  3
Solid line
  72
65
  73
0
  40
0.0
  0
LTYPE
  5
410
  2
DASHDOT
 70
0
  3
Dash Dot ____ _ ____ _
 72
65
 73
4
 40
2.0
 49
1.25
 49
-0.25
 49
0.25
 49
-0.25
  0
LTYPE
  5
411
  2
DASHED
 70
0
  3
Dashed __ __ __ __ __
 72
65
 73
2
 40
0.75
 49
0.5
 49
-0.25
  0
LTYPE
  5
43B
  2
DOTTED
 70
0
  3
Dotted .  .  .  .
 72
65
 73
2
 40
0.2
 49
0.0
 49
-0.2
  0
ENDTAB
  0
TABLE
  2
STYLE
  70
4
  0
STYLE
  2
KICAD
  70
0
  40
0
  41
1
  42
1
  50
0
  71
0
  3
isocp.shx
  0
STYLE
  2
KICADB
  70
0
  40
0
  41
1
  42
1
  50
0
  71
0
  3
isocp.shx
  0
STYLE
  2
KICADI
  70
0
  40
0
  41
1
  42
1
  50
15
  71
0
  3
isocp.shx
  0
STYLE
  2
KICADBI
  70
0
  40
0
  41
1
  42
1
  50
15
  71
0
  3
isocp.shx
  0
ENDTAB
  0
TABLE
  2
LAYER
  70
1
  0
LAYER
  2
BLACK
  70
0
  62
7
  6
CONTINUOUS
  0
ENDTAB
  0
ENDSEC
  0
SECTION
  2
ENTITIES
0
LINE
8
BLACK
6
CONTINUOUS
10
4.84
20
-4.18
11
4.84
21
-3.18
0
LINE
8
BLACK
6
CONTINUOUS
10
4.84
20
-3.18
11
5.84
21
-3.18
0
LINE
8
BLACK
6
CONTINUOUS
10
5.84
20
-3.18
11
5.84
21
-4.18
0
LINE
8
BLACK
6
CONTINUOUS
10
5.84
20
-4.18
11
4.84
21
-4.18
0
LINE
8
BLACK
6
CONTINUOUS
10
4.94044
20
-4.30322
11
4.94044
21
-4.22448
0
LINE
8
BLACK
6
CONTINUOUS
10
4.94044
20
-4.22448
11
4.95919
21
-4.22448
0
LINE
8
BLACK
6
CONTINUOUS
10
4.95919
20
-4.22448
11
4.97044
21
-4.22823
0
LINE
8
BLACK
6
CONTINUOUS
10
4.97044
20
-4.22823
11
4.97794
21
-4.23573
0
LINE
8
BLACK
6
CONTINUOUS
10
4.97794
20
-4.23573
11
4.98169
21
-4.24323
0
LINE
8
BLACK
6
CONTINUOUS
10
4.98169
20
-4.24323
11
4.98543
21
-4.25822
0
LINE
8
BLACK
6
CONTINUOUS
10
4.98543
20
-4.25822
11
4.98543
21
-4.26947
0
LINE
8
BLACK
6
CONTINUOUS
10
4.98543
20
-4.26947
11
4.98169
21
-4.28447
0
LINE
8
BLACK
6
CONTINUOUS
10
4.98169
20
-4.28447
11
4.97794
21
-4.29197
0
LINE
8
BLACK
6
CONTINUOUS
10
4.97794
20
-4.29197
11
4.97044
21
-4.29947
0
LINE
8
BLACK
6
CONTINUOUS
10
4.97044
20
-4.29947
11
4.95919
21
-4.30322
0
LINE
8
BLACK
6
CONTINUOUS
10
4.95919
20
-4.30322
11
4.94044
21
-4.30322
0
LINE
8
BLACK
6
CONTINUOUS
10
5.01918
20
-4.30322
11
5.01918
21
-4.25073
0
LINE
8
BLACK
6
CONTINUOUS
10
5.01918
20
-4.26572
11
5.02293
21
-4.25822
0
LINE
8
BLACK
6
CONTINUOUS
10
5.02293
20
-4.25822
11
5.02668
21
-4.25448
0
LINE
8
BLACK
6
CONTINUOUS
10
5.02668
20
-4.25448
11
5.03418
21
-4.25073
0
LINE
8
BLACK
6
CONTINUOUS
10
5.03418
20
-4.25073
11
5.04168
21
-4.25073
0
LINE
8
BLACK
6
CONTINUOUS
10
5.06792
20
-4.30322
11
5.06792
21
-4.25073
0
LINE
8
BLACK
6
CONTINUOUS
10
5.06792
20
-4.22448
11
5.06418
21
-4.22823
0
LINE
8
BLACK
6
CONTINUOUS
10
5.06418
20
-4.22823
11
5.06792
21
-4.23198
0
LINE
8
BLACK
6
CONTINUOUS
10
5.06792
20
-4.23198
11
5.07167
21
-4.22823
0
LINE
8
BLACK
6
CONTINUOUS
10
5.07167
20
-4.22823
11
5.06792
21
-4.22448
0
LINE
8
BLACK
6
CONTINUOUS
10
5.06792
20
-4.22448
11
5.06792
21
-4.23198
0
LINE
8
BLACK
6
CONTINUOUS
10
5.11667
20
-4.30322
11
5.10917
21
-4.29947
0
LINE
8
BLACK
6
CONTINUOUS
10
5.10917
20
-4.29947
11
5.10542
21
-4.29197
0
LINE
8
BLACK
6
CONTINUOUS
10
5.10542
20
-4.29197
11
5.10542
21
-4.22448
0
LINE
8
BLACK
6
CONTINUOUS
10
5.15791
20
-4.30322
11
5.15041
21
-4.29947
0
LINE
8
BLACK
6
CONTINUOUS
10
5.15041
20
-4.29947
11
5.14666
21
-4.29197
0
LINE
8
BLACK
6
CONTINUOUS
10
5.14666
20
-4.29197
11
5.14666
21
-4.22448
0
LINE
8
BLACK
6
CONTINUOUS
10
5.2479
20
-4.30322
11
5.2479
21
-4.22448
0
LINE
8
BLACK
6
CONTINUOUS
10
5.2479
20
-4.22448
11
5.27415
21
-4.28072
0
LINE
8
BLACK
6
CONTINUOUS
10
5.27415
20
-4.28072
11
5.3004
21
-4.22448
0
LINE
8
BLACK
6
CONTINUOUS
10
5.3004
20
-4.22448
11
5.3004
21
-4.30322
0
LINE
8
BLACK
6
CONTINUOUS
10
5.37164
20
-4.30322
11
5.37164
21
-4.26197
0
LINE
8
BLACK
6
CONTINUOUS
10
5.37164
20
-4.26197
11
5.36789
21
-4.25448
0
LINE
8
BLACK
6
CONTINUOUS
10
5.36789
20
-4.25448
11
5.36039
21
-4.25073
0
LINE
8
BLACK
6
CONTINUOUS
10
5.36039
20
-4.25073
11
5.34539
21
-4.25073
0
LINE
8
BLACK
6
CONTINUOUS
10
5.34539
20
-4.25073
11
5.33789
21
-4.25448
0
LINE
8
BLACK
6
CONTINUOUS
10
5.37164
20
-4.29947
11
5.36414
21
-4.30322
0
LINE
8
BLACK
6
CONTINUOUS
10
5.36414
20
-4.30322
11
5.34539
21
-4.30322
0
LINE
8
BLACK
6
CONTINUOUS
10
5.34539
20
-4.30322
11
5.33789
21
-4.29947
0
LINE
8
BLACK
6
CONTINUOUS
10
5.33789
20
-4.29947
11
5.33414
21
-4.29197
0
LINE
8
BLACK
6
CONTINUOUS
10
5.33414
20
-4.29197
11
5.33414
21
-4.28447
0
LINE
8
BLACK
6
CONTINUOUS
10
5.33414
20
-4.28447
11
5.33789
21
-4.27697
0
LINE
8
BLACK
6
CONTINUOUS
10
5.33789
20
-4.27697
11
5.34539
21
-4.27322
0
LINE
8
BLACK
6
CONTINUOUS
10
5.34539
20
-4.27322
11
5.36414
21
-4.27322
0
LINE
8
BLACK
6
CONTINUOUS
10
5.36414
20
-4.27322
11
5.37164
21
-4.26947
0
LINE
8
BLACK
6
CONTINUOUS
10
5.40913
20
-4.25073
11
5.40913
21
-4.32947
0
LINE
8
BLACK
6
CONTINUOUS
10
5.40913
20
-4.25448
11
5.41663
21
-4.25073
0
LINE
8
BLACK
6
CONTINUOUS
10
5.41663
20
-4.25073
11
5.43163
21
-4.25073
0
LINE
8
BLACK
6
CONTINUOUS
10
5.43163
20
-4.25073
11
5.43913
21
-4.25448
0
LINE
8
BLACK
6
CONTINUOUS
10
5.43913
20
-4.25448
11
5.44288
21
-4.25822
0
LINE
8
BLACK
6
CONTINUOUS
10
5.44288
20
-4.25822
11
5.44663
21
-4.26572
0
LINE
8
BLACK
6
CONTINUOUS
10
5.44663
20
-4.26572
11
5.44663
21
-4.28822
0
LINE
8
BLACK
6
CONTINUOUS
10
5.44663
20
-4.28822
11
5.44288
21
-4.29572
0
LINE
8
BLACK
6
CONTINUOUS
10
5.44288
20
-4.29572
11
5.43913
21
-4.29947
0
LINE
8
BLACK
6
CONTINUOUS
10
5.43913
20
-4.29947
11
5.43163
21
-4.30322
0
LINE
8
BLACK
6
CONTINUOUS
10
5.43163
20
-4.30322
11
5.41663
21
-4.30322
0
LINE
8
BLACK
6
CONTINUOUS
10
5.41663
20
-4.30322
11
5.40913
21
-4.29947
0
LINE
8
BLACK
6
CONTINUOUS
10
5.48037
20
-4.29572
11
5.48412
21
-4.29947
0
LINE
8
BLACK
6
CONTINUOUS
10
5.48412
20
-4.29947
11
5.48037
21
-4.30322
0
LINE
8
BLACK
6
CONTINUOUS
10
5.48037
20
-4.30322
11
5.47662
21
-4.29947
0
LINE
8
BLACK
6
CONTINUOUS
10
5.47662
20
-4.29947
11
5.48037
21
-4.29572
0
LINE
8
BLACK
6
CONTINUOUS
10
5.48037
20
-4.29572
11
5.48037
21
-4.30322
0
LINE
8
BLACK
6
CONTINUOUS
10
5.48037
20
-4.25448
11
5.48412
21
-4.25822
0
LINE
8
BLACK
6
CONTINUOUS
10
5.48412
20
-4.25822
11
5.48037
21
-4.26197
0
LINE
8
BLACK
6
CONTINUOUS
10
5.48037
20
-4.26197
11
5.47662
21
-4.25822
0
LINE
8
BLACK
6
CONTINUOUS
10
5.47662
20
-4.25822
11
5.48037
21
-4.25448
0
LINE
8
BLACK
6
CONTINUOUS
10
5.48037
20
-4.25448
11
5.48037
21
-4.26197
  0
ENDSEC
  0
EOF
