M48
; DRILL file {KiCad (6.0.8)} date Fri Nov 18 12:50:22 2022
; FORMAT={-:-/ absolute / inch / decimal}
; #@! TF.CreationDate,2022-11-18T12:50:22-08:00
; #@! TF.GenerationSoftware,Kicad,Pcbnew,(6.0.8)
; #@! TF.FileFunction,Plated,1,2,PTH
FMAT,2
INCH
; #@! TA.AperFunction,Plated,PTH,ViaDrill
T1C0.0098
; #@! TA.AperFunction,Plated,PTH,ComponentDrill
T2C0.0256
; #@! TA.AperFunction,Plated,PTH,ComponentDrill
T3C0.0866
%
G90
G05
T1
X4.8638Y-4.1555
X4.8652Y-3.2073
X4.976Y-3.678
X4.98Y-3.706
X4.9869Y-3.6212
X4.987Y-3.648
X4.988Y-3.4672
X5.0016Y-3.6002
X5.008Y-4.066
X5.0398Y-3.593
X5.0607Y-3.5767
X5.0792Y-3.864
X5.0877Y-3.6037
X5.0978Y-3.7567
X5.1Y-3.7287
X5.102Y-3.782
X5.112Y-3.466
X5.1152Y-3.67
X5.116Y-3.84
X5.118Y-3.8672
X5.1183Y-3.8929
X5.1198Y-3.2872
X5.128Y-3.79
X5.136Y-3.424
X5.144Y-3.864
X5.152Y-3.9338
X5.1552Y-3.4429
X5.174Y-3.34
X5.1786Y-3.9985
X5.19Y-4.0232
X5.191Y-3.976
X5.2037Y-3.3392
X5.211Y-3.9928
X5.2243Y-4.0148
X5.2272Y-3.3288
X5.2491Y-4.0083
X5.25Y-4.062
X5.254Y-3.328
X5.2679Y-3.974
X5.2688Y-3.3723
X5.2704Y-3.3979
X5.284Y-3.3248
X5.2853Y-3.422
X5.2868Y-4.0066
X5.296Y-3.3979
X5.3018Y-3.958
X5.3264Y-4.013
X5.3394Y-3.9659
X5.3405Y-3.9915
X5.3563Y-3.3777
X5.3616Y-4.0062
X5.3833Y-3.3787
X5.3872Y-4.0115
X5.3874Y-4.0382
X5.4212Y-4.0321
X5.426Y-3.3248
X5.4281Y-3.4361
X5.432Y-3.378
X5.4394Y-4.014
X5.464Y-3.958
X5.466Y-3.4268
X5.466Y-4.014
X5.472Y-3.334
X5.473Y-3.984
X5.488Y-4.029
X5.4964Y-3.342
X5.5156Y-3.8882
X5.5317Y-3.4515
X5.5402Y-3.3312
X5.542Y-3.368
X5.5422Y-3.8882
X5.544Y-3.474
X5.5626Y-3.4918
X5.565Y-3.873
X5.5791Y-3.83
X5.584Y-3.506
X5.585Y-3.855
X5.5908Y-3.7077
X5.591Y-3.7699
X5.6054Y-3.6683
X5.606Y-3.52
X5.63Y-3.87
X5.6445Y-3.6106
X5.6517Y-3.4897
X5.6551Y-3.662
X5.6551Y-3.634
X5.664Y-3.541
X5.678Y-3.566
X5.6853Y-3.7579
X5.6887Y-3.7833
X5.6892Y-3.814
X5.6892Y-3.842
X5.6987Y-3.3233
X5.7047Y-3.6707
X5.7054Y-3.6434
X5.7097Y-3.4577
X5.7192Y-3.36
X5.7295Y-3.5099
X5.815Y-4.1547
T2
X4.8398Y-3.3551
X4.8398Y-3.4051
X4.8398Y-3.4551
X4.8398Y-3.5051
X4.8398Y-3.5551
X4.8398Y-3.6051
X4.8398Y-3.6551
X4.8398Y-3.7051
X4.8398Y-3.7551
X4.8398Y-3.8051
X4.8398Y-3.8551
X4.8398Y-3.9051
X4.8398Y-3.9551
X4.8398Y-4.0051
X5.0146Y-4.1799
X5.015Y-3.1804
X5.0646Y-4.1799
X5.065Y-3.1804
X5.1146Y-4.1799
X5.115Y-3.1804
X5.1646Y-4.1799
X5.165Y-3.1804
X5.2146Y-4.1799
X5.215Y-3.1804
X5.2646Y-4.1799
X5.265Y-3.1804
X5.3146Y-4.1799
X5.315Y-3.1804
X5.3646Y-4.1799
X5.365Y-3.1804
X5.4146Y-4.1799
X5.415Y-3.1804
X5.4646Y-4.1799
X5.465Y-3.1804
X5.5146Y-4.1799
X5.515Y-3.1804
X5.5646Y-4.1799
X5.565Y-3.1804
X5.6146Y-4.1799
X5.615Y-3.1804
X5.6646Y-4.1799
X5.665Y-3.1804
X5.8396Y-3.3535
X5.8396Y-3.4035
X5.8396Y-3.4535
X5.8396Y-3.5035
X5.8396Y-3.5535
X5.8396Y-3.6035
X5.8396Y-3.6535
X5.8396Y-3.7035
X5.8396Y-3.7535
X5.8396Y-3.8035
X5.8396Y-3.8535
X5.8396Y-3.9035
X5.8396Y-3.9535
X5.8396Y-4.0035
T3
X5.05Y-3.39
X5.05Y-3.97
X5.63Y-3.39
X5.63Y-3.97
T0
M30
