  0
SECTION
  2
HEADER
  9
$ANGBASE
  50
0.0
  9
$ANGDIR
  70
1
  9
$MEASUREMENT
  70
0
  0
ENDSEC
  0
SECTION
  2
TABLES
  0
TABLE
  2
LTYPE
  70
4
  0
LTYPE
  5
40F
  2
CONTINUOUS
  70
0
  3
Solid line
  72
65
  73
0
  40
0.0
  0
LTYPE
  5
410
  2
DASHDOT
 70
0
  3
Dash Dot ____ _ ____ _
 72
65
 73
4
 40
2.0
 49
1.25
 49
-0.25
 49
0.25
 49
-0.25
  0
LTYPE
  5
411
  2
DASHED
 70
0
  3
Dashed __ __ __ __ __
 72
65
 73
2
 40
0.75
 49
0.5
 49
-0.25
  0
LTYPE
  5
43B
  2
DOTTED
 70
0
  3
Dotted .  .  .  .
 72
65
 73
2
 40
0.2
 49
0.0
 49
-0.2
  0
ENDTAB
  0
TABLE
  2
STYLE
  70
4
  0
STYLE
  2
KICAD
  70
0
  40
0
  41
1
  42
1
  50
0
  71
0
  3
isocp.shx
  0
STYLE
  2
KICADB
  70
0
  40
0
  41
1
  42
1
  50
0
  71
0
  3
isocp.shx
  0
STYLE
  2
KICADI
  70
0
  40
0
  41
1
  42
1
  50
15
  71
0
  3
isocp.shx
  0
STYLE
  2
KICADBI
  70
0
  40
0
  41
1
  42
1
  50
15
  71
0
  3
isocp.shx
  0
ENDTAB
  0
TABLE
  2
LAYER
  70
1
  0
LAYER
  2
BLACK
  70
0
  62
7
  6
CONTINUOUS
  0
ENDTAB
  0
ENDSEC
  0
SECTION
  2
ENTITIES
0
LINE
8
BLACK
6
CONTINUOUS
10
4.84
20
-4.18
11
4.84
21
-3.18
0
LINE
8
BLACK
6
CONTINUOUS
10
4.84
20
-3.18
11
5.84
21
-3.18
0
LINE
8
BLACK
6
CONTINUOUS
10
5.84
20
-3.18
11
5.84
21
-4.18
0
LINE
8
BLACK
6
CONTINUOUS
10
5.84
20
-4.18
11
4.84
21
-4.18
0
LINE
8
BLACK
6
CONTINUOUS
10
4.85886
20
-4.15059
11
4.8687
21
-4.16043
0
LINE
8
BLACK
6
CONTINUOUS
10
4.8687
20
-4.15059
11
4.85886
21
-4.16043
0
LINE
8
BLACK
6
CONTINUOUS
10
4.86025
20
-3.20238
11
4.87009
21
-3.21222
0
LINE
8
BLACK
6
CONTINUOUS
10
4.87009
20
-3.20238
11
4.86025
21
-3.21222
0
LINE
8
BLACK
6
CONTINUOUS
10
4.97108
20
-3.67308
11
4.98092
21
-3.68292
0
LINE
8
BLACK
6
CONTINUOUS
10
4.98092
20
-3.67308
11
4.97108
21
-3.68292
0
LINE
8
BLACK
6
CONTINUOUS
10
4.97508
20
-3.70108
11
4.98492
21
-3.71092
0
LINE
8
BLACK
6
CONTINUOUS
10
4.98492
20
-3.70108
11
4.97508
21
-3.71092
0
LINE
8
BLACK
6
CONTINUOUS
10
4.98197
20
-3.61626
11
4.99181
21
-3.62611
0
LINE
8
BLACK
6
CONTINUOUS
10
4.99181
20
-3.61626
11
4.98197
21
-3.62611
0
LINE
8
BLACK
6
CONTINUOUS
10
4.98212
20
-3.64304
11
4.99196
21
-3.65288
0
LINE
8
BLACK
6
CONTINUOUS
10
4.99196
20
-3.64304
11
4.98212
21
-3.65288
0
LINE
8
BLACK
6
CONTINUOUS
10
4.98308
20
-3.46224
11
4.99292
21
-3.47208
0
LINE
8
BLACK
6
CONTINUOUS
10
4.99292
20
-3.46224
11
4.98308
21
-3.47208
0
LINE
8
BLACK
6
CONTINUOUS
10
4.99667
20
-3.59523
11
5.00651
21
-3.60507
0
LINE
8
BLACK
6
CONTINUOUS
10
5.00651
20
-3.59523
11
4.99667
21
-3.60507
0
LINE
8
BLACK
6
CONTINUOUS
10
5.00308
20
-4.06108
11
5.01292
21
-4.07092
0
LINE
8
BLACK
6
CONTINUOUS
10
5.01292
20
-4.06108
11
5.00308
21
-4.07092
0
LINE
8
BLACK
6
CONTINUOUS
10
5.0349
20
-3.58808
11
5.04474
21
-3.59792
0
LINE
8
BLACK
6
CONTINUOUS
10
5.04474
20
-3.58808
11
5.0349
21
-3.59792
0
LINE
8
BLACK
6
CONTINUOUS
10
5.05577
20
-3.57177
11
5.06561
21
-3.58161
0
LINE
8
BLACK
6
CONTINUOUS
10
5.06561
20
-3.57177
11
5.05577
21
-3.58161
0
LINE
8
BLACK
6
CONTINUOUS
10
5.07426
20
-3.85908
11
5.0841
21
-3.86892
0
LINE
8
BLACK
6
CONTINUOUS
10
5.0841
20
-3.85908
11
5.07426
21
-3.86892
0
LINE
8
BLACK
6
CONTINUOUS
10
5.08277
20
-3.59877
11
5.09261
21
-3.60861
0
LINE
8
BLACK
6
CONTINUOUS
10
5.09261
20
-3.59877
11
5.08277
21
-3.60861
0
LINE
8
BLACK
6
CONTINUOUS
10
5.09286
20
-3.75176
11
5.1027
21
-3.7616
0
LINE
8
BLACK
6
CONTINUOUS
10
5.1027
20
-3.75176
11
5.09286
21
-3.7616
0
LINE
8
BLACK
6
CONTINUOUS
10
5.09508
20
-3.72378
11
5.10492
21
-3.73362
0
LINE
8
BLACK
6
CONTINUOUS
10
5.10492
20
-3.72378
11
5.09508
21
-3.73362
0
LINE
8
BLACK
6
CONTINUOUS
10
5.09708
20
-3.77708
11
5.10692
21
-3.78692
0
LINE
8
BLACK
6
CONTINUOUS
10
5.10692
20
-3.77708
11
5.09708
21
-3.78692
0
LINE
8
BLACK
6
CONTINUOUS
10
5.10708
20
-3.46108
11
5.11692
21
-3.47092
0
LINE
8
BLACK
6
CONTINUOUS
10
5.11692
20
-3.46108
11
5.10708
21
-3.47092
0
LINE
8
BLACK
6
CONTINUOUS
10
5.11027
20
-3.66508
11
5.12012
21
-3.67492
0
LINE
8
BLACK
6
CONTINUOUS
10
5.12012
20
-3.66508
11
5.11027
21
-3.67492
0
LINE
8
BLACK
6
CONTINUOUS
10
5.11108
20
-3.83508
11
5.12092
21
-3.84492
0
LINE
8
BLACK
6
CONTINUOUS
10
5.12092
20
-3.83508
11
5.11108
21
-3.84492
0
LINE
8
BLACK
6
CONTINUOUS
10
5.11305
20
-3.86229
11
5.12289
21
-3.87213
0
LINE
8
BLACK
6
CONTINUOUS
10
5.12289
20
-3.86229
11
5.11305
21
-3.87213
0
LINE
8
BLACK
6
CONTINUOUS
10
5.11333
20
-3.88795
11
5.12317
21
-3.89779
0
LINE
8
BLACK
6
CONTINUOUS
10
5.12317
20
-3.88795
11
5.11333
21
-3.89779
0
LINE
8
BLACK
6
CONTINUOUS
10
5.11489
20
-3.28226
11
5.12473
21
-3.2921
0
LINE
8
BLACK
6
CONTINUOUS
10
5.12473
20
-3.28226
11
5.11489
21
-3.2921
0
LINE
8
BLACK
6
CONTINUOUS
10
5.12308
20
-3.78508
11
5.13292
21
-3.79492
0
LINE
8
BLACK
6
CONTINUOUS
10
5.13292
20
-3.78508
11
5.12308
21
-3.79492
0
LINE
8
BLACK
6
CONTINUOUS
10
5.13108
20
-3.41908
11
5.14092
21
-3.42892
0
LINE
8
BLACK
6
CONTINUOUS
10
5.14092
20
-3.41908
11
5.13108
21
-3.42892
0
LINE
8
BLACK
6
CONTINUOUS
10
5.13908
20
-3.85908
11
5.14892
21
-3.86892
0
LINE
8
BLACK
6
CONTINUOUS
10
5.14892
20
-3.85908
11
5.13908
21
-3.86892
0
LINE
8
BLACK
6
CONTINUOUS
10
5.14708
20
-3.9289
11
5.15692
21
-3.93874
0
LINE
8
BLACK
6
CONTINUOUS
10
5.15692
20
-3.9289
11
5.14708
21
-3.93874
0
LINE
8
BLACK
6
CONTINUOUS
10
5.15028
20
-3.43795
11
5.16012
21
-3.44779
0
LINE
8
BLACK
6
CONTINUOUS
10
5.16012
20
-3.43795
11
5.15028
21
-3.44779
0
LINE
8
BLACK
6
CONTINUOUS
10
5.16908
20
-3.33508
11
5.17892
21
-3.34492
0
LINE
8
BLACK
6
CONTINUOUS
10
5.17892
20
-3.33508
11
5.16908
21
-3.34492
0
LINE
8
BLACK
6
CONTINUOUS
10
5.17371
20
-3.99357
11
5.18355
21
-4.00341
0
LINE
8
BLACK
6
CONTINUOUS
10
5.18355
20
-3.99357
11
5.17371
21
-4.00341
0
LINE
8
BLACK
6
CONTINUOUS
10
5.18508
20
-4.01826
11
5.19492
21
-4.0281
0
LINE
8
BLACK
6
CONTINUOUS
10
5.19492
20
-4.01826
11
5.18508
21
-4.0281
0
LINE
8
BLACK
6
CONTINUOUS
10
5.18608
20
-3.97108
11
5.19592
21
-3.98092
0
LINE
8
BLACK
6
CONTINUOUS
10
5.19592
20
-3.97108
11
5.18608
21
-3.98092
0
LINE
8
BLACK
6
CONTINUOUS
10
5.19879
20
-3.33426
11
5.20864
21
-3.3441
0
LINE
8
BLACK
6
CONTINUOUS
10
5.20864
20
-3.33426
11
5.19879
21
-3.3441
0
LINE
8
BLACK
6
CONTINUOUS
10
5.20612
20
-3.9879
11
5.21596
21
-3.99774
0
LINE
8
BLACK
6
CONTINUOUS
10
5.21596
20
-3.9879
11
5.20612
21
-3.99774
0
LINE
8
BLACK
6
CONTINUOUS
10
5.21937
20
-4.00988
11
5.22922
21
-4.01972
0
LINE
8
BLACK
6
CONTINUOUS
10
5.22922
20
-4.00988
11
5.21937
21
-4.01972
0
LINE
8
BLACK
6
CONTINUOUS
10
5.22227
20
-3.32389
11
5.23211
21
-3.33373
0
LINE
8
BLACK
6
CONTINUOUS
10
5.23211
20
-3.32389
11
5.22227
21
-3.33373
0
LINE
8
BLACK
6
CONTINUOUS
10
5.2442
20
-4.00338
11
5.25404
21
-4.01322
0
LINE
8
BLACK
6
CONTINUOUS
10
5.25404
20
-4.00338
11
5.2442
21
-4.01322
0
LINE
8
BLACK
6
CONTINUOUS
10
5.24508
20
-4.05708
11
5.25492
21
-4.06692
0
LINE
8
BLACK
6
CONTINUOUS
10
5.25492
20
-4.05708
11
5.24508
21
-4.06692
0
LINE
8
BLACK
6
CONTINUOUS
10
5.24908
20
-3.32308
11
5.25892
21
-3.33292
0
LINE
8
BLACK
6
CONTINUOUS
10
5.25892
20
-3.32308
11
5.24908
21
-3.33292
0
LINE
8
BLACK
6
CONTINUOUS
10
5.26303
20
-3.96908
11
5.27287
21
-3.97892
0
LINE
8
BLACK
6
CONTINUOUS
10
5.27287
20
-3.96908
11
5.26303
21
-3.97892
0
LINE
8
BLACK
6
CONTINUOUS
10
5.26389
20
-3.36739
11
5.27373
21
-3.37724
0
LINE
8
BLACK
6
CONTINUOUS
10
5.27373
20
-3.36739
11
5.26389
21
-3.37724
0
LINE
8
BLACK
6
CONTINUOUS
10
5.26544
20
-3.39301
11
5.27528
21
-3.40286
0
LINE
8
BLACK
6
CONTINUOUS
10
5.27528
20
-3.39301
11
5.26544
21
-3.40286
0
LINE
8
BLACK
6
CONTINUOUS
10
5.27908
20
-3.3199
11
5.28892
21
-3.32974
0
LINE
8
BLACK
6
CONTINUOUS
10
5.28892
20
-3.3199
11
5.27908
21
-3.32974
0
LINE
8
BLACK
6
CONTINUOUS
10
5.2804
20
-3.41708
11
5.29024
21
-3.42692
0
LINE
8
BLACK
6
CONTINUOUS
10
5.29024
20
-3.41708
11
5.2804
21
-3.42692
0
LINE
8
BLACK
6
CONTINUOUS
10
5.28185
20
-4.00166
11
5.29169
21
-4.01151
0
LINE
8
BLACK
6
CONTINUOUS
10
5.29169
20
-4.00166
11
5.28185
21
-4.01151
0
LINE
8
BLACK
6
CONTINUOUS
10
5.2911
20
-3.39294
11
5.30094
21
-3.40278
0
LINE
8
BLACK
6
CONTINUOUS
10
5.30094
20
-3.39294
11
5.2911
21
-3.40278
0
LINE
8
BLACK
6
CONTINUOUS
10
5.29684
20
-3.95307
11
5.30668
21
-3.96291
0
LINE
8
BLACK
6
CONTINUOUS
10
5.30668
20
-3.95307
11
5.29684
21
-3.96291
0
LINE
8
BLACK
6
CONTINUOUS
10
5.3215
20
-4.00804
11
5.33134
21
-4.01788
0
LINE
8
BLACK
6
CONTINUOUS
10
5.33134
20
-4.00804
11
5.3215
21
-4.01788
0
LINE
8
BLACK
6
CONTINUOUS
10
5.33448
20
-3.96095
11
5.34432
21
-3.9708
0
LINE
8
BLACK
6
CONTINUOUS
10
5.34432
20
-3.96095
11
5.33448
21
-3.9708
0
LINE
8
BLACK
6
CONTINUOUS
10
5.3356
20
-3.98659
11
5.34544
21
-3.99644
0
LINE
8
BLACK
6
CONTINUOUS
10
5.34544
20
-3.98659
11
5.3356
21
-3.99644
0
LINE
8
BLACK
6
CONTINUOUS
10
5.35139
20
-3.37277
11
5.36123
21
-3.38261
0
LINE
8
BLACK
6
CONTINUOUS
10
5.36123
20
-3.37277
11
5.35139
21
-3.38261
0
LINE
8
BLACK
6
CONTINUOUS
10
5.35665
20
-4.00128
11
5.36649
21
-4.01112
0
LINE
8
BLACK
6
CONTINUOUS
10
5.36649
20
-4.00128
11
5.35665
21
-4.01112
0
LINE
8
BLACK
6
CONTINUOUS
10
5.37841
20
-3.37379
11
5.38825
21
-3.38363
0
LINE
8
BLACK
6
CONTINUOUS
10
5.38825
20
-3.37379
11
5.37841
21
-3.38363
0
LINE
8
BLACK
6
CONTINUOUS
10
5.38226
20
-4.00655
11
5.3921
21
-4.01639
0
LINE
8
BLACK
6
CONTINUOUS
10
5.3921
20
-4.00655
11
5.38226
21
-4.01639
0
LINE
8
BLACK
6
CONTINUOUS
10
5.38246
20
-4.03326
11
5.3923
21
-4.0431
0
LINE
8
BLACK
6
CONTINUOUS
10
5.3923
20
-4.03326
11
5.38246
21
-4.0431
0
LINE
8
BLACK
6
CONTINUOUS
10
5.41631
20
-4.02723
11
5.42615
21
-4.03707
0
LINE
8
BLACK
6
CONTINUOUS
10
5.42615
20
-4.02723
11
5.41631
21
-4.03707
0
LINE
8
BLACK
6
CONTINUOUS
10
5.42108
20
-3.3199
11
5.43092
21
-3.32974
0
LINE
8
BLACK
6
CONTINUOUS
10
5.43092
20
-3.3199
11
5.42108
21
-3.32974
0
LINE
8
BLACK
6
CONTINUOUS
10
5.42314
20
-3.43118
11
5.43298
21
-3.44102
0
LINE
8
BLACK
6
CONTINUOUS
10
5.43298
20
-3.43118
11
5.42314
21
-3.44102
0
LINE
8
BLACK
6
CONTINUOUS
10
5.42708
20
-3.37308
11
5.43692
21
-3.38292
0
LINE
8
BLACK
6
CONTINUOUS
10
5.43692
20
-3.37308
11
5.42708
21
-3.38292
0
LINE
8
BLACK
6
CONTINUOUS
10
5.43446
20
-4.00908
11
5.4443
21
-4.01892
0
LINE
8
BLACK
6
CONTINUOUS
10
5.4443
20
-4.00908
11
5.43446
21
-4.01892
0
LINE
8
BLACK
6
CONTINUOUS
10
5.45908
20
-3.95308
11
5.46892
21
-3.96292
0
LINE
8
BLACK
6
CONTINUOUS
10
5.46892
20
-3.95308
11
5.45908
21
-3.96292
0
LINE
8
BLACK
6
CONTINUOUS
10
5.46108
20
-3.4219
11
5.47092
21
-3.43174
0
LINE
8
BLACK
6
CONTINUOUS
10
5.47092
20
-3.4219
11
5.46108
21
-3.43174
0
LINE
8
BLACK
6
CONTINUOUS
10
5.46108
20
-4.00908
11
5.47092
21
-4.01892
0
LINE
8
BLACK
6
CONTINUOUS
10
5.47092
20
-4.00908
11
5.46108
21
-4.01892
0
LINE
8
BLACK
6
CONTINUOUS
10
5.46708
20
-3.32908
11
5.47692
21
-3.33892
0
LINE
8
BLACK
6
CONTINUOUS
10
5.47692
20
-3.32908
11
5.46708
21
-3.33892
0
LINE
8
BLACK
6
CONTINUOUS
10
5.46808
20
-3.97908
11
5.47792
21
-3.98892
0
LINE
8
BLACK
6
CONTINUOUS
10
5.47792
20
-3.97908
11
5.46808
21
-3.98892
0
LINE
8
BLACK
6
CONTINUOUS
10
5.48308
20
-4.02408
11
5.49292
21
-4.03392
0
LINE
8
BLACK
6
CONTINUOUS
10
5.49292
20
-4.02408
11
5.48308
21
-4.03392
0
LINE
8
BLACK
6
CONTINUOUS
10
5.49146
20
-3.33709
11
5.5013
21
-3.34693
0
LINE
8
BLACK
6
CONTINUOUS
10
5.5013
20
-3.33709
11
5.49146
21
-3.34693
0
LINE
8
BLACK
6
CONTINUOUS
10
5.51065
20
-3.88327
11
5.52049
21
-3.89311
0
LINE
8
BLACK
6
CONTINUOUS
10
5.52049
20
-3.88327
11
5.51065
21
-3.89311
0
LINE
8
BLACK
6
CONTINUOUS
10
5.52679
20
-3.44655
11
5.53663
21
-3.45639
0
LINE
8
BLACK
6
CONTINUOUS
10
5.53663
20
-3.44655
11
5.52679
21
-3.45639
0
LINE
8
BLACK
6
CONTINUOUS
10
5.53529
20
-3.32625
11
5.54513
21
-3.33609
0
LINE
8
BLACK
6
CONTINUOUS
10
5.54513
20
-3.32625
11
5.53529
21
-3.33609
0
LINE
8
BLACK
6
CONTINUOUS
10
5.53708
20
-3.36308
11
5.54692
21
-3.37292
0
LINE
8
BLACK
6
CONTINUOUS
10
5.54692
20
-3.36308
11
5.53708
21
-3.37292
0
LINE
8
BLACK
6
CONTINUOUS
10
5.53727
20
-3.88327
11
5.54711
21
-3.89311
0
LINE
8
BLACK
6
CONTINUOUS
10
5.54711
20
-3.88327
11
5.53727
21
-3.89311
0
LINE
8
BLACK
6
CONTINUOUS
10
5.53908
20
-3.46908
11
5.54892
21
-3.47892
0
LINE
8
BLACK
6
CONTINUOUS
10
5.54892
20
-3.46908
11
5.53908
21
-3.47892
0
LINE
8
BLACK
6
CONTINUOUS
10
5.55772
20
-3.48684
11
5.56757
21
-3.49668
0
LINE
8
BLACK
6
CONTINUOUS
10
5.56757
20
-3.48684
11
5.55772
21
-3.49668
0
LINE
8
BLACK
6
CONTINUOUS
10
5.56008
20
-3.86808
11
5.56992
21
-3.87792
0
LINE
8
BLACK
6
CONTINUOUS
10
5.56992
20
-3.86808
11
5.56008
21
-3.87792
0
LINE
8
BLACK
6
CONTINUOUS
10
5.57413
20
-3.82511
11
5.58398
21
-3.83495
0
LINE
8
BLACK
6
CONTINUOUS
10
5.58398
20
-3.82511
11
5.57413
21
-3.83495
0
LINE
8
BLACK
6
CONTINUOUS
10
5.57908
20
-3.50108
11
5.58892
21
-3.51092
0
LINE
8
BLACK
6
CONTINUOUS
10
5.58892
20
-3.50108
11
5.57908
21
-3.51092
0
LINE
8
BLACK
6
CONTINUOUS
10
5.58008
20
-3.85008
11
5.58992
21
-3.85992
0
LINE
8
BLACK
6
CONTINUOUS
10
5.58992
20
-3.85008
11
5.58008
21
-3.85992
0
LINE
8
BLACK
6
CONTINUOUS
10
5.58586
20
-3.70274
11
5.59571
21
-3.71259
0
LINE
8
BLACK
6
CONTINUOUS
10
5.59571
20
-3.70274
11
5.58586
21
-3.71259
0
LINE
8
BLACK
6
CONTINUOUS
10
5.58608
20
-3.76495
11
5.59592
21
-3.77479
0
LINE
8
BLACK
6
CONTINUOUS
10
5.59592
20
-3.76495
11
5.58608
21
-3.77479
0
LINE
8
BLACK
6
CONTINUOUS
10
5.60051
20
-3.66337
11
5.61036
21
-3.67322
0
LINE
8
BLACK
6
CONTINUOUS
10
5.61036
20
-3.66337
11
5.60051
21
-3.67322
0
LINE
8
BLACK
6
CONTINUOUS
10
5.60108
20
-3.51508
11
5.61092
21
-3.52492
0
LINE
8
BLACK
6
CONTINUOUS
10
5.61092
20
-3.51508
11
5.60108
21
-3.52492
0
LINE
8
BLACK
6
CONTINUOUS
10
5.62508
20
-3.86508
11
5.63492
21
-3.87492
0
LINE
8
BLACK
6
CONTINUOUS
10
5.63492
20
-3.86508
11
5.62508
21
-3.87492
0
LINE
8
BLACK
6
CONTINUOUS
10
5.63953
20
-3.60567
11
5.64937
21
-3.61551
0
LINE
8
BLACK
6
CONTINUOUS
10
5.64937
20
-3.60567
11
5.63953
21
-3.61551
0
LINE
8
BLACK
6
CONTINUOUS
10
5.64677
20
-3.48477
11
5.65661
21
-3.49461
0
LINE
8
BLACK
6
CONTINUOUS
10
5.65661
20
-3.48477
11
5.64677
21
-3.49461
0
LINE
8
BLACK
6
CONTINUOUS
10
5.65014
20
-3.65708
11
5.65998
21
-3.66692
0
LINE
8
BLACK
6
CONTINUOUS
10
5.65998
20
-3.65708
11
5.65014
21
-3.66692
0
LINE
8
BLACK
6
CONTINUOUS
10
5.65014
20
-3.62904
11
5.65998
21
-3.63888
0
LINE
8
BLACK
6
CONTINUOUS
10
5.65998
20
-3.62904
11
5.65014
21
-3.63888
0
LINE
8
BLACK
6
CONTINUOUS
10
5.65908
20
-3.53608
11
5.66892
21
-3.54592
0
LINE
8
BLACK
6
CONTINUOUS
10
5.66892
20
-3.53608
11
5.65908
21
-3.54592
0
LINE
8
BLACK
6
CONTINUOUS
10
5.67308
20
-3.56108
11
5.68292
21
-3.57092
0
LINE
8
BLACK
6
CONTINUOUS
10
5.68292
20
-3.56108
11
5.67308
21
-3.57092
0
LINE
8
BLACK
6
CONTINUOUS
10
5.68035
20
-3.75297
11
5.69019
21
-3.76281
0
LINE
8
BLACK
6
CONTINUOUS
10
5.69019
20
-3.75297
11
5.68035
21
-3.76281
0
LINE
8
BLACK
6
CONTINUOUS
10
5.68375
20
-3.77841
11
5.69359
21
-3.78825
0
LINE
8
BLACK
6
CONTINUOUS
10
5.69359
20
-3.77841
11
5.68375
21
-3.78825
0
LINE
8
BLACK
6
CONTINUOUS
10
5.68426
20
-3.80908
11
5.6941
21
-3.81892
0
LINE
8
BLACK
6
CONTINUOUS
10
5.6941
20
-3.80908
11
5.68426
21
-3.81892
0
LINE
8
BLACK
6
CONTINUOUS
10
5.68426
20
-3.83708
11
5.6941
21
-3.84692
0
LINE
8
BLACK
6
CONTINUOUS
10
5.6941
20
-3.83708
11
5.68426
21
-3.84692
0
LINE
8
BLACK
6
CONTINUOUS
10
5.69377
20
-3.31839
11
5.70361
21
-3.32823
0
LINE
8
BLACK
6
CONTINUOUS
10
5.70361
20
-3.31839
11
5.69377
21
-3.32823
0
LINE
8
BLACK
6
CONTINUOUS
10
5.69977
20
-3.66577
11
5.70961
21
-3.67561
0
LINE
8
BLACK
6
CONTINUOUS
10
5.70961
20
-3.66577
11
5.69977
21
-3.67561
0
LINE
8
BLACK
6
CONTINUOUS
10
5.70044
20
-3.63848
11
5.71028
21
-3.64832
0
LINE
8
BLACK
6
CONTINUOUS
10
5.71028
20
-3.63848
11
5.70044
21
-3.64832
0
LINE
8
BLACK
6
CONTINUOUS
10
5.70477
20
-3.45277
11
5.71461
21
-3.46261
0
LINE
8
BLACK
6
CONTINUOUS
10
5.71461
20
-3.45277
11
5.70477
21
-3.46261
0
LINE
8
BLACK
6
CONTINUOUS
10
5.71426
20
-3.35508
11
5.7241
21
-3.36492
0
LINE
8
BLACK
6
CONTINUOUS
10
5.7241
20
-3.35508
11
5.71426
21
-3.36492
0
LINE
8
BLACK
6
CONTINUOUS
10
5.72456
20
-3.50498
11
5.7344
21
-3.51483
0
LINE
8
BLACK
6
CONTINUOUS
10
5.7344
20
-3.50498
11
5.72456
21
-3.51483
0
LINE
8
BLACK
6
CONTINUOUS
10
5.81004
20
-4.1498
11
5.81988
21
-4.15965
0
LINE
8
BLACK
6
CONTINUOUS
10
5.81988
20
-4.1498
11
5.81004
21
-4.15965
0
CIRCLE
8
BLACK
10
4.83976
20
-3.35512
40
0.0127953
0
CIRCLE
8
BLACK
10
4.83976
20
-3.40512
40
0.0127953
0
CIRCLE
8
BLACK
10
4.83976
20
-3.45512
40
0.0127953
0
CIRCLE
8
BLACK
10
4.83976
20
-3.50512
40
0.0127953
0
CIRCLE
8
BLACK
10
4.83976
20
-3.55512
40
0.0127953
0
CIRCLE
8
BLACK
10
4.83976
20
-3.60512
40
0.0127953
0
CIRCLE
8
BLACK
10
4.83976
20
-3.65512
40
0.0127953
0
CIRCLE
8
BLACK
10
4.83976
20
-3.70512
40
0.0127953
0
CIRCLE
8
BLACK
10
4.83976
20
-3.75512
40
0.0127953
0
CIRCLE
8
BLACK
10
4.83976
20
-3.80512
40
0.0127953
0
CIRCLE
8
BLACK
10
4.83976
20
-3.85512
40
0.0127953
0
CIRCLE
8
BLACK
10
4.83976
20
-3.90512
40
0.0127953
0
CIRCLE
8
BLACK
10
4.83976
20
-3.95512
40
0.0127953
0
CIRCLE
8
BLACK
10
4.83976
20
-4.00512
40
0.0127953
0
CIRCLE
8
BLACK
10
5.01457
20
-4.17992
40
0.0127953
0
CIRCLE
8
BLACK
10
5.015
20
-3.18039
40
0.0127953
0
CIRCLE
8
BLACK
10
5.06457
20
-4.17992
40
0.0127953
0
CIRCLE
8
BLACK
10
5.065
20
-3.18039
40
0.0127953
0
CIRCLE
8
BLACK
10
5.11457
20
-4.17992
40
0.0127953
0
CIRCLE
8
BLACK
10
5.115
20
-3.18039
40
0.0127953
0
CIRCLE
8
BLACK
10
5.16457
20
-4.17992
40
0.0127953
0
CIRCLE
8
BLACK
10
5.165
20
-3.18039
40
0.0127953
0
CIRCLE
8
BLACK
10
5.21457
20
-4.17992
40
0.0127953
0
CIRCLE
8
BLACK
10
5.215
20
-3.18039
40
0.0127953
0
CIRCLE
8
BLACK
10
5.26457
20
-4.17992
40
0.0127953
0
CIRCLE
8
BLACK
10
5.265
20
-3.18039
40
0.0127953
0
CIRCLE
8
BLACK
10
5.31457
20
-4.17992
40
0.0127953
0
CIRCLE
8
BLACK
10
5.315
20
-3.18039
40
0.0127953
0
CIRCLE
8
BLACK
10
5.36457
20
-4.17992
40
0.0127953
0
CIRCLE
8
BLACK
10
5.365
20
-3.18039
40
0.0127953
0
CIRCLE
8
BLACK
10
5.41457
20
-4.17992
40
0.0127953
0
CIRCLE
8
BLACK
10
5.415
20
-3.18039
40
0.0127953
0
CIRCLE
8
BLACK
10
5.46457
20
-4.17992
40
0.0127953
0
CIRCLE
8
BLACK
10
5.465
20
-3.18039
40
0.0127953
0
CIRCLE
8
BLACK
10
5.51457
20
-4.17992
40
0.0127953
0
CIRCLE
8
BLACK
10
5.515
20
-3.18039
40
0.0127953
0
CIRCLE
8
BLACK
10
5.56457
20
-4.17992
40
0.0127953
0
CIRCLE
8
BLACK
10
5.565
20
-3.18039
40
0.0127953
0
CIRCLE
8
BLACK
10
5.61457
20
-4.17992
40
0.0127953
0
CIRCLE
8
BLACK
10
5.615
20
-3.18039
40
0.0127953
0
CIRCLE
8
BLACK
10
5.66457
20
-4.17992
40
0.0127953
0
CIRCLE
8
BLACK
10
5.665
20
-3.18039
40
0.0127953
0
CIRCLE
8
BLACK
10
5.83961
20
-3.35349
40
0.0127953
0
CIRCLE
8
BLACK
10
5.83961
20
-3.40349
40
0.0127953
0
CIRCLE
8
BLACK
10
5.83961
20
-3.45349
40
0.0127953
0
CIRCLE
8
BLACK
10
5.83961
20
-3.50349
40
0.0127953
0
CIRCLE
8
BLACK
10
5.83961
20
-3.55349
40
0.0127953
0
CIRCLE
8
BLACK
10
5.83961
20
-3.60349
40
0.0127953
0
CIRCLE
8
BLACK
10
5.83961
20
-3.65349
40
0.0127953
0
CIRCLE
8
BLACK
10
5.83961
20
-3.70349
40
0.0127953
0
CIRCLE
8
BLACK
10
5.83961
20
-3.75349
40
0.0127953
0
CIRCLE
8
BLACK
10
5.83961
20
-3.80349
40
0.0127953
0
CIRCLE
8
BLACK
10
5.83961
20
-3.85349
40
0.0127953
0
CIRCLE
8
BLACK
10
5.83961
20
-3.90349
40
0.0127953
0
CIRCLE
8
BLACK
10
5.83961
20
-3.95349
40
0.0127953
0
CIRCLE
8
BLACK
10
5.83961
20
-4.00349
40
0.0127953
0
LINE
8
BLACK
6
CONTINUOUS
10
5.05
20
-3.34669
11
5.05
21
-3.43331
0
LINE
8
BLACK
6
CONTINUOUS
10
5.00669
20
-3.39
11
5.09331
21
-3.39
0
LINE
8
BLACK
6
CONTINUOUS
10
5.05
20
-3.92669
11
5.05
21
-4.01331
0
LINE
8
BLACK
6
CONTINUOUS
10
5.00669
20
-3.97
11
5.09331
21
-3.97
0
LINE
8
BLACK
6
CONTINUOUS
10
5.63
20
-3.34669
11
5.63
21
-3.43331
0
LINE
8
BLACK
6
CONTINUOUS
10
5.58669
20
-3.39
11
5.67331
21
-3.39
0
LINE
8
BLACK
6
CONTINUOUS
10
5.63
20
-3.92669
11
5.63
21
-4.01331
0
LINE
8
BLACK
6
CONTINUOUS
10
5.58669
20
-3.97
11
5.67331
21
-3.97
0
LINE
8
BLACK
6
CONTINUOUS
10
4.94044
20
-4.30322
11
4.94044
21
-4.22448
0
LINE
8
BLACK
6
CONTINUOUS
10
4.94044
20
-4.22448
11
4.95919
21
-4.22448
0
LINE
8
BLACK
6
CONTINUOUS
10
4.95919
20
-4.22448
11
4.97044
21
-4.22823
0
LINE
8
BLACK
6
CONTINUOUS
10
4.97044
20
-4.22823
11
4.97794
21
-4.23573
0
LINE
8
BLACK
6
CONTINUOUS
10
4.97794
20
-4.23573
11
4.98169
21
-4.24323
0
LINE
8
BLACK
6
CONTINUOUS
10
4.98169
20
-4.24323
11
4.98543
21
-4.25822
0
LINE
8
BLACK
6
CONTINUOUS
10
4.98543
20
-4.25822
11
4.98543
21
-4.26947
0
LINE
8
BLACK
6
CONTINUOUS
10
4.98543
20
-4.26947
11
4.98169
21
-4.28447
0
LINE
8
BLACK
6
CONTINUOUS
10
4.98169
20
-4.28447
11
4.97794
21
-4.29197
0
LINE
8
BLACK
6
CONTINUOUS
10
4.97794
20
-4.29197
11
4.97044
21
-4.29947
0
LINE
8
BLACK
6
CONTINUOUS
10
4.97044
20
-4.29947
11
4.95919
21
-4.30322
0
LINE
8
BLACK
6
CONTINUOUS
10
4.95919
20
-4.30322
11
4.94044
21
-4.30322
0
LINE
8
BLACK
6
CONTINUOUS
10
5.01918
20
-4.30322
11
5.01918
21
-4.25073
0
LINE
8
BLACK
6
CONTINUOUS
10
5.01918
20
-4.26572
11
5.02293
21
-4.25822
0
LINE
8
BLACK
6
CONTINUOUS
10
5.02293
20
-4.25822
11
5.02668
21
-4.25448
0
LINE
8
BLACK
6
CONTINUOUS
10
5.02668
20
-4.25448
11
5.03418
21
-4.25073
0
LINE
8
BLACK
6
CONTINUOUS
10
5.03418
20
-4.25073
11
5.04168
21
-4.25073
0
LINE
8
BLACK
6
CONTINUOUS
10
5.06792
20
-4.30322
11
5.06792
21
-4.25073
0
LINE
8
BLACK
6
CONTINUOUS
10
5.06792
20
-4.22448
11
5.06418
21
-4.22823
0
LINE
8
BLACK
6
CONTINUOUS
10
5.06418
20
-4.22823
11
5.06792
21
-4.23198
0
LINE
8
BLACK
6
CONTINUOUS
10
5.06792
20
-4.23198
11
5.07167
21
-4.22823
0
LINE
8
BLACK
6
CONTINUOUS
10
5.07167
20
-4.22823
11
5.06792
21
-4.22448
0
LINE
8
BLACK
6
CONTINUOUS
10
5.06792
20
-4.22448
11
5.06792
21
-4.23198
0
LINE
8
BLACK
6
CONTINUOUS
10
5.11667
20
-4.30322
11
5.10917
21
-4.29947
0
LINE
8
BLACK
6
CONTINUOUS
10
5.10917
20
-4.29947
11
5.10542
21
-4.29197
0
LINE
8
BLACK
6
CONTINUOUS
10
5.10542
20
-4.29197
11
5.10542
21
-4.22448
0
LINE
8
BLACK
6
CONTINUOUS
10
5.15791
20
-4.30322
11
5.15041
21
-4.29947
0
LINE
8
BLACK
6
CONTINUOUS
10
5.15041
20
-4.29947
11
5.14666
21
-4.29197
0
LINE
8
BLACK
6
CONTINUOUS
10
5.14666
20
-4.29197
11
5.14666
21
-4.22448
0
LINE
8
BLACK
6
CONTINUOUS
10
5.2479
20
-4.30322
11
5.2479
21
-4.22448
0
LINE
8
BLACK
6
CONTINUOUS
10
5.2479
20
-4.22448
11
5.27415
21
-4.28072
0
LINE
8
BLACK
6
CONTINUOUS
10
5.27415
20
-4.28072
11
5.3004
21
-4.22448
0
LINE
8
BLACK
6
CONTINUOUS
10
5.3004
20
-4.22448
11
5.3004
21
-4.30322
0
LINE
8
BLACK
6
CONTINUOUS
10
5.37164
20
-4.30322
11
5.37164
21
-4.26197
0
LINE
8
BLACK
6
CONTINUOUS
10
5.37164
20
-4.26197
11
5.36789
21
-4.25448
0
LINE
8
BLACK
6
CONTINUOUS
10
5.36789
20
-4.25448
11
5.36039
21
-4.25073
0
LINE
8
BLACK
6
CONTINUOUS
10
5.36039
20
-4.25073
11
5.34539
21
-4.25073
0
LINE
8
BLACK
6
CONTINUOUS
10
5.34539
20
-4.25073
11
5.33789
21
-4.25448
0
LINE
8
BLACK
6
CONTINUOUS
10
5.37164
20
-4.29947
11
5.36414
21
-4.30322
0
LINE
8
BLACK
6
CONTINUOUS
10
5.36414
20
-4.30322
11
5.34539
21
-4.30322
0
LINE
8
BLACK
6
CONTINUOUS
10
5.34539
20
-4.30322
11
5.33789
21
-4.29947
0
LINE
8
BLACK
6
CONTINUOUS
10
5.33789
20
-4.29947
11
5.33414
21
-4.29197
0
LINE
8
BLACK
6
CONTINUOUS
10
5.33414
20
-4.29197
11
5.33414
21
-4.28447
0
LINE
8
BLACK
6
CONTINUOUS
10
5.33414
20
-4.28447
11
5.33789
21
-4.27697
0
LINE
8
BLACK
6
CONTINUOUS
10
5.33789
20
-4.27697
11
5.34539
21
-4.27322
0
LINE
8
BLACK
6
CONTINUOUS
10
5.34539
20
-4.27322
11
5.36414
21
-4.27322
0
LINE
8
BLACK
6
CONTINUOUS
10
5.36414
20
-4.27322
11
5.37164
21
-4.26947
0
LINE
8
BLACK
6
CONTINUOUS
10
5.40913
20
-4.25073
11
5.40913
21
-4.32947
0
LINE
8
BLACK
6
CONTINUOUS
10
5.40913
20
-4.25448
11
5.41663
21
-4.25073
0
LINE
8
BLACK
6
CONTINUOUS
10
5.41663
20
-4.25073
11
5.43163
21
-4.25073
0
LINE
8
BLACK
6
CONTINUOUS
10
5.43163
20
-4.25073
11
5.43913
21
-4.25448
0
LINE
8
BLACK
6
CONTINUOUS
10
5.43913
20
-4.25448
11
5.44288
21
-4.25822
0
LINE
8
BLACK
6
CONTINUOUS
10
5.44288
20
-4.25822
11
5.44663
21
-4.26572
0
LINE
8
BLACK
6
CONTINUOUS
10
5.44663
20
-4.26572
11
5.44663
21
-4.28822
0
LINE
8
BLACK
6
CONTINUOUS
10
5.44663
20
-4.28822
11
5.44288
21
-4.29572
0
LINE
8
BLACK
6
CONTINUOUS
10
5.44288
20
-4.29572
11
5.43913
21
-4.29947
0
LINE
8
BLACK
6
CONTINUOUS
10
5.43913
20
-4.29947
11
5.43163
21
-4.30322
0
LINE
8
BLACK
6
CONTINUOUS
10
5.43163
20
-4.30322
11
5.41663
21
-4.30322
0
LINE
8
BLACK
6
CONTINUOUS
10
5.41663
20
-4.30322
11
5.40913
21
-4.29947
0
LINE
8
BLACK
6
CONTINUOUS
10
5.48037
20
-4.29572
11
5.48412
21
-4.29947
0
LINE
8
BLACK
6
CONTINUOUS
10
5.48412
20
-4.29947
11
5.48037
21
-4.30322
0
LINE
8
BLACK
6
CONTINUOUS
10
5.48037
20
-4.30322
11
5.47662
21
-4.29947
0
LINE
8
BLACK
6
CONTINUOUS
10
5.47662
20
-4.29947
11
5.48037
21
-4.29572
0
LINE
8
BLACK
6
CONTINUOUS
10
5.48037
20
-4.29572
11
5.48037
21
-4.30322
0
LINE
8
BLACK
6
CONTINUOUS
10
5.48037
20
-4.25448
11
5.48412
21
-4.25822
0
LINE
8
BLACK
6
CONTINUOUS
10
5.48412
20
-4.25822
11
5.48037
21
-4.26197
0
LINE
8
BLACK
6
CONTINUOUS
10
5.48037
20
-4.26197
11
5.47662
21
-4.25822
0
LINE
8
BLACK
6
CONTINUOUS
10
5.47662
20
-4.25822
11
5.48037
21
-4.25448
0
LINE
8
BLACK
6
CONTINUOUS
10
5.48037
20
-4.25448
11
5.48037
21
-4.26197
0
LINE
8
BLACK
6
CONTINUOUS
10
4.82917
20
-4.42803
11
4.83902
21
-4.43787
0
LINE
8
BLACK
6
CONTINUOUS
10
4.83902
20
-4.42803
11
4.82917
21
-4.43787
0
LINE
8
BLACK
6
CONTINUOUS
10
4.95544
20
-4.38983
11
4.96294
21
-4.38983
0
LINE
8
BLACK
6
CONTINUOUS
10
4.96294
20
-4.38983
11
4.97044
21
-4.39358
0
LINE
8
BLACK
6
CONTINUOUS
10
4.97044
20
-4.39358
11
4.97419
21
-4.39733
0
LINE
8
BLACK
6
CONTINUOUS
10
4.97419
20
-4.39733
11
4.97794
21
-4.40483
0
LINE
8
BLACK
6
CONTINUOUS
10
4.97794
20
-4.40483
11
4.98169
21
-4.41983
0
LINE
8
BLACK
6
CONTINUOUS
10
4.98169
20
-4.41983
11
4.98169
21
-4.43858
0
LINE
8
BLACK
6
CONTINUOUS
10
4.98169
20
-4.43858
11
4.97794
21
-4.45358
0
LINE
8
BLACK
6
CONTINUOUS
10
4.97794
20
-4.45358
11
4.97419
21
-4.46107
0
LINE
8
BLACK
6
CONTINUOUS
10
4.97419
20
-4.46107
11
4.97044
21
-4.46482
0
LINE
8
BLACK
6
CONTINUOUS
10
4.97044
20
-4.46482
11
4.96294
21
-4.46857
0
LINE
8
BLACK
6
CONTINUOUS
10
4.96294
20
-4.46857
11
4.95544
21
-4.46857
0
LINE
8
BLACK
6
CONTINUOUS
10
4.95544
20
-4.46857
11
4.94794
21
-4.46482
0
LINE
8
BLACK
6
CONTINUOUS
10
4.94794
20
-4.46482
11
4.94419
21
-4.46107
0
LINE
8
BLACK
6
CONTINUOUS
10
4.94419
20
-4.46107
11
4.94044
21
-4.45358
0
LINE
8
BLACK
6
CONTINUOUS
10
4.94044
20
-4.45358
11
4.93669
21
-4.43858
0
LINE
8
BLACK
6
CONTINUOUS
10
4.93669
20
-4.43858
11
4.93669
21
-4.41983
0
LINE
8
BLACK
6
CONTINUOUS
10
4.93669
20
-4.41983
11
4.94044
21
-4.40483
0
LINE
8
BLACK
6
CONTINUOUS
10
4.94044
20
-4.40483
11
4.94419
21
-4.39733
0
LINE
8
BLACK
6
CONTINUOUS
10
4.94419
20
-4.39733
11
4.94794
21
-4.39358
0
LINE
8
BLACK
6
CONTINUOUS
10
4.94794
20
-4.39358
11
4.95544
21
-4.38983
0
LINE
8
BLACK
6
CONTINUOUS
10
5.01543
20
-4.46107
11
5.01918
21
-4.46482
0
LINE
8
BLACK
6
CONTINUOUS
10
5.01918
20
-4.46482
11
5.01543
21
-4.46857
0
LINE
8
BLACK
6
CONTINUOUS
10
5.01543
20
-4.46857
11
5.01168
21
-4.46482
0
LINE
8
BLACK
6
CONTINUOUS
10
5.01168
20
-4.46482
11
5.01543
21
-4.46107
0
LINE
8
BLACK
6
CONTINUOUS
10
5.01543
20
-4.46107
11
5.01543
21
-4.46857
0
LINE
8
BLACK
6
CONTINUOUS
10
5.04918
20
-4.39733
11
5.05293
21
-4.39358
0
LINE
8
BLACK
6
CONTINUOUS
10
5.05293
20
-4.39358
11
5.06043
21
-4.38983
0
LINE
8
BLACK
6
CONTINUOUS
10
5.06043
20
-4.38983
11
5.07917
21
-4.38983
0
LINE
8
BLACK
6
CONTINUOUS
10
5.07917
20
-4.38983
11
5.08667
21
-4.39358
0
LINE
8
BLACK
6
CONTINUOUS
10
5.08667
20
-4.39358
11
5.09042
21
-4.39733
0
LINE
8
BLACK
6
CONTINUOUS
10
5.09042
20
-4.39733
11
5.09417
21
-4.40483
0
LINE
8
BLACK
6
CONTINUOUS
10
5.09417
20
-4.40483
11
5.09417
21
-4.41233
0
LINE
8
BLACK
6
CONTINUOUS
10
5.09417
20
-4.41233
11
5.09042
21
-4.42358
0
LINE
8
BLACK
6
CONTINUOUS
10
5.09042
20
-4.42358
11
5.04543
21
-4.46857
0
LINE
8
BLACK
6
CONTINUOUS
10
5.04543
20
-4.46857
11
5.09417
21
-4.46857
0
LINE
8
BLACK
6
CONTINUOUS
10
5.16541
20
-4.38983
11
5.12792
21
-4.38983
0
LINE
8
BLACK
6
CONTINUOUS
10
5.12792
20
-4.38983
11
5.12417
21
-4.42733
0
LINE
8
BLACK
6
CONTINUOUS
10
5.12417
20
-4.42733
11
5.12792
21
-4.42358
0
LINE
8
BLACK
6
CONTINUOUS
10
5.12792
20
-4.42358
11
5.13542
21
-4.41983
0
LINE
8
BLACK
6
CONTINUOUS
10
5.13542
20
-4.41983
11
5.15416
21
-4.41983
0
LINE
8
BLACK
6
CONTINUOUS
10
5.15416
20
-4.41983
11
5.16166
21
-4.42358
0
LINE
8
BLACK
6
CONTINUOUS
10
5.16166
20
-4.42358
11
5.16541
21
-4.42733
0
LINE
8
BLACK
6
CONTINUOUS
10
5.16541
20
-4.42733
11
5.16916
21
-4.43483
0
LINE
8
BLACK
6
CONTINUOUS
10
5.16916
20
-4.43483
11
5.16916
21
-4.45358
0
LINE
8
BLACK
6
CONTINUOUS
10
5.16916
20
-4.45358
11
5.16541
21
-4.46107
0
LINE
8
BLACK
6
CONTINUOUS
10
5.16541
20
-4.46107
11
5.16166
21
-4.46482
0
LINE
8
BLACK
6
CONTINUOUS
10
5.16166
20
-4.46482
11
5.15416
21
-4.46857
0
LINE
8
BLACK
6
CONTINUOUS
10
5.15416
20
-4.46857
11
5.13542
21
-4.46857
0
LINE
8
BLACK
6
CONTINUOUS
10
5.13542
20
-4.46857
11
5.12792
21
-4.46482
0
LINE
8
BLACK
6
CONTINUOUS
10
5.12792
20
-4.46482
11
5.12417
21
-4.46107
0
LINE
8
BLACK
6
CONTINUOUS
10
5.21791
20
-4.38983
11
5.2254
21
-4.38983
0
LINE
8
BLACK
6
CONTINUOUS
10
5.2254
20
-4.38983
11
5.2329
21
-4.39358
0
LINE
8
BLACK
6
CONTINUOUS
10
5.2329
20
-4.39358
11
5.23665
21
-4.39733
0
LINE
8
BLACK
6
CONTINUOUS
10
5.23665
20
-4.39733
11
5.2404
21
-4.40483
0
LINE
8
BLACK
6
CONTINUOUS
10
5.2404
20
-4.40483
11
5.24415
21
-4.41983
0
LINE
8
BLACK
6
CONTINUOUS
10
5.24415
20
-4.41983
11
5.24415
21
-4.43858
0
LINE
8
BLACK
6
CONTINUOUS
10
5.24415
20
-4.43858
11
5.2404
21
-4.45358
0
LINE
8
BLACK
6
CONTINUOUS
10
5.2404
20
-4.45358
11
5.23665
21
-4.46107
0
LINE
8
BLACK
6
CONTINUOUS
10
5.23665
20
-4.46107
11
5.2329
21
-4.46482
0
LINE
8
BLACK
6
CONTINUOUS
10
5.2329
20
-4.46482
11
5.2254
21
-4.46857
0
LINE
8
BLACK
6
CONTINUOUS
10
5.2254
20
-4.46857
11
5.21791
21
-4.46857
0
LINE
8
BLACK
6
CONTINUOUS
10
5.21791
20
-4.46857
11
5.21041
21
-4.46482
0
LINE
8
BLACK
6
CONTINUOUS
10
5.21041
20
-4.46482
11
5.20666
21
-4.46107
0
LINE
8
BLACK
6
CONTINUOUS
10
5.20666
20
-4.46107
11
5.20291
21
-4.45358
0
LINE
8
BLACK
6
CONTINUOUS
10
5.20291
20
-4.45358
11
5.19916
21
-4.43858
0
LINE
8
BLACK
6
CONTINUOUS
10
5.19916
20
-4.43858
11
5.19916
21
-4.41983
0
LINE
8
BLACK
6
CONTINUOUS
10
5.19916
20
-4.41983
11
5.20291
21
-4.40483
0
LINE
8
BLACK
6
CONTINUOUS
10
5.20291
20
-4.40483
11
5.20666
21
-4.39733
0
LINE
8
BLACK
6
CONTINUOUS
10
5.20666
20
-4.39733
11
5.21041
21
-4.39358
0
LINE
8
BLACK
6
CONTINUOUS
10
5.21041
20
-4.39358
11
5.21791
21
-4.38983
0
LINE
8
BLACK
6
CONTINUOUS
10
5.2779
20
-4.46857
11
5.2779
21
-4.41608
0
LINE
8
BLACK
6
CONTINUOUS
10
5.2779
20
-4.42358
11
5.28165
21
-4.41983
0
LINE
8
BLACK
6
CONTINUOUS
10
5.28165
20
-4.41983
11
5.28915
21
-4.41608
0
LINE
8
BLACK
6
CONTINUOUS
10
5.28915
20
-4.41608
11
5.3004
21
-4.41608
0
LINE
8
BLACK
6
CONTINUOUS
10
5.3004
20
-4.41608
11
5.30789
21
-4.41983
0
LINE
8
BLACK
6
CONTINUOUS
10
5.30789
20
-4.41983
11
5.31164
21
-4.42733
0
LINE
8
BLACK
6
CONTINUOUS
10
5.31164
20
-4.42733
11
5.31164
21
-4.46857
0
LINE
8
BLACK
6
CONTINUOUS
10
5.31164
20
-4.42733
11
5.31539
21
-4.41983
0
LINE
8
BLACK
6
CONTINUOUS
10
5.31539
20
-4.41983
11
5.32289
21
-4.41608
0
LINE
8
BLACK
6
CONTINUOUS
10
5.32289
20
-4.41608
11
5.33414
21
-4.41608
0
LINE
8
BLACK
6
CONTINUOUS
10
5.33414
20
-4.41608
11
5.34164
21
-4.41983
0
LINE
8
BLACK
6
CONTINUOUS
10
5.34164
20
-4.41983
11
5.34539
21
-4.42733
0
LINE
8
BLACK
6
CONTINUOUS
10
5.34539
20
-4.42733
11
5.34539
21
-4.46857
0
LINE
8
BLACK
6
CONTINUOUS
10
5.38289
20
-4.46857
11
5.38289
21
-4.41608
0
LINE
8
BLACK
6
CONTINUOUS
10
5.38289
20
-4.42358
11
5.38663
21
-4.41983
0
LINE
8
BLACK
6
CONTINUOUS
10
5.38663
20
-4.41983
11
5.39413
21
-4.41608
0
LINE
8
BLACK
6
CONTINUOUS
10
5.39413
20
-4.41608
11
5.40538
21
-4.41608
0
LINE
8
BLACK
6
CONTINUOUS
10
5.40538
20
-4.41608
11
5.41288
21
-4.41983
0
LINE
8
BLACK
6
CONTINUOUS
10
5.41288
20
-4.41983
11
5.41663
21
-4.42733
0
LINE
8
BLACK
6
CONTINUOUS
10
5.41663
20
-4.42733
11
5.41663
21
-4.46857
0
LINE
8
BLACK
6
CONTINUOUS
10
5.41663
20
-4.42733
11
5.42038
21
-4.41983
0
LINE
8
BLACK
6
CONTINUOUS
10
5.42038
20
-4.41983
11
5.42788
21
-4.41608
0
LINE
8
BLACK
6
CONTINUOUS
10
5.42788
20
-4.41608
11
5.43913
21
-4.41608
0
LINE
8
BLACK
6
CONTINUOUS
10
5.43913
20
-4.41608
11
5.44663
21
-4.41983
0
LINE
8
BLACK
6
CONTINUOUS
10
5.44663
20
-4.41983
11
5.45038
21
-4.42733
0
LINE
8
BLACK
6
CONTINUOUS
10
5.45038
20
-4.42733
11
5.45038
21
-4.46857
0
LINE
8
BLACK
6
CONTINUOUS
10
5.60411
20
-4.38608
11
5.53662
21
-4.48732
0
LINE
8
BLACK
6
CONTINUOUS
10
5.70534
20
-4.38983
11
5.71284
21
-4.38983
0
LINE
8
BLACK
6
CONTINUOUS
10
5.71284
20
-4.38983
11
5.72034
21
-4.39358
0
LINE
8
BLACK
6
CONTINUOUS
10
5.72034
20
-4.39358
11
5.72409
21
-4.39733
0
LINE
8
BLACK
6
CONTINUOUS
10
5.72409
20
-4.39733
11
5.72784
21
-4.40483
0
LINE
8
BLACK
6
CONTINUOUS
10
5.72784
20
-4.40483
11
5.73159
21
-4.41983
0
LINE
8
BLACK
6
CONTINUOUS
10
5.73159
20
-4.41983
11
5.73159
21
-4.43858
0
LINE
8
BLACK
6
CONTINUOUS
10
5.73159
20
-4.43858
11
5.72784
21
-4.45358
0
LINE
8
BLACK
6
CONTINUOUS
10
5.72784
20
-4.45358
11
5.72409
21
-4.46107
0
LINE
8
BLACK
6
CONTINUOUS
10
5.72409
20
-4.46107
11
5.72034
21
-4.46482
0
LINE
8
BLACK
6
CONTINUOUS
10
5.72034
20
-4.46482
11
5.71284
21
-4.46857
0
LINE
8
BLACK
6
CONTINUOUS
10
5.71284
20
-4.46857
11
5.70534
21
-4.46857
0
LINE
8
BLACK
6
CONTINUOUS
10
5.70534
20
-4.46857
11
5.69785
21
-4.46482
0
LINE
8
BLACK
6
CONTINUOUS
10
5.69785
20
-4.46482
11
5.6941
21
-4.46107
0
LINE
8
BLACK
6
CONTINUOUS
10
5.6941
20
-4.46107
11
5.69035
21
-4.45358
0
LINE
8
BLACK
6
CONTINUOUS
10
5.69035
20
-4.45358
11
5.6866
21
-4.43858
0
LINE
8
BLACK
6
CONTINUOUS
10
5.6866
20
-4.43858
11
5.6866
21
-4.41983
0
LINE
8
BLACK
6
CONTINUOUS
10
5.6866
20
-4.41983
11
5.69035
21
-4.40483
0
LINE
8
BLACK
6
CONTINUOUS
10
5.69035
20
-4.40483
11
5.6941
21
-4.39733
0
LINE
8
BLACK
6
CONTINUOUS
10
5.6941
20
-4.39733
11
5.69785
21
-4.39358
0
LINE
8
BLACK
6
CONTINUOUS
10
5.69785
20
-4.39358
11
5.70534
21
-4.38983
0
LINE
8
BLACK
6
CONTINUOUS
10
5.76534
20
-4.46107
11
5.76909
21
-4.46482
0
LINE
8
BLACK
6
CONTINUOUS
10
5.76909
20
-4.46482
11
5.76534
21
-4.46857
0
LINE
8
BLACK
6
CONTINUOUS
10
5.76534
20
-4.46857
11
5.76159
21
-4.46482
0
LINE
8
BLACK
6
CONTINUOUS
10
5.76159
20
-4.46482
11
5.76534
21
-4.46107
0
LINE
8
BLACK
6
CONTINUOUS
10
5.76534
20
-4.46107
11
5.76534
21
-4.46857
0
LINE
8
BLACK
6
CONTINUOUS
10
5.81783
20
-4.38983
11
5.82533
21
-4.38983
0
LINE
8
BLACK
6
CONTINUOUS
10
5.82533
20
-4.38983
11
5.83283
21
-4.39358
0
LINE
8
BLACK
6
CONTINUOUS
10
5.83283
20
-4.39358
11
5.83658
21
-4.39733
0
LINE
8
BLACK
6
CONTINUOUS
10
5.83658
20
-4.39733
11
5.84033
21
-4.40483
0
LINE
8
BLACK
6
CONTINUOUS
10
5.84033
20
-4.40483
11
5.84408
21
-4.41983
0
LINE
8
BLACK
6
CONTINUOUS
10
5.84408
20
-4.41983
11
5.84408
21
-4.43858
0
LINE
8
BLACK
6
CONTINUOUS
10
5.84408
20
-4.43858
11
5.84033
21
-4.45358
0
LINE
8
BLACK
6
CONTINUOUS
10
5.84033
20
-4.45358
11
5.83658
21
-4.46107
0
LINE
8
BLACK
6
CONTINUOUS
10
5.83658
20
-4.46107
11
5.83283
21
-4.46482
0
LINE
8
BLACK
6
CONTINUOUS
10
5.83283
20
-4.46482
11
5.82533
21
-4.46857
0
LINE
8
BLACK
6
CONTINUOUS
10
5.82533
20
-4.46857
11
5.81783
21
-4.46857
0
LINE
8
BLACK
6
CONTINUOUS
10
5.81783
20
-4.46857
11
5.81033
21
-4.46482
0
LINE
8
BLACK
6
CONTINUOUS
10
5.81033
20
-4.46482
11
5.80658
21
-4.46107
0
LINE
8
BLACK
6
CONTINUOUS
10
5.80658
20
-4.46107
11
5.80283
21
-4.45358
0
LINE
8
BLACK
6
CONTINUOUS
10
5.80283
20
-4.45358
11
5.79908
21
-4.43858
0
LINE
8
BLACK
6
CONTINUOUS
10
5.79908
20
-4.43858
11
5.79908
21
-4.41983
0
LINE
8
BLACK
6
CONTINUOUS
10
5.79908
20
-4.41983
11
5.80283
21
-4.40483
0
LINE
8
BLACK
6
CONTINUOUS
10
5.80283
20
-4.40483
11
5.80658
21
-4.39733
0
LINE
8
BLACK
6
CONTINUOUS
10
5.80658
20
-4.39733
11
5.81033
21
-4.39358
0
LINE
8
BLACK
6
CONTINUOUS
10
5.81033
20
-4.39358
11
5.81783
21
-4.38983
0
LINE
8
BLACK
6
CONTINUOUS
10
5.89282
20
-4.38983
11
5.90032
21
-4.38983
0
LINE
8
BLACK
6
CONTINUOUS
10
5.90032
20
-4.38983
11
5.90782
21
-4.39358
0
LINE
8
BLACK
6
CONTINUOUS
10
5.90782
20
-4.39358
11
5.91157
21
-4.39733
0
LINE
8
BLACK
6
CONTINUOUS
10
5.91157
20
-4.39733
11
5.91532
21
-4.40483
0
LINE
8
BLACK
6
CONTINUOUS
10
5.91532
20
-4.40483
11
5.91907
21
-4.41983
0
LINE
8
BLACK
6
CONTINUOUS
10
5.91907
20
-4.41983
11
5.91907
21
-4.43858
0
LINE
8
BLACK
6
CONTINUOUS
10
5.91907
20
-4.43858
11
5.91532
21
-4.45358
0
LINE
8
BLACK
6
CONTINUOUS
10
5.91532
20
-4.45358
11
5.91157
21
-4.46107
0
LINE
8
BLACK
6
CONTINUOUS
10
5.91157
20
-4.46107
11
5.90782
21
-4.46482
0
LINE
8
BLACK
6
CONTINUOUS
10
5.90782
20
-4.46482
11
5.90032
21
-4.46857
0
LINE
8
BLACK
6
CONTINUOUS
10
5.90032
20
-4.46857
11
5.89282
21
-4.46857
0
LINE
8
BLACK
6
CONTINUOUS
10
5.89282
20
-4.46857
11
5.88532
21
-4.46482
0
LINE
8
BLACK
6
CONTINUOUS
10
5.88532
20
-4.46482
11
5.88157
21
-4.46107
0
LINE
8
BLACK
6
CONTINUOUS
10
5.88157
20
-4.46107
11
5.87782
21
-4.45358
0
LINE
8
BLACK
6
CONTINUOUS
10
5.87782
20
-4.45358
11
5.87407
21
-4.43858
0
LINE
8
BLACK
6
CONTINUOUS
10
5.87407
20
-4.43858
11
5.87407
21
-4.41983
0
LINE
8
BLACK
6
CONTINUOUS
10
5.87407
20
-4.41983
11
5.87782
21
-4.40483
0
LINE
8
BLACK
6
CONTINUOUS
10
5.87782
20
-4.40483
11
5.88157
21
-4.39733
0
LINE
8
BLACK
6
CONTINUOUS
10
5.88157
20
-4.39733
11
5.88532
21
-4.39358
0
LINE
8
BLACK
6
CONTINUOUS
10
5.88532
20
-4.39358
11
5.89282
21
-4.38983
0
LINE
8
BLACK
6
CONTINUOUS
10
5.95656
20
-4.46857
11
5.97156
21
-4.46857
0
LINE
8
BLACK
6
CONTINUOUS
10
5.97156
20
-4.46857
11
5.97906
21
-4.46482
0
LINE
8
BLACK
6
CONTINUOUS
10
5.97906
20
-4.46482
11
5.98281
21
-4.46107
0
LINE
8
BLACK
6
CONTINUOUS
10
5.98281
20
-4.46107
11
5.99031
21
-4.44983
0
LINE
8
BLACK
6
CONTINUOUS
10
5.99031
20
-4.44983
11
5.99406
21
-4.43483
0
LINE
8
BLACK
6
CONTINUOUS
10
5.99406
20
-4.43483
11
5.99406
21
-4.40483
0
LINE
8
BLACK
6
CONTINUOUS
10
5.99406
20
-4.40483
11
5.99031
21
-4.39733
0
LINE
8
BLACK
6
CONTINUOUS
10
5.99031
20
-4.39733
11
5.98656
21
-4.39358
0
LINE
8
BLACK
6
CONTINUOUS
10
5.98656
20
-4.39358
11
5.97906
21
-4.38983
0
LINE
8
BLACK
6
CONTINUOUS
10
5.97906
20
-4.38983
11
5.96406
21
-4.38983
0
LINE
8
BLACK
6
CONTINUOUS
10
5.96406
20
-4.38983
11
5.95656
21
-4.39358
0
LINE
8
BLACK
6
CONTINUOUS
10
5.95656
20
-4.39358
11
5.95281
21
-4.39733
0
LINE
8
BLACK
6
CONTINUOUS
10
5.95281
20
-4.39733
11
5.94906
21
-4.40483
0
LINE
8
BLACK
6
CONTINUOUS
10
5.94906
20
-4.40483
11
5.94906
21
-4.42358
0
LINE
8
BLACK
6
CONTINUOUS
10
5.94906
20
-4.42358
11
5.95281
21
-4.43108
0
LINE
8
BLACK
6
CONTINUOUS
10
5.95281
20
-4.43108
11
5.95656
21
-4.43483
0
LINE
8
BLACK
6
CONTINUOUS
10
5.95656
20
-4.43483
11
5.96406
21
-4.43858
0
LINE
8
BLACK
6
CONTINUOUS
10
5.96406
20
-4.43858
11
5.97906
21
-4.43858
0
LINE
8
BLACK
6
CONTINUOUS
10
5.97906
20
-4.43858
11
5.98656
21
-4.43483
0
LINE
8
BLACK
6
CONTINUOUS
10
5.98656
20
-4.43483
11
5.99031
21
-4.43108
0
LINE
8
BLACK
6
CONTINUOUS
10
5.99031
20
-4.43108
11
5.99406
21
-4.42358
0
LINE
8
BLACK
6
CONTINUOUS
10
6.03905
20
-4.42358
11
6.03155
21
-4.41983
0
LINE
8
BLACK
6
CONTINUOUS
10
6.03155
20
-4.41983
11
6.0278
21
-4.41608
0
LINE
8
BLACK
6
CONTINUOUS
10
6.0278
20
-4.41608
11
6.02406
21
-4.40858
0
LINE
8
BLACK
6
CONTINUOUS
10
6.02406
20
-4.40858
11
6.02406
21
-4.40483
0
LINE
8
BLACK
6
CONTINUOUS
10
6.02406
20
-4.40483
11
6.0278
21
-4.39733
0
LINE
8
BLACK
6
CONTINUOUS
10
6.0278
20
-4.39733
11
6.03155
21
-4.39358
0
LINE
8
BLACK
6
CONTINUOUS
10
6.03155
20
-4.39358
11
6.03905
21
-4.38983
0
LINE
8
BLACK
6
CONTINUOUS
10
6.03905
20
-4.38983
11
6.05405
21
-4.38983
0
LINE
8
BLACK
6
CONTINUOUS
10
6.05405
20
-4.38983
11
6.06155
21
-4.39358
0
LINE
8
BLACK
6
CONTINUOUS
10
6.06155
20
-4.39358
11
6.0653
21
-4.39733
0
LINE
8
BLACK
6
CONTINUOUS
10
6.0653
20
-4.39733
11
6.06905
21
-4.40483
0
LINE
8
BLACK
6
CONTINUOUS
10
6.06905
20
-4.40483
11
6.06905
21
-4.40858
0
LINE
8
BLACK
6
CONTINUOUS
10
6.06905
20
-4.40858
11
6.0653
21
-4.41608
0
LINE
8
BLACK
6
CONTINUOUS
10
6.0653
20
-4.41608
11
6.06155
21
-4.41983
0
LINE
8
BLACK
6
CONTINUOUS
10
6.06155
20
-4.41983
11
6.05405
21
-4.42358
0
LINE
8
BLACK
6
CONTINUOUS
10
6.05405
20
-4.42358
11
6.03905
21
-4.42358
0
LINE
8
BLACK
6
CONTINUOUS
10
6.03905
20
-4.42358
11
6.03155
21
-4.42733
0
LINE
8
BLACK
6
CONTINUOUS
10
6.03155
20
-4.42733
11
6.0278
21
-4.43108
0
LINE
8
BLACK
6
CONTINUOUS
10
6.0278
20
-4.43108
11
6.02406
21
-4.43858
0
LINE
8
BLACK
6
CONTINUOUS
10
6.02406
20
-4.43858
11
6.02406
21
-4.45358
0
LINE
8
BLACK
6
CONTINUOUS
10
6.02406
20
-4.45358
11
6.0278
21
-4.46107
0
LINE
8
BLACK
6
CONTINUOUS
10
6.0278
20
-4.46107
11
6.03155
21
-4.46482
0
LINE
8
BLACK
6
CONTINUOUS
10
6.03155
20
-4.46482
11
6.03905
21
-4.46857
0
LINE
8
BLACK
6
CONTINUOUS
10
6.03905
20
-4.46857
11
6.05405
21
-4.46857
0
LINE
8
BLACK
6
CONTINUOUS
10
6.05405
20
-4.46857
11
6.06155
21
-4.46482
0
LINE
8
BLACK
6
CONTINUOUS
10
6.06155
20
-4.46482
11
6.0653
21
-4.46107
0
LINE
8
BLACK
6
CONTINUOUS
10
6.0653
20
-4.46107
11
6.06905
21
-4.45358
0
LINE
8
BLACK
6
CONTINUOUS
10
6.06905
20
-4.45358
11
6.06905
21
-4.43858
0
LINE
8
BLACK
6
CONTINUOUS
10
6.06905
20
-4.43858
11
6.0653
21
-4.43108
0
LINE
8
BLACK
6
CONTINUOUS
10
6.0653
20
-4.43108
11
6.06155
21
-4.42733
0
LINE
8
BLACK
6
CONTINUOUS
10
6.06155
20
-4.42733
11
6.05405
21
-4.42358
0
LINE
8
BLACK
6
CONTINUOUS
10
6.09905
20
-4.38983
11
6.09905
21
-4.40483
0
LINE
8
BLACK
6
CONTINUOUS
10
6.12904
20
-4.38983
11
6.12904
21
-4.40483
0
LINE
8
BLACK
6
CONTINUOUS
10
6.24528
20
-4.49857
11
6.24153
21
-4.49482
0
LINE
8
BLACK
6
CONTINUOUS
10
6.24153
20
-4.49482
11
6.23403
21
-4.48357
0
LINE
8
BLACK
6
CONTINUOUS
10
6.23403
20
-4.48357
11
6.23028
21
-4.47607
0
LINE
8
BLACK
6
CONTINUOUS
10
6.23028
20
-4.47607
11
6.22653
21
-4.46482
0
LINE
8
BLACK
6
CONTINUOUS
10
6.22653
20
-4.46482
11
6.22278
21
-4.44608
0
LINE
8
BLACK
6
CONTINUOUS
10
6.22278
20
-4.44608
11
6.22278
21
-4.43108
0
LINE
8
BLACK
6
CONTINUOUS
10
6.22278
20
-4.43108
11
6.22653
21
-4.41233
0
LINE
8
BLACK
6
CONTINUOUS
10
6.22653
20
-4.41233
11
6.23028
21
-4.40108
0
LINE
8
BLACK
6
CONTINUOUS
10
6.23028
20
-4.40108
11
6.23403
21
-4.39358
0
LINE
8
BLACK
6
CONTINUOUS
10
6.23403
20
-4.39358
11
6.24153
21
-4.38233
0
LINE
8
BLACK
6
CONTINUOUS
10
6.24153
20
-4.38233
11
6.24528
21
-4.37858
0
LINE
8
BLACK
6
CONTINUOUS
10
6.27902
20
-4.46857
11
6.29402
21
-4.46857
0
LINE
8
BLACK
6
CONTINUOUS
10
6.29402
20
-4.46857
11
6.30152
21
-4.46482
0
LINE
8
BLACK
6
CONTINUOUS
10
6.30152
20
-4.46482
11
6.30527
21
-4.46107
0
LINE
8
BLACK
6
CONTINUOUS
10
6.30527
20
-4.46107
11
6.31277
21
-4.44983
0
LINE
8
BLACK
6
CONTINUOUS
10
6.31277
20
-4.44983
11
6.31652
21
-4.43483
0
LINE
8
BLACK
6
CONTINUOUS
10
6.31652
20
-4.43483
11
6.31652
21
-4.40483
0
LINE
8
BLACK
6
CONTINUOUS
10
6.31652
20
-4.40483
11
6.31277
21
-4.39733
0
LINE
8
BLACK
6
CONTINUOUS
10
6.31277
20
-4.39733
11
6.30902
21
-4.39358
0
LINE
8
BLACK
6
CONTINUOUS
10
6.30902
20
-4.39358
11
6.30152
21
-4.38983
0
LINE
8
BLACK
6
CONTINUOUS
10
6.30152
20
-4.38983
11
6.28652
21
-4.38983
0
LINE
8
BLACK
6
CONTINUOUS
10
6.28652
20
-4.38983
11
6.27902
21
-4.39358
0
LINE
8
BLACK
6
CONTINUOUS
10
6.27902
20
-4.39358
11
6.27527
21
-4.39733
0
LINE
8
BLACK
6
CONTINUOUS
10
6.27527
20
-4.39733
11
6.27152
21
-4.40483
0
LINE
8
BLACK
6
CONTINUOUS
10
6.27152
20
-4.40483
11
6.27152
21
-4.42358
0
LINE
8
BLACK
6
CONTINUOUS
10
6.27152
20
-4.42358
11
6.27527
21
-4.43108
0
LINE
8
BLACK
6
CONTINUOUS
10
6.27527
20
-4.43108
11
6.27902
21
-4.43483
0
LINE
8
BLACK
6
CONTINUOUS
10
6.27902
20
-4.43483
11
6.28652
21
-4.43858
0
LINE
8
BLACK
6
CONTINUOUS
10
6.28652
20
-4.43858
11
6.30152
21
-4.43858
0
LINE
8
BLACK
6
CONTINUOUS
10
6.30152
20
-4.43858
11
6.30902
21
-4.43483
0
LINE
8
BLACK
6
CONTINUOUS
10
6.30902
20
-4.43483
11
6.31277
21
-4.43108
0
LINE
8
BLACK
6
CONTINUOUS
10
6.31277
20
-4.43108
11
6.31652
21
-4.42358
0
LINE
8
BLACK
6
CONTINUOUS
10
6.35401
20
-4.46857
11
6.36901
21
-4.46857
0
LINE
8
BLACK
6
CONTINUOUS
10
6.36901
20
-4.46857
11
6.37651
21
-4.46482
0
LINE
8
BLACK
6
CONTINUOUS
10
6.37651
20
-4.46482
11
6.38026
21
-4.46107
0
LINE
8
BLACK
6
CONTINUOUS
10
6.38026
20
-4.46107
11
6.38776
21
-4.44983
0
LINE
8
BLACK
6
CONTINUOUS
10
6.38776
20
-4.44983
11
6.39151
21
-4.43483
0
LINE
8
BLACK
6
CONTINUOUS
10
6.39151
20
-4.43483
11
6.39151
21
-4.40483
0
LINE
8
BLACK
6
CONTINUOUS
10
6.39151
20
-4.40483
11
6.38776
21
-4.39733
0
LINE
8
BLACK
6
CONTINUOUS
10
6.38776
20
-4.39733
11
6.38401
21
-4.39358
0
LINE
8
BLACK
6
CONTINUOUS
10
6.38401
20
-4.39358
11
6.37651
21
-4.38983
0
LINE
8
BLACK
6
CONTINUOUS
10
6.37651
20
-4.38983
11
6.36151
21
-4.38983
0
LINE
8
BLACK
6
CONTINUOUS
10
6.36151
20
-4.38983
11
6.35401
21
-4.39358
0
LINE
8
BLACK
6
CONTINUOUS
10
6.35401
20
-4.39358
11
6.35026
21
-4.39733
0
LINE
8
BLACK
6
CONTINUOUS
10
6.35026
20
-4.39733
11
6.34651
21
-4.40483
0
LINE
8
BLACK
6
CONTINUOUS
10
6.34651
20
-4.40483
11
6.34651
21
-4.42358
0
LINE
8
BLACK
6
CONTINUOUS
10
6.34651
20
-4.42358
11
6.35026
21
-4.43108
0
LINE
8
BLACK
6
CONTINUOUS
10
6.35026
20
-4.43108
11
6.35401
21
-4.43483
0
LINE
8
BLACK
6
CONTINUOUS
10
6.35401
20
-4.43483
11
6.36151
21
-4.43858
0
LINE
8
BLACK
6
CONTINUOUS
10
6.36151
20
-4.43858
11
6.37651
21
-4.43858
0
LINE
8
BLACK
6
CONTINUOUS
10
6.37651
20
-4.43858
11
6.38401
21
-4.43483
0
LINE
8
BLACK
6
CONTINUOUS
10
6.38401
20
-4.43483
11
6.38776
21
-4.43108
0
LINE
8
BLACK
6
CONTINUOUS
10
6.38776
20
-4.43108
11
6.39151
21
-4.42358
0
LINE
8
BLACK
6
CONTINUOUS
10
6.48525
20
-4.46857
11
6.48525
21
-4.38983
0
LINE
8
BLACK
6
CONTINUOUS
10
6.51899
20
-4.46857
11
6.51899
21
-4.42733
0
LINE
8
BLACK
6
CONTINUOUS
10
6.51899
20
-4.42733
11
6.51524
21
-4.41983
0
LINE
8
BLACK
6
CONTINUOUS
10
6.51524
20
-4.41983
11
6.50774
21
-4.41608
0
LINE
8
BLACK
6
CONTINUOUS
10
6.50774
20
-4.41608
11
6.4965
21
-4.41608
0
LINE
8
BLACK
6
CONTINUOUS
10
6.4965
20
-4.41608
11
6.489
21
-4.41983
0
LINE
8
BLACK
6
CONTINUOUS
10
6.489
20
-4.41983
11
6.48525
21
-4.42358
0
LINE
8
BLACK
6
CONTINUOUS
10
6.56774
20
-4.46857
11
6.56024
21
-4.46482
0
LINE
8
BLACK
6
CONTINUOUS
10
6.56024
20
-4.46482
11
6.55649
21
-4.46107
0
LINE
8
BLACK
6
CONTINUOUS
10
6.55649
20
-4.46107
11
6.55274
21
-4.45358
0
LINE
8
BLACK
6
CONTINUOUS
10
6.55274
20
-4.45358
11
6.55274
21
-4.43108
0
LINE
8
BLACK
6
CONTINUOUS
10
6.55274
20
-4.43108
11
6.55649
21
-4.42358
0
LINE
8
BLACK
6
CONTINUOUS
10
6.55649
20
-4.42358
11
6.56024
21
-4.41983
0
LINE
8
BLACK
6
CONTINUOUS
10
6.56024
20
-4.41983
11
6.56774
21
-4.41608
0
LINE
8
BLACK
6
CONTINUOUS
10
6.56774
20
-4.41608
11
6.57899
21
-4.41608
0
LINE
8
BLACK
6
CONTINUOUS
10
6.57899
20
-4.41608
11
6.58648
21
-4.41983
0
LINE
8
BLACK
6
CONTINUOUS
10
6.58648
20
-4.41983
11
6.59023
21
-4.42358
0
LINE
8
BLACK
6
CONTINUOUS
10
6.59023
20
-4.42358
11
6.59398
21
-4.43108
0
LINE
8
BLACK
6
CONTINUOUS
10
6.59398
20
-4.43108
11
6.59398
21
-4.45358
0
LINE
8
BLACK
6
CONTINUOUS
10
6.59398
20
-4.45358
11
6.59023
21
-4.46107
0
LINE
8
BLACK
6
CONTINUOUS
10
6.59023
20
-4.46107
11
6.58648
21
-4.46482
0
LINE
8
BLACK
6
CONTINUOUS
10
6.58648
20
-4.46482
11
6.57899
21
-4.46857
0
LINE
8
BLACK
6
CONTINUOUS
10
6.57899
20
-4.46857
11
6.56774
21
-4.46857
0
LINE
8
BLACK
6
CONTINUOUS
10
6.63898
20
-4.46857
11
6.63148
21
-4.46482
0
LINE
8
BLACK
6
CONTINUOUS
10
6.63148
20
-4.46482
11
6.62773
21
-4.45732
0
LINE
8
BLACK
6
CONTINUOUS
10
6.62773
20
-4.45732
11
6.62773
21
-4.38983
0
LINE
8
BLACK
6
CONTINUOUS
10
6.69897
20
-4.46482
11
6.69147
21
-4.46857
0
LINE
8
BLACK
6
CONTINUOUS
10
6.69147
20
-4.46857
11
6.67647
21
-4.46857
0
LINE
8
BLACK
6
CONTINUOUS
10
6.67647
20
-4.46857
11
6.66897
21
-4.46482
0
LINE
8
BLACK
6
CONTINUOUS
10
6.66897
20
-4.46482
11
6.66522
21
-4.45732
0
LINE
8
BLACK
6
CONTINUOUS
10
6.66522
20
-4.45732
11
6.66522
21
-4.42733
0
LINE
8
BLACK
6
CONTINUOUS
10
6.66522
20
-4.42733
11
6.66897
21
-4.41983
0
LINE
8
BLACK
6
CONTINUOUS
10
6.66897
20
-4.41983
11
6.67647
21
-4.41608
0
LINE
8
BLACK
6
CONTINUOUS
10
6.67647
20
-4.41608
11
6.69147
21
-4.41608
0
LINE
8
BLACK
6
CONTINUOUS
10
6.69147
20
-4.41608
11
6.69897
21
-4.41983
0
LINE
8
BLACK
6
CONTINUOUS
10
6.69897
20
-4.41983
11
6.70272
21
-4.42733
0
LINE
8
BLACK
6
CONTINUOUS
10
6.70272
20
-4.42733
11
6.70272
21
-4.43483
0
LINE
8
BLACK
6
CONTINUOUS
10
6.70272
20
-4.43483
11
6.66522
21
-4.44233
0
LINE
8
BLACK
6
CONTINUOUS
10
6.73272
20
-4.46482
11
6.74022
21
-4.46857
0
LINE
8
BLACK
6
CONTINUOUS
10
6.74022
20
-4.46857
11
6.75521
21
-4.46857
0
LINE
8
BLACK
6
CONTINUOUS
10
6.75521
20
-4.46857
11
6.76271
21
-4.46482
0
LINE
8
BLACK
6
CONTINUOUS
10
6.76271
20
-4.46482
11
6.76646
21
-4.45732
0
LINE
8
BLACK
6
CONTINUOUS
10
6.76646
20
-4.45732
11
6.76646
21
-4.45358
0
LINE
8
BLACK
6
CONTINUOUS
10
6.76646
20
-4.45358
11
6.76271
21
-4.44608
0
LINE
8
BLACK
6
CONTINUOUS
10
6.76271
20
-4.44608
11
6.75521
21
-4.44233
0
LINE
8
BLACK
6
CONTINUOUS
10
6.75521
20
-4.44233
11
6.74397
21
-4.44233
0
LINE
8
BLACK
6
CONTINUOUS
10
6.74397
20
-4.44233
11
6.73647
21
-4.43858
0
LINE
8
BLACK
6
CONTINUOUS
10
6.73647
20
-4.43858
11
6.73272
21
-4.43108
0
LINE
8
BLACK
6
CONTINUOUS
10
6.73272
20
-4.43108
11
6.73272
21
-4.42733
0
LINE
8
BLACK
6
CONTINUOUS
10
6.73272
20
-4.42733
11
6.73647
21
-4.41983
0
LINE
8
BLACK
6
CONTINUOUS
10
6.73647
20
-4.41983
11
6.74397
21
-4.41608
0
LINE
8
BLACK
6
CONTINUOUS
10
6.74397
20
-4.41608
11
6.75521
21
-4.41608
0
LINE
8
BLACK
6
CONTINUOUS
10
6.75521
20
-4.41608
11
6.76271
21
-4.41983
0
LINE
8
BLACK
6
CONTINUOUS
10
6.79271
20
-4.49857
11
6.79646
21
-4.49482
0
LINE
8
BLACK
6
CONTINUOUS
10
6.79646
20
-4.49482
11
6.80396
21
-4.48357
0
LINE
8
BLACK
6
CONTINUOUS
10
6.80396
20
-4.48357
11
6.80771
21
-4.47607
0
LINE
8
BLACK
6
CONTINUOUS
10
6.80771
20
-4.47607
11
6.81146
21
-4.46482
0
LINE
8
BLACK
6
CONTINUOUS
10
6.81146
20
-4.46482
11
6.81521
21
-4.44608
0
LINE
8
BLACK
6
CONTINUOUS
10
6.81521
20
-4.44608
11
6.81521
21
-4.43108
0
LINE
8
BLACK
6
CONTINUOUS
10
6.81521
20
-4.43108
11
6.81146
21
-4.41233
0
LINE
8
BLACK
6
CONTINUOUS
10
6.81146
20
-4.41233
11
6.80771
21
-4.40108
0
LINE
8
BLACK
6
CONTINUOUS
10
6.80771
20
-4.40108
11
6.80396
21
-4.39358
0
LINE
8
BLACK
6
CONTINUOUS
10
6.80396
20
-4.39358
11
6.79646
21
-4.38233
0
LINE
8
BLACK
6
CONTINUOUS
10
6.79646
20
-4.38233
11
6.79271
21
-4.37858
0
CIRCLE
8
BLACK
10
4.82622
20
-4.53689
40
0.0127953
0
LINE
8
BLACK
6
CONTINUOUS
10
4.95544
20
-4.49377
11
4.96294
21
-4.49377
0
LINE
8
BLACK
6
CONTINUOUS
10
4.96294
20
-4.49377
11
4.97044
21
-4.49752
0
LINE
8
BLACK
6
CONTINUOUS
10
4.97044
20
-4.49752
11
4.97419
21
-4.50127
0
LINE
8
BLACK
6
CONTINUOUS
10
4.97419
20
-4.50127
11
4.97794
21
-4.50877
0
LINE
8
BLACK
6
CONTINUOUS
10
4.97794
20
-4.50877
11
4.98169
21
-4.52377
0
LINE
8
BLACK
6
CONTINUOUS
10
4.98169
20
-4.52377
11
4.98169
21
-4.54251
0
LINE
8
BLACK
6
CONTINUOUS
10
4.98169
20
-4.54251
11
4.97794
21
-4.55751
0
LINE
8
BLACK
6
CONTINUOUS
10
4.97794
20
-4.55751
11
4.97419
21
-4.56501
0
LINE
8
BLACK
6
CONTINUOUS
10
4.97419
20
-4.56501
11
4.97044
21
-4.56876
0
LINE
8
BLACK
6
CONTINUOUS
10
4.97044
20
-4.56876
11
4.96294
21
-4.57251
0
LINE
8
BLACK
6
CONTINUOUS
10
4.96294
20
-4.57251
11
4.95544
21
-4.57251
0
LINE
8
BLACK
6
CONTINUOUS
10
4.95544
20
-4.57251
11
4.94794
21
-4.56876
0
LINE
8
BLACK
6
CONTINUOUS
10
4.94794
20
-4.56876
11
4.94419
21
-4.56501
0
LINE
8
BLACK
6
CONTINUOUS
10
4.94419
20
-4.56501
11
4.94044
21
-4.55751
0
LINE
8
BLACK
6
CONTINUOUS
10
4.94044
20
-4.55751
11
4.93669
21
-4.54251
0
LINE
8
BLACK
6
CONTINUOUS
10
4.93669
20
-4.54251
11
4.93669
21
-4.52377
0
LINE
8
BLACK
6
CONTINUOUS
10
4.93669
20
-4.52377
11
4.94044
21
-4.50877
0
LINE
8
BLACK
6
CONTINUOUS
10
4.94044
20
-4.50877
11
4.94419
21
-4.50127
0
LINE
8
BLACK
6
CONTINUOUS
10
4.94419
20
-4.50127
11
4.94794
21
-4.49752
0
LINE
8
BLACK
6
CONTINUOUS
10
4.94794
20
-4.49752
11
4.95544
21
-4.49377
0
LINE
8
BLACK
6
CONTINUOUS
10
5.01543
20
-4.56501
11
5.01918
21
-4.56876
0
LINE
8
BLACK
6
CONTINUOUS
10
5.01918
20
-4.56876
11
5.01543
21
-4.57251
0
LINE
8
BLACK
6
CONTINUOUS
10
5.01543
20
-4.57251
11
5.01168
21
-4.56876
0
LINE
8
BLACK
6
CONTINUOUS
10
5.01168
20
-4.56876
11
5.01543
21
-4.56501
0
LINE
8
BLACK
6
CONTINUOUS
10
5.01543
20
-4.56501
11
5.01543
21
-4.57251
0
LINE
8
BLACK
6
CONTINUOUS
10
5.08667
20
-4.49377
11
5.07167
21
-4.49377
0
LINE
8
BLACK
6
CONTINUOUS
10
5.07167
20
-4.49377
11
5.06418
21
-4.49752
0
LINE
8
BLACK
6
CONTINUOUS
10
5.06418
20
-4.49752
11
5.06043
21
-4.50127
0
LINE
8
BLACK
6
CONTINUOUS
10
5.06043
20
-4.50127
11
5.05293
21
-4.51252
0
LINE
8
BLACK
6
CONTINUOUS
10
5.05293
20
-4.51252
11
5.04918
21
-4.52752
0
LINE
8
BLACK
6
CONTINUOUS
10
5.04918
20
-4.52752
11
5.04918
21
-4.55751
0
LINE
8
BLACK
6
CONTINUOUS
10
5.04918
20
-4.55751
11
5.05293
21
-4.56501
0
LINE
8
BLACK
6
CONTINUOUS
10
5.05293
20
-4.56501
11
5.05668
21
-4.56876
0
LINE
8
BLACK
6
CONTINUOUS
10
5.05668
20
-4.56876
11
5.06418
21
-4.57251
0
LINE
8
BLACK
6
CONTINUOUS
10
5.06418
20
-4.57251
11
5.07917
21
-4.57251
0
LINE
8
BLACK
6
CONTINUOUS
10
5.07917
20
-4.57251
11
5.08667
21
-4.56876
0
LINE
8
BLACK
6
CONTINUOUS
10
5.08667
20
-4.56876
11
5.09042
21
-4.56501
0
LINE
8
BLACK
6
CONTINUOUS
10
5.09042
20
-4.56501
11
5.09417
21
-4.55751
0
LINE
8
BLACK
6
CONTINUOUS
10
5.09417
20
-4.55751
11
5.09417
21
-4.53876
0
LINE
8
BLACK
6
CONTINUOUS
10
5.09417
20
-4.53876
11
5.09042
21
-4.53127
0
LINE
8
BLACK
6
CONTINUOUS
10
5.09042
20
-4.53127
11
5.08667
21
-4.52752
0
LINE
8
BLACK
6
CONTINUOUS
10
5.08667
20
-4.52752
11
5.07917
21
-4.52377
0
LINE
8
BLACK
6
CONTINUOUS
10
5.07917
20
-4.52377
11
5.06418
21
-4.52377
0
LINE
8
BLACK
6
CONTINUOUS
10
5.06418
20
-4.52377
11
5.05668
21
-4.52752
0
LINE
8
BLACK
6
CONTINUOUS
10
5.05668
20
-4.52752
11
5.05293
21
-4.53127
0
LINE
8
BLACK
6
CONTINUOUS
10
5.05293
20
-4.53127
11
5.04918
21
-4.53876
0
LINE
8
BLACK
6
CONTINUOUS
10
5.16541
20
-4.49377
11
5.12792
21
-4.49377
0
LINE
8
BLACK
6
CONTINUOUS
10
5.12792
20
-4.49377
11
5.12417
21
-4.53127
0
LINE
8
BLACK
6
CONTINUOUS
10
5.12417
20
-4.53127
11
5.12792
21
-4.52752
0
LINE
8
BLACK
6
CONTINUOUS
10
5.12792
20
-4.52752
11
5.13542
21
-4.52377
0
LINE
8
BLACK
6
CONTINUOUS
10
5.13542
20
-4.52377
11
5.15416
21
-4.52377
0
LINE
8
BLACK
6
CONTINUOUS
10
5.15416
20
-4.52377
11
5.16166
21
-4.52752
0
LINE
8
BLACK
6
CONTINUOUS
10
5.16166
20
-4.52752
11
5.16541
21
-4.53127
0
LINE
8
BLACK
6
CONTINUOUS
10
5.16541
20
-4.53127
11
5.16916
21
-4.53876
0
LINE
8
BLACK
6
CONTINUOUS
10
5.16916
20
-4.53876
11
5.16916
21
-4.55751
0
LINE
8
BLACK
6
CONTINUOUS
10
5.16916
20
-4.55751
11
5.16541
21
-4.56501
0
LINE
8
BLACK
6
CONTINUOUS
10
5.16541
20
-4.56501
11
5.16166
21
-4.56876
0
LINE
8
BLACK
6
CONTINUOUS
10
5.16166
20
-4.56876
11
5.15416
21
-4.57251
0
LINE
8
BLACK
6
CONTINUOUS
10
5.15416
20
-4.57251
11
5.13542
21
-4.57251
0
LINE
8
BLACK
6
CONTINUOUS
10
5.13542
20
-4.57251
11
5.12792
21
-4.56876
0
LINE
8
BLACK
6
CONTINUOUS
10
5.12792
20
-4.56876
11
5.12417
21
-4.56501
0
LINE
8
BLACK
6
CONTINUOUS
10
5.21791
20
-4.49377
11
5.2254
21
-4.49377
0
LINE
8
BLACK
6
CONTINUOUS
10
5.2254
20
-4.49377
11
5.2329
21
-4.49752
0
LINE
8
BLACK
6
CONTINUOUS
10
5.2329
20
-4.49752
11
5.23665
21
-4.50127
0
LINE
8
BLACK
6
CONTINUOUS
10
5.23665
20
-4.50127
11
5.2404
21
-4.50877
0
LINE
8
BLACK
6
CONTINUOUS
10
5.2404
20
-4.50877
11
5.24415
21
-4.52377
0
LINE
8
BLACK
6
CONTINUOUS
10
5.24415
20
-4.52377
11
5.24415
21
-4.54251
0
LINE
8
BLACK
6
CONTINUOUS
10
5.24415
20
-4.54251
11
5.2404
21
-4.55751
0
LINE
8
BLACK
6
CONTINUOUS
10
5.2404
20
-4.55751
11
5.23665
21
-4.56501
0
LINE
8
BLACK
6
CONTINUOUS
10
5.23665
20
-4.56501
11
5.2329
21
-4.56876
0
LINE
8
BLACK
6
CONTINUOUS
10
5.2329
20
-4.56876
11
5.2254
21
-4.57251
0
LINE
8
BLACK
6
CONTINUOUS
10
5.2254
20
-4.57251
11
5.21791
21
-4.57251
0
LINE
8
BLACK
6
CONTINUOUS
10
5.21791
20
-4.57251
11
5.21041
21
-4.56876
0
LINE
8
BLACK
6
CONTINUOUS
10
5.21041
20
-4.56876
11
5.20666
21
-4.56501
0
LINE
8
BLACK
6
CONTINUOUS
10
5.20666
20
-4.56501
11
5.20291
21
-4.55751
0
LINE
8
BLACK
6
CONTINUOUS
10
5.20291
20
-4.55751
11
5.19916
21
-4.54251
0
LINE
8
BLACK
6
CONTINUOUS
10
5.19916
20
-4.54251
11
5.19916
21
-4.52377
0
LINE
8
BLACK
6
CONTINUOUS
10
5.19916
20
-4.52377
11
5.20291
21
-4.50877
0
LINE
8
BLACK
6
CONTINUOUS
10
5.20291
20
-4.50877
11
5.20666
21
-4.50127
0
LINE
8
BLACK
6
CONTINUOUS
10
5.20666
20
-4.50127
11
5.21041
21
-4.49752
0
LINE
8
BLACK
6
CONTINUOUS
10
5.21041
20
-4.49752
11
5.21791
21
-4.49377
0
LINE
8
BLACK
6
CONTINUOUS
10
5.2779
20
-4.57251
11
5.2779
21
-4.52002
0
LINE
8
BLACK
6
CONTINUOUS
10
5.2779
20
-4.52752
11
5.28165
21
-4.52377
0
LINE
8
BLACK
6
CONTINUOUS
10
5.28165
20
-4.52377
11
5.28915
21
-4.52002
0
LINE
8
BLACK
6
CONTINUOUS
10
5.28915
20
-4.52002
11
5.3004
21
-4.52002
0
LINE
8
BLACK
6
CONTINUOUS
10
5.3004
20
-4.52002
11
5.30789
21
-4.52377
0
LINE
8
BLACK
6
CONTINUOUS
10
5.30789
20
-4.52377
11
5.31164
21
-4.53127
0
LINE
8
BLACK
6
CONTINUOUS
10
5.31164
20
-4.53127
11
5.31164
21
-4.57251
0
LINE
8
BLACK
6
CONTINUOUS
10
5.31164
20
-4.53127
11
5.31539
21
-4.52377
0
LINE
8
BLACK
6
CONTINUOUS
10
5.31539
20
-4.52377
11
5.32289
21
-4.52002
0
LINE
8
BLACK
6
CONTINUOUS
10
5.32289
20
-4.52002
11
5.33414
21
-4.52002
0
LINE
8
BLACK
6
CONTINUOUS
10
5.33414
20
-4.52002
11
5.34164
21
-4.52377
0
LINE
8
BLACK
6
CONTINUOUS
10
5.34164
20
-4.52377
11
5.34539
21
-4.53127
0
LINE
8
BLACK
6
CONTINUOUS
10
5.34539
20
-4.53127
11
5.34539
21
-4.57251
0
LINE
8
BLACK
6
CONTINUOUS
10
5.38289
20
-4.57251
11
5.38289
21
-4.52002
0
LINE
8
BLACK
6
CONTINUOUS
10
5.38289
20
-4.52752
11
5.38663
21
-4.52377
0
LINE
8
BLACK
6
CONTINUOUS
10
5.38663
20
-4.52377
11
5.39413
21
-4.52002
0
LINE
8
BLACK
6
CONTINUOUS
10
5.39413
20
-4.52002
11
5.40538
21
-4.52002
0
LINE
8
BLACK
6
CONTINUOUS
10
5.40538
20
-4.52002
11
5.41288
21
-4.52377
0
LINE
8
BLACK
6
CONTINUOUS
10
5.41288
20
-4.52377
11
5.41663
21
-4.53127
0
LINE
8
BLACK
6
CONTINUOUS
10
5.41663
20
-4.53127
11
5.41663
21
-4.57251
0
LINE
8
BLACK
6
CONTINUOUS
10
5.41663
20
-4.53127
11
5.42038
21
-4.52377
0
LINE
8
BLACK
6
CONTINUOUS
10
5.42038
20
-4.52377
11
5.42788
21
-4.52002
0
LINE
8
BLACK
6
CONTINUOUS
10
5.42788
20
-4.52002
11
5.43913
21
-4.52002
0
LINE
8
BLACK
6
CONTINUOUS
10
5.43913
20
-4.52002
11
5.44663
21
-4.52377
0
LINE
8
BLACK
6
CONTINUOUS
10
5.44663
20
-4.52377
11
5.45038
21
-4.53127
0
LINE
8
BLACK
6
CONTINUOUS
10
5.45038
20
-4.53127
11
5.45038
21
-4.57251
0
LINE
8
BLACK
6
CONTINUOUS
10
5.60411
20
-4.49002
11
5.53662
21
-4.59126
0
LINE
8
BLACK
6
CONTINUOUS
10
5.70534
20
-4.49377
11
5.71284
21
-4.49377
0
LINE
8
BLACK
6
CONTINUOUS
10
5.71284
20
-4.49377
11
5.72034
21
-4.49752
0
LINE
8
BLACK
6
CONTINUOUS
10
5.72034
20
-4.49752
11
5.72409
21
-4.50127
0
LINE
8
BLACK
6
CONTINUOUS
10
5.72409
20
-4.50127
11
5.72784
21
-4.50877
0
LINE
8
BLACK
6
CONTINUOUS
10
5.72784
20
-4.50877
11
5.73159
21
-4.52377
0
LINE
8
BLACK
6
CONTINUOUS
10
5.73159
20
-4.52377
11
5.73159
21
-4.54251
0
LINE
8
BLACK
6
CONTINUOUS
10
5.73159
20
-4.54251
11
5.72784
21
-4.55751
0
LINE
8
BLACK
6
CONTINUOUS
10
5.72784
20
-4.55751
11
5.72409
21
-4.56501
0
LINE
8
BLACK
6
CONTINUOUS
10
5.72409
20
-4.56501
11
5.72034
21
-4.56876
0
LINE
8
BLACK
6
CONTINUOUS
10
5.72034
20
-4.56876
11
5.71284
21
-4.57251
0
LINE
8
BLACK
6
CONTINUOUS
10
5.71284
20
-4.57251
11
5.70534
21
-4.57251
0
LINE
8
BLACK
6
CONTINUOUS
10
5.70534
20
-4.57251
11
5.69785
21
-4.56876
0
LINE
8
BLACK
6
CONTINUOUS
10
5.69785
20
-4.56876
11
5.6941
21
-4.56501
0
LINE
8
BLACK
6
CONTINUOUS
10
5.6941
20
-4.56501
11
5.69035
21
-4.55751
0
LINE
8
BLACK
6
CONTINUOUS
10
5.69035
20
-4.55751
11
5.6866
21
-4.54251
0
LINE
8
BLACK
6
CONTINUOUS
10
5.6866
20
-4.54251
11
5.6866
21
-4.52377
0
LINE
8
BLACK
6
CONTINUOUS
10
5.6866
20
-4.52377
11
5.69035
21
-4.50877
0
LINE
8
BLACK
6
CONTINUOUS
10
5.69035
20
-4.50877
11
5.6941
21
-4.50127
0
LINE
8
BLACK
6
CONTINUOUS
10
5.6941
20
-4.50127
11
5.69785
21
-4.49752
0
LINE
8
BLACK
6
CONTINUOUS
10
5.69785
20
-4.49752
11
5.70534
21
-4.49377
0
LINE
8
BLACK
6
CONTINUOUS
10
5.76534
20
-4.56501
11
5.76909
21
-4.56876
0
LINE
8
BLACK
6
CONTINUOUS
10
5.76909
20
-4.56876
11
5.76534
21
-4.57251
0
LINE
8
BLACK
6
CONTINUOUS
10
5.76534
20
-4.57251
11
5.76159
21
-4.56876
0
LINE
8
BLACK
6
CONTINUOUS
10
5.76159
20
-4.56876
11
5.76534
21
-4.56501
0
LINE
8
BLACK
6
CONTINUOUS
10
5.76534
20
-4.56501
11
5.76534
21
-4.57251
0
LINE
8
BLACK
6
CONTINUOUS
10
5.81783
20
-4.49377
11
5.82533
21
-4.49377
0
LINE
8
BLACK
6
CONTINUOUS
10
5.82533
20
-4.49377
11
5.83283
21
-4.49752
0
LINE
8
BLACK
6
CONTINUOUS
10
5.83283
20
-4.49752
11
5.83658
21
-4.50127
0
LINE
8
BLACK
6
CONTINUOUS
10
5.83658
20
-4.50127
11
5.84033
21
-4.50877
0
LINE
8
BLACK
6
CONTINUOUS
10
5.84033
20
-4.50877
11
5.84408
21
-4.52377
0
LINE
8
BLACK
6
CONTINUOUS
10
5.84408
20
-4.52377
11
5.84408
21
-4.54251
0
LINE
8
BLACK
6
CONTINUOUS
10
5.84408
20
-4.54251
11
5.84033
21
-4.55751
0
LINE
8
BLACK
6
CONTINUOUS
10
5.84033
20
-4.55751
11
5.83658
21
-4.56501
0
LINE
8
BLACK
6
CONTINUOUS
10
5.83658
20
-4.56501
11
5.83283
21
-4.56876
0
LINE
8
BLACK
6
CONTINUOUS
10
5.83283
20
-4.56876
11
5.82533
21
-4.57251
0
LINE
8
BLACK
6
CONTINUOUS
10
5.82533
20
-4.57251
11
5.81783
21
-4.57251
0
LINE
8
BLACK
6
CONTINUOUS
10
5.81783
20
-4.57251
11
5.81033
21
-4.56876
0
LINE
8
BLACK
6
CONTINUOUS
10
5.81033
20
-4.56876
11
5.80658
21
-4.56501
0
LINE
8
BLACK
6
CONTINUOUS
10
5.80658
20
-4.56501
11
5.80283
21
-4.55751
0
LINE
8
BLACK
6
CONTINUOUS
10
5.80283
20
-4.55751
11
5.79908
21
-4.54251
0
LINE
8
BLACK
6
CONTINUOUS
10
5.79908
20
-4.54251
11
5.79908
21
-4.52377
0
LINE
8
BLACK
6
CONTINUOUS
10
5.79908
20
-4.52377
11
5.80283
21
-4.50877
0
LINE
8
BLACK
6
CONTINUOUS
10
5.80283
20
-4.50877
11
5.80658
21
-4.50127
0
LINE
8
BLACK
6
CONTINUOUS
10
5.80658
20
-4.50127
11
5.81033
21
-4.49752
0
LINE
8
BLACK
6
CONTINUOUS
10
5.81033
20
-4.49752
11
5.81783
21
-4.49377
0
LINE
8
BLACK
6
CONTINUOUS
10
5.87407
20
-4.50127
11
5.87782
21
-4.49752
0
LINE
8
BLACK
6
CONTINUOUS
10
5.87782
20
-4.49752
11
5.88532
21
-4.49377
0
LINE
8
BLACK
6
CONTINUOUS
10
5.88532
20
-4.49377
11
5.90407
21
-4.49377
0
LINE
8
BLACK
6
CONTINUOUS
10
5.90407
20
-4.49377
11
5.91157
21
-4.49752
0
LINE
8
BLACK
6
CONTINUOUS
10
5.91157
20
-4.49752
11
5.91532
21
-4.50127
0
LINE
8
BLACK
6
CONTINUOUS
10
5.91532
20
-4.50127
11
5.91907
21
-4.50877
0
LINE
8
BLACK
6
CONTINUOUS
10
5.91907
20
-4.50877
11
5.91907
21
-4.51627
0
LINE
8
BLACK
6
CONTINUOUS
10
5.91907
20
-4.51627
11
5.91532
21
-4.52752
0
LINE
8
BLACK
6
CONTINUOUS
10
5.91532
20
-4.52752
11
5.87032
21
-4.57251
0
LINE
8
BLACK
6
CONTINUOUS
10
5.87032
20
-4.57251
11
5.91907
21
-4.57251
0
LINE
8
BLACK
6
CONTINUOUS
10
5.99031
20
-4.49377
11
5.95281
21
-4.49377
0
LINE
8
BLACK
6
CONTINUOUS
10
5.95281
20
-4.49377
11
5.94906
21
-4.53127
0
LINE
8
BLACK
6
CONTINUOUS
10
5.94906
20
-4.53127
11
5.95281
21
-4.52752
0
LINE
8
BLACK
6
CONTINUOUS
10
5.95281
20
-4.52752
11
5.96031
21
-4.52377
0
LINE
8
BLACK
6
CONTINUOUS
10
5.96031
20
-4.52377
11
5.97906
21
-4.52377
0
LINE
8
BLACK
6
CONTINUOUS
10
5.97906
20
-4.52377
11
5.98656
21
-4.52752
0
LINE
8
BLACK
6
CONTINUOUS
10
5.98656
20
-4.52752
11
5.99031
21
-4.53127
0
LINE
8
BLACK
6
CONTINUOUS
10
5.99031
20
-4.53127
11
5.99406
21
-4.53876
0
LINE
8
BLACK
6
CONTINUOUS
10
5.99406
20
-4.53876
11
5.99406
21
-4.55751
0
LINE
8
BLACK
6
CONTINUOUS
10
5.99406
20
-4.55751
11
5.99031
21
-4.56501
0
LINE
8
BLACK
6
CONTINUOUS
10
5.99031
20
-4.56501
11
5.98656
21
-4.56876
0
LINE
8
BLACK
6
CONTINUOUS
10
5.98656
20
-4.56876
11
5.97906
21
-4.57251
0
LINE
8
BLACK
6
CONTINUOUS
10
5.97906
20
-4.57251
11
5.96031
21
-4.57251
0
LINE
8
BLACK
6
CONTINUOUS
10
5.96031
20
-4.57251
11
5.95281
21
-4.56876
0
LINE
8
BLACK
6
CONTINUOUS
10
5.95281
20
-4.56876
11
5.94906
21
-4.56501
0
LINE
8
BLACK
6
CONTINUOUS
10
6.06155
20
-4.49377
11
6.04655
21
-4.49377
0
LINE
8
BLACK
6
CONTINUOUS
10
6.04655
20
-4.49377
11
6.03905
21
-4.49752
0
LINE
8
BLACK
6
CONTINUOUS
10
6.03905
20
-4.49752
11
6.0353
21
-4.50127
0
LINE
8
BLACK
6
CONTINUOUS
10
6.0353
20
-4.50127
11
6.0278
21
-4.51252
0
LINE
8
BLACK
6
CONTINUOUS
10
6.0278
20
-4.51252
11
6.02406
21
-4.52752
0
LINE
8
BLACK
6
CONTINUOUS
10
6.02406
20
-4.52752
11
6.02406
21
-4.55751
0
LINE
8
BLACK
6
CONTINUOUS
10
6.02406
20
-4.55751
11
6.0278
21
-4.56501
0
LINE
8
BLACK
6
CONTINUOUS
10
6.0278
20
-4.56501
11
6.03155
21
-4.56876
0
LINE
8
BLACK
6
CONTINUOUS
10
6.03155
20
-4.56876
11
6.03905
21
-4.57251
0
LINE
8
BLACK
6
CONTINUOUS
10
6.03905
20
-4.57251
11
6.05405
21
-4.57251
0
LINE
8
BLACK
6
CONTINUOUS
10
6.05405
20
-4.57251
11
6.06155
21
-4.56876
0
LINE
8
BLACK
6
CONTINUOUS
10
6.06155
20
-4.56876
11
6.0653
21
-4.56501
0
LINE
8
BLACK
6
CONTINUOUS
10
6.0653
20
-4.56501
11
6.06905
21
-4.55751
0
LINE
8
BLACK
6
CONTINUOUS
10
6.06905
20
-4.55751
11
6.06905
21
-4.53876
0
LINE
8
BLACK
6
CONTINUOUS
10
6.06905
20
-4.53876
11
6.0653
21
-4.53127
0
LINE
8
BLACK
6
CONTINUOUS
10
6.0653
20
-4.53127
11
6.06155
21
-4.52752
0
LINE
8
BLACK
6
CONTINUOUS
10
6.06155
20
-4.52752
11
6.05405
21
-4.52377
0
LINE
8
BLACK
6
CONTINUOUS
10
6.05405
20
-4.52377
11
6.03905
21
-4.52377
0
LINE
8
BLACK
6
CONTINUOUS
10
6.03905
20
-4.52377
11
6.03155
21
-4.52752
0
LINE
8
BLACK
6
CONTINUOUS
10
6.03155
20
-4.52752
11
6.0278
21
-4.53127
0
LINE
8
BLACK
6
CONTINUOUS
10
6.0278
20
-4.53127
11
6.02406
21
-4.53876
0
LINE
8
BLACK
6
CONTINUOUS
10
6.09905
20
-4.49377
11
6.09905
21
-4.50877
0
LINE
8
BLACK
6
CONTINUOUS
10
6.12904
20
-4.49377
11
6.12904
21
-4.50877
0
LINE
8
BLACK
6
CONTINUOUS
10
6.24528
20
-4.60251
11
6.24153
21
-4.59876
0
LINE
8
BLACK
6
CONTINUOUS
10
6.24153
20
-4.59876
11
6.23403
21
-4.58751
0
LINE
8
BLACK
6
CONTINUOUS
10
6.23403
20
-4.58751
11
6.23028
21
-4.58001
0
LINE
8
BLACK
6
CONTINUOUS
10
6.23028
20
-4.58001
11
6.22653
21
-4.56876
0
LINE
8
BLACK
6
CONTINUOUS
10
6.22653
20
-4.56876
11
6.22278
21
-4.55001
0
LINE
8
BLACK
6
CONTINUOUS
10
6.22278
20
-4.55001
11
6.22278
21
-4.53501
0
LINE
8
BLACK
6
CONTINUOUS
10
6.22278
20
-4.53501
11
6.22653
21
-4.51627
0
LINE
8
BLACK
6
CONTINUOUS
10
6.22653
20
-4.51627
11
6.23028
21
-4.50502
0
LINE
8
BLACK
6
CONTINUOUS
10
6.23028
20
-4.50502
11
6.23403
21
-4.49752
0
LINE
8
BLACK
6
CONTINUOUS
10
6.23403
20
-4.49752
11
6.24153
21
-4.48627
0
LINE
8
BLACK
6
CONTINUOUS
10
6.24153
20
-4.48627
11
6.24528
21
-4.48252
0
LINE
8
BLACK
6
CONTINUOUS
10
6.31277
20
-4.49377
11
6.27527
21
-4.49377
0
LINE
8
BLACK
6
CONTINUOUS
10
6.27527
20
-4.49377
11
6.27152
21
-4.53127
0
LINE
8
BLACK
6
CONTINUOUS
10
6.27152
20
-4.53127
11
6.27527
21
-4.52752
0
LINE
8
BLACK
6
CONTINUOUS
10
6.27527
20
-4.52752
11
6.28277
21
-4.52377
0
LINE
8
BLACK
6
CONTINUOUS
10
6.28277
20
-4.52377
11
6.30152
21
-4.52377
0
LINE
8
BLACK
6
CONTINUOUS
10
6.30152
20
-4.52377
11
6.30902
21
-4.52752
0
LINE
8
BLACK
6
CONTINUOUS
10
6.30902
20
-4.52752
11
6.31277
21
-4.53127
0
LINE
8
BLACK
6
CONTINUOUS
10
6.31277
20
-4.53127
11
6.31652
21
-4.53876
0
LINE
8
BLACK
6
CONTINUOUS
10
6.31652
20
-4.53876
11
6.31652
21
-4.55751
0
LINE
8
BLACK
6
CONTINUOUS
10
6.31652
20
-4.55751
11
6.31277
21
-4.56501
0
LINE
8
BLACK
6
CONTINUOUS
10
6.31277
20
-4.56501
11
6.30902
21
-4.56876
0
LINE
8
BLACK
6
CONTINUOUS
10
6.30902
20
-4.56876
11
6.30152
21
-4.57251
0
LINE
8
BLACK
6
CONTINUOUS
10
6.30152
20
-4.57251
11
6.28277
21
-4.57251
0
LINE
8
BLACK
6
CONTINUOUS
10
6.28277
20
-4.57251
11
6.27527
21
-4.56876
0
LINE
8
BLACK
6
CONTINUOUS
10
6.27527
20
-4.56876
11
6.27152
21
-4.56501
0
LINE
8
BLACK
6
CONTINUOUS
10
6.38401
20
-4.49377
11
6.36901
21
-4.49377
0
LINE
8
BLACK
6
CONTINUOUS
10
6.36901
20
-4.49377
11
6.36151
21
-4.49752
0
LINE
8
BLACK
6
CONTINUOUS
10
6.36151
20
-4.49752
11
6.35776
21
-4.50127
0
LINE
8
BLACK
6
CONTINUOUS
10
6.35776
20
-4.50127
11
6.35026
21
-4.51252
0
LINE
8
BLACK
6
CONTINUOUS
10
6.35026
20
-4.51252
11
6.34651
21
-4.52752
0
LINE
8
BLACK
6
CONTINUOUS
10
6.34651
20
-4.52752
11
6.34651
21
-4.55751
0
LINE
8
BLACK
6
CONTINUOUS
10
6.34651
20
-4.55751
11
6.35026
21
-4.56501
0
LINE
8
BLACK
6
CONTINUOUS
10
6.35026
20
-4.56501
11
6.35401
21
-4.56876
0
LINE
8
BLACK
6
CONTINUOUS
10
6.35401
20
-4.56876
11
6.36151
21
-4.57251
0
LINE
8
BLACK
6
CONTINUOUS
10
6.36151
20
-4.57251
11
6.37651
21
-4.57251
0
LINE
8
BLACK
6
CONTINUOUS
10
6.37651
20
-4.57251
11
6.38401
21
-4.56876
0
LINE
8
BLACK
6
CONTINUOUS
10
6.38401
20
-4.56876
11
6.38776
21
-4.56501
0
LINE
8
BLACK
6
CONTINUOUS
10
6.38776
20
-4.56501
11
6.39151
21
-4.55751
0
LINE
8
BLACK
6
CONTINUOUS
10
6.39151
20
-4.55751
11
6.39151
21
-4.53876
0
LINE
8
BLACK
6
CONTINUOUS
10
6.39151
20
-4.53876
11
6.38776
21
-4.53127
0
LINE
8
BLACK
6
CONTINUOUS
10
6.38776
20
-4.53127
11
6.38401
21
-4.52752
0
LINE
8
BLACK
6
CONTINUOUS
10
6.38401
20
-4.52752
11
6.37651
21
-4.52377
0
LINE
8
BLACK
6
CONTINUOUS
10
6.37651
20
-4.52377
11
6.36151
21
-4.52377
0
LINE
8
BLACK
6
CONTINUOUS
10
6.36151
20
-4.52377
11
6.35401
21
-4.52752
0
LINE
8
BLACK
6
CONTINUOUS
10
6.35401
20
-4.52752
11
6.35026
21
-4.53127
0
LINE
8
BLACK
6
CONTINUOUS
10
6.35026
20
-4.53127
11
6.34651
21
-4.53876
0
LINE
8
BLACK
6
CONTINUOUS
10
6.48525
20
-4.57251
11
6.48525
21
-4.49377
0
LINE
8
BLACK
6
CONTINUOUS
10
6.51899
20
-4.57251
11
6.51899
21
-4.53127
0
LINE
8
BLACK
6
CONTINUOUS
10
6.51899
20
-4.53127
11
6.51524
21
-4.52377
0
LINE
8
BLACK
6
CONTINUOUS
10
6.51524
20
-4.52377
11
6.50774
21
-4.52002
0
LINE
8
BLACK
6
CONTINUOUS
10
6.50774
20
-4.52002
11
6.4965
21
-4.52002
0
LINE
8
BLACK
6
CONTINUOUS
10
6.4965
20
-4.52002
11
6.489
21
-4.52377
0
LINE
8
BLACK
6
CONTINUOUS
10
6.489
20
-4.52377
11
6.48525
21
-4.52752
0
LINE
8
BLACK
6
CONTINUOUS
10
6.56774
20
-4.57251
11
6.56024
21
-4.56876
0
LINE
8
BLACK
6
CONTINUOUS
10
6.56024
20
-4.56876
11
6.55649
21
-4.56501
0
LINE
8
BLACK
6
CONTINUOUS
10
6.55649
20
-4.56501
11
6.55274
21
-4.55751
0
LINE
8
BLACK
6
CONTINUOUS
10
6.55274
20
-4.55751
11
6.55274
21
-4.53501
0
LINE
8
BLACK
6
CONTINUOUS
10
6.55274
20
-4.53501
11
6.55649
21
-4.52752
0
LINE
8
BLACK
6
CONTINUOUS
10
6.55649
20
-4.52752
11
6.56024
21
-4.52377
0
LINE
8
BLACK
6
CONTINUOUS
10
6.56024
20
-4.52377
11
6.56774
21
-4.52002
0
LINE
8
BLACK
6
CONTINUOUS
10
6.56774
20
-4.52002
11
6.57899
21
-4.52002
0
LINE
8
BLACK
6
CONTINUOUS
10
6.57899
20
-4.52002
11
6.58648
21
-4.52377
0
LINE
8
BLACK
6
CONTINUOUS
10
6.58648
20
-4.52377
11
6.59023
21
-4.52752
0
LINE
8
BLACK
6
CONTINUOUS
10
6.59023
20
-4.52752
11
6.59398
21
-4.53501
0
LINE
8
BLACK
6
CONTINUOUS
10
6.59398
20
-4.53501
11
6.59398
21
-4.55751
0
LINE
8
BLACK
6
CONTINUOUS
10
6.59398
20
-4.55751
11
6.59023
21
-4.56501
0
LINE
8
BLACK
6
CONTINUOUS
10
6.59023
20
-4.56501
11
6.58648
21
-4.56876
0
LINE
8
BLACK
6
CONTINUOUS
10
6.58648
20
-4.56876
11
6.57899
21
-4.57251
0
LINE
8
BLACK
6
CONTINUOUS
10
6.57899
20
-4.57251
11
6.56774
21
-4.57251
0
LINE
8
BLACK
6
CONTINUOUS
10
6.63898
20
-4.57251
11
6.63148
21
-4.56876
0
LINE
8
BLACK
6
CONTINUOUS
10
6.63148
20
-4.56876
11
6.62773
21
-4.56126
0
LINE
8
BLACK
6
CONTINUOUS
10
6.62773
20
-4.56126
11
6.62773
21
-4.49377
0
LINE
8
BLACK
6
CONTINUOUS
10
6.69897
20
-4.56876
11
6.69147
21
-4.57251
0
LINE
8
BLACK
6
CONTINUOUS
10
6.69147
20
-4.57251
11
6.67647
21
-4.57251
0
LINE
8
BLACK
6
CONTINUOUS
10
6.67647
20
-4.57251
11
6.66897
21
-4.56876
0
LINE
8
BLACK
6
CONTINUOUS
10
6.66897
20
-4.56876
11
6.66522
21
-4.56126
0
LINE
8
BLACK
6
CONTINUOUS
10
6.66522
20
-4.56126
11
6.66522
21
-4.53127
0
LINE
8
BLACK
6
CONTINUOUS
10
6.66522
20
-4.53127
11
6.66897
21
-4.52377
0
LINE
8
BLACK
6
CONTINUOUS
10
6.66897
20
-4.52377
11
6.67647
21
-4.52002
0
LINE
8
BLACK
6
CONTINUOUS
10
6.67647
20
-4.52002
11
6.69147
21
-4.52002
0
LINE
8
BLACK
6
CONTINUOUS
10
6.69147
20
-4.52002
11
6.69897
21
-4.52377
0
LINE
8
BLACK
6
CONTINUOUS
10
6.69897
20
-4.52377
11
6.70272
21
-4.53127
0
LINE
8
BLACK
6
CONTINUOUS
10
6.70272
20
-4.53127
11
6.70272
21
-4.53876
0
LINE
8
BLACK
6
CONTINUOUS
10
6.70272
20
-4.53876
11
6.66522
21
-4.54626
0
LINE
8
BLACK
6
CONTINUOUS
10
6.73272
20
-4.56876
11
6.74022
21
-4.57251
0
LINE
8
BLACK
6
CONTINUOUS
10
6.74022
20
-4.57251
11
6.75521
21
-4.57251
0
LINE
8
BLACK
6
CONTINUOUS
10
6.75521
20
-4.57251
11
6.76271
21
-4.56876
0
LINE
8
BLACK
6
CONTINUOUS
10
6.76271
20
-4.56876
11
6.76646
21
-4.56126
0
LINE
8
BLACK
6
CONTINUOUS
10
6.76646
20
-4.56126
11
6.76646
21
-4.55751
0
LINE
8
BLACK
6
CONTINUOUS
10
6.76646
20
-4.55751
11
6.76271
21
-4.55001
0
LINE
8
BLACK
6
CONTINUOUS
10
6.76271
20
-4.55001
11
6.75521
21
-4.54626
0
LINE
8
BLACK
6
CONTINUOUS
10
6.75521
20
-4.54626
11
6.74397
21
-4.54626
0
LINE
8
BLACK
6
CONTINUOUS
10
6.74397
20
-4.54626
11
6.73647
21
-4.54251
0
LINE
8
BLACK
6
CONTINUOUS
10
6.73647
20
-4.54251
11
6.73272
21
-4.53501
0
LINE
8
BLACK
6
CONTINUOUS
10
6.73272
20
-4.53501
11
6.73272
21
-4.53127
0
LINE
8
BLACK
6
CONTINUOUS
10
6.73272
20
-4.53127
11
6.73647
21
-4.52377
0
LINE
8
BLACK
6
CONTINUOUS
10
6.73647
20
-4.52377
11
6.74397
21
-4.52002
0
LINE
8
BLACK
6
CONTINUOUS
10
6.74397
20
-4.52002
11
6.75521
21
-4.52002
0
LINE
8
BLACK
6
CONTINUOUS
10
6.75521
20
-4.52002
11
6.76271
21
-4.52377
0
LINE
8
BLACK
6
CONTINUOUS
10
6.79271
20
-4.60251
11
6.79646
21
-4.59876
0
LINE
8
BLACK
6
CONTINUOUS
10
6.79646
20
-4.59876
11
6.80396
21
-4.58751
0
LINE
8
BLACK
6
CONTINUOUS
10
6.80396
20
-4.58751
11
6.80771
21
-4.58001
0
LINE
8
BLACK
6
CONTINUOUS
10
6.80771
20
-4.58001
11
6.81146
21
-4.56876
0
LINE
8
BLACK
6
CONTINUOUS
10
6.81146
20
-4.56876
11
6.81521
21
-4.55001
0
LINE
8
BLACK
6
CONTINUOUS
10
6.81521
20
-4.55001
11
6.81521
21
-4.53501
0
LINE
8
BLACK
6
CONTINUOUS
10
6.81521
20
-4.53501
11
6.81146
21
-4.51627
0
LINE
8
BLACK
6
CONTINUOUS
10
6.81146
20
-4.51627
11
6.80771
21
-4.50502
0
LINE
8
BLACK
6
CONTINUOUS
10
6.80771
20
-4.50502
11
6.80396
21
-4.49752
0
LINE
8
BLACK
6
CONTINUOUS
10
6.80396
20
-4.49752
11
6.79646
21
-4.48627
0
LINE
8
BLACK
6
CONTINUOUS
10
6.79646
20
-4.48627
11
6.79271
21
-4.48252
0
LINE
8
BLACK
6
CONTINUOUS
10
4.79965
20
-4.60146
11
4.79965
21
-4.6802
0
LINE
8
BLACK
6
CONTINUOUS
10
4.76028
20
-4.64083
11
4.83902
21
-4.64083
0
LINE
8
BLACK
6
CONTINUOUS
10
4.93669
20
-4.60521
11
4.94044
21
-4.60146
0
LINE
8
BLACK
6
CONTINUOUS
10
4.94044
20
-4.60146
11
4.94794
21
-4.59771
0
LINE
8
BLACK
6
CONTINUOUS
10
4.94794
20
-4.59771
11
4.96669
21
-4.59771
0
LINE
8
BLACK
6
CONTINUOUS
10
4.96669
20
-4.59771
11
4.97419
21
-4.60146
0
LINE
8
BLACK
6
CONTINUOUS
10
4.97419
20
-4.60146
11
4.97794
21
-4.60521
0
LINE
8
BLACK
6
CONTINUOUS
10
4.97794
20
-4.60521
11
4.98169
21
-4.61271
0
LINE
8
BLACK
6
CONTINUOUS
10
4.98169
20
-4.61271
11
4.98169
21
-4.6202
0
LINE
8
BLACK
6
CONTINUOUS
10
4.98169
20
-4.6202
11
4.97794
21
-4.63145
0
LINE
8
BLACK
6
CONTINUOUS
10
4.97794
20
-4.63145
11
4.93294
21
-4.67645
0
LINE
8
BLACK
6
CONTINUOUS
10
4.93294
20
-4.67645
11
4.98169
21
-4.67645
0
LINE
8
BLACK
6
CONTINUOUS
10
5.01543
20
-4.66895
11
5.01918
21
-4.6727
0
LINE
8
BLACK
6
CONTINUOUS
10
5.01918
20
-4.6727
11
5.01543
21
-4.67645
0
LINE
8
BLACK
6
CONTINUOUS
10
5.01543
20
-4.67645
11
5.01168
21
-4.6727
0
LINE
8
BLACK
6
CONTINUOUS
10
5.01168
20
-4.6727
11
5.01543
21
-4.66895
0
LINE
8
BLACK
6
CONTINUOUS
10
5.01543
20
-4.66895
11
5.01543
21
-4.67645
0
LINE
8
BLACK
6
CONTINUOUS
10
5.04918
20
-4.60521
11
5.05293
21
-4.60146
0
LINE
8
BLACK
6
CONTINUOUS
10
5.05293
20
-4.60146
11
5.06043
21
-4.59771
0
LINE
8
BLACK
6
CONTINUOUS
10
5.06043
20
-4.59771
11
5.07917
21
-4.59771
0
LINE
8
BLACK
6
CONTINUOUS
10
5.07917
20
-4.59771
11
5.08667
21
-4.60146
0
LINE
8
BLACK
6
CONTINUOUS
10
5.08667
20
-4.60146
11
5.09042
21
-4.60521
0
LINE
8
BLACK
6
CONTINUOUS
10
5.09042
20
-4.60521
11
5.09417
21
-4.61271
0
LINE
8
BLACK
6
CONTINUOUS
10
5.09417
20
-4.61271
11
5.09417
21
-4.6202
0
LINE
8
BLACK
6
CONTINUOUS
10
5.09417
20
-4.6202
11
5.09042
21
-4.63145
0
LINE
8
BLACK
6
CONTINUOUS
10
5.09042
20
-4.63145
11
5.04543
21
-4.67645
0
LINE
8
BLACK
6
CONTINUOUS
10
5.04543
20
-4.67645
11
5.09417
21
-4.67645
0
LINE
8
BLACK
6
CONTINUOUS
10
5.14292
20
-4.59771
11
5.15041
21
-4.59771
0
LINE
8
BLACK
6
CONTINUOUS
10
5.15041
20
-4.59771
11
5.15791
21
-4.60146
0
LINE
8
BLACK
6
CONTINUOUS
10
5.15791
20
-4.60146
11
5.16166
21
-4.60521
0
LINE
8
BLACK
6
CONTINUOUS
10
5.16166
20
-4.60521
11
5.16541
21
-4.61271
0
LINE
8
BLACK
6
CONTINUOUS
10
5.16541
20
-4.61271
11
5.16916
21
-4.6277
0
LINE
8
BLACK
6
CONTINUOUS
10
5.16916
20
-4.6277
11
5.16916
21
-4.64645
0
LINE
8
BLACK
6
CONTINUOUS
10
5.16916
20
-4.64645
11
5.16541
21
-4.66145
0
LINE
8
BLACK
6
CONTINUOUS
10
5.16541
20
-4.66145
11
5.16166
21
-4.66895
0
LINE
8
BLACK
6
CONTINUOUS
10
5.16166
20
-4.66895
11
5.15791
21
-4.6727
0
LINE
8
BLACK
6
CONTINUOUS
10
5.15791
20
-4.6727
11
5.15041
21
-4.67645
0
LINE
8
BLACK
6
CONTINUOUS
10
5.15041
20
-4.67645
11
5.14292
21
-4.67645
0
LINE
8
BLACK
6
CONTINUOUS
10
5.14292
20
-4.67645
11
5.13542
21
-4.6727
0
LINE
8
BLACK
6
CONTINUOUS
10
5.13542
20
-4.6727
11
5.13167
21
-4.66895
0
LINE
8
BLACK
6
CONTINUOUS
10
5.13167
20
-4.66895
11
5.12792
21
-4.66145
0
LINE
8
BLACK
6
CONTINUOUS
10
5.12792
20
-4.66145
11
5.12417
21
-4.64645
0
LINE
8
BLACK
6
CONTINUOUS
10
5.12417
20
-4.64645
11
5.12417
21
-4.6277
0
LINE
8
BLACK
6
CONTINUOUS
10
5.12417
20
-4.6277
11
5.12792
21
-4.61271
0
LINE
8
BLACK
6
CONTINUOUS
10
5.12792
20
-4.61271
11
5.13167
21
-4.60521
0
LINE
8
BLACK
6
CONTINUOUS
10
5.13167
20
-4.60521
11
5.13542
21
-4.60146
0
LINE
8
BLACK
6
CONTINUOUS
10
5.13542
20
-4.60146
11
5.14292
21
-4.59771
0
LINE
8
BLACK
6
CONTINUOUS
10
5.21791
20
-4.59771
11
5.2254
21
-4.59771
0
LINE
8
BLACK
6
CONTINUOUS
10
5.2254
20
-4.59771
11
5.2329
21
-4.60146
0
LINE
8
BLACK
6
CONTINUOUS
10
5.2329
20
-4.60146
11
5.23665
21
-4.60521
0
LINE
8
BLACK
6
CONTINUOUS
10
5.23665
20
-4.60521
11
5.2404
21
-4.61271
0
LINE
8
BLACK
6
CONTINUOUS
10
5.2404
20
-4.61271
11
5.24415
21
-4.6277
0
LINE
8
BLACK
6
CONTINUOUS
10
5.24415
20
-4.6277
11
5.24415
21
-4.64645
0
LINE
8
BLACK
6
CONTINUOUS
10
5.24415
20
-4.64645
11
5.2404
21
-4.66145
0
LINE
8
BLACK
6
CONTINUOUS
10
5.2404
20
-4.66145
11
5.23665
21
-4.66895
0
LINE
8
BLACK
6
CONTINUOUS
10
5.23665
20
-4.66895
11
5.2329
21
-4.6727
0
LINE
8
BLACK
6
CONTINUOUS
10
5.2329
20
-4.6727
11
5.2254
21
-4.67645
0
LINE
8
BLACK
6
CONTINUOUS
10
5.2254
20
-4.67645
11
5.21791
21
-4.67645
0
LINE
8
BLACK
6
CONTINUOUS
10
5.21791
20
-4.67645
11
5.21041
21
-4.6727
0
LINE
8
BLACK
6
CONTINUOUS
10
5.21041
20
-4.6727
11
5.20666
21
-4.66895
0
LINE
8
BLACK
6
CONTINUOUS
10
5.20666
20
-4.66895
11
5.20291
21
-4.66145
0
LINE
8
BLACK
6
CONTINUOUS
10
5.20291
20
-4.66145
11
5.19916
21
-4.64645
0
LINE
8
BLACK
6
CONTINUOUS
10
5.19916
20
-4.64645
11
5.19916
21
-4.6277
0
LINE
8
BLACK
6
CONTINUOUS
10
5.19916
20
-4.6277
11
5.20291
21
-4.61271
0
LINE
8
BLACK
6
CONTINUOUS
10
5.20291
20
-4.61271
11
5.20666
21
-4.60521
0
LINE
8
BLACK
6
CONTINUOUS
10
5.20666
20
-4.60521
11
5.21041
21
-4.60146
0
LINE
8
BLACK
6
CONTINUOUS
10
5.21041
20
-4.60146
11
5.21791
21
-4.59771
0
LINE
8
BLACK
6
CONTINUOUS
10
5.2779
20
-4.67645
11
5.2779
21
-4.62395
0
LINE
8
BLACK
6
CONTINUOUS
10
5.2779
20
-4.63145
11
5.28165
21
-4.6277
0
LINE
8
BLACK
6
CONTINUOUS
10
5.28165
20
-4.6277
11
5.28915
21
-4.62395
0
LINE
8
BLACK
6
CONTINUOUS
10
5.28915
20
-4.62395
11
5.3004
21
-4.62395
0
LINE
8
BLACK
6
CONTINUOUS
10
5.3004
20
-4.62395
11
5.30789
21
-4.6277
0
LINE
8
BLACK
6
CONTINUOUS
10
5.30789
20
-4.6277
11
5.31164
21
-4.6352
0
LINE
8
BLACK
6
CONTINUOUS
10
5.31164
20
-4.6352
11
5.31164
21
-4.67645
0
LINE
8
BLACK
6
CONTINUOUS
10
5.31164
20
-4.6352
11
5.31539
21
-4.6277
0
LINE
8
BLACK
6
CONTINUOUS
10
5.31539
20
-4.6277
11
5.32289
21
-4.62395
0
LINE
8
BLACK
6
CONTINUOUS
10
5.32289
20
-4.62395
11
5.33414
21
-4.62395
0
LINE
8
BLACK
6
CONTINUOUS
10
5.33414
20
-4.62395
11
5.34164
21
-4.6277
0
LINE
8
BLACK
6
CONTINUOUS
10
5.34164
20
-4.6277
11
5.34539
21
-4.6352
0
LINE
8
BLACK
6
CONTINUOUS
10
5.34539
20
-4.6352
11
5.34539
21
-4.67645
0
LINE
8
BLACK
6
CONTINUOUS
10
5.38289
20
-4.67645
11
5.38289
21
-4.62395
0
LINE
8
BLACK
6
CONTINUOUS
10
5.38289
20
-4.63145
11
5.38663
21
-4.6277
0
LINE
8
BLACK
6
CONTINUOUS
10
5.38663
20
-4.6277
11
5.39413
21
-4.62395
0
LINE
8
BLACK
6
CONTINUOUS
10
5.39413
20
-4.62395
11
5.40538
21
-4.62395
0
LINE
8
BLACK
6
CONTINUOUS
10
5.40538
20
-4.62395
11
5.41288
21
-4.6277
0
LINE
8
BLACK
6
CONTINUOUS
10
5.41288
20
-4.6277
11
5.41663
21
-4.6352
0
LINE
8
BLACK
6
CONTINUOUS
10
5.41663
20
-4.6352
11
5.41663
21
-4.67645
0
LINE
8
BLACK
6
CONTINUOUS
10
5.41663
20
-4.6352
11
5.42038
21
-4.6277
0
LINE
8
BLACK
6
CONTINUOUS
10
5.42038
20
-4.6277
11
5.42788
21
-4.62395
0
LINE
8
BLACK
6
CONTINUOUS
10
5.42788
20
-4.62395
11
5.43913
21
-4.62395
0
LINE
8
BLACK
6
CONTINUOUS
10
5.43913
20
-4.62395
11
5.44663
21
-4.6277
0
LINE
8
BLACK
6
CONTINUOUS
10
5.44663
20
-4.6277
11
5.45038
21
-4.6352
0
LINE
8
BLACK
6
CONTINUOUS
10
5.45038
20
-4.6352
11
5.45038
21
-4.67645
0
LINE
8
BLACK
6
CONTINUOUS
10
5.60411
20
-4.59396
11
5.53662
21
-4.69519
0
LINE
8
BLACK
6
CONTINUOUS
10
5.70534
20
-4.59771
11
5.71284
21
-4.59771
0
LINE
8
BLACK
6
CONTINUOUS
10
5.71284
20
-4.59771
11
5.72034
21
-4.60146
0
LINE
8
BLACK
6
CONTINUOUS
10
5.72034
20
-4.60146
11
5.72409
21
-4.60521
0
LINE
8
BLACK
6
CONTINUOUS
10
5.72409
20
-4.60521
11
5.72784
21
-4.61271
0
LINE
8
BLACK
6
CONTINUOUS
10
5.72784
20
-4.61271
11
5.73159
21
-4.6277
0
LINE
8
BLACK
6
CONTINUOUS
10
5.73159
20
-4.6277
11
5.73159
21
-4.64645
0
LINE
8
BLACK
6
CONTINUOUS
10
5.73159
20
-4.64645
11
5.72784
21
-4.66145
0
LINE
8
BLACK
6
CONTINUOUS
10
5.72784
20
-4.66145
11
5.72409
21
-4.66895
0
LINE
8
BLACK
6
CONTINUOUS
10
5.72409
20
-4.66895
11
5.72034
21
-4.6727
0
LINE
8
BLACK
6
CONTINUOUS
10
5.72034
20
-4.6727
11
5.71284
21
-4.67645
0
LINE
8
BLACK
6
CONTINUOUS
10
5.71284
20
-4.67645
11
5.70534
21
-4.67645
0
LINE
8
BLACK
6
CONTINUOUS
10
5.70534
20
-4.67645
11
5.69785
21
-4.6727
0
LINE
8
BLACK
6
CONTINUOUS
10
5.69785
20
-4.6727
11
5.6941
21
-4.66895
0
LINE
8
BLACK
6
CONTINUOUS
10
5.6941
20
-4.66895
11
5.69035
21
-4.66145
0
LINE
8
BLACK
6
CONTINUOUS
10
5.69035
20
-4.66145
11
5.6866
21
-4.64645
0
LINE
8
BLACK
6
CONTINUOUS
10
5.6866
20
-4.64645
11
5.6866
21
-4.6277
0
LINE
8
BLACK
6
CONTINUOUS
10
5.6866
20
-4.6277
11
5.69035
21
-4.61271
0
LINE
8
BLACK
6
CONTINUOUS
10
5.69035
20
-4.61271
11
5.6941
21
-4.60521
0
LINE
8
BLACK
6
CONTINUOUS
10
5.6941
20
-4.60521
11
5.69785
21
-4.60146
0
LINE
8
BLACK
6
CONTINUOUS
10
5.69785
20
-4.60146
11
5.70534
21
-4.59771
0
LINE
8
BLACK
6
CONTINUOUS
10
5.76534
20
-4.66895
11
5.76909
21
-4.6727
0
LINE
8
BLACK
6
CONTINUOUS
10
5.76909
20
-4.6727
11
5.76534
21
-4.67645
0
LINE
8
BLACK
6
CONTINUOUS
10
5.76534
20
-4.67645
11
5.76159
21
-4.6727
0
LINE
8
BLACK
6
CONTINUOUS
10
5.76159
20
-4.6727
11
5.76534
21
-4.66895
0
LINE
8
BLACK
6
CONTINUOUS
10
5.76534
20
-4.66895
11
5.76534
21
-4.67645
0
LINE
8
BLACK
6
CONTINUOUS
10
5.81783
20
-4.59771
11
5.82533
21
-4.59771
0
LINE
8
BLACK
6
CONTINUOUS
10
5.82533
20
-4.59771
11
5.83283
21
-4.60146
0
LINE
8
BLACK
6
CONTINUOUS
10
5.83283
20
-4.60146
11
5.83658
21
-4.60521
0
LINE
8
BLACK
6
CONTINUOUS
10
5.83658
20
-4.60521
11
5.84033
21
-4.61271
0
LINE
8
BLACK
6
CONTINUOUS
10
5.84033
20
-4.61271
11
5.84408
21
-4.6277
0
LINE
8
BLACK
6
CONTINUOUS
10
5.84408
20
-4.6277
11
5.84408
21
-4.64645
0
LINE
8
BLACK
6
CONTINUOUS
10
5.84408
20
-4.64645
11
5.84033
21
-4.66145
0
LINE
8
BLACK
6
CONTINUOUS
10
5.84033
20
-4.66145
11
5.83658
21
-4.66895
0
LINE
8
BLACK
6
CONTINUOUS
10
5.83658
20
-4.66895
11
5.83283
21
-4.6727
0
LINE
8
BLACK
6
CONTINUOUS
10
5.83283
20
-4.6727
11
5.82533
21
-4.67645
0
LINE
8
BLACK
6
CONTINUOUS
10
5.82533
20
-4.67645
11
5.81783
21
-4.67645
0
LINE
8
BLACK
6
CONTINUOUS
10
5.81783
20
-4.67645
11
5.81033
21
-4.6727
0
LINE
8
BLACK
6
CONTINUOUS
10
5.81033
20
-4.6727
11
5.80658
21
-4.66895
0
LINE
8
BLACK
6
CONTINUOUS
10
5.80658
20
-4.66895
11
5.80283
21
-4.66145
0
LINE
8
BLACK
6
CONTINUOUS
10
5.80283
20
-4.66145
11
5.79908
21
-4.64645
0
LINE
8
BLACK
6
CONTINUOUS
10
5.79908
20
-4.64645
11
5.79908
21
-4.6277
0
LINE
8
BLACK
6
CONTINUOUS
10
5.79908
20
-4.6277
11
5.80283
21
-4.61271
0
LINE
8
BLACK
6
CONTINUOUS
10
5.80283
20
-4.61271
11
5.80658
21
-4.60521
0
LINE
8
BLACK
6
CONTINUOUS
10
5.80658
20
-4.60521
11
5.81033
21
-4.60146
0
LINE
8
BLACK
6
CONTINUOUS
10
5.81033
20
-4.60146
11
5.81783
21
-4.59771
0
LINE
8
BLACK
6
CONTINUOUS
10
5.88907
20
-4.63145
11
5.88157
21
-4.6277
0
LINE
8
BLACK
6
CONTINUOUS
10
5.88157
20
-4.6277
11
5.87782
21
-4.62395
0
LINE
8
BLACK
6
CONTINUOUS
10
5.87782
20
-4.62395
11
5.87407
21
-4.61645
0
LINE
8
BLACK
6
CONTINUOUS
10
5.87407
20
-4.61645
11
5.87407
21
-4.61271
0
LINE
8
BLACK
6
CONTINUOUS
10
5.87407
20
-4.61271
11
5.87782
21
-4.60521
0
LINE
8
BLACK
6
CONTINUOUS
10
5.87782
20
-4.60521
11
5.88157
21
-4.60146
0
LINE
8
BLACK
6
CONTINUOUS
10
5.88157
20
-4.60146
11
5.88907
21
-4.59771
0
LINE
8
BLACK
6
CONTINUOUS
10
5.88907
20
-4.59771
11
5.90407
21
-4.59771
0
LINE
8
BLACK
6
CONTINUOUS
10
5.90407
20
-4.59771
11
5.91157
21
-4.60146
0
LINE
8
BLACK
6
CONTINUOUS
10
5.91157
20
-4.60146
11
5.91532
21
-4.60521
0
LINE
8
BLACK
6
CONTINUOUS
10
5.91532
20
-4.60521
11
5.91907
21
-4.61271
0
LINE
8
BLACK
6
CONTINUOUS
10
5.91907
20
-4.61271
11
5.91907
21
-4.61645
0
LINE
8
BLACK
6
CONTINUOUS
10
5.91907
20
-4.61645
11
5.91532
21
-4.62395
0
LINE
8
BLACK
6
CONTINUOUS
10
5.91532
20
-4.62395
11
5.91157
21
-4.6277
0
LINE
8
BLACK
6
CONTINUOUS
10
5.91157
20
-4.6277
11
5.90407
21
-4.63145
0
LINE
8
BLACK
6
CONTINUOUS
10
5.90407
20
-4.63145
11
5.88907
21
-4.63145
0
LINE
8
BLACK
6
CONTINUOUS
10
5.88907
20
-4.63145
11
5.88157
21
-4.6352
0
LINE
8
BLACK
6
CONTINUOUS
10
5.88157
20
-4.6352
11
5.87782
21
-4.63895
0
LINE
8
BLACK
6
CONTINUOUS
10
5.87782
20
-4.63895
11
5.87407
21
-4.64645
0
LINE
8
BLACK
6
CONTINUOUS
10
5.87407
20
-4.64645
11
5.87407
21
-4.66145
0
LINE
8
BLACK
6
CONTINUOUS
10
5.87407
20
-4.66145
11
5.87782
21
-4.66895
0
LINE
8
BLACK
6
CONTINUOUS
10
5.87782
20
-4.66895
11
5.88157
21
-4.6727
0
LINE
8
BLACK
6
CONTINUOUS
10
5.88157
20
-4.6727
11
5.88907
21
-4.67645
0
LINE
8
BLACK
6
CONTINUOUS
10
5.88907
20
-4.67645
11
5.90407
21
-4.67645
0
LINE
8
BLACK
6
CONTINUOUS
10
5.90407
20
-4.67645
11
5.91157
21
-4.6727
0
LINE
8
BLACK
6
CONTINUOUS
10
5.91157
20
-4.6727
11
5.91532
21
-4.66895
0
LINE
8
BLACK
6
CONTINUOUS
10
5.91532
20
-4.66895
11
5.91907
21
-4.66145
0
LINE
8
BLACK
6
CONTINUOUS
10
5.91907
20
-4.66145
11
5.91907
21
-4.64645
0
LINE
8
BLACK
6
CONTINUOUS
10
5.91907
20
-4.64645
11
5.91532
21
-4.63895
0
LINE
8
BLACK
6
CONTINUOUS
10
5.91532
20
-4.63895
11
5.91157
21
-4.6352
0
LINE
8
BLACK
6
CONTINUOUS
10
5.91157
20
-4.6352
11
5.90407
21
-4.63145
0
LINE
8
BLACK
6
CONTINUOUS
10
5.98656
20
-4.59771
11
5.97156
21
-4.59771
0
LINE
8
BLACK
6
CONTINUOUS
10
5.97156
20
-4.59771
11
5.96406
21
-4.60146
0
LINE
8
BLACK
6
CONTINUOUS
10
5.96406
20
-4.60146
11
5.96031
21
-4.60521
0
LINE
8
BLACK
6
CONTINUOUS
10
5.96031
20
-4.60521
11
5.95281
21
-4.61645
0
LINE
8
BLACK
6
CONTINUOUS
10
5.95281
20
-4.61645
11
5.94906
21
-4.63145
0
LINE
8
BLACK
6
CONTINUOUS
10
5.94906
20
-4.63145
11
5.94906
21
-4.66145
0
LINE
8
BLACK
6
CONTINUOUS
10
5.94906
20
-4.66145
11
5.95281
21
-4.66895
0
LINE
8
BLACK
6
CONTINUOUS
10
5.95281
20
-4.66895
11
5.95656
21
-4.6727
0
LINE
8
BLACK
6
CONTINUOUS
10
5.95656
20
-4.6727
11
5.96406
21
-4.67645
0
LINE
8
BLACK
6
CONTINUOUS
10
5.96406
20
-4.67645
11
5.97906
21
-4.67645
0
LINE
8
BLACK
6
CONTINUOUS
10
5.97906
20
-4.67645
11
5.98656
21
-4.6727
0
LINE
8
BLACK
6
CONTINUOUS
10
5.98656
20
-4.6727
11
5.99031
21
-4.66895
0
LINE
8
BLACK
6
CONTINUOUS
10
5.99031
20
-4.66895
11
5.99406
21
-4.66145
0
LINE
8
BLACK
6
CONTINUOUS
10
5.99406
20
-4.66145
11
5.99406
21
-4.6427
0
LINE
8
BLACK
6
CONTINUOUS
10
5.99406
20
-4.6427
11
5.99031
21
-4.6352
0
LINE
8
BLACK
6
CONTINUOUS
10
5.99031
20
-4.6352
11
5.98656
21
-4.63145
0
LINE
8
BLACK
6
CONTINUOUS
10
5.98656
20
-4.63145
11
5.97906
21
-4.6277
0
LINE
8
BLACK
6
CONTINUOUS
10
5.97906
20
-4.6277
11
5.96406
21
-4.6277
0
LINE
8
BLACK
6
CONTINUOUS
10
5.96406
20
-4.6277
11
5.95656
21
-4.63145
0
LINE
8
BLACK
6
CONTINUOUS
10
5.95656
20
-4.63145
11
5.95281
21
-4.6352
0
LINE
8
BLACK
6
CONTINUOUS
10
5.95281
20
-4.6352
11
5.94906
21
-4.6427
0
LINE
8
BLACK
6
CONTINUOUS
10
6.06155
20
-4.59771
11
6.04655
21
-4.59771
0
LINE
8
BLACK
6
CONTINUOUS
10
6.04655
20
-4.59771
11
6.03905
21
-4.60146
0
LINE
8
BLACK
6
CONTINUOUS
10
6.03905
20
-4.60146
11
6.0353
21
-4.60521
0
LINE
8
BLACK
6
CONTINUOUS
10
6.0353
20
-4.60521
11
6.0278
21
-4.61645
0
LINE
8
BLACK
6
CONTINUOUS
10
6.0278
20
-4.61645
11
6.02406
21
-4.63145
0
LINE
8
BLACK
6
CONTINUOUS
10
6.02406
20
-4.63145
11
6.02406
21
-4.66145
0
LINE
8
BLACK
6
CONTINUOUS
10
6.02406
20
-4.66145
11
6.0278
21
-4.66895
0
LINE
8
BLACK
6
CONTINUOUS
10
6.0278
20
-4.66895
11
6.03155
21
-4.6727
0
LINE
8
BLACK
6
CONTINUOUS
10
6.03155
20
-4.6727
11
6.03905
21
-4.67645
0
LINE
8
BLACK
6
CONTINUOUS
10
6.03905
20
-4.67645
11
6.05405
21
-4.67645
0
LINE
8
BLACK
6
CONTINUOUS
10
6.05405
20
-4.67645
11
6.06155
21
-4.6727
0
LINE
8
BLACK
6
CONTINUOUS
10
6.06155
20
-4.6727
11
6.0653
21
-4.66895
0
LINE
8
BLACK
6
CONTINUOUS
10
6.0653
20
-4.66895
11
6.06905
21
-4.66145
0
LINE
8
BLACK
6
CONTINUOUS
10
6.06905
20
-4.66145
11
6.06905
21
-4.6427
0
LINE
8
BLACK
6
CONTINUOUS
10
6.06905
20
-4.6427
11
6.0653
21
-4.6352
0
LINE
8
BLACK
6
CONTINUOUS
10
6.0653
20
-4.6352
11
6.06155
21
-4.63145
0
LINE
8
BLACK
6
CONTINUOUS
10
6.06155
20
-4.63145
11
6.05405
21
-4.6277
0
LINE
8
BLACK
6
CONTINUOUS
10
6.05405
20
-4.6277
11
6.03905
21
-4.6277
0
LINE
8
BLACK
6
CONTINUOUS
10
6.03905
20
-4.6277
11
6.03155
21
-4.63145
0
LINE
8
BLACK
6
CONTINUOUS
10
6.03155
20
-4.63145
11
6.0278
21
-4.6352
0
LINE
8
BLACK
6
CONTINUOUS
10
6.0278
20
-4.6352
11
6.02406
21
-4.6427
0
LINE
8
BLACK
6
CONTINUOUS
10
6.09905
20
-4.59771
11
6.09905
21
-4.61271
0
LINE
8
BLACK
6
CONTINUOUS
10
6.12904
20
-4.59771
11
6.12904
21
-4.61271
0
LINE
8
BLACK
6
CONTINUOUS
10
6.24528
20
-4.70644
11
6.24153
21
-4.70269
0
LINE
8
BLACK
6
CONTINUOUS
10
6.24153
20
-4.70269
11
6.23403
21
-4.69145
0
LINE
8
BLACK
6
CONTINUOUS
10
6.23403
20
-4.69145
11
6.23028
21
-4.68395
0
LINE
8
BLACK
6
CONTINUOUS
10
6.23028
20
-4.68395
11
6.22653
21
-4.6727
0
LINE
8
BLACK
6
CONTINUOUS
10
6.22653
20
-4.6727
11
6.22278
21
-4.65395
0
LINE
8
BLACK
6
CONTINUOUS
10
6.22278
20
-4.65395
11
6.22278
21
-4.63895
0
LINE
8
BLACK
6
CONTINUOUS
10
6.22278
20
-4.63895
11
6.22653
21
-4.6202
0
LINE
8
BLACK
6
CONTINUOUS
10
6.22653
20
-4.6202
11
6.23028
21
-4.60896
0
LINE
8
BLACK
6
CONTINUOUS
10
6.23028
20
-4.60896
11
6.23403
21
-4.60146
0
LINE
8
BLACK
6
CONTINUOUS
10
6.23403
20
-4.60146
11
6.24153
21
-4.59021
0
LINE
8
BLACK
6
CONTINUOUS
10
6.24153
20
-4.59021
11
6.24528
21
-4.58646
0
LINE
8
BLACK
6
CONTINUOUS
10
6.30902
20
-4.62395
11
6.30902
21
-4.67645
0
LINE
8
BLACK
6
CONTINUOUS
10
6.29027
20
-4.59396
11
6.27152
21
-4.6502
0
LINE
8
BLACK
6
CONTINUOUS
10
6.27152
20
-4.6502
11
6.32027
21
-4.6502
0
LINE
8
BLACK
6
CONTINUOUS
10
6.41026
20
-4.67645
11
6.41026
21
-4.59771
0
LINE
8
BLACK
6
CONTINUOUS
10
6.444
20
-4.67645
11
6.444
21
-4.6352
0
LINE
8
BLACK
6
CONTINUOUS
10
6.444
20
-4.6352
11
6.44025
21
-4.6277
0
LINE
8
BLACK
6
CONTINUOUS
10
6.44025
20
-4.6277
11
6.43275
21
-4.62395
0
LINE
8
BLACK
6
CONTINUOUS
10
6.43275
20
-4.62395
11
6.42151
21
-4.62395
0
LINE
8
BLACK
6
CONTINUOUS
10
6.42151
20
-4.62395
11
6.41401
21
-4.6277
0
LINE
8
BLACK
6
CONTINUOUS
10
6.41401
20
-4.6277
11
6.41026
21
-4.63145
0
LINE
8
BLACK
6
CONTINUOUS
10
6.49275
20
-4.67645
11
6.48525
21
-4.6727
0
LINE
8
BLACK
6
CONTINUOUS
10
6.48525
20
-4.6727
11
6.4815
21
-4.66895
0
LINE
8
BLACK
6
CONTINUOUS
10
6.4815
20
-4.66895
11
6.47775
21
-4.66145
0
LINE
8
BLACK
6
CONTINUOUS
10
6.47775
20
-4.66145
11
6.47775
21
-4.63895
0
LINE
8
BLACK
6
CONTINUOUS
10
6.47775
20
-4.63895
11
6.4815
21
-4.63145
0
LINE
8
BLACK
6
CONTINUOUS
10
6.4815
20
-4.63145
11
6.48525
21
-4.6277
0
LINE
8
BLACK
6
CONTINUOUS
10
6.48525
20
-4.6277
11
6.49275
21
-4.62395
0
LINE
8
BLACK
6
CONTINUOUS
10
6.49275
20
-4.62395
11
6.504
21
-4.62395
0
LINE
8
BLACK
6
CONTINUOUS
10
6.504
20
-4.62395
11
6.51149
21
-4.6277
0
LINE
8
BLACK
6
CONTINUOUS
10
6.51149
20
-4.6277
11
6.51524
21
-4.63145
0
LINE
8
BLACK
6
CONTINUOUS
10
6.51524
20
-4.63145
11
6.51899
21
-4.63895
0
LINE
8
BLACK
6
CONTINUOUS
10
6.51899
20
-4.63895
11
6.51899
21
-4.66145
0
LINE
8
BLACK
6
CONTINUOUS
10
6.51899
20
-4.66145
11
6.51524
21
-4.66895
0
LINE
8
BLACK
6
CONTINUOUS
10
6.51524
20
-4.66895
11
6.51149
21
-4.6727
0
LINE
8
BLACK
6
CONTINUOUS
10
6.51149
20
-4.6727
11
6.504
21
-4.67645
0
LINE
8
BLACK
6
CONTINUOUS
10
6.504
20
-4.67645
11
6.49275
21
-4.67645
0
LINE
8
BLACK
6
CONTINUOUS
10
6.56399
20
-4.67645
11
6.55649
21
-4.6727
0
LINE
8
BLACK
6
CONTINUOUS
10
6.55649
20
-4.6727
11
6.55274
21
-4.6652
0
LINE
8
BLACK
6
CONTINUOUS
10
6.55274
20
-4.6652
11
6.55274
21
-4.59771
0
LINE
8
BLACK
6
CONTINUOUS
10
6.62398
20
-4.6727
11
6.61648
21
-4.67645
0
LINE
8
BLACK
6
CONTINUOUS
10
6.61648
20
-4.67645
11
6.60148
21
-4.67645
0
LINE
8
BLACK
6
CONTINUOUS
10
6.60148
20
-4.67645
11
6.59398
21
-4.6727
0
LINE
8
BLACK
6
CONTINUOUS
10
6.59398
20
-4.6727
11
6.59023
21
-4.6652
0
LINE
8
BLACK
6
CONTINUOUS
10
6.59023
20
-4.6652
11
6.59023
21
-4.6352
0
LINE
8
BLACK
6
CONTINUOUS
10
6.59023
20
-4.6352
11
6.59398
21
-4.6277
0
LINE
8
BLACK
6
CONTINUOUS
10
6.59398
20
-4.6277
11
6.60148
21
-4.62395
0
LINE
8
BLACK
6
CONTINUOUS
10
6.60148
20
-4.62395
11
6.61648
21
-4.62395
0
LINE
8
BLACK
6
CONTINUOUS
10
6.61648
20
-4.62395
11
6.62398
21
-4.6277
0
LINE
8
BLACK
6
CONTINUOUS
10
6.62398
20
-4.6277
11
6.62773
21
-4.6352
0
LINE
8
BLACK
6
CONTINUOUS
10
6.62773
20
-4.6352
11
6.62773
21
-4.6427
0
LINE
8
BLACK
6
CONTINUOUS
10
6.62773
20
-4.6427
11
6.59023
21
-4.6502
0
LINE
8
BLACK
6
CONTINUOUS
10
6.65773
20
-4.6727
11
6.66522
21
-4.67645
0
LINE
8
BLACK
6
CONTINUOUS
10
6.66522
20
-4.67645
11
6.68022
21
-4.67645
0
LINE
8
BLACK
6
CONTINUOUS
10
6.68022
20
-4.67645
11
6.68772
21
-4.6727
0
LINE
8
BLACK
6
CONTINUOUS
10
6.68772
20
-4.6727
11
6.69147
21
-4.6652
0
LINE
8
BLACK
6
CONTINUOUS
10
6.69147
20
-4.6652
11
6.69147
21
-4.66145
0
LINE
8
BLACK
6
CONTINUOUS
10
6.69147
20
-4.66145
11
6.68772
21
-4.65395
0
LINE
8
BLACK
6
CONTINUOUS
10
6.68772
20
-4.65395
11
6.68022
21
-4.6502
0
LINE
8
BLACK
6
CONTINUOUS
10
6.68022
20
-4.6502
11
6.66897
21
-4.6502
0
LINE
8
BLACK
6
CONTINUOUS
10
6.66897
20
-4.6502
11
6.66148
21
-4.64645
0
LINE
8
BLACK
6
CONTINUOUS
10
6.66148
20
-4.64645
11
6.65773
21
-4.63895
0
LINE
8
BLACK
6
CONTINUOUS
10
6.65773
20
-4.63895
11
6.65773
21
-4.6352
0
LINE
8
BLACK
6
CONTINUOUS
10
6.65773
20
-4.6352
11
6.66148
21
-4.6277
0
LINE
8
BLACK
6
CONTINUOUS
10
6.66148
20
-4.6277
11
6.66897
21
-4.62395
0
LINE
8
BLACK
6
CONTINUOUS
10
6.66897
20
-4.62395
11
6.68022
21
-4.62395
0
LINE
8
BLACK
6
CONTINUOUS
10
6.68022
20
-4.62395
11
6.68772
21
-4.6277
0
LINE
8
BLACK
6
CONTINUOUS
10
6.71772
20
-4.70644
11
6.72147
21
-4.70269
0
LINE
8
BLACK
6
CONTINUOUS
10
6.72147
20
-4.70269
11
6.72897
21
-4.69145
0
LINE
8
BLACK
6
CONTINUOUS
10
6.72897
20
-4.69145
11
6.73272
21
-4.68395
0
LINE
8
BLACK
6
CONTINUOUS
10
6.73272
20
-4.68395
11
6.73647
21
-4.6727
0
LINE
8
BLACK
6
CONTINUOUS
10
6.73647
20
-4.6727
11
6.74022
21
-4.65395
0
LINE
8
BLACK
6
CONTINUOUS
10
6.74022
20
-4.65395
11
6.74022
21
-4.63895
0
LINE
8
BLACK
6
CONTINUOUS
10
6.74022
20
-4.63895
11
6.73647
21
-4.6202
0
LINE
8
BLACK
6
CONTINUOUS
10
6.73647
20
-4.6202
11
6.73272
21
-4.60896
0
LINE
8
BLACK
6
CONTINUOUS
10
6.73272
20
-4.60896
11
6.72897
21
-4.60146
0
LINE
8
BLACK
6
CONTINUOUS
10
6.72897
20
-4.60146
11
6.72147
21
-4.59021
0
LINE
8
BLACK
6
CONTINUOUS
10
6.72147
20
-4.59021
11
6.71772
21
-4.58646
  0
ENDSEC
  0
EOF
