  0
SECTION
  2
HEADER
  9
$ANGBASE
  50
0.0
  9
$ANGDIR
  70
1
  9
$MEASUREMENT
  70
1
  0
ENDSEC
  0
SECTION
  2
TABLES
  0
TABLE
  2
LTYPE
  70
4
  0
LTYPE
  5
40F
  2
CONTINUOUS
  70
0
  3
Solid line
  72
65
  73
0
  40
0.0
  0
LTYPE
  5
410
  2
DASHDOT
 70
0
  3
Dash Dot ____ _ ____ _
 72
65
 73
4
 40
2.0
 49
1.25
 49
-0.25
 49
0.25
 49
-0.25
  0
LTYPE
  5
411
  2
DASHED
 70
0
  3
Dashed __ __ __ __ __
 72
65
 73
2
 40
0.75
 49
0.5
 49
-0.25
  0
LTYPE
  5
43B
  2
DOTTED
 70
0
  3
Dotted .  .  .  .
 72
65
 73
2
 40
0.2
 49
0.0
 49
-0.2
  0
ENDTAB
  0
TABLE
  2
STYLE
  70
4
  0
STYLE
  2
KICAD
  70
0
  40
0
  41
1
  42
1
  50
0
  71
0
  3
isocp.shx
  0
STYLE
  2
KICADB
  70
0
  40
0
  41
1
  42
1
  50
0
  71
0
  3
isocp.shx
  0
STYLE
  2
KICADI
  70
0
  40
0
  41
1
  42
1
  50
15
  71
0
  3
isocp.shx
  0
STYLE
  2
KICADBI
  70
0
  40
0
  41
1
  42
1
  50
15
  71
0
  3
isocp.shx
  0
ENDTAB
  0
TABLE
  2
LAYER
  70
1
  0
LAYER
  2
BLACK
  70
0
  62
7
  6
CONTINUOUS
  0
ENDTAB
  0
ENDSEC
  0
SECTION
  2
ENTITIES
0
LINE
8
BLACK
6
CONTINUOUS
10
122.936
20
-106.172
11
122.936
21
-80.772
0
LINE
8
BLACK
6
CONTINUOUS
10
148.336
20
-106.172
11
122.936
21
-106.172
0
LINE
8
BLACK
6
CONTINUOUS
10
148.336
20
-80.772
11
148.336
21
-106.172
0
LINE
8
BLACK
6
CONTINUOUS
10
122.936
20
-80.772
11
148.336
21
-80.772
0
LINE
8
BLACK
6
CONTINUOUS
10
129.567
20
-98.2746
11
129.817
21
-98.5246
0
LINE
8
BLACK
6
CONTINUOUS
10
129.817
20
-98.2746
11
129.567
21
-98.5246
0
LINE
8
BLACK
6
CONTINUOUS
10
131.599
20
-95.4806
11
131.849
21
-95.7306
0
LINE
8
BLACK
6
CONTINUOUS
10
131.849
20
-95.4806
11
131.599
21
-95.7306
0
LINE
8
BLACK
6
CONTINUOUS
10
131.955
20
-93.22
11
132.205
21
-93.47
0
LINE
8
BLACK
6
CONTINUOUS
10
132.205
20
-93.22
11
131.955
21
-93.47
0
LINE
8
BLACK
6
CONTINUOUS
10
132.636
20
-90.5073
11
132.886
21
-90.7573
0
LINE
8
BLACK
6
CONTINUOUS
10
132.886
20
-90.5073
11
132.636
21
-90.7573
0
LINE
8
BLACK
6
CONTINUOUS
10
132.844
20
-95.76
11
133.094
21
-96.01
0
LINE
8
BLACK
6
CONTINUOUS
10
133.094
20
-95.76
11
132.844
21
-96.01
0
LINE
8
BLACK
6
CONTINUOUS
10
133.231
20
-91.0673
11
133.481
21
-91.3173
0
LINE
8
BLACK
6
CONTINUOUS
10
133.481
20
-91.0673
11
133.231
21
-91.3173
0
LINE
8
BLACK
6
CONTINUOUS
10
133.258
20
-87.9647
11
133.508
21
-88.2147
0
LINE
8
BLACK
6
CONTINUOUS
10
133.508
20
-87.9647
11
133.258
21
-88.2147
0
LINE
8
BLACK
6
CONTINUOUS
10
133.673
20
-84.6424
11
133.923
21
-84.8924
0
LINE
8
BLACK
6
CONTINUOUS
10
133.923
20
-84.6424
11
133.673
21
-84.8924
0
LINE
8
BLACK
6
CONTINUOUS
10
133.987
20
-98.173
11
134.237
21
-98.423
0
LINE
8
BLACK
6
CONTINUOUS
10
134.237
20
-98.173
11
133.987
21
-98.423
0
LINE
8
BLACK
6
CONTINUOUS
10
134.401
20
-88.1349
11
134.651
21
-88.3849
0
LINE
8
BLACK
6
CONTINUOUS
10
134.651
20
-88.1349
11
134.401
21
-88.3849
0
LINE
8
BLACK
6
CONTINUOUS
10
134.876
20
-84.3783
11
135.126
21
-84.6283
0
LINE
8
BLACK
6
CONTINUOUS
10
135.126
20
-84.3783
11
134.876
21
-84.6283
0
LINE
8
BLACK
6
CONTINUOUS
10
135.243
20
-96.8813
11
135.493
21
-97.1313
0
LINE
8
BLACK
6
CONTINUOUS
10
135.493
20
-96.8813
11
135.243
21
-97.1313
0
LINE
8
BLACK
6
CONTINUOUS
10
135.765
20
-93.22
11
136.015
21
-93.47
0
LINE
8
BLACK
6
CONTINUOUS
10
136.015
20
-93.22
11
135.765
21
-93.47
0
LINE
8
BLACK
6
CONTINUOUS
10
135.892
20
-98.173
11
136.142
21
-98.423
0
LINE
8
BLACK
6
CONTINUOUS
10
136.142
20
-98.173
11
135.892
21
-98.423
0
LINE
8
BLACK
6
CONTINUOUS
10
136.107
20
-90.5098
11
136.357
21
-90.7598
0
LINE
8
BLACK
6
CONTINUOUS
10
136.357
20
-90.5098
11
136.107
21
-90.7598
0
LINE
8
BLACK
6
CONTINUOUS
10
136.58
20
-97.7336
11
136.83
21
-97.9836
0
LINE
8
BLACK
6
CONTINUOUS
10
136.83
20
-97.7336
11
136.58
21
-97.9836
0
LINE
8
BLACK
6
CONTINUOUS
10
136.603
20
-88.3407
11
136.853
21
-88.5907
0
LINE
8
BLACK
6
CONTINUOUS
10
136.853
20
-88.3407
11
136.603
21
-88.5907
0
LINE
8
BLACK
6
CONTINUOUS
10
136.949
20
-97.091
11
137.199
21
-97.341
0
LINE
8
BLACK
6
CONTINUOUS
10
137.199
20
-97.091
11
136.949
21
-97.341
0
LINE
8
BLACK
6
CONTINUOUS
10
138.749
20
-90.6648
11
138.999
21
-90.9148
0
LINE
8
BLACK
6
CONTINUOUS
10
138.999
20
-90.6648
11
138.749
21
-90.9148
0
LINE
8
BLACK
6
CONTINUOUS
10
139.522
20
-85.5492
11
139.772
21
-85.7992
0
LINE
8
BLACK
6
CONTINUOUS
10
139.772
20
-85.5492
11
139.522
21
-85.7992
0
LINE
8
BLACK
6
CONTINUOUS
10
139.839
20
-97.0173
11
140.089
21
-97.2673
0
LINE
8
BLACK
6
CONTINUOUS
10
140.089
20
-97.0173
11
139.839
21
-97.2673
0
LINE
8
BLACK
6
CONTINUOUS
10
140.235
20
-92.2726
11
140.485
21
-92.5226
0
LINE
8
BLACK
6
CONTINUOUS
10
140.485
20
-92.2726
11
140.235
21
-92.5226
0
LINE
8
BLACK
6
CONTINUOUS
10
140.886
20
-89.7783
11
141.136
21
-90.0283
0
LINE
8
BLACK
6
CONTINUOUS
10
141.136
20
-89.7783
11
140.886
21
-90.0283
0
LINE
8
BLACK
6
CONTINUOUS
10
143.639
20
-103.253
11
143.889
21
-103.503
0
LINE
8
BLACK
6
CONTINUOUS
10
143.889
20
-103.253
11
143.639
21
-103.503
0
CIRCLE
8
BLACK
10
122.936
20
-85.344
40
0.325
0
CIRCLE
8
BLACK
10
122.936
20
-86.614
40
0.325
0
CIRCLE
8
BLACK
10
122.936
20
-87.884
40
0.325
0
CIRCLE
8
BLACK
10
122.936
20
-89.154
40
0.325
0
CIRCLE
8
BLACK
10
122.936
20
-90.424
40
0.325
0
CIRCLE
8
BLACK
10
122.936
20
-91.694
40
0.325
0
CIRCLE
8
BLACK
10
122.936
20
-92.964
40
0.325
0
CIRCLE
8
BLACK
10
122.936
20
-94.234
40
0.325
0
CIRCLE
8
BLACK
10
122.936
20
-95.504
40
0.325
0
CIRCLE
8
BLACK
10
122.936
20
-96.774
40
0.325
0
CIRCLE
8
BLACK
10
122.936
20
-98.044
40
0.325
0
CIRCLE
8
BLACK
10
122.936
20
-99.314
40
0.325
0
CIRCLE
8
BLACK
10
122.936
20
-100.584
40
0.325
0
CIRCLE
8
BLACK
10
122.936
20
-101.854
40
0.325
0
CIRCLE
8
BLACK
10
124.206
20
-85.344
40
0.325
0
CIRCLE
8
BLACK
10
124.206
20
-86.614
40
0.325
0
CIRCLE
8
BLACK
10
124.206
20
-87.884
40
0.325
0
CIRCLE
8
BLACK
10
124.206
20
-89.154
40
0.325
0
CIRCLE
8
BLACK
10
124.206
20
-90.424
40
0.325
0
CIRCLE
8
BLACK
10
124.206
20
-91.694
40
0.325
0
CIRCLE
8
BLACK
10
124.206
20
-92.964
40
0.325
0
CIRCLE
8
BLACK
10
124.206
20
-94.234
40
0.325
0
CIRCLE
8
BLACK
10
124.206
20
-95.504
40
0.325
0
CIRCLE
8
BLACK
10
124.206
20
-96.774
40
0.325
0
CIRCLE
8
BLACK
10
124.206
20
-98.044
40
0.325
0
CIRCLE
8
BLACK
10
124.206
20
-99.314
40
0.325
0
CIRCLE
8
BLACK
10
124.206
20
-100.584
40
0.325
0
CIRCLE
8
BLACK
10
124.206
20
-101.854
40
0.325
0
CIRCLE
8
BLACK
10
127.381
20
-80.772
40
0.325
0
CIRCLE
8
BLACK
10
127.381
20
-82.042
40
0.325
0
CIRCLE
8
BLACK
10
127.381
20
-104.902
40
0.325
0
CIRCLE
8
BLACK
10
127.381
20
-106.172
40
0.325
0
CIRCLE
8
BLACK
10
128.651
20
-80.772
40
0.325
0
CIRCLE
8
BLACK
10
128.651
20
-82.042
40
0.325
0
CIRCLE
8
BLACK
10
128.651
20
-104.902
40
0.325
0
CIRCLE
8
BLACK
10
128.651
20
-106.172
40
0.325
0
CIRCLE
8
BLACK
10
129.921
20
-80.772
40
0.325
0
CIRCLE
8
BLACK
10
129.921
20
-82.042
40
0.325
0
CIRCLE
8
BLACK
10
129.921
20
-104.902
40
0.325
0
CIRCLE
8
BLACK
10
129.921
20
-106.172
40
0.325
0
CIRCLE
8
BLACK
10
131.191
20
-80.772
40
0.325
0
CIRCLE
8
BLACK
10
131.191
20
-82.042
40
0.325
0
CIRCLE
8
BLACK
10
131.191
20
-104.902
40
0.325
0
CIRCLE
8
BLACK
10
131.191
20
-106.172
40
0.325
0
CIRCLE
8
BLACK
10
132.461
20
-80.772
40
0.325
0
CIRCLE
8
BLACK
10
132.461
20
-82.042
40
0.325
0
CIRCLE
8
BLACK
10
132.461
20
-104.902
40
0.325
0
CIRCLE
8
BLACK
10
132.461
20
-106.172
40
0.325
0
CIRCLE
8
BLACK
10
133.731
20
-80.772
40
0.325
0
CIRCLE
8
BLACK
10
133.731
20
-82.042
40
0.325
0
CIRCLE
8
BLACK
10
133.731
20
-104.902
40
0.325
0
CIRCLE
8
BLACK
10
133.731
20
-106.172
40
0.325
0
CIRCLE
8
BLACK
10
135.001
20
-80.772
40
0.325
0
CIRCLE
8
BLACK
10
135.001
20
-82.042
40
0.325
0
CIRCLE
8
BLACK
10
135.001
20
-104.902
40
0.325
0
CIRCLE
8
BLACK
10
135.001
20
-106.172
40
0.325
0
CIRCLE
8
BLACK
10
136.271
20
-80.772
40
0.325
0
CIRCLE
8
BLACK
10
136.271
20
-82.042
40
0.325
0
CIRCLE
8
BLACK
10
136.271
20
-104.902
40
0.325
0
CIRCLE
8
BLACK
10
136.271
20
-106.172
40
0.325
0
CIRCLE
8
BLACK
10
137.541
20
-80.772
40
0.325
0
CIRCLE
8
BLACK
10
137.541
20
-82.042
40
0.325
0
CIRCLE
8
BLACK
10
137.541
20
-104.902
40
0.325
0
CIRCLE
8
BLACK
10
137.541
20
-106.172
40
0.325
0
CIRCLE
8
BLACK
10
138.811
20
-80.772
40
0.325
0
CIRCLE
8
BLACK
10
138.811
20
-82.042
40
0.325
0
CIRCLE
8
BLACK
10
138.811
20
-104.902
40
0.325
0
CIRCLE
8
BLACK
10
138.811
20
-106.172
40
0.325
0
CIRCLE
8
BLACK
10
140.081
20
-80.772
40
0.325
0
CIRCLE
8
BLACK
10
140.081
20
-82.042
40
0.325
0
CIRCLE
8
BLACK
10
140.081
20
-104.902
40
0.325
0
CIRCLE
8
BLACK
10
140.081
20
-106.172
40
0.325
0
CIRCLE
8
BLACK
10
141.351
20
-80.772
40
0.325
0
CIRCLE
8
BLACK
10
141.351
20
-82.042
40
0.325
0
CIRCLE
8
BLACK
10
141.351
20
-104.902
40
0.325
0
CIRCLE
8
BLACK
10
141.351
20
-106.172
40
0.325
0
CIRCLE
8
BLACK
10
142.621
20
-80.772
40
0.325
0
CIRCLE
8
BLACK
10
142.621
20
-82.042
40
0.325
0
CIRCLE
8
BLACK
10
142.621
20
-104.902
40
0.325
0
CIRCLE
8
BLACK
10
142.621
20
-106.172
40
0.325
0
CIRCLE
8
BLACK
10
143.891
20
-80.772
40
0.325
0
CIRCLE
8
BLACK
10
143.891
20
-82.042
40
0.325
0
CIRCLE
8
BLACK
10
143.891
20
-104.902
40
0.325
0
CIRCLE
8
BLACK
10
143.891
20
-106.172
40
0.325
0
CIRCLE
8
BLACK
10
147.066
20
-85.344
40
0.325
0
CIRCLE
8
BLACK
10
147.066
20
-86.614
40
0.325
0
CIRCLE
8
BLACK
10
147.066
20
-87.884
40
0.325
0
CIRCLE
8
BLACK
10
147.066
20
-89.154
40
0.325
0
CIRCLE
8
BLACK
10
147.066
20
-90.424
40
0.325
0
CIRCLE
8
BLACK
10
147.066
20
-91.694
40
0.325
0
CIRCLE
8
BLACK
10
147.066
20
-92.964
40
0.325
0
CIRCLE
8
BLACK
10
147.066
20
-94.234
40
0.325
0
CIRCLE
8
BLACK
10
147.066
20
-95.504
40
0.325
0
CIRCLE
8
BLACK
10
147.066
20
-96.774
40
0.325
0
CIRCLE
8
BLACK
10
147.066
20
-98.044
40
0.325
0
CIRCLE
8
BLACK
10
147.066
20
-99.314
40
0.325
0
CIRCLE
8
BLACK
10
147.066
20
-100.584
40
0.325
0
CIRCLE
8
BLACK
10
147.066
20
-101.854
40
0.325
0
CIRCLE
8
BLACK
10
148.336
20
-85.344
40
0.325
0
CIRCLE
8
BLACK
10
148.336
20
-86.614
40
0.325
0
CIRCLE
8
BLACK
10
148.336
20
-87.884
40
0.325
0
CIRCLE
8
BLACK
10
148.336
20
-89.154
40
0.325
0
CIRCLE
8
BLACK
10
148.336
20
-90.424
40
0.325
0
CIRCLE
8
BLACK
10
148.336
20
-91.694
40
0.325
0
CIRCLE
8
BLACK
10
148.336
20
-92.964
40
0.325
0
CIRCLE
8
BLACK
10
148.336
20
-94.234
40
0.325
0
CIRCLE
8
BLACK
10
148.336
20
-95.504
40
0.325
0
CIRCLE
8
BLACK
10
148.336
20
-96.774
40
0.325
0
CIRCLE
8
BLACK
10
148.336
20
-98.044
40
0.325
0
CIRCLE
8
BLACK
10
148.336
20
-99.314
40
0.325
0
CIRCLE
8
BLACK
10
148.336
20
-100.584
40
0.325
0
CIRCLE
8
BLACK
10
148.336
20
-101.854
40
0.325
0
LINE
8
BLACK
6
CONTINUOUS
10
128.397
20
-85.133
11
128.397
21
-87.333
0
LINE
8
BLACK
6
CONTINUOUS
10
127.297
20
-86.233
11
129.497
21
-86.233
0
LINE
8
BLACK
6
CONTINUOUS
10
128.397
20
-99.738
11
128.397
21
-101.938
0
LINE
8
BLACK
6
CONTINUOUS
10
127.297
20
-100.838
11
129.497
21
-100.838
0
LINE
8
BLACK
6
CONTINUOUS
10
143.002
20
-85.133
11
143.002
21
-87.333
0
LINE
8
BLACK
6
CONTINUOUS
10
141.902
20
-86.233
11
144.102
21
-86.233
0
LINE
8
BLACK
6
CONTINUOUS
10
143.002
20
-99.738
11
143.002
21
-101.938
0
LINE
8
BLACK
6
CONTINUOUS
10
141.902
20
-100.838
11
144.102
21
-100.838
0
LINE
8
BLACK
6
CONTINUOUS
10
125.775
20
-110.854
11
125.775
21
-107.854
0
LINE
8
BLACK
6
CONTINUOUS
10
125.775
20
-107.854
11
126.49
21
-107.854
0
LINE
8
BLACK
6
CONTINUOUS
10
126.49
20
-107.854
11
126.918
21
-107.997
0
LINE
8
BLACK
6
CONTINUOUS
10
126.918
20
-107.997
11
127.204
21
-108.283
0
LINE
8
BLACK
6
CONTINUOUS
10
127.204
20
-108.283
11
127.347
21
-108.568
0
LINE
8
BLACK
6
CONTINUOUS
10
127.347
20
-108.568
11
127.49
21
-109.14
0
LINE
8
BLACK
6
CONTINUOUS
10
127.49
20
-109.14
11
127.49
21
-109.568
0
LINE
8
BLACK
6
CONTINUOUS
10
127.49
20
-109.568
11
127.347
21
-110.14
0
LINE
8
BLACK
6
CONTINUOUS
10
127.347
20
-110.14
11
127.204
21
-110.426
0
LINE
8
BLACK
6
CONTINUOUS
10
127.204
20
-110.426
11
126.918
21
-110.711
0
LINE
8
BLACK
6
CONTINUOUS
10
126.918
20
-110.711
11
126.49
21
-110.854
0
LINE
8
BLACK
6
CONTINUOUS
10
126.49
20
-110.854
11
125.775
21
-110.854
0
LINE
8
BLACK
6
CONTINUOUS
10
128.775
20
-110.854
11
128.775
21
-108.854
0
LINE
8
BLACK
6
CONTINUOUS
10
128.775
20
-109.426
11
128.918
21
-109.14
0
LINE
8
BLACK
6
CONTINUOUS
10
128.918
20
-109.14
11
129.061
21
-108.997
0
LINE
8
BLACK
6
CONTINUOUS
10
129.061
20
-108.997
11
129.347
21
-108.854
0
LINE
8
BLACK
6
CONTINUOUS
10
129.347
20
-108.854
11
129.632
21
-108.854
0
LINE
8
BLACK
6
CONTINUOUS
10
130.632
20
-110.854
11
130.632
21
-108.854
0
LINE
8
BLACK
6
CONTINUOUS
10
130.632
20
-107.854
11
130.49
21
-107.997
0
LINE
8
BLACK
6
CONTINUOUS
10
130.49
20
-107.997
11
130.632
21
-108.14
0
LINE
8
BLACK
6
CONTINUOUS
10
130.632
20
-108.14
11
130.775
21
-107.997
0
LINE
8
BLACK
6
CONTINUOUS
10
130.775
20
-107.997
11
130.632
21
-107.854
0
LINE
8
BLACK
6
CONTINUOUS
10
130.632
20
-107.854
11
130.632
21
-108.14
0
LINE
8
BLACK
6
CONTINUOUS
10
132.49
20
-110.854
11
132.204
21
-110.711
0
LINE
8
BLACK
6
CONTINUOUS
10
132.204
20
-110.711
11
132.061
21
-110.426
0
LINE
8
BLACK
6
CONTINUOUS
10
132.061
20
-110.426
11
132.061
21
-107.854
0
LINE
8
BLACK
6
CONTINUOUS
10
134.061
20
-110.854
11
133.775
21
-110.711
0
LINE
8
BLACK
6
CONTINUOUS
10
133.775
20
-110.711
11
133.632
21
-110.426
0
LINE
8
BLACK
6
CONTINUOUS
10
133.632
20
-110.426
11
133.632
21
-107.854
0
LINE
8
BLACK
6
CONTINUOUS
10
137.49
20
-110.854
11
137.49
21
-107.854
0
LINE
8
BLACK
6
CONTINUOUS
10
137.49
20
-107.854
11
138.49
21
-109.997
0
LINE
8
BLACK
6
CONTINUOUS
10
138.49
20
-109.997
11
139.49
21
-107.854
0
LINE
8
BLACK
6
CONTINUOUS
10
139.49
20
-107.854
11
139.49
21
-110.854
0
LINE
8
BLACK
6
CONTINUOUS
10
142.204
20
-110.854
11
142.204
21
-109.283
0
LINE
8
BLACK
6
CONTINUOUS
10
142.204
20
-109.283
11
142.061
21
-108.997
0
LINE
8
BLACK
6
CONTINUOUS
10
142.061
20
-108.997
11
141.775
21
-108.854
0
LINE
8
BLACK
6
CONTINUOUS
10
141.775
20
-108.854
11
141.204
21
-108.854
0
LINE
8
BLACK
6
CONTINUOUS
10
141.204
20
-108.854
11
140.918
21
-108.997
0
LINE
8
BLACK
6
CONTINUOUS
10
142.204
20
-110.711
11
141.918
21
-110.854
0
LINE
8
BLACK
6
CONTINUOUS
10
141.918
20
-110.854
11
141.204
21
-110.854
0
LINE
8
BLACK
6
CONTINUOUS
10
141.204
20
-110.854
11
140.918
21
-110.711
0
LINE
8
BLACK
6
CONTINUOUS
10
140.918
20
-110.711
11
140.775
21
-110.426
0
LINE
8
BLACK
6
CONTINUOUS
10
140.775
20
-110.426
11
140.775
21
-110.14
0
LINE
8
BLACK
6
CONTINUOUS
10
140.775
20
-110.14
11
140.918
21
-109.854
0
LINE
8
BLACK
6
CONTINUOUS
10
140.918
20
-109.854
11
141.204
21
-109.711
0
LINE
8
BLACK
6
CONTINUOUS
10
141.204
20
-109.711
11
141.918
21
-109.711
0
LINE
8
BLACK
6
CONTINUOUS
10
141.918
20
-109.711
11
142.204
21
-109.568
0
LINE
8
BLACK
6
CONTINUOUS
10
143.632
20
-108.854
11
143.632
21
-111.854
0
LINE
8
BLACK
6
CONTINUOUS
10
143.632
20
-108.997
11
143.918
21
-108.854
0
LINE
8
BLACK
6
CONTINUOUS
10
143.918
20
-108.854
11
144.49
21
-108.854
0
LINE
8
BLACK
6
CONTINUOUS
10
144.49
20
-108.854
11
144.775
21
-108.997
0
LINE
8
BLACK
6
CONTINUOUS
10
144.775
20
-108.997
11
144.918
21
-109.14
0
LINE
8
BLACK
6
CONTINUOUS
10
144.918
20
-109.14
11
145.061
21
-109.426
0
LINE
8
BLACK
6
CONTINUOUS
10
145.061
20
-109.426
11
145.061
21
-110.283
0
LINE
8
BLACK
6
CONTINUOUS
10
145.061
20
-110.283
11
144.918
21
-110.568
0
LINE
8
BLACK
6
CONTINUOUS
10
144.918
20
-110.568
11
144.775
21
-110.711
0
LINE
8
BLACK
6
CONTINUOUS
10
144.775
20
-110.711
11
144.49
21
-110.854
0
LINE
8
BLACK
6
CONTINUOUS
10
144.49
20
-110.854
11
143.918
21
-110.854
0
LINE
8
BLACK
6
CONTINUOUS
10
143.918
20
-110.854
11
143.632
21
-110.711
0
LINE
8
BLACK
6
CONTINUOUS
10
146.347
20
-110.568
11
146.49
21
-110.711
0
LINE
8
BLACK
6
CONTINUOUS
10
146.49
20
-110.711
11
146.347
21
-110.854
0
LINE
8
BLACK
6
CONTINUOUS
10
146.347
20
-110.854
11
146.204
21
-110.711
0
LINE
8
BLACK
6
CONTINUOUS
10
146.204
20
-110.711
11
146.347
21
-110.568
0
LINE
8
BLACK
6
CONTINUOUS
10
146.347
20
-110.568
11
146.347
21
-110.854
0
LINE
8
BLACK
6
CONTINUOUS
10
146.347
20
-108.997
11
146.49
21
-109.14
0
LINE
8
BLACK
6
CONTINUOUS
10
146.49
20
-109.14
11
146.347
21
-109.283
0
LINE
8
BLACK
6
CONTINUOUS
10
146.347
20
-109.283
11
146.204
21
-109.14
0
LINE
8
BLACK
6
CONTINUOUS
10
146.204
20
-109.14
11
146.347
21
-108.997
0
LINE
8
BLACK
6
CONTINUOUS
10
146.347
20
-108.997
11
146.347
21
-109.283
0
LINE
8
BLACK
6
CONTINUOUS
10
122.661
20
-115.672
11
122.911
21
-115.922
0
LINE
8
BLACK
6
CONTINUOUS
10
122.911
20
-115.672
11
122.661
21
-115.922
0
LINE
8
BLACK
6
CONTINUOUS
10
126.347
20
-114.154
11
126.632
21
-114.154
0
LINE
8
BLACK
6
CONTINUOUS
10
126.632
20
-114.154
11
126.918
21
-114.297
0
LINE
8
BLACK
6
CONTINUOUS
10
126.918
20
-114.297
11
127.061
21
-114.44
0
LINE
8
BLACK
6
CONTINUOUS
10
127.061
20
-114.44
11
127.204
21
-114.726
0
LINE
8
BLACK
6
CONTINUOUS
10
127.204
20
-114.726
11
127.347
21
-115.297
0
LINE
8
BLACK
6
CONTINUOUS
10
127.347
20
-115.297
11
127.347
21
-116.011
0
LINE
8
BLACK
6
CONTINUOUS
10
127.347
20
-116.011
11
127.204
21
-116.583
0
LINE
8
BLACK
6
CONTINUOUS
10
127.204
20
-116.583
11
127.061
21
-116.868
0
LINE
8
BLACK
6
CONTINUOUS
10
127.061
20
-116.868
11
126.918
21
-117.011
0
LINE
8
BLACK
6
CONTINUOUS
10
126.918
20
-117.011
11
126.632
21
-117.154
0
LINE
8
BLACK
6
CONTINUOUS
10
126.632
20
-117.154
11
126.347
21
-117.154
0
LINE
8
BLACK
6
CONTINUOUS
10
126.347
20
-117.154
11
126.061
21
-117.011
0
LINE
8
BLACK
6
CONTINUOUS
10
126.061
20
-117.011
11
125.918
21
-116.868
0
LINE
8
BLACK
6
CONTINUOUS
10
125.918
20
-116.868
11
125.775
21
-116.583
0
LINE
8
BLACK
6
CONTINUOUS
10
125.775
20
-116.583
11
125.632
21
-116.011
0
LINE
8
BLACK
6
CONTINUOUS
10
125.632
20
-116.011
11
125.632
21
-115.297
0
LINE
8
BLACK
6
CONTINUOUS
10
125.632
20
-115.297
11
125.775
21
-114.726
0
LINE
8
BLACK
6
CONTINUOUS
10
125.775
20
-114.726
11
125.918
21
-114.44
0
LINE
8
BLACK
6
CONTINUOUS
10
125.918
20
-114.44
11
126.061
21
-114.297
0
LINE
8
BLACK
6
CONTINUOUS
10
126.061
20
-114.297
11
126.347
21
-114.154
0
LINE
8
BLACK
6
CONTINUOUS
10
128.632
20
-116.868
11
128.775
21
-117.011
0
LINE
8
BLACK
6
CONTINUOUS
10
128.775
20
-117.011
11
128.632
21
-117.154
0
LINE
8
BLACK
6
CONTINUOUS
10
128.632
20
-117.154
11
128.49
21
-117.011
0
LINE
8
BLACK
6
CONTINUOUS
10
128.49
20
-117.011
11
128.632
21
-116.868
0
LINE
8
BLACK
6
CONTINUOUS
10
128.632
20
-116.868
11
128.632
21
-117.154
0
LINE
8
BLACK
6
CONTINUOUS
10
129.918
20
-114.44
11
130.061
21
-114.297
0
LINE
8
BLACK
6
CONTINUOUS
10
130.061
20
-114.297
11
130.347
21
-114.154
0
LINE
8
BLACK
6
CONTINUOUS
10
130.347
20
-114.154
11
131.061
21
-114.154
0
LINE
8
BLACK
6
CONTINUOUS
10
131.061
20
-114.154
11
131.347
21
-114.297
0
LINE
8
BLACK
6
CONTINUOUS
10
131.347
20
-114.297
11
131.49
21
-114.44
0
LINE
8
BLACK
6
CONTINUOUS
10
131.49
20
-114.44
11
131.632
21
-114.726
0
LINE
8
BLACK
6
CONTINUOUS
10
131.632
20
-114.726
11
131.632
21
-115.011
0
LINE
8
BLACK
6
CONTINUOUS
10
131.632
20
-115.011
11
131.49
21
-115.44
0
LINE
8
BLACK
6
CONTINUOUS
10
131.49
20
-115.44
11
129.775
21
-117.154
0
LINE
8
BLACK
6
CONTINUOUS
10
129.775
20
-117.154
11
131.632
21
-117.154
0
LINE
8
BLACK
6
CONTINUOUS
10
134.347
20
-114.154
11
132.918
21
-114.154
0
LINE
8
BLACK
6
CONTINUOUS
10
132.918
20
-114.154
11
132.775
21
-115.583
0
LINE
8
BLACK
6
CONTINUOUS
10
132.775
20
-115.583
11
132.918
21
-115.44
0
LINE
8
BLACK
6
CONTINUOUS
10
132.918
20
-115.44
11
133.204
21
-115.297
0
LINE
8
BLACK
6
CONTINUOUS
10
133.204
20
-115.297
11
133.918
21
-115.297
0
LINE
8
BLACK
6
CONTINUOUS
10
133.918
20
-115.297
11
134.204
21
-115.44
0
LINE
8
BLACK
6
CONTINUOUS
10
134.204
20
-115.44
11
134.347
21
-115.583
0
LINE
8
BLACK
6
CONTINUOUS
10
134.347
20
-115.583
11
134.49
21
-115.868
0
LINE
8
BLACK
6
CONTINUOUS
10
134.49
20
-115.868
11
134.49
21
-116.583
0
LINE
8
BLACK
6
CONTINUOUS
10
134.49
20
-116.583
11
134.347
21
-116.868
0
LINE
8
BLACK
6
CONTINUOUS
10
134.347
20
-116.868
11
134.204
21
-117.011
0
LINE
8
BLACK
6
CONTINUOUS
10
134.204
20
-117.011
11
133.918
21
-117.154
0
LINE
8
BLACK
6
CONTINUOUS
10
133.918
20
-117.154
11
133.204
21
-117.154
0
LINE
8
BLACK
6
CONTINUOUS
10
133.204
20
-117.154
11
132.918
21
-117.011
0
LINE
8
BLACK
6
CONTINUOUS
10
132.918
20
-117.011
11
132.775
21
-116.868
0
LINE
8
BLACK
6
CONTINUOUS
10
136.347
20
-114.154
11
136.632
21
-114.154
0
LINE
8
BLACK
6
CONTINUOUS
10
136.632
20
-114.154
11
136.918
21
-114.297
0
LINE
8
BLACK
6
CONTINUOUS
10
136.918
20
-114.297
11
137.061
21
-114.44
0
LINE
8
BLACK
6
CONTINUOUS
10
137.061
20
-114.44
11
137.204
21
-114.726
0
LINE
8
BLACK
6
CONTINUOUS
10
137.204
20
-114.726
11
137.347
21
-115.297
0
LINE
8
BLACK
6
CONTINUOUS
10
137.347
20
-115.297
11
137.347
21
-116.011
0
LINE
8
BLACK
6
CONTINUOUS
10
137.347
20
-116.011
11
137.204
21
-116.583
0
LINE
8
BLACK
6
CONTINUOUS
10
137.204
20
-116.583
11
137.061
21
-116.868
0
LINE
8
BLACK
6
CONTINUOUS
10
137.061
20
-116.868
11
136.918
21
-117.011
0
LINE
8
BLACK
6
CONTINUOUS
10
136.918
20
-117.011
11
136.632
21
-117.154
0
LINE
8
BLACK
6
CONTINUOUS
10
136.632
20
-117.154
11
136.347
21
-117.154
0
LINE
8
BLACK
6
CONTINUOUS
10
136.347
20
-117.154
11
136.061
21
-117.011
0
LINE
8
BLACK
6
CONTINUOUS
10
136.061
20
-117.011
11
135.918
21
-116.868
0
LINE
8
BLACK
6
CONTINUOUS
10
135.918
20
-116.868
11
135.775
21
-116.583
0
LINE
8
BLACK
6
CONTINUOUS
10
135.775
20
-116.583
11
135.632
21
-116.011
0
LINE
8
BLACK
6
CONTINUOUS
10
135.632
20
-116.011
11
135.632
21
-115.297
0
LINE
8
BLACK
6
CONTINUOUS
10
135.632
20
-115.297
11
135.775
21
-114.726
0
LINE
8
BLACK
6
CONTINUOUS
10
135.775
20
-114.726
11
135.918
21
-114.44
0
LINE
8
BLACK
6
CONTINUOUS
10
135.918
20
-114.44
11
136.061
21
-114.297
0
LINE
8
BLACK
6
CONTINUOUS
10
136.061
20
-114.297
11
136.347
21
-114.154
0
LINE
8
BLACK
6
CONTINUOUS
10
138.632
20
-117.154
11
138.632
21
-115.154
0
LINE
8
BLACK
6
CONTINUOUS
10
138.632
20
-115.44
11
138.775
21
-115.297
0
LINE
8
BLACK
6
CONTINUOUS
10
138.775
20
-115.297
11
139.061
21
-115.154
0
LINE
8
BLACK
6
CONTINUOUS
10
139.061
20
-115.154
11
139.49
21
-115.154
0
LINE
8
BLACK
6
CONTINUOUS
10
139.49
20
-115.154
11
139.775
21
-115.297
0
LINE
8
BLACK
6
CONTINUOUS
10
139.775
20
-115.297
11
139.918
21
-115.583
0
LINE
8
BLACK
6
CONTINUOUS
10
139.918
20
-115.583
11
139.918
21
-117.154
0
LINE
8
BLACK
6
CONTINUOUS
10
139.918
20
-115.583
11
140.061
21
-115.297
0
LINE
8
BLACK
6
CONTINUOUS
10
140.061
20
-115.297
11
140.347
21
-115.154
0
LINE
8
BLACK
6
CONTINUOUS
10
140.347
20
-115.154
11
140.775
21
-115.154
0
LINE
8
BLACK
6
CONTINUOUS
10
140.775
20
-115.154
11
141.061
21
-115.297
0
LINE
8
BLACK
6
CONTINUOUS
10
141.061
20
-115.297
11
141.204
21
-115.583
0
LINE
8
BLACK
6
CONTINUOUS
10
141.204
20
-115.583
11
141.204
21
-117.154
0
LINE
8
BLACK
6
CONTINUOUS
10
142.632
20
-117.154
11
142.632
21
-115.154
0
LINE
8
BLACK
6
CONTINUOUS
10
142.632
20
-115.44
11
142.775
21
-115.297
0
LINE
8
BLACK
6
CONTINUOUS
10
142.775
20
-115.297
11
143.061
21
-115.154
0
LINE
8
BLACK
6
CONTINUOUS
10
143.061
20
-115.154
11
143.49
21
-115.154
0
LINE
8
BLACK
6
CONTINUOUS
10
143.49
20
-115.154
11
143.775
21
-115.297
0
LINE
8
BLACK
6
CONTINUOUS
10
143.775
20
-115.297
11
143.918
21
-115.583
0
LINE
8
BLACK
6
CONTINUOUS
10
143.918
20
-115.583
11
143.918
21
-117.154
0
LINE
8
BLACK
6
CONTINUOUS
10
143.918
20
-115.583
11
144.061
21
-115.297
0
LINE
8
BLACK
6
CONTINUOUS
10
144.061
20
-115.297
11
144.347
21
-115.154
0
LINE
8
BLACK
6
CONTINUOUS
10
144.347
20
-115.154
11
144.775
21
-115.154
0
LINE
8
BLACK
6
CONTINUOUS
10
144.775
20
-115.154
11
145.061
21
-115.297
0
LINE
8
BLACK
6
CONTINUOUS
10
145.061
20
-115.297
11
145.204
21
-115.583
0
LINE
8
BLACK
6
CONTINUOUS
10
145.204
20
-115.583
11
145.204
21
-117.154
0
LINE
8
BLACK
6
CONTINUOUS
10
151.061
20
-114.011
11
148.49
21
-117.868
0
LINE
8
BLACK
6
CONTINUOUS
10
154.918
20
-114.154
11
155.204
21
-114.154
0
LINE
8
BLACK
6
CONTINUOUS
10
155.204
20
-114.154
11
155.49
21
-114.297
0
LINE
8
BLACK
6
CONTINUOUS
10
155.49
20
-114.297
11
155.632
21
-114.44
0
LINE
8
BLACK
6
CONTINUOUS
10
155.632
20
-114.44
11
155.775
21
-114.726
0
LINE
8
BLACK
6
CONTINUOUS
10
155.775
20
-114.726
11
155.918
21
-115.297
0
LINE
8
BLACK
6
CONTINUOUS
10
155.918
20
-115.297
11
155.918
21
-116.011
0
LINE
8
BLACK
6
CONTINUOUS
10
155.918
20
-116.011
11
155.775
21
-116.583
0
LINE
8
BLACK
6
CONTINUOUS
10
155.775
20
-116.583
11
155.632
21
-116.868
0
LINE
8
BLACK
6
CONTINUOUS
10
155.632
20
-116.868
11
155.49
21
-117.011
0
LINE
8
BLACK
6
CONTINUOUS
10
155.49
20
-117.011
11
155.204
21
-117.154
0
LINE
8
BLACK
6
CONTINUOUS
10
155.204
20
-117.154
11
154.918
21
-117.154
0
LINE
8
BLACK
6
CONTINUOUS
10
154.918
20
-117.154
11
154.632
21
-117.011
0
LINE
8
BLACK
6
CONTINUOUS
10
154.632
20
-117.011
11
154.49
21
-116.868
0
LINE
8
BLACK
6
CONTINUOUS
10
154.49
20
-116.868
11
154.347
21
-116.583
0
LINE
8
BLACK
6
CONTINUOUS
10
154.347
20
-116.583
11
154.204
21
-116.011
0
LINE
8
BLACK
6
CONTINUOUS
10
154.204
20
-116.011
11
154.204
21
-115.297
0
LINE
8
BLACK
6
CONTINUOUS
10
154.204
20
-115.297
11
154.347
21
-114.726
0
LINE
8
BLACK
6
CONTINUOUS
10
154.347
20
-114.726
11
154.49
21
-114.44
0
LINE
8
BLACK
6
CONTINUOUS
10
154.49
20
-114.44
11
154.632
21
-114.297
0
LINE
8
BLACK
6
CONTINUOUS
10
154.632
20
-114.297
11
154.918
21
-114.154
0
LINE
8
BLACK
6
CONTINUOUS
10
157.204
20
-116.868
11
157.347
21
-117.011
0
LINE
8
BLACK
6
CONTINUOUS
10
157.347
20
-117.011
11
157.204
21
-117.154
0
LINE
8
BLACK
6
CONTINUOUS
10
157.204
20
-117.154
11
157.061
21
-117.011
0
LINE
8
BLACK
6
CONTINUOUS
10
157.061
20
-117.011
11
157.204
21
-116.868
0
LINE
8
BLACK
6
CONTINUOUS
10
157.204
20
-116.868
11
157.204
21
-117.154
0
LINE
8
BLACK
6
CONTINUOUS
10
159.204
20
-114.154
11
159.49
21
-114.154
0
LINE
8
BLACK
6
CONTINUOUS
10
159.49
20
-114.154
11
159.775
21
-114.297
0
LINE
8
BLACK
6
CONTINUOUS
10
159.775
20
-114.297
11
159.918
21
-114.44
0
LINE
8
BLACK
6
CONTINUOUS
10
159.918
20
-114.44
11
160.061
21
-114.726
0
LINE
8
BLACK
6
CONTINUOUS
10
160.061
20
-114.726
11
160.204
21
-115.297
0
LINE
8
BLACK
6
CONTINUOUS
10
160.204
20
-115.297
11
160.204
21
-116.011
0
LINE
8
BLACK
6
CONTINUOUS
10
160.204
20
-116.011
11
160.061
21
-116.583
0
LINE
8
BLACK
6
CONTINUOUS
10
160.061
20
-116.583
11
159.918
21
-116.868
0
LINE
8
BLACK
6
CONTINUOUS
10
159.918
20
-116.868
11
159.775
21
-117.011
0
LINE
8
BLACK
6
CONTINUOUS
10
159.775
20
-117.011
11
159.49
21
-117.154
0
LINE
8
BLACK
6
CONTINUOUS
10
159.49
20
-117.154
11
159.204
21
-117.154
0
LINE
8
BLACK
6
CONTINUOUS
10
159.204
20
-117.154
11
158.918
21
-117.011
0
LINE
8
BLACK
6
CONTINUOUS
10
158.918
20
-117.011
11
158.775
21
-116.868
0
LINE
8
BLACK
6
CONTINUOUS
10
158.775
20
-116.868
11
158.632
21
-116.583
0
LINE
8
BLACK
6
CONTINUOUS
10
158.632
20
-116.583
11
158.49
21
-116.011
0
LINE
8
BLACK
6
CONTINUOUS
10
158.49
20
-116.011
11
158.49
21
-115.297
0
LINE
8
BLACK
6
CONTINUOUS
10
158.49
20
-115.297
11
158.632
21
-114.726
0
LINE
8
BLACK
6
CONTINUOUS
10
158.632
20
-114.726
11
158.775
21
-114.44
0
LINE
8
BLACK
6
CONTINUOUS
10
158.775
20
-114.44
11
158.918
21
-114.297
0
LINE
8
BLACK
6
CONTINUOUS
10
158.918
20
-114.297
11
159.204
21
-114.154
0
LINE
8
BLACK
6
CONTINUOUS
10
162.061
20
-114.154
11
162.347
21
-114.154
0
LINE
8
BLACK
6
CONTINUOUS
10
162.347
20
-114.154
11
162.632
21
-114.297
0
LINE
8
BLACK
6
CONTINUOUS
10
162.632
20
-114.297
11
162.775
21
-114.44
0
LINE
8
BLACK
6
CONTINUOUS
10
162.775
20
-114.44
11
162.918
21
-114.726
0
LINE
8
BLACK
6
CONTINUOUS
10
162.918
20
-114.726
11
163.061
21
-115.297
0
LINE
8
BLACK
6
CONTINUOUS
10
163.061
20
-115.297
11
163.061
21
-116.011
0
LINE
8
BLACK
6
CONTINUOUS
10
163.061
20
-116.011
11
162.918
21
-116.583
0
LINE
8
BLACK
6
CONTINUOUS
10
162.918
20
-116.583
11
162.775
21
-116.868
0
LINE
8
BLACK
6
CONTINUOUS
10
162.775
20
-116.868
11
162.632
21
-117.011
0
LINE
8
BLACK
6
CONTINUOUS
10
162.632
20
-117.011
11
162.347
21
-117.154
0
LINE
8
BLACK
6
CONTINUOUS
10
162.347
20
-117.154
11
162.061
21
-117.154
0
LINE
8
BLACK
6
CONTINUOUS
10
162.061
20
-117.154
11
161.775
21
-117.011
0
LINE
8
BLACK
6
CONTINUOUS
10
161.775
20
-117.011
11
161.632
21
-116.868
0
LINE
8
BLACK
6
CONTINUOUS
10
161.632
20
-116.868
11
161.49
21
-116.583
0
LINE
8
BLACK
6
CONTINUOUS
10
161.49
20
-116.583
11
161.347
21
-116.011
0
LINE
8
BLACK
6
CONTINUOUS
10
161.347
20
-116.011
11
161.347
21
-115.297
0
LINE
8
BLACK
6
CONTINUOUS
10
161.347
20
-115.297
11
161.49
21
-114.726
0
LINE
8
BLACK
6
CONTINUOUS
10
161.49
20
-114.726
11
161.632
21
-114.44
0
LINE
8
BLACK
6
CONTINUOUS
10
161.632
20
-114.44
11
161.775
21
-114.297
0
LINE
8
BLACK
6
CONTINUOUS
10
161.775
20
-114.297
11
162.061
21
-114.154
0
LINE
8
BLACK
6
CONTINUOUS
10
164.49
20
-117.154
11
165.061
21
-117.154
0
LINE
8
BLACK
6
CONTINUOUS
10
165.061
20
-117.154
11
165.347
21
-117.011
0
LINE
8
BLACK
6
CONTINUOUS
10
165.347
20
-117.011
11
165.49
21
-116.868
0
LINE
8
BLACK
6
CONTINUOUS
10
165.49
20
-116.868
11
165.775
21
-116.44
0
LINE
8
BLACK
6
CONTINUOUS
10
165.775
20
-116.44
11
165.918
21
-115.868
0
LINE
8
BLACK
6
CONTINUOUS
10
165.918
20
-115.868
11
165.918
21
-114.726
0
LINE
8
BLACK
6
CONTINUOUS
10
165.918
20
-114.726
11
165.775
21
-114.44
0
LINE
8
BLACK
6
CONTINUOUS
10
165.775
20
-114.44
11
165.632
21
-114.297
0
LINE
8
BLACK
6
CONTINUOUS
10
165.632
20
-114.297
11
165.347
21
-114.154
0
LINE
8
BLACK
6
CONTINUOUS
10
165.347
20
-114.154
11
164.775
21
-114.154
0
LINE
8
BLACK
6
CONTINUOUS
10
164.775
20
-114.154
11
164.49
21
-114.297
0
LINE
8
BLACK
6
CONTINUOUS
10
164.49
20
-114.297
11
164.347
21
-114.44
0
LINE
8
BLACK
6
CONTINUOUS
10
164.347
20
-114.44
11
164.204
21
-114.726
0
LINE
8
BLACK
6
CONTINUOUS
10
164.204
20
-114.726
11
164.204
21
-115.44
0
LINE
8
BLACK
6
CONTINUOUS
10
164.204
20
-115.44
11
164.347
21
-115.726
0
LINE
8
BLACK
6
CONTINUOUS
10
164.347
20
-115.726
11
164.49
21
-115.868
0
LINE
8
BLACK
6
CONTINUOUS
10
164.49
20
-115.868
11
164.775
21
-116.011
0
LINE
8
BLACK
6
CONTINUOUS
10
164.775
20
-116.011
11
165.347
21
-116.011
0
LINE
8
BLACK
6
CONTINUOUS
10
165.347
20
-116.011
11
165.632
21
-115.868
0
LINE
8
BLACK
6
CONTINUOUS
10
165.632
20
-115.868
11
165.775
21
-115.726
0
LINE
8
BLACK
6
CONTINUOUS
10
165.775
20
-115.726
11
165.918
21
-115.44
0
LINE
8
BLACK
6
CONTINUOUS
10
167.632
20
-115.44
11
167.347
21
-115.297
0
LINE
8
BLACK
6
CONTINUOUS
10
167.347
20
-115.297
11
167.204
21
-115.154
0
LINE
8
BLACK
6
CONTINUOUS
10
167.204
20
-115.154
11
167.061
21
-114.868
0
LINE
8
BLACK
6
CONTINUOUS
10
167.061
20
-114.868
11
167.061
21
-114.726
0
LINE
8
BLACK
6
CONTINUOUS
10
167.061
20
-114.726
11
167.204
21
-114.44
0
LINE
8
BLACK
6
CONTINUOUS
10
167.204
20
-114.44
11
167.347
21
-114.297
0
LINE
8
BLACK
6
CONTINUOUS
10
167.347
20
-114.297
11
167.632
21
-114.154
0
LINE
8
BLACK
6
CONTINUOUS
10
167.632
20
-114.154
11
168.204
21
-114.154
0
LINE
8
BLACK
6
CONTINUOUS
10
168.204
20
-114.154
11
168.49
21
-114.297
0
LINE
8
BLACK
6
CONTINUOUS
10
168.49
20
-114.297
11
168.632
21
-114.44
0
LINE
8
BLACK
6
CONTINUOUS
10
168.632
20
-114.44
11
168.775
21
-114.726
0
LINE
8
BLACK
6
CONTINUOUS
10
168.775
20
-114.726
11
168.775
21
-114.868
0
LINE
8
BLACK
6
CONTINUOUS
10
168.775
20
-114.868
11
168.632
21
-115.154
0
LINE
8
BLACK
6
CONTINUOUS
10
168.632
20
-115.154
11
168.49
21
-115.297
0
LINE
8
BLACK
6
CONTINUOUS
10
168.49
20
-115.297
11
168.204
21
-115.44
0
LINE
8
BLACK
6
CONTINUOUS
10
168.204
20
-115.44
11
167.632
21
-115.44
0
LINE
8
BLACK
6
CONTINUOUS
10
167.632
20
-115.44
11
167.347
21
-115.583
0
LINE
8
BLACK
6
CONTINUOUS
10
167.347
20
-115.583
11
167.204
21
-115.726
0
LINE
8
BLACK
6
CONTINUOUS
10
167.204
20
-115.726
11
167.061
21
-116.011
0
LINE
8
BLACK
6
CONTINUOUS
10
167.061
20
-116.011
11
167.061
21
-116.583
0
LINE
8
BLACK
6
CONTINUOUS
10
167.061
20
-116.583
11
167.204
21
-116.868
0
LINE
8
BLACK
6
CONTINUOUS
10
167.204
20
-116.868
11
167.347
21
-117.011
0
LINE
8
BLACK
6
CONTINUOUS
10
167.347
20
-117.011
11
167.632
21
-117.154
0
LINE
8
BLACK
6
CONTINUOUS
10
167.632
20
-117.154
11
168.204
21
-117.154
0
LINE
8
BLACK
6
CONTINUOUS
10
168.204
20
-117.154
11
168.49
21
-117.011
0
LINE
8
BLACK
6
CONTINUOUS
10
168.49
20
-117.011
11
168.632
21
-116.868
0
LINE
8
BLACK
6
CONTINUOUS
10
168.632
20
-116.868
11
168.775
21
-116.583
0
LINE
8
BLACK
6
CONTINUOUS
10
168.775
20
-116.583
11
168.775
21
-116.011
0
LINE
8
BLACK
6
CONTINUOUS
10
168.775
20
-116.011
11
168.632
21
-115.726
0
LINE
8
BLACK
6
CONTINUOUS
10
168.632
20
-115.726
11
168.49
21
-115.583
0
LINE
8
BLACK
6
CONTINUOUS
10
168.49
20
-115.583
11
168.204
21
-115.44
0
LINE
8
BLACK
6
CONTINUOUS
10
169.918
20
-114.154
11
169.918
21
-114.726
0
LINE
8
BLACK
6
CONTINUOUS
10
171.061
20
-114.154
11
171.061
21
-114.726
0
LINE
8
BLACK
6
CONTINUOUS
10
175.49
20
-118.297
11
175.347
21
-118.154
0
LINE
8
BLACK
6
CONTINUOUS
10
175.347
20
-118.154
11
175.061
21
-117.726
0
LINE
8
BLACK
6
CONTINUOUS
10
175.061
20
-117.726
11
174.918
21
-117.44
0
LINE
8
BLACK
6
CONTINUOUS
10
174.918
20
-117.44
11
174.775
21
-117.011
0
LINE
8
BLACK
6
CONTINUOUS
10
174.775
20
-117.011
11
174.632
21
-116.297
0
LINE
8
BLACK
6
CONTINUOUS
10
174.632
20
-116.297
11
174.632
21
-115.726
0
LINE
8
BLACK
6
CONTINUOUS
10
174.632
20
-115.726
11
174.775
21
-115.011
0
LINE
8
BLACK
6
CONTINUOUS
10
174.775
20
-115.011
11
174.918
21
-114.583
0
LINE
8
BLACK
6
CONTINUOUS
10
174.918
20
-114.583
11
175.061
21
-114.297
0
LINE
8
BLACK
6
CONTINUOUS
10
175.061
20
-114.297
11
175.347
21
-113.868
0
LINE
8
BLACK
6
CONTINUOUS
10
175.347
20
-113.868
11
175.49
21
-113.726
0
LINE
8
BLACK
6
CONTINUOUS
10
176.49
20
-114.44
11
176.632
21
-114.297
0
LINE
8
BLACK
6
CONTINUOUS
10
176.632
20
-114.297
11
176.918
21
-114.154
0
LINE
8
BLACK
6
CONTINUOUS
10
176.918
20
-114.154
11
177.632
21
-114.154
0
LINE
8
BLACK
6
CONTINUOUS
10
177.632
20
-114.154
11
177.918
21
-114.297
0
LINE
8
BLACK
6
CONTINUOUS
10
177.918
20
-114.297
11
178.061
21
-114.44
0
LINE
8
BLACK
6
CONTINUOUS
10
178.061
20
-114.44
11
178.204
21
-114.726
0
LINE
8
BLACK
6
CONTINUOUS
10
178.204
20
-114.726
11
178.204
21
-115.011
0
LINE
8
BLACK
6
CONTINUOUS
10
178.204
20
-115.011
11
178.061
21
-115.44
0
LINE
8
BLACK
6
CONTINUOUS
10
178.061
20
-115.44
11
176.347
21
-117.154
0
LINE
8
BLACK
6
CONTINUOUS
10
176.347
20
-117.154
11
178.204
21
-117.154
0
LINE
8
BLACK
6
CONTINUOUS
10
180.775
20
-115.154
11
180.775
21
-117.154
0
LINE
8
BLACK
6
CONTINUOUS
10
180.061
20
-114.011
11
179.347
21
-116.154
0
LINE
8
BLACK
6
CONTINUOUS
10
179.347
20
-116.154
11
181.204
21
-116.154
0
LINE
8
BLACK
6
CONTINUOUS
10
184.632
20
-117.154
11
184.632
21
-114.154
0
LINE
8
BLACK
6
CONTINUOUS
10
185.918
20
-117.154
11
185.918
21
-115.583
0
LINE
8
BLACK
6
CONTINUOUS
10
185.918
20
-115.583
11
185.775
21
-115.297
0
LINE
8
BLACK
6
CONTINUOUS
10
185.775
20
-115.297
11
185.49
21
-115.154
0
LINE
8
BLACK
6
CONTINUOUS
10
185.49
20
-115.154
11
185.061
21
-115.154
0
LINE
8
BLACK
6
CONTINUOUS
10
185.061
20
-115.154
11
184.775
21
-115.297
0
LINE
8
BLACK
6
CONTINUOUS
10
184.775
20
-115.297
11
184.632
21
-115.44
0
LINE
8
BLACK
6
CONTINUOUS
10
187.775
20
-117.154
11
187.49
21
-117.011
0
LINE
8
BLACK
6
CONTINUOUS
10
187.49
20
-117.011
11
187.347
21
-116.868
0
LINE
8
BLACK
6
CONTINUOUS
10
187.347
20
-116.868
11
187.204
21
-116.583
0
LINE
8
BLACK
6
CONTINUOUS
10
187.204
20
-116.583
11
187.204
21
-115.726
0
LINE
8
BLACK
6
CONTINUOUS
10
187.204
20
-115.726
11
187.347
21
-115.44
0
LINE
8
BLACK
6
CONTINUOUS
10
187.347
20
-115.44
11
187.49
21
-115.297
0
LINE
8
BLACK
6
CONTINUOUS
10
187.49
20
-115.297
11
187.775
21
-115.154
0
LINE
8
BLACK
6
CONTINUOUS
10
187.775
20
-115.154
11
188.204
21
-115.154
0
LINE
8
BLACK
6
CONTINUOUS
10
188.204
20
-115.154
11
188.49
21
-115.297
0
LINE
8
BLACK
6
CONTINUOUS
10
188.49
20
-115.297
11
188.632
21
-115.44
0
LINE
8
BLACK
6
CONTINUOUS
10
188.632
20
-115.44
11
188.775
21
-115.726
0
LINE
8
BLACK
6
CONTINUOUS
10
188.775
20
-115.726
11
188.775
21
-116.583
0
LINE
8
BLACK
6
CONTINUOUS
10
188.775
20
-116.583
11
188.632
21
-116.868
0
LINE
8
BLACK
6
CONTINUOUS
10
188.632
20
-116.868
11
188.49
21
-117.011
0
LINE
8
BLACK
6
CONTINUOUS
10
188.49
20
-117.011
11
188.204
21
-117.154
0
LINE
8
BLACK
6
CONTINUOUS
10
188.204
20
-117.154
11
187.775
21
-117.154
0
LINE
8
BLACK
6
CONTINUOUS
10
190.49
20
-117.154
11
190.204
21
-117.011
0
LINE
8
BLACK
6
CONTINUOUS
10
190.204
20
-117.011
11
190.061
21
-116.726
0
LINE
8
BLACK
6
CONTINUOUS
10
190.061
20
-116.726
11
190.061
21
-114.154
0
LINE
8
BLACK
6
CONTINUOUS
10
192.775
20
-117.011
11
192.49
21
-117.154
0
LINE
8
BLACK
6
CONTINUOUS
10
192.49
20
-117.154
11
191.918
21
-117.154
0
LINE
8
BLACK
6
CONTINUOUS
10
191.918
20
-117.154
11
191.632
21
-117.011
0
LINE
8
BLACK
6
CONTINUOUS
10
191.632
20
-117.011
11
191.49
21
-116.726
0
LINE
8
BLACK
6
CONTINUOUS
10
191.49
20
-116.726
11
191.49
21
-115.583
0
LINE
8
BLACK
6
CONTINUOUS
10
191.49
20
-115.583
11
191.632
21
-115.297
0
LINE
8
BLACK
6
CONTINUOUS
10
191.632
20
-115.297
11
191.918
21
-115.154
0
LINE
8
BLACK
6
CONTINUOUS
10
191.918
20
-115.154
11
192.49
21
-115.154
0
LINE
8
BLACK
6
CONTINUOUS
10
192.49
20
-115.154
11
192.775
21
-115.297
0
LINE
8
BLACK
6
CONTINUOUS
10
192.775
20
-115.297
11
192.918
21
-115.583
0
LINE
8
BLACK
6
CONTINUOUS
10
192.918
20
-115.583
11
192.918
21
-115.868
0
LINE
8
BLACK
6
CONTINUOUS
10
192.918
20
-115.868
11
191.49
21
-116.154
0
LINE
8
BLACK
6
CONTINUOUS
10
194.061
20
-117.011
11
194.347
21
-117.154
0
LINE
8
BLACK
6
CONTINUOUS
10
194.347
20
-117.154
11
194.918
21
-117.154
0
LINE
8
BLACK
6
CONTINUOUS
10
194.918
20
-117.154
11
195.204
21
-117.011
0
LINE
8
BLACK
6
CONTINUOUS
10
195.204
20
-117.011
11
195.347
21
-116.726
0
LINE
8
BLACK
6
CONTINUOUS
10
195.347
20
-116.726
11
195.347
21
-116.583
0
LINE
8
BLACK
6
CONTINUOUS
10
195.347
20
-116.583
11
195.204
21
-116.297
0
LINE
8
BLACK
6
CONTINUOUS
10
195.204
20
-116.297
11
194.918
21
-116.154
0
LINE
8
BLACK
6
CONTINUOUS
10
194.918
20
-116.154
11
194.49
21
-116.154
0
LINE
8
BLACK
6
CONTINUOUS
10
194.49
20
-116.154
11
194.204
21
-116.011
0
LINE
8
BLACK
6
CONTINUOUS
10
194.204
20
-116.011
11
194.061
21
-115.726
0
LINE
8
BLACK
6
CONTINUOUS
10
194.061
20
-115.726
11
194.061
21
-115.583
0
LINE
8
BLACK
6
CONTINUOUS
10
194.061
20
-115.583
11
194.204
21
-115.297
0
LINE
8
BLACK
6
CONTINUOUS
10
194.204
20
-115.297
11
194.49
21
-115.154
0
LINE
8
BLACK
6
CONTINUOUS
10
194.49
20
-115.154
11
194.918
21
-115.154
0
LINE
8
BLACK
6
CONTINUOUS
10
194.918
20
-115.154
11
195.204
21
-115.297
0
LINE
8
BLACK
6
CONTINUOUS
10
196.347
20
-118.297
11
196.49
21
-118.154
0
LINE
8
BLACK
6
CONTINUOUS
10
196.49
20
-118.154
11
196.775
21
-117.726
0
LINE
8
BLACK
6
CONTINUOUS
10
196.775
20
-117.726
11
196.918
21
-117.44
0
LINE
8
BLACK
6
CONTINUOUS
10
196.918
20
-117.44
11
197.061
21
-117.011
0
LINE
8
BLACK
6
CONTINUOUS
10
197.061
20
-117.011
11
197.204
21
-116.297
0
LINE
8
BLACK
6
CONTINUOUS
10
197.204
20
-116.297
11
197.204
21
-115.726
0
LINE
8
BLACK
6
CONTINUOUS
10
197.204
20
-115.726
11
197.061
21
-115.011
0
LINE
8
BLACK
6
CONTINUOUS
10
197.061
20
-115.011
11
196.918
21
-114.583
0
LINE
8
BLACK
6
CONTINUOUS
10
196.918
20
-114.583
11
196.775
21
-114.297
0
LINE
8
BLACK
6
CONTINUOUS
10
196.775
20
-114.297
11
196.49
21
-113.868
0
LINE
8
BLACK
6
CONTINUOUS
10
196.49
20
-113.868
11
196.347
21
-113.726
0
CIRCLE
8
BLACK
10
122.586
20
-119.757
40
0.325
0
LINE
8
BLACK
6
CONTINUOUS
10
126.347
20
-118.114
11
126.632
21
-118.114
0
LINE
8
BLACK
6
CONTINUOUS
10
126.632
20
-118.114
11
126.918
21
-118.257
0
LINE
8
BLACK
6
CONTINUOUS
10
126.918
20
-118.257
11
127.061
21
-118.4
0
LINE
8
BLACK
6
CONTINUOUS
10
127.061
20
-118.4
11
127.204
21
-118.686
0
LINE
8
BLACK
6
CONTINUOUS
10
127.204
20
-118.686
11
127.347
21
-119.257
0
LINE
8
BLACK
6
CONTINUOUS
10
127.347
20
-119.257
11
127.347
21
-119.971
0
LINE
8
BLACK
6
CONTINUOUS
10
127.347
20
-119.971
11
127.204
21
-120.543
0
LINE
8
BLACK
6
CONTINUOUS
10
127.204
20
-120.543
11
127.061
21
-120.828
0
LINE
8
BLACK
6
CONTINUOUS
10
127.061
20
-120.828
11
126.918
21
-120.971
0
LINE
8
BLACK
6
CONTINUOUS
10
126.918
20
-120.971
11
126.632
21
-121.114
0
LINE
8
BLACK
6
CONTINUOUS
10
126.632
20
-121.114
11
126.347
21
-121.114
0
LINE
8
BLACK
6
CONTINUOUS
10
126.347
20
-121.114
11
126.061
21
-120.971
0
LINE
8
BLACK
6
CONTINUOUS
10
126.061
20
-120.971
11
125.918
21
-120.828
0
LINE
8
BLACK
6
CONTINUOUS
10
125.918
20
-120.828
11
125.775
21
-120.543
0
LINE
8
BLACK
6
CONTINUOUS
10
125.775
20
-120.543
11
125.632
21
-119.971
0
LINE
8
BLACK
6
CONTINUOUS
10
125.632
20
-119.971
11
125.632
21
-119.257
0
LINE
8
BLACK
6
CONTINUOUS
10
125.632
20
-119.257
11
125.775
21
-118.686
0
LINE
8
BLACK
6
CONTINUOUS
10
125.775
20
-118.686
11
125.918
21
-118.4
0
LINE
8
BLACK
6
CONTINUOUS
10
125.918
20
-118.4
11
126.061
21
-118.257
0
LINE
8
BLACK
6
CONTINUOUS
10
126.061
20
-118.257
11
126.347
21
-118.114
0
LINE
8
BLACK
6
CONTINUOUS
10
128.632
20
-120.828
11
128.775
21
-120.971
0
LINE
8
BLACK
6
CONTINUOUS
10
128.775
20
-120.971
11
128.632
21
-121.114
0
LINE
8
BLACK
6
CONTINUOUS
10
128.632
20
-121.114
11
128.49
21
-120.971
0
LINE
8
BLACK
6
CONTINUOUS
10
128.49
20
-120.971
11
128.632
21
-120.828
0
LINE
8
BLACK
6
CONTINUOUS
10
128.632
20
-120.828
11
128.632
21
-121.114
0
LINE
8
BLACK
6
CONTINUOUS
10
131.347
20
-118.114
11
130.775
21
-118.114
0
LINE
8
BLACK
6
CONTINUOUS
10
130.775
20
-118.114
11
130.49
21
-118.257
0
LINE
8
BLACK
6
CONTINUOUS
10
130.49
20
-118.257
11
130.347
21
-118.4
0
LINE
8
BLACK
6
CONTINUOUS
10
130.347
20
-118.4
11
130.061
21
-118.828
0
LINE
8
BLACK
6
CONTINUOUS
10
130.061
20
-118.828
11
129.918
21
-119.4
0
LINE
8
BLACK
6
CONTINUOUS
10
129.918
20
-119.4
11
129.918
21
-120.543
0
LINE
8
BLACK
6
CONTINUOUS
10
129.918
20
-120.543
11
130.061
21
-120.828
0
LINE
8
BLACK
6
CONTINUOUS
10
130.061
20
-120.828
11
130.204
21
-120.971
0
LINE
8
BLACK
6
CONTINUOUS
10
130.204
20
-120.971
11
130.49
21
-121.114
0
LINE
8
BLACK
6
CONTINUOUS
10
130.49
20
-121.114
11
131.061
21
-121.114
0
LINE
8
BLACK
6
CONTINUOUS
10
131.061
20
-121.114
11
131.347
21
-120.971
0
LINE
8
BLACK
6
CONTINUOUS
10
131.347
20
-120.971
11
131.49
21
-120.828
0
LINE
8
BLACK
6
CONTINUOUS
10
131.49
20
-120.828
11
131.632
21
-120.543
0
LINE
8
BLACK
6
CONTINUOUS
10
131.632
20
-120.543
11
131.632
21
-119.828
0
LINE
8
BLACK
6
CONTINUOUS
10
131.632
20
-119.828
11
131.49
21
-119.543
0
LINE
8
BLACK
6
CONTINUOUS
10
131.49
20
-119.543
11
131.347
21
-119.4
0
LINE
8
BLACK
6
CONTINUOUS
10
131.347
20
-119.4
11
131.061
21
-119.257
0
LINE
8
BLACK
6
CONTINUOUS
10
131.061
20
-119.257
11
130.49
21
-119.257
0
LINE
8
BLACK
6
CONTINUOUS
10
130.49
20
-119.257
11
130.204
21
-119.4
0
LINE
8
BLACK
6
CONTINUOUS
10
130.204
20
-119.4
11
130.061
21
-119.543
0
LINE
8
BLACK
6
CONTINUOUS
10
130.061
20
-119.543
11
129.918
21
-119.828
0
LINE
8
BLACK
6
CONTINUOUS
10
134.347
20
-118.114
11
132.918
21
-118.114
0
LINE
8
BLACK
6
CONTINUOUS
10
132.918
20
-118.114
11
132.775
21
-119.543
0
LINE
8
BLACK
6
CONTINUOUS
10
132.775
20
-119.543
11
132.918
21
-119.4
0
LINE
8
BLACK
6
CONTINUOUS
10
132.918
20
-119.4
11
133.204
21
-119.257
0
LINE
8
BLACK
6
CONTINUOUS
10
133.204
20
-119.257
11
133.918
21
-119.257
0
LINE
8
BLACK
6
CONTINUOUS
10
133.918
20
-119.257
11
134.204
21
-119.4
0
LINE
8
BLACK
6
CONTINUOUS
10
134.204
20
-119.4
11
134.347
21
-119.543
0
LINE
8
BLACK
6
CONTINUOUS
10
134.347
20
-119.543
11
134.49
21
-119.828
0
LINE
8
BLACK
6
CONTINUOUS
10
134.49
20
-119.828
11
134.49
21
-120.543
0
LINE
8
BLACK
6
CONTINUOUS
10
134.49
20
-120.543
11
134.347
21
-120.828
0
LINE
8
BLACK
6
CONTINUOUS
10
134.347
20
-120.828
11
134.204
21
-120.971
0
LINE
8
BLACK
6
CONTINUOUS
10
134.204
20
-120.971
11
133.918
21
-121.114
0
LINE
8
BLACK
6
CONTINUOUS
10
133.918
20
-121.114
11
133.204
21
-121.114
0
LINE
8
BLACK
6
CONTINUOUS
10
133.204
20
-121.114
11
132.918
21
-120.971
0
LINE
8
BLACK
6
CONTINUOUS
10
132.918
20
-120.971
11
132.775
21
-120.828
0
LINE
8
BLACK
6
CONTINUOUS
10
136.347
20
-118.114
11
136.632
21
-118.114
0
LINE
8
BLACK
6
CONTINUOUS
10
136.632
20
-118.114
11
136.918
21
-118.257
0
LINE
8
BLACK
6
CONTINUOUS
10
136.918
20
-118.257
11
137.061
21
-118.4
0
LINE
8
BLACK
6
CONTINUOUS
10
137.061
20
-118.4
11
137.204
21
-118.686
0
LINE
8
BLACK
6
CONTINUOUS
10
137.204
20
-118.686
11
137.347
21
-119.257
0
LINE
8
BLACK
6
CONTINUOUS
10
137.347
20
-119.257
11
137.347
21
-119.971
0
LINE
8
BLACK
6
CONTINUOUS
10
137.347
20
-119.971
11
137.204
21
-120.543
0
LINE
8
BLACK
6
CONTINUOUS
10
137.204
20
-120.543
11
137.061
21
-120.828
0
LINE
8
BLACK
6
CONTINUOUS
10
137.061
20
-120.828
11
136.918
21
-120.971
0
LINE
8
BLACK
6
CONTINUOUS
10
136.918
20
-120.971
11
136.632
21
-121.114
0
LINE
8
BLACK
6
CONTINUOUS
10
136.632
20
-121.114
11
136.347
21
-121.114
0
LINE
8
BLACK
6
CONTINUOUS
10
136.347
20
-121.114
11
136.061
21
-120.971
0
LINE
8
BLACK
6
CONTINUOUS
10
136.061
20
-120.971
11
135.918
21
-120.828
0
LINE
8
BLACK
6
CONTINUOUS
10
135.918
20
-120.828
11
135.775
21
-120.543
0
LINE
8
BLACK
6
CONTINUOUS
10
135.775
20
-120.543
11
135.632
21
-119.971
0
LINE
8
BLACK
6
CONTINUOUS
10
135.632
20
-119.971
11
135.632
21
-119.257
0
LINE
8
BLACK
6
CONTINUOUS
10
135.632
20
-119.257
11
135.775
21
-118.686
0
LINE
8
BLACK
6
CONTINUOUS
10
135.775
20
-118.686
11
135.918
21
-118.4
0
LINE
8
BLACK
6
CONTINUOUS
10
135.918
20
-118.4
11
136.061
21
-118.257
0
LINE
8
BLACK
6
CONTINUOUS
10
136.061
20
-118.257
11
136.347
21
-118.114
0
LINE
8
BLACK
6
CONTINUOUS
10
138.632
20
-121.114
11
138.632
21
-119.114
0
LINE
8
BLACK
6
CONTINUOUS
10
138.632
20
-119.4
11
138.775
21
-119.257
0
LINE
8
BLACK
6
CONTINUOUS
10
138.775
20
-119.257
11
139.061
21
-119.114
0
LINE
8
BLACK
6
CONTINUOUS
10
139.061
20
-119.114
11
139.49
21
-119.114
0
LINE
8
BLACK
6
CONTINUOUS
10
139.49
20
-119.114
11
139.775
21
-119.257
0
LINE
8
BLACK
6
CONTINUOUS
10
139.775
20
-119.257
11
139.918
21
-119.543
0
LINE
8
BLACK
6
CONTINUOUS
10
139.918
20
-119.543
11
139.918
21
-121.114
0
LINE
8
BLACK
6
CONTINUOUS
10
139.918
20
-119.543
11
140.061
21
-119.257
0
LINE
8
BLACK
6
CONTINUOUS
10
140.061
20
-119.257
11
140.347
21
-119.114
0
LINE
8
BLACK
6
CONTINUOUS
10
140.347
20
-119.114
11
140.775
21
-119.114
0
LINE
8
BLACK
6
CONTINUOUS
10
140.775
20
-119.114
11
141.061
21
-119.257
0
LINE
8
BLACK
6
CONTINUOUS
10
141.061
20
-119.257
11
141.204
21
-119.543
0
LINE
8
BLACK
6
CONTINUOUS
10
141.204
20
-119.543
11
141.204
21
-121.114
0
LINE
8
BLACK
6
CONTINUOUS
10
142.632
20
-121.114
11
142.632
21
-119.114
0
LINE
8
BLACK
6
CONTINUOUS
10
142.632
20
-119.4
11
142.775
21
-119.257
0
LINE
8
BLACK
6
CONTINUOUS
10
142.775
20
-119.257
11
143.061
21
-119.114
0
LINE
8
BLACK
6
CONTINUOUS
10
143.061
20
-119.114
11
143.49
21
-119.114
0
LINE
8
BLACK
6
CONTINUOUS
10
143.49
20
-119.114
11
143.775
21
-119.257
0
LINE
8
BLACK
6
CONTINUOUS
10
143.775
20
-119.257
11
143.918
21
-119.543
0
LINE
8
BLACK
6
CONTINUOUS
10
143.918
20
-119.543
11
143.918
21
-121.114
0
LINE
8
BLACK
6
CONTINUOUS
10
143.918
20
-119.543
11
144.061
21
-119.257
0
LINE
8
BLACK
6
CONTINUOUS
10
144.061
20
-119.257
11
144.347
21
-119.114
0
LINE
8
BLACK
6
CONTINUOUS
10
144.347
20
-119.114
11
144.775
21
-119.114
0
LINE
8
BLACK
6
CONTINUOUS
10
144.775
20
-119.114
11
145.061
21
-119.257
0
LINE
8
BLACK
6
CONTINUOUS
10
145.061
20
-119.257
11
145.204
21
-119.543
0
LINE
8
BLACK
6
CONTINUOUS
10
145.204
20
-119.543
11
145.204
21
-121.114
0
LINE
8
BLACK
6
CONTINUOUS
10
151.061
20
-117.971
11
148.49
21
-121.828
0
LINE
8
BLACK
6
CONTINUOUS
10
154.918
20
-118.114
11
155.204
21
-118.114
0
LINE
8
BLACK
6
CONTINUOUS
10
155.204
20
-118.114
11
155.49
21
-118.257
0
LINE
8
BLACK
6
CONTINUOUS
10
155.49
20
-118.257
11
155.632
21
-118.4
0
LINE
8
BLACK
6
CONTINUOUS
10
155.632
20
-118.4
11
155.775
21
-118.686
0
LINE
8
BLACK
6
CONTINUOUS
10
155.775
20
-118.686
11
155.918
21
-119.257
0
LINE
8
BLACK
6
CONTINUOUS
10
155.918
20
-119.257
11
155.918
21
-119.971
0
LINE
8
BLACK
6
CONTINUOUS
10
155.918
20
-119.971
11
155.775
21
-120.543
0
LINE
8
BLACK
6
CONTINUOUS
10
155.775
20
-120.543
11
155.632
21
-120.828
0
LINE
8
BLACK
6
CONTINUOUS
10
155.632
20
-120.828
11
155.49
21
-120.971
0
LINE
8
BLACK
6
CONTINUOUS
10
155.49
20
-120.971
11
155.204
21
-121.114
0
LINE
8
BLACK
6
CONTINUOUS
10
155.204
20
-121.114
11
154.918
21
-121.114
0
LINE
8
BLACK
6
CONTINUOUS
10
154.918
20
-121.114
11
154.632
21
-120.971
0
LINE
8
BLACK
6
CONTINUOUS
10
154.632
20
-120.971
11
154.49
21
-120.828
0
LINE
8
BLACK
6
CONTINUOUS
10
154.49
20
-120.828
11
154.347
21
-120.543
0
LINE
8
BLACK
6
CONTINUOUS
10
154.347
20
-120.543
11
154.204
21
-119.971
0
LINE
8
BLACK
6
CONTINUOUS
10
154.204
20
-119.971
11
154.204
21
-119.257
0
LINE
8
BLACK
6
CONTINUOUS
10
154.204
20
-119.257
11
154.347
21
-118.686
0
LINE
8
BLACK
6
CONTINUOUS
10
154.347
20
-118.686
11
154.49
21
-118.4
0
LINE
8
BLACK
6
CONTINUOUS
10
154.49
20
-118.4
11
154.632
21
-118.257
0
LINE
8
BLACK
6
CONTINUOUS
10
154.632
20
-118.257
11
154.918
21
-118.114
0
LINE
8
BLACK
6
CONTINUOUS
10
157.204
20
-120.828
11
157.347
21
-120.971
0
LINE
8
BLACK
6
CONTINUOUS
10
157.347
20
-120.971
11
157.204
21
-121.114
0
LINE
8
BLACK
6
CONTINUOUS
10
157.204
20
-121.114
11
157.061
21
-120.971
0
LINE
8
BLACK
6
CONTINUOUS
10
157.061
20
-120.971
11
157.204
21
-120.828
0
LINE
8
BLACK
6
CONTINUOUS
10
157.204
20
-120.828
11
157.204
21
-121.114
0
LINE
8
BLACK
6
CONTINUOUS
10
159.204
20
-118.114
11
159.49
21
-118.114
0
LINE
8
BLACK
6
CONTINUOUS
10
159.49
20
-118.114
11
159.775
21
-118.257
0
LINE
8
BLACK
6
CONTINUOUS
10
159.775
20
-118.257
11
159.918
21
-118.4
0
LINE
8
BLACK
6
CONTINUOUS
10
159.918
20
-118.4
11
160.061
21
-118.686
0
LINE
8
BLACK
6
CONTINUOUS
10
160.061
20
-118.686
11
160.204
21
-119.257
0
LINE
8
BLACK
6
CONTINUOUS
10
160.204
20
-119.257
11
160.204
21
-119.971
0
LINE
8
BLACK
6
CONTINUOUS
10
160.204
20
-119.971
11
160.061
21
-120.543
0
LINE
8
BLACK
6
CONTINUOUS
10
160.061
20
-120.543
11
159.918
21
-120.828
0
LINE
8
BLACK
6
CONTINUOUS
10
159.918
20
-120.828
11
159.775
21
-120.971
0
LINE
8
BLACK
6
CONTINUOUS
10
159.775
20
-120.971
11
159.49
21
-121.114
0
LINE
8
BLACK
6
CONTINUOUS
10
159.49
20
-121.114
11
159.204
21
-121.114
0
LINE
8
BLACK
6
CONTINUOUS
10
159.204
20
-121.114
11
158.918
21
-120.971
0
LINE
8
BLACK
6
CONTINUOUS
10
158.918
20
-120.971
11
158.775
21
-120.828
0
LINE
8
BLACK
6
CONTINUOUS
10
158.775
20
-120.828
11
158.632
21
-120.543
0
LINE
8
BLACK
6
CONTINUOUS
10
158.632
20
-120.543
11
158.49
21
-119.971
0
LINE
8
BLACK
6
CONTINUOUS
10
158.49
20
-119.971
11
158.49
21
-119.257
0
LINE
8
BLACK
6
CONTINUOUS
10
158.49
20
-119.257
11
158.632
21
-118.686
0
LINE
8
BLACK
6
CONTINUOUS
10
158.632
20
-118.686
11
158.775
21
-118.4
0
LINE
8
BLACK
6
CONTINUOUS
10
158.775
20
-118.4
11
158.918
21
-118.257
0
LINE
8
BLACK
6
CONTINUOUS
10
158.918
20
-118.257
11
159.204
21
-118.114
0
LINE
8
BLACK
6
CONTINUOUS
10
161.347
20
-118.4
11
161.49
21
-118.257
0
LINE
8
BLACK
6
CONTINUOUS
10
161.49
20
-118.257
11
161.775
21
-118.114
0
LINE
8
BLACK
6
CONTINUOUS
10
161.775
20
-118.114
11
162.49
21
-118.114
0
LINE
8
BLACK
6
CONTINUOUS
10
162.49
20
-118.114
11
162.775
21
-118.257
0
LINE
8
BLACK
6
CONTINUOUS
10
162.775
20
-118.257
11
162.918
21
-118.4
0
LINE
8
BLACK
6
CONTINUOUS
10
162.918
20
-118.4
11
163.061
21
-118.686
0
LINE
8
BLACK
6
CONTINUOUS
10
163.061
20
-118.686
11
163.061
21
-118.971
0
LINE
8
BLACK
6
CONTINUOUS
10
163.061
20
-118.971
11
162.918
21
-119.4
0
LINE
8
BLACK
6
CONTINUOUS
10
162.918
20
-119.4
11
161.204
21
-121.114
0
LINE
8
BLACK
6
CONTINUOUS
10
161.204
20
-121.114
11
163.061
21
-121.114
0
LINE
8
BLACK
6
CONTINUOUS
10
165.775
20
-118.114
11
164.347
21
-118.114
0
LINE
8
BLACK
6
CONTINUOUS
10
164.347
20
-118.114
11
164.204
21
-119.543
0
LINE
8
BLACK
6
CONTINUOUS
10
164.204
20
-119.543
11
164.347
21
-119.4
0
LINE
8
BLACK
6
CONTINUOUS
10
164.347
20
-119.4
11
164.632
21
-119.257
0
LINE
8
BLACK
6
CONTINUOUS
10
164.632
20
-119.257
11
165.347
21
-119.257
0
LINE
8
BLACK
6
CONTINUOUS
10
165.347
20
-119.257
11
165.632
21
-119.4
0
LINE
8
BLACK
6
CONTINUOUS
10
165.632
20
-119.4
11
165.775
21
-119.543
0
LINE
8
BLACK
6
CONTINUOUS
10
165.775
20
-119.543
11
165.918
21
-119.828
0
LINE
8
BLACK
6
CONTINUOUS
10
165.918
20
-119.828
11
165.918
21
-120.543
0
LINE
8
BLACK
6
CONTINUOUS
10
165.918
20
-120.543
11
165.775
21
-120.828
0
LINE
8
BLACK
6
CONTINUOUS
10
165.775
20
-120.828
11
165.632
21
-120.971
0
LINE
8
BLACK
6
CONTINUOUS
10
165.632
20
-120.971
11
165.347
21
-121.114
0
LINE
8
BLACK
6
CONTINUOUS
10
165.347
20
-121.114
11
164.632
21
-121.114
0
LINE
8
BLACK
6
CONTINUOUS
10
164.632
20
-121.114
11
164.347
21
-120.971
0
LINE
8
BLACK
6
CONTINUOUS
10
164.347
20
-120.971
11
164.204
21
-120.828
0
LINE
8
BLACK
6
CONTINUOUS
10
168.49
20
-118.114
11
167.918
21
-118.114
0
LINE
8
BLACK
6
CONTINUOUS
10
167.918
20
-118.114
11
167.632
21
-118.257
0
LINE
8
BLACK
6
CONTINUOUS
10
167.632
20
-118.257
11
167.49
21
-118.4
0
LINE
8
BLACK
6
CONTINUOUS
10
167.49
20
-118.4
11
167.204
21
-118.828
0
LINE
8
BLACK
6
CONTINUOUS
10
167.204
20
-118.828
11
167.061
21
-119.4
0
LINE
8
BLACK
6
CONTINUOUS
10
167.061
20
-119.4
11
167.061
21
-120.543
0
LINE
8
BLACK
6
CONTINUOUS
10
167.061
20
-120.543
11
167.204
21
-120.828
0
LINE
8
BLACK
6
CONTINUOUS
10
167.204
20
-120.828
11
167.347
21
-120.971
0
LINE
8
BLACK
6
CONTINUOUS
10
167.347
20
-120.971
11
167.632
21
-121.114
0
LINE
8
BLACK
6
CONTINUOUS
10
167.632
20
-121.114
11
168.204
21
-121.114
0
LINE
8
BLACK
6
CONTINUOUS
10
168.204
20
-121.114
11
168.49
21
-120.971
0
LINE
8
BLACK
6
CONTINUOUS
10
168.49
20
-120.971
11
168.632
21
-120.828
0
LINE
8
BLACK
6
CONTINUOUS
10
168.632
20
-120.828
11
168.775
21
-120.543
0
LINE
8
BLACK
6
CONTINUOUS
10
168.775
20
-120.543
11
168.775
21
-119.828
0
LINE
8
BLACK
6
CONTINUOUS
10
168.775
20
-119.828
11
168.632
21
-119.543
0
LINE
8
BLACK
6
CONTINUOUS
10
168.632
20
-119.543
11
168.49
21
-119.4
0
LINE
8
BLACK
6
CONTINUOUS
10
168.49
20
-119.4
11
168.204
21
-119.257
0
LINE
8
BLACK
6
CONTINUOUS
10
168.204
20
-119.257
11
167.632
21
-119.257
0
LINE
8
BLACK
6
CONTINUOUS
10
167.632
20
-119.257
11
167.347
21
-119.4
0
LINE
8
BLACK
6
CONTINUOUS
10
167.347
20
-119.4
11
167.204
21
-119.543
0
LINE
8
BLACK
6
CONTINUOUS
10
167.204
20
-119.543
11
167.061
21
-119.828
0
LINE
8
BLACK
6
CONTINUOUS
10
169.918
20
-118.114
11
169.918
21
-118.686
0
LINE
8
BLACK
6
CONTINUOUS
10
171.061
20
-118.114
11
171.061
21
-118.686
0
LINE
8
BLACK
6
CONTINUOUS
10
175.49
20
-122.257
11
175.347
21
-122.114
0
LINE
8
BLACK
6
CONTINUOUS
10
175.347
20
-122.114
11
175.061
21
-121.686
0
LINE
8
BLACK
6
CONTINUOUS
10
175.061
20
-121.686
11
174.918
21
-121.4
0
LINE
8
BLACK
6
CONTINUOUS
10
174.918
20
-121.4
11
174.775
21
-120.971
0
LINE
8
BLACK
6
CONTINUOUS
10
174.775
20
-120.971
11
174.632
21
-120.257
0
LINE
8
BLACK
6
CONTINUOUS
10
174.632
20
-120.257
11
174.632
21
-119.686
0
LINE
8
BLACK
6
CONTINUOUS
10
174.632
20
-119.686
11
174.775
21
-118.971
0
LINE
8
BLACK
6
CONTINUOUS
10
174.775
20
-118.971
11
174.918
21
-118.543
0
LINE
8
BLACK
6
CONTINUOUS
10
174.918
20
-118.543
11
175.061
21
-118.257
0
LINE
8
BLACK
6
CONTINUOUS
10
175.061
20
-118.257
11
175.347
21
-117.828
0
LINE
8
BLACK
6
CONTINUOUS
10
175.347
20
-117.828
11
175.49
21
-117.686
0
LINE
8
BLACK
6
CONTINUOUS
10
178.204
20
-121.114
11
176.49
21
-121.114
0
LINE
8
BLACK
6
CONTINUOUS
10
177.347
20
-121.114
11
177.347
21
-118.114
0
LINE
8
BLACK
6
CONTINUOUS
10
177.347
20
-118.114
11
177.061
21
-118.543
0
LINE
8
BLACK
6
CONTINUOUS
10
177.061
20
-118.543
11
176.775
21
-118.828
0
LINE
8
BLACK
6
CONTINUOUS
10
176.775
20
-118.828
11
176.49
21
-118.971
0
LINE
8
BLACK
6
CONTINUOUS
10
181.061
20
-121.114
11
179.347
21
-121.114
0
LINE
8
BLACK
6
CONTINUOUS
10
180.204
20
-121.114
11
180.204
21
-118.114
0
LINE
8
BLACK
6
CONTINUOUS
10
180.204
20
-118.114
11
179.918
21
-118.543
0
LINE
8
BLACK
6
CONTINUOUS
10
179.918
20
-118.543
11
179.632
21
-118.828
0
LINE
8
BLACK
6
CONTINUOUS
10
179.632
20
-118.828
11
179.347
21
-118.971
0
LINE
8
BLACK
6
CONTINUOUS
10
182.204
20
-118.4
11
182.347
21
-118.257
0
LINE
8
BLACK
6
CONTINUOUS
10
182.347
20
-118.257
11
182.632
21
-118.114
0
LINE
8
BLACK
6
CONTINUOUS
10
182.632
20
-118.114
11
183.347
21
-118.114
0
LINE
8
BLACK
6
CONTINUOUS
10
183.347
20
-118.114
11
183.632
21
-118.257
0
LINE
8
BLACK
6
CONTINUOUS
10
183.632
20
-118.257
11
183.775
21
-118.4
0
LINE
8
BLACK
6
CONTINUOUS
10
183.775
20
-118.4
11
183.918
21
-118.686
0
LINE
8
BLACK
6
CONTINUOUS
10
183.918
20
-118.686
11
183.918
21
-118.971
0
LINE
8
BLACK
6
CONTINUOUS
10
183.918
20
-118.971
11
183.775
21
-119.4
0
LINE
8
BLACK
6
CONTINUOUS
10
183.775
20
-119.4
11
182.061
21
-121.114
0
LINE
8
BLACK
6
CONTINUOUS
10
182.061
20
-121.114
11
183.918
21
-121.114
0
LINE
8
BLACK
6
CONTINUOUS
10
187.49
20
-121.114
11
187.49
21
-118.114
0
LINE
8
BLACK
6
CONTINUOUS
10
188.775
20
-121.114
11
188.775
21
-119.543
0
LINE
8
BLACK
6
CONTINUOUS
10
188.775
20
-119.543
11
188.632
21
-119.257
0
LINE
8
BLACK
6
CONTINUOUS
10
188.632
20
-119.257
11
188.347
21
-119.114
0
LINE
8
BLACK
6
CONTINUOUS
10
188.347
20
-119.114
11
187.918
21
-119.114
0
LINE
8
BLACK
6
CONTINUOUS
10
187.918
20
-119.114
11
187.632
21
-119.257
0
LINE
8
BLACK
6
CONTINUOUS
10
187.632
20
-119.257
11
187.49
21
-119.4
0
LINE
8
BLACK
6
CONTINUOUS
10
190.632
20
-121.114
11
190.347
21
-120.971
0
LINE
8
BLACK
6
CONTINUOUS
10
190.347
20
-120.971
11
190.204
21
-120.828
0
LINE
8
BLACK
6
CONTINUOUS
10
190.204
20
-120.828
11
190.061
21
-120.543
0
LINE
8
BLACK
6
CONTINUOUS
10
190.061
20
-120.543
11
190.061
21
-119.686
0
LINE
8
BLACK
6
CONTINUOUS
10
190.061
20
-119.686
11
190.204
21
-119.4
0
LINE
8
BLACK
6
CONTINUOUS
10
190.204
20
-119.4
11
190.347
21
-119.257
0
LINE
8
BLACK
6
CONTINUOUS
10
190.347
20
-119.257
11
190.632
21
-119.114
0
LINE
8
BLACK
6
CONTINUOUS
10
190.632
20
-119.114
11
191.061
21
-119.114
0
LINE
8
BLACK
6
CONTINUOUS
10
191.061
20
-119.114
11
191.347
21
-119.257
0
LINE
8
BLACK
6
CONTINUOUS
10
191.347
20
-119.257
11
191.49
21
-119.4
0
LINE
8
BLACK
6
CONTINUOUS
10
191.49
20
-119.4
11
191.632
21
-119.686
0
LINE
8
BLACK
6
CONTINUOUS
10
191.632
20
-119.686
11
191.632
21
-120.543
0
LINE
8
BLACK
6
CONTINUOUS
10
191.632
20
-120.543
11
191.49
21
-120.828
0
LINE
8
BLACK
6
CONTINUOUS
10
191.49
20
-120.828
11
191.347
21
-120.971
0
LINE
8
BLACK
6
CONTINUOUS
10
191.347
20
-120.971
11
191.061
21
-121.114
0
LINE
8
BLACK
6
CONTINUOUS
10
191.061
20
-121.114
11
190.632
21
-121.114
0
LINE
8
BLACK
6
CONTINUOUS
10
193.347
20
-121.114
11
193.061
21
-120.971
0
LINE
8
BLACK
6
CONTINUOUS
10
193.061
20
-120.971
11
192.918
21
-120.686
0
LINE
8
BLACK
6
CONTINUOUS
10
192.918
20
-120.686
11
192.918
21
-118.114
0
LINE
8
BLACK
6
CONTINUOUS
10
195.632
20
-120.971
11
195.347
21
-121.114
0
LINE
8
BLACK
6
CONTINUOUS
10
195.347
20
-121.114
11
194.775
21
-121.114
0
LINE
8
BLACK
6
CONTINUOUS
10
194.775
20
-121.114
11
194.49
21
-120.971
0
LINE
8
BLACK
6
CONTINUOUS
10
194.49
20
-120.971
11
194.347
21
-120.686
0
LINE
8
BLACK
6
CONTINUOUS
10
194.347
20
-120.686
11
194.347
21
-119.543
0
LINE
8
BLACK
6
CONTINUOUS
10
194.347
20
-119.543
11
194.49
21
-119.257
0
LINE
8
BLACK
6
CONTINUOUS
10
194.49
20
-119.257
11
194.775
21
-119.114
0
LINE
8
BLACK
6
CONTINUOUS
10
194.775
20
-119.114
11
195.347
21
-119.114
0
LINE
8
BLACK
6
CONTINUOUS
10
195.347
20
-119.114
11
195.632
21
-119.257
0
LINE
8
BLACK
6
CONTINUOUS
10
195.632
20
-119.257
11
195.775
21
-119.543
0
LINE
8
BLACK
6
CONTINUOUS
10
195.775
20
-119.543
11
195.775
21
-119.828
0
LINE
8
BLACK
6
CONTINUOUS
10
195.775
20
-119.828
11
194.347
21
-120.114
0
LINE
8
BLACK
6
CONTINUOUS
10
196.918
20
-120.971
11
197.204
21
-121.114
0
LINE
8
BLACK
6
CONTINUOUS
10
197.204
20
-121.114
11
197.775
21
-121.114
0
LINE
8
BLACK
6
CONTINUOUS
10
197.775
20
-121.114
11
198.061
21
-120.971
0
LINE
8
BLACK
6
CONTINUOUS
10
198.061
20
-120.971
11
198.204
21
-120.686
0
LINE
8
BLACK
6
CONTINUOUS
10
198.204
20
-120.686
11
198.204
21
-120.543
0
LINE
8
BLACK
6
CONTINUOUS
10
198.204
20
-120.543
11
198.061
21
-120.257
0
LINE
8
BLACK
6
CONTINUOUS
10
198.061
20
-120.257
11
197.775
21
-120.114
0
LINE
8
BLACK
6
CONTINUOUS
10
197.775
20
-120.114
11
197.347
21
-120.114
0
LINE
8
BLACK
6
CONTINUOUS
10
197.347
20
-120.114
11
197.061
21
-119.971
0
LINE
8
BLACK
6
CONTINUOUS
10
197.061
20
-119.971
11
196.918
21
-119.686
0
LINE
8
BLACK
6
CONTINUOUS
10
196.918
20
-119.686
11
196.918
21
-119.543
0
LINE
8
BLACK
6
CONTINUOUS
10
196.918
20
-119.543
11
197.061
21
-119.257
0
LINE
8
BLACK
6
CONTINUOUS
10
197.061
20
-119.257
11
197.347
21
-119.114
0
LINE
8
BLACK
6
CONTINUOUS
10
197.347
20
-119.114
11
197.775
21
-119.114
0
LINE
8
BLACK
6
CONTINUOUS
10
197.775
20
-119.114
11
198.061
21
-119.257
0
LINE
8
BLACK
6
CONTINUOUS
10
199.204
20
-122.257
11
199.347
21
-122.114
0
LINE
8
BLACK
6
CONTINUOUS
10
199.347
20
-122.114
11
199.632
21
-121.686
0
LINE
8
BLACK
6
CONTINUOUS
10
199.632
20
-121.686
11
199.775
21
-121.4
0
LINE
8
BLACK
6
CONTINUOUS
10
199.775
20
-121.4
11
199.918
21
-120.971
0
LINE
8
BLACK
6
CONTINUOUS
10
199.918
20
-120.971
11
200.061
21
-120.257
0
LINE
8
BLACK
6
CONTINUOUS
10
200.061
20
-120.257
11
200.061
21
-119.686
0
LINE
8
BLACK
6
CONTINUOUS
10
200.061
20
-119.686
11
199.918
21
-118.971
0
LINE
8
BLACK
6
CONTINUOUS
10
199.918
20
-118.971
11
199.775
21
-118.543
0
LINE
8
BLACK
6
CONTINUOUS
10
199.775
20
-118.543
11
199.632
21
-118.257
0
LINE
8
BLACK
6
CONTINUOUS
10
199.632
20
-118.257
11
199.347
21
-117.828
0
LINE
8
BLACK
6
CONTINUOUS
10
199.347
20
-117.828
11
199.204
21
-117.686
0
LINE
8
BLACK
6
CONTINUOUS
10
121.811
20
-122.617
11
121.811
21
-124.817
0
LINE
8
BLACK
6
CONTINUOUS
10
120.711
20
-123.717
11
122.911
21
-123.717
0
LINE
8
BLACK
6
CONTINUOUS
10
125.632
20
-122.36
11
125.775
21
-122.217
0
LINE
8
BLACK
6
CONTINUOUS
10
125.775
20
-122.217
11
126.061
21
-122.074
0
LINE
8
BLACK
6
CONTINUOUS
10
126.061
20
-122.074
11
126.775
21
-122.074
0
LINE
8
BLACK
6
CONTINUOUS
10
126.775
20
-122.074
11
127.061
21
-122.217
0
LINE
8
BLACK
6
CONTINUOUS
10
127.061
20
-122.217
11
127.204
21
-122.36
0
LINE
8
BLACK
6
CONTINUOUS
10
127.204
20
-122.36
11
127.347
21
-122.646
0
LINE
8
BLACK
6
CONTINUOUS
10
127.347
20
-122.646
11
127.347
21
-122.931
0
LINE
8
BLACK
6
CONTINUOUS
10
127.347
20
-122.931
11
127.204
21
-123.36
0
LINE
8
BLACK
6
CONTINUOUS
10
127.204
20
-123.36
11
125.49
21
-125.074
0
LINE
8
BLACK
6
CONTINUOUS
10
125.49
20
-125.074
11
127.347
21
-125.074
0
LINE
8
BLACK
6
CONTINUOUS
10
128.632
20
-124.788
11
128.775
21
-124.931
0
LINE
8
BLACK
6
CONTINUOUS
10
128.775
20
-124.931
11
128.632
21
-125.074
0
LINE
8
BLACK
6
CONTINUOUS
10
128.632
20
-125.074
11
128.49
21
-124.931
0
LINE
8
BLACK
6
CONTINUOUS
10
128.49
20
-124.931
11
128.632
21
-124.788
0
LINE
8
BLACK
6
CONTINUOUS
10
128.632
20
-124.788
11
128.632
21
-125.074
0
LINE
8
BLACK
6
CONTINUOUS
10
129.918
20
-122.36
11
130.061
21
-122.217
0
LINE
8
BLACK
6
CONTINUOUS
10
130.061
20
-122.217
11
130.347
21
-122.074
0
LINE
8
BLACK
6
CONTINUOUS
10
130.347
20
-122.074
11
131.061
21
-122.074
0
LINE
8
BLACK
6
CONTINUOUS
10
131.061
20
-122.074
11
131.347
21
-122.217
0
LINE
8
BLACK
6
CONTINUOUS
10
131.347
20
-122.217
11
131.49
21
-122.36
0
LINE
8
BLACK
6
CONTINUOUS
10
131.49
20
-122.36
11
131.632
21
-122.646
0
LINE
8
BLACK
6
CONTINUOUS
10
131.632
20
-122.646
11
131.632
21
-122.931
0
LINE
8
BLACK
6
CONTINUOUS
10
131.632
20
-122.931
11
131.49
21
-123.36
0
LINE
8
BLACK
6
CONTINUOUS
10
131.49
20
-123.36
11
129.775
21
-125.074
0
LINE
8
BLACK
6
CONTINUOUS
10
129.775
20
-125.074
11
131.632
21
-125.074
0
LINE
8
BLACK
6
CONTINUOUS
10
133.49
20
-122.074
11
133.775
21
-122.074
0
LINE
8
BLACK
6
CONTINUOUS
10
133.775
20
-122.074
11
134.061
21
-122.217
0
LINE
8
BLACK
6
CONTINUOUS
10
134.061
20
-122.217
11
134.204
21
-122.36
0
LINE
8
BLACK
6
CONTINUOUS
10
134.204
20
-122.36
11
134.347
21
-122.646
0
LINE
8
BLACK
6
CONTINUOUS
10
134.347
20
-122.646
11
134.49
21
-123.217
0
LINE
8
BLACK
6
CONTINUOUS
10
134.49
20
-123.217
11
134.49
21
-123.931
0
LINE
8
BLACK
6
CONTINUOUS
10
134.49
20
-123.931
11
134.347
21
-124.503
0
LINE
8
BLACK
6
CONTINUOUS
10
134.347
20
-124.503
11
134.204
21
-124.788
0
LINE
8
BLACK
6
CONTINUOUS
10
134.204
20
-124.788
11
134.061
21
-124.931
0
LINE
8
BLACK
6
CONTINUOUS
10
134.061
20
-124.931
11
133.775
21
-125.074
0
LINE
8
BLACK
6
CONTINUOUS
10
133.775
20
-125.074
11
133.49
21
-125.074
0
LINE
8
BLACK
6
CONTINUOUS
10
133.49
20
-125.074
11
133.204
21
-124.931
0
LINE
8
BLACK
6
CONTINUOUS
10
133.204
20
-124.931
11
133.061
21
-124.788
0
LINE
8
BLACK
6
CONTINUOUS
10
133.061
20
-124.788
11
132.918
21
-124.503
0
LINE
8
BLACK
6
CONTINUOUS
10
132.918
20
-124.503
11
132.775
21
-123.931
0
LINE
8
BLACK
6
CONTINUOUS
10
132.775
20
-123.931
11
132.775
21
-123.217
0
LINE
8
BLACK
6
CONTINUOUS
10
132.775
20
-123.217
11
132.918
21
-122.646
0
LINE
8
BLACK
6
CONTINUOUS
10
132.918
20
-122.646
11
133.061
21
-122.36
0
LINE
8
BLACK
6
CONTINUOUS
10
133.061
20
-122.36
11
133.204
21
-122.217
0
LINE
8
BLACK
6
CONTINUOUS
10
133.204
20
-122.217
11
133.49
21
-122.074
0
LINE
8
BLACK
6
CONTINUOUS
10
136.347
20
-122.074
11
136.632
21
-122.074
0
LINE
8
BLACK
6
CONTINUOUS
10
136.632
20
-122.074
11
136.918
21
-122.217
0
LINE
8
BLACK
6
CONTINUOUS
10
136.918
20
-122.217
11
137.061
21
-122.36
0
LINE
8
BLACK
6
CONTINUOUS
10
137.061
20
-122.36
11
137.204
21
-122.646
0
LINE
8
BLACK
6
CONTINUOUS
10
137.204
20
-122.646
11
137.347
21
-123.217
0
LINE
8
BLACK
6
CONTINUOUS
10
137.347
20
-123.217
11
137.347
21
-123.931
0
LINE
8
BLACK
6
CONTINUOUS
10
137.347
20
-123.931
11
137.204
21
-124.503
0
LINE
8
BLACK
6
CONTINUOUS
10
137.204
20
-124.503
11
137.061
21
-124.788
0
LINE
8
BLACK
6
CONTINUOUS
10
137.061
20
-124.788
11
136.918
21
-124.931
0
LINE
8
BLACK
6
CONTINUOUS
10
136.918
20
-124.931
11
136.632
21
-125.074
0
LINE
8
BLACK
6
CONTINUOUS
10
136.632
20
-125.074
11
136.347
21
-125.074
0
LINE
8
BLACK
6
CONTINUOUS
10
136.347
20
-125.074
11
136.061
21
-124.931
0
LINE
8
BLACK
6
CONTINUOUS
10
136.061
20
-124.931
11
135.918
21
-124.788
0
LINE
8
BLACK
6
CONTINUOUS
10
135.918
20
-124.788
11
135.775
21
-124.503
0
LINE
8
BLACK
6
CONTINUOUS
10
135.775
20
-124.503
11
135.632
21
-123.931
0
LINE
8
BLACK
6
CONTINUOUS
10
135.632
20
-123.931
11
135.632
21
-123.217
0
LINE
8
BLACK
6
CONTINUOUS
10
135.632
20
-123.217
11
135.775
21
-122.646
0
LINE
8
BLACK
6
CONTINUOUS
10
135.775
20
-122.646
11
135.918
21
-122.36
0
LINE
8
BLACK
6
CONTINUOUS
10
135.918
20
-122.36
11
136.061
21
-122.217
0
LINE
8
BLACK
6
CONTINUOUS
10
136.061
20
-122.217
11
136.347
21
-122.074
0
LINE
8
BLACK
6
CONTINUOUS
10
138.632
20
-125.074
11
138.632
21
-123.074
0
LINE
8
BLACK
6
CONTINUOUS
10
138.632
20
-123.36
11
138.775
21
-123.217
0
LINE
8
BLACK
6
CONTINUOUS
10
138.775
20
-123.217
11
139.061
21
-123.074
0
LINE
8
BLACK
6
CONTINUOUS
10
139.061
20
-123.074
11
139.49
21
-123.074
0
LINE
8
BLACK
6
CONTINUOUS
10
139.49
20
-123.074
11
139.775
21
-123.217
0
LINE
8
BLACK
6
CONTINUOUS
10
139.775
20
-123.217
11
139.918
21
-123.503
0
LINE
8
BLACK
6
CONTINUOUS
10
139.918
20
-123.503
11
139.918
21
-125.074
0
LINE
8
BLACK
6
CONTINUOUS
10
139.918
20
-123.503
11
140.061
21
-123.217
0
LINE
8
BLACK
6
CONTINUOUS
10
140.061
20
-123.217
11
140.347
21
-123.074
0
LINE
8
BLACK
6
CONTINUOUS
10
140.347
20
-123.074
11
140.775
21
-123.074
0
LINE
8
BLACK
6
CONTINUOUS
10
140.775
20
-123.074
11
141.061
21
-123.217
0
LINE
8
BLACK
6
CONTINUOUS
10
141.061
20
-123.217
11
141.204
21
-123.503
0
LINE
8
BLACK
6
CONTINUOUS
10
141.204
20
-123.503
11
141.204
21
-125.074
0
LINE
8
BLACK
6
CONTINUOUS
10
142.632
20
-125.074
11
142.632
21
-123.074
0
LINE
8
BLACK
6
CONTINUOUS
10
142.632
20
-123.36
11
142.775
21
-123.217
0
LINE
8
BLACK
6
CONTINUOUS
10
142.775
20
-123.217
11
143.061
21
-123.074
0
LINE
8
BLACK
6
CONTINUOUS
10
143.061
20
-123.074
11
143.49
21
-123.074
0
LINE
8
BLACK
6
CONTINUOUS
10
143.49
20
-123.074
11
143.775
21
-123.217
0
LINE
8
BLACK
6
CONTINUOUS
10
143.775
20
-123.217
11
143.918
21
-123.503
0
LINE
8
BLACK
6
CONTINUOUS
10
143.918
20
-123.503
11
143.918
21
-125.074
0
LINE
8
BLACK
6
CONTINUOUS
10
143.918
20
-123.503
11
144.061
21
-123.217
0
LINE
8
BLACK
6
CONTINUOUS
10
144.061
20
-123.217
11
144.347
21
-123.074
0
LINE
8
BLACK
6
CONTINUOUS
10
144.347
20
-123.074
11
144.775
21
-123.074
0
LINE
8
BLACK
6
CONTINUOUS
10
144.775
20
-123.074
11
145.061
21
-123.217
0
LINE
8
BLACK
6
CONTINUOUS
10
145.061
20
-123.217
11
145.204
21
-123.503
0
LINE
8
BLACK
6
CONTINUOUS
10
145.204
20
-123.503
11
145.204
21
-125.074
0
LINE
8
BLACK
6
CONTINUOUS
10
151.061
20
-121.931
11
148.49
21
-125.788
0
LINE
8
BLACK
6
CONTINUOUS
10
154.918
20
-122.074
11
155.204
21
-122.074
0
LINE
8
BLACK
6
CONTINUOUS
10
155.204
20
-122.074
11
155.49
21
-122.217
0
LINE
8
BLACK
6
CONTINUOUS
10
155.49
20
-122.217
11
155.632
21
-122.36
0
LINE
8
BLACK
6
CONTINUOUS
10
155.632
20
-122.36
11
155.775
21
-122.646
0
LINE
8
BLACK
6
CONTINUOUS
10
155.775
20
-122.646
11
155.918
21
-123.217
0
LINE
8
BLACK
6
CONTINUOUS
10
155.918
20
-123.217
11
155.918
21
-123.931
0
LINE
8
BLACK
6
CONTINUOUS
10
155.918
20
-123.931
11
155.775
21
-124.503
0
LINE
8
BLACK
6
CONTINUOUS
10
155.775
20
-124.503
11
155.632
21
-124.788
0
LINE
8
BLACK
6
CONTINUOUS
10
155.632
20
-124.788
11
155.49
21
-124.931
0
LINE
8
BLACK
6
CONTINUOUS
10
155.49
20
-124.931
11
155.204
21
-125.074
0
LINE
8
BLACK
6
CONTINUOUS
10
155.204
20
-125.074
11
154.918
21
-125.074
0
LINE
8
BLACK
6
CONTINUOUS
10
154.918
20
-125.074
11
154.632
21
-124.931
0
LINE
8
BLACK
6
CONTINUOUS
10
154.632
20
-124.931
11
154.49
21
-124.788
0
LINE
8
BLACK
6
CONTINUOUS
10
154.49
20
-124.788
11
154.347
21
-124.503
0
LINE
8
BLACK
6
CONTINUOUS
10
154.347
20
-124.503
11
154.204
21
-123.931
0
LINE
8
BLACK
6
CONTINUOUS
10
154.204
20
-123.931
11
154.204
21
-123.217
0
LINE
8
BLACK
6
CONTINUOUS
10
154.204
20
-123.217
11
154.347
21
-122.646
0
LINE
8
BLACK
6
CONTINUOUS
10
154.347
20
-122.646
11
154.49
21
-122.36
0
LINE
8
BLACK
6
CONTINUOUS
10
154.49
20
-122.36
11
154.632
21
-122.217
0
LINE
8
BLACK
6
CONTINUOUS
10
154.632
20
-122.217
11
154.918
21
-122.074
0
LINE
8
BLACK
6
CONTINUOUS
10
157.204
20
-124.788
11
157.347
21
-124.931
0
LINE
8
BLACK
6
CONTINUOUS
10
157.347
20
-124.931
11
157.204
21
-125.074
0
LINE
8
BLACK
6
CONTINUOUS
10
157.204
20
-125.074
11
157.061
21
-124.931
0
LINE
8
BLACK
6
CONTINUOUS
10
157.061
20
-124.931
11
157.204
21
-124.788
0
LINE
8
BLACK
6
CONTINUOUS
10
157.204
20
-124.788
11
157.204
21
-125.074
0
LINE
8
BLACK
6
CONTINUOUS
10
159.204
20
-122.074
11
159.49
21
-122.074
0
LINE
8
BLACK
6
CONTINUOUS
10
159.49
20
-122.074
11
159.775
21
-122.217
0
LINE
8
BLACK
6
CONTINUOUS
10
159.775
20
-122.217
11
159.918
21
-122.36
0
LINE
8
BLACK
6
CONTINUOUS
10
159.918
20
-122.36
11
160.061
21
-122.646
0
LINE
8
BLACK
6
CONTINUOUS
10
160.061
20
-122.646
11
160.204
21
-123.217
0
LINE
8
BLACK
6
CONTINUOUS
10
160.204
20
-123.217
11
160.204
21
-123.931
0
LINE
8
BLACK
6
CONTINUOUS
10
160.204
20
-123.931
11
160.061
21
-124.503
0
LINE
8
BLACK
6
CONTINUOUS
10
160.061
20
-124.503
11
159.918
21
-124.788
0
LINE
8
BLACK
6
CONTINUOUS
10
159.918
20
-124.788
11
159.775
21
-124.931
0
LINE
8
BLACK
6
CONTINUOUS
10
159.775
20
-124.931
11
159.49
21
-125.074
0
LINE
8
BLACK
6
CONTINUOUS
10
159.49
20
-125.074
11
159.204
21
-125.074
0
LINE
8
BLACK
6
CONTINUOUS
10
159.204
20
-125.074
11
158.918
21
-124.931
0
LINE
8
BLACK
6
CONTINUOUS
10
158.918
20
-124.931
11
158.775
21
-124.788
0
LINE
8
BLACK
6
CONTINUOUS
10
158.775
20
-124.788
11
158.632
21
-124.503
0
LINE
8
BLACK
6
CONTINUOUS
10
158.632
20
-124.503
11
158.49
21
-123.931
0
LINE
8
BLACK
6
CONTINUOUS
10
158.49
20
-123.931
11
158.49
21
-123.217
0
LINE
8
BLACK
6
CONTINUOUS
10
158.49
20
-123.217
11
158.632
21
-122.646
0
LINE
8
BLACK
6
CONTINUOUS
10
158.632
20
-122.646
11
158.775
21
-122.36
0
LINE
8
BLACK
6
CONTINUOUS
10
158.775
20
-122.36
11
158.918
21
-122.217
0
LINE
8
BLACK
6
CONTINUOUS
10
158.918
20
-122.217
11
159.204
21
-122.074
0
LINE
8
BLACK
6
CONTINUOUS
10
161.918
20
-123.36
11
161.632
21
-123.217
0
LINE
8
BLACK
6
CONTINUOUS
10
161.632
20
-123.217
11
161.49
21
-123.074
0
LINE
8
BLACK
6
CONTINUOUS
10
161.49
20
-123.074
11
161.347
21
-122.788
0
LINE
8
BLACK
6
CONTINUOUS
10
161.347
20
-122.788
11
161.347
21
-122.646
0
LINE
8
BLACK
6
CONTINUOUS
10
161.347
20
-122.646
11
161.49
21
-122.36
0
LINE
8
BLACK
6
CONTINUOUS
10
161.49
20
-122.36
11
161.632
21
-122.217
0
LINE
8
BLACK
6
CONTINUOUS
10
161.632
20
-122.217
11
161.918
21
-122.074
0
LINE
8
BLACK
6
CONTINUOUS
10
161.918
20
-122.074
11
162.49
21
-122.074
0
LINE
8
BLACK
6
CONTINUOUS
10
162.49
20
-122.074
11
162.775
21
-122.217
0
LINE
8
BLACK
6
CONTINUOUS
10
162.775
20
-122.217
11
162.918
21
-122.36
0
LINE
8
BLACK
6
CONTINUOUS
10
162.918
20
-122.36
11
163.061
21
-122.646
0
LINE
8
BLACK
6
CONTINUOUS
10
163.061
20
-122.646
11
163.061
21
-122.788
0
LINE
8
BLACK
6
CONTINUOUS
10
163.061
20
-122.788
11
162.918
21
-123.074
0
LINE
8
BLACK
6
CONTINUOUS
10
162.918
20
-123.074
11
162.775
21
-123.217
0
LINE
8
BLACK
6
CONTINUOUS
10
162.775
20
-123.217
11
162.49
21
-123.36
0
LINE
8
BLACK
6
CONTINUOUS
10
162.49
20
-123.36
11
161.918
21
-123.36
0
LINE
8
BLACK
6
CONTINUOUS
10
161.918
20
-123.36
11
161.632
21
-123.503
0
LINE
8
BLACK
6
CONTINUOUS
10
161.632
20
-123.503
11
161.49
21
-123.646
0
LINE
8
BLACK
6
CONTINUOUS
10
161.49
20
-123.646
11
161.347
21
-123.931
0
LINE
8
BLACK
6
CONTINUOUS
10
161.347
20
-123.931
11
161.347
21
-124.503
0
LINE
8
BLACK
6
CONTINUOUS
10
161.347
20
-124.503
11
161.49
21
-124.788
0
LINE
8
BLACK
6
CONTINUOUS
10
161.49
20
-124.788
11
161.632
21
-124.931
0
LINE
8
BLACK
6
CONTINUOUS
10
161.632
20
-124.931
11
161.918
21
-125.074
0
LINE
8
BLACK
6
CONTINUOUS
10
161.918
20
-125.074
11
162.49
21
-125.074
0
LINE
8
BLACK
6
CONTINUOUS
10
162.49
20
-125.074
11
162.775
21
-124.931
0
LINE
8
BLACK
6
CONTINUOUS
10
162.775
20
-124.931
11
162.918
21
-124.788
0
LINE
8
BLACK
6
CONTINUOUS
10
162.918
20
-124.788
11
163.061
21
-124.503
0
LINE
8
BLACK
6
CONTINUOUS
10
163.061
20
-124.503
11
163.061
21
-123.931
0
LINE
8
BLACK
6
CONTINUOUS
10
163.061
20
-123.931
11
162.918
21
-123.646
0
LINE
8
BLACK
6
CONTINUOUS
10
162.918
20
-123.646
11
162.775
21
-123.503
0
LINE
8
BLACK
6
CONTINUOUS
10
162.775
20
-123.503
11
162.49
21
-123.36
0
LINE
8
BLACK
6
CONTINUOUS
10
165.632
20
-122.074
11
165.061
21
-122.074
0
LINE
8
BLACK
6
CONTINUOUS
10
165.061
20
-122.074
11
164.775
21
-122.217
0
LINE
8
BLACK
6
CONTINUOUS
10
164.775
20
-122.217
11
164.632
21
-122.36
0
LINE
8
BLACK
6
CONTINUOUS
10
164.632
20
-122.36
11
164.347
21
-122.788
0
LINE
8
BLACK
6
CONTINUOUS
10
164.347
20
-122.788
11
164.204
21
-123.36
0
LINE
8
BLACK
6
CONTINUOUS
10
164.204
20
-123.36
11
164.204
21
-124.503
0
LINE
8
BLACK
6
CONTINUOUS
10
164.204
20
-124.503
11
164.347
21
-124.788
0
LINE
8
BLACK
6
CONTINUOUS
10
164.347
20
-124.788
11
164.49
21
-124.931
0
LINE
8
BLACK
6
CONTINUOUS
10
164.49
20
-124.931
11
164.775
21
-125.074
0
LINE
8
BLACK
6
CONTINUOUS
10
164.775
20
-125.074
11
165.347
21
-125.074
0
LINE
8
BLACK
6
CONTINUOUS
10
165.347
20
-125.074
11
165.632
21
-124.931
0
LINE
8
BLACK
6
CONTINUOUS
10
165.632
20
-124.931
11
165.775
21
-124.788
0
LINE
8
BLACK
6
CONTINUOUS
10
165.775
20
-124.788
11
165.918
21
-124.503
0
LINE
8
BLACK
6
CONTINUOUS
10
165.918
20
-124.503
11
165.918
21
-123.788
0
LINE
8
BLACK
6
CONTINUOUS
10
165.918
20
-123.788
11
165.775
21
-123.503
0
LINE
8
BLACK
6
CONTINUOUS
10
165.775
20
-123.503
11
165.632
21
-123.36
0
LINE
8
BLACK
6
CONTINUOUS
10
165.632
20
-123.36
11
165.347
21
-123.217
0
LINE
8
BLACK
6
CONTINUOUS
10
165.347
20
-123.217
11
164.775
21
-123.217
0
LINE
8
BLACK
6
CONTINUOUS
10
164.775
20
-123.217
11
164.49
21
-123.36
0
LINE
8
BLACK
6
CONTINUOUS
10
164.49
20
-123.36
11
164.347
21
-123.503
0
LINE
8
BLACK
6
CONTINUOUS
10
164.347
20
-123.503
11
164.204
21
-123.788
0
LINE
8
BLACK
6
CONTINUOUS
10
168.49
20
-122.074
11
167.918
21
-122.074
0
LINE
8
BLACK
6
CONTINUOUS
10
167.918
20
-122.074
11
167.632
21
-122.217
0
LINE
8
BLACK
6
CONTINUOUS
10
167.632
20
-122.217
11
167.49
21
-122.36
0
LINE
8
BLACK
6
CONTINUOUS
10
167.49
20
-122.36
11
167.204
21
-122.788
0
LINE
8
BLACK
6
CONTINUOUS
10
167.204
20
-122.788
11
167.061
21
-123.36
0
LINE
8
BLACK
6
CONTINUOUS
10
167.061
20
-123.36
11
167.061
21
-124.503
0
LINE
8
BLACK
6
CONTINUOUS
10
167.061
20
-124.503
11
167.204
21
-124.788
0
LINE
8
BLACK
6
CONTINUOUS
10
167.204
20
-124.788
11
167.347
21
-124.931
0
LINE
8
BLACK
6
CONTINUOUS
10
167.347
20
-124.931
11
167.632
21
-125.074
0
LINE
8
BLACK
6
CONTINUOUS
10
167.632
20
-125.074
11
168.204
21
-125.074
0
LINE
8
BLACK
6
CONTINUOUS
10
168.204
20
-125.074
11
168.49
21
-124.931
0
LINE
8
BLACK
6
CONTINUOUS
10
168.49
20
-124.931
11
168.632
21
-124.788
0
LINE
8
BLACK
6
CONTINUOUS
10
168.632
20
-124.788
11
168.775
21
-124.503
0
LINE
8
BLACK
6
CONTINUOUS
10
168.775
20
-124.503
11
168.775
21
-123.788
0
LINE
8
BLACK
6
CONTINUOUS
10
168.775
20
-123.788
11
168.632
21
-123.503
0
LINE
8
BLACK
6
CONTINUOUS
10
168.632
20
-123.503
11
168.49
21
-123.36
0
LINE
8
BLACK
6
CONTINUOUS
10
168.49
20
-123.36
11
168.204
21
-123.217
0
LINE
8
BLACK
6
CONTINUOUS
10
168.204
20
-123.217
11
167.632
21
-123.217
0
LINE
8
BLACK
6
CONTINUOUS
10
167.632
20
-123.217
11
167.347
21
-123.36
0
LINE
8
BLACK
6
CONTINUOUS
10
167.347
20
-123.36
11
167.204
21
-123.503
0
LINE
8
BLACK
6
CONTINUOUS
10
167.204
20
-123.503
11
167.061
21
-123.788
0
LINE
8
BLACK
6
CONTINUOUS
10
169.918
20
-122.074
11
169.918
21
-122.646
0
LINE
8
BLACK
6
CONTINUOUS
10
171.061
20
-122.074
11
171.061
21
-122.646
0
LINE
8
BLACK
6
CONTINUOUS
10
175.49
20
-126.217
11
175.347
21
-126.074
0
LINE
8
BLACK
6
CONTINUOUS
10
175.347
20
-126.074
11
175.061
21
-125.646
0
LINE
8
BLACK
6
CONTINUOUS
10
175.061
20
-125.646
11
174.918
21
-125.36
0
LINE
8
BLACK
6
CONTINUOUS
10
174.918
20
-125.36
11
174.775
21
-124.931
0
LINE
8
BLACK
6
CONTINUOUS
10
174.775
20
-124.931
11
174.632
21
-124.217
0
LINE
8
BLACK
6
CONTINUOUS
10
174.632
20
-124.217
11
174.632
21
-123.646
0
LINE
8
BLACK
6
CONTINUOUS
10
174.632
20
-123.646
11
174.775
21
-122.931
0
LINE
8
BLACK
6
CONTINUOUS
10
174.775
20
-122.931
11
174.918
21
-122.503
0
LINE
8
BLACK
6
CONTINUOUS
10
174.918
20
-122.503
11
175.061
21
-122.217
0
LINE
8
BLACK
6
CONTINUOUS
10
175.061
20
-122.217
11
175.347
21
-121.788
0
LINE
8
BLACK
6
CONTINUOUS
10
175.347
20
-121.788
11
175.49
21
-121.646
0
LINE
8
BLACK
6
CONTINUOUS
10
177.918
20
-123.074
11
177.918
21
-125.074
0
LINE
8
BLACK
6
CONTINUOUS
10
177.204
20
-121.931
11
176.49
21
-124.074
0
LINE
8
BLACK
6
CONTINUOUS
10
176.49
20
-124.074
11
178.347
21
-124.074
0
LINE
8
BLACK
6
CONTINUOUS
10
181.775
20
-125.074
11
181.775
21
-122.074
0
LINE
8
BLACK
6
CONTINUOUS
10
183.061
20
-125.074
11
183.061
21
-123.503
0
LINE
8
BLACK
6
CONTINUOUS
10
183.061
20
-123.503
11
182.918
21
-123.217
0
LINE
8
BLACK
6
CONTINUOUS
10
182.918
20
-123.217
11
182.632
21
-123.074
0
LINE
8
BLACK
6
CONTINUOUS
10
182.632
20
-123.074
11
182.204
21
-123.074
0
LINE
8
BLACK
6
CONTINUOUS
10
182.204
20
-123.074
11
181.918
21
-123.217
0
LINE
8
BLACK
6
CONTINUOUS
10
181.918
20
-123.217
11
181.775
21
-123.36
0
LINE
8
BLACK
6
CONTINUOUS
10
184.918
20
-125.074
11
184.632
21
-124.931
0
LINE
8
BLACK
6
CONTINUOUS
10
184.632
20
-124.931
11
184.49
21
-124.788
0
LINE
8
BLACK
6
CONTINUOUS
10
184.49
20
-124.788
11
184.347
21
-124.503
0
LINE
8
BLACK
6
CONTINUOUS
10
184.347
20
-124.503
11
184.347
21
-123.646
0
LINE
8
BLACK
6
CONTINUOUS
10
184.347
20
-123.646
11
184.49
21
-123.36
0
LINE
8
BLACK
6
CONTINUOUS
10
184.49
20
-123.36
11
184.632
21
-123.217
0
LINE
8
BLACK
6
CONTINUOUS
10
184.632
20
-123.217
11
184.918
21
-123.074
0
LINE
8
BLACK
6
CONTINUOUS
10
184.918
20
-123.074
11
185.347
21
-123.074
0
LINE
8
BLACK
6
CONTINUOUS
10
185.347
20
-123.074
11
185.632
21
-123.217
0
LINE
8
BLACK
6
CONTINUOUS
10
185.632
20
-123.217
11
185.775
21
-123.36
0
LINE
8
BLACK
6
CONTINUOUS
10
185.775
20
-123.36
11
185.918
21
-123.646
0
LINE
8
BLACK
6
CONTINUOUS
10
185.918
20
-123.646
11
185.918
21
-124.503
0
LINE
8
BLACK
6
CONTINUOUS
10
185.918
20
-124.503
11
185.775
21
-124.788
0
LINE
8
BLACK
6
CONTINUOUS
10
185.775
20
-124.788
11
185.632
21
-124.931
0
LINE
8
BLACK
6
CONTINUOUS
10
185.632
20
-124.931
11
185.347
21
-125.074
0
LINE
8
BLACK
6
CONTINUOUS
10
185.347
20
-125.074
11
184.918
21
-125.074
0
LINE
8
BLACK
6
CONTINUOUS
10
187.632
20
-125.074
11
187.347
21
-124.931
0
LINE
8
BLACK
6
CONTINUOUS
10
187.347
20
-124.931
11
187.204
21
-124.646
0
LINE
8
BLACK
6
CONTINUOUS
10
187.204
20
-124.646
11
187.204
21
-122.074
0
LINE
8
BLACK
6
CONTINUOUS
10
189.918
20
-124.931
11
189.632
21
-125.074
0
LINE
8
BLACK
6
CONTINUOUS
10
189.632
20
-125.074
11
189.061
21
-125.074
0
LINE
8
BLACK
6
CONTINUOUS
10
189.061
20
-125.074
11
188.775
21
-124.931
0
LINE
8
BLACK
6
CONTINUOUS
10
188.775
20
-124.931
11
188.632
21
-124.646
0
LINE
8
BLACK
6
CONTINUOUS
10
188.632
20
-124.646
11
188.632
21
-123.503
0
LINE
8
BLACK
6
CONTINUOUS
10
188.632
20
-123.503
11
188.775
21
-123.217
0
LINE
8
BLACK
6
CONTINUOUS
10
188.775
20
-123.217
11
189.061
21
-123.074
0
LINE
8
BLACK
6
CONTINUOUS
10
189.061
20
-123.074
11
189.632
21
-123.074
0
LINE
8
BLACK
6
CONTINUOUS
10
189.632
20
-123.074
11
189.918
21
-123.217
0
LINE
8
BLACK
6
CONTINUOUS
10
189.918
20
-123.217
11
190.061
21
-123.503
0
LINE
8
BLACK
6
CONTINUOUS
10
190.061
20
-123.503
11
190.061
21
-123.788
0
LINE
8
BLACK
6
CONTINUOUS
10
190.061
20
-123.788
11
188.632
21
-124.074
0
LINE
8
BLACK
6
CONTINUOUS
10
191.204
20
-124.931
11
191.49
21
-125.074
0
LINE
8
BLACK
6
CONTINUOUS
10
191.49
20
-125.074
11
192.061
21
-125.074
0
LINE
8
BLACK
6
CONTINUOUS
10
192.061
20
-125.074
11
192.347
21
-124.931
0
LINE
8
BLACK
6
CONTINUOUS
10
192.347
20
-124.931
11
192.49
21
-124.646
0
LINE
8
BLACK
6
CONTINUOUS
10
192.49
20
-124.646
11
192.49
21
-124.503
0
LINE
8
BLACK
6
CONTINUOUS
10
192.49
20
-124.503
11
192.347
21
-124.217
0
LINE
8
BLACK
6
CONTINUOUS
10
192.347
20
-124.217
11
192.061
21
-124.074
0
LINE
8
BLACK
6
CONTINUOUS
10
192.061
20
-124.074
11
191.632
21
-124.074
0
LINE
8
BLACK
6
CONTINUOUS
10
191.632
20
-124.074
11
191.347
21
-123.931
0
LINE
8
BLACK
6
CONTINUOUS
10
191.347
20
-123.931
11
191.204
21
-123.646
0
LINE
8
BLACK
6
CONTINUOUS
10
191.204
20
-123.646
11
191.204
21
-123.503
0
LINE
8
BLACK
6
CONTINUOUS
10
191.204
20
-123.503
11
191.347
21
-123.217
0
LINE
8
BLACK
6
CONTINUOUS
10
191.347
20
-123.217
11
191.632
21
-123.074
0
LINE
8
BLACK
6
CONTINUOUS
10
191.632
20
-123.074
11
192.061
21
-123.074
0
LINE
8
BLACK
6
CONTINUOUS
10
192.061
20
-123.074
11
192.347
21
-123.217
0
LINE
8
BLACK
6
CONTINUOUS
10
193.49
20
-126.217
11
193.632
21
-126.074
0
LINE
8
BLACK
6
CONTINUOUS
10
193.632
20
-126.074
11
193.918
21
-125.646
0
LINE
8
BLACK
6
CONTINUOUS
10
193.918
20
-125.646
11
194.061
21
-125.36
0
LINE
8
BLACK
6
CONTINUOUS
10
194.061
20
-125.36
11
194.204
21
-124.931
0
LINE
8
BLACK
6
CONTINUOUS
10
194.204
20
-124.931
11
194.347
21
-124.217
0
LINE
8
BLACK
6
CONTINUOUS
10
194.347
20
-124.217
11
194.347
21
-123.646
0
LINE
8
BLACK
6
CONTINUOUS
10
194.347
20
-123.646
11
194.204
21
-122.931
0
LINE
8
BLACK
6
CONTINUOUS
10
194.204
20
-122.931
11
194.061
21
-122.503
0
LINE
8
BLACK
6
CONTINUOUS
10
194.061
20
-122.503
11
193.918
21
-122.217
0
LINE
8
BLACK
6
CONTINUOUS
10
193.918
20
-122.217
11
193.632
21
-121.788
0
LINE
8
BLACK
6
CONTINUOUS
10
193.632
20
-121.788
11
193.49
21
-121.646
  0
ENDSEC
  0
EOF
