G04 #@! TF.GenerationSoftware,KiCad,Pcbnew,(5.1.10-1-10_14)*
G04 #@! TF.CreationDate,2021-10-21T20:46:12-07:00*
G04 #@! TF.ProjectId,Caravel_breakout,43617261-7665-46c5-9f62-7265616b6f75,rev?*
G04 #@! TF.SameCoordinates,Original*
G04 #@! TF.FileFunction,Paste,Top*
G04 #@! TF.FilePolarity,Positive*
%FSLAX46Y46*%
G04 Gerber Fmt 4.6, Leading zero omitted, Abs format (unit mm)*
G04 Created by KiCad (PCBNEW (5.1.10-1-10_14)) date 2021-10-21 20:46:12*
%MOMM*%
%LPD*%
G01*
G04 APERTURE LIST*
%ADD10C,0.190000*%
G04 APERTURE END LIST*
D10*
X138140000Y-94595000D03*
X138140000Y-94095000D03*
X138140000Y-93595000D03*
X138140000Y-93095000D03*
X138140000Y-92595000D03*
X138140000Y-92095000D03*
X137640000Y-94595000D03*
X137640000Y-94095000D03*
X137640000Y-93595000D03*
X137640000Y-93095000D03*
X137640000Y-92595000D03*
X137640000Y-92095000D03*
X137140000Y-94595000D03*
X137140000Y-94095000D03*
X137140000Y-93595000D03*
X137140000Y-93095000D03*
X137140000Y-92595000D03*
X137140000Y-92095000D03*
X136640000Y-94595000D03*
X136640000Y-94095000D03*
X136640000Y-93595000D03*
X136640000Y-93095000D03*
X136640000Y-92595000D03*
X136640000Y-92095000D03*
X136140000Y-94595000D03*
X136140000Y-94095000D03*
X136140000Y-93595000D03*
X136140000Y-93095000D03*
X136140000Y-92595000D03*
X136140000Y-92095000D03*
X135640000Y-94595000D03*
X135640000Y-94095000D03*
X135640000Y-93595000D03*
X135640000Y-93095000D03*
X135640000Y-92595000D03*
X135640000Y-92095000D03*
X135140000Y-94595000D03*
X135140000Y-94095000D03*
X135140000Y-93595000D03*
X135140000Y-93095000D03*
X135140000Y-92595000D03*
X135140000Y-92095000D03*
X134640000Y-94595000D03*
X134640000Y-94095000D03*
X134640000Y-93595000D03*
X134640000Y-93095000D03*
X134640000Y-92595000D03*
X134640000Y-92095000D03*
X134140000Y-94595000D03*
X134140000Y-94095000D03*
X134140000Y-93595000D03*
X134140000Y-93095000D03*
X134140000Y-92595000D03*
X134140000Y-92095000D03*
X133640000Y-94595000D03*
X133640000Y-94095000D03*
X133640000Y-93595000D03*
X133640000Y-93095000D03*
X133640000Y-92595000D03*
X133640000Y-92095000D03*
G36*
G01*
X132509550Y-86684600D02*
X133022050Y-86684600D01*
G75*
G02*
X133240800Y-86903350I0J-218750D01*
G01*
X133240800Y-87340850D01*
G75*
G02*
X133022050Y-87559600I-218750J0D01*
G01*
X132509550Y-87559600D01*
G75*
G02*
X132290800Y-87340850I0J218750D01*
G01*
X132290800Y-86903350D01*
G75*
G02*
X132509550Y-86684600I218750J0D01*
G01*
G37*
G36*
G01*
X132509550Y-85109600D02*
X133022050Y-85109600D01*
G75*
G02*
X133240800Y-85328350I0J-218750D01*
G01*
X133240800Y-85765850D01*
G75*
G02*
X133022050Y-85984600I-218750J0D01*
G01*
X132509550Y-85984600D01*
G75*
G02*
X132290800Y-85765850I0J218750D01*
G01*
X132290800Y-85328350D01*
G75*
G02*
X132509550Y-85109600I218750J0D01*
G01*
G37*
G36*
G01*
X137665750Y-100934000D02*
X138178250Y-100934000D01*
G75*
G02*
X138397000Y-101152750I0J-218750D01*
G01*
X138397000Y-101590250D01*
G75*
G02*
X138178250Y-101809000I-218750J0D01*
G01*
X137665750Y-101809000D01*
G75*
G02*
X137447000Y-101590250I0J218750D01*
G01*
X137447000Y-101152750D01*
G75*
G02*
X137665750Y-100934000I218750J0D01*
G01*
G37*
G36*
G01*
X137665750Y-99359000D02*
X138178250Y-99359000D01*
G75*
G02*
X138397000Y-99577750I0J-218750D01*
G01*
X138397000Y-100015250D01*
G75*
G02*
X138178250Y-100234000I-218750J0D01*
G01*
X137665750Y-100234000D01*
G75*
G02*
X137447000Y-100015250I0J218750D01*
G01*
X137447000Y-99577750D01*
G75*
G02*
X137665750Y-99359000I218750J0D01*
G01*
G37*
G36*
G01*
X136113810Y-86697300D02*
X136626310Y-86697300D01*
G75*
G02*
X136845060Y-86916050I0J-218750D01*
G01*
X136845060Y-87353550D01*
G75*
G02*
X136626310Y-87572300I-218750J0D01*
G01*
X136113810Y-87572300D01*
G75*
G02*
X135895060Y-87353550I0J218750D01*
G01*
X135895060Y-86916050D01*
G75*
G02*
X136113810Y-86697300I218750J0D01*
G01*
G37*
G36*
G01*
X136113810Y-85122300D02*
X136626310Y-85122300D01*
G75*
G02*
X136845060Y-85341050I0J-218750D01*
G01*
X136845060Y-85778550D01*
G75*
G02*
X136626310Y-85997300I-218750J0D01*
G01*
X136113810Y-85997300D01*
G75*
G02*
X135895060Y-85778550I0J218750D01*
G01*
X135895060Y-85341050D01*
G75*
G02*
X136113810Y-85122300I218750J0D01*
G01*
G37*
G36*
G01*
X134287550Y-86684600D02*
X134800050Y-86684600D01*
G75*
G02*
X135018800Y-86903350I0J-218750D01*
G01*
X135018800Y-87340850D01*
G75*
G02*
X134800050Y-87559600I-218750J0D01*
G01*
X134287550Y-87559600D01*
G75*
G02*
X134068800Y-87340850I0J218750D01*
G01*
X134068800Y-86903350D01*
G75*
G02*
X134287550Y-86684600I218750J0D01*
G01*
G37*
G36*
G01*
X134287550Y-85109600D02*
X134800050Y-85109600D01*
G75*
G02*
X135018800Y-85328350I0J-218750D01*
G01*
X135018800Y-85765850D01*
G75*
G02*
X134800050Y-85984600I-218750J0D01*
G01*
X134287550Y-85984600D01*
G75*
G02*
X134068800Y-85765850I0J218750D01*
G01*
X134068800Y-85328350D01*
G75*
G02*
X134287550Y-85109600I218750J0D01*
G01*
G37*
G36*
G01*
X135760750Y-100934000D02*
X136273250Y-100934000D01*
G75*
G02*
X136492000Y-101152750I0J-218750D01*
G01*
X136492000Y-101590250D01*
G75*
G02*
X136273250Y-101809000I-218750J0D01*
G01*
X135760750Y-101809000D01*
G75*
G02*
X135542000Y-101590250I0J218750D01*
G01*
X135542000Y-101152750D01*
G75*
G02*
X135760750Y-100934000I218750J0D01*
G01*
G37*
G36*
G01*
X135760750Y-99359000D02*
X136273250Y-99359000D01*
G75*
G02*
X136492000Y-99577750I0J-218750D01*
G01*
X136492000Y-100015250D01*
G75*
G02*
X136273250Y-100234000I-218750J0D01*
G01*
X135760750Y-100234000D01*
G75*
G02*
X135542000Y-100015250I0J218750D01*
G01*
X135542000Y-99577750D01*
G75*
G02*
X135760750Y-99359000I218750J0D01*
G01*
G37*
G36*
G01*
X137874030Y-86697300D02*
X138386530Y-86697300D01*
G75*
G02*
X138605280Y-86916050I0J-218750D01*
G01*
X138605280Y-87353550D01*
G75*
G02*
X138386530Y-87572300I-218750J0D01*
G01*
X137874030Y-87572300D01*
G75*
G02*
X137655280Y-87353550I0J218750D01*
G01*
X137655280Y-86916050D01*
G75*
G02*
X137874030Y-86697300I218750J0D01*
G01*
G37*
G36*
G01*
X137874030Y-85122300D02*
X138386530Y-85122300D01*
G75*
G02*
X138605280Y-85341050I0J-218750D01*
G01*
X138605280Y-85778550D01*
G75*
G02*
X138386530Y-85997300I-218750J0D01*
G01*
X137874030Y-85997300D01*
G75*
G02*
X137655280Y-85778550I0J218750D01*
G01*
X137655280Y-85341050D01*
G75*
G02*
X137874030Y-85122300I218750J0D01*
G01*
G37*
G36*
G01*
X134368250Y-100234000D02*
X133855750Y-100234000D01*
G75*
G02*
X133637000Y-100015250I0J218750D01*
G01*
X133637000Y-99577750D01*
G75*
G02*
X133855750Y-99359000I218750J0D01*
G01*
X134368250Y-99359000D01*
G75*
G02*
X134587000Y-99577750I0J-218750D01*
G01*
X134587000Y-100015250D01*
G75*
G02*
X134368250Y-100234000I-218750J0D01*
G01*
G37*
G36*
G01*
X134368250Y-101809000D02*
X133855750Y-101809000D01*
G75*
G02*
X133637000Y-101590250I0J218750D01*
G01*
X133637000Y-101152750D01*
G75*
G02*
X133855750Y-100934000I218750J0D01*
G01*
X134368250Y-100934000D01*
G75*
G02*
X134587000Y-101152750I0J-218750D01*
G01*
X134587000Y-101590250D01*
G75*
G02*
X134368250Y-101809000I-218750J0D01*
G01*
G37*
M02*
