M48
; DRILL file {KiCad (5.1.10-1-10_14)} date Thursday, October 21, 2021 at 08:46:27 PM
; FORMAT={3:3/ absolute / metric / suppress leading zeros}
; #@! TF.CreationDate,2021-10-21T20:46:27-07:00
; #@! TF.GenerationSoftware,Kicad,Pcbnew,(5.1.10-1-10_14)
FMAT,2
METRIC,TZ
T1C0.250
T2C0.650
T3C2.200
%
G90
G05
T1
X129692Y-98400
X131724Y-95606
X132080Y-93345
X132761Y-90632
X132969Y-95885
X133356Y-91192
X133383Y-88090
X133798Y-84767
X134112Y-98298
X134526Y-88260
X135001Y-84503
X135368Y-97006
X135890Y-93345
X136017Y-98298
X136232Y-90635
X136705Y-97859
X136728Y-88466
X137074Y-97216
X138875Y-90790
X139647Y-85674
X139964Y-97142
X140360Y-92398
X141011Y-89903
X143764Y-103378
T2
X122936Y-85344
X122936Y-86614
X122936Y-87884
X122936Y-89154
X122936Y-90424
X122936Y-91694
X122936Y-92964
X122936Y-94234
X122936Y-95504
X122936Y-96774
X122936Y-98044
X122936Y-99314
X122936Y-100584
X122936Y-101854
X124206Y-85344
X124206Y-86614
X124206Y-87884
X124206Y-89154
X124206Y-90424
X124206Y-91694
X124206Y-92964
X124206Y-94234
X124206Y-95504
X124206Y-96774
X124206Y-98044
X124206Y-99314
X124206Y-100584
X124206Y-101854
X127381Y-80772
X127381Y-82042
X127381Y-104902
X127381Y-106172
X128651Y-80772
X128651Y-82042
X128651Y-104902
X128651Y-106172
X129921Y-80772
X129921Y-82042
X129921Y-104902
X129921Y-106172
X131191Y-80772
X131191Y-82042
X131191Y-104902
X131191Y-106172
X132461Y-80772
X132461Y-82042
X132461Y-104902
X132461Y-106172
X133731Y-80772
X133731Y-82042
X133731Y-104902
X133731Y-106172
X135001Y-80772
X135001Y-82042
X135001Y-104902
X135001Y-106172
X136271Y-80772
X136271Y-82042
X136271Y-104902
X136271Y-106172
X137541Y-80772
X137541Y-82042
X137541Y-104902
X137541Y-106172
X138811Y-80772
X138811Y-82042
X138811Y-104902
X138811Y-106172
X140081Y-80772
X140081Y-82042
X140081Y-104902
X140081Y-106172
X141351Y-80772
X141351Y-82042
X141351Y-104902
X141351Y-106172
X142621Y-80772
X142621Y-82042
X142621Y-104902
X142621Y-106172
X143891Y-80772
X143891Y-82042
X143891Y-104902
X143891Y-106172
X147066Y-85344
X147066Y-86614
X147066Y-87884
X147066Y-89154
X147066Y-90424
X147066Y-91694
X147066Y-92964
X147066Y-94234
X147066Y-95504
X147066Y-96774
X147066Y-98044
X147066Y-99314
X147066Y-100584
X147066Y-101854
X148336Y-85344
X148336Y-86614
X148336Y-87884
X148336Y-89154
X148336Y-90424
X148336Y-91694
X148336Y-92964
X148336Y-94234
X148336Y-95504
X148336Y-96774
X148336Y-98044
X148336Y-99314
X148336Y-100584
X148336Y-101854
T3
X128397Y-86233
X128397Y-100838
X143002Y-86233
X143002Y-100838
T0
M30
