G04 #@! TF.GenerationSoftware,KiCad,Pcbnew,(5.1.10-1-10_14)*
G04 #@! TF.CreationDate,2021-10-21T20:46:12-07:00*
G04 #@! TF.ProjectId,Caravel_breakout,43617261-7665-46c5-9f62-7265616b6f75,rev?*
G04 #@! TF.SameCoordinates,Original*
G04 #@! TF.FileFunction,Copper,L1,Top*
G04 #@! TF.FilePolarity,Positive*
%FSLAX46Y46*%
G04 Gerber Fmt 4.6, Leading zero omitted, Abs format (unit mm)*
G04 Created by KiCad (PCBNEW (5.1.10-1-10_14)) date 2021-10-21 20:46:12*
%MOMM*%
%LPD*%
G01*
G04 APERTURE LIST*
G04 #@! TA.AperFunction,ComponentPad*
%ADD10O,1.000000X1.000000*%
G04 #@! TD*
G04 #@! TA.AperFunction,ComponentPad*
%ADD11R,1.000000X1.000000*%
G04 #@! TD*
G04 #@! TA.AperFunction,SMDPad,CuDef*
%ADD12C,0.190000*%
G04 #@! TD*
G04 #@! TA.AperFunction,ComponentPad*
%ADD13C,3.500000*%
G04 #@! TD*
G04 #@! TA.AperFunction,ViaPad*
%ADD14C,0.500000*%
G04 #@! TD*
G04 #@! TA.AperFunction,Conductor*
%ADD15C,0.152400*%
G04 #@! TD*
G04 #@! TA.AperFunction,Conductor*
%ADD16C,0.101600*%
G04 #@! TD*
G04 #@! TA.AperFunction,Conductor*
%ADD17C,0.254000*%
G04 #@! TD*
G04 #@! TA.AperFunction,Conductor*
%ADD18C,0.100000*%
G04 #@! TD*
G04 APERTURE END LIST*
D10*
X124206000Y-101854000D03*
X122936000Y-101854000D03*
X124206000Y-100584000D03*
X122936000Y-100584000D03*
X124206000Y-99314000D03*
X122936000Y-99314000D03*
X124206000Y-98044000D03*
X122936000Y-98044000D03*
X124206000Y-96774000D03*
X122936000Y-96774000D03*
X124206000Y-95504000D03*
X122936000Y-95504000D03*
X124206000Y-94234000D03*
X122936000Y-94234000D03*
X124206000Y-92964000D03*
X122936000Y-92964000D03*
X124206000Y-91694000D03*
X122936000Y-91694000D03*
X124206000Y-90424000D03*
X122936000Y-90424000D03*
X124206000Y-89154000D03*
X122936000Y-89154000D03*
X124206000Y-87884000D03*
X122936000Y-87884000D03*
X124206000Y-86614000D03*
X122936000Y-86614000D03*
X124206000Y-85344000D03*
D11*
X122936000Y-85344000D03*
D12*
X138140000Y-94595000D03*
X138140000Y-94095000D03*
X138140000Y-93595000D03*
X138140000Y-93095000D03*
X138140000Y-92595000D03*
X138140000Y-92095000D03*
X137640000Y-94595000D03*
X137640000Y-94095000D03*
X137640000Y-93595000D03*
X137640000Y-93095000D03*
X137640000Y-92595000D03*
X137640000Y-92095000D03*
X137140000Y-94595000D03*
X137140000Y-94095000D03*
X137140000Y-93595000D03*
X137140000Y-93095000D03*
X137140000Y-92595000D03*
X137140000Y-92095000D03*
X136640000Y-94595000D03*
X136640000Y-94095000D03*
X136640000Y-93595000D03*
X136640000Y-93095000D03*
X136640000Y-92595000D03*
X136640000Y-92095000D03*
X136140000Y-94595000D03*
X136140000Y-94095000D03*
X136140000Y-93595000D03*
X136140000Y-93095000D03*
X136140000Y-92595000D03*
X136140000Y-92095000D03*
X135640000Y-94595000D03*
X135640000Y-94095000D03*
X135640000Y-93595000D03*
X135640000Y-93095000D03*
X135640000Y-92595000D03*
X135640000Y-92095000D03*
X135140000Y-94595000D03*
X135140000Y-94095000D03*
X135140000Y-93595000D03*
X135140000Y-93095000D03*
X135140000Y-92595000D03*
X135140000Y-92095000D03*
X134640000Y-94595000D03*
X134640000Y-94095000D03*
X134640000Y-93595000D03*
X134640000Y-93095000D03*
X134640000Y-92595000D03*
X134640000Y-92095000D03*
X134140000Y-94595000D03*
X134140000Y-94095000D03*
X134140000Y-93595000D03*
X134140000Y-93095000D03*
X134140000Y-92595000D03*
X134140000Y-92095000D03*
X133640000Y-94595000D03*
X133640000Y-94095000D03*
X133640000Y-93595000D03*
X133640000Y-93095000D03*
X133640000Y-92595000D03*
X133640000Y-92095000D03*
D13*
X128397000Y-86233000D03*
X143002000Y-86233000D03*
X143002000Y-100838000D03*
X128397000Y-100838000D03*
D10*
X147066000Y-85344000D03*
X148336000Y-85344000D03*
X147066000Y-86614000D03*
X148336000Y-86614000D03*
X147066000Y-87884000D03*
X148336000Y-87884000D03*
X147066000Y-89154000D03*
X148336000Y-89154000D03*
X147066000Y-90424000D03*
X148336000Y-90424000D03*
X147066000Y-91694000D03*
X148336000Y-91694000D03*
X147066000Y-92964000D03*
X148336000Y-92964000D03*
X147066000Y-94234000D03*
X148336000Y-94234000D03*
X147066000Y-95504000D03*
X148336000Y-95504000D03*
X147066000Y-96774000D03*
X148336000Y-96774000D03*
X147066000Y-98044000D03*
X148336000Y-98044000D03*
X147066000Y-99314000D03*
X148336000Y-99314000D03*
X147066000Y-100584000D03*
X148336000Y-100584000D03*
X147066000Y-101854000D03*
D11*
X148336000Y-101854000D03*
D10*
X143891000Y-104902000D03*
X143891000Y-106172000D03*
X142621000Y-104902000D03*
X142621000Y-106172000D03*
X141351000Y-104902000D03*
X141351000Y-106172000D03*
X140081000Y-104902000D03*
X140081000Y-106172000D03*
X138811000Y-104902000D03*
X138811000Y-106172000D03*
X137541000Y-104902000D03*
X137541000Y-106172000D03*
X136271000Y-104902000D03*
X136271000Y-106172000D03*
X135001000Y-104902000D03*
X135001000Y-106172000D03*
X133731000Y-104902000D03*
X133731000Y-106172000D03*
X132461000Y-104902000D03*
X132461000Y-106172000D03*
X131191000Y-104902000D03*
X131191000Y-106172000D03*
X129921000Y-104902000D03*
X129921000Y-106172000D03*
X128651000Y-104902000D03*
X128651000Y-106172000D03*
X127381000Y-104902000D03*
D11*
X127381000Y-106172000D03*
D10*
X127381000Y-82042000D03*
X127381000Y-80772000D03*
X128651000Y-82042000D03*
X128651000Y-80772000D03*
X129921000Y-82042000D03*
X129921000Y-80772000D03*
X131191000Y-82042000D03*
X131191000Y-80772000D03*
X132461000Y-82042000D03*
X132461000Y-80772000D03*
X133731000Y-82042000D03*
X133731000Y-80772000D03*
X135001000Y-82042000D03*
X135001000Y-80772000D03*
X136271000Y-82042000D03*
X136271000Y-80772000D03*
X137541000Y-82042000D03*
X137541000Y-80772000D03*
X138811000Y-82042000D03*
X138811000Y-80772000D03*
X140081000Y-82042000D03*
X140081000Y-80772000D03*
X141351000Y-82042000D03*
X141351000Y-80772000D03*
X142621000Y-82042000D03*
X142621000Y-80772000D03*
X143891000Y-82042000D03*
D11*
X143891000Y-80772000D03*
G04 #@! TA.AperFunction,SMDPad,CuDef*
G36*
G01*
X132509550Y-86684600D02*
X133022050Y-86684600D01*
G75*
G02*
X133240800Y-86903350I0J-218750D01*
G01*
X133240800Y-87340850D01*
G75*
G02*
X133022050Y-87559600I-218750J0D01*
G01*
X132509550Y-87559600D01*
G75*
G02*
X132290800Y-87340850I0J218750D01*
G01*
X132290800Y-86903350D01*
G75*
G02*
X132509550Y-86684600I218750J0D01*
G01*
G37*
G04 #@! TD.AperFunction*
G04 #@! TA.AperFunction,SMDPad,CuDef*
G36*
G01*
X132509550Y-85109600D02*
X133022050Y-85109600D01*
G75*
G02*
X133240800Y-85328350I0J-218750D01*
G01*
X133240800Y-85765850D01*
G75*
G02*
X133022050Y-85984600I-218750J0D01*
G01*
X132509550Y-85984600D01*
G75*
G02*
X132290800Y-85765850I0J218750D01*
G01*
X132290800Y-85328350D01*
G75*
G02*
X132509550Y-85109600I218750J0D01*
G01*
G37*
G04 #@! TD.AperFunction*
G04 #@! TA.AperFunction,SMDPad,CuDef*
G36*
G01*
X137665750Y-100934000D02*
X138178250Y-100934000D01*
G75*
G02*
X138397000Y-101152750I0J-218750D01*
G01*
X138397000Y-101590250D01*
G75*
G02*
X138178250Y-101809000I-218750J0D01*
G01*
X137665750Y-101809000D01*
G75*
G02*
X137447000Y-101590250I0J218750D01*
G01*
X137447000Y-101152750D01*
G75*
G02*
X137665750Y-100934000I218750J0D01*
G01*
G37*
G04 #@! TD.AperFunction*
G04 #@! TA.AperFunction,SMDPad,CuDef*
G36*
G01*
X137665750Y-99359000D02*
X138178250Y-99359000D01*
G75*
G02*
X138397000Y-99577750I0J-218750D01*
G01*
X138397000Y-100015250D01*
G75*
G02*
X138178250Y-100234000I-218750J0D01*
G01*
X137665750Y-100234000D01*
G75*
G02*
X137447000Y-100015250I0J218750D01*
G01*
X137447000Y-99577750D01*
G75*
G02*
X137665750Y-99359000I218750J0D01*
G01*
G37*
G04 #@! TD.AperFunction*
G04 #@! TA.AperFunction,SMDPad,CuDef*
G36*
G01*
X136113810Y-86697300D02*
X136626310Y-86697300D01*
G75*
G02*
X136845060Y-86916050I0J-218750D01*
G01*
X136845060Y-87353550D01*
G75*
G02*
X136626310Y-87572300I-218750J0D01*
G01*
X136113810Y-87572300D01*
G75*
G02*
X135895060Y-87353550I0J218750D01*
G01*
X135895060Y-86916050D01*
G75*
G02*
X136113810Y-86697300I218750J0D01*
G01*
G37*
G04 #@! TD.AperFunction*
G04 #@! TA.AperFunction,SMDPad,CuDef*
G36*
G01*
X136113810Y-85122300D02*
X136626310Y-85122300D01*
G75*
G02*
X136845060Y-85341050I0J-218750D01*
G01*
X136845060Y-85778550D01*
G75*
G02*
X136626310Y-85997300I-218750J0D01*
G01*
X136113810Y-85997300D01*
G75*
G02*
X135895060Y-85778550I0J218750D01*
G01*
X135895060Y-85341050D01*
G75*
G02*
X136113810Y-85122300I218750J0D01*
G01*
G37*
G04 #@! TD.AperFunction*
G04 #@! TA.AperFunction,SMDPad,CuDef*
G36*
G01*
X134287550Y-86684600D02*
X134800050Y-86684600D01*
G75*
G02*
X135018800Y-86903350I0J-218750D01*
G01*
X135018800Y-87340850D01*
G75*
G02*
X134800050Y-87559600I-218750J0D01*
G01*
X134287550Y-87559600D01*
G75*
G02*
X134068800Y-87340850I0J218750D01*
G01*
X134068800Y-86903350D01*
G75*
G02*
X134287550Y-86684600I218750J0D01*
G01*
G37*
G04 #@! TD.AperFunction*
G04 #@! TA.AperFunction,SMDPad,CuDef*
G36*
G01*
X134287550Y-85109600D02*
X134800050Y-85109600D01*
G75*
G02*
X135018800Y-85328350I0J-218750D01*
G01*
X135018800Y-85765850D01*
G75*
G02*
X134800050Y-85984600I-218750J0D01*
G01*
X134287550Y-85984600D01*
G75*
G02*
X134068800Y-85765850I0J218750D01*
G01*
X134068800Y-85328350D01*
G75*
G02*
X134287550Y-85109600I218750J0D01*
G01*
G37*
G04 #@! TD.AperFunction*
G04 #@! TA.AperFunction,SMDPad,CuDef*
G36*
G01*
X135760750Y-100934000D02*
X136273250Y-100934000D01*
G75*
G02*
X136492000Y-101152750I0J-218750D01*
G01*
X136492000Y-101590250D01*
G75*
G02*
X136273250Y-101809000I-218750J0D01*
G01*
X135760750Y-101809000D01*
G75*
G02*
X135542000Y-101590250I0J218750D01*
G01*
X135542000Y-101152750D01*
G75*
G02*
X135760750Y-100934000I218750J0D01*
G01*
G37*
G04 #@! TD.AperFunction*
G04 #@! TA.AperFunction,SMDPad,CuDef*
G36*
G01*
X135760750Y-99359000D02*
X136273250Y-99359000D01*
G75*
G02*
X136492000Y-99577750I0J-218750D01*
G01*
X136492000Y-100015250D01*
G75*
G02*
X136273250Y-100234000I-218750J0D01*
G01*
X135760750Y-100234000D01*
G75*
G02*
X135542000Y-100015250I0J218750D01*
G01*
X135542000Y-99577750D01*
G75*
G02*
X135760750Y-99359000I218750J0D01*
G01*
G37*
G04 #@! TD.AperFunction*
G04 #@! TA.AperFunction,SMDPad,CuDef*
G36*
G01*
X137874030Y-86697300D02*
X138386530Y-86697300D01*
G75*
G02*
X138605280Y-86916050I0J-218750D01*
G01*
X138605280Y-87353550D01*
G75*
G02*
X138386530Y-87572300I-218750J0D01*
G01*
X137874030Y-87572300D01*
G75*
G02*
X137655280Y-87353550I0J218750D01*
G01*
X137655280Y-86916050D01*
G75*
G02*
X137874030Y-86697300I218750J0D01*
G01*
G37*
G04 #@! TD.AperFunction*
G04 #@! TA.AperFunction,SMDPad,CuDef*
G36*
G01*
X137874030Y-85122300D02*
X138386530Y-85122300D01*
G75*
G02*
X138605280Y-85341050I0J-218750D01*
G01*
X138605280Y-85778550D01*
G75*
G02*
X138386530Y-85997300I-218750J0D01*
G01*
X137874030Y-85997300D01*
G75*
G02*
X137655280Y-85778550I0J218750D01*
G01*
X137655280Y-85341050D01*
G75*
G02*
X137874030Y-85122300I218750J0D01*
G01*
G37*
G04 #@! TD.AperFunction*
G04 #@! TA.AperFunction,SMDPad,CuDef*
G36*
G01*
X134368250Y-100234000D02*
X133855750Y-100234000D01*
G75*
G02*
X133637000Y-100015250I0J218750D01*
G01*
X133637000Y-99577750D01*
G75*
G02*
X133855750Y-99359000I218750J0D01*
G01*
X134368250Y-99359000D01*
G75*
G02*
X134587000Y-99577750I0J-218750D01*
G01*
X134587000Y-100015250D01*
G75*
G02*
X134368250Y-100234000I-218750J0D01*
G01*
G37*
G04 #@! TD.AperFunction*
G04 #@! TA.AperFunction,SMDPad,CuDef*
G36*
G01*
X134368250Y-101809000D02*
X133855750Y-101809000D01*
G75*
G02*
X133637000Y-101590250I0J218750D01*
G01*
X133637000Y-101152750D01*
G75*
G02*
X133855750Y-100934000I218750J0D01*
G01*
X134368250Y-100934000D01*
G75*
G02*
X134587000Y-101152750I0J-218750D01*
G01*
X134587000Y-101590250D01*
G75*
G02*
X134368250Y-101809000I-218750J0D01*
G01*
G37*
G04 #@! TD.AperFunction*
D14*
X135890000Y-93345000D03*
X135367874Y-97006254D03*
X135001000Y-84503260D03*
X134526020Y-88259920D03*
X133356184Y-91192311D03*
X133383020Y-88089740D03*
X132760652Y-90632348D03*
X132969000Y-95885000D03*
X134112000Y-98298000D03*
X132080000Y-93345000D03*
X136017000Y-98298000D03*
X139646660Y-85674200D03*
X129692400Y-98399600D03*
X131724400Y-95605600D03*
X143764000Y-103378000D03*
X136231918Y-90634828D03*
X140360400Y-92397580D03*
X137073730Y-97216004D03*
X133798130Y-84767420D03*
X136705340Y-97858580D03*
X139964160Y-97142300D03*
X138874500Y-90789760D03*
X136728200Y-88465660D03*
X141010640Y-89903300D03*
D15*
X136016900Y-101422300D02*
X136042400Y-101396800D01*
X124206000Y-90424000D02*
X123138810Y-90424000D01*
X124206000Y-89154000D02*
X123138810Y-89154000D01*
X124206000Y-87884000D02*
X123138810Y-87884000D01*
X124206000Y-86614000D02*
X123138810Y-86614000D01*
X124206000Y-85344000D02*
X123138810Y-85344000D01*
D16*
X124692446Y-85344000D02*
X124206000Y-85344000D01*
D15*
X127381000Y-82042000D02*
X127381000Y-80974810D01*
X128651000Y-82042000D02*
X128651000Y-80974810D01*
D16*
X129921000Y-82042000D02*
X129921000Y-83820000D01*
D15*
X129921000Y-82042000D02*
X129921000Y-80974810D01*
X131191000Y-82042000D02*
X131191000Y-80974810D01*
X132461000Y-82042000D02*
X132461000Y-80974810D01*
X133731000Y-82042000D02*
X133731000Y-80974810D01*
X133731000Y-104902000D02*
X133731000Y-105969190D01*
X135001000Y-82042000D02*
X135001000Y-80974810D01*
X135001000Y-104902000D02*
X135001000Y-105969190D01*
X136271000Y-82042000D02*
X136271000Y-80974810D01*
X136271000Y-104902000D02*
X136271000Y-105969190D01*
X137541000Y-82042000D02*
X137541000Y-80974810D01*
X137541000Y-104902000D02*
X137541000Y-105969190D01*
X143891000Y-82042000D02*
X143891000Y-80974810D01*
X124206000Y-101854000D02*
X123138810Y-101854000D01*
X124206000Y-100584000D02*
X123138810Y-100584000D01*
X124206000Y-99314000D02*
X123138810Y-99314000D01*
X124206000Y-98044000D02*
X123138810Y-98044000D01*
X124206000Y-96774000D02*
X123138810Y-96774000D01*
X124206000Y-95504000D02*
X123138810Y-95504000D01*
X124206000Y-94234000D02*
X123138810Y-94234000D01*
D16*
X132539764Y-94095000D02*
X132400764Y-94234000D01*
X133640000Y-94095000D02*
X132539764Y-94095000D01*
D15*
X124206000Y-92964000D02*
X123138810Y-92964000D01*
X124206000Y-91694000D02*
X123138810Y-91694000D01*
D16*
X133636000Y-93599000D02*
X133640000Y-93595000D01*
D15*
X138811000Y-82042000D02*
X138811000Y-80974810D01*
D16*
X138828828Y-82059828D02*
X138811000Y-82042000D01*
D15*
X140081000Y-82042000D02*
X140081000Y-80974810D01*
X136017000Y-101371500D02*
X137922000Y-101371500D01*
X132765800Y-85547100D02*
X134543800Y-85547100D01*
X136296300Y-85547100D02*
X136321800Y-85572600D01*
X134543800Y-85547100D02*
X136296300Y-85547100D01*
X136321800Y-85572600D02*
X138099800Y-85572600D01*
X135026500Y-101371500D02*
X136017000Y-101371500D01*
X134112000Y-101371500D02*
X135026500Y-101371500D01*
X136140000Y-93595000D02*
X136140000Y-94595000D01*
X135890000Y-93345000D02*
X136080500Y-93154500D01*
D16*
X136140000Y-93095000D02*
X136080500Y-93154500D01*
D15*
X135890000Y-93345000D02*
X135640000Y-93095000D01*
X135890000Y-93345000D02*
X135640000Y-93595000D01*
X135890000Y-93345000D02*
X136140000Y-93595000D01*
D16*
X134640000Y-92595000D02*
X134640000Y-92743062D01*
X134640000Y-92743062D02*
X134889240Y-92992302D01*
X134889240Y-92992302D02*
X134889240Y-93197680D01*
X135039159Y-93347599D02*
X135392599Y-93347599D01*
X134889240Y-93197680D02*
X135039159Y-93347599D01*
X135392599Y-93347599D02*
X135640000Y-93595000D01*
D15*
X136640000Y-92595000D02*
X136140000Y-93095000D01*
X135001000Y-85089900D02*
X134543800Y-85547100D01*
X135001000Y-82042000D02*
X135001000Y-83197700D01*
X136140000Y-94595000D02*
X136140000Y-96234128D01*
X136140000Y-96234128D02*
X135367874Y-97006254D01*
X135026500Y-97347628D02*
X135026500Y-101371500D01*
X135367874Y-97006254D02*
X135026500Y-97347628D01*
X135001000Y-83197700D02*
X135001000Y-84503260D01*
X135001000Y-84503260D02*
X135001000Y-85089900D01*
X141351000Y-82042000D02*
X141351000Y-80974810D01*
X147066000Y-101854000D02*
X148133190Y-101854000D01*
D16*
X134526020Y-87139880D02*
X134543800Y-87122100D01*
X134526020Y-88259920D02*
X134526020Y-87139880D01*
X133927097Y-91441177D02*
X133851194Y-91441177D01*
X133602328Y-91192311D02*
X133356184Y-91192311D01*
X134293823Y-91883805D02*
X134293823Y-91807903D01*
X134293823Y-91807903D02*
X133927097Y-91441177D01*
X134887401Y-92703081D02*
X134887401Y-92490084D01*
X134387401Y-92203083D02*
X134387401Y-91977384D01*
X134887401Y-92490084D02*
X134744916Y-92347599D01*
X134531917Y-92347599D02*
X134387401Y-92203083D01*
X135140000Y-93095000D02*
X135140000Y-92955680D01*
X135140000Y-92955680D02*
X134887401Y-92703081D01*
X134744916Y-92347599D02*
X134531917Y-92347599D01*
X133851194Y-91441177D02*
X133602328Y-91192311D01*
X134387401Y-91977384D02*
X134293823Y-91883805D01*
X134543800Y-86684600D02*
X134886721Y-86341679D01*
X134543800Y-87122100D02*
X134543800Y-86684600D01*
X138757690Y-85187307D02*
X136271000Y-82700617D01*
X134886721Y-86341679D02*
X138348303Y-86341679D01*
X138348303Y-86341679D02*
X138757690Y-85932292D01*
X138757690Y-85932292D02*
X138757690Y-85187307D01*
X136271000Y-82700617D02*
X136271000Y-82042000D01*
D15*
X147066000Y-100584000D02*
X148133190Y-100584000D01*
D16*
X133383020Y-88089740D02*
X132765800Y-87122100D01*
X132760652Y-91227903D02*
X132760652Y-90632348D01*
X134090612Y-91892075D02*
X133842925Y-91644388D01*
X133767024Y-91644388D02*
X133717357Y-91594721D01*
X134090612Y-92045612D02*
X134090612Y-91892075D01*
X133717357Y-91594721D02*
X133127471Y-91594722D01*
X134140000Y-92095000D02*
X134090612Y-92045612D01*
X133842925Y-91644388D02*
X133767024Y-91644388D01*
X133127471Y-91594722D02*
X132760652Y-91227903D01*
D15*
X147066000Y-85344000D02*
X148133190Y-85344000D01*
D16*
X134140000Y-94595000D02*
X132969000Y-95766000D01*
X132969000Y-95766000D02*
X132969000Y-95885000D01*
X134112000Y-98298000D02*
X134112000Y-99796500D01*
D15*
X147066000Y-87884000D02*
X148133190Y-87884000D01*
D16*
X136017000Y-98298000D02*
X136017000Y-99796500D01*
X135140000Y-93595000D02*
X134999177Y-93595000D01*
X134749177Y-93345000D02*
X132080000Y-93345000D01*
X134999177Y-93595000D02*
X134749177Y-93345000D01*
D15*
X147066000Y-99314000D02*
X148133190Y-99314000D01*
D16*
X139646660Y-85674200D02*
X138186060Y-87134800D01*
X138186060Y-87134800D02*
X138130280Y-87134800D01*
X124705999Y-96274001D02*
X124206000Y-96774000D01*
X133640000Y-93595000D02*
X132425556Y-93595000D01*
X127232598Y-93747402D02*
X124705999Y-96274001D01*
X132425556Y-93595000D02*
X132273154Y-93747402D01*
X132273154Y-93747402D02*
X127232598Y-93747402D01*
X134140000Y-93595000D02*
X133887401Y-93847599D01*
X133887401Y-93847599D02*
X132460340Y-93847599D01*
X132460340Y-93847599D02*
X132357326Y-93950613D01*
X132357326Y-93950613D02*
X128299387Y-93950613D01*
X128299387Y-93950613D02*
X124705999Y-97544001D01*
X124705999Y-97544001D02*
X124206000Y-98044000D01*
X132400764Y-94234000D02*
X132400764Y-94243436D01*
X132400764Y-94243436D02*
X129260600Y-97383600D01*
X126136400Y-97383600D02*
X124206000Y-99314000D01*
X129260600Y-97383600D02*
X126136400Y-97383600D01*
X124705999Y-100084001D02*
X124206000Y-100584000D01*
X126956820Y-97833180D02*
X124705999Y-100084001D01*
X130345180Y-97833180D02*
X126956820Y-97833180D01*
X131461000Y-96639650D02*
X130345180Y-97833180D01*
X133505650Y-94595000D02*
X131461000Y-96639650D01*
X133640000Y-94595000D02*
X133505650Y-94595000D01*
X126584746Y-99834700D02*
X126578360Y-99834700D01*
X124559060Y-101854000D02*
X124206000Y-101854000D01*
X126578360Y-99834700D02*
X124559060Y-101854000D01*
X127939800Y-98475800D02*
X126584746Y-99834700D01*
X129692400Y-98399600D02*
X128092200Y-98399600D01*
X134140000Y-94095000D02*
X133892599Y-94342401D01*
X133892599Y-94342401D02*
X132987599Y-94342401D01*
X132987599Y-94342401D02*
X131724400Y-95605600D01*
X127939800Y-98475800D02*
X128016000Y-98399600D01*
X128016000Y-98399600D02*
X128092200Y-98399600D01*
X134387401Y-93867787D02*
X134387401Y-94207519D01*
X134387401Y-93847599D02*
X134387401Y-94128401D01*
X134640000Y-93595000D02*
X134387401Y-93847599D01*
X134387401Y-93976247D02*
X134387401Y-94128401D01*
D15*
X127381000Y-104902000D02*
X127381000Y-105969190D01*
D16*
X130429000Y-101854000D02*
X127381000Y-104902000D01*
X130429000Y-98806000D02*
X130429000Y-101854000D01*
X132937176Y-96512380D02*
X130429000Y-98806000D01*
X134387401Y-95062155D02*
X132937176Y-96512380D01*
X134387401Y-94128401D02*
X134387401Y-95062155D01*
D15*
X128651000Y-104902000D02*
X128651000Y-105969190D01*
D16*
X130784578Y-99085422D02*
X130784578Y-102768422D01*
X134640000Y-95230000D02*
X130784578Y-99085422D01*
X134640000Y-94595000D02*
X134640000Y-95230000D01*
X130784578Y-102768422D02*
X128651000Y-104902000D01*
D15*
X129921000Y-104902000D02*
X129921000Y-105969190D01*
D16*
X134640000Y-94095000D02*
X134887401Y-94342401D01*
X130987789Y-99263211D02*
X130987789Y-103835211D01*
X134887401Y-94342401D02*
X134887401Y-95363599D01*
X134887401Y-95363599D02*
X130987789Y-99263211D01*
X130987789Y-103835211D02*
X129921000Y-104902000D01*
D15*
X131191000Y-104902000D02*
X131191000Y-105969190D01*
D16*
X135140000Y-94595000D02*
X135140000Y-95492000D01*
X131191000Y-99441000D02*
X131191000Y-104902000D01*
X135140000Y-95492000D02*
X131191000Y-99441000D01*
D15*
X132461000Y-104902000D02*
X132461000Y-105969190D01*
D16*
X135387401Y-94342401D02*
X135387401Y-95625599D01*
X135140000Y-94095000D02*
X135387401Y-94342401D01*
X135387401Y-95625599D02*
X132461000Y-98552000D01*
X132461000Y-98552000D02*
X132461000Y-104902000D01*
X135640000Y-94595000D02*
X135640000Y-95754000D01*
X135640000Y-95754000D02*
X132715000Y-98679000D01*
X132715000Y-103886000D02*
X133731000Y-104902000D01*
X132715000Y-98679000D02*
X132715000Y-103886000D01*
X132969000Y-98806000D02*
X132969000Y-102870000D01*
X132969000Y-102870000D02*
X135001000Y-104902000D01*
X135890000Y-95885000D02*
X132969000Y-98806000D01*
X135890000Y-94345000D02*
X135890000Y-95885000D01*
X135640000Y-94095000D02*
X135890000Y-94345000D01*
X136640000Y-94095000D02*
X136775577Y-94230577D01*
D15*
X143891000Y-104902000D02*
X143891000Y-105969190D01*
D16*
X143764000Y-104775000D02*
X143891000Y-104902000D01*
X143764000Y-103378000D02*
X143764000Y-104775000D01*
X136521247Y-92342401D02*
X136392599Y-92213753D01*
X137140000Y-93095000D02*
X136892599Y-92847599D01*
X136892599Y-92847599D02*
X136892599Y-92493761D01*
X136741239Y-92342401D02*
X136521247Y-92342401D01*
X136392599Y-92213753D02*
X136392599Y-90795509D01*
X136392599Y-90795509D02*
X136231918Y-90634828D01*
X136892599Y-92493761D02*
X136741239Y-92342401D01*
X132461000Y-82042000D02*
X131961001Y-82541999D01*
X132355808Y-87712010D02*
X132421090Y-87712010D01*
X132421090Y-87712010D02*
X134076531Y-89367451D01*
X136568294Y-90232418D02*
X136639289Y-90303413D01*
X134076531Y-89367451D02*
X134152441Y-89367457D01*
X131961001Y-87317203D02*
X132355808Y-87712010D01*
X131961001Y-82541999D02*
X131961001Y-87317203D01*
X135017402Y-90232418D02*
X136568294Y-90232418D01*
X136639289Y-92094289D02*
X136640000Y-92095000D01*
X136639289Y-90303413D02*
X136639289Y-92094289D01*
X134152441Y-89367457D02*
X135017402Y-90232418D01*
X136140000Y-92095000D02*
X136140000Y-91642399D01*
X134068256Y-89570655D02*
X133992352Y-89570655D01*
X131191000Y-82749106D02*
X131191000Y-82042000D01*
X133992352Y-89570655D02*
X132336918Y-87915221D01*
X131325639Y-82883745D02*
X131191000Y-82749106D01*
X132271636Y-87915221D02*
X131325639Y-86969224D01*
X131325639Y-86969224D02*
X131325639Y-82883745D01*
X136140000Y-91642399D02*
X134068256Y-89570655D01*
X132336918Y-87915221D02*
X132271636Y-87915221D01*
X131122429Y-85208665D02*
X131122429Y-85211929D01*
X129921000Y-84007236D02*
X131122429Y-85208665D01*
X129921000Y-83820000D02*
X129921000Y-84007236D01*
X136140000Y-92595000D02*
X135892599Y-92347599D01*
X133908186Y-89773871D02*
X132252747Y-88118432D01*
X132187464Y-88118432D02*
X131122429Y-87053397D01*
X132252747Y-88118432D02*
X132187464Y-88118432D01*
X135892599Y-92347599D02*
X135892599Y-91682381D01*
X133984089Y-89773871D02*
X133908186Y-89773871D01*
X131122429Y-87053397D02*
X131122429Y-85208665D01*
X135892599Y-91682381D02*
X133984089Y-89773871D01*
X130919218Y-87137569D02*
X132103292Y-88321643D01*
X132103292Y-88321643D02*
X132168575Y-88321643D01*
X128651000Y-82042000D02*
X128651000Y-83024618D01*
X132168575Y-88321643D02*
X133823991Y-89977059D01*
X130919218Y-85292835D02*
X130919218Y-87137569D01*
X128651000Y-83024618D02*
X130919218Y-85292835D01*
X133823991Y-89977059D02*
X133899894Y-89977059D01*
X133899894Y-89977059D02*
X135640000Y-91717165D01*
X135640000Y-91717165D02*
X135640000Y-92095000D01*
X127381000Y-82042000D02*
X130716007Y-85377007D01*
X135392599Y-92347599D02*
X135640000Y-92595000D01*
X130716007Y-87221741D02*
X132019120Y-88524854D01*
X132084402Y-88524854D02*
X133739841Y-90180293D01*
X132019120Y-88524854D02*
X132084402Y-88524854D01*
X133815745Y-90180293D02*
X135392599Y-91757147D01*
X130716007Y-85377007D02*
X130716007Y-87221741D01*
X133739841Y-90180293D02*
X133815745Y-90180293D01*
X135392599Y-91757147D02*
X135392599Y-92347599D01*
X131731738Y-88524854D02*
X131934948Y-88728065D01*
X133656038Y-90383873D02*
X133731942Y-90383873D01*
X124206000Y-85344000D02*
X127386854Y-88524854D01*
X127386854Y-88524854D02*
X131731738Y-88524854D01*
X133731942Y-90383873D02*
X135140000Y-91791931D01*
X131934948Y-88728065D02*
X132000230Y-88728065D01*
X132000230Y-88728065D02*
X133656038Y-90383873D01*
X135140000Y-91791931D02*
X135140000Y-92095000D01*
X134889240Y-91828554D02*
X134889240Y-92204541D01*
X133649112Y-90588426D02*
X134889240Y-91828554D01*
X124206000Y-86614000D02*
X126320065Y-88728065D01*
X131916058Y-88931276D02*
X133573208Y-90588426D01*
X133573208Y-90588426D02*
X133649112Y-90588426D01*
X131850776Y-88931276D02*
X131916058Y-88931276D01*
X131647566Y-88728065D02*
X131850776Y-88931276D01*
X126320065Y-88728065D02*
X131647566Y-88728065D01*
X134889240Y-92204541D02*
X135140000Y-92455301D01*
X135140000Y-92455301D02*
X135140000Y-92595000D01*
X125270280Y-88948280D02*
X124705999Y-88383999D01*
X134640000Y-91866697D02*
X133566280Y-90792977D01*
X134640000Y-92095000D02*
X134640000Y-91866697D01*
X133566280Y-90792977D02*
X133490376Y-90792977D01*
X131831886Y-89134487D02*
X131766604Y-89134487D01*
X131766604Y-89134487D02*
X131580398Y-88948280D01*
X124705999Y-88383999D02*
X124206000Y-87884000D01*
X131580398Y-88948280D02*
X125270280Y-88948280D01*
X133490376Y-90792977D02*
X131831886Y-89134487D01*
X134640000Y-93095000D02*
X134392599Y-92847599D01*
X126849932Y-91797932D02*
X124705999Y-89653999D01*
X133887401Y-92203461D02*
X133887401Y-91976247D01*
X134031539Y-92347599D02*
X133887401Y-92203461D01*
X133679981Y-91847599D02*
X133630315Y-91797933D01*
X133630315Y-91797933D02*
X126849932Y-91797932D01*
X133758753Y-91847599D02*
X133679981Y-91847599D01*
X134392599Y-92847599D02*
X134392599Y-92495662D01*
X124705999Y-89653999D02*
X124206000Y-89154000D01*
X134392599Y-92495662D02*
X134244537Y-92347599D01*
X134244537Y-92347599D02*
X134031539Y-92347599D01*
X133887401Y-91976247D02*
X133758753Y-91847599D01*
X133546143Y-92001143D02*
X125783143Y-92001143D01*
X124705999Y-90923999D02*
X124206000Y-90424000D01*
X133640000Y-92095000D02*
X133546143Y-92001143D01*
X125783143Y-92001143D02*
X124705999Y-90923999D01*
X124705999Y-92193999D02*
X124206000Y-91694000D01*
X134140000Y-92595000D02*
X133991558Y-92595000D01*
X133744157Y-92347599D02*
X133521247Y-92347599D01*
X133378002Y-92204354D02*
X124716354Y-92204354D01*
X124716354Y-92204354D02*
X124705999Y-92193999D01*
X133521247Y-92347599D02*
X133378002Y-92204354D01*
X133991558Y-92595000D02*
X133744157Y-92347599D01*
X133481265Y-92595000D02*
X133350266Y-92464001D01*
X133640000Y-92595000D02*
X133481265Y-92595000D01*
X133350266Y-92464001D02*
X124705999Y-92464001D01*
X124705999Y-92464001D02*
X124206000Y-92964000D01*
X134140000Y-93095000D02*
X133887401Y-92842401D01*
X125730000Y-92710000D02*
X124206000Y-94234000D01*
X132327938Y-92710000D02*
X125730000Y-92710000D01*
X133887401Y-92842401D02*
X132460339Y-92842401D01*
X132460339Y-92842401D02*
X132327938Y-92710000D01*
X132425556Y-93095000D02*
X132273154Y-92942598D01*
X133640000Y-93095000D02*
X132425556Y-93095000D01*
X126767401Y-92942599D02*
X124206000Y-95504000D01*
X132273154Y-92942598D02*
X126767401Y-92942599D01*
D15*
X142621000Y-82042000D02*
X142621000Y-80974810D01*
D16*
X138140000Y-92595000D02*
X140057000Y-90678000D01*
X145542000Y-90678000D02*
X147066000Y-89154000D01*
X140057000Y-90678000D02*
X145542000Y-90678000D01*
X145835446Y-91694000D02*
X147066000Y-91694000D01*
X140247446Y-91694000D02*
X145835446Y-91694000D01*
X138846446Y-93095000D02*
X140247446Y-91694000D01*
X138140000Y-93095000D02*
X138846446Y-93095000D01*
X146427000Y-93595000D02*
X147066000Y-94234000D01*
X138140000Y-93595000D02*
X146427000Y-93595000D01*
X137640000Y-93095000D02*
X137887401Y-92847599D01*
X137887401Y-92847599D02*
X138546401Y-92847599D01*
X146608790Y-90881210D02*
X147066000Y-90424000D01*
X140512790Y-90881210D02*
X146608790Y-90881210D01*
X138546401Y-92847599D02*
X140512790Y-90881210D01*
D15*
X138811000Y-104902000D02*
X138811000Y-105969190D01*
X140081000Y-104902000D02*
X140081000Y-105969190D01*
X141351000Y-104902000D02*
X141351000Y-105969190D01*
X142621000Y-104902000D02*
X142621000Y-105969190D01*
X147066000Y-89154000D02*
X148133190Y-89154000D01*
X147066000Y-91694000D02*
X148133190Y-91694000D01*
X147066000Y-94234000D02*
X148133190Y-94234000D01*
X147066000Y-96774000D02*
X148133190Y-96774000D01*
D16*
X138140000Y-94095000D02*
X144387000Y-94095000D01*
X144387000Y-94095000D02*
X147066000Y-96774000D01*
D15*
X147066000Y-90424000D02*
X148133190Y-90424000D01*
X147066000Y-95504000D02*
X148133190Y-95504000D01*
D16*
X145404401Y-93842401D02*
X138033701Y-93842401D01*
X147066000Y-95504000D02*
X145404401Y-93842401D01*
X138033701Y-93842401D02*
X137786300Y-93595000D01*
X137786300Y-93595000D02*
X137640000Y-93595000D01*
X140487422Y-86416583D02*
X140487422Y-84175578D01*
X137640000Y-92595000D02*
X137392599Y-92347599D01*
X137392599Y-92347599D02*
X137392599Y-89511406D01*
X137392599Y-89511406D02*
X140487422Y-86416583D01*
X140487422Y-84175578D02*
X142621000Y-82042000D01*
X137640000Y-92095000D02*
X137640000Y-91428704D01*
X137640000Y-91428704D02*
X140690633Y-88378071D01*
X143391001Y-82541999D02*
X143891000Y-82042000D01*
X140690633Y-88378071D02*
X140690633Y-85242367D01*
X140690633Y-85242367D02*
X143391001Y-82541999D01*
D15*
X147066000Y-92964000D02*
X148133190Y-92964000D01*
D16*
X137140000Y-92453780D02*
X136887401Y-92201181D01*
X136842500Y-91931346D02*
X136842500Y-89404802D01*
X137140000Y-92595000D02*
X137140000Y-92453780D01*
X136887401Y-91976247D02*
X136842500Y-91931346D01*
X136887401Y-92201181D02*
X136887401Y-91976247D01*
X140081000Y-86183982D02*
X140081000Y-82042000D01*
X136860180Y-89404802D02*
X140081000Y-86183982D01*
X136842500Y-89404802D02*
X136860180Y-89404802D01*
X137140000Y-92095000D02*
X137140000Y-89412365D01*
X137140000Y-89412365D02*
X140284211Y-86268154D01*
X140284211Y-86268154D02*
X140284211Y-83108789D01*
X140284211Y-83108789D02*
X141351000Y-82042000D01*
D15*
X147066000Y-86614000D02*
X148133190Y-86614000D01*
D16*
X139306359Y-93342401D02*
X136887401Y-93342401D01*
X139646660Y-93002100D02*
X139306359Y-93342401D01*
X136887401Y-93342401D02*
X136640000Y-93095000D01*
X140360400Y-92397580D02*
X139646660Y-93002100D01*
X136640000Y-96211115D02*
X138549409Y-98120524D01*
X136640000Y-94595000D02*
X136640000Y-96211115D01*
X138549409Y-102623591D02*
X136271000Y-104902000D01*
X138549409Y-98120524D02*
X138549409Y-102623591D01*
X138752620Y-103690380D02*
X137541000Y-104902000D01*
X136640000Y-94095000D02*
X136887401Y-94342401D01*
X136887400Y-96171131D02*
X138752620Y-98036351D01*
X138752620Y-98036351D02*
X138752620Y-103690380D01*
X136887401Y-94342401D02*
X136887400Y-96171131D01*
X136640000Y-93595000D02*
X136387401Y-93847599D01*
X136387401Y-93847599D02*
X136387401Y-96529675D01*
X136387401Y-96529675D02*
X137073730Y-97216004D01*
X133731000Y-84700290D02*
X133798130Y-84767420D01*
X133731000Y-82042000D02*
X133731000Y-84700290D01*
X137140000Y-94595000D02*
X137140000Y-96136349D01*
X139310999Y-98307348D02*
X139310999Y-104402001D01*
X139310999Y-104402001D02*
X138811000Y-104902000D01*
X137140000Y-96136349D02*
X139310999Y-98307348D01*
X137140000Y-94095000D02*
X137387401Y-94342401D01*
X137387401Y-96096366D02*
X140081000Y-98789965D01*
X137387401Y-94342401D02*
X137387401Y-96096366D01*
X140081000Y-98789965D02*
X140081000Y-104902000D01*
X140639789Y-99061372D02*
X140639789Y-104190789D01*
X137640000Y-96061583D02*
X140639789Y-99061372D01*
X137640000Y-94595000D02*
X137640000Y-96061583D01*
X140639789Y-104190789D02*
X141351000Y-104902000D01*
X140843000Y-98977199D02*
X140843000Y-103124000D01*
X137640000Y-94095000D02*
X137640000Y-94241922D01*
X137640000Y-94241922D02*
X137887401Y-94489323D01*
X137887401Y-94489323D02*
X137887401Y-96021600D01*
X137887401Y-96021600D02*
X140843000Y-98977199D01*
X140843000Y-103124000D02*
X142621000Y-104902000D01*
D15*
X147066000Y-98044000D02*
X148133190Y-98044000D01*
D16*
X138033059Y-94347599D02*
X143369599Y-94347599D01*
X137891520Y-94206060D02*
X138033059Y-94347599D01*
X137751516Y-93847599D02*
X137891520Y-93987603D01*
X137891520Y-93987603D02*
X137891520Y-94206060D01*
X143369599Y-94347599D02*
X147066000Y-98044000D01*
X137392599Y-93847599D02*
X137751516Y-93847599D01*
X137140000Y-93595000D02*
X137392599Y-93847599D01*
X142347000Y-94595000D02*
X147066000Y-99314000D01*
X138140000Y-94595000D02*
X142347000Y-94595000D01*
X137922000Y-99075240D02*
X136705340Y-97858580D01*
X137922000Y-99796500D02*
X137922000Y-99075240D01*
X138140000Y-95318140D02*
X138140000Y-94595000D01*
X139964160Y-97142300D02*
X138140000Y-95318140D01*
X137541000Y-82042000D02*
X138960901Y-83461901D01*
X136959970Y-86544890D02*
X136370060Y-87134800D01*
X138960901Y-83461901D02*
X138960901Y-86016797D01*
X138960901Y-86016797D02*
X138432808Y-86544890D01*
X138432808Y-86544890D02*
X136959970Y-86544890D01*
X138140000Y-91524260D02*
X138874500Y-90789760D01*
X138140000Y-92095000D02*
X138140000Y-91524260D01*
X136728200Y-87492940D02*
X136370060Y-87134800D01*
X136728200Y-88465660D02*
X136728200Y-87492940D01*
X139760960Y-89903300D02*
X138874500Y-90789760D01*
X141010640Y-89903300D02*
X139760960Y-89903300D01*
D17*
X134239000Y-101244500D02*
X135063250Y-101244500D01*
X135064500Y-101243250D01*
X135065750Y-101244500D01*
X135890000Y-101244500D01*
X135890000Y-101224500D01*
X136144000Y-101224500D01*
X136144000Y-101244500D01*
X136968250Y-101244500D01*
X136969500Y-101243250D01*
X136970750Y-101244500D01*
X137795000Y-101244500D01*
X137795000Y-101224500D01*
X137863610Y-101224500D01*
X137863610Y-101518500D01*
X137795000Y-101518500D01*
X137795000Y-101498500D01*
X136970750Y-101498500D01*
X136969500Y-101499750D01*
X136968250Y-101498500D01*
X136144000Y-101498500D01*
X136144000Y-102285250D01*
X136302750Y-102444000D01*
X136492000Y-102447072D01*
X136616482Y-102434812D01*
X136736180Y-102398502D01*
X136846494Y-102339537D01*
X136943185Y-102260185D01*
X136969500Y-102228120D01*
X136995815Y-102260185D01*
X137092506Y-102339537D01*
X137202820Y-102398502D01*
X137322518Y-102434812D01*
X137447000Y-102447072D01*
X137636250Y-102444000D01*
X137794998Y-102285252D01*
X137794998Y-102408134D01*
X136427282Y-103775850D01*
X136382788Y-103767000D01*
X136159212Y-103767000D01*
X135939933Y-103810617D01*
X135733376Y-103896176D01*
X135636000Y-103961241D01*
X135538624Y-103896176D01*
X135332067Y-103810617D01*
X135112788Y-103767000D01*
X134889212Y-103767000D01*
X134844718Y-103775850D01*
X133654800Y-102585933D01*
X133654800Y-102446783D01*
X133826250Y-102444000D01*
X133985000Y-102285250D01*
X133985000Y-101498500D01*
X134239000Y-101498500D01*
X134239000Y-102285250D01*
X134397750Y-102444000D01*
X134587000Y-102447072D01*
X134711482Y-102434812D01*
X134831180Y-102398502D01*
X134941494Y-102339537D01*
X135038185Y-102260185D01*
X135064500Y-102228120D01*
X135090815Y-102260185D01*
X135187506Y-102339537D01*
X135297820Y-102398502D01*
X135417518Y-102434812D01*
X135542000Y-102447072D01*
X135731250Y-102444000D01*
X135890000Y-102285250D01*
X135890000Y-101498500D01*
X135065750Y-101498500D01*
X135064500Y-101499750D01*
X135063250Y-101498500D01*
X134239000Y-101498500D01*
X133985000Y-101498500D01*
X133965000Y-101498500D01*
X133965000Y-101244500D01*
X133985000Y-101244500D01*
X133985000Y-101224500D01*
X134239000Y-101224500D01*
X134239000Y-101244500D01*
G04 #@! TA.AperFunction,Conductor*
D18*
G36*
X134239000Y-101244500D02*
G01*
X135063250Y-101244500D01*
X135064500Y-101243250D01*
X135065750Y-101244500D01*
X135890000Y-101244500D01*
X135890000Y-101224500D01*
X136144000Y-101224500D01*
X136144000Y-101244500D01*
X136968250Y-101244500D01*
X136969500Y-101243250D01*
X136970750Y-101244500D01*
X137795000Y-101244500D01*
X137795000Y-101224500D01*
X137863610Y-101224500D01*
X137863610Y-101518500D01*
X137795000Y-101518500D01*
X137795000Y-101498500D01*
X136970750Y-101498500D01*
X136969500Y-101499750D01*
X136968250Y-101498500D01*
X136144000Y-101498500D01*
X136144000Y-102285250D01*
X136302750Y-102444000D01*
X136492000Y-102447072D01*
X136616482Y-102434812D01*
X136736180Y-102398502D01*
X136846494Y-102339537D01*
X136943185Y-102260185D01*
X136969500Y-102228120D01*
X136995815Y-102260185D01*
X137092506Y-102339537D01*
X137202820Y-102398502D01*
X137322518Y-102434812D01*
X137447000Y-102447072D01*
X137636250Y-102444000D01*
X137794998Y-102285252D01*
X137794998Y-102408134D01*
X136427282Y-103775850D01*
X136382788Y-103767000D01*
X136159212Y-103767000D01*
X135939933Y-103810617D01*
X135733376Y-103896176D01*
X135636000Y-103961241D01*
X135538624Y-103896176D01*
X135332067Y-103810617D01*
X135112788Y-103767000D01*
X134889212Y-103767000D01*
X134844718Y-103775850D01*
X133654800Y-102585933D01*
X133654800Y-102446783D01*
X133826250Y-102444000D01*
X133985000Y-102285250D01*
X133985000Y-101498500D01*
X134239000Y-101498500D01*
X134239000Y-102285250D01*
X134397750Y-102444000D01*
X134587000Y-102447072D01*
X134711482Y-102434812D01*
X134831180Y-102398502D01*
X134941494Y-102339537D01*
X135038185Y-102260185D01*
X135064500Y-102228120D01*
X135090815Y-102260185D01*
X135187506Y-102339537D01*
X135297820Y-102398502D01*
X135417518Y-102434812D01*
X135542000Y-102447072D01*
X135731250Y-102444000D01*
X135890000Y-102285250D01*
X135890000Y-101498500D01*
X135065750Y-101498500D01*
X135064500Y-101499750D01*
X135063250Y-101498500D01*
X134239000Y-101498500D01*
X133985000Y-101498500D01*
X133965000Y-101498500D01*
X133965000Y-101244500D01*
X133985000Y-101244500D01*
X133985000Y-101224500D01*
X134239000Y-101224500D01*
X134239000Y-101244500D01*
G37*
G04 #@! TD.AperFunction*
D17*
X135128000Y-81915000D02*
X135139026Y-81915000D01*
X135136000Y-81930212D01*
X135136000Y-82153788D01*
X135139026Y-82169000D01*
X135128000Y-82169000D01*
X135128000Y-83009954D01*
X135302874Y-83136119D01*
X135357864Y-83119446D01*
X135561206Y-83029123D01*
X135631342Y-82979647D01*
X135648738Y-82991271D01*
X135698019Y-83083469D01*
X135783720Y-83187896D01*
X135809887Y-83209371D01*
X137183925Y-84583409D01*
X137089240Y-84532798D01*
X136969542Y-84496488D01*
X136845060Y-84484228D01*
X136655810Y-84487300D01*
X136497060Y-84646050D01*
X136497060Y-85432800D01*
X138003280Y-85432800D01*
X138003280Y-85412800D01*
X138013316Y-85412800D01*
X138071890Y-85471374D01*
X138071890Y-85648226D01*
X138064236Y-85655879D01*
X134920410Y-85655879D01*
X134886721Y-85652561D01*
X134752280Y-85665802D01*
X134724925Y-85674100D01*
X134670800Y-85674100D01*
X134670800Y-85690519D01*
X134658995Y-85694100D01*
X134416800Y-85694100D01*
X134416800Y-85674100D01*
X134396800Y-85674100D01*
X134396800Y-85420329D01*
X134397029Y-85420100D01*
X134416800Y-85420100D01*
X134416800Y-85400329D01*
X134417029Y-85400100D01*
X134670800Y-85400100D01*
X134670800Y-85420100D01*
X135406110Y-85420100D01*
X135418810Y-85432800D01*
X136243060Y-85432800D01*
X136243060Y-84646050D01*
X136084310Y-84487300D01*
X135895060Y-84484228D01*
X135770578Y-84496488D01*
X135650880Y-84532798D01*
X135540566Y-84591763D01*
X135464668Y-84654051D01*
X135373294Y-84579063D01*
X135262980Y-84520098D01*
X135143282Y-84483788D01*
X135018800Y-84471528D01*
X134829550Y-84474600D01*
X134673302Y-84630848D01*
X134670802Y-84618279D01*
X134670802Y-84474600D01*
X134634757Y-84474600D01*
X134582407Y-84348215D01*
X134485554Y-84203265D01*
X134416800Y-84134511D01*
X134416800Y-83012197D01*
X134440794Y-83029123D01*
X134644136Y-83119446D01*
X134699126Y-83136119D01*
X134874000Y-83009954D01*
X134874000Y-82169000D01*
X134862974Y-82169000D01*
X134866000Y-82153788D01*
X134866000Y-81930212D01*
X134862974Y-81915000D01*
X134874000Y-81915000D01*
X134874000Y-81895000D01*
X135128000Y-81895000D01*
X135128000Y-81915000D01*
G04 #@! TA.AperFunction,Conductor*
D18*
G36*
X135128000Y-81915000D02*
G01*
X135139026Y-81915000D01*
X135136000Y-81930212D01*
X135136000Y-82153788D01*
X135139026Y-82169000D01*
X135128000Y-82169000D01*
X135128000Y-83009954D01*
X135302874Y-83136119D01*
X135357864Y-83119446D01*
X135561206Y-83029123D01*
X135631342Y-82979647D01*
X135648738Y-82991271D01*
X135698019Y-83083469D01*
X135783720Y-83187896D01*
X135809887Y-83209371D01*
X137183925Y-84583409D01*
X137089240Y-84532798D01*
X136969542Y-84496488D01*
X136845060Y-84484228D01*
X136655810Y-84487300D01*
X136497060Y-84646050D01*
X136497060Y-85432800D01*
X138003280Y-85432800D01*
X138003280Y-85412800D01*
X138013316Y-85412800D01*
X138071890Y-85471374D01*
X138071890Y-85648226D01*
X138064236Y-85655879D01*
X134920410Y-85655879D01*
X134886721Y-85652561D01*
X134752280Y-85665802D01*
X134724925Y-85674100D01*
X134670800Y-85674100D01*
X134670800Y-85690519D01*
X134658995Y-85694100D01*
X134416800Y-85694100D01*
X134416800Y-85674100D01*
X134396800Y-85674100D01*
X134396800Y-85420329D01*
X134397029Y-85420100D01*
X134416800Y-85420100D01*
X134416800Y-85400329D01*
X134417029Y-85400100D01*
X134670800Y-85400100D01*
X134670800Y-85420100D01*
X135406110Y-85420100D01*
X135418810Y-85432800D01*
X136243060Y-85432800D01*
X136243060Y-84646050D01*
X136084310Y-84487300D01*
X135895060Y-84484228D01*
X135770578Y-84496488D01*
X135650880Y-84532798D01*
X135540566Y-84591763D01*
X135464668Y-84654051D01*
X135373294Y-84579063D01*
X135262980Y-84520098D01*
X135143282Y-84483788D01*
X135018800Y-84471528D01*
X134829550Y-84474600D01*
X134673302Y-84630848D01*
X134670802Y-84618279D01*
X134670802Y-84474600D01*
X134634757Y-84474600D01*
X134582407Y-84348215D01*
X134485554Y-84203265D01*
X134416800Y-84134511D01*
X134416800Y-83012197D01*
X134440794Y-83029123D01*
X134644136Y-83119446D01*
X134699126Y-83136119D01*
X134874000Y-83009954D01*
X134874000Y-82169000D01*
X134862974Y-82169000D01*
X134866000Y-82153788D01*
X134866000Y-81930212D01*
X134862974Y-81915000D01*
X134874000Y-81915000D01*
X134874000Y-81895000D01*
X135128000Y-81895000D01*
X135128000Y-81915000D01*
G37*
G04 #@! TD.AperFunction*
D17*
X133045201Y-84301300D02*
X133013853Y-84348215D01*
X132947140Y-84509275D01*
X132929825Y-84596325D01*
X132892800Y-84633350D01*
X132892800Y-85420100D01*
X132912800Y-85420100D01*
X132912800Y-85674100D01*
X132892800Y-85674100D01*
X132892800Y-85694100D01*
X132646801Y-85694100D01*
X132646801Y-83162278D01*
X132792067Y-83133383D01*
X132998624Y-83047824D01*
X133045200Y-83016703D01*
X133045201Y-84301300D01*
G04 #@! TA.AperFunction,Conductor*
D18*
G36*
X133045201Y-84301300D02*
G01*
X133013853Y-84348215D01*
X132947140Y-84509275D01*
X132929825Y-84596325D01*
X132892800Y-84633350D01*
X132892800Y-85420100D01*
X132912800Y-85420100D01*
X132912800Y-85674100D01*
X132892800Y-85674100D01*
X132892800Y-85694100D01*
X132646801Y-85694100D01*
X132646801Y-83162278D01*
X132792067Y-83133383D01*
X132998624Y-83047824D01*
X133045200Y-83016703D01*
X133045201Y-84301300D01*
G37*
G04 #@! TD.AperFunction*
D17*
X138938000Y-81915000D02*
X138949026Y-81915000D01*
X138946000Y-81930212D01*
X138946000Y-82153788D01*
X138949026Y-82169000D01*
X138938000Y-82169000D01*
X138938000Y-82189000D01*
X138684000Y-82189000D01*
X138684000Y-82169000D01*
X138672974Y-82169000D01*
X138676000Y-82153788D01*
X138676000Y-81930212D01*
X138672974Y-81915000D01*
X138684000Y-81915000D01*
X138684000Y-81895000D01*
X138938000Y-81895000D01*
X138938000Y-81915000D01*
G04 #@! TA.AperFunction,Conductor*
D18*
G36*
X138938000Y-81915000D02*
G01*
X138949026Y-81915000D01*
X138946000Y-81930212D01*
X138946000Y-82153788D01*
X138949026Y-82169000D01*
X138938000Y-82169000D01*
X138938000Y-82189000D01*
X138684000Y-82189000D01*
X138684000Y-82169000D01*
X138672974Y-82169000D01*
X138676000Y-82153788D01*
X138676000Y-81930212D01*
X138672974Y-81915000D01*
X138684000Y-81915000D01*
X138684000Y-81895000D01*
X138938000Y-81895000D01*
X138938000Y-81915000D01*
G37*
G04 #@! TD.AperFunction*
M02*
