G04 #@! TF.GenerationSoftware,KiCad,Pcbnew,(5.1.10-1-10_14)*
G04 #@! TF.CreationDate,2021-10-21T20:46:12-07:00*
G04 #@! TF.ProjectId,Caravel_breakout,43617261-7665-46c5-9f62-7265616b6f75,rev?*
G04 #@! TF.SameCoordinates,Original*
G04 #@! TF.FileFunction,Legend,Top*
G04 #@! TF.FilePolarity,Positive*
%FSLAX46Y46*%
G04 Gerber Fmt 4.6, Leading zero omitted, Abs format (unit mm)*
G04 Created by KiCad (PCBNEW (5.1.10-1-10_14)) date 2021-10-21 20:46:12*
%MOMM*%
%LPD*%
G01*
G04 APERTURE LIST*
%ADD10C,0.152400*%
%ADD11C,0.127000*%
%ADD12C,0.010000*%
%ADD13C,0.120000*%
%ADD14C,0.200000*%
G04 APERTURE END LIST*
D10*
X134536542Y-96863262D02*
X134500257Y-96899548D01*
X134391400Y-96935834D01*
X134318828Y-96935834D01*
X134209971Y-96899548D01*
X134137400Y-96826977D01*
X134101114Y-96754405D01*
X134064828Y-96609262D01*
X134064828Y-96500405D01*
X134101114Y-96355262D01*
X134137400Y-96282691D01*
X134209971Y-96210120D01*
X134318828Y-96173834D01*
X134391400Y-96173834D01*
X134500257Y-96210120D01*
X134536542Y-96246405D01*
X135189685Y-96935834D02*
X135189685Y-96536691D01*
X135153400Y-96464120D01*
X135080828Y-96427834D01*
X134935685Y-96427834D01*
X134863114Y-96464120D01*
X135189685Y-96899548D02*
X135117114Y-96935834D01*
X134935685Y-96935834D01*
X134863114Y-96899548D01*
X134826828Y-96826977D01*
X134826828Y-96754405D01*
X134863114Y-96681834D01*
X134935685Y-96645548D01*
X135117114Y-96645548D01*
X135189685Y-96609262D01*
X135552542Y-96935834D02*
X135552542Y-96427834D01*
X135552542Y-96572977D02*
X135588828Y-96500405D01*
X135625114Y-96464120D01*
X135697685Y-96427834D01*
X135770257Y-96427834D01*
X136350828Y-96935834D02*
X136350828Y-96536691D01*
X136314542Y-96464120D01*
X136241971Y-96427834D01*
X136096828Y-96427834D01*
X136024257Y-96464120D01*
X136350828Y-96899548D02*
X136278257Y-96935834D01*
X136096828Y-96935834D01*
X136024257Y-96899548D01*
X135987971Y-96826977D01*
X135987971Y-96754405D01*
X136024257Y-96681834D01*
X136096828Y-96645548D01*
X136278257Y-96645548D01*
X136350828Y-96609262D01*
X136641114Y-96427834D02*
X136822542Y-96935834D01*
X137003971Y-96427834D01*
X137584542Y-96899548D02*
X137511971Y-96935834D01*
X137366828Y-96935834D01*
X137294257Y-96899548D01*
X137257971Y-96826977D01*
X137257971Y-96536691D01*
X137294257Y-96464120D01*
X137366828Y-96427834D01*
X137511971Y-96427834D01*
X137584542Y-96464120D01*
X137620828Y-96536691D01*
X137620828Y-96609262D01*
X137257971Y-96681834D01*
X138056257Y-96935834D02*
X137983685Y-96899548D01*
X137947400Y-96826977D01*
X137947400Y-96173834D01*
D11*
X140618028Y-97788548D02*
X140769219Y-98211881D01*
X140920409Y-97788548D01*
X141494933Y-98211881D02*
X141132076Y-98211881D01*
X141313504Y-98211881D02*
X141313504Y-97576881D01*
X141253028Y-97667596D01*
X141192552Y-97728072D01*
X141132076Y-97758310D01*
X144247688Y-84048841D02*
X143884831Y-84048841D01*
X144066260Y-84048841D02*
X144066260Y-83413841D01*
X144005783Y-83504556D01*
X143945307Y-83565032D01*
X143884831Y-83595270D01*
X126398261Y-85464952D02*
X126398261Y-85827809D01*
X126398261Y-85646380D02*
X125763261Y-85646380D01*
X125853976Y-85706857D01*
X125914452Y-85767333D01*
X125944690Y-85827809D01*
X125763261Y-84890428D02*
X125763261Y-85192809D01*
X126065642Y-85223047D01*
X126035404Y-85192809D01*
X126005166Y-85132333D01*
X126005166Y-84981142D01*
X126035404Y-84920666D01*
X126065642Y-84890428D01*
X126126119Y-84860190D01*
X126277309Y-84860190D01*
X126337785Y-84890428D01*
X126368023Y-84920666D01*
X126398261Y-84981142D01*
X126398261Y-85132333D01*
X126368023Y-85192809D01*
X126337785Y-85223047D01*
X127024190Y-102836738D02*
X127054428Y-102806500D01*
X127114904Y-102776261D01*
X127266095Y-102776261D01*
X127326571Y-102806500D01*
X127356809Y-102836738D01*
X127387047Y-102897214D01*
X127387047Y-102957690D01*
X127356809Y-103048404D01*
X126993952Y-103411261D01*
X127387047Y-103411261D01*
X127689428Y-103411261D02*
X127810380Y-103411261D01*
X127870857Y-103381023D01*
X127901095Y-103350785D01*
X127961571Y-103260071D01*
X127991809Y-103139119D01*
X127991809Y-102897214D01*
X127961571Y-102836738D01*
X127931333Y-102806500D01*
X127870857Y-102776261D01*
X127749904Y-102776261D01*
X127689428Y-102806500D01*
X127659190Y-102836738D01*
X127628952Y-102897214D01*
X127628952Y-103048404D01*
X127659190Y-103108880D01*
X127689428Y-103139119D01*
X127749904Y-103169357D01*
X127870857Y-103169357D01*
X127931333Y-103139119D01*
X127961571Y-103108880D01*
X127991809Y-103048404D01*
X145424071Y-101672571D02*
X145000738Y-101672571D01*
X145665976Y-101521380D02*
X145212404Y-101370190D01*
X145212404Y-101763285D01*
X145635738Y-101944714D02*
X145635738Y-102337809D01*
X145393833Y-102126142D01*
X145393833Y-102216857D01*
X145363595Y-102277333D01*
X145333357Y-102307571D01*
X145272880Y-102337809D01*
X145121690Y-102337809D01*
X145061214Y-102307571D01*
X145030976Y-102277333D01*
X145000738Y-102216857D01*
X145000738Y-102035428D01*
X145030976Y-101974952D01*
X145061214Y-101944714D01*
D12*
G36*
X143386348Y-89799543D02*
G01*
X143427377Y-89757474D01*
X143485097Y-89736005D01*
X143503739Y-89734814D01*
X143561675Y-89749436D01*
X143605469Y-89787417D01*
X143631515Y-89839931D01*
X143636208Y-89898150D01*
X143615940Y-89953247D01*
X143600593Y-89971880D01*
X143550670Y-90000213D01*
X143489550Y-90005912D01*
X143430901Y-89989341D01*
X143400345Y-89966555D01*
X143369138Y-89912364D01*
X143365703Y-89853933D01*
X143386348Y-89799543D01*
G37*
X143386348Y-89799543D02*
X143427377Y-89757474D01*
X143485097Y-89736005D01*
X143503739Y-89734814D01*
X143561675Y-89749436D01*
X143605469Y-89787417D01*
X143631515Y-89839931D01*
X143636208Y-89898150D01*
X143615940Y-89953247D01*
X143600593Y-89971880D01*
X143550670Y-90000213D01*
X143489550Y-90005912D01*
X143430901Y-89989341D01*
X143400345Y-89966555D01*
X143369138Y-89912364D01*
X143365703Y-89853933D01*
X143386348Y-89799543D01*
G36*
X142290323Y-96577987D02*
G01*
X142322189Y-96474523D01*
X142375803Y-96396249D01*
X142451579Y-96342443D01*
X142499753Y-96323933D01*
X142547364Y-96313980D01*
X142618187Y-96304412D01*
X142701575Y-96296493D01*
X142765240Y-96292431D01*
X142957127Y-96282981D01*
X142957127Y-96850289D01*
X143099294Y-96844318D01*
X143189536Y-96837069D01*
X143251103Y-96822048D01*
X143288892Y-96795959D01*
X143307798Y-96755506D01*
X143312727Y-96700646D01*
X143304883Y-96643728D01*
X143277935Y-96604979D01*
X143226757Y-96579746D01*
X143164560Y-96566105D01*
X143092594Y-96554618D01*
X143092594Y-96304947D01*
X143181494Y-96305319D01*
X143291219Y-96320012D01*
X143382174Y-96361425D01*
X143452689Y-96427047D01*
X143501095Y-96514368D01*
X143525724Y-96620875D01*
X143524907Y-96744059D01*
X143515175Y-96807420D01*
X143481548Y-96913700D01*
X143426026Y-96995692D01*
X143345647Y-97057183D01*
X143304029Y-97077693D01*
X143258352Y-97089827D01*
X143186131Y-97100052D01*
X143094647Y-97108127D01*
X142991182Y-97113815D01*
X142883017Y-97116877D01*
X142777434Y-97117075D01*
X142681714Y-97114170D01*
X142663077Y-97112689D01*
X142663077Y-96846814D01*
X142753927Y-96846814D01*
X142753927Y-96558947D01*
X142663077Y-96558947D01*
X142579289Y-96567810D01*
X142522696Y-96595456D01*
X142491319Y-96643464D01*
X142482993Y-96702880D01*
X142494083Y-96769849D01*
X142528672Y-96815081D01*
X142588737Y-96840159D01*
X142663077Y-96846814D01*
X142663077Y-97112689D01*
X142603138Y-97107923D01*
X142564505Y-97101916D01*
X142460988Y-97065270D01*
X142379836Y-97003712D01*
X142322014Y-96918578D01*
X142288484Y-96811205D01*
X142279794Y-96707362D01*
X142290323Y-96577987D01*
G37*
X142290323Y-96577987D02*
X142322189Y-96474523D01*
X142375803Y-96396249D01*
X142451579Y-96342443D01*
X142499753Y-96323933D01*
X142547364Y-96313980D01*
X142618187Y-96304412D01*
X142701575Y-96296493D01*
X142765240Y-96292431D01*
X142957127Y-96282981D01*
X142957127Y-96850289D01*
X143099294Y-96844318D01*
X143189536Y-96837069D01*
X143251103Y-96822048D01*
X143288892Y-96795959D01*
X143307798Y-96755506D01*
X143312727Y-96700646D01*
X143304883Y-96643728D01*
X143277935Y-96604979D01*
X143226757Y-96579746D01*
X143164560Y-96566105D01*
X143092594Y-96554618D01*
X143092594Y-96304947D01*
X143181494Y-96305319D01*
X143291219Y-96320012D01*
X143382174Y-96361425D01*
X143452689Y-96427047D01*
X143501095Y-96514368D01*
X143525724Y-96620875D01*
X143524907Y-96744059D01*
X143515175Y-96807420D01*
X143481548Y-96913700D01*
X143426026Y-96995692D01*
X143345647Y-97057183D01*
X143304029Y-97077693D01*
X143258352Y-97089827D01*
X143186131Y-97100052D01*
X143094647Y-97108127D01*
X142991182Y-97113815D01*
X142883017Y-97116877D01*
X142777434Y-97117075D01*
X142681714Y-97114170D01*
X142663077Y-97112689D01*
X142663077Y-96846814D01*
X142753927Y-96846814D01*
X142753927Y-96558947D01*
X142663077Y-96558947D01*
X142579289Y-96567810D01*
X142522696Y-96595456D01*
X142491319Y-96643464D01*
X142482993Y-96702880D01*
X142494083Y-96769849D01*
X142528672Y-96815081D01*
X142588737Y-96840159D01*
X142663077Y-96846814D01*
X142663077Y-97112689D01*
X142603138Y-97107923D01*
X142564505Y-97101916D01*
X142460988Y-97065270D01*
X142379836Y-97003712D01*
X142322014Y-96918578D01*
X142288484Y-96811205D01*
X142279794Y-96707362D01*
X142290323Y-96577987D01*
G36*
X142289129Y-94985371D02*
G01*
X142292758Y-94926571D01*
X142300680Y-94883212D01*
X142314429Y-94846091D01*
X142330594Y-94814813D01*
X142351053Y-94779666D01*
X142371798Y-94751321D01*
X142396559Y-94729004D01*
X142429068Y-94711936D01*
X142473054Y-94699340D01*
X142532249Y-94690441D01*
X142610383Y-94684460D01*
X142711188Y-94680621D01*
X142838394Y-94678147D01*
X142995731Y-94676260D01*
X142995891Y-94676258D01*
X143500323Y-94670880D01*
X143495425Y-94789413D01*
X143490527Y-94907947D01*
X143435493Y-94913253D01*
X143394095Y-94919864D01*
X143383980Y-94932048D01*
X143404042Y-94954939D01*
X143423132Y-94970505D01*
X143477009Y-95030019D01*
X143507226Y-95107451D01*
X143515864Y-95199206D01*
X143507706Y-95287229D01*
X143482805Y-95351527D01*
X143440154Y-95406035D01*
X143385388Y-95443270D01*
X143309551Y-95468535D01*
X143271947Y-95476359D01*
X143198395Y-95481484D01*
X143198395Y-95216392D01*
X143249681Y-95206001D01*
X143299286Y-95170965D01*
X143323621Y-95118162D01*
X143320185Y-95054896D01*
X143310530Y-95028421D01*
X143280171Y-94990420D01*
X143247030Y-94969635D01*
X143209120Y-94960242D01*
X143152669Y-94952019D01*
X143085771Y-94945434D01*
X143016522Y-94940951D01*
X142953018Y-94939037D01*
X142903354Y-94940158D01*
X142875626Y-94944781D01*
X142872460Y-94948061D01*
X142881740Y-94971321D01*
X142905671Y-95012767D01*
X142938394Y-95063635D01*
X142974047Y-95115164D01*
X143006769Y-95158591D01*
X143030700Y-95185152D01*
X143031485Y-95185818D01*
X143073734Y-95205264D01*
X143134283Y-95215910D01*
X143198395Y-95216392D01*
X143198395Y-95481484D01*
X143159363Y-95484205D01*
X143053364Y-95467122D01*
X142962844Y-95426800D01*
X142944908Y-95414233D01*
X142907069Y-95375059D01*
X142864544Y-95310576D01*
X142815269Y-95217551D01*
X142802107Y-95190404D01*
X142754327Y-95093465D01*
X142715739Y-95023760D01*
X142682904Y-94977097D01*
X142652386Y-94949285D01*
X142620748Y-94936133D01*
X142591318Y-94933347D01*
X142535242Y-94943205D01*
X142500625Y-94975065D01*
X142484752Y-95032349D01*
X142482993Y-95070023D01*
X142493708Y-95145882D01*
X142525459Y-95195925D01*
X142577662Y-95219407D01*
X142601527Y-95221213D01*
X142652327Y-95221213D01*
X142652327Y-95475213D01*
X142588181Y-95475213D01*
X142498301Y-95459381D01*
X142415061Y-95415912D01*
X142348673Y-95350846D01*
X142330594Y-95322813D01*
X142311099Y-95284074D01*
X142298654Y-95246433D01*
X142291725Y-95200689D01*
X142288780Y-95137640D01*
X142288260Y-95068813D01*
X142289129Y-94985371D01*
G37*
X142289129Y-94985371D02*
X142292758Y-94926571D01*
X142300680Y-94883212D01*
X142314429Y-94846091D01*
X142330594Y-94814813D01*
X142351053Y-94779666D01*
X142371798Y-94751321D01*
X142396559Y-94729004D01*
X142429068Y-94711936D01*
X142473054Y-94699340D01*
X142532249Y-94690441D01*
X142610383Y-94684460D01*
X142711188Y-94680621D01*
X142838394Y-94678147D01*
X142995731Y-94676260D01*
X142995891Y-94676258D01*
X143500323Y-94670880D01*
X143495425Y-94789413D01*
X143490527Y-94907947D01*
X143435493Y-94913253D01*
X143394095Y-94919864D01*
X143383980Y-94932048D01*
X143404042Y-94954939D01*
X143423132Y-94970505D01*
X143477009Y-95030019D01*
X143507226Y-95107451D01*
X143515864Y-95199206D01*
X143507706Y-95287229D01*
X143482805Y-95351527D01*
X143440154Y-95406035D01*
X143385388Y-95443270D01*
X143309551Y-95468535D01*
X143271947Y-95476359D01*
X143198395Y-95481484D01*
X143198395Y-95216392D01*
X143249681Y-95206001D01*
X143299286Y-95170965D01*
X143323621Y-95118162D01*
X143320185Y-95054896D01*
X143310530Y-95028421D01*
X143280171Y-94990420D01*
X143247030Y-94969635D01*
X143209120Y-94960242D01*
X143152669Y-94952019D01*
X143085771Y-94945434D01*
X143016522Y-94940951D01*
X142953018Y-94939037D01*
X142903354Y-94940158D01*
X142875626Y-94944781D01*
X142872460Y-94948061D01*
X142881740Y-94971321D01*
X142905671Y-95012767D01*
X142938394Y-95063635D01*
X142974047Y-95115164D01*
X143006769Y-95158591D01*
X143030700Y-95185152D01*
X143031485Y-95185818D01*
X143073734Y-95205264D01*
X143134283Y-95215910D01*
X143198395Y-95216392D01*
X143198395Y-95481484D01*
X143159363Y-95484205D01*
X143053364Y-95467122D01*
X142962844Y-95426800D01*
X142944908Y-95414233D01*
X142907069Y-95375059D01*
X142864544Y-95310576D01*
X142815269Y-95217551D01*
X142802107Y-95190404D01*
X142754327Y-95093465D01*
X142715739Y-95023760D01*
X142682904Y-94977097D01*
X142652386Y-94949285D01*
X142620748Y-94936133D01*
X142591318Y-94933347D01*
X142535242Y-94943205D01*
X142500625Y-94975065D01*
X142484752Y-95032349D01*
X142482993Y-95070023D01*
X142493708Y-95145882D01*
X142525459Y-95195925D01*
X142577662Y-95219407D01*
X142601527Y-95221213D01*
X142652327Y-95221213D01*
X142652327Y-95475213D01*
X142588181Y-95475213D01*
X142498301Y-95459381D01*
X142415061Y-95415912D01*
X142348673Y-95350846D01*
X142330594Y-95322813D01*
X142311099Y-95284074D01*
X142298654Y-95246433D01*
X142291725Y-95200689D01*
X142288780Y-95137640D01*
X142288260Y-95068813D01*
X142289129Y-94985371D01*
G36*
X142161286Y-94191665D02*
G01*
X142249666Y-94192836D01*
X142324671Y-94192690D01*
X142380453Y-94191329D01*
X142411161Y-94188857D01*
X142415286Y-94187231D01*
X142403019Y-94171913D01*
X142372846Y-94146450D01*
X142365976Y-94141278D01*
X142316794Y-94084923D01*
X142288242Y-94007807D01*
X142283128Y-93917967D01*
X142284177Y-93907117D01*
X142304375Y-93824113D01*
X142347030Y-93761494D01*
X142417651Y-93711254D01*
X142419741Y-93710131D01*
X142443762Y-93698064D01*
X142468024Y-93688835D01*
X142497263Y-93682065D01*
X142536219Y-93677375D01*
X142589628Y-93674384D01*
X142662228Y-93672714D01*
X142758758Y-93671984D01*
X142883955Y-93671814D01*
X142897860Y-93671814D01*
X143026210Y-93671957D01*
X143125421Y-93672635D01*
X143200219Y-93674221D01*
X143255332Y-93677088D01*
X143295488Y-93681609D01*
X143325412Y-93688157D01*
X143349833Y-93697106D01*
X143373477Y-93708828D01*
X143374626Y-93709441D01*
X143447522Y-93757167D01*
X143491642Y-93810518D01*
X143511997Y-93877460D01*
X143514853Y-93932330D01*
X143511754Y-93992061D01*
X143504969Y-94042358D01*
X143499521Y-94062661D01*
X143477398Y-94096465D01*
X143441013Y-94134871D01*
X143432861Y-94142001D01*
X143399907Y-94171872D01*
X143381714Y-94192522D01*
X143380460Y-94195654D01*
X143395365Y-94201976D01*
X143432008Y-94205132D01*
X143439727Y-94205214D01*
X143498993Y-94205214D01*
X143498993Y-94459213D01*
X142799555Y-94459213D01*
X142799555Y-94186203D01*
X142932916Y-94185111D01*
X142935143Y-94185074D01*
X143247997Y-94179814D01*
X143288829Y-94132303D01*
X143320992Y-94086426D01*
X143328329Y-94046345D01*
X143319141Y-94011239D01*
X143304438Y-93985591D01*
X143279797Y-93965999D01*
X143241128Y-93951715D01*
X143184340Y-93941995D01*
X143105341Y-93936092D01*
X143000040Y-93933260D01*
X142888480Y-93932708D01*
X142770341Y-93933796D01*
X142671547Y-93936675D01*
X142596122Y-93941137D01*
X142548094Y-93946974D01*
X142534059Y-93951071D01*
X142500538Y-93986645D01*
X142485505Y-94041331D01*
X142490227Y-94096263D01*
X142502739Y-94126610D01*
X142525698Y-94149782D01*
X142562980Y-94166554D01*
X142618465Y-94177698D01*
X142696030Y-94183990D01*
X142799555Y-94186203D01*
X142799555Y-94459213D01*
X141907260Y-94459213D01*
X141907260Y-94186583D01*
X142161286Y-94191665D01*
G37*
X142161286Y-94191665D02*
X142249666Y-94192836D01*
X142324671Y-94192690D01*
X142380453Y-94191329D01*
X142411161Y-94188857D01*
X142415286Y-94187231D01*
X142403019Y-94171913D01*
X142372846Y-94146450D01*
X142365976Y-94141278D01*
X142316794Y-94084923D01*
X142288242Y-94007807D01*
X142283128Y-93917967D01*
X142284177Y-93907117D01*
X142304375Y-93824113D01*
X142347030Y-93761494D01*
X142417651Y-93711254D01*
X142419741Y-93710131D01*
X142443762Y-93698064D01*
X142468024Y-93688835D01*
X142497263Y-93682065D01*
X142536219Y-93677375D01*
X142589628Y-93674384D01*
X142662228Y-93672714D01*
X142758758Y-93671984D01*
X142883955Y-93671814D01*
X142897860Y-93671814D01*
X143026210Y-93671957D01*
X143125421Y-93672635D01*
X143200219Y-93674221D01*
X143255332Y-93677088D01*
X143295488Y-93681609D01*
X143325412Y-93688157D01*
X143349833Y-93697106D01*
X143373477Y-93708828D01*
X143374626Y-93709441D01*
X143447522Y-93757167D01*
X143491642Y-93810518D01*
X143511997Y-93877460D01*
X143514853Y-93932330D01*
X143511754Y-93992061D01*
X143504969Y-94042358D01*
X143499521Y-94062661D01*
X143477398Y-94096465D01*
X143441013Y-94134871D01*
X143432861Y-94142001D01*
X143399907Y-94171872D01*
X143381714Y-94192522D01*
X143380460Y-94195654D01*
X143395365Y-94201976D01*
X143432008Y-94205132D01*
X143439727Y-94205214D01*
X143498993Y-94205214D01*
X143498993Y-94459213D01*
X142799555Y-94459213D01*
X142799555Y-94186203D01*
X142932916Y-94185111D01*
X142935143Y-94185074D01*
X143247997Y-94179814D01*
X143288829Y-94132303D01*
X143320992Y-94086426D01*
X143328329Y-94046345D01*
X143319141Y-94011239D01*
X143304438Y-93985591D01*
X143279797Y-93965999D01*
X143241128Y-93951715D01*
X143184340Y-93941995D01*
X143105341Y-93936092D01*
X143000040Y-93933260D01*
X142888480Y-93932708D01*
X142770341Y-93933796D01*
X142671547Y-93936675D01*
X142596122Y-93941137D01*
X142548094Y-93946974D01*
X142534059Y-93951071D01*
X142500538Y-93986645D01*
X142485505Y-94041331D01*
X142490227Y-94096263D01*
X142502739Y-94126610D01*
X142525698Y-94149782D01*
X142562980Y-94166554D01*
X142618465Y-94177698D01*
X142696030Y-94183990D01*
X142799555Y-94186203D01*
X142799555Y-94459213D01*
X141907260Y-94459213D01*
X141907260Y-94186583D01*
X142161286Y-94191665D01*
G36*
X142284842Y-92535020D02*
G01*
X142298132Y-92435817D01*
X142323528Y-92360680D01*
X142364758Y-92300857D01*
X142398244Y-92269015D01*
X142441214Y-92238563D01*
X142491423Y-92215991D01*
X142555312Y-92199723D01*
X142639319Y-92188182D01*
X142749884Y-92179793D01*
X142766627Y-92178847D01*
X142957127Y-92168402D01*
X142957127Y-92735489D01*
X143102527Y-92729517D01*
X143174314Y-92725744D01*
X143221010Y-92719910D01*
X143251386Y-92709498D01*
X143274214Y-92691989D01*
X143288793Y-92676036D01*
X143322052Y-92617175D01*
X143324521Y-92559558D01*
X143299013Y-92508676D01*
X143248336Y-92470019D01*
X143175302Y-92449079D01*
X143172468Y-92448745D01*
X143092594Y-92439742D01*
X143092594Y-92185510D01*
X143203177Y-92194387D01*
X143312677Y-92214481D01*
X143397316Y-92256026D01*
X143458202Y-92320364D01*
X143496444Y-92408839D01*
X143513150Y-92522793D01*
X143514099Y-92571147D01*
X143511863Y-92641990D01*
X143506946Y-92705032D01*
X143500341Y-92748209D01*
X143499190Y-92752480D01*
X143455739Y-92839064D01*
X143383049Y-92909977D01*
X143314260Y-92950009D01*
X143280362Y-92965283D01*
X143249447Y-92976575D01*
X143215751Y-92984486D01*
X143173508Y-92989619D01*
X143116953Y-92992577D01*
X143040321Y-92993961D01*
X142937847Y-92994374D01*
X142889394Y-92994403D01*
X142775143Y-92994249D01*
X142689124Y-92993346D01*
X142668147Y-92992610D01*
X142668147Y-92732013D01*
X142753927Y-92732013D01*
X142753927Y-92444147D01*
X142652327Y-92444147D01*
X142572904Y-92450814D01*
X142520980Y-92473069D01*
X142492468Y-92514290D01*
X142483277Y-92577857D01*
X142483253Y-92583847D01*
X142486173Y-92633033D01*
X142493153Y-92668422D01*
X142495953Y-92674445D01*
X142537634Y-92708098D01*
X142605606Y-92727651D01*
X142668147Y-92732013D01*
X142668147Y-92992610D01*
X142625705Y-92991119D01*
X142579250Y-92986993D01*
X142544127Y-92980396D01*
X142514702Y-92970754D01*
X142485340Y-92957492D01*
X142474551Y-92952147D01*
X142388623Y-92892745D01*
X142328266Y-92812788D01*
X142293044Y-92711314D01*
X142282519Y-92587364D01*
X142284842Y-92535020D01*
G37*
X142284842Y-92535020D02*
X142298132Y-92435817D01*
X142323528Y-92360680D01*
X142364758Y-92300857D01*
X142398244Y-92269015D01*
X142441214Y-92238563D01*
X142491423Y-92215991D01*
X142555312Y-92199723D01*
X142639319Y-92188182D01*
X142749884Y-92179793D01*
X142766627Y-92178847D01*
X142957127Y-92168402D01*
X142957127Y-92735489D01*
X143102527Y-92729517D01*
X143174314Y-92725744D01*
X143221010Y-92719910D01*
X143251386Y-92709498D01*
X143274214Y-92691989D01*
X143288793Y-92676036D01*
X143322052Y-92617175D01*
X143324521Y-92559558D01*
X143299013Y-92508676D01*
X143248336Y-92470019D01*
X143175302Y-92449079D01*
X143172468Y-92448745D01*
X143092594Y-92439742D01*
X143092594Y-92185510D01*
X143203177Y-92194387D01*
X143312677Y-92214481D01*
X143397316Y-92256026D01*
X143458202Y-92320364D01*
X143496444Y-92408839D01*
X143513150Y-92522793D01*
X143514099Y-92571147D01*
X143511863Y-92641990D01*
X143506946Y-92705032D01*
X143500341Y-92748209D01*
X143499190Y-92752480D01*
X143455739Y-92839064D01*
X143383049Y-92909977D01*
X143314260Y-92950009D01*
X143280362Y-92965283D01*
X143249447Y-92976575D01*
X143215751Y-92984486D01*
X143173508Y-92989619D01*
X143116953Y-92992577D01*
X143040321Y-92993961D01*
X142937847Y-92994374D01*
X142889394Y-92994403D01*
X142775143Y-92994249D01*
X142689124Y-92993346D01*
X142668147Y-92992610D01*
X142668147Y-92732013D01*
X142753927Y-92732013D01*
X142753927Y-92444147D01*
X142652327Y-92444147D01*
X142572904Y-92450814D01*
X142520980Y-92473069D01*
X142492468Y-92514290D01*
X142483277Y-92577857D01*
X142483253Y-92583847D01*
X142486173Y-92633033D01*
X142493153Y-92668422D01*
X142495953Y-92674445D01*
X142537634Y-92708098D01*
X142605606Y-92727651D01*
X142668147Y-92732013D01*
X142668147Y-92992610D01*
X142625705Y-92991119D01*
X142579250Y-92986993D01*
X142544127Y-92980396D01*
X142514702Y-92970754D01*
X142485340Y-92957492D01*
X142474551Y-92952147D01*
X142388623Y-92892745D01*
X142328266Y-92812788D01*
X142293044Y-92711314D01*
X142282519Y-92587364D01*
X142284842Y-92535020D01*
G36*
X142290091Y-91504046D02*
G01*
X142297099Y-91435731D01*
X142311560Y-91383915D01*
X142335747Y-91339974D01*
X142366299Y-91301640D01*
X142424340Y-91254764D01*
X142502083Y-91217197D01*
X142585536Y-91194805D01*
X142630000Y-91191080D01*
X142649485Y-91192917D01*
X142661155Y-91203023D01*
X142667006Y-91228296D01*
X142669039Y-91275630D01*
X142669260Y-91326547D01*
X142669260Y-91462013D01*
X142609993Y-91462013D01*
X142545645Y-91475562D01*
X142502798Y-91514598D01*
X142483763Y-91576708D01*
X142482994Y-91594856D01*
X142495581Y-91658460D01*
X142528612Y-91699693D01*
X142574991Y-91715755D01*
X142627620Y-91703850D01*
X142672158Y-91669447D01*
X142700321Y-91635286D01*
X142740683Y-91581649D01*
X142786752Y-91517301D01*
X142813242Y-91478947D01*
X142871780Y-91394341D01*
X142917139Y-91333050D01*
X142954177Y-91289725D01*
X142987751Y-91259015D01*
X143022718Y-91235572D01*
X143045352Y-91223299D01*
X143127844Y-91197482D01*
X143220290Y-91194697D01*
X143312037Y-91213152D01*
X143392427Y-91251055D01*
X143437104Y-91289168D01*
X143473422Y-91350118D01*
X143499371Y-91433742D01*
X143514034Y-91530190D01*
X143516495Y-91629615D01*
X143505837Y-91722169D01*
X143483922Y-91792213D01*
X143426033Y-91879505D01*
X143346408Y-91943034D01*
X143250352Y-91979424D01*
X143177804Y-91986947D01*
X143109527Y-91986947D01*
X143109527Y-91716013D01*
X143185727Y-91716013D01*
X143257500Y-91704469D01*
X143305952Y-91671282D01*
X143328399Y-91618623D01*
X143329660Y-91599764D01*
X143317294Y-91545260D01*
X143285821Y-91497734D01*
X143243679Y-91467526D01*
X143217251Y-91462013D01*
X143179188Y-91466089D01*
X143144913Y-91481279D01*
X143109428Y-91512033D01*
X143067737Y-91562799D01*
X143014843Y-91638025D01*
X143007809Y-91648456D01*
X142926347Y-91762807D01*
X142853316Y-91848968D01*
X142784475Y-91910156D01*
X142715586Y-91949589D01*
X142642413Y-91970484D01*
X142576321Y-91976041D01*
X142479509Y-91963642D01*
X142402059Y-91923679D01*
X142344325Y-91856613D01*
X142306659Y-91762908D01*
X142289411Y-91643026D01*
X142288260Y-91597480D01*
X142290091Y-91504046D01*
G37*
X142290091Y-91504046D02*
X142297099Y-91435731D01*
X142311560Y-91383915D01*
X142335747Y-91339974D01*
X142366299Y-91301640D01*
X142424340Y-91254764D01*
X142502083Y-91217197D01*
X142585536Y-91194805D01*
X142630000Y-91191080D01*
X142649485Y-91192917D01*
X142661155Y-91203023D01*
X142667006Y-91228296D01*
X142669039Y-91275630D01*
X142669260Y-91326547D01*
X142669260Y-91462013D01*
X142609993Y-91462013D01*
X142545645Y-91475562D01*
X142502798Y-91514598D01*
X142483763Y-91576708D01*
X142482994Y-91594856D01*
X142495581Y-91658460D01*
X142528612Y-91699693D01*
X142574991Y-91715755D01*
X142627620Y-91703850D01*
X142672158Y-91669447D01*
X142700321Y-91635286D01*
X142740683Y-91581649D01*
X142786752Y-91517301D01*
X142813242Y-91478947D01*
X142871780Y-91394341D01*
X142917139Y-91333050D01*
X142954177Y-91289725D01*
X142987751Y-91259015D01*
X143022718Y-91235572D01*
X143045352Y-91223299D01*
X143127844Y-91197482D01*
X143220290Y-91194697D01*
X143312037Y-91213152D01*
X143392427Y-91251055D01*
X143437104Y-91289168D01*
X143473422Y-91350118D01*
X143499371Y-91433742D01*
X143514034Y-91530190D01*
X143516495Y-91629615D01*
X143505837Y-91722169D01*
X143483922Y-91792213D01*
X143426033Y-91879505D01*
X143346408Y-91943034D01*
X143250352Y-91979424D01*
X143177804Y-91986947D01*
X143109527Y-91986947D01*
X143109527Y-91716013D01*
X143185727Y-91716013D01*
X143257500Y-91704469D01*
X143305952Y-91671282D01*
X143328399Y-91618623D01*
X143329660Y-91599764D01*
X143317294Y-91545260D01*
X143285821Y-91497734D01*
X143243679Y-91467526D01*
X143217251Y-91462013D01*
X143179188Y-91466089D01*
X143144913Y-91481279D01*
X143109428Y-91512033D01*
X143067737Y-91562799D01*
X143014843Y-91638025D01*
X143007809Y-91648456D01*
X142926347Y-91762807D01*
X142853316Y-91848968D01*
X142784475Y-91910156D01*
X142715586Y-91949589D01*
X142642413Y-91970484D01*
X142576321Y-91976041D01*
X142479509Y-91963642D01*
X142402059Y-91923679D01*
X142344325Y-91856613D01*
X142306659Y-91762908D01*
X142289411Y-91643026D01*
X142288260Y-91597480D01*
X142290091Y-91504046D01*
G36*
X142289458Y-90569058D02*
G01*
X142294084Y-90512544D01*
X142304050Y-90469492D01*
X142321170Y-90429719D01*
X142330594Y-90412147D01*
X142389619Y-90339061D01*
X142469845Y-90287308D01*
X142562924Y-90261667D01*
X142596648Y-90259747D01*
X142669260Y-90259747D01*
X142669260Y-90509316D01*
X142607893Y-90519274D01*
X142538985Y-90541439D01*
X142497923Y-90581993D01*
X142483096Y-90642611D01*
X142482994Y-90649214D01*
X142495732Y-90711794D01*
X142531502Y-90752677D01*
X142586641Y-90767737D01*
X142588284Y-90767747D01*
X142619630Y-90763450D01*
X142650080Y-90747842D01*
X142683742Y-90716851D01*
X142724724Y-90666401D01*
X142777135Y-90592418D01*
X142801711Y-90556080D01*
X142882092Y-90442801D01*
X142953663Y-90358172D01*
X143020614Y-90299570D01*
X143087132Y-90264373D01*
X143157407Y-90249956D01*
X143235627Y-90253698D01*
X143273776Y-90260449D01*
X143366878Y-90295308D01*
X143439689Y-90355181D01*
X143488174Y-90436478D01*
X143495408Y-90457657D01*
X143507087Y-90519301D01*
X143513082Y-90598984D01*
X143513400Y-90684238D01*
X143508046Y-90762599D01*
X143497025Y-90821599D01*
X143495242Y-90827014D01*
X143446579Y-90917225D01*
X143374831Y-90984518D01*
X143284265Y-91025945D01*
X143188847Y-91038680D01*
X143109527Y-91038680D01*
X143109527Y-90789085D01*
X143189292Y-90780094D01*
X143259114Y-90761223D01*
X143307419Y-90725219D01*
X143329007Y-90676333D01*
X143329660Y-90665373D01*
X143318086Y-90604302D01*
X143287874Y-90554624D01*
X143254397Y-90531037D01*
X143208184Y-90521554D01*
X143164209Y-90532056D01*
X143118332Y-90565400D01*
X143066413Y-90624445D01*
X143014725Y-90696556D01*
X142945403Y-90795901D01*
X142887871Y-90870506D01*
X142837440Y-90925219D01*
X142789422Y-90964887D01*
X142739128Y-90994358D01*
X142716719Y-91004636D01*
X142639815Y-91030356D01*
X142567733Y-91035951D01*
X142546266Y-91034425D01*
X142463026Y-91015347D01*
X142396973Y-90973009D01*
X142341200Y-90902615D01*
X142330690Y-90884780D01*
X142310201Y-90844206D01*
X142297556Y-90804239D01*
X142290941Y-90754790D01*
X142288542Y-90685767D01*
X142288356Y-90649214D01*
X142289458Y-90569058D01*
G37*
X142289458Y-90569058D02*
X142294084Y-90512544D01*
X142304050Y-90469492D01*
X142321170Y-90429719D01*
X142330594Y-90412147D01*
X142389619Y-90339061D01*
X142469845Y-90287308D01*
X142562924Y-90261667D01*
X142596648Y-90259747D01*
X142669260Y-90259747D01*
X142669260Y-90509316D01*
X142607893Y-90519274D01*
X142538985Y-90541439D01*
X142497923Y-90581993D01*
X142483096Y-90642611D01*
X142482994Y-90649214D01*
X142495732Y-90711794D01*
X142531502Y-90752677D01*
X142586641Y-90767737D01*
X142588284Y-90767747D01*
X142619630Y-90763450D01*
X142650080Y-90747842D01*
X142683742Y-90716851D01*
X142724724Y-90666401D01*
X142777135Y-90592418D01*
X142801711Y-90556080D01*
X142882092Y-90442801D01*
X142953663Y-90358172D01*
X143020614Y-90299570D01*
X143087132Y-90264373D01*
X143157407Y-90249956D01*
X143235627Y-90253698D01*
X143273776Y-90260449D01*
X143366878Y-90295308D01*
X143439689Y-90355181D01*
X143488174Y-90436478D01*
X143495408Y-90457657D01*
X143507087Y-90519301D01*
X143513082Y-90598984D01*
X143513400Y-90684238D01*
X143508046Y-90762599D01*
X143497025Y-90821599D01*
X143495242Y-90827014D01*
X143446579Y-90917225D01*
X143374831Y-90984518D01*
X143284265Y-91025945D01*
X143188847Y-91038680D01*
X143109527Y-91038680D01*
X143109527Y-90789085D01*
X143189292Y-90780094D01*
X143259114Y-90761223D01*
X143307419Y-90725219D01*
X143329007Y-90676333D01*
X143329660Y-90665373D01*
X143318086Y-90604302D01*
X143287874Y-90554624D01*
X143254397Y-90531037D01*
X143208184Y-90521554D01*
X143164209Y-90532056D01*
X143118332Y-90565400D01*
X143066413Y-90624445D01*
X143014725Y-90696556D01*
X142945403Y-90795901D01*
X142887871Y-90870506D01*
X142837440Y-90925219D01*
X142789422Y-90964887D01*
X142739128Y-90994358D01*
X142716719Y-91004636D01*
X142639815Y-91030356D01*
X142567733Y-91035951D01*
X142546266Y-91034425D01*
X142463026Y-91015347D01*
X142396973Y-90973009D01*
X142341200Y-90902615D01*
X142330690Y-90884780D01*
X142310201Y-90844206D01*
X142297556Y-90804239D01*
X142290941Y-90754790D01*
X142288542Y-90685767D01*
X142288356Y-90649214D01*
X142289458Y-90569058D01*
G36*
X142108314Y-95627614D02*
G01*
X142113621Y-95682647D01*
X142118159Y-95713674D01*
X142129837Y-95730618D01*
X142157246Y-95738508D01*
X142208978Y-95742375D01*
X142216294Y-95742759D01*
X142313660Y-95747837D01*
X142313660Y-95627614D01*
X142499927Y-95627614D01*
X142499927Y-95746147D01*
X143498993Y-95746147D01*
X143498993Y-95870325D01*
X143497553Y-95932267D01*
X143493756Y-95980258D01*
X143488386Y-96004884D01*
X143487705Y-96005791D01*
X143468504Y-96008681D01*
X143419790Y-96011297D01*
X143345915Y-96013541D01*
X143251234Y-96015316D01*
X143140098Y-96016522D01*
X143016861Y-96017061D01*
X142988171Y-96017080D01*
X142499927Y-96017080D01*
X142499927Y-96067880D01*
X142498363Y-96096922D01*
X142488114Y-96112038D01*
X142460844Y-96117775D01*
X142408218Y-96118680D01*
X142406793Y-96118680D01*
X142353539Y-96117762D01*
X142325819Y-96112128D01*
X142315303Y-96097455D01*
X142313660Y-96070365D01*
X142312372Y-96045943D01*
X142303829Y-96030841D01*
X142281010Y-96021857D01*
X142236895Y-96015789D01*
X142183626Y-96011058D01*
X142081808Y-95996107D01*
X142008271Y-95968204D01*
X141958537Y-95922985D01*
X141928126Y-95856088D01*
X141912561Y-95763148D01*
X141911152Y-95745610D01*
X141902710Y-95627614D01*
X142108314Y-95627614D01*
G37*
X142108314Y-95627614D02*
X142113621Y-95682647D01*
X142118159Y-95713674D01*
X142129837Y-95730618D01*
X142157246Y-95738508D01*
X142208978Y-95742375D01*
X142216294Y-95742759D01*
X142313660Y-95747837D01*
X142313660Y-95627614D01*
X142499927Y-95627614D01*
X142499927Y-95746147D01*
X143498993Y-95746147D01*
X143498993Y-95870325D01*
X143497553Y-95932267D01*
X143493756Y-95980258D01*
X143488386Y-96004884D01*
X143487705Y-96005791D01*
X143468504Y-96008681D01*
X143419790Y-96011297D01*
X143345915Y-96013541D01*
X143251234Y-96015316D01*
X143140098Y-96016522D01*
X143016861Y-96017061D01*
X142988171Y-96017080D01*
X142499927Y-96017080D01*
X142499927Y-96067880D01*
X142498363Y-96096922D01*
X142488114Y-96112038D01*
X142460844Y-96117775D01*
X142408218Y-96118680D01*
X142406793Y-96118680D01*
X142353539Y-96117762D01*
X142325819Y-96112128D01*
X142315303Y-96097455D01*
X142313660Y-96070365D01*
X142312372Y-96045943D01*
X142303829Y-96030841D01*
X142281010Y-96021857D01*
X142236895Y-96015789D01*
X142183626Y-96011058D01*
X142081808Y-95996107D01*
X142008271Y-95968204D01*
X141958537Y-95922985D01*
X141928126Y-95856088D01*
X141912561Y-95763148D01*
X141911152Y-95745610D01*
X141902710Y-95627614D01*
X142108314Y-95627614D01*
G36*
X141910781Y-93328913D02*
G01*
X141915727Y-93197680D01*
X143490527Y-93197680D01*
X143495472Y-93328913D01*
X143500418Y-93460147D01*
X141905836Y-93460147D01*
X141910781Y-93328913D01*
G37*
X141910781Y-93328913D02*
X141915727Y-93197680D01*
X143490527Y-93197680D01*
X143495472Y-93328913D01*
X143500418Y-93460147D01*
X141905836Y-93460147D01*
X141910781Y-93328913D01*
G36*
X143284505Y-97546725D02*
G01*
X143304601Y-97544698D01*
X143307082Y-97546725D01*
X143304758Y-97556791D01*
X143295793Y-97558013D01*
X143281855Y-97551818D01*
X143284505Y-97546725D01*
G37*
X143284505Y-97546725D02*
X143304601Y-97544698D01*
X143307082Y-97546725D01*
X143304758Y-97556791D01*
X143295793Y-97558013D01*
X143281855Y-97551818D01*
X143284505Y-97546725D01*
G36*
X143036490Y-89943837D02*
G01*
X143059258Y-89938014D01*
X143086419Y-89948727D01*
X143092594Y-89963414D01*
X143106787Y-89984082D01*
X143127234Y-89988814D01*
X143145513Y-89986040D01*
X143155340Y-89972781D01*
X143158637Y-89941627D01*
X143157323Y-89885169D01*
X143156867Y-89874514D01*
X143152261Y-89810679D01*
X143144386Y-89774784D01*
X143131677Y-89760945D01*
X143126460Y-89760214D01*
X143104733Y-89774660D01*
X143095519Y-89799303D01*
X143081507Y-89829517D01*
X143061653Y-89832556D01*
X143041856Y-89814548D01*
X143041386Y-89780444D01*
X143060148Y-89741892D01*
X143062409Y-89739047D01*
X143095064Y-89721752D01*
X143140447Y-89719444D01*
X143181082Y-89731795D01*
X143192706Y-89741487D01*
X143206169Y-89773850D01*
X143216261Y-89826718D01*
X143221541Y-89886785D01*
X143220567Y-89940743D01*
X143216732Y-89963414D01*
X143192584Y-90014130D01*
X143152689Y-90037114D01*
X143126460Y-90039614D01*
X143079352Y-90029360D01*
X143048029Y-89994535D01*
X143036487Y-89967647D01*
X143036490Y-89943837D01*
G37*
X143036490Y-89943837D02*
X143059258Y-89938014D01*
X143086419Y-89948727D01*
X143092594Y-89963414D01*
X143106787Y-89984082D01*
X143127234Y-89988814D01*
X143145513Y-89986040D01*
X143155340Y-89972781D01*
X143158637Y-89941627D01*
X143157323Y-89885169D01*
X143156867Y-89874514D01*
X143152261Y-89810679D01*
X143144386Y-89774784D01*
X143131677Y-89760945D01*
X143126460Y-89760214D01*
X143104733Y-89774660D01*
X143095519Y-89799303D01*
X143081507Y-89829517D01*
X143061653Y-89832556D01*
X143041856Y-89814548D01*
X143041386Y-89780444D01*
X143060148Y-89741892D01*
X143062409Y-89739047D01*
X143095064Y-89721752D01*
X143140447Y-89719444D01*
X143181082Y-89731795D01*
X143192706Y-89741487D01*
X143206169Y-89773850D01*
X143216261Y-89826718D01*
X143221541Y-89886785D01*
X143220567Y-89940743D01*
X143216732Y-89963414D01*
X143192584Y-90014130D01*
X143152689Y-90037114D01*
X143126460Y-90039614D01*
X143079352Y-90029360D01*
X143048029Y-89994535D01*
X143036487Y-89967647D01*
X143036490Y-89943837D01*
G36*
X142756858Y-89823722D02*
G01*
X142769419Y-89764087D01*
X142770441Y-89761316D01*
X142787750Y-89731885D01*
X142817338Y-89719701D01*
X142851721Y-89717880D01*
X142902198Y-89722396D01*
X142933755Y-89739961D01*
X142950542Y-89776605D01*
X142956706Y-89838356D01*
X142957127Y-89871042D01*
X142954746Y-89938550D01*
X142946306Y-89981267D01*
X142929863Y-90008020D01*
X142926160Y-90011589D01*
X142878229Y-90036341D01*
X142827006Y-90034873D01*
X142784938Y-90008006D01*
X142780287Y-90001979D01*
X142762864Y-89956631D01*
X142754864Y-89892558D01*
X142756858Y-89823722D01*
G37*
X142756858Y-89823722D02*
X142769419Y-89764087D01*
X142770441Y-89761316D01*
X142787750Y-89731885D01*
X142817338Y-89719701D01*
X142851721Y-89717880D01*
X142902198Y-89722396D01*
X142933755Y-89739961D01*
X142950542Y-89776605D01*
X142956706Y-89838356D01*
X142957127Y-89871042D01*
X142954746Y-89938550D01*
X142946306Y-89981267D01*
X142929863Y-90008020D01*
X142926160Y-90011589D01*
X142878229Y-90036341D01*
X142827006Y-90034873D01*
X142784938Y-90008006D01*
X142780287Y-90001979D01*
X142762864Y-89956631D01*
X142754864Y-89892558D01*
X142756858Y-89823722D01*
G36*
X142297513Y-89780719D02*
G01*
X142301105Y-89742307D01*
X142309350Y-89723768D01*
X142324095Y-89718111D01*
X142330594Y-89717880D01*
X142347467Y-89720708D01*
X142357580Y-89733735D01*
X142362635Y-89763771D01*
X142364336Y-89817630D01*
X142364460Y-89853347D01*
X142364911Y-89920533D01*
X142367704Y-89960762D01*
X142374998Y-89980945D01*
X142388953Y-89987992D01*
X142406793Y-89988814D01*
X142427789Y-89987370D01*
X142440361Y-89978433D01*
X142446668Y-89955092D01*
X142448870Y-89910438D01*
X142449127Y-89853347D01*
X142449793Y-89785933D01*
X142452970Y-89745539D01*
X142460423Y-89725325D01*
X142473918Y-89718452D01*
X142484099Y-89717880D01*
X142501630Y-89720326D01*
X142511721Y-89732300D01*
X142516022Y-89760753D01*
X142516183Y-89812639D01*
X142515240Y-89849114D01*
X142513795Y-89915002D01*
X142515548Y-89954057D01*
X142522475Y-89973291D01*
X142536552Y-89979716D01*
X142552234Y-89980347D01*
X142572821Y-89978451D01*
X142585372Y-89968098D01*
X142592329Y-89942284D01*
X142596135Y-89894009D01*
X142598006Y-89849114D01*
X142602120Y-89779720D01*
X142608861Y-89738623D01*
X142619481Y-89720280D01*
X142627639Y-89717880D01*
X142639471Y-89724168D01*
X142646959Y-89746715D01*
X142650953Y-89791051D01*
X142652300Y-89862701D01*
X142652327Y-89878747D01*
X142651300Y-89956326D01*
X142647689Y-90005428D01*
X142640697Y-90031395D01*
X142629527Y-90039568D01*
X142628338Y-90039614D01*
X142602582Y-90028145D01*
X142597936Y-90020373D01*
X142583392Y-90011164D01*
X142554191Y-90024446D01*
X142519867Y-90039046D01*
X142488262Y-90029717D01*
X142480997Y-90025363D01*
X142446266Y-90012293D01*
X142426810Y-90021290D01*
X142389614Y-90038409D01*
X142346875Y-90033534D01*
X142315362Y-90008813D01*
X142314256Y-90006860D01*
X142305690Y-89974410D01*
X142299446Y-89919399D01*
X142296753Y-89853119D01*
X142296727Y-89845993D01*
X142297513Y-89780719D01*
G37*
X142297513Y-89780719D02*
X142301105Y-89742307D01*
X142309350Y-89723768D01*
X142324095Y-89718111D01*
X142330594Y-89717880D01*
X142347467Y-89720708D01*
X142357580Y-89733735D01*
X142362635Y-89763771D01*
X142364336Y-89817630D01*
X142364460Y-89853347D01*
X142364911Y-89920533D01*
X142367704Y-89960762D01*
X142374998Y-89980945D01*
X142388953Y-89987992D01*
X142406793Y-89988814D01*
X142427789Y-89987370D01*
X142440361Y-89978433D01*
X142446668Y-89955092D01*
X142448870Y-89910438D01*
X142449127Y-89853347D01*
X142449793Y-89785933D01*
X142452970Y-89745539D01*
X142460423Y-89725325D01*
X142473918Y-89718452D01*
X142484099Y-89717880D01*
X142501630Y-89720326D01*
X142511721Y-89732300D01*
X142516022Y-89760753D01*
X142516183Y-89812639D01*
X142515240Y-89849114D01*
X142513795Y-89915002D01*
X142515548Y-89954057D01*
X142522475Y-89973291D01*
X142536552Y-89979716D01*
X142552234Y-89980347D01*
X142572821Y-89978451D01*
X142585372Y-89968098D01*
X142592329Y-89942284D01*
X142596135Y-89894009D01*
X142598006Y-89849114D01*
X142602120Y-89779720D01*
X142608861Y-89738623D01*
X142619481Y-89720280D01*
X142627639Y-89717880D01*
X142639471Y-89724168D01*
X142646959Y-89746715D01*
X142650953Y-89791051D01*
X142652300Y-89862701D01*
X142652327Y-89878747D01*
X142651300Y-89956326D01*
X142647689Y-90005428D01*
X142640697Y-90031395D01*
X142629527Y-90039568D01*
X142628338Y-90039614D01*
X142602582Y-90028145D01*
X142597936Y-90020373D01*
X142583392Y-90011164D01*
X142554191Y-90024446D01*
X142519867Y-90039046D01*
X142488262Y-90029717D01*
X142480997Y-90025363D01*
X142446266Y-90012293D01*
X142426810Y-90021290D01*
X142389614Y-90038409D01*
X142346875Y-90033534D01*
X142315362Y-90008813D01*
X142314256Y-90006860D01*
X142305690Y-89974410D01*
X142299446Y-89919399D01*
X142296753Y-89853119D01*
X142296727Y-89845993D01*
X142297513Y-89780719D01*
G36*
X128967944Y-95054762D02*
G01*
X129207374Y-95283865D01*
X129444835Y-95479597D01*
X129680909Y-95642356D01*
X129916179Y-95772542D01*
X130151226Y-95870553D01*
X130166534Y-95875828D01*
X130224189Y-95897478D01*
X130272854Y-95919273D01*
X130293534Y-95930976D01*
X130305056Y-95941351D01*
X130299833Y-95947238D01*
X130273392Y-95949046D01*
X130221262Y-95947181D01*
X130158067Y-95943320D01*
X129995237Y-95925246D01*
X129825697Y-95893368D01*
X129661983Y-95850592D01*
X129516631Y-95799825D01*
X129489200Y-95788239D01*
X129319419Y-95706725D01*
X129157082Y-95615233D01*
X129012737Y-95519924D01*
X128954548Y-95475910D01*
X128904216Y-95436704D01*
X128864499Y-95407339D01*
X128842354Y-95392914D01*
X128840361Y-95392240D01*
X128823008Y-95405063D01*
X128789797Y-95440129D01*
X128744846Y-95492329D01*
X128692271Y-95556558D01*
X128636189Y-95627709D01*
X128580718Y-95700676D01*
X128529976Y-95770351D01*
X128497007Y-95818110D01*
X128425600Y-95933014D01*
X128353852Y-96062805D01*
X128287066Y-96196870D01*
X128230548Y-96324597D01*
X128191558Y-96429284D01*
X128172545Y-96480682D01*
X128155095Y-96515974D01*
X128144771Y-96526651D01*
X128139076Y-96510946D01*
X128136483Y-96468151D01*
X128137213Y-96404920D01*
X128139238Y-96361673D01*
X128155119Y-96212156D01*
X128184256Y-96055172D01*
X128223604Y-95904404D01*
X128270116Y-95773535D01*
X128270240Y-95773240D01*
X128369244Y-95558318D01*
X128473213Y-95372357D01*
X128585187Y-95210507D01*
X128708205Y-95067918D01*
X128719445Y-95056350D01*
X128844621Y-94928716D01*
X128967944Y-95054762D01*
G37*
X128967944Y-95054762D02*
X129207374Y-95283865D01*
X129444835Y-95479597D01*
X129680909Y-95642356D01*
X129916179Y-95772542D01*
X130151226Y-95870553D01*
X130166534Y-95875828D01*
X130224189Y-95897478D01*
X130272854Y-95919273D01*
X130293534Y-95930976D01*
X130305056Y-95941351D01*
X130299833Y-95947238D01*
X130273392Y-95949046D01*
X130221262Y-95947181D01*
X130158067Y-95943320D01*
X129995237Y-95925246D01*
X129825697Y-95893368D01*
X129661983Y-95850592D01*
X129516631Y-95799825D01*
X129489200Y-95788239D01*
X129319419Y-95706725D01*
X129157082Y-95615233D01*
X129012737Y-95519924D01*
X128954548Y-95475910D01*
X128904216Y-95436704D01*
X128864499Y-95407339D01*
X128842354Y-95392914D01*
X128840361Y-95392240D01*
X128823008Y-95405063D01*
X128789797Y-95440129D01*
X128744846Y-95492329D01*
X128692271Y-95556558D01*
X128636189Y-95627709D01*
X128580718Y-95700676D01*
X128529976Y-95770351D01*
X128497007Y-95818110D01*
X128425600Y-95933014D01*
X128353852Y-96062805D01*
X128287066Y-96196870D01*
X128230548Y-96324597D01*
X128191558Y-96429284D01*
X128172545Y-96480682D01*
X128155095Y-96515974D01*
X128144771Y-96526651D01*
X128139076Y-96510946D01*
X128136483Y-96468151D01*
X128137213Y-96404920D01*
X128139238Y-96361673D01*
X128155119Y-96212156D01*
X128184256Y-96055172D01*
X128223604Y-95904404D01*
X128270116Y-95773535D01*
X128270240Y-95773240D01*
X128369244Y-95558318D01*
X128473213Y-95372357D01*
X128585187Y-95210507D01*
X128708205Y-95067918D01*
X128719445Y-95056350D01*
X128844621Y-94928716D01*
X128967944Y-95054762D01*
G36*
X128126886Y-94704504D02*
G01*
X128138982Y-94710960D01*
X128164714Y-94724261D01*
X128212807Y-94743547D01*
X128273258Y-94764830D01*
X128278467Y-94766545D01*
X128336738Y-94785977D01*
X128380972Y-94801390D01*
X128402633Y-94809800D01*
X128403353Y-94810229D01*
X128395075Y-94823694D01*
X128367801Y-94856599D01*
X128325898Y-94903868D01*
X128278345Y-94955504D01*
X128128920Y-95128737D01*
X127990269Y-95315918D01*
X127866839Y-95509918D01*
X127763076Y-95703608D01*
X127683428Y-95889859D01*
X127667911Y-95934107D01*
X127646718Y-95989849D01*
X127625124Y-96034645D01*
X127612969Y-96052640D01*
X127601990Y-96060593D01*
X127596122Y-96052016D01*
X127594894Y-96022014D01*
X127597837Y-95965692D01*
X127600762Y-95925640D01*
X127624998Y-95734796D01*
X127667529Y-95537701D01*
X127725229Y-95345559D01*
X127794969Y-95169573D01*
X127834109Y-95089756D01*
X127874462Y-95017418D01*
X127920535Y-94940843D01*
X127968311Y-94866032D01*
X128013770Y-94798984D01*
X128052896Y-94745702D01*
X128081671Y-94712186D01*
X128092371Y-94704031D01*
X128126886Y-94704504D01*
G37*
X128126886Y-94704504D02*
X128138982Y-94710960D01*
X128164714Y-94724261D01*
X128212807Y-94743547D01*
X128273258Y-94764830D01*
X128278467Y-94766545D01*
X128336738Y-94785977D01*
X128380972Y-94801390D01*
X128402633Y-94809800D01*
X128403353Y-94810229D01*
X128395075Y-94823694D01*
X128367801Y-94856599D01*
X128325898Y-94903868D01*
X128278345Y-94955504D01*
X128128920Y-95128737D01*
X127990269Y-95315918D01*
X127866839Y-95509918D01*
X127763076Y-95703608D01*
X127683428Y-95889859D01*
X127667911Y-95934107D01*
X127646718Y-95989849D01*
X127625124Y-96034645D01*
X127612969Y-96052640D01*
X127601990Y-96060593D01*
X127596122Y-96052016D01*
X127594894Y-96022014D01*
X127597837Y-95965692D01*
X127600762Y-95925640D01*
X127624998Y-95734796D01*
X127667529Y-95537701D01*
X127725229Y-95345559D01*
X127794969Y-95169573D01*
X127834109Y-95089756D01*
X127874462Y-95017418D01*
X127920535Y-94940843D01*
X127968311Y-94866032D01*
X128013770Y-94798984D01*
X128052896Y-94745702D01*
X128081671Y-94712186D01*
X128092371Y-94704031D01*
X128126886Y-94704504D01*
G36*
X127526624Y-94278999D02*
G01*
X127542994Y-94291554D01*
X127577823Y-94321460D01*
X127624655Y-94363128D01*
X127643182Y-94379906D01*
X127749584Y-94476705D01*
X127644358Y-94600039D01*
X127512108Y-94769024D01*
X127387699Y-94954818D01*
X127276605Y-95148070D01*
X127184304Y-95339433D01*
X127129892Y-95478431D01*
X127108276Y-95537624D01*
X127089347Y-95583792D01*
X127076843Y-95607898D01*
X127075967Y-95608865D01*
X127071584Y-95598237D01*
X127069713Y-95560184D01*
X127070468Y-95501064D01*
X127073028Y-95443040D01*
X127097047Y-95238527D01*
X127144869Y-95026093D01*
X127213135Y-94818052D01*
X127292335Y-94638707D01*
X127323769Y-94580588D01*
X127362445Y-94514576D01*
X127404400Y-94446750D01*
X127445675Y-94383191D01*
X127482310Y-94329979D01*
X127510344Y-94293195D01*
X127525817Y-94278918D01*
X127526624Y-94278999D01*
G37*
X127526624Y-94278999D02*
X127542994Y-94291554D01*
X127577823Y-94321460D01*
X127624655Y-94363128D01*
X127643182Y-94379906D01*
X127749584Y-94476705D01*
X127644358Y-94600039D01*
X127512108Y-94769024D01*
X127387699Y-94954818D01*
X127276605Y-95148070D01*
X127184304Y-95339433D01*
X127129892Y-95478431D01*
X127108276Y-95537624D01*
X127089347Y-95583792D01*
X127076843Y-95607898D01*
X127075967Y-95608865D01*
X127071584Y-95598237D01*
X127069713Y-95560184D01*
X127070468Y-95501064D01*
X127073028Y-95443040D01*
X127097047Y-95238527D01*
X127144869Y-95026093D01*
X127213135Y-94818052D01*
X127292335Y-94638707D01*
X127323769Y-94580588D01*
X127362445Y-94514576D01*
X127404400Y-94446750D01*
X127445675Y-94383191D01*
X127482310Y-94329979D01*
X127510344Y-94293195D01*
X127525817Y-94278918D01*
X127526624Y-94278999D01*
G36*
X129618700Y-94702803D02*
G01*
X129657396Y-94732378D01*
X129700381Y-94775918D01*
X129738002Y-94811015D01*
X129796483Y-94859475D01*
X129868586Y-94915750D01*
X129947074Y-94974296D01*
X130024709Y-95029566D01*
X130080212Y-95066963D01*
X130186395Y-95131243D01*
X130309417Y-95197826D01*
X130438024Y-95261157D01*
X130560964Y-95315682D01*
X130662126Y-95354219D01*
X130715697Y-95373421D01*
X130755502Y-95389764D01*
X130770782Y-95398178D01*
X130760307Y-95402481D01*
X130724287Y-95405277D01*
X130671006Y-95406579D01*
X130608752Y-95406400D01*
X130545812Y-95404753D01*
X130490470Y-95401650D01*
X130454400Y-95397687D01*
X130233499Y-95348118D01*
X130008946Y-95272248D01*
X129789241Y-95173998D01*
X129582882Y-95057285D01*
X129398368Y-94926031D01*
X129356723Y-94891468D01*
X129317094Y-94854531D01*
X129300984Y-94827486D01*
X129310638Y-94805678D01*
X129348305Y-94784454D01*
X129416230Y-94759157D01*
X129421467Y-94757357D01*
X129480960Y-94735681D01*
X129533345Y-94714450D01*
X129556393Y-94703745D01*
X129587305Y-94694398D01*
X129618700Y-94702803D01*
G37*
X129618700Y-94702803D02*
X129657396Y-94732378D01*
X129700381Y-94775918D01*
X129738002Y-94811015D01*
X129796483Y-94859475D01*
X129868586Y-94915750D01*
X129947074Y-94974296D01*
X130024709Y-95029566D01*
X130080212Y-95066963D01*
X130186395Y-95131243D01*
X130309417Y-95197826D01*
X130438024Y-95261157D01*
X130560964Y-95315682D01*
X130662126Y-95354219D01*
X130715697Y-95373421D01*
X130755502Y-95389764D01*
X130770782Y-95398178D01*
X130760307Y-95402481D01*
X130724287Y-95405277D01*
X130671006Y-95406579D01*
X130608752Y-95406400D01*
X130545812Y-95404753D01*
X130490470Y-95401650D01*
X130454400Y-95397687D01*
X130233499Y-95348118D01*
X130008946Y-95272248D01*
X129789241Y-95173998D01*
X129582882Y-95057285D01*
X129398368Y-94926031D01*
X129356723Y-94891468D01*
X129317094Y-94854531D01*
X129300984Y-94827486D01*
X129310638Y-94805678D01*
X129348305Y-94784454D01*
X129416230Y-94759157D01*
X129421467Y-94757357D01*
X129480960Y-94735681D01*
X129533345Y-94714450D01*
X129556393Y-94703745D01*
X129587305Y-94694398D01*
X129618700Y-94702803D01*
G36*
X127180913Y-93629137D02*
G01*
X127198986Y-93665011D01*
X127203347Y-93677740D01*
X127230178Y-93755177D01*
X127261388Y-93832013D01*
X127289865Y-93891064D01*
X127294604Y-93909898D01*
X127286202Y-93933471D01*
X127261121Y-93967378D01*
X127215822Y-94017213D01*
X127198828Y-94034997D01*
X127057916Y-94196969D01*
X126922568Y-94381799D01*
X126798662Y-94580000D01*
X126692074Y-94782082D01*
X126608683Y-94978557D01*
X126600866Y-95000307D01*
X126574565Y-95068516D01*
X126552271Y-95114048D01*
X126535830Y-95134144D01*
X126527087Y-95126046D01*
X126526160Y-95111993D01*
X126529449Y-95050561D01*
X126537516Y-94967094D01*
X126548909Y-94872845D01*
X126562174Y-94779067D01*
X126575859Y-94697013D01*
X126586181Y-94647174D01*
X126663956Y-94394129D01*
X126772744Y-94148509D01*
X126909746Y-93915819D01*
X127059267Y-93716746D01*
X127101930Y-93668793D01*
X127138176Y-93632983D01*
X127161311Y-93615816D01*
X127163787Y-93615192D01*
X127180913Y-93629137D01*
G37*
X127180913Y-93629137D02*
X127198986Y-93665011D01*
X127203347Y-93677740D01*
X127230178Y-93755177D01*
X127261388Y-93832013D01*
X127289865Y-93891064D01*
X127294604Y-93909898D01*
X127286202Y-93933471D01*
X127261121Y-93967378D01*
X127215822Y-94017213D01*
X127198828Y-94034997D01*
X127057916Y-94196969D01*
X126922568Y-94381799D01*
X126798662Y-94580000D01*
X126692074Y-94782082D01*
X126608683Y-94978557D01*
X126600866Y-95000307D01*
X126574565Y-95068516D01*
X126552271Y-95114048D01*
X126535830Y-95134144D01*
X126527087Y-95126046D01*
X126526160Y-95111993D01*
X126529449Y-95050561D01*
X126537516Y-94967094D01*
X126548909Y-94872845D01*
X126562174Y-94779067D01*
X126575859Y-94697013D01*
X126586181Y-94647174D01*
X126663956Y-94394129D01*
X126772744Y-94148509D01*
X126909746Y-93915819D01*
X127059267Y-93716746D01*
X127101930Y-93668793D01*
X127138176Y-93632983D01*
X127161311Y-93615816D01*
X127163787Y-93615192D01*
X127180913Y-93629137D01*
G36*
X130202660Y-94268653D02*
G01*
X130219176Y-94285326D01*
X130252904Y-94317947D01*
X130308794Y-94363401D01*
X130380121Y-94416844D01*
X130460161Y-94473430D01*
X130542189Y-94528313D01*
X130619482Y-94576648D01*
X130641013Y-94589304D01*
X130770783Y-94661928D01*
X130884882Y-94720151D01*
X130995013Y-94769513D01*
X131112881Y-94815552D01*
X131140200Y-94825491D01*
X131191166Y-94845326D01*
X131229178Y-94862816D01*
X131240953Y-94870106D01*
X131233673Y-94876236D01*
X131200695Y-94880050D01*
X131150118Y-94881467D01*
X131090036Y-94880411D01*
X131028545Y-94876801D01*
X130987800Y-94872559D01*
X130783727Y-94834537D01*
X130573864Y-94774497D01*
X130369947Y-94696514D01*
X130183714Y-94604666D01*
X130135761Y-94576669D01*
X130059910Y-94530432D01*
X130010513Y-94496966D01*
X129985612Y-94470608D01*
X129983252Y-94445695D01*
X130001477Y-94416563D01*
X130038330Y-94377550D01*
X130059587Y-94356154D01*
X130114889Y-94302256D01*
X130153450Y-94271357D01*
X130180849Y-94260981D01*
X130202660Y-94268653D01*
G37*
X130202660Y-94268653D02*
X130219176Y-94285326D01*
X130252904Y-94317947D01*
X130308794Y-94363401D01*
X130380121Y-94416844D01*
X130460161Y-94473430D01*
X130542189Y-94528313D01*
X130619482Y-94576648D01*
X130641013Y-94589304D01*
X130770783Y-94661928D01*
X130884882Y-94720151D01*
X130995013Y-94769513D01*
X131112881Y-94815552D01*
X131140200Y-94825491D01*
X131191166Y-94845326D01*
X131229178Y-94862816D01*
X131240953Y-94870106D01*
X131233673Y-94876236D01*
X131200695Y-94880050D01*
X131150118Y-94881467D01*
X131090036Y-94880411D01*
X131028545Y-94876801D01*
X130987800Y-94872559D01*
X130783727Y-94834537D01*
X130573864Y-94774497D01*
X130369947Y-94696514D01*
X130183714Y-94604666D01*
X130135761Y-94576669D01*
X130059910Y-94530432D01*
X130010513Y-94496966D01*
X129985612Y-94470608D01*
X129983252Y-94445695D01*
X130001477Y-94416563D01*
X130038330Y-94377550D01*
X130059587Y-94356154D01*
X130114889Y-94302256D01*
X130153450Y-94271357D01*
X130180849Y-94260981D01*
X130202660Y-94268653D01*
G36*
X125565576Y-92480775D02*
G01*
X125639391Y-92486342D01*
X125724716Y-92496344D01*
X125816131Y-92510206D01*
X125908217Y-92527354D01*
X125995552Y-92547214D01*
X126027906Y-92555779D01*
X126287355Y-92644988D01*
X126533814Y-92765182D01*
X126707326Y-92873520D01*
X126770775Y-92919484D01*
X126837843Y-92972176D01*
X126903373Y-93027013D01*
X126962209Y-93079415D01*
X127009197Y-93124798D01*
X127039178Y-93158580D01*
X127047265Y-93175618D01*
X127034454Y-93191320D01*
X127001248Y-93227493D01*
X126951071Y-93280535D01*
X126887349Y-93346843D01*
X126813505Y-93422815D01*
X126771400Y-93465801D01*
X126645970Y-93596487D01*
X126543658Y-93709874D01*
X126461136Y-93809822D01*
X126395079Y-93900193D01*
X126387954Y-93910797D01*
X126307431Y-94039417D01*
X126229435Y-94177961D01*
X126158986Y-94316689D01*
X126101102Y-94445861D01*
X126069763Y-94528238D01*
X126043327Y-94603232D01*
X126024772Y-94649292D01*
X126012102Y-94669879D01*
X126003322Y-94668453D01*
X125997634Y-94653319D01*
X125996017Y-94622296D01*
X125998752Y-94566230D01*
X126004900Y-94493529D01*
X126013524Y-94412599D01*
X126023685Y-94331848D01*
X126034445Y-94259685D01*
X126044867Y-94204517D01*
X126049847Y-94185318D01*
X126063456Y-94141152D01*
X126082701Y-94078357D01*
X126102915Y-94012174D01*
X126193825Y-93769854D01*
X126313645Y-93542310D01*
X126460121Y-93333657D01*
X126502738Y-93282492D01*
X126591749Y-93179344D01*
X126512241Y-93103333D01*
X126403767Y-93009194D01*
X126274157Y-92912187D01*
X126130874Y-92816768D01*
X125981381Y-92727390D01*
X125833142Y-92648507D01*
X125693621Y-92584574D01*
X125570279Y-92540044D01*
X125566569Y-92538956D01*
X125515248Y-92521691D01*
X125478455Y-92504967D01*
X125467396Y-92496418D01*
X125474158Y-92485239D01*
X125508692Y-92480216D01*
X125565576Y-92480775D01*
G37*
X125565576Y-92480775D02*
X125639391Y-92486342D01*
X125724716Y-92496344D01*
X125816131Y-92510206D01*
X125908217Y-92527354D01*
X125995552Y-92547214D01*
X126027906Y-92555779D01*
X126287355Y-92644988D01*
X126533814Y-92765182D01*
X126707326Y-92873520D01*
X126770775Y-92919484D01*
X126837843Y-92972176D01*
X126903373Y-93027013D01*
X126962209Y-93079415D01*
X127009197Y-93124798D01*
X127039178Y-93158580D01*
X127047265Y-93175618D01*
X127034454Y-93191320D01*
X127001248Y-93227493D01*
X126951071Y-93280535D01*
X126887349Y-93346843D01*
X126813505Y-93422815D01*
X126771400Y-93465801D01*
X126645970Y-93596487D01*
X126543658Y-93709874D01*
X126461136Y-93809822D01*
X126395079Y-93900193D01*
X126387954Y-93910797D01*
X126307431Y-94039417D01*
X126229435Y-94177961D01*
X126158986Y-94316689D01*
X126101102Y-94445861D01*
X126069763Y-94528238D01*
X126043327Y-94603232D01*
X126024772Y-94649292D01*
X126012102Y-94669879D01*
X126003322Y-94668453D01*
X125997634Y-94653319D01*
X125996017Y-94622296D01*
X125998752Y-94566230D01*
X126004900Y-94493529D01*
X126013524Y-94412599D01*
X126023685Y-94331848D01*
X126034445Y-94259685D01*
X126044867Y-94204517D01*
X126049847Y-94185318D01*
X126063456Y-94141152D01*
X126082701Y-94078357D01*
X126102915Y-94012174D01*
X126193825Y-93769854D01*
X126313645Y-93542310D01*
X126460121Y-93333657D01*
X126502738Y-93282492D01*
X126591749Y-93179344D01*
X126512241Y-93103333D01*
X126403767Y-93009194D01*
X126274157Y-92912187D01*
X126130874Y-92816768D01*
X125981381Y-92727390D01*
X125833142Y-92648507D01*
X125693621Y-92584574D01*
X125570279Y-92540044D01*
X125566569Y-92538956D01*
X125515248Y-92521691D01*
X125478455Y-92504967D01*
X125467396Y-92496418D01*
X125474158Y-92485239D01*
X125508692Y-92480216D01*
X125565576Y-92480775D01*
G36*
X127500234Y-92889629D02*
G01*
X127499246Y-92907765D01*
X127491000Y-92950180D01*
X127477178Y-93008486D01*
X127473658Y-93022219D01*
X127457981Y-93084000D01*
X127446297Y-93132727D01*
X127440743Y-93159421D01*
X127440557Y-93161273D01*
X127449242Y-93173600D01*
X127477190Y-93161497D01*
X127525570Y-93124368D01*
X127543716Y-93108724D01*
X127595527Y-93066751D01*
X127647123Y-93030422D01*
X127672259Y-93015591D01*
X127722265Y-92996650D01*
X127771622Y-92988506D01*
X127810550Y-92991519D01*
X127829265Y-93006052D01*
X127829734Y-93009771D01*
X127820240Y-93035715D01*
X127796609Y-93074950D01*
X127766115Y-93117523D01*
X127736030Y-93153480D01*
X127713628Y-93172869D01*
X127709735Y-93173973D01*
X127696005Y-93187711D01*
X127694267Y-93199373D01*
X127687393Y-93222548D01*
X127668222Y-93215314D01*
X127650734Y-93195140D01*
X127633736Y-93176735D01*
X127622222Y-93185540D01*
X127613138Y-93207632D01*
X127607241Y-93258342D01*
X127630125Y-93293521D01*
X127678686Y-93309050D01*
X127689873Y-93309440D01*
X127731659Y-93315977D01*
X127742950Y-93336177D01*
X127723967Y-93370926D01*
X127709239Y-93387728D01*
X127681834Y-93434484D01*
X127665300Y-93498363D01*
X127664613Y-93503918D01*
X127655816Y-93581971D01*
X127759426Y-93526139D01*
X127823410Y-93486975D01*
X127857725Y-93454782D01*
X127863318Y-93439833D01*
X127853077Y-93392505D01*
X127827235Y-93344223D01*
X127794282Y-93308989D01*
X127779159Y-93301045D01*
X127745112Y-93276990D01*
X127732056Y-93240502D01*
X127737833Y-93202001D01*
X127760289Y-93171908D01*
X127797266Y-93160642D01*
X127807958Y-93161878D01*
X127836184Y-93162963D01*
X127839789Y-93146081D01*
X127837480Y-93137839D01*
X127833868Y-93116371D01*
X127844107Y-93108549D01*
X127873012Y-93114814D01*
X127925399Y-93135604D01*
X127955109Y-93148573D01*
X128013268Y-93171418D01*
X128064848Y-93186789D01*
X128091684Y-93190907D01*
X128126749Y-93196373D01*
X128141648Y-93205653D01*
X128163294Y-93219149D01*
X128201914Y-93230630D01*
X128242059Y-93246680D01*
X128249919Y-93269644D01*
X128225251Y-93295462D01*
X128206419Y-93305587D01*
X128171052Y-93318160D01*
X128149710Y-93310932D01*
X128138818Y-93298118D01*
X128122507Y-93279014D01*
X128117813Y-93289712D01*
X128117600Y-93302817D01*
X128107547Y-93341599D01*
X128096575Y-93357559D01*
X128087569Y-93380407D01*
X128102665Y-93396453D01*
X128132114Y-93399875D01*
X128154788Y-93392330D01*
X128176596Y-93385541D01*
X128184568Y-93402458D01*
X128185334Y-93423610D01*
X128176387Y-93472937D01*
X128160531Y-93506648D01*
X128145080Y-93536334D01*
X128144970Y-93551299D01*
X128145030Y-93571354D01*
X128134455Y-93597454D01*
X128124209Y-93629441D01*
X128137434Y-93658296D01*
X128148310Y-93670871D01*
X128173450Y-93708490D01*
X128199318Y-93762791D01*
X128210253Y-93792040D01*
X128242539Y-93869195D01*
X128277588Y-93918070D01*
X128313419Y-93935942D01*
X128314958Y-93935973D01*
X128335754Y-93946021D01*
X128337734Y-93952907D01*
X128323242Y-93965636D01*
X128295400Y-93969840D01*
X128263577Y-93964044D01*
X128253067Y-93952907D01*
X128243608Y-93935864D01*
X128221916Y-93940307D01*
X128198013Y-93962196D01*
X128188052Y-93979104D01*
X128171433Y-94040838D01*
X128174149Y-94101067D01*
X128193499Y-94151329D01*
X128226782Y-94183165D01*
X128255372Y-94189974D01*
X128278368Y-94185063D01*
X128282846Y-94163850D01*
X128278467Y-94139174D01*
X128277336Y-94099971D01*
X128295992Y-94087685D01*
X128332937Y-94102892D01*
X128347197Y-94112778D01*
X128390879Y-94128804D01*
X128419529Y-94127534D01*
X128469120Y-94132141D01*
X128506582Y-94153071D01*
X128539708Y-94175387D01*
X128559514Y-94177582D01*
X128579234Y-94160552D01*
X128581420Y-94158148D01*
X128602545Y-94118059D01*
X128608667Y-94082807D01*
X128616401Y-94047663D01*
X128632137Y-94037574D01*
X128654090Y-94023618D01*
X128678299Y-93989176D01*
X128682713Y-93980454D01*
X128716628Y-93933477D01*
X128759618Y-93902707D01*
X128806367Y-93876263D01*
X128840276Y-93847563D01*
X128901084Y-93796865D01*
X128986894Y-93748729D01*
X129088862Y-93706879D01*
X129198143Y-93675042D01*
X129288159Y-93658880D01*
X129355959Y-93659947D01*
X129398990Y-93681653D01*
X129415541Y-93722627D01*
X129411609Y-93757688D01*
X129409497Y-93804113D01*
X129419125Y-93860201D01*
X129422435Y-93871173D01*
X129435286Y-93926087D01*
X129429650Y-93962438D01*
X129426714Y-93967731D01*
X129419440Y-93994229D01*
X129434465Y-94025448D01*
X129449174Y-94043729D01*
X129473465Y-94078038D01*
X129481646Y-94102528D01*
X129480760Y-94105263D01*
X129477906Y-94118056D01*
X129482715Y-94141461D01*
X129497219Y-94182180D01*
X129523452Y-94246918D01*
X129524416Y-94249240D01*
X129539935Y-94287249D01*
X129560064Y-94337300D01*
X129563777Y-94346607D01*
X129583693Y-94386577D01*
X129602433Y-94408608D01*
X129606869Y-94410107D01*
X129627112Y-94419495D01*
X129654960Y-94441187D01*
X129679672Y-94465474D01*
X129690507Y-94482646D01*
X129689578Y-94484866D01*
X129610305Y-94531273D01*
X129538941Y-94545644D01*
X129473321Y-94528279D01*
X129454868Y-94517221D01*
X129418287Y-94489539D01*
X129370420Y-94449677D01*
X129341412Y-94424088D01*
X129310513Y-94395975D01*
X129286159Y-94376553D01*
X129261391Y-94364126D01*
X129229247Y-94357000D01*
X129182765Y-94353479D01*
X129114984Y-94351868D01*
X129040467Y-94350812D01*
X128922419Y-94345322D01*
X128831170Y-94331737D01*
X128760260Y-94308336D01*
X128703227Y-94273402D01*
X128682660Y-94255634D01*
X128652459Y-94233055D01*
X128626828Y-94234539D01*
X128611180Y-94243134D01*
X128582936Y-94255049D01*
X128557438Y-94245603D01*
X128536326Y-94227466D01*
X128502154Y-94201223D01*
X128475140Y-94189980D01*
X128474721Y-94189974D01*
X128441017Y-94199678D01*
X128393761Y-94224074D01*
X128345344Y-94256081D01*
X128315768Y-94280780D01*
X128273104Y-94301203D01*
X128217030Y-94302582D01*
X128161519Y-94285801D01*
X128136667Y-94269471D01*
X128098127Y-94244030D01*
X128077615Y-94234689D01*
X128055282Y-94231284D01*
X128057059Y-94250006D01*
X128058369Y-94253281D01*
X128076032Y-94300217D01*
X128078050Y-94323004D01*
X128061248Y-94322697D01*
X128022451Y-94300353D01*
X127987387Y-94276870D01*
X127890759Y-94216052D01*
X127803785Y-94171307D01*
X127732062Y-94145254D01*
X127694203Y-94139545D01*
X127652783Y-94125027D01*
X127594490Y-94082529D01*
X127554072Y-94046009D01*
X127488054Y-93977843D01*
X127448055Y-93922093D01*
X127431345Y-93873281D01*
X127435192Y-93825925D01*
X127438722Y-93814592D01*
X127446129Y-93781183D01*
X127440947Y-93766660D01*
X127440527Y-93766640D01*
X127430607Y-93758173D01*
X127914400Y-93758173D01*
X127922867Y-93766640D01*
X127931334Y-93758173D01*
X127922867Y-93749707D01*
X127914400Y-93758173D01*
X127430607Y-93758173D01*
X127424143Y-93752656D01*
X127416786Y-93736685D01*
X127812800Y-93736685D01*
X127823120Y-93740089D01*
X127848231Y-93722897D01*
X127850900Y-93720482D01*
X127889845Y-93692024D01*
X127922867Y-93677162D01*
X127947036Y-93670598D01*
X127938082Y-93667981D01*
X127922401Y-93667004D01*
X127883988Y-93674694D01*
X127844670Y-93696010D01*
X127817645Y-93722562D01*
X127812800Y-93736685D01*
X127416786Y-93736685D01*
X127414609Y-93731961D01*
X127416677Y-93688164D01*
X127448429Y-93650014D01*
X127486572Y-93629664D01*
X127521065Y-93608053D01*
X127535888Y-93588464D01*
X127532538Y-93557125D01*
X127509942Y-93522984D01*
X127478625Y-93499385D01*
X127462720Y-93495707D01*
X127447322Y-93484521D01*
X127450247Y-93453373D01*
X127452581Y-93420948D01*
X127443244Y-93411040D01*
X127424424Y-93397061D01*
X127415141Y-93378038D01*
X127397044Y-93354606D01*
X127381278Y-93354010D01*
X127358600Y-93346832D01*
X127334542Y-93316567D01*
X127314795Y-93273248D01*
X127305052Y-93226911D01*
X127304800Y-93219216D01*
X127311383Y-93175515D01*
X127327422Y-93124092D01*
X127329334Y-93119391D01*
X127348394Y-93083293D01*
X127378259Y-93036577D01*
X127413500Y-92986542D01*
X127448687Y-92940486D01*
X127478392Y-92905709D01*
X127497186Y-92889510D01*
X127500234Y-92889629D01*
G37*
X127500234Y-92889629D02*
X127499246Y-92907765D01*
X127491000Y-92950180D01*
X127477178Y-93008486D01*
X127473658Y-93022219D01*
X127457981Y-93084000D01*
X127446297Y-93132727D01*
X127440743Y-93159421D01*
X127440557Y-93161273D01*
X127449242Y-93173600D01*
X127477190Y-93161497D01*
X127525570Y-93124368D01*
X127543716Y-93108724D01*
X127595527Y-93066751D01*
X127647123Y-93030422D01*
X127672259Y-93015591D01*
X127722265Y-92996650D01*
X127771622Y-92988506D01*
X127810550Y-92991519D01*
X127829265Y-93006052D01*
X127829734Y-93009771D01*
X127820240Y-93035715D01*
X127796609Y-93074950D01*
X127766115Y-93117523D01*
X127736030Y-93153480D01*
X127713628Y-93172869D01*
X127709735Y-93173973D01*
X127696005Y-93187711D01*
X127694267Y-93199373D01*
X127687393Y-93222548D01*
X127668222Y-93215314D01*
X127650734Y-93195140D01*
X127633736Y-93176735D01*
X127622222Y-93185540D01*
X127613138Y-93207632D01*
X127607241Y-93258342D01*
X127630125Y-93293521D01*
X127678686Y-93309050D01*
X127689873Y-93309440D01*
X127731659Y-93315977D01*
X127742950Y-93336177D01*
X127723967Y-93370926D01*
X127709239Y-93387728D01*
X127681834Y-93434484D01*
X127665300Y-93498363D01*
X127664613Y-93503918D01*
X127655816Y-93581971D01*
X127759426Y-93526139D01*
X127823410Y-93486975D01*
X127857725Y-93454782D01*
X127863318Y-93439833D01*
X127853077Y-93392505D01*
X127827235Y-93344223D01*
X127794282Y-93308989D01*
X127779159Y-93301045D01*
X127745112Y-93276990D01*
X127732056Y-93240502D01*
X127737833Y-93202001D01*
X127760289Y-93171908D01*
X127797266Y-93160642D01*
X127807958Y-93161878D01*
X127836184Y-93162963D01*
X127839789Y-93146081D01*
X127837480Y-93137839D01*
X127833868Y-93116371D01*
X127844107Y-93108549D01*
X127873012Y-93114814D01*
X127925399Y-93135604D01*
X127955109Y-93148573D01*
X128013268Y-93171418D01*
X128064848Y-93186789D01*
X128091684Y-93190907D01*
X128126749Y-93196373D01*
X128141648Y-93205653D01*
X128163294Y-93219149D01*
X128201914Y-93230630D01*
X128242059Y-93246680D01*
X128249919Y-93269644D01*
X128225251Y-93295462D01*
X128206419Y-93305587D01*
X128171052Y-93318160D01*
X128149710Y-93310932D01*
X128138818Y-93298118D01*
X128122507Y-93279014D01*
X128117813Y-93289712D01*
X128117600Y-93302817D01*
X128107547Y-93341599D01*
X128096575Y-93357559D01*
X128087569Y-93380407D01*
X128102665Y-93396453D01*
X128132114Y-93399875D01*
X128154788Y-93392330D01*
X128176596Y-93385541D01*
X128184568Y-93402458D01*
X128185334Y-93423610D01*
X128176387Y-93472937D01*
X128160531Y-93506648D01*
X128145080Y-93536334D01*
X128144970Y-93551299D01*
X128145030Y-93571354D01*
X128134455Y-93597454D01*
X128124209Y-93629441D01*
X128137434Y-93658296D01*
X128148310Y-93670871D01*
X128173450Y-93708490D01*
X128199318Y-93762791D01*
X128210253Y-93792040D01*
X128242539Y-93869195D01*
X128277588Y-93918070D01*
X128313419Y-93935942D01*
X128314958Y-93935973D01*
X128335754Y-93946021D01*
X128337734Y-93952907D01*
X128323242Y-93965636D01*
X128295400Y-93969840D01*
X128263577Y-93964044D01*
X128253067Y-93952907D01*
X128243608Y-93935864D01*
X128221916Y-93940307D01*
X128198013Y-93962196D01*
X128188052Y-93979104D01*
X128171433Y-94040838D01*
X128174149Y-94101067D01*
X128193499Y-94151329D01*
X128226782Y-94183165D01*
X128255372Y-94189974D01*
X128278368Y-94185063D01*
X128282846Y-94163850D01*
X128278467Y-94139174D01*
X128277336Y-94099971D01*
X128295992Y-94087685D01*
X128332937Y-94102892D01*
X128347197Y-94112778D01*
X128390879Y-94128804D01*
X128419529Y-94127534D01*
X128469120Y-94132141D01*
X128506582Y-94153071D01*
X128539708Y-94175387D01*
X128559514Y-94177582D01*
X128579234Y-94160552D01*
X128581420Y-94158148D01*
X128602545Y-94118059D01*
X128608667Y-94082807D01*
X128616401Y-94047663D01*
X128632137Y-94037574D01*
X128654090Y-94023618D01*
X128678299Y-93989176D01*
X128682713Y-93980454D01*
X128716628Y-93933477D01*
X128759618Y-93902707D01*
X128806367Y-93876263D01*
X128840276Y-93847563D01*
X128901084Y-93796865D01*
X128986894Y-93748729D01*
X129088862Y-93706879D01*
X129198143Y-93675042D01*
X129288159Y-93658880D01*
X129355959Y-93659947D01*
X129398990Y-93681653D01*
X129415541Y-93722627D01*
X129411609Y-93757688D01*
X129409497Y-93804113D01*
X129419125Y-93860201D01*
X129422435Y-93871173D01*
X129435286Y-93926087D01*
X129429650Y-93962438D01*
X129426714Y-93967731D01*
X129419440Y-93994229D01*
X129434465Y-94025448D01*
X129449174Y-94043729D01*
X129473465Y-94078038D01*
X129481646Y-94102528D01*
X129480760Y-94105263D01*
X129477906Y-94118056D01*
X129482715Y-94141461D01*
X129497219Y-94182180D01*
X129523452Y-94246918D01*
X129524416Y-94249240D01*
X129539935Y-94287249D01*
X129560064Y-94337300D01*
X129563777Y-94346607D01*
X129583693Y-94386577D01*
X129602433Y-94408608D01*
X129606869Y-94410107D01*
X129627112Y-94419495D01*
X129654960Y-94441187D01*
X129679672Y-94465474D01*
X129690507Y-94482646D01*
X129689578Y-94484866D01*
X129610305Y-94531273D01*
X129538941Y-94545644D01*
X129473321Y-94528279D01*
X129454868Y-94517221D01*
X129418287Y-94489539D01*
X129370420Y-94449677D01*
X129341412Y-94424088D01*
X129310513Y-94395975D01*
X129286159Y-94376553D01*
X129261391Y-94364126D01*
X129229247Y-94357000D01*
X129182765Y-94353479D01*
X129114984Y-94351868D01*
X129040467Y-94350812D01*
X128922419Y-94345322D01*
X128831170Y-94331737D01*
X128760260Y-94308336D01*
X128703227Y-94273402D01*
X128682660Y-94255634D01*
X128652459Y-94233055D01*
X128626828Y-94234539D01*
X128611180Y-94243134D01*
X128582936Y-94255049D01*
X128557438Y-94245603D01*
X128536326Y-94227466D01*
X128502154Y-94201223D01*
X128475140Y-94189980D01*
X128474721Y-94189974D01*
X128441017Y-94199678D01*
X128393761Y-94224074D01*
X128345344Y-94256081D01*
X128315768Y-94280780D01*
X128273104Y-94301203D01*
X128217030Y-94302582D01*
X128161519Y-94285801D01*
X128136667Y-94269471D01*
X128098127Y-94244030D01*
X128077615Y-94234689D01*
X128055282Y-94231284D01*
X128057059Y-94250006D01*
X128058369Y-94253281D01*
X128076032Y-94300217D01*
X128078050Y-94323004D01*
X128061248Y-94322697D01*
X128022451Y-94300353D01*
X127987387Y-94276870D01*
X127890759Y-94216052D01*
X127803785Y-94171307D01*
X127732062Y-94145254D01*
X127694203Y-94139545D01*
X127652783Y-94125027D01*
X127594490Y-94082529D01*
X127554072Y-94046009D01*
X127488054Y-93977843D01*
X127448055Y-93922093D01*
X127431345Y-93873281D01*
X127435192Y-93825925D01*
X127438722Y-93814592D01*
X127446129Y-93781183D01*
X127440947Y-93766660D01*
X127440527Y-93766640D01*
X127430607Y-93758173D01*
X127914400Y-93758173D01*
X127922867Y-93766640D01*
X127931334Y-93758173D01*
X127922867Y-93749707D01*
X127914400Y-93758173D01*
X127430607Y-93758173D01*
X127424143Y-93752656D01*
X127416786Y-93736685D01*
X127812800Y-93736685D01*
X127823120Y-93740089D01*
X127848231Y-93722897D01*
X127850900Y-93720482D01*
X127889845Y-93692024D01*
X127922867Y-93677162D01*
X127947036Y-93670598D01*
X127938082Y-93667981D01*
X127922401Y-93667004D01*
X127883988Y-93674694D01*
X127844670Y-93696010D01*
X127817645Y-93722562D01*
X127812800Y-93736685D01*
X127416786Y-93736685D01*
X127414609Y-93731961D01*
X127416677Y-93688164D01*
X127448429Y-93650014D01*
X127486572Y-93629664D01*
X127521065Y-93608053D01*
X127535888Y-93588464D01*
X127532538Y-93557125D01*
X127509942Y-93522984D01*
X127478625Y-93499385D01*
X127462720Y-93495707D01*
X127447322Y-93484521D01*
X127450247Y-93453373D01*
X127452581Y-93420948D01*
X127443244Y-93411040D01*
X127424424Y-93397061D01*
X127415141Y-93378038D01*
X127397044Y-93354606D01*
X127381278Y-93354010D01*
X127358600Y-93346832D01*
X127334542Y-93316567D01*
X127314795Y-93273248D01*
X127305052Y-93226911D01*
X127304800Y-93219216D01*
X127311383Y-93175515D01*
X127327422Y-93124092D01*
X127329334Y-93119391D01*
X127348394Y-93083293D01*
X127378259Y-93036577D01*
X127413500Y-92986542D01*
X127448687Y-92940486D01*
X127478392Y-92905709D01*
X127497186Y-92889510D01*
X127500234Y-92889629D01*
G36*
X130610190Y-93685913D02*
G01*
X130665444Y-93734474D01*
X130716696Y-93779775D01*
X130753791Y-93812836D01*
X130756762Y-93815513D01*
X130836991Y-93879883D01*
X130941446Y-93951751D01*
X131062588Y-94026873D01*
X131192879Y-94101005D01*
X131324778Y-94169902D01*
X131450747Y-94229321D01*
X131563245Y-94275017D01*
X131588934Y-94283984D01*
X131644499Y-94304892D01*
X131689009Y-94325727D01*
X131706862Y-94337236D01*
X131715591Y-94348362D01*
X131709075Y-94355001D01*
X131683409Y-94357236D01*
X131634688Y-94355149D01*
X131559007Y-94348821D01*
X131487334Y-94341857D01*
X131252532Y-94302667D01*
X131008987Y-94231338D01*
X130928534Y-94201438D01*
X130840137Y-94164028D01*
X130747969Y-94120033D01*
X130657190Y-94072496D01*
X130572965Y-94024455D01*
X130500456Y-93978952D01*
X130444826Y-93939029D01*
X130411237Y-93907724D01*
X130403600Y-93892272D01*
X130409348Y-93867624D01*
X130424674Y-93820167D01*
X130446706Y-93758585D01*
X130455995Y-93733926D01*
X130508389Y-93596719D01*
X130610190Y-93685913D01*
G37*
X130610190Y-93685913D02*
X130665444Y-93734474D01*
X130716696Y-93779775D01*
X130753791Y-93812836D01*
X130756762Y-93815513D01*
X130836991Y-93879883D01*
X130941446Y-93951751D01*
X131062588Y-94026873D01*
X131192879Y-94101005D01*
X131324778Y-94169902D01*
X131450747Y-94229321D01*
X131563245Y-94275017D01*
X131588934Y-94283984D01*
X131644499Y-94304892D01*
X131689009Y-94325727D01*
X131706862Y-94337236D01*
X131715591Y-94348362D01*
X131709075Y-94355001D01*
X131683409Y-94357236D01*
X131634688Y-94355149D01*
X131559007Y-94348821D01*
X131487334Y-94341857D01*
X131252532Y-94302667D01*
X131008987Y-94231338D01*
X130928534Y-94201438D01*
X130840137Y-94164028D01*
X130747969Y-94120033D01*
X130657190Y-94072496D01*
X130572965Y-94024455D01*
X130500456Y-93978952D01*
X130444826Y-93939029D01*
X130411237Y-93907724D01*
X130403600Y-93892272D01*
X130409348Y-93867624D01*
X130424674Y-93820167D01*
X130446706Y-93758585D01*
X130455995Y-93733926D01*
X130508389Y-93596719D01*
X130610190Y-93685913D01*
G36*
X128584248Y-93872044D02*
G01*
X128583699Y-93892181D01*
X128568373Y-93927713D01*
X128564485Y-93934542D01*
X128538410Y-93969356D01*
X128506702Y-93982825D01*
X128469026Y-93983712D01*
X128417754Y-93987903D01*
X128385504Y-94008757D01*
X128378430Y-94017838D01*
X128347327Y-94049859D01*
X128322170Y-94049632D01*
X128313855Y-94040035D01*
X128318792Y-94019999D01*
X128342699Y-93990171D01*
X128346722Y-93986283D01*
X128374328Y-93963867D01*
X128388161Y-93959525D01*
X128388534Y-93961046D01*
X128399112Y-93962987D01*
X128418167Y-93950459D01*
X128457325Y-93923016D01*
X128503748Y-93897291D01*
X128547200Y-93878118D01*
X128577441Y-93870330D01*
X128584248Y-93872044D01*
G37*
X128584248Y-93872044D02*
X128583699Y-93892181D01*
X128568373Y-93927713D01*
X128564485Y-93934542D01*
X128538410Y-93969356D01*
X128506702Y-93982825D01*
X128469026Y-93983712D01*
X128417754Y-93987903D01*
X128385504Y-94008757D01*
X128378430Y-94017838D01*
X128347327Y-94049859D01*
X128322170Y-94049632D01*
X128313855Y-94040035D01*
X128318792Y-94019999D01*
X128342699Y-93990171D01*
X128346722Y-93986283D01*
X128374328Y-93963867D01*
X128388161Y-93959525D01*
X128388534Y-93961046D01*
X128399112Y-93962987D01*
X128418167Y-93950459D01*
X128457325Y-93923016D01*
X128503748Y-93897291D01*
X128547200Y-93878118D01*
X128577441Y-93870330D01*
X128584248Y-93872044D01*
G36*
X128473200Y-94029107D02*
G01*
X128464734Y-94037574D01*
X128456267Y-94029107D01*
X128464734Y-94020640D01*
X128473200Y-94029107D01*
G37*
X128473200Y-94029107D02*
X128464734Y-94037574D01*
X128456267Y-94029107D01*
X128464734Y-94020640D01*
X128473200Y-94029107D01*
G36*
X131622263Y-91698573D02*
G01*
X131624422Y-91742609D01*
X131622672Y-91802598D01*
X131617234Y-91874145D01*
X131608328Y-91952856D01*
X131596175Y-92034339D01*
X131580996Y-92114200D01*
X131566575Y-92174907D01*
X131500016Y-92387384D01*
X131415949Y-92591422D01*
X131317748Y-92780352D01*
X131208789Y-92947505D01*
X131120710Y-93056040D01*
X131056193Y-93127453D01*
X131147816Y-93211701D01*
X131337979Y-93367350D01*
X131555853Y-93511037D01*
X131796456Y-93639642D01*
X131920413Y-93695895D01*
X131998201Y-93728630D01*
X132065545Y-93755810D01*
X132115959Y-93774902D01*
X132142960Y-93783372D01*
X132144779Y-93783573D01*
X132163518Y-93794849D01*
X132164667Y-93800507D01*
X132149223Y-93808736D01*
X132108510Y-93813573D01*
X132050954Y-93815022D01*
X131984982Y-93813086D01*
X131919021Y-93807766D01*
X131868334Y-93800413D01*
X131699108Y-93765063D01*
X131553528Y-93726487D01*
X131421372Y-93681419D01*
X131292420Y-93626591D01*
X131229492Y-93596264D01*
X131087333Y-93518914D01*
X130946320Y-93430148D01*
X130814790Y-93335840D01*
X130701081Y-93241859D01*
X130634433Y-93177170D01*
X130585866Y-93125611D01*
X130856025Y-92857692D01*
X130965610Y-92747132D01*
X131054033Y-92653322D01*
X131125876Y-92571013D01*
X131185724Y-92494955D01*
X131237803Y-92420440D01*
X131291296Y-92335545D01*
X131346867Y-92240903D01*
X131400979Y-92143226D01*
X131450097Y-92049221D01*
X131490681Y-91965601D01*
X131519196Y-91899075D01*
X131530221Y-91865714D01*
X131543624Y-91828447D01*
X131556943Y-91809681D01*
X131570937Y-91786311D01*
X131572000Y-91777076D01*
X131577746Y-91744984D01*
X131590124Y-91706109D01*
X131605335Y-91675929D01*
X131615974Y-91674882D01*
X131622263Y-91698573D01*
G37*
X131622263Y-91698573D02*
X131624422Y-91742609D01*
X131622672Y-91802598D01*
X131617234Y-91874145D01*
X131608328Y-91952856D01*
X131596175Y-92034339D01*
X131580996Y-92114200D01*
X131566575Y-92174907D01*
X131500016Y-92387384D01*
X131415949Y-92591422D01*
X131317748Y-92780352D01*
X131208789Y-92947505D01*
X131120710Y-93056040D01*
X131056193Y-93127453D01*
X131147816Y-93211701D01*
X131337979Y-93367350D01*
X131555853Y-93511037D01*
X131796456Y-93639642D01*
X131920413Y-93695895D01*
X131998201Y-93728630D01*
X132065545Y-93755810D01*
X132115959Y-93774902D01*
X132142960Y-93783372D01*
X132144779Y-93783573D01*
X132163518Y-93794849D01*
X132164667Y-93800507D01*
X132149223Y-93808736D01*
X132108510Y-93813573D01*
X132050954Y-93815022D01*
X131984982Y-93813086D01*
X131919021Y-93807766D01*
X131868334Y-93800413D01*
X131699108Y-93765063D01*
X131553528Y-93726487D01*
X131421372Y-93681419D01*
X131292420Y-93626591D01*
X131229492Y-93596264D01*
X131087333Y-93518914D01*
X130946320Y-93430148D01*
X130814790Y-93335840D01*
X130701081Y-93241859D01*
X130634433Y-93177170D01*
X130585866Y-93125611D01*
X130856025Y-92857692D01*
X130965610Y-92747132D01*
X131054033Y-92653322D01*
X131125876Y-92571013D01*
X131185724Y-92494955D01*
X131237803Y-92420440D01*
X131291296Y-92335545D01*
X131346867Y-92240903D01*
X131400979Y-92143226D01*
X131450097Y-92049221D01*
X131490681Y-91965601D01*
X131519196Y-91899075D01*
X131530221Y-91865714D01*
X131543624Y-91828447D01*
X131556943Y-91809681D01*
X131570937Y-91786311D01*
X131572000Y-91777076D01*
X131577746Y-91744984D01*
X131590124Y-91706109D01*
X131605335Y-91675929D01*
X131615974Y-91674882D01*
X131622263Y-91698573D01*
G36*
X129160240Y-91606315D02*
G01*
X129261908Y-91629080D01*
X129376124Y-91669481D01*
X129502683Y-91726078D01*
X129588763Y-91770976D01*
X129677901Y-91823569D01*
X129765920Y-91880672D01*
X129848643Y-91939099D01*
X129921893Y-91995661D01*
X129981494Y-92047174D01*
X130023269Y-92090451D01*
X130043042Y-92122306D01*
X130040965Y-92136740D01*
X130022719Y-92134471D01*
X129997146Y-92111264D01*
X129945887Y-92072798D01*
X129882089Y-92061731D01*
X129815111Y-92079626D01*
X129813279Y-92080561D01*
X129777939Y-92101205D01*
X129760439Y-92115818D01*
X129764927Y-92119935D01*
X129781300Y-92114981D01*
X129801053Y-92124146D01*
X129829100Y-92157934D01*
X129850010Y-92191713D01*
X129884722Y-92244151D01*
X129915433Y-92272801D01*
X129927492Y-92276507D01*
X129969806Y-92292069D01*
X130009379Y-92333396D01*
X130041400Y-92392448D01*
X130061060Y-92461189D01*
X130064934Y-92506209D01*
X130074009Y-92558228D01*
X130104855Y-92603042D01*
X130162903Y-92648465D01*
X130164590Y-92649571D01*
X130198168Y-92688372D01*
X130209593Y-92724227D01*
X130223826Y-92773296D01*
X130248852Y-92818819D01*
X130275946Y-92870309D01*
X130295261Y-92936041D01*
X130306474Y-93008194D01*
X130309264Y-93078947D01*
X130303308Y-93140481D01*
X130288283Y-93184974D01*
X130264740Y-93204455D01*
X130234934Y-93199703D01*
X130226380Y-93191844D01*
X130201603Y-93176087D01*
X130186944Y-93173973D01*
X130153915Y-93166443D01*
X130107431Y-93147339D01*
X130057298Y-93121892D01*
X130013327Y-93095331D01*
X129985326Y-93072889D01*
X129980267Y-93063762D01*
X129968753Y-93038345D01*
X129946400Y-93013107D01*
X129920789Y-92983852D01*
X129911829Y-92963916D01*
X129900960Y-92941458D01*
X129873963Y-92904472D01*
X129853320Y-92879929D01*
X129795516Y-92814484D01*
X129748191Y-92895846D01*
X129693315Y-92978842D01*
X129633206Y-93050882D01*
X129574016Y-93105520D01*
X129521893Y-93136304D01*
X129517474Y-93137772D01*
X129468264Y-93149501D01*
X129404809Y-93160592D01*
X129374524Y-93164669D01*
X129320857Y-93169380D01*
X129287114Y-93164569D01*
X129259771Y-93146030D01*
X129236305Y-93121654D01*
X129199542Y-93070430D01*
X129177947Y-93009721D01*
X129169267Y-92930849D01*
X129169535Y-92864195D01*
X129167507Y-92798507D01*
X129153714Y-92750344D01*
X129133364Y-92716442D01*
X129107392Y-92682488D01*
X129091321Y-92673423D01*
X129076398Y-92685870D01*
X129071392Y-92692532D01*
X129039587Y-92715386D01*
X128986780Y-92719509D01*
X128986096Y-92719464D01*
X128925986Y-92709372D01*
X128894289Y-92686241D01*
X128886620Y-92645478D01*
X128890079Y-92618872D01*
X128895792Y-92579923D01*
X128888844Y-92566001D01*
X128863586Y-92568999D01*
X128856539Y-92570740D01*
X128821212Y-92573547D01*
X128811867Y-92562623D01*
X128804115Y-92553191D01*
X128786149Y-92564637D01*
X128761817Y-92576245D01*
X128735466Y-92563058D01*
X128726883Y-92555619D01*
X128702541Y-92535941D01*
X128694228Y-92542989D01*
X128693333Y-92569216D01*
X128687942Y-92605747D01*
X128677765Y-92622796D01*
X128654185Y-92621022D01*
X128630151Y-92598318D01*
X128614901Y-92566207D01*
X128614504Y-92543880D01*
X128611135Y-92512618D01*
X128598886Y-92502259D01*
X128577203Y-92479651D01*
X128574800Y-92467766D01*
X128580533Y-92453983D01*
X128602497Y-92448790D01*
X128647836Y-92451185D01*
X128673250Y-92453941D01*
X128739696Y-92458051D01*
X128781331Y-92448326D01*
X128802685Y-92423807D01*
X128973940Y-92423807D01*
X128975433Y-92465470D01*
X128997267Y-92495774D01*
X129022343Y-92524371D01*
X129032000Y-92541873D01*
X129043898Y-92565436D01*
X129070389Y-92593732D01*
X129097669Y-92613040D01*
X129105745Y-92615174D01*
X129112229Y-92606634D01*
X129103120Y-92594854D01*
X129086155Y-92561841D01*
X129082800Y-92538974D01*
X129096393Y-92492571D01*
X129135781Y-92467180D01*
X129171718Y-92462774D01*
X129206394Y-92456847D01*
X129229927Y-92433152D01*
X129246154Y-92399274D01*
X129279766Y-92335294D01*
X129319120Y-92287084D01*
X129357888Y-92261737D01*
X129370796Y-92259574D01*
X129406278Y-92250688D01*
X129413014Y-92224786D01*
X129410644Y-92217206D01*
X129398790Y-92204271D01*
X129373620Y-92210397D01*
X129356777Y-92218643D01*
X129314929Y-92232923D01*
X129283024Y-92233213D01*
X129251720Y-92238690D01*
X129237835Y-92254265D01*
X129222401Y-92272966D01*
X129199006Y-92274554D01*
X129163409Y-92263473D01*
X129112954Y-92246980D01*
X129090568Y-92245198D01*
X129093533Y-92258731D01*
X129107629Y-92275876D01*
X129129624Y-92314736D01*
X129123125Y-92343763D01*
X129091759Y-92355772D01*
X129068579Y-92353303D01*
X129024148Y-92352674D01*
X128993842Y-92377302D01*
X128973940Y-92423807D01*
X128802685Y-92423807D01*
X128805961Y-92420046D01*
X128821393Y-92368493D01*
X128822350Y-92363793D01*
X128833033Y-92310374D01*
X128755558Y-92310374D01*
X128693450Y-92302923D01*
X128660409Y-92279329D01*
X128654793Y-92237729D01*
X128663148Y-92205492D01*
X128670686Y-92158134D01*
X128656107Y-92107278D01*
X128652772Y-92100050D01*
X128634465Y-92052476D01*
X128630227Y-92032884D01*
X129292444Y-92032884D01*
X129297997Y-92066950D01*
X129321832Y-92077716D01*
X129355043Y-92062074D01*
X129360806Y-92056739D01*
X129382082Y-92029049D01*
X129377777Y-92006427D01*
X129371614Y-91998248D01*
X129353230Y-91988640D01*
X129556933Y-91988640D01*
X129569819Y-92005081D01*
X129573867Y-92005574D01*
X129590308Y-91992688D01*
X129590800Y-91988640D01*
X129577914Y-91972199D01*
X129573867Y-91971707D01*
X129557426Y-91984593D01*
X129556933Y-91988640D01*
X129353230Y-91988640D01*
X129342353Y-91982956D01*
X129312484Y-91994233D01*
X129293543Y-92027033D01*
X129292444Y-92032884D01*
X128630227Y-92032884D01*
X128625724Y-92012075D01*
X128625600Y-92008547D01*
X128640376Y-91964300D01*
X128647645Y-91954774D01*
X129489200Y-91954774D01*
X129502983Y-91969634D01*
X129515600Y-91971707D01*
X129533126Y-91963498D01*
X129531533Y-91954774D01*
X129509885Y-91938486D01*
X129505134Y-91937840D01*
X129489656Y-91950756D01*
X129489200Y-91954774D01*
X128647645Y-91954774D01*
X128679950Y-91912440D01*
X129438400Y-91912440D01*
X129446867Y-91920907D01*
X129455333Y-91912440D01*
X129446867Y-91903974D01*
X129438400Y-91912440D01*
X128679950Y-91912440D01*
X128682692Y-91908848D01*
X128749532Y-91845589D01*
X128817297Y-91792615D01*
X128874391Y-91746741D01*
X128925705Y-91698083D01*
X128958380Y-91659472D01*
X128990227Y-91619884D01*
X129022867Y-91602623D01*
X129064166Y-91599173D01*
X129160240Y-91606315D01*
G37*
X129160240Y-91606315D02*
X129261908Y-91629080D01*
X129376124Y-91669481D01*
X129502683Y-91726078D01*
X129588763Y-91770976D01*
X129677901Y-91823569D01*
X129765920Y-91880672D01*
X129848643Y-91939099D01*
X129921893Y-91995661D01*
X129981494Y-92047174D01*
X130023269Y-92090451D01*
X130043042Y-92122306D01*
X130040965Y-92136740D01*
X130022719Y-92134471D01*
X129997146Y-92111264D01*
X129945887Y-92072798D01*
X129882089Y-92061731D01*
X129815111Y-92079626D01*
X129813279Y-92080561D01*
X129777939Y-92101205D01*
X129760439Y-92115818D01*
X129764927Y-92119935D01*
X129781300Y-92114981D01*
X129801053Y-92124146D01*
X129829100Y-92157934D01*
X129850010Y-92191713D01*
X129884722Y-92244151D01*
X129915433Y-92272801D01*
X129927492Y-92276507D01*
X129969806Y-92292069D01*
X130009379Y-92333396D01*
X130041400Y-92392448D01*
X130061060Y-92461189D01*
X130064934Y-92506209D01*
X130074009Y-92558228D01*
X130104855Y-92603042D01*
X130162903Y-92648465D01*
X130164590Y-92649571D01*
X130198168Y-92688372D01*
X130209593Y-92724227D01*
X130223826Y-92773296D01*
X130248852Y-92818819D01*
X130275946Y-92870309D01*
X130295261Y-92936041D01*
X130306474Y-93008194D01*
X130309264Y-93078947D01*
X130303308Y-93140481D01*
X130288283Y-93184974D01*
X130264740Y-93204455D01*
X130234934Y-93199703D01*
X130226380Y-93191844D01*
X130201603Y-93176087D01*
X130186944Y-93173973D01*
X130153915Y-93166443D01*
X130107431Y-93147339D01*
X130057298Y-93121892D01*
X130013327Y-93095331D01*
X129985326Y-93072889D01*
X129980267Y-93063762D01*
X129968753Y-93038345D01*
X129946400Y-93013107D01*
X129920789Y-92983852D01*
X129911829Y-92963916D01*
X129900960Y-92941458D01*
X129873963Y-92904472D01*
X129853320Y-92879929D01*
X129795516Y-92814484D01*
X129748191Y-92895846D01*
X129693315Y-92978842D01*
X129633206Y-93050882D01*
X129574016Y-93105520D01*
X129521893Y-93136304D01*
X129517474Y-93137772D01*
X129468264Y-93149501D01*
X129404809Y-93160592D01*
X129374524Y-93164669D01*
X129320857Y-93169380D01*
X129287114Y-93164569D01*
X129259771Y-93146030D01*
X129236305Y-93121654D01*
X129199542Y-93070430D01*
X129177947Y-93009721D01*
X129169267Y-92930849D01*
X129169535Y-92864195D01*
X129167507Y-92798507D01*
X129153714Y-92750344D01*
X129133364Y-92716442D01*
X129107392Y-92682488D01*
X129091321Y-92673423D01*
X129076398Y-92685870D01*
X129071392Y-92692532D01*
X129039587Y-92715386D01*
X128986780Y-92719509D01*
X128986096Y-92719464D01*
X128925986Y-92709372D01*
X128894289Y-92686241D01*
X128886620Y-92645478D01*
X128890079Y-92618872D01*
X128895792Y-92579923D01*
X128888844Y-92566001D01*
X128863586Y-92568999D01*
X128856539Y-92570740D01*
X128821212Y-92573547D01*
X128811867Y-92562623D01*
X128804115Y-92553191D01*
X128786149Y-92564637D01*
X128761817Y-92576245D01*
X128735466Y-92563058D01*
X128726883Y-92555619D01*
X128702541Y-92535941D01*
X128694228Y-92542989D01*
X128693333Y-92569216D01*
X128687942Y-92605747D01*
X128677765Y-92622796D01*
X128654185Y-92621022D01*
X128630151Y-92598318D01*
X128614901Y-92566207D01*
X128614504Y-92543880D01*
X128611135Y-92512618D01*
X128598886Y-92502259D01*
X128577203Y-92479651D01*
X128574800Y-92467766D01*
X128580533Y-92453983D01*
X128602497Y-92448790D01*
X128647836Y-92451185D01*
X128673250Y-92453941D01*
X128739696Y-92458051D01*
X128781331Y-92448326D01*
X128802685Y-92423807D01*
X128973940Y-92423807D01*
X128975433Y-92465470D01*
X128997267Y-92495774D01*
X129022343Y-92524371D01*
X129032000Y-92541873D01*
X129043898Y-92565436D01*
X129070389Y-92593732D01*
X129097669Y-92613040D01*
X129105745Y-92615174D01*
X129112229Y-92606634D01*
X129103120Y-92594854D01*
X129086155Y-92561841D01*
X129082800Y-92538974D01*
X129096393Y-92492571D01*
X129135781Y-92467180D01*
X129171718Y-92462774D01*
X129206394Y-92456847D01*
X129229927Y-92433152D01*
X129246154Y-92399274D01*
X129279766Y-92335294D01*
X129319120Y-92287084D01*
X129357888Y-92261737D01*
X129370796Y-92259574D01*
X129406278Y-92250688D01*
X129413014Y-92224786D01*
X129410644Y-92217206D01*
X129398790Y-92204271D01*
X129373620Y-92210397D01*
X129356777Y-92218643D01*
X129314929Y-92232923D01*
X129283024Y-92233213D01*
X129251720Y-92238690D01*
X129237835Y-92254265D01*
X129222401Y-92272966D01*
X129199006Y-92274554D01*
X129163409Y-92263473D01*
X129112954Y-92246980D01*
X129090568Y-92245198D01*
X129093533Y-92258731D01*
X129107629Y-92275876D01*
X129129624Y-92314736D01*
X129123125Y-92343763D01*
X129091759Y-92355772D01*
X129068579Y-92353303D01*
X129024148Y-92352674D01*
X128993842Y-92377302D01*
X128973940Y-92423807D01*
X128802685Y-92423807D01*
X128805961Y-92420046D01*
X128821393Y-92368493D01*
X128822350Y-92363793D01*
X128833033Y-92310374D01*
X128755558Y-92310374D01*
X128693450Y-92302923D01*
X128660409Y-92279329D01*
X128654793Y-92237729D01*
X128663148Y-92205492D01*
X128670686Y-92158134D01*
X128656107Y-92107278D01*
X128652772Y-92100050D01*
X128634465Y-92052476D01*
X128630227Y-92032884D01*
X129292444Y-92032884D01*
X129297997Y-92066950D01*
X129321832Y-92077716D01*
X129355043Y-92062074D01*
X129360806Y-92056739D01*
X129382082Y-92029049D01*
X129377777Y-92006427D01*
X129371614Y-91998248D01*
X129353230Y-91988640D01*
X129556933Y-91988640D01*
X129569819Y-92005081D01*
X129573867Y-92005574D01*
X129590308Y-91992688D01*
X129590800Y-91988640D01*
X129577914Y-91972199D01*
X129573867Y-91971707D01*
X129557426Y-91984593D01*
X129556933Y-91988640D01*
X129353230Y-91988640D01*
X129342353Y-91982956D01*
X129312484Y-91994233D01*
X129293543Y-92027033D01*
X129292444Y-92032884D01*
X128630227Y-92032884D01*
X128625724Y-92012075D01*
X128625600Y-92008547D01*
X128640376Y-91964300D01*
X128647645Y-91954774D01*
X129489200Y-91954774D01*
X129502983Y-91969634D01*
X129515600Y-91971707D01*
X129533126Y-91963498D01*
X129531533Y-91954774D01*
X129509885Y-91938486D01*
X129505134Y-91937840D01*
X129489656Y-91950756D01*
X129489200Y-91954774D01*
X128647645Y-91954774D01*
X128679950Y-91912440D01*
X129438400Y-91912440D01*
X129446867Y-91920907D01*
X129455333Y-91912440D01*
X129446867Y-91903974D01*
X129438400Y-91912440D01*
X128679950Y-91912440D01*
X128682692Y-91908848D01*
X128749532Y-91845589D01*
X128817297Y-91792615D01*
X128874391Y-91746741D01*
X128925705Y-91698083D01*
X128958380Y-91659472D01*
X128990227Y-91619884D01*
X129022867Y-91602623D01*
X129064166Y-91599173D01*
X129160240Y-91606315D01*
G36*
X127994400Y-92147662D02*
G01*
X127991948Y-92165908D01*
X127973667Y-92191840D01*
X127954707Y-92220297D01*
X127954015Y-92237100D01*
X127964829Y-92239061D01*
X127965200Y-92236400D01*
X127974636Y-92229351D01*
X127997583Y-92241905D01*
X128026004Y-92267539D01*
X128051859Y-92299731D01*
X128059755Y-92313123D01*
X128075952Y-92352541D01*
X128072065Y-92373805D01*
X128066589Y-92378237D01*
X128056814Y-92394564D01*
X128062212Y-92400671D01*
X128069646Y-92421634D01*
X128072111Y-92465397D01*
X128070288Y-92505614D01*
X128068723Y-92566785D01*
X128077174Y-92623125D01*
X128098347Y-92689067D01*
X128110460Y-92720069D01*
X128158517Y-92839446D01*
X128118984Y-92871458D01*
X128058225Y-92908944D01*
X128007784Y-92914382D01*
X127967124Y-92887803D01*
X127961775Y-92880973D01*
X127931125Y-92851471D01*
X127905132Y-92846424D01*
X127883978Y-92842879D01*
X127880534Y-92829254D01*
X127867886Y-92817315D01*
X127833604Y-92823152D01*
X127783174Y-92844261D01*
X127722085Y-92878136D01*
X127655826Y-92922275D01*
X127623730Y-92946424D01*
X127567351Y-92989592D01*
X127532333Y-93013312D01*
X127514185Y-93020016D01*
X127508417Y-93012133D01*
X127508357Y-93008874D01*
X127514007Y-92987833D01*
X127528591Y-92943999D01*
X127549128Y-92886279D01*
X127552292Y-92877640D01*
X127574904Y-92805464D01*
X127588374Y-92740337D01*
X127590566Y-92699840D01*
X127587285Y-92560663D01*
X127603758Y-92443275D01*
X127639343Y-92349719D01*
X127693402Y-92282036D01*
X127729467Y-92257275D01*
X127798105Y-92222256D01*
X127865915Y-92190794D01*
X127925808Y-92165820D01*
X127970695Y-92150269D01*
X127993485Y-92147075D01*
X127994400Y-92147662D01*
G37*
X127994400Y-92147662D02*
X127991948Y-92165908D01*
X127973667Y-92191840D01*
X127954707Y-92220297D01*
X127954015Y-92237100D01*
X127964829Y-92239061D01*
X127965200Y-92236400D01*
X127974636Y-92229351D01*
X127997583Y-92241905D01*
X128026004Y-92267539D01*
X128051859Y-92299731D01*
X128059755Y-92313123D01*
X128075952Y-92352541D01*
X128072065Y-92373805D01*
X128066589Y-92378237D01*
X128056814Y-92394564D01*
X128062212Y-92400671D01*
X128069646Y-92421634D01*
X128072111Y-92465397D01*
X128070288Y-92505614D01*
X128068723Y-92566785D01*
X128077174Y-92623125D01*
X128098347Y-92689067D01*
X128110460Y-92720069D01*
X128158517Y-92839446D01*
X128118984Y-92871458D01*
X128058225Y-92908944D01*
X128007784Y-92914382D01*
X127967124Y-92887803D01*
X127961775Y-92880973D01*
X127931125Y-92851471D01*
X127905132Y-92846424D01*
X127883978Y-92842879D01*
X127880534Y-92829254D01*
X127867886Y-92817315D01*
X127833604Y-92823152D01*
X127783174Y-92844261D01*
X127722085Y-92878136D01*
X127655826Y-92922275D01*
X127623730Y-92946424D01*
X127567351Y-92989592D01*
X127532333Y-93013312D01*
X127514185Y-93020016D01*
X127508417Y-93012133D01*
X127508357Y-93008874D01*
X127514007Y-92987833D01*
X127528591Y-92943999D01*
X127549128Y-92886279D01*
X127552292Y-92877640D01*
X127574904Y-92805464D01*
X127588374Y-92740337D01*
X127590566Y-92699840D01*
X127587285Y-92560663D01*
X127603758Y-92443275D01*
X127639343Y-92349719D01*
X127693402Y-92282036D01*
X127729467Y-92257275D01*
X127798105Y-92222256D01*
X127865915Y-92190794D01*
X127925808Y-92165820D01*
X127970695Y-92150269D01*
X127993485Y-92147075D01*
X127994400Y-92147662D01*
G36*
X126040978Y-91942369D02*
G01*
X126126031Y-91953736D01*
X126226047Y-91970471D01*
X126332151Y-91990888D01*
X126435464Y-92013297D01*
X126527111Y-92036011D01*
X126586646Y-92053458D01*
X126739892Y-92109428D01*
X126889880Y-92175434D01*
X127028521Y-92247370D01*
X127147731Y-92321132D01*
X127218151Y-92374033D01*
X127252988Y-92405074D01*
X127265411Y-92427227D01*
X127259437Y-92452781D01*
X127250156Y-92471962D01*
X127230946Y-92516460D01*
X127208575Y-92577331D01*
X127194787Y-92619407D01*
X127177326Y-92670693D01*
X127162328Y-92705671D01*
X127154315Y-92715996D01*
X127137883Y-92704923D01*
X127103349Y-92676170D01*
X127057277Y-92635268D01*
X127042333Y-92621591D01*
X126804585Y-92422600D01*
X126554769Y-92253691D01*
X126287979Y-92111844D01*
X126055967Y-92014674D01*
X125985537Y-91985656D01*
X125945154Y-91962857D01*
X125935576Y-91947039D01*
X125957559Y-91938962D01*
X125979767Y-91938060D01*
X126040978Y-91942369D01*
G37*
X126040978Y-91942369D02*
X126126031Y-91953736D01*
X126226047Y-91970471D01*
X126332151Y-91990888D01*
X126435464Y-92013297D01*
X126527111Y-92036011D01*
X126586646Y-92053458D01*
X126739892Y-92109428D01*
X126889880Y-92175434D01*
X127028521Y-92247370D01*
X127147731Y-92321132D01*
X127218151Y-92374033D01*
X127252988Y-92405074D01*
X127265411Y-92427227D01*
X127259437Y-92452781D01*
X127250156Y-92471962D01*
X127230946Y-92516460D01*
X127208575Y-92577331D01*
X127194787Y-92619407D01*
X127177326Y-92670693D01*
X127162328Y-92705671D01*
X127154315Y-92715996D01*
X127137883Y-92704923D01*
X127103349Y-92676170D01*
X127057277Y-92635268D01*
X127042333Y-92621591D01*
X126804585Y-92422600D01*
X126554769Y-92253691D01*
X126287979Y-92111844D01*
X126055967Y-92014674D01*
X125985537Y-91985656D01*
X125945154Y-91962857D01*
X125935576Y-91947039D01*
X125957559Y-91938962D01*
X125979767Y-91938060D01*
X126040978Y-91942369D01*
G36*
X131094944Y-91204448D02*
G01*
X131097374Y-91227745D01*
X131095553Y-91274601D01*
X131090455Y-91345251D01*
X131083314Y-91424703D01*
X131074865Y-91499497D01*
X131066534Y-91557549D01*
X131063470Y-91573773D01*
X131041410Y-91675090D01*
X131024677Y-91748463D01*
X131011990Y-91799161D01*
X131002065Y-91832456D01*
X130997544Y-91844707D01*
X130984426Y-91878216D01*
X130964236Y-91930886D01*
X130945555Y-91980174D01*
X130899492Y-92088449D01*
X130840992Y-92204953D01*
X130774492Y-92322457D01*
X130704428Y-92433730D01*
X130635236Y-92531542D01*
X130571354Y-92608661D01*
X130541906Y-92638004D01*
X130516237Y-92658455D01*
X130501679Y-92654648D01*
X130489614Y-92634625D01*
X130474588Y-92597707D01*
X130470804Y-92578187D01*
X130463695Y-92552170D01*
X130445648Y-92506114D01*
X130422602Y-92454411D01*
X130374928Y-92352915D01*
X130490128Y-92225811D01*
X130621965Y-92067149D01*
X130744351Y-91894651D01*
X130840472Y-91734640D01*
X130876635Y-91664860D01*
X130915431Y-91584674D01*
X130953947Y-91500769D01*
X130989273Y-91419830D01*
X131018499Y-91348542D01*
X131038713Y-91293591D01*
X131047005Y-91261661D01*
X131047067Y-91260131D01*
X131059268Y-91225784D01*
X131074976Y-91207624D01*
X131087674Y-91199483D01*
X131094944Y-91204448D01*
G37*
X131094944Y-91204448D02*
X131097374Y-91227745D01*
X131095553Y-91274601D01*
X131090455Y-91345251D01*
X131083314Y-91424703D01*
X131074865Y-91499497D01*
X131066534Y-91557549D01*
X131063470Y-91573773D01*
X131041410Y-91675090D01*
X131024677Y-91748463D01*
X131011990Y-91799161D01*
X131002065Y-91832456D01*
X130997544Y-91844707D01*
X130984426Y-91878216D01*
X130964236Y-91930886D01*
X130945555Y-91980174D01*
X130899492Y-92088449D01*
X130840992Y-92204953D01*
X130774492Y-92322457D01*
X130704428Y-92433730D01*
X130635236Y-92531542D01*
X130571354Y-92608661D01*
X130541906Y-92638004D01*
X130516237Y-92658455D01*
X130501679Y-92654648D01*
X130489614Y-92634625D01*
X130474588Y-92597707D01*
X130470804Y-92578187D01*
X130463695Y-92552170D01*
X130445648Y-92506114D01*
X130422602Y-92454411D01*
X130374928Y-92352915D01*
X130490128Y-92225811D01*
X130621965Y-92067149D01*
X130744351Y-91894651D01*
X130840472Y-91734640D01*
X130876635Y-91664860D01*
X130915431Y-91584674D01*
X130953947Y-91500769D01*
X130989273Y-91419830D01*
X131018499Y-91348542D01*
X131038713Y-91293591D01*
X131047005Y-91261661D01*
X131047067Y-91260131D01*
X131059268Y-91225784D01*
X131074976Y-91207624D01*
X131087674Y-91199483D01*
X131094944Y-91204448D01*
G36*
X128331132Y-92401880D02*
G01*
X128351215Y-92424818D01*
X128351517Y-92461674D01*
X128332437Y-92499168D01*
X128328057Y-92503897D01*
X128291580Y-92525771D01*
X128253804Y-92528322D01*
X128228008Y-92511150D01*
X128226040Y-92506972D01*
X128231156Y-92479781D01*
X128255389Y-92446205D01*
X128288405Y-92416578D01*
X128319868Y-92401235D01*
X128331132Y-92401880D01*
G37*
X128331132Y-92401880D02*
X128351215Y-92424818D01*
X128351517Y-92461674D01*
X128332437Y-92499168D01*
X128328057Y-92503897D01*
X128291580Y-92525771D01*
X128253804Y-92528322D01*
X128228008Y-92511150D01*
X128226040Y-92506972D01*
X128231156Y-92479781D01*
X128255389Y-92446205D01*
X128288405Y-92416578D01*
X128319868Y-92401235D01*
X128331132Y-92401880D01*
G36*
X126535225Y-91414291D02*
G01*
X126607387Y-91419817D01*
X126678568Y-91430631D01*
X126681208Y-91431160D01*
X126818858Y-91459845D01*
X126929223Y-91484830D01*
X127018482Y-91507619D01*
X127092815Y-91529713D01*
X127110067Y-91535397D01*
X127181705Y-91562540D01*
X127263788Y-91598536D01*
X127350876Y-91640415D01*
X127437530Y-91685206D01*
X127518310Y-91729938D01*
X127587777Y-91771642D01*
X127640492Y-91807345D01*
X127671014Y-91834077D01*
X127676412Y-91844707D01*
X127665298Y-91864420D01*
X127636907Y-91899887D01*
X127598145Y-91943703D01*
X127555918Y-91988468D01*
X127517134Y-92026778D01*
X127488697Y-92051232D01*
X127479102Y-92056191D01*
X127460354Y-92045267D01*
X127426292Y-92017328D01*
X127397933Y-91991315D01*
X127331131Y-91934053D01*
X127242308Y-91867270D01*
X127139764Y-91796535D01*
X127031801Y-91727415D01*
X126926717Y-91665478D01*
X126855417Y-91627405D01*
X126774806Y-91588447D01*
X126688419Y-91549446D01*
X126603000Y-91513141D01*
X126525292Y-91482274D01*
X126462040Y-91459584D01*
X126419985Y-91447813D01*
X126410954Y-91446773D01*
X126396585Y-91437463D01*
X126398867Y-91429840D01*
X126422363Y-91419262D01*
X126470683Y-91414093D01*
X126535225Y-91414291D01*
G37*
X126535225Y-91414291D02*
X126607387Y-91419817D01*
X126678568Y-91430631D01*
X126681208Y-91431160D01*
X126818858Y-91459845D01*
X126929223Y-91484830D01*
X127018482Y-91507619D01*
X127092815Y-91529713D01*
X127110067Y-91535397D01*
X127181705Y-91562540D01*
X127263788Y-91598536D01*
X127350876Y-91640415D01*
X127437530Y-91685206D01*
X127518310Y-91729938D01*
X127587777Y-91771642D01*
X127640492Y-91807345D01*
X127671014Y-91834077D01*
X127676412Y-91844707D01*
X127665298Y-91864420D01*
X127636907Y-91899887D01*
X127598145Y-91943703D01*
X127555918Y-91988468D01*
X127517134Y-92026778D01*
X127488697Y-92051232D01*
X127479102Y-92056191D01*
X127460354Y-92045267D01*
X127426292Y-92017328D01*
X127397933Y-91991315D01*
X127331131Y-91934053D01*
X127242308Y-91867270D01*
X127139764Y-91796535D01*
X127031801Y-91727415D01*
X126926717Y-91665478D01*
X126855417Y-91627405D01*
X126774806Y-91588447D01*
X126688419Y-91549446D01*
X126603000Y-91513141D01*
X126525292Y-91482274D01*
X126462040Y-91459584D01*
X126419985Y-91447813D01*
X126410954Y-91446773D01*
X126396585Y-91437463D01*
X126398867Y-91429840D01*
X126422363Y-91419262D01*
X126470683Y-91414093D01*
X126535225Y-91414291D01*
G36*
X130552495Y-90751267D02*
G01*
X130554947Y-90793226D01*
X130553705Y-90854644D01*
X130549270Y-90928477D01*
X130542139Y-91007686D01*
X130532812Y-91085229D01*
X130521789Y-91154065D01*
X130513462Y-91192774D01*
X130486526Y-91293005D01*
X130456667Y-91386998D01*
X130419475Y-91487767D01*
X130381376Y-91582240D01*
X130354089Y-91643077D01*
X130318788Y-91714557D01*
X130279224Y-91789911D01*
X130239147Y-91862374D01*
X130202307Y-91925176D01*
X130172454Y-91971552D01*
X130153340Y-91994734D01*
X130152434Y-91995355D01*
X130135156Y-91988008D01*
X130100837Y-91961053D01*
X130055641Y-91919547D01*
X130034834Y-91898925D01*
X129931129Y-91793907D01*
X130016106Y-91692307D01*
X130141081Y-91528684D01*
X130258345Y-91347953D01*
X130362557Y-91159612D01*
X130448377Y-90973157D01*
X130500391Y-90831134D01*
X130518899Y-90780308D01*
X130536014Y-90745711D01*
X130545852Y-90735807D01*
X130552495Y-90751267D01*
G37*
X130552495Y-90751267D02*
X130554947Y-90793226D01*
X130553705Y-90854644D01*
X130549270Y-90928477D01*
X130542139Y-91007686D01*
X130532812Y-91085229D01*
X130521789Y-91154065D01*
X130513462Y-91192774D01*
X130486526Y-91293005D01*
X130456667Y-91386998D01*
X130419475Y-91487767D01*
X130381376Y-91582240D01*
X130354089Y-91643077D01*
X130318788Y-91714557D01*
X130279224Y-91789911D01*
X130239147Y-91862374D01*
X130202307Y-91925176D01*
X130172454Y-91971552D01*
X130153340Y-91994734D01*
X130152434Y-91995355D01*
X130135156Y-91988008D01*
X130100837Y-91961053D01*
X130055641Y-91919547D01*
X130034834Y-91898925D01*
X129931129Y-91793907D01*
X130016106Y-91692307D01*
X130141081Y-91528684D01*
X130258345Y-91347953D01*
X130362557Y-91159612D01*
X130448377Y-90973157D01*
X130500391Y-90831134D01*
X130518899Y-90780308D01*
X130536014Y-90745711D01*
X130545852Y-90735807D01*
X130552495Y-90751267D01*
G36*
X128496963Y-91841049D02*
G01*
X128506699Y-91858251D01*
X128491765Y-91869307D01*
X128481667Y-91870107D01*
X128459211Y-91883397D01*
X128456267Y-91894991D01*
X128444118Y-91912762D01*
X128404791Y-91917848D01*
X128397000Y-91917647D01*
X128357968Y-91911550D01*
X128338710Y-91899440D01*
X128338266Y-91896996D01*
X128353677Y-91868449D01*
X128389632Y-91842669D01*
X128433101Y-91826858D01*
X128465773Y-91826521D01*
X128496963Y-91841049D01*
G37*
X128496963Y-91841049D02*
X128506699Y-91858251D01*
X128491765Y-91869307D01*
X128481667Y-91870107D01*
X128459211Y-91883397D01*
X128456267Y-91894991D01*
X128444118Y-91912762D01*
X128404791Y-91917848D01*
X128397000Y-91917647D01*
X128357968Y-91911550D01*
X128338710Y-91899440D01*
X128338266Y-91896996D01*
X128353677Y-91868449D01*
X128389632Y-91842669D01*
X128433101Y-91826858D01*
X128465773Y-91826521D01*
X128496963Y-91841049D01*
G36*
X128881136Y-91651540D02*
G01*
X128896123Y-91666889D01*
X128880774Y-91682806D01*
X128879600Y-91683581D01*
X128841955Y-91699325D01*
X128817141Y-91692907D01*
X128811867Y-91677185D01*
X128825157Y-91650862D01*
X128855734Y-91642807D01*
X128881136Y-91651540D01*
G37*
X128881136Y-91651540D02*
X128896123Y-91666889D01*
X128880774Y-91682806D01*
X128879600Y-91683581D01*
X128841955Y-91699325D01*
X128817141Y-91692907D01*
X128811867Y-91677185D01*
X128825157Y-91650862D01*
X128855734Y-91642807D01*
X128881136Y-91651540D01*
G36*
X126986976Y-90881191D02*
G01*
X127066406Y-90889994D01*
X127155268Y-90902557D01*
X127247637Y-90918072D01*
X127337585Y-90935727D01*
X127419187Y-90954714D01*
X127465667Y-90967603D01*
X127693572Y-91047838D01*
X127900184Y-91145491D01*
X128058334Y-91240202D01*
X128160337Y-91310211D01*
X128240473Y-91371394D01*
X128297269Y-91422226D01*
X128329252Y-91461182D01*
X128334952Y-91486735D01*
X128312895Y-91497361D01*
X128306689Y-91497573D01*
X128274718Y-91502898D01*
X128264746Y-91508472D01*
X128242513Y-91521450D01*
X128199589Y-91540978D01*
X128146909Y-91562681D01*
X128095407Y-91582181D01*
X128056017Y-91595101D01*
X128041400Y-91597880D01*
X128022391Y-91586821D01*
X127984293Y-91557820D01*
X127933144Y-91515645D01*
X127889917Y-91478294D01*
X127734947Y-91353282D01*
X127562182Y-91233664D01*
X127381373Y-91125371D01*
X127202273Y-91034333D01*
X127067733Y-90978266D01*
X126983642Y-90946952D01*
X126926387Y-90924763D01*
X126890927Y-90909397D01*
X126872219Y-90898548D01*
X126865220Y-90889915D01*
X126864534Y-90885448D01*
X126880113Y-90878108D01*
X126922903Y-90876959D01*
X126986976Y-90881191D01*
G37*
X126986976Y-90881191D02*
X127066406Y-90889994D01*
X127155268Y-90902557D01*
X127247637Y-90918072D01*
X127337585Y-90935727D01*
X127419187Y-90954714D01*
X127465667Y-90967603D01*
X127693572Y-91047838D01*
X127900184Y-91145491D01*
X128058334Y-91240202D01*
X128160337Y-91310211D01*
X128240473Y-91371394D01*
X128297269Y-91422226D01*
X128329252Y-91461182D01*
X128334952Y-91486735D01*
X128312895Y-91497361D01*
X128306689Y-91497573D01*
X128274718Y-91502898D01*
X128264746Y-91508472D01*
X128242513Y-91521450D01*
X128199589Y-91540978D01*
X128146909Y-91562681D01*
X128095407Y-91582181D01*
X128056017Y-91595101D01*
X128041400Y-91597880D01*
X128022391Y-91586821D01*
X127984293Y-91557820D01*
X127933144Y-91515645D01*
X127889917Y-91478294D01*
X127734947Y-91353282D01*
X127562182Y-91233664D01*
X127381373Y-91125371D01*
X127202273Y-91034333D01*
X127067733Y-90978266D01*
X126983642Y-90946952D01*
X126926387Y-90924763D01*
X126890927Y-90909397D01*
X126872219Y-90898548D01*
X126865220Y-90889915D01*
X126864534Y-90885448D01*
X126880113Y-90878108D01*
X126922903Y-90876959D01*
X126986976Y-90881191D01*
G36*
X130026084Y-90277058D02*
G01*
X130028783Y-90319726D01*
X130026535Y-90383163D01*
X130019867Y-90461089D01*
X130009308Y-90547222D01*
X129995386Y-90635283D01*
X129979883Y-90713409D01*
X129954875Y-90819254D01*
X129929575Y-90909055D01*
X129899865Y-90994989D01*
X129861624Y-91089232D01*
X129823451Y-91175840D01*
X129800171Y-91222278D01*
X129766232Y-91283573D01*
X129726150Y-91352290D01*
X129684439Y-91420989D01*
X129645612Y-91482234D01*
X129614185Y-91528588D01*
X129594856Y-91552451D01*
X129571560Y-91568057D01*
X129545788Y-91567791D01*
X129506133Y-91552885D01*
X129459964Y-91532611D01*
X129424292Y-91516267D01*
X129420911Y-91514630D01*
X129386306Y-91502027D01*
X129340478Y-91489915D01*
X129300970Y-91475830D01*
X129289287Y-91454498D01*
X129305649Y-91422153D01*
X129347020Y-91378129D01*
X129398547Y-91323587D01*
X129462206Y-91248246D01*
X129531952Y-91159883D01*
X129601742Y-91066274D01*
X129665532Y-90975197D01*
X129695037Y-90930307D01*
X129727499Y-90876419D01*
X129765747Y-90808234D01*
X129806420Y-90732345D01*
X129846158Y-90655342D01*
X129881601Y-90583817D01*
X129909391Y-90524363D01*
X129926165Y-90483570D01*
X129929571Y-90470178D01*
X129936831Y-90446385D01*
X129953375Y-90410747D01*
X129975145Y-90358679D01*
X129988483Y-90313381D01*
X130001480Y-90277327D01*
X130017247Y-90261474D01*
X130017909Y-90261440D01*
X130026084Y-90277058D01*
G37*
X130026084Y-90277058D02*
X130028783Y-90319726D01*
X130026535Y-90383163D01*
X130019867Y-90461089D01*
X130009308Y-90547222D01*
X129995386Y-90635283D01*
X129979883Y-90713409D01*
X129954875Y-90819254D01*
X129929575Y-90909055D01*
X129899865Y-90994989D01*
X129861624Y-91089232D01*
X129823451Y-91175840D01*
X129800171Y-91222278D01*
X129766232Y-91283573D01*
X129726150Y-91352290D01*
X129684439Y-91420989D01*
X129645612Y-91482234D01*
X129614185Y-91528588D01*
X129594856Y-91552451D01*
X129571560Y-91568057D01*
X129545788Y-91567791D01*
X129506133Y-91552885D01*
X129459964Y-91532611D01*
X129424292Y-91516267D01*
X129420911Y-91514630D01*
X129386306Y-91502027D01*
X129340478Y-91489915D01*
X129300970Y-91475830D01*
X129289287Y-91454498D01*
X129305649Y-91422153D01*
X129347020Y-91378129D01*
X129398547Y-91323587D01*
X129462206Y-91248246D01*
X129531952Y-91159883D01*
X129601742Y-91066274D01*
X129665532Y-90975197D01*
X129695037Y-90930307D01*
X129727499Y-90876419D01*
X129765747Y-90808234D01*
X129806420Y-90732345D01*
X129846158Y-90655342D01*
X129881601Y-90583817D01*
X129909391Y-90524363D01*
X129926165Y-90483570D01*
X129929571Y-90470178D01*
X129936831Y-90446385D01*
X129953375Y-90410747D01*
X129975145Y-90358679D01*
X129988483Y-90313381D01*
X130001480Y-90277327D01*
X130017247Y-90261474D01*
X130017909Y-90261440D01*
X130026084Y-90277058D01*
G36*
X129496916Y-89819178D02*
G01*
X129496401Y-89880305D01*
X129495194Y-89901711D01*
X129461994Y-90169985D01*
X129397712Y-90430442D01*
X129303766Y-90679773D01*
X129181575Y-90914666D01*
X129032560Y-91131811D01*
X128903440Y-91281674D01*
X128858656Y-91327196D01*
X128822381Y-91361013D01*
X128801013Y-91377245D01*
X128798744Y-91377866D01*
X128783127Y-91365721D01*
X128749430Y-91333437D01*
X128702487Y-91285813D01*
X128647130Y-91227649D01*
X128642534Y-91222738D01*
X128416474Y-90999597D01*
X128184461Y-90808160D01*
X127943526Y-90646397D01*
X127690701Y-90512278D01*
X127469900Y-90420573D01*
X127409586Y-90396636D01*
X127363892Y-90375157D01*
X127340316Y-90359784D01*
X127338667Y-90356711D01*
X127354247Y-90349984D01*
X127396483Y-90348235D01*
X127458618Y-90350920D01*
X127533893Y-90357497D01*
X127615550Y-90367420D01*
X127696833Y-90380147D01*
X127745067Y-90389414D01*
X127877313Y-90419489D01*
X127991003Y-90451640D01*
X128098872Y-90490276D01*
X128213654Y-90539802D01*
X128303867Y-90582788D01*
X128405713Y-90636798D01*
X128512726Y-90700658D01*
X128615522Y-90768242D01*
X128704720Y-90833427D01*
X128762860Y-90882394D01*
X128806986Y-90923500D01*
X128889860Y-90827533D01*
X129060075Y-90611280D01*
X129209365Y-90382400D01*
X129333765Y-90147633D01*
X129429313Y-89913717D01*
X129432014Y-89905840D01*
X129458482Y-89834486D01*
X129478055Y-89796262D01*
X129490833Y-89791161D01*
X129496916Y-89819178D01*
G37*
X129496916Y-89819178D02*
X129496401Y-89880305D01*
X129495194Y-89901711D01*
X129461994Y-90169985D01*
X129397712Y-90430442D01*
X129303766Y-90679773D01*
X129181575Y-90914666D01*
X129032560Y-91131811D01*
X128903440Y-91281674D01*
X128858656Y-91327196D01*
X128822381Y-91361013D01*
X128801013Y-91377245D01*
X128798744Y-91377866D01*
X128783127Y-91365721D01*
X128749430Y-91333437D01*
X128702487Y-91285813D01*
X128647130Y-91227649D01*
X128642534Y-91222738D01*
X128416474Y-90999597D01*
X128184461Y-90808160D01*
X127943526Y-90646397D01*
X127690701Y-90512278D01*
X127469900Y-90420573D01*
X127409586Y-90396636D01*
X127363892Y-90375157D01*
X127340316Y-90359784D01*
X127338667Y-90356711D01*
X127354247Y-90349984D01*
X127396483Y-90348235D01*
X127458618Y-90350920D01*
X127533893Y-90357497D01*
X127615550Y-90367420D01*
X127696833Y-90380147D01*
X127745067Y-90389414D01*
X127877313Y-90419489D01*
X127991003Y-90451640D01*
X128098872Y-90490276D01*
X128213654Y-90539802D01*
X128303867Y-90582788D01*
X128405713Y-90636798D01*
X128512726Y-90700658D01*
X128615522Y-90768242D01*
X128704720Y-90833427D01*
X128762860Y-90882394D01*
X128806986Y-90923500D01*
X128889860Y-90827533D01*
X129060075Y-90611280D01*
X129209365Y-90382400D01*
X129333765Y-90147633D01*
X129429313Y-89913717D01*
X129432014Y-89905840D01*
X129458482Y-89834486D01*
X129478055Y-89796262D01*
X129490833Y-89791161D01*
X129496916Y-89819178D01*
G36*
X129065375Y-92424859D02*
G01*
X129065867Y-92428907D01*
X129052981Y-92445348D01*
X129048933Y-92445840D01*
X129032492Y-92432954D01*
X129032000Y-92428907D01*
X129044886Y-92412466D01*
X129048933Y-92411974D01*
X129065375Y-92424859D01*
G37*
X129065375Y-92424859D02*
X129065867Y-92428907D01*
X129052981Y-92445348D01*
X129048933Y-92445840D01*
X129032492Y-92432954D01*
X129032000Y-92428907D01*
X129044886Y-92412466D01*
X129048933Y-92411974D01*
X129065375Y-92424859D01*
D13*
X121806000Y-102549000D02*
X122628470Y-102549000D01*
X124513530Y-102549000D02*
X125336000Y-102549000D01*
X123243530Y-102549000D02*
X123898470Y-102549000D01*
X121806000Y-86104000D02*
X121806000Y-102549000D01*
X125336000Y-84649000D02*
X125336000Y-102549000D01*
X121806000Y-86104000D02*
X122372529Y-86104000D01*
X123499471Y-86104000D02*
X123642529Y-86104000D01*
X123696000Y-86050529D02*
X123696000Y-85907471D01*
X123696000Y-84780529D02*
X123696000Y-84649000D01*
X123696000Y-84649000D02*
X123898470Y-84649000D01*
X124513530Y-84649000D02*
X125336000Y-84649000D01*
X121806000Y-85344000D02*
X121806000Y-84584000D01*
X121806000Y-84584000D02*
X122936000Y-84584000D01*
X133172200Y-92327300D02*
X133172200Y-91427300D01*
X134470000Y-91427300D02*
X133170000Y-91427300D01*
D14*
X132891200Y-91109800D02*
G75*
G03*
X132891200Y-91109800I-100000J0D01*
G01*
D13*
X133170000Y-95265000D02*
X133170000Y-94365000D01*
X134470000Y-95265000D02*
X133170000Y-95265000D01*
X138610000Y-91425000D02*
X138610000Y-92325000D01*
X137310000Y-91425000D02*
X138610000Y-91425000D01*
X138610000Y-95265000D02*
X138610000Y-94365000D01*
X137310000Y-95265000D02*
X138610000Y-95265000D01*
X138610000Y-91425000D02*
X138610000Y-92325000D01*
X137310000Y-91425000D02*
X138610000Y-91425000D01*
X138610000Y-91425000D02*
X138610000Y-92325000D01*
X137310000Y-91425000D02*
X138610000Y-91425000D01*
X149466000Y-84649000D02*
X148643530Y-84649000D01*
X146758470Y-84649000D02*
X145936000Y-84649000D01*
X148028470Y-84649000D02*
X147373530Y-84649000D01*
X149466000Y-101094000D02*
X149466000Y-84649000D01*
X145936000Y-102549000D02*
X145936000Y-84649000D01*
X149466000Y-101094000D02*
X148899471Y-101094000D01*
X147772529Y-101094000D02*
X147629471Y-101094000D01*
X147576000Y-101147471D02*
X147576000Y-101290529D01*
X147576000Y-102417471D02*
X147576000Y-102549000D01*
X147576000Y-102549000D02*
X147373530Y-102549000D01*
X146758470Y-102549000D02*
X145936000Y-102549000D01*
X149466000Y-101854000D02*
X149466000Y-102614000D01*
X149466000Y-102614000D02*
X148336000Y-102614000D01*
X144586000Y-107302000D02*
X144586000Y-106479530D01*
X144586000Y-104594470D02*
X144586000Y-103772000D01*
X144586000Y-105864470D02*
X144586000Y-105209530D01*
X128141000Y-107302000D02*
X144586000Y-107302000D01*
X126686000Y-103772000D02*
X144586000Y-103772000D01*
X128141000Y-107302000D02*
X128141000Y-106735471D01*
X128141000Y-105608529D02*
X128141000Y-105465471D01*
X128087529Y-105412000D02*
X127944471Y-105412000D01*
X126817529Y-105412000D02*
X126686000Y-105412000D01*
X126686000Y-105412000D02*
X126686000Y-105209530D01*
X126686000Y-104594470D02*
X126686000Y-103772000D01*
X127381000Y-107302000D02*
X126621000Y-107302000D01*
X126621000Y-107302000D02*
X126621000Y-106172000D01*
X126686000Y-79642000D02*
X126686000Y-80464470D01*
X126686000Y-82349530D02*
X126686000Y-83172000D01*
X126686000Y-81079530D02*
X126686000Y-81734470D01*
X143131000Y-79642000D02*
X126686000Y-79642000D01*
X144586000Y-83172000D02*
X126686000Y-83172000D01*
X143131000Y-79642000D02*
X143131000Y-80208529D01*
X143131000Y-81335471D02*
X143131000Y-81478529D01*
X143184471Y-81532000D02*
X143327529Y-81532000D01*
X144454471Y-81532000D02*
X144586000Y-81532000D01*
X144586000Y-81532000D02*
X144586000Y-81734470D01*
X144586000Y-82349530D02*
X144586000Y-83172000D01*
X143891000Y-79642000D02*
X144651000Y-79642000D01*
X144651000Y-79642000D02*
X144651000Y-80772000D01*
X133275800Y-86171821D02*
X133275800Y-86497379D01*
X132255800Y-86171821D02*
X132255800Y-86497379D01*
X138432000Y-100421221D02*
X138432000Y-100746779D01*
X137412000Y-100421221D02*
X137412000Y-100746779D01*
X136880060Y-86184521D02*
X136880060Y-86510079D01*
X135860060Y-86184521D02*
X135860060Y-86510079D01*
X135053800Y-86171821D02*
X135053800Y-86497379D01*
X134033800Y-86171821D02*
X134033800Y-86497379D01*
X136527000Y-100421221D02*
X136527000Y-100746779D01*
X135507000Y-100421221D02*
X135507000Y-100746779D01*
X138640280Y-86184521D02*
X138640280Y-86510079D01*
X137620280Y-86184521D02*
X137620280Y-86510079D01*
X133602000Y-100746779D02*
X133602000Y-100421221D01*
X134622000Y-100746779D02*
X134622000Y-100421221D01*
D11*
X123994333Y-82964261D02*
X123994333Y-83417833D01*
X123964095Y-83508547D01*
X123903619Y-83569023D01*
X123812904Y-83599261D01*
X123752428Y-83599261D01*
X124266476Y-83024738D02*
X124296714Y-82994500D01*
X124357190Y-82964261D01*
X124508380Y-82964261D01*
X124568857Y-82994500D01*
X124599095Y-83024738D01*
X124629333Y-83085214D01*
X124629333Y-83145690D01*
X124599095Y-83236404D01*
X124236238Y-83599261D01*
X124629333Y-83599261D01*
X139131281Y-93762769D02*
X139645329Y-93762769D01*
X139705805Y-93732531D01*
X139736043Y-93702293D01*
X139766281Y-93641817D01*
X139766281Y-93520864D01*
X139736043Y-93460388D01*
X139705805Y-93430150D01*
X139645329Y-93399912D01*
X139131281Y-93399912D01*
X139766281Y-92764912D02*
X139766281Y-93127769D01*
X139766281Y-92946340D02*
X139131281Y-92946340D01*
X139221996Y-93006817D01*
X139282472Y-93067293D01*
X139312710Y-93127769D01*
X146727333Y-103792261D02*
X146727333Y-104245833D01*
X146697095Y-104336547D01*
X146636619Y-104397023D01*
X146545904Y-104427261D01*
X146485428Y-104427261D01*
X147301857Y-104003928D02*
X147301857Y-104427261D01*
X147150666Y-103762023D02*
X146999476Y-104215595D01*
X147392571Y-104215595D01*
X124747261Y-105113666D02*
X125200833Y-105113666D01*
X125291547Y-105143904D01*
X125352023Y-105204380D01*
X125382261Y-105295095D01*
X125382261Y-105355571D01*
X124747261Y-104871761D02*
X124747261Y-104478666D01*
X124989166Y-104690333D01*
X124989166Y-104599619D01*
X125019404Y-104539142D01*
X125049642Y-104508904D01*
X125110119Y-104478666D01*
X125261309Y-104478666D01*
X125321785Y-104508904D01*
X125352023Y-104539142D01*
X125382261Y-104599619D01*
X125382261Y-104781047D01*
X125352023Y-104841523D01*
X125321785Y-104871761D01*
X145702261Y-82126666D02*
X146155833Y-82126666D01*
X146246547Y-82156904D01*
X146307023Y-82217380D01*
X146337261Y-82308095D01*
X146337261Y-82368571D01*
X146337261Y-81491666D02*
X146337261Y-81854523D01*
X146337261Y-81673095D02*
X145702261Y-81673095D01*
X145792976Y-81733571D01*
X145853452Y-81794047D01*
X145883690Y-81854523D01*
X132659966Y-84529385D02*
X132629728Y-84559623D01*
X132539014Y-84589861D01*
X132478538Y-84589861D01*
X132387823Y-84559623D01*
X132327347Y-84499147D01*
X132297109Y-84438671D01*
X132266871Y-84317719D01*
X132266871Y-84227004D01*
X132297109Y-84106052D01*
X132327347Y-84045576D01*
X132387823Y-83985100D01*
X132478538Y-83954861D01*
X132539014Y-83954861D01*
X132629728Y-83985100D01*
X132659966Y-84015338D01*
X132871633Y-83954861D02*
X133294966Y-83954861D01*
X133022823Y-84589861D01*
X137816166Y-102842785D02*
X137785928Y-102873023D01*
X137695214Y-102903261D01*
X137634738Y-102903261D01*
X137544023Y-102873023D01*
X137483547Y-102812547D01*
X137453309Y-102752071D01*
X137423071Y-102631119D01*
X137423071Y-102540404D01*
X137453309Y-102419452D01*
X137483547Y-102358976D01*
X137544023Y-102298500D01*
X137634738Y-102268261D01*
X137695214Y-102268261D01*
X137785928Y-102298500D01*
X137816166Y-102328738D01*
X138027833Y-102268261D02*
X138420928Y-102268261D01*
X138209261Y-102510166D01*
X138299976Y-102510166D01*
X138360452Y-102540404D01*
X138390690Y-102570642D01*
X138420928Y-102631119D01*
X138420928Y-102782309D01*
X138390690Y-102842785D01*
X138360452Y-102873023D01*
X138299976Y-102903261D01*
X138118547Y-102903261D01*
X138058071Y-102873023D01*
X138027833Y-102842785D01*
X136188026Y-84542185D02*
X136157788Y-84572423D01*
X136067074Y-84602661D01*
X136006598Y-84602661D01*
X135915883Y-84572423D01*
X135855407Y-84511947D01*
X135825169Y-84451471D01*
X135794931Y-84330519D01*
X135794931Y-84239804D01*
X135825169Y-84118852D01*
X135855407Y-84058376D01*
X135915883Y-83997900D01*
X136006598Y-83967661D01*
X136067074Y-83967661D01*
X136157788Y-83997900D01*
X136188026Y-84028138D01*
X136732312Y-84179328D02*
X136732312Y-84602661D01*
X136581121Y-83937423D02*
X136429931Y-84390995D01*
X136823026Y-84390995D01*
X134437966Y-84529385D02*
X134407728Y-84559623D01*
X134317014Y-84589861D01*
X134256538Y-84589861D01*
X134165823Y-84559623D01*
X134105347Y-84499147D01*
X134075109Y-84438671D01*
X134044871Y-84317719D01*
X134044871Y-84227004D01*
X134075109Y-84106052D01*
X134105347Y-84045576D01*
X134165823Y-83985100D01*
X134256538Y-83954861D01*
X134317014Y-83954861D01*
X134407728Y-83985100D01*
X134437966Y-84015338D01*
X134982252Y-83954861D02*
X134861300Y-83954861D01*
X134800823Y-83985100D01*
X134770585Y-84015338D01*
X134710109Y-84106052D01*
X134679871Y-84227004D01*
X134679871Y-84468909D01*
X134710109Y-84529385D01*
X134740347Y-84559623D01*
X134800823Y-84589861D01*
X134921776Y-84589861D01*
X134982252Y-84559623D01*
X135012490Y-84529385D01*
X135042728Y-84468909D01*
X135042728Y-84317719D01*
X135012490Y-84257242D01*
X134982252Y-84227004D01*
X134921776Y-84196766D01*
X134800823Y-84196766D01*
X134740347Y-84227004D01*
X134710109Y-84257242D01*
X134679871Y-84317719D01*
X135911166Y-102842785D02*
X135880928Y-102873023D01*
X135790214Y-102903261D01*
X135729738Y-102903261D01*
X135639023Y-102873023D01*
X135578547Y-102812547D01*
X135548309Y-102752071D01*
X135518071Y-102631119D01*
X135518071Y-102540404D01*
X135548309Y-102419452D01*
X135578547Y-102358976D01*
X135639023Y-102298500D01*
X135729738Y-102268261D01*
X135790214Y-102268261D01*
X135880928Y-102298500D01*
X135911166Y-102328738D01*
X136153071Y-102328738D02*
X136183309Y-102298500D01*
X136243785Y-102268261D01*
X136394976Y-102268261D01*
X136455452Y-102298500D01*
X136485690Y-102328738D01*
X136515928Y-102389214D01*
X136515928Y-102449690D01*
X136485690Y-102540404D01*
X136122833Y-102903261D01*
X136515928Y-102903261D01*
X138024446Y-84567585D02*
X137994208Y-84597823D01*
X137903494Y-84628061D01*
X137843018Y-84628061D01*
X137752303Y-84597823D01*
X137691827Y-84537347D01*
X137661589Y-84476871D01*
X137631351Y-84355919D01*
X137631351Y-84265204D01*
X137661589Y-84144252D01*
X137691827Y-84083776D01*
X137752303Y-84023300D01*
X137843018Y-83993061D01*
X137903494Y-83993061D01*
X137994208Y-84023300D01*
X138024446Y-84053538D01*
X138598970Y-83993061D02*
X138296589Y-83993061D01*
X138266351Y-84295442D01*
X138296589Y-84265204D01*
X138357065Y-84234966D01*
X138508256Y-84234966D01*
X138568732Y-84265204D01*
X138598970Y-84295442D01*
X138629208Y-84355919D01*
X138629208Y-84507109D01*
X138598970Y-84567585D01*
X138568732Y-84597823D01*
X138508256Y-84628061D01*
X138357065Y-84628061D01*
X138296589Y-84597823D01*
X138266351Y-84567585D01*
X134006166Y-102842785D02*
X133975928Y-102873023D01*
X133885214Y-102903261D01*
X133824738Y-102903261D01*
X133734023Y-102873023D01*
X133673547Y-102812547D01*
X133643309Y-102752071D01*
X133613071Y-102631119D01*
X133613071Y-102540404D01*
X133643309Y-102419452D01*
X133673547Y-102358976D01*
X133734023Y-102298500D01*
X133824738Y-102268261D01*
X133885214Y-102268261D01*
X133975928Y-102298500D01*
X134006166Y-102328738D01*
X134610928Y-102903261D02*
X134248071Y-102903261D01*
X134429500Y-102903261D02*
X134429500Y-102268261D01*
X134369023Y-102358976D01*
X134308547Y-102419452D01*
X134248071Y-102449690D01*
M02*
